G04 #@! TF.GenerationSoftware,KiCad,Pcbnew,8.0.4*
G04 #@! TF.CreationDate,2025-02-25T17:16:13+05:30*
G04 #@! TF.ProjectId,P-1000101_Cicada WiSun,502d3130-3030-4313-9031-5f4369636164,0.1*
G04 #@! TF.SameCoordinates,PX7cee6c0PY3dfd240*
G04 #@! TF.FileFunction,Copper,L2,Inr*
G04 #@! TF.FilePolarity,Positive*
%FSLAX46Y46*%
G04 Gerber Fmt 4.6, Leading zero omitted, Abs format (unit mm)*
G04 Created by KiCad (PCBNEW 8.0.4) date 2025-02-25 17:16:13*
%MOMM*%
%LPD*%
G01*
G04 APERTURE LIST*
G04 #@! TA.AperFunction,ComponentPad*
%ADD10R,1.600000X1.600000*%
G04 #@! TD*
G04 #@! TA.AperFunction,ComponentPad*
%ADD11C,1.600000*%
G04 #@! TD*
G04 #@! TA.AperFunction,ComponentPad*
%ADD12C,0.500000*%
G04 #@! TD*
G04 #@! TA.AperFunction,ComponentPad*
%ADD13C,5.500000*%
G04 #@! TD*
G04 #@! TA.AperFunction,ComponentPad*
%ADD14O,1.700000X1.700000*%
G04 #@! TD*
G04 #@! TA.AperFunction,ComponentPad*
%ADD15R,1.700000X1.700000*%
G04 #@! TD*
G04 #@! TA.AperFunction,ViaPad*
%ADD16C,0.500000*%
G04 #@! TD*
G04 #@! TA.AperFunction,Conductor*
%ADD17C,0.195000*%
G04 #@! TD*
G04 APERTURE END LIST*
D10*
X16222860Y-33962340D03*
D11*
X12722860Y-33962340D03*
D10*
X4780400Y-30457140D03*
D11*
X8280400Y-30457140D03*
D10*
X4739760Y-21798280D03*
D11*
X8239760Y-21798280D03*
D10*
X4815840Y-39116000D03*
D11*
X8315840Y-39116000D03*
D10*
X16202540Y-25318720D03*
D11*
X12702540Y-25318720D03*
D12*
X-7375000Y-30640000D03*
X-7350000Y-31900000D03*
X-7350000Y-33160000D03*
X-6310000Y-29575000D03*
X-6310000Y-30640000D03*
X-6310000Y-31900000D03*
X-6310000Y-33160000D03*
X-6310000Y-34225000D03*
X-5050000Y-29575000D03*
X-5050000Y-30640000D03*
X-5050000Y-31900000D03*
X-5050000Y-33160000D03*
X-5050000Y-34225000D03*
X-3790000Y-29575000D03*
X-3790000Y-30640000D03*
X-3790000Y-31900000D03*
X-3790000Y-33160000D03*
X-3790000Y-34225000D03*
X-2725000Y-30640000D03*
X-2725000Y-31900000D03*
X-2725000Y-33160000D03*
D13*
X17030000Y-57000000D03*
X-17013750Y-57000000D03*
D14*
X11455400Y1244600D03*
X-11404600Y1244600D03*
X11455400Y-1295400D03*
D15*
X-11404600Y-1295400D03*
D14*
X-8864600Y-1295400D03*
X-8864600Y1244600D03*
X-6324600Y-1295400D03*
X-6324600Y1244600D03*
X-3784600Y-1295400D03*
X-3784600Y1244600D03*
X-1244600Y-1295400D03*
X-1244600Y1244600D03*
X1295400Y-1295400D03*
X1295400Y1244600D03*
X3835400Y-1295400D03*
X3835400Y1244600D03*
X6375400Y-1295400D03*
X6375400Y1244600D03*
X8915400Y-1295400D03*
X8915400Y1244600D03*
D16*
X10000000Y-22000000D03*
X-17610000Y-44990000D03*
X-16000000Y-53000000D03*
X500000Y-14000000D03*
X15320000Y-9680000D03*
X-8000000Y-53000000D03*
X-10774414Y-35395586D03*
X19000000Y-36000000D03*
X-11000000Y-28000000D03*
X13716000Y-48260000D03*
X-310000Y-40790000D03*
X-3000000Y-12000000D03*
X10000000Y-37000000D03*
X10000000Y-42500000D03*
X-17000000Y-27000000D03*
X-5000000Y-53090000D03*
X-17000000Y-25000000D03*
X-15610000Y-46390000D03*
X-14000000Y-53000000D03*
X13000000Y-59000000D03*
X-1020000Y-53980000D03*
X-5550000Y-43010000D03*
X-15610000Y-43390000D03*
X10000000Y-28000000D03*
X-9000000Y-55000000D03*
X19000000Y-30000000D03*
X-15000000Y-30000000D03*
X12000000Y-4000000D03*
X-13000000Y-25000000D03*
X15000000Y-54000000D03*
X-7000000Y-8000000D03*
X-10000000Y-57000000D03*
X-12000000Y-53000000D03*
X-19380000Y-43500000D03*
X-7100681Y-39494066D03*
X1250000Y-42250000D03*
X8000000Y-35500000D03*
X7970000Y-34230000D03*
X-17000000Y-23000000D03*
X1250000Y-45250000D03*
X15040000Y-14960000D03*
X-5000000Y4000000D03*
X-17000000Y-5000000D03*
X14000000Y-28000000D03*
X13000000Y-54000000D03*
X1250000Y-53250000D03*
X19000000Y-12000000D03*
X15000000Y0D03*
X14000000Y-22500000D03*
X8250000Y-26500000D03*
X1850000Y-33490000D03*
X-3930000Y-47630000D03*
X-8000000Y-57000000D03*
X-11000000Y-8000000D03*
X1750000Y-19250000D03*
X-17000000Y-29000000D03*
X-15000000Y-4000000D03*
X-13000000Y-9000000D03*
X-19000000Y0D03*
X12240000Y-6760000D03*
X-10000000Y-53000000D03*
X3000000Y-59000000D03*
X-17000000Y-1000000D03*
X-12740000Y-42950000D03*
X-11000000Y4000000D03*
X10000000Y-5000000D03*
X1000000Y-4000000D03*
X-7000000Y-4000000D03*
X-11000000Y-22000000D03*
X13716000Y-49530000D03*
X-19000000Y-24000000D03*
X-19000000Y-28000000D03*
X-1515000Y-58840000D03*
X-17000000Y4000000D03*
X-19000000Y2000000D03*
X-13000000Y-59000000D03*
X-19000000Y-8000000D03*
X3000000Y-5000000D03*
X1250000Y-43750000D03*
X19000000Y-18000000D03*
X-8275000Y-13225000D03*
X-15000000Y-8000000D03*
X19000000Y-33000000D03*
X-13660000Y-46670000D03*
X-15000000Y-6000000D03*
X10000000Y-15000000D03*
X-5590000Y-38570000D03*
X-13000000Y-29000000D03*
X-15000000Y-2000000D03*
X1250000Y-48250000D03*
X-5720000Y-57340000D03*
X9000000Y-59000000D03*
X-3000000Y4000000D03*
X1250000Y-49750000D03*
X-18000000Y-53000000D03*
X1250000Y-46750000D03*
X8240000Y-6760000D03*
X-19000000Y-2000000D03*
X-4465000Y-58840000D03*
X10000000Y-40000000D03*
X-17000000Y-9000000D03*
X8000000Y-20000000D03*
X-9140000Y-37790000D03*
X19000000Y-24000000D03*
X-13000000Y-27000000D03*
X1000000Y-59000000D03*
X19000000Y-42000000D03*
X-5000000Y-7000000D03*
X1250000Y-40750000D03*
X15000000Y-4000000D03*
X-11570000Y-35400000D03*
X-13000000Y-55000000D03*
X19000000Y-54000000D03*
X5000000Y-59000000D03*
X1750000Y-14500000D03*
X1250000Y-51500000D03*
X-1244600Y-4244600D03*
X-19000000Y-30000000D03*
X12000000Y-29500000D03*
X-15000000Y-26000000D03*
X8000000Y-4000000D03*
X11000000Y-59000000D03*
X17000000Y-7000000D03*
X-11000000Y-24000000D03*
X1850000Y-36520000D03*
X17000000Y-44000000D03*
X14000000Y-36000000D03*
X9000000Y-54000000D03*
X-7000000Y-6000000D03*
X10000000Y-18000000D03*
X1750000Y-17750000D03*
X-8840000Y-41480000D03*
X11000000Y-54000000D03*
X14000000Y-19500000D03*
X1750000Y-16000000D03*
X-11000000Y-55000000D03*
X-13890000Y-40970000D03*
X-4000000Y-11000000D03*
X-13000000Y4000000D03*
X19000000Y-39000000D03*
X-390000Y-57340000D03*
X14000000Y-31000000D03*
X-15000000Y-28000000D03*
X10000000Y-34000000D03*
X10000000Y-25000000D03*
X-3629500Y-20529500D03*
X-10900000Y-37210000D03*
X-3960000Y-46560000D03*
X5000000Y-54000000D03*
X17000000Y-3000000D03*
X4240000Y-6760000D03*
X-5000000Y-9000000D03*
X2240000Y-6760000D03*
X-19000000Y-10000000D03*
X-13000000Y-23000000D03*
X7000000Y-59000000D03*
X14000000Y-6000000D03*
X2000000Y3000000D03*
X-19000000Y-4000000D03*
X-9000000Y4000000D03*
X14000000Y2000000D03*
X11938000Y-49530000D03*
X-17000000Y-31000000D03*
X5000000Y-4000000D03*
X0Y3000000D03*
X-7000000Y4000000D03*
X19000000Y-15000000D03*
X-4530000Y-42990000D03*
X-11000000Y-59000000D03*
X10000000Y-31000000D03*
X19000000Y-27000000D03*
X-19000000Y-22000000D03*
X15215000Y-7785000D03*
X-15000000Y-24000000D03*
X-11170000Y-32700000D03*
X3000000Y-54000000D03*
X17000000Y1000000D03*
X-550000Y-43130000D03*
X17000000Y-1000000D03*
X-19360000Y-46520000D03*
X10414000Y-49530000D03*
X1250000Y-39250000D03*
X-17000000Y-7000000D03*
X14000000Y-38500000D03*
X-19000000Y-6000000D03*
X-15000000Y4000000D03*
X-19000000Y-26000000D03*
X-2000000Y-7000000D03*
X-1020000Y-46870000D03*
X-5000000Y-5000000D03*
X-125000Y-6125000D03*
X-11000000Y-30000000D03*
X14000000Y-2000000D03*
X-15000000Y1000000D03*
X8000000Y-41250000D03*
X19000000Y-21000000D03*
X14000000Y-9000000D03*
X-9000000Y-59000000D03*
X-17000000Y-3000000D03*
X17000000Y-5000000D03*
X-10620000Y-17150000D03*
X-3940000Y-50080000D03*
X10240000Y-6760000D03*
X7000000Y-54000000D03*
X-4590000Y-50110000D03*
X-9000000Y-9000000D03*
X-15000000Y-22000000D03*
X17430000Y-14200000D03*
X9580000Y-48260000D03*
X3302000Y-24638000D03*
X5080000Y-48768000D03*
X5842000Y-27686000D03*
X3302000Y-35052000D03*
X6604000Y-49784000D03*
X4572000Y-32766000D03*
X-630000Y-30600000D03*
X3556000Y-49784000D03*
X3360000Y-15170000D03*
X5820000Y-17780000D03*
X3302000Y-26162000D03*
X5842000Y-35052000D03*
X4572000Y-19812000D03*
X-10272096Y-32750000D03*
X4572000Y-23876000D03*
X5080000Y-44704000D03*
X3310000Y-17890000D03*
X-7020000Y-27420000D03*
X3556000Y-51816000D03*
X4572000Y-26924000D03*
X3302000Y-27940000D03*
X-7360000Y-25580000D03*
X4572000Y-35814000D03*
X3556000Y-43688000D03*
X19050000Y-52324000D03*
X3556000Y-45720000D03*
X-11030000Y-19070000D03*
X-4450000Y-17990000D03*
X1900000Y-21190000D03*
X9652000Y-51816000D03*
X5820000Y-15080000D03*
X5842000Y-24638000D03*
X5842000Y-36576000D03*
X6604000Y-47752000D03*
X1870000Y-23740000D03*
X8128000Y-48768000D03*
X-5380000Y-40540000D03*
X14986000Y-52324000D03*
X3302000Y-36830000D03*
X4572000Y-25400000D03*
X5080000Y-46736000D03*
X3302000Y-33528000D03*
X5842000Y-33528000D03*
X6604000Y-51816000D03*
X-710000Y-34990000D03*
X3556000Y-47752000D03*
X8128000Y-50800000D03*
X5080000Y-42672000D03*
X3556000Y-41656000D03*
X5842000Y-26162000D03*
X-11300000Y-26560000D03*
X5080000Y-50800000D03*
X17018000Y-52324000D03*
X4572000Y-34290000D03*
X-630000Y-29630000D03*
X16710000Y-12960000D03*
X-19540000Y-13990000D03*
X-8730000Y-20840000D03*
X2155001Y-12944999D03*
X-8440000Y-27500000D03*
X-4065399Y-36123429D03*
X-3385897Y-36123929D03*
X-9976932Y-33504647D03*
X-4773000Y-36090000D03*
X-5580000Y-37760000D03*
X-12240000Y-36010000D03*
X-12983000Y-31770480D03*
X-5240000Y-48500000D03*
X-12598629Y-32350342D03*
X-2432500Y-48637500D03*
X-3270000Y-17720000D03*
X-3100000Y-27239500D03*
X-2380000Y-27260000D03*
X-1500000Y-16500000D03*
X10700000Y-11470000D03*
X18035000Y-10405000D03*
X6270000Y-10430000D03*
X-400000Y-20000000D03*
X-9500000Y-20000000D03*
X-19500000Y-19070000D03*
X-710000Y-28760000D03*
X-1700000Y-18800000D03*
X-9300000Y-18700000D03*
X-19490000Y-17800000D03*
X-1750000Y-28000000D03*
X-19520000Y-16530000D03*
X-9320000Y-17460000D03*
X-9330000Y-16420000D03*
X-19540000Y-15290000D03*
X-7500000Y-15300000D03*
X-590000Y-32130000D03*
X-5450000Y-14075000D03*
X-7980000Y-10620000D03*
X-17360000Y-11400000D03*
X-600000Y-31370000D03*
X-6470000Y-14650000D03*
X-4470000Y-26670000D03*
X1569500Y-26600000D03*
X-13510000Y-31290000D03*
X-5980000Y-48690000D03*
X-8180500Y-25470000D03*
X-9395353Y-34674647D03*
X-9380000Y-33180000D03*
X-6300000Y-26140000D03*
D17*
X-11030000Y-19070000D02*
X-10720000Y-19380000D01*
X-10720000Y-19380000D02*
X-5840000Y-19380000D01*
X-5840000Y-19380000D02*
X-4450000Y-17990000D01*
G04 #@! TA.AperFunction,Conductor*
G36*
X17003525Y4924303D02*
G01*
X17320377Y4906508D01*
X17334415Y4904926D01*
X17643790Y4852362D01*
X17657552Y4849221D01*
X17959105Y4762345D01*
X17972436Y4757680D01*
X18262366Y4637587D01*
X18275076Y4631466D01*
X18549733Y4479669D01*
X18561692Y4472155D01*
X18817626Y4290560D01*
X18828673Y4281750D01*
X19062657Y4072649D01*
X19072648Y4062658D01*
X19281749Y3828674D01*
X19290559Y3817627D01*
X19472154Y3561693D01*
X19479671Y3549729D01*
X19631458Y3275091D01*
X19637589Y3262360D01*
X19757678Y2972440D01*
X19762345Y2959103D01*
X19849218Y2657561D01*
X19852362Y2643785D01*
X19904925Y2334415D01*
X19906507Y2320375D01*
X19924302Y2003526D01*
X19924500Y1996461D01*
X19924500Y-55650730D01*
X19904498Y-55718851D01*
X19850842Y-55765344D01*
X19780568Y-55775448D01*
X19715988Y-55745954D01*
X19682805Y-55700637D01*
X19671136Y-55673586D01*
X19671131Y-55673574D01*
X19499284Y-55375926D01*
X19478045Y-55347397D01*
X19294047Y-55100244D01*
X19058183Y-54850243D01*
X18794897Y-54629321D01*
X18507757Y-54440466D01*
X18507753Y-54440464D01*
X18507750Y-54440462D01*
X18200614Y-54286212D01*
X18200613Y-54286211D01*
X18200610Y-54286210D01*
X17877655Y-54168664D01*
X17877648Y-54168662D01*
X17877647Y-54168662D01*
X17689835Y-54124150D01*
X17543222Y-54089402D01*
X17543212Y-54089400D01*
X17201850Y-54049500D01*
X17201847Y-54049500D01*
X16858153Y-54049500D01*
X16858150Y-54049500D01*
X16516787Y-54089400D01*
X16516777Y-54089402D01*
X16182353Y-54168662D01*
X16182344Y-54168664D01*
X15859389Y-54286210D01*
X15552242Y-54440466D01*
X15265102Y-54629321D01*
X15001816Y-54850243D01*
X14765952Y-55100244D01*
X14560727Y-55375910D01*
X14560709Y-55375937D01*
X14388872Y-55673568D01*
X14388863Y-55673586D01*
X14252741Y-55989151D01*
X14252739Y-55989157D01*
X14154166Y-56318414D01*
X14094483Y-56656891D01*
X14094483Y-56656897D01*
X14074500Y-57000000D01*
X14094483Y-57343102D01*
X14094483Y-57343108D01*
X14094484Y-57343113D01*
X14154166Y-57681585D01*
X14252738Y-58010841D01*
X14388869Y-58326426D01*
X14560716Y-58624074D01*
X14560725Y-58624086D01*
X14560727Y-58624089D01*
X14765952Y-58899755D01*
X15001816Y-59149756D01*
X15265102Y-59370678D01*
X15552242Y-59559533D01*
X15552250Y-59559538D01*
X15803861Y-59685902D01*
X15855759Y-59734350D01*
X15873226Y-59803164D01*
X15850716Y-59870498D01*
X15795376Y-59914973D01*
X15747312Y-59924500D01*
X-15731062Y-59924500D01*
X-15799183Y-59904498D01*
X-15845676Y-59850842D01*
X-15855780Y-59780568D01*
X-15826286Y-59715988D01*
X-15787611Y-59685902D01*
X-15536000Y-59559538D01*
X-15248848Y-59370675D01*
X-14985563Y-59149753D01*
X-14749706Y-58899759D01*
X-14544466Y-58624074D01*
X-14372619Y-58326426D01*
X-14236488Y-58010841D01*
X-14137916Y-57681585D01*
X-14078234Y-57343113D01*
X-14058250Y-57000000D01*
X-14078234Y-56656887D01*
X-14137916Y-56318415D01*
X-14236488Y-55989159D01*
X-14372619Y-55673574D01*
X-14544466Y-55375926D01*
X-14565705Y-55347397D01*
X-14749703Y-55100244D01*
X-14985567Y-54850243D01*
X-15248853Y-54629321D01*
X-15535993Y-54440466D01*
X-15535997Y-54440464D01*
X-15536000Y-54440462D01*
X-15843136Y-54286212D01*
X-15843137Y-54286211D01*
X-15843140Y-54286210D01*
X-16166095Y-54168664D01*
X-16166102Y-54168662D01*
X-16166103Y-54168662D01*
X-16353915Y-54124150D01*
X-16500528Y-54089402D01*
X-16500538Y-54089400D01*
X-16841900Y-54049500D01*
X-16841903Y-54049500D01*
X-17185597Y-54049500D01*
X-17185600Y-54049500D01*
X-17526963Y-54089400D01*
X-17526973Y-54089402D01*
X-17861397Y-54168662D01*
X-17861406Y-54168664D01*
X-18184361Y-54286210D01*
X-18491508Y-54440466D01*
X-18778648Y-54629321D01*
X-19041934Y-54850243D01*
X-19277798Y-55100244D01*
X-19483023Y-55375910D01*
X-19483041Y-55375937D01*
X-19654878Y-55673568D01*
X-19654884Y-55673580D01*
X-19682805Y-55738308D01*
X-19728153Y-55792935D01*
X-19795835Y-55814373D01*
X-19864364Y-55795816D01*
X-19911981Y-55743155D01*
X-19924500Y-55688401D01*
X-19924500Y-52324000D01*
X14530867Y-52324000D01*
X14549303Y-52452226D01*
X14603118Y-52570063D01*
X14687951Y-52667967D01*
X14796931Y-52738004D01*
X14921228Y-52774500D01*
X14921232Y-52774500D01*
X15050768Y-52774500D01*
X15050772Y-52774500D01*
X15175069Y-52738004D01*
X15284049Y-52667967D01*
X15368882Y-52570063D01*
X15422697Y-52452226D01*
X15441133Y-52324000D01*
X16562867Y-52324000D01*
X16581303Y-52452226D01*
X16635118Y-52570063D01*
X16719951Y-52667967D01*
X16828931Y-52738004D01*
X16953228Y-52774500D01*
X16953232Y-52774500D01*
X17082768Y-52774500D01*
X17082772Y-52774500D01*
X17207069Y-52738004D01*
X17316049Y-52667967D01*
X17400882Y-52570063D01*
X17454697Y-52452226D01*
X17473133Y-52324000D01*
X18594867Y-52324000D01*
X18613303Y-52452226D01*
X18667118Y-52570063D01*
X18751951Y-52667967D01*
X18860931Y-52738004D01*
X18985228Y-52774500D01*
X18985232Y-52774500D01*
X19114768Y-52774500D01*
X19114772Y-52774500D01*
X19239069Y-52738004D01*
X19348049Y-52667967D01*
X19432882Y-52570063D01*
X19486697Y-52452226D01*
X19505133Y-52324000D01*
X19486697Y-52195774D01*
X19432882Y-52077937D01*
X19348049Y-51980033D01*
X19348048Y-51980032D01*
X19239073Y-51909998D01*
X19239070Y-51909996D01*
X19239069Y-51909996D01*
X19239066Y-51909995D01*
X19114776Y-51873501D01*
X19114774Y-51873500D01*
X19114772Y-51873500D01*
X18985228Y-51873500D01*
X18985225Y-51873500D01*
X18985223Y-51873501D01*
X18860933Y-51909995D01*
X18860926Y-51909998D01*
X18751951Y-51980032D01*
X18680873Y-52062063D01*
X18667118Y-52077937D01*
X18613303Y-52195774D01*
X18594867Y-52324000D01*
X17473133Y-52324000D01*
X17454697Y-52195774D01*
X17400882Y-52077937D01*
X17316049Y-51980033D01*
X17316048Y-51980032D01*
X17207073Y-51909998D01*
X17207070Y-51909996D01*
X17207069Y-51909996D01*
X17207066Y-51909995D01*
X17082776Y-51873501D01*
X17082774Y-51873500D01*
X17082772Y-51873500D01*
X16953228Y-51873500D01*
X16953225Y-51873500D01*
X16953223Y-51873501D01*
X16828933Y-51909995D01*
X16828926Y-51909998D01*
X16719951Y-51980032D01*
X16648873Y-52062063D01*
X16635118Y-52077937D01*
X16581303Y-52195774D01*
X16562867Y-52324000D01*
X15441133Y-52324000D01*
X15422697Y-52195774D01*
X15368882Y-52077937D01*
X15284049Y-51980033D01*
X15284048Y-51980032D01*
X15175073Y-51909998D01*
X15175070Y-51909996D01*
X15175069Y-51909996D01*
X15175066Y-51909995D01*
X15050776Y-51873501D01*
X15050774Y-51873500D01*
X15050772Y-51873500D01*
X14921228Y-51873500D01*
X14921225Y-51873500D01*
X14921223Y-51873501D01*
X14796933Y-51909995D01*
X14796926Y-51909998D01*
X14687951Y-51980032D01*
X14616873Y-52062063D01*
X14603118Y-52077937D01*
X14549303Y-52195774D01*
X14530867Y-52324000D01*
X-19924500Y-52324000D01*
X-19924500Y-51816000D01*
X3100867Y-51816000D01*
X3119303Y-51944226D01*
X3173118Y-52062063D01*
X3257951Y-52159967D01*
X3366931Y-52230004D01*
X3491228Y-52266500D01*
X3491232Y-52266500D01*
X3620768Y-52266500D01*
X3620772Y-52266500D01*
X3745069Y-52230004D01*
X3854049Y-52159967D01*
X3938882Y-52062063D01*
X3992697Y-51944226D01*
X4011133Y-51816000D01*
X6148867Y-51816000D01*
X6167303Y-51944226D01*
X6221118Y-52062063D01*
X6305951Y-52159967D01*
X6414931Y-52230004D01*
X6539228Y-52266500D01*
X6539232Y-52266500D01*
X6668768Y-52266500D01*
X6668772Y-52266500D01*
X6793069Y-52230004D01*
X6902049Y-52159967D01*
X6986882Y-52062063D01*
X7040697Y-51944226D01*
X7059133Y-51816000D01*
X9196867Y-51816000D01*
X9215303Y-51944226D01*
X9269118Y-52062063D01*
X9353951Y-52159967D01*
X9462931Y-52230004D01*
X9587228Y-52266500D01*
X9587232Y-52266500D01*
X9716768Y-52266500D01*
X9716772Y-52266500D01*
X9841069Y-52230004D01*
X9950049Y-52159967D01*
X10034882Y-52062063D01*
X10088697Y-51944226D01*
X10107133Y-51816000D01*
X10088697Y-51687774D01*
X10034882Y-51569937D01*
X9950049Y-51472033D01*
X9950048Y-51472032D01*
X9841073Y-51401998D01*
X9841070Y-51401996D01*
X9841069Y-51401996D01*
X9841066Y-51401995D01*
X9716776Y-51365501D01*
X9716774Y-51365500D01*
X9716772Y-51365500D01*
X9587228Y-51365500D01*
X9587225Y-51365500D01*
X9587223Y-51365501D01*
X9462933Y-51401995D01*
X9462926Y-51401998D01*
X9353951Y-51472032D01*
X9269118Y-51569937D01*
X9215303Y-51687774D01*
X9196867Y-51816000D01*
X7059133Y-51816000D01*
X7040697Y-51687774D01*
X6986882Y-51569937D01*
X6902049Y-51472033D01*
X6902048Y-51472032D01*
X6793073Y-51401998D01*
X6793070Y-51401996D01*
X6793069Y-51401996D01*
X6793066Y-51401995D01*
X6668776Y-51365501D01*
X6668774Y-51365500D01*
X6668772Y-51365500D01*
X6539228Y-51365500D01*
X6539225Y-51365500D01*
X6539223Y-51365501D01*
X6414933Y-51401995D01*
X6414926Y-51401998D01*
X6305951Y-51472032D01*
X6221118Y-51569937D01*
X6167303Y-51687774D01*
X6148867Y-51816000D01*
X4011133Y-51816000D01*
X3992697Y-51687774D01*
X3938882Y-51569937D01*
X3854049Y-51472033D01*
X3854048Y-51472032D01*
X3745073Y-51401998D01*
X3745070Y-51401996D01*
X3745069Y-51401996D01*
X3745066Y-51401995D01*
X3620776Y-51365501D01*
X3620774Y-51365500D01*
X3620772Y-51365500D01*
X3491228Y-51365500D01*
X3491225Y-51365500D01*
X3491223Y-51365501D01*
X3366933Y-51401995D01*
X3366926Y-51401998D01*
X3257951Y-51472032D01*
X3173118Y-51569937D01*
X3119303Y-51687774D01*
X3100867Y-51816000D01*
X-19924500Y-51816000D01*
X-19924500Y-50800000D01*
X4624867Y-50800000D01*
X4643303Y-50928226D01*
X4697118Y-51046063D01*
X4781951Y-51143967D01*
X4890931Y-51214004D01*
X5015228Y-51250500D01*
X5015232Y-51250500D01*
X5144768Y-51250500D01*
X5144772Y-51250500D01*
X5269069Y-51214004D01*
X5378049Y-51143967D01*
X5462882Y-51046063D01*
X5516697Y-50928226D01*
X5535133Y-50800000D01*
X7672867Y-50800000D01*
X7691303Y-50928226D01*
X7745118Y-51046063D01*
X7829951Y-51143967D01*
X7938931Y-51214004D01*
X8063228Y-51250500D01*
X8063232Y-51250500D01*
X8192768Y-51250500D01*
X8192772Y-51250500D01*
X8317069Y-51214004D01*
X8426049Y-51143967D01*
X8510882Y-51046063D01*
X8564697Y-50928226D01*
X8583133Y-50800000D01*
X8564697Y-50671774D01*
X8510882Y-50553937D01*
X8426049Y-50456033D01*
X8426048Y-50456032D01*
X8317073Y-50385998D01*
X8317070Y-50385996D01*
X8317069Y-50385996D01*
X8317066Y-50385995D01*
X8192776Y-50349501D01*
X8192774Y-50349500D01*
X8192772Y-50349500D01*
X8063228Y-50349500D01*
X8063225Y-50349500D01*
X8063223Y-50349501D01*
X7938933Y-50385995D01*
X7938926Y-50385998D01*
X7829951Y-50456032D01*
X7745118Y-50553937D01*
X7691303Y-50671774D01*
X7672867Y-50800000D01*
X5535133Y-50800000D01*
X5516697Y-50671774D01*
X5462882Y-50553937D01*
X5378049Y-50456033D01*
X5378048Y-50456032D01*
X5269073Y-50385998D01*
X5269070Y-50385996D01*
X5269069Y-50385996D01*
X5269066Y-50385995D01*
X5144776Y-50349501D01*
X5144774Y-50349500D01*
X5144772Y-50349500D01*
X5015228Y-50349500D01*
X5015225Y-50349500D01*
X5015223Y-50349501D01*
X4890933Y-50385995D01*
X4890926Y-50385998D01*
X4781951Y-50456032D01*
X4697118Y-50553937D01*
X4643303Y-50671774D01*
X4624867Y-50800000D01*
X-19924500Y-50800000D01*
X-19924500Y-49784000D01*
X3100867Y-49784000D01*
X3119303Y-49912226D01*
X3173118Y-50030063D01*
X3257951Y-50127967D01*
X3366931Y-50198004D01*
X3491228Y-50234500D01*
X3491232Y-50234500D01*
X3620768Y-50234500D01*
X3620772Y-50234500D01*
X3745069Y-50198004D01*
X3854049Y-50127967D01*
X3938882Y-50030063D01*
X3992697Y-49912226D01*
X4011133Y-49784000D01*
X6148867Y-49784000D01*
X6167303Y-49912226D01*
X6221118Y-50030063D01*
X6305951Y-50127967D01*
X6414931Y-50198004D01*
X6539228Y-50234500D01*
X6539232Y-50234500D01*
X6668768Y-50234500D01*
X6668772Y-50234500D01*
X6793069Y-50198004D01*
X6902049Y-50127967D01*
X6986882Y-50030063D01*
X7040697Y-49912226D01*
X7059133Y-49784000D01*
X7040697Y-49655774D01*
X6986882Y-49537937D01*
X6902049Y-49440033D01*
X6902048Y-49440032D01*
X6793073Y-49369998D01*
X6793070Y-49369996D01*
X6793069Y-49369996D01*
X6793066Y-49369995D01*
X6668776Y-49333501D01*
X6668774Y-49333500D01*
X6668772Y-49333500D01*
X6539228Y-49333500D01*
X6539225Y-49333500D01*
X6539223Y-49333501D01*
X6414933Y-49369995D01*
X6414926Y-49369998D01*
X6305951Y-49440032D01*
X6221118Y-49537937D01*
X6167303Y-49655774D01*
X6148867Y-49784000D01*
X4011133Y-49784000D01*
X3992697Y-49655774D01*
X3938882Y-49537937D01*
X3854049Y-49440033D01*
X3854048Y-49440032D01*
X3745073Y-49369998D01*
X3745070Y-49369996D01*
X3745069Y-49369996D01*
X3745066Y-49369995D01*
X3620776Y-49333501D01*
X3620774Y-49333500D01*
X3620772Y-49333500D01*
X3491228Y-49333500D01*
X3491225Y-49333500D01*
X3491223Y-49333501D01*
X3366933Y-49369995D01*
X3366926Y-49369998D01*
X3257951Y-49440032D01*
X3173118Y-49537937D01*
X3119303Y-49655774D01*
X3100867Y-49784000D01*
X-19924500Y-49784000D01*
X-19924500Y-48690000D01*
X-6435133Y-48690000D01*
X-6416697Y-48818226D01*
X-6362882Y-48936063D01*
X-6278050Y-49033966D01*
X-6278049Y-49033967D01*
X-6250766Y-49051501D01*
X-6169069Y-49104004D01*
X-6044772Y-49140500D01*
X-6044768Y-49140500D01*
X-5915232Y-49140500D01*
X-5915228Y-49140500D01*
X-5790931Y-49104004D01*
X-5681951Y-49033967D01*
X-5597118Y-48936063D01*
X-5597117Y-48936059D01*
X-5596232Y-48935039D01*
X-5536507Y-48896654D01*
X-5465510Y-48896652D01*
X-5432886Y-48911551D01*
X-5429069Y-48914004D01*
X-5304772Y-48950500D01*
X-5304768Y-48950500D01*
X-5175232Y-48950500D01*
X-5175228Y-48950500D01*
X-5050931Y-48914004D01*
X-4941951Y-48843967D01*
X-4857118Y-48746063D01*
X-4807538Y-48637500D01*
X-2887633Y-48637500D01*
X-2869197Y-48765726D01*
X-2815382Y-48883563D01*
X-2730549Y-48981467D01*
X-2679829Y-49014063D01*
X-2621569Y-49051504D01*
X-2497272Y-49088000D01*
X-2497268Y-49088000D01*
X-2367732Y-49088000D01*
X-2367728Y-49088000D01*
X-2243431Y-49051504D01*
X-2134451Y-48981467D01*
X-2049618Y-48883563D01*
X-1996842Y-48768000D01*
X4624867Y-48768000D01*
X4643303Y-48896226D01*
X4697118Y-49014063D01*
X4781951Y-49111967D01*
X4890931Y-49182004D01*
X5015228Y-49218500D01*
X5015232Y-49218500D01*
X5144768Y-49218500D01*
X5144772Y-49218500D01*
X5269069Y-49182004D01*
X5378049Y-49111967D01*
X5462882Y-49014063D01*
X5516697Y-48896226D01*
X5535133Y-48768000D01*
X7672867Y-48768000D01*
X7691303Y-48896226D01*
X7745118Y-49014063D01*
X7829951Y-49111967D01*
X7938931Y-49182004D01*
X8063228Y-49218500D01*
X8063232Y-49218500D01*
X8192768Y-49218500D01*
X8192772Y-49218500D01*
X8317069Y-49182004D01*
X8426049Y-49111967D01*
X8510882Y-49014063D01*
X8564697Y-48896226D01*
X8583133Y-48768000D01*
X8564697Y-48639774D01*
X8510882Y-48521937D01*
X8426049Y-48424033D01*
X8426048Y-48424032D01*
X8317073Y-48353998D01*
X8317070Y-48353996D01*
X8317069Y-48353996D01*
X8289949Y-48346033D01*
X8192776Y-48317501D01*
X8192774Y-48317500D01*
X8192772Y-48317500D01*
X8063228Y-48317500D01*
X8063225Y-48317500D01*
X8063223Y-48317501D01*
X7938933Y-48353995D01*
X7938926Y-48353998D01*
X7829951Y-48424032D01*
X7745118Y-48521937D01*
X7691303Y-48639774D01*
X7672867Y-48768000D01*
X5535133Y-48768000D01*
X5516697Y-48639774D01*
X5462882Y-48521937D01*
X5378049Y-48424033D01*
X5378048Y-48424032D01*
X5269073Y-48353998D01*
X5269070Y-48353996D01*
X5269069Y-48353996D01*
X5241949Y-48346033D01*
X5144776Y-48317501D01*
X5144774Y-48317500D01*
X5144772Y-48317500D01*
X5015228Y-48317500D01*
X5015225Y-48317500D01*
X5015223Y-48317501D01*
X4890933Y-48353995D01*
X4890926Y-48353998D01*
X4781951Y-48424032D01*
X4697118Y-48521937D01*
X4643303Y-48639774D01*
X4624867Y-48768000D01*
X-1996842Y-48768000D01*
X-1995803Y-48765726D01*
X-1977367Y-48637500D01*
X-1995803Y-48509274D01*
X-2049618Y-48391437D01*
X-2134451Y-48293533D01*
X-2134452Y-48293532D01*
X-2186629Y-48260000D01*
X9124867Y-48260000D01*
X9143303Y-48388226D01*
X9197118Y-48506063D01*
X9210873Y-48521937D01*
X9281951Y-48603967D01*
X9334129Y-48637500D01*
X9390931Y-48674004D01*
X9515228Y-48710500D01*
X9515232Y-48710500D01*
X9644768Y-48710500D01*
X9644772Y-48710500D01*
X9769069Y-48674004D01*
X9878049Y-48603967D01*
X9962882Y-48506063D01*
X10016697Y-48388226D01*
X10035133Y-48260000D01*
X10016697Y-48131774D01*
X9962882Y-48013937D01*
X9878049Y-47916033D01*
X9878048Y-47916032D01*
X9769073Y-47845998D01*
X9769070Y-47845996D01*
X9769069Y-47845996D01*
X9769066Y-47845995D01*
X9644776Y-47809501D01*
X9644774Y-47809500D01*
X9644772Y-47809500D01*
X9515228Y-47809500D01*
X9515225Y-47809500D01*
X9515223Y-47809501D01*
X9390933Y-47845995D01*
X9390926Y-47845998D01*
X9281951Y-47916032D01*
X9210873Y-47998063D01*
X9197118Y-48013937D01*
X9143303Y-48131774D01*
X9124867Y-48260000D01*
X-2186629Y-48260000D01*
X-2243427Y-48223498D01*
X-2243430Y-48223496D01*
X-2243431Y-48223496D01*
X-2243434Y-48223495D01*
X-2367724Y-48187001D01*
X-2367726Y-48187000D01*
X-2367728Y-48187000D01*
X-2497272Y-48187000D01*
X-2497275Y-48187000D01*
X-2497277Y-48187001D01*
X-2621567Y-48223495D01*
X-2621574Y-48223498D01*
X-2730549Y-48293532D01*
X-2787179Y-48358888D01*
X-2815382Y-48391437D01*
X-2869197Y-48509274D01*
X-2887633Y-48637500D01*
X-4807538Y-48637500D01*
X-4803303Y-48628226D01*
X-4784867Y-48500000D01*
X-4803303Y-48371774D01*
X-4857118Y-48253937D01*
X-4941951Y-48156033D01*
X-4941952Y-48156032D01*
X-5050927Y-48085998D01*
X-5050930Y-48085996D01*
X-5050931Y-48085996D01*
X-5050934Y-48085995D01*
X-5175224Y-48049501D01*
X-5175226Y-48049500D01*
X-5175228Y-48049500D01*
X-5304772Y-48049500D01*
X-5304775Y-48049500D01*
X-5304777Y-48049501D01*
X-5429067Y-48085995D01*
X-5429074Y-48085998D01*
X-5538050Y-48156032D01*
X-5623771Y-48254962D01*
X-5683497Y-48293346D01*
X-5754493Y-48293346D01*
X-5787116Y-48278448D01*
X-5790931Y-48275996D01*
X-5790934Y-48275995D01*
X-5915224Y-48239501D01*
X-5915226Y-48239500D01*
X-5915228Y-48239500D01*
X-6044772Y-48239500D01*
X-6044775Y-48239500D01*
X-6044777Y-48239501D01*
X-6169067Y-48275995D01*
X-6169074Y-48275998D01*
X-6278049Y-48346032D01*
X-6362882Y-48443937D01*
X-6416697Y-48561774D01*
X-6435133Y-48690000D01*
X-19924500Y-48690000D01*
X-19924500Y-47752000D01*
X3100867Y-47752000D01*
X3119303Y-47880226D01*
X3173118Y-47998063D01*
X3186873Y-48013937D01*
X3257951Y-48095967D01*
X3351415Y-48156033D01*
X3366931Y-48166004D01*
X3491228Y-48202500D01*
X3491232Y-48202500D01*
X3620768Y-48202500D01*
X3620772Y-48202500D01*
X3745069Y-48166004D01*
X3854049Y-48095967D01*
X3938882Y-47998063D01*
X3992697Y-47880226D01*
X4011133Y-47752000D01*
X6148867Y-47752000D01*
X6167303Y-47880226D01*
X6221118Y-47998063D01*
X6234873Y-48013937D01*
X6305951Y-48095967D01*
X6399415Y-48156033D01*
X6414931Y-48166004D01*
X6539228Y-48202500D01*
X6539232Y-48202500D01*
X6668768Y-48202500D01*
X6668772Y-48202500D01*
X6793069Y-48166004D01*
X6902049Y-48095967D01*
X6986882Y-47998063D01*
X7040697Y-47880226D01*
X7059133Y-47752000D01*
X7040697Y-47623774D01*
X6986882Y-47505937D01*
X6902049Y-47408033D01*
X6902048Y-47408032D01*
X6793073Y-47337998D01*
X6793070Y-47337996D01*
X6793069Y-47337996D01*
X6793066Y-47337995D01*
X6668776Y-47301501D01*
X6668774Y-47301500D01*
X6668772Y-47301500D01*
X6539228Y-47301500D01*
X6539225Y-47301500D01*
X6539223Y-47301501D01*
X6414933Y-47337995D01*
X6414926Y-47337998D01*
X6305951Y-47408032D01*
X6221118Y-47505937D01*
X6167303Y-47623774D01*
X6148867Y-47752000D01*
X4011133Y-47752000D01*
X3992697Y-47623774D01*
X3938882Y-47505937D01*
X3854049Y-47408033D01*
X3854048Y-47408032D01*
X3745073Y-47337998D01*
X3745070Y-47337996D01*
X3745069Y-47337996D01*
X3745066Y-47337995D01*
X3620776Y-47301501D01*
X3620774Y-47301500D01*
X3620772Y-47301500D01*
X3491228Y-47301500D01*
X3491225Y-47301500D01*
X3491223Y-47301501D01*
X3366933Y-47337995D01*
X3366926Y-47337998D01*
X3257951Y-47408032D01*
X3173118Y-47505937D01*
X3119303Y-47623774D01*
X3100867Y-47752000D01*
X-19924500Y-47752000D01*
X-19924500Y-46736000D01*
X4624867Y-46736000D01*
X4643303Y-46864226D01*
X4697118Y-46982063D01*
X4781951Y-47079967D01*
X4890931Y-47150004D01*
X5015228Y-47186500D01*
X5015232Y-47186500D01*
X5144768Y-47186500D01*
X5144772Y-47186500D01*
X5269069Y-47150004D01*
X5378049Y-47079967D01*
X5462882Y-46982063D01*
X5516697Y-46864226D01*
X5535133Y-46736000D01*
X5516697Y-46607774D01*
X5462882Y-46489937D01*
X5378049Y-46392033D01*
X5378048Y-46392032D01*
X5269073Y-46321998D01*
X5269070Y-46321996D01*
X5269069Y-46321996D01*
X5269066Y-46321995D01*
X5144776Y-46285501D01*
X5144774Y-46285500D01*
X5144772Y-46285500D01*
X5015228Y-46285500D01*
X5015225Y-46285500D01*
X5015223Y-46285501D01*
X4890933Y-46321995D01*
X4890926Y-46321998D01*
X4781951Y-46392032D01*
X4697118Y-46489937D01*
X4643303Y-46607774D01*
X4624867Y-46736000D01*
X-19924500Y-46736000D01*
X-19924500Y-45720000D01*
X3100867Y-45720000D01*
X3119303Y-45848226D01*
X3173118Y-45966063D01*
X3257951Y-46063967D01*
X3366931Y-46134004D01*
X3491228Y-46170500D01*
X3491232Y-46170500D01*
X3620768Y-46170500D01*
X3620772Y-46170500D01*
X3745069Y-46134004D01*
X3854049Y-46063967D01*
X3938882Y-45966063D01*
X3992697Y-45848226D01*
X4011133Y-45720000D01*
X3992697Y-45591774D01*
X3938882Y-45473937D01*
X3854049Y-45376033D01*
X3854048Y-45376032D01*
X3745073Y-45305998D01*
X3745070Y-45305996D01*
X3745069Y-45305996D01*
X3745066Y-45305995D01*
X3620776Y-45269501D01*
X3620774Y-45269500D01*
X3620772Y-45269500D01*
X3491228Y-45269500D01*
X3491225Y-45269500D01*
X3491223Y-45269501D01*
X3366933Y-45305995D01*
X3366926Y-45305998D01*
X3257951Y-45376032D01*
X3173118Y-45473937D01*
X3119303Y-45591774D01*
X3100867Y-45720000D01*
X-19924500Y-45720000D01*
X-19924500Y-44704000D01*
X4624867Y-44704000D01*
X4643303Y-44832226D01*
X4697118Y-44950063D01*
X4781951Y-45047967D01*
X4890931Y-45118004D01*
X5015228Y-45154500D01*
X5015232Y-45154500D01*
X5144768Y-45154500D01*
X5144772Y-45154500D01*
X5269069Y-45118004D01*
X5378049Y-45047967D01*
X5462882Y-44950063D01*
X5516697Y-44832226D01*
X5535133Y-44704000D01*
X5516697Y-44575774D01*
X5462882Y-44457937D01*
X5378049Y-44360033D01*
X5378048Y-44360032D01*
X5269073Y-44289998D01*
X5269070Y-44289996D01*
X5269069Y-44289996D01*
X5269066Y-44289995D01*
X5144776Y-44253501D01*
X5144774Y-44253500D01*
X5144772Y-44253500D01*
X5015228Y-44253500D01*
X5015225Y-44253500D01*
X5015223Y-44253501D01*
X4890933Y-44289995D01*
X4890926Y-44289998D01*
X4781951Y-44360032D01*
X4697118Y-44457937D01*
X4643303Y-44575774D01*
X4624867Y-44704000D01*
X-19924500Y-44704000D01*
X-19924500Y-43688000D01*
X3100867Y-43688000D01*
X3119303Y-43816226D01*
X3173118Y-43934063D01*
X3257951Y-44031967D01*
X3366931Y-44102004D01*
X3491228Y-44138500D01*
X3491232Y-44138500D01*
X3620768Y-44138500D01*
X3620772Y-44138500D01*
X3745069Y-44102004D01*
X3854049Y-44031967D01*
X3938882Y-43934063D01*
X3992697Y-43816226D01*
X4011133Y-43688000D01*
X3992697Y-43559774D01*
X3938882Y-43441937D01*
X3854049Y-43344033D01*
X3854048Y-43344032D01*
X3745073Y-43273998D01*
X3745070Y-43273996D01*
X3745069Y-43273996D01*
X3745066Y-43273995D01*
X3620776Y-43237501D01*
X3620774Y-43237500D01*
X3620772Y-43237500D01*
X3491228Y-43237500D01*
X3491225Y-43237500D01*
X3491223Y-43237501D01*
X3366933Y-43273995D01*
X3366926Y-43273998D01*
X3257951Y-43344032D01*
X3173118Y-43441937D01*
X3119303Y-43559774D01*
X3100867Y-43688000D01*
X-19924500Y-43688000D01*
X-19924500Y-42672000D01*
X4624867Y-42672000D01*
X4643303Y-42800226D01*
X4697118Y-42918063D01*
X4781951Y-43015967D01*
X4890931Y-43086004D01*
X5015228Y-43122500D01*
X5015232Y-43122500D01*
X5144768Y-43122500D01*
X5144772Y-43122500D01*
X5269069Y-43086004D01*
X5378049Y-43015967D01*
X5462882Y-42918063D01*
X5516697Y-42800226D01*
X5535133Y-42672000D01*
X5516697Y-42543774D01*
X5462882Y-42425937D01*
X5378049Y-42328033D01*
X5378048Y-42328032D01*
X5269073Y-42257998D01*
X5269070Y-42257996D01*
X5269069Y-42257996D01*
X5269066Y-42257995D01*
X5144776Y-42221501D01*
X5144774Y-42221500D01*
X5144772Y-42221500D01*
X5015228Y-42221500D01*
X5015225Y-42221500D01*
X5015223Y-42221501D01*
X4890933Y-42257995D01*
X4890926Y-42257998D01*
X4781951Y-42328032D01*
X4697118Y-42425937D01*
X4643303Y-42543774D01*
X4624867Y-42672000D01*
X-19924500Y-42672000D01*
X-19924500Y-41656000D01*
X3100867Y-41656000D01*
X3119303Y-41784226D01*
X3173118Y-41902063D01*
X3257951Y-41999967D01*
X3366931Y-42070004D01*
X3491228Y-42106500D01*
X3491232Y-42106500D01*
X3620768Y-42106500D01*
X3620772Y-42106500D01*
X3745069Y-42070004D01*
X3854049Y-41999967D01*
X3938882Y-41902063D01*
X3992697Y-41784226D01*
X4011133Y-41656000D01*
X3992697Y-41527774D01*
X3938882Y-41409937D01*
X3854049Y-41312033D01*
X3854048Y-41312032D01*
X3745073Y-41241998D01*
X3745070Y-41241996D01*
X3745069Y-41241996D01*
X3745066Y-41241995D01*
X3620776Y-41205501D01*
X3620774Y-41205500D01*
X3620772Y-41205500D01*
X3491228Y-41205500D01*
X3491225Y-41205500D01*
X3491223Y-41205501D01*
X3366933Y-41241995D01*
X3366926Y-41241998D01*
X3257951Y-41312032D01*
X3173118Y-41409937D01*
X3119303Y-41527774D01*
X3100867Y-41656000D01*
X-19924500Y-41656000D01*
X-19924500Y-40540000D01*
X-5835133Y-40540000D01*
X-5816697Y-40668226D01*
X-5762882Y-40786063D01*
X-5678049Y-40883967D01*
X-5569069Y-40954004D01*
X-5444772Y-40990500D01*
X-5444768Y-40990500D01*
X-5315232Y-40990500D01*
X-5315228Y-40990500D01*
X-5190931Y-40954004D01*
X-5081951Y-40883967D01*
X-4997118Y-40786063D01*
X-4943303Y-40668226D01*
X-4924867Y-40540000D01*
X-4943303Y-40411774D01*
X-4997118Y-40293937D01*
X-5081951Y-40196033D01*
X-5081952Y-40196032D01*
X-5190927Y-40125998D01*
X-5190930Y-40125996D01*
X-5190931Y-40125996D01*
X-5223272Y-40116500D01*
X-5315224Y-40089501D01*
X-5315226Y-40089500D01*
X-5315228Y-40089500D01*
X-5444772Y-40089500D01*
X-5444775Y-40089500D01*
X-5444777Y-40089501D01*
X-5569067Y-40125995D01*
X-5569074Y-40125998D01*
X-5678049Y-40196032D01*
X-5762882Y-40293937D01*
X-5816697Y-40411774D01*
X-5835133Y-40540000D01*
X-19924500Y-40540000D01*
X-19924500Y-38686000D01*
X-19904498Y-38617879D01*
X-19850842Y-38571386D01*
X-19798500Y-38560000D01*
X-19010000Y-38560000D01*
X-19010000Y-37686000D01*
X-18989998Y-37617879D01*
X-18936342Y-37571386D01*
X-18884000Y-37560000D01*
X-18486000Y-37560000D01*
X-18417879Y-37580002D01*
X-18371386Y-37633658D01*
X-18360000Y-37686000D01*
X-18360000Y-38560000D01*
X-18060000Y-38560000D01*
X-18060000Y-37686000D01*
X-18039998Y-37617879D01*
X-17986342Y-37571386D01*
X-17934000Y-37560000D01*
X-17536000Y-37560000D01*
X-17467879Y-37580002D01*
X-17421386Y-37633658D01*
X-17410000Y-37686000D01*
X-17410000Y-38560000D01*
X-15710000Y-38560000D01*
X-15710000Y-38296249D01*
X3815340Y-38296249D01*
X3815340Y-38296252D01*
X3815340Y-39935748D01*
X3826973Y-39994231D01*
X3871288Y-40060552D01*
X3937609Y-40104867D01*
X3996092Y-40116500D01*
X3996093Y-40116500D01*
X5635587Y-40116500D01*
X5635588Y-40116500D01*
X5694071Y-40104867D01*
X5760392Y-40060552D01*
X5804707Y-39994231D01*
X5816340Y-39935748D01*
X5816340Y-38296252D01*
X5804707Y-38237769D01*
X5760392Y-38171448D01*
X5694071Y-38127133D01*
X5694068Y-38127132D01*
X5635590Y-38115500D01*
X5635588Y-38115500D01*
X3996092Y-38115500D01*
X3996089Y-38115500D01*
X3937611Y-38127132D01*
X3937608Y-38127133D01*
X3871288Y-38171448D01*
X3826973Y-38237768D01*
X3826972Y-38237771D01*
X3815340Y-38296249D01*
X-15710000Y-38296249D01*
X-15710000Y-37760000D01*
X-6035133Y-37760000D01*
X-6016697Y-37888226D01*
X-5962882Y-38006063D01*
X-5878049Y-38103967D01*
X-5773047Y-38171448D01*
X-5769069Y-38174004D01*
X-5644772Y-38210500D01*
X-5644768Y-38210500D01*
X-5515232Y-38210500D01*
X-5515228Y-38210500D01*
X-5390931Y-38174004D01*
X-5281951Y-38103967D01*
X-5197118Y-38006063D01*
X-5143303Y-37888226D01*
X-5124867Y-37760000D01*
X-5143303Y-37631774D01*
X-5197118Y-37513937D01*
X-5281951Y-37416033D01*
X-5281952Y-37416032D01*
X-5390927Y-37345998D01*
X-5390930Y-37345996D01*
X-5390931Y-37345996D01*
X-5390934Y-37345995D01*
X-5515224Y-37309501D01*
X-5515226Y-37309500D01*
X-5515228Y-37309500D01*
X-5644772Y-37309500D01*
X-5644775Y-37309500D01*
X-5644777Y-37309501D01*
X-5769067Y-37345995D01*
X-5769074Y-37345998D01*
X-5878049Y-37416032D01*
X-5962882Y-37513937D01*
X-6016697Y-37631774D01*
X-6035133Y-37760000D01*
X-15710000Y-37760000D01*
X-15710000Y-36830000D01*
X2846867Y-36830000D01*
X2865303Y-36958226D01*
X2919118Y-37076063D01*
X3003951Y-37173967D01*
X3112931Y-37244004D01*
X3237228Y-37280500D01*
X3237232Y-37280500D01*
X3366768Y-37280500D01*
X3366772Y-37280500D01*
X3491069Y-37244004D01*
X3600049Y-37173967D01*
X3684882Y-37076063D01*
X3738697Y-36958226D01*
X3757133Y-36830000D01*
X3738697Y-36701774D01*
X3684882Y-36583937D01*
X3678005Y-36576000D01*
X5386867Y-36576000D01*
X5405303Y-36704226D01*
X5459118Y-36822063D01*
X5543951Y-36919967D01*
X5652931Y-36990004D01*
X5777228Y-37026500D01*
X5777232Y-37026500D01*
X5906768Y-37026500D01*
X5906772Y-37026500D01*
X6031069Y-36990004D01*
X6140049Y-36919967D01*
X6224882Y-36822063D01*
X6278697Y-36704226D01*
X6297133Y-36576000D01*
X6278697Y-36447774D01*
X6224882Y-36329937D01*
X6140049Y-36232033D01*
X6140048Y-36232032D01*
X6031073Y-36161998D01*
X6031070Y-36161996D01*
X6031069Y-36161996D01*
X6031066Y-36161995D01*
X5906776Y-36125501D01*
X5906774Y-36125500D01*
X5906772Y-36125500D01*
X5777228Y-36125500D01*
X5777225Y-36125500D01*
X5777223Y-36125501D01*
X5652933Y-36161995D01*
X5652926Y-36161998D01*
X5543951Y-36232032D01*
X5459118Y-36329937D01*
X5405303Y-36447774D01*
X5386867Y-36576000D01*
X3678005Y-36576000D01*
X3600049Y-36486033D01*
X3600048Y-36486032D01*
X3491073Y-36415998D01*
X3491070Y-36415996D01*
X3491069Y-36415996D01*
X3491066Y-36415995D01*
X3366776Y-36379501D01*
X3366774Y-36379500D01*
X3366772Y-36379500D01*
X3237228Y-36379500D01*
X3237225Y-36379500D01*
X3237223Y-36379501D01*
X3112933Y-36415995D01*
X3112926Y-36415998D01*
X3003951Y-36486032D01*
X2956756Y-36540500D01*
X2925996Y-36576000D01*
X2919120Y-36583935D01*
X2919119Y-36583935D01*
X2919118Y-36583936D01*
X2919118Y-36583937D01*
X2865303Y-36701774D01*
X2846867Y-36830000D01*
X-15710000Y-36830000D01*
X-15710000Y-36010000D01*
X-12695133Y-36010000D01*
X-12676697Y-36138226D01*
X-12622882Y-36256063D01*
X-12553563Y-36336063D01*
X-12538049Y-36353967D01*
X-12436050Y-36419518D01*
X-12429069Y-36424004D01*
X-12304772Y-36460500D01*
X-12304768Y-36460500D01*
X-12175232Y-36460500D01*
X-12175228Y-36460500D01*
X-12050931Y-36424004D01*
X-11941951Y-36353967D01*
X-11857118Y-36256063D01*
X-11803303Y-36138226D01*
X-11796369Y-36090000D01*
X-5228133Y-36090000D01*
X-5209697Y-36218226D01*
X-5155882Y-36336063D01*
X-5086621Y-36415996D01*
X-5071049Y-36433967D01*
X-4990033Y-36486033D01*
X-4962069Y-36504004D01*
X-4837772Y-36540500D01*
X-4837768Y-36540500D01*
X-4708232Y-36540500D01*
X-4708228Y-36540500D01*
X-4583931Y-36504004D01*
X-4512429Y-36458052D01*
X-4444310Y-36438051D01*
X-4376189Y-36458053D01*
X-4365280Y-36466219D01*
X-4306488Y-36504002D01*
X-4254468Y-36537433D01*
X-4130171Y-36573929D01*
X-4130167Y-36573929D01*
X-4000631Y-36573929D01*
X-4000627Y-36573929D01*
X-3876330Y-36537433D01*
X-3794156Y-36484623D01*
X-3726038Y-36464622D01*
X-3657918Y-36484624D01*
X-3575749Y-36537430D01*
X-3574966Y-36537933D01*
X-3450669Y-36574429D01*
X-3450665Y-36574429D01*
X-3321129Y-36574429D01*
X-3321125Y-36574429D01*
X-3196828Y-36537933D01*
X-3087848Y-36467896D01*
X-3003015Y-36369992D01*
X-2949200Y-36252155D01*
X-2930764Y-36123929D01*
X-2949200Y-35995703D01*
X-3003015Y-35877866D01*
X-3058354Y-35814000D01*
X4116867Y-35814000D01*
X4135303Y-35942226D01*
X4189118Y-36060063D01*
X4273951Y-36157967D01*
X4382931Y-36228004D01*
X4507228Y-36264500D01*
X4507232Y-36264500D01*
X4636768Y-36264500D01*
X4636772Y-36264500D01*
X4761069Y-36228004D01*
X4870049Y-36157967D01*
X4954882Y-36060063D01*
X5008697Y-35942226D01*
X5027133Y-35814000D01*
X5008697Y-35685774D01*
X4954882Y-35567937D01*
X4870049Y-35470033D01*
X4870048Y-35470032D01*
X4761073Y-35399998D01*
X4761070Y-35399996D01*
X4761069Y-35399996D01*
X4761066Y-35399995D01*
X4636776Y-35363501D01*
X4636774Y-35363500D01*
X4636772Y-35363500D01*
X4507228Y-35363500D01*
X4507225Y-35363500D01*
X4507223Y-35363501D01*
X4382933Y-35399995D01*
X4382926Y-35399998D01*
X4273951Y-35470032D01*
X4196429Y-35559500D01*
X4189118Y-35567937D01*
X4135303Y-35685774D01*
X4116867Y-35814000D01*
X-3058354Y-35814000D01*
X-3087848Y-35779962D01*
X-3087849Y-35779961D01*
X-3196824Y-35709927D01*
X-3196827Y-35709925D01*
X-3196828Y-35709925D01*
X-3198524Y-35709427D01*
X-3321121Y-35673430D01*
X-3321123Y-35673429D01*
X-3321125Y-35673429D01*
X-3450669Y-35673429D01*
X-3450672Y-35673429D01*
X-3450674Y-35673430D01*
X-3574964Y-35709924D01*
X-3574966Y-35709925D01*
X-3657139Y-35762734D01*
X-3725260Y-35782735D01*
X-3793379Y-35762734D01*
X-3819368Y-35746032D01*
X-3876330Y-35709425D01*
X-3956876Y-35685775D01*
X-4000623Y-35672930D01*
X-4000625Y-35672929D01*
X-4000627Y-35672929D01*
X-4130171Y-35672929D01*
X-4130174Y-35672929D01*
X-4130176Y-35672930D01*
X-4254466Y-35709424D01*
X-4254472Y-35709427D01*
X-4325971Y-35755376D01*
X-4394092Y-35775377D01*
X-4462212Y-35755374D01*
X-4473113Y-35747213D01*
X-4583927Y-35675998D01*
X-4583930Y-35675996D01*
X-4583931Y-35675996D01*
X-4592670Y-35673430D01*
X-4708224Y-35639501D01*
X-4708226Y-35639500D01*
X-4708228Y-35639500D01*
X-4837772Y-35639500D01*
X-4837775Y-35639500D01*
X-4837777Y-35639501D01*
X-4962067Y-35675995D01*
X-4962074Y-35675998D01*
X-5071049Y-35746032D01*
X-5129942Y-35814000D01*
X-5155882Y-35843937D01*
X-5209697Y-35961774D01*
X-5228133Y-36090000D01*
X-11796369Y-36090000D01*
X-11784867Y-36010000D01*
X-11803303Y-35881774D01*
X-11857118Y-35763937D01*
X-11941951Y-35666033D01*
X-11941952Y-35666032D01*
X-12050927Y-35595998D01*
X-12050930Y-35595996D01*
X-12050931Y-35595996D01*
X-12050934Y-35595995D01*
X-12175224Y-35559501D01*
X-12175226Y-35559500D01*
X-12175228Y-35559500D01*
X-12304772Y-35559500D01*
X-12304775Y-35559500D01*
X-12304777Y-35559501D01*
X-12429067Y-35595995D01*
X-12429074Y-35595998D01*
X-12538049Y-35666032D01*
X-12607368Y-35746033D01*
X-12622882Y-35763937D01*
X-12676697Y-35881774D01*
X-12695133Y-36010000D01*
X-15710000Y-36010000D01*
X-15710000Y-34674647D01*
X-9850486Y-34674647D01*
X-9832050Y-34802873D01*
X-9778235Y-34920710D01*
X-9693402Y-35018614D01*
X-9584422Y-35088651D01*
X-9460125Y-35125147D01*
X-9460121Y-35125147D01*
X-9330585Y-35125147D01*
X-9330581Y-35125147D01*
X-9206284Y-35088651D01*
X-9097304Y-35018614D01*
X-9072510Y-34990000D01*
X-1165133Y-34990000D01*
X-1146697Y-35118226D01*
X-1092882Y-35236063D01*
X-1008049Y-35333967D01*
X-905303Y-35399998D01*
X-899069Y-35404004D01*
X-774772Y-35440500D01*
X-774768Y-35440500D01*
X-645232Y-35440500D01*
X-645228Y-35440500D01*
X-520931Y-35404004D01*
X-411951Y-35333967D01*
X-327118Y-35236063D01*
X-273303Y-35118226D01*
X-263781Y-35052000D01*
X2846867Y-35052000D01*
X2865303Y-35180226D01*
X2919118Y-35298063D01*
X3003951Y-35395967D01*
X3112931Y-35466004D01*
X3237228Y-35502500D01*
X3237232Y-35502500D01*
X3366768Y-35502500D01*
X3366772Y-35502500D01*
X3491069Y-35466004D01*
X3600049Y-35395967D01*
X3684882Y-35298063D01*
X3738697Y-35180226D01*
X3757133Y-35052000D01*
X5386867Y-35052000D01*
X5405303Y-35180226D01*
X5459118Y-35298063D01*
X5543951Y-35395967D01*
X5652931Y-35466004D01*
X5777228Y-35502500D01*
X5777232Y-35502500D01*
X5906768Y-35502500D01*
X5906772Y-35502500D01*
X6031069Y-35466004D01*
X6140049Y-35395967D01*
X6224882Y-35298063D01*
X6278697Y-35180226D01*
X6297133Y-35052000D01*
X6278697Y-34923774D01*
X6224882Y-34805937D01*
X6140049Y-34708033D01*
X6140048Y-34708032D01*
X6031073Y-34637998D01*
X6031070Y-34637996D01*
X6031069Y-34637996D01*
X6031066Y-34637995D01*
X5906776Y-34601501D01*
X5906774Y-34601500D01*
X5906772Y-34601500D01*
X5777228Y-34601500D01*
X5777225Y-34601500D01*
X5777223Y-34601501D01*
X5652933Y-34637995D01*
X5652926Y-34637998D01*
X5543951Y-34708032D01*
X5479783Y-34782088D01*
X5459118Y-34805937D01*
X5405303Y-34923774D01*
X5386867Y-35052000D01*
X3757133Y-35052000D01*
X3738697Y-34923774D01*
X3684882Y-34805937D01*
X3600049Y-34708033D01*
X3600048Y-34708032D01*
X3491073Y-34637998D01*
X3491070Y-34637996D01*
X3491069Y-34637996D01*
X3491066Y-34637995D01*
X3366776Y-34601501D01*
X3366774Y-34601500D01*
X3366772Y-34601500D01*
X3237228Y-34601500D01*
X3237225Y-34601500D01*
X3237223Y-34601501D01*
X3112933Y-34637995D01*
X3112926Y-34637998D01*
X3003951Y-34708032D01*
X2939783Y-34782088D01*
X2919118Y-34805937D01*
X2865303Y-34923774D01*
X2846867Y-35052000D01*
X-263781Y-35052000D01*
X-254867Y-34990000D01*
X-273303Y-34861774D01*
X-327118Y-34743937D01*
X-411951Y-34646033D01*
X-411952Y-34646032D01*
X-520927Y-34575998D01*
X-520930Y-34575996D01*
X-520931Y-34575996D01*
X-621653Y-34546422D01*
X-645224Y-34539501D01*
X-645226Y-34539500D01*
X-645228Y-34539500D01*
X-774772Y-34539500D01*
X-774775Y-34539500D01*
X-774777Y-34539501D01*
X-899067Y-34575995D01*
X-899074Y-34575998D01*
X-1008049Y-34646032D01*
X-1089902Y-34740498D01*
X-1092882Y-34743937D01*
X-1146697Y-34861774D01*
X-1165133Y-34990000D01*
X-9072510Y-34990000D01*
X-9012471Y-34920710D01*
X-8958656Y-34802873D01*
X-8940220Y-34674647D01*
X-8958656Y-34546421D01*
X-9012471Y-34428584D01*
X-9097304Y-34330680D01*
X-9097305Y-34330679D01*
X-9160603Y-34290000D01*
X4116867Y-34290000D01*
X4135303Y-34418226D01*
X4189118Y-34536063D01*
X4273951Y-34633967D01*
X4382931Y-34704004D01*
X4507228Y-34740500D01*
X4507232Y-34740500D01*
X4636768Y-34740500D01*
X4636772Y-34740500D01*
X4761069Y-34704004D01*
X4870049Y-34633967D01*
X4954882Y-34536063D01*
X5008697Y-34418226D01*
X5027133Y-34290000D01*
X5008697Y-34161774D01*
X4954882Y-34043937D01*
X4870049Y-33946033D01*
X4870048Y-33946032D01*
X4761073Y-33875998D01*
X4761070Y-33875996D01*
X4761069Y-33875996D01*
X4761066Y-33875995D01*
X4636776Y-33839501D01*
X4636774Y-33839500D01*
X4636772Y-33839500D01*
X4507228Y-33839500D01*
X4507225Y-33839500D01*
X4507223Y-33839501D01*
X4382933Y-33875995D01*
X4382926Y-33875998D01*
X4273951Y-33946032D01*
X4189118Y-34043937D01*
X4135303Y-34161774D01*
X4116867Y-34290000D01*
X-9160603Y-34290000D01*
X-9206280Y-34260645D01*
X-9206283Y-34260643D01*
X-9206284Y-34260643D01*
X-9206287Y-34260642D01*
X-9330577Y-34224148D01*
X-9330579Y-34224147D01*
X-9330581Y-34224147D01*
X-9460125Y-34224147D01*
X-9460128Y-34224147D01*
X-9460130Y-34224148D01*
X-9584420Y-34260642D01*
X-9584427Y-34260645D01*
X-9693402Y-34330679D01*
X-9769258Y-34418224D01*
X-9778235Y-34428584D01*
X-9832050Y-34546421D01*
X-9850486Y-34674647D01*
X-15710000Y-34674647D01*
X-15710000Y-32260000D01*
X-17410000Y-32260000D01*
X-17410000Y-32434000D01*
X-17430002Y-32502121D01*
X-17483658Y-32548614D01*
X-17536000Y-32560000D01*
X-17840000Y-32560000D01*
X-17840000Y-33160000D01*
X-17536000Y-33160000D01*
X-17467879Y-33180002D01*
X-17421386Y-33233658D01*
X-17410000Y-33286000D01*
X-17410000Y-34834000D01*
X-17430002Y-34902121D01*
X-17483658Y-34948614D01*
X-17536000Y-34960000D01*
X-18884000Y-34960000D01*
X-18952121Y-34939998D01*
X-18998614Y-34886342D01*
X-19010000Y-34834000D01*
X-19010000Y-33286000D01*
X-18989998Y-33217879D01*
X-18936342Y-33171386D01*
X-18884000Y-33160000D01*
X-18590000Y-33160000D01*
X-18590000Y-32560000D01*
X-18884000Y-32560000D01*
X-18952121Y-32539998D01*
X-18998614Y-32486342D01*
X-19010000Y-32434000D01*
X-19010000Y-32260000D01*
X-19798500Y-32260000D01*
X-19866621Y-32239998D01*
X-19913114Y-32186342D01*
X-19924500Y-32134000D01*
X-19924500Y-31290000D01*
X-13965133Y-31290000D01*
X-13946697Y-31418226D01*
X-13892882Y-31536063D01*
X-13808049Y-31633967D01*
X-13699069Y-31704004D01*
X-13574772Y-31740500D01*
X-13574768Y-31740500D01*
X-13551623Y-31740500D01*
X-13483502Y-31760502D01*
X-13437009Y-31814158D01*
X-13426907Y-31848565D01*
X-13419697Y-31898706D01*
X-13365882Y-32016543D01*
X-13281049Y-32114447D01*
X-13172069Y-32184484D01*
X-13140432Y-32193773D01*
X-13080705Y-32232156D01*
X-13051212Y-32296736D01*
X-13051211Y-32332599D01*
X-13053762Y-32350342D01*
X-13035326Y-32478568D01*
X-12981511Y-32596405D01*
X-12896678Y-32694309D01*
X-12787698Y-32764346D01*
X-12663401Y-32800842D01*
X-12663397Y-32800842D01*
X-12533861Y-32800842D01*
X-12533857Y-32800842D01*
X-12409560Y-32764346D01*
X-12387237Y-32750000D01*
X-10727229Y-32750000D01*
X-10708793Y-32878226D01*
X-10654978Y-32996063D01*
X-10570145Y-33093967D01*
X-10461165Y-33164004D01*
X-10461162Y-33164005D01*
X-10456182Y-33166279D01*
X-10402525Y-33212770D01*
X-10382521Y-33280890D01*
X-10393908Y-33333236D01*
X-10413629Y-33376421D01*
X-10432065Y-33504647D01*
X-10413629Y-33632873D01*
X-10359814Y-33750710D01*
X-10274981Y-33848614D01*
X-10166001Y-33918651D01*
X-10041704Y-33955147D01*
X-10041700Y-33955147D01*
X-9912164Y-33955147D01*
X-9912160Y-33955147D01*
X-9787863Y-33918651D01*
X-9678883Y-33848614D01*
X-9594050Y-33750710D01*
X-9572519Y-33703563D01*
X-9526027Y-33649909D01*
X-9457907Y-33629907D01*
X-9449620Y-33630500D01*
X-9444772Y-33630500D01*
X-9315232Y-33630500D01*
X-9315228Y-33630500D01*
X-9190931Y-33594004D01*
X-9088226Y-33528000D01*
X2846867Y-33528000D01*
X2865303Y-33656226D01*
X2919118Y-33774063D01*
X3003951Y-33871967D01*
X3112931Y-33942004D01*
X3237228Y-33978500D01*
X3237232Y-33978500D01*
X3366768Y-33978500D01*
X3366772Y-33978500D01*
X3491069Y-33942004D01*
X3600049Y-33871967D01*
X3684882Y-33774063D01*
X3738697Y-33656226D01*
X3757133Y-33528000D01*
X5386867Y-33528000D01*
X5405303Y-33656226D01*
X5459118Y-33774063D01*
X5543951Y-33871967D01*
X5652931Y-33942004D01*
X5777228Y-33978500D01*
X5777232Y-33978500D01*
X5906768Y-33978500D01*
X5906772Y-33978500D01*
X6031069Y-33942004D01*
X6140049Y-33871967D01*
X6224882Y-33774063D01*
X6278697Y-33656226D01*
X6297133Y-33528000D01*
X6278697Y-33399774D01*
X6224882Y-33281937D01*
X6140049Y-33184033D01*
X6140048Y-33184032D01*
X6075561Y-33142589D01*
X15222360Y-33142589D01*
X15222360Y-34782090D01*
X15227103Y-34805937D01*
X15233993Y-34840571D01*
X15278308Y-34906892D01*
X15344629Y-34951207D01*
X15403112Y-34962840D01*
X15403113Y-34962840D01*
X17042607Y-34962840D01*
X17042608Y-34962840D01*
X17101091Y-34951207D01*
X17167412Y-34906892D01*
X17211727Y-34840571D01*
X17223360Y-34782088D01*
X17223360Y-33142592D01*
X17211727Y-33084109D01*
X17167412Y-33017788D01*
X17101091Y-32973473D01*
X17101088Y-32973472D01*
X17042610Y-32961840D01*
X17042608Y-32961840D01*
X15403112Y-32961840D01*
X15403109Y-32961840D01*
X15344631Y-32973472D01*
X15344628Y-32973473D01*
X15278308Y-33017788D01*
X15233993Y-33084108D01*
X15233992Y-33084111D01*
X15222360Y-33142589D01*
X6075561Y-33142589D01*
X6031073Y-33113998D01*
X6031070Y-33113996D01*
X6031069Y-33113996D01*
X6031066Y-33113995D01*
X5906776Y-33077501D01*
X5906774Y-33077500D01*
X5906772Y-33077500D01*
X5777228Y-33077500D01*
X5777225Y-33077500D01*
X5777223Y-33077501D01*
X5652933Y-33113995D01*
X5652926Y-33113998D01*
X5543951Y-33184032D01*
X5500951Y-33233658D01*
X5459118Y-33281937D01*
X5405303Y-33399774D01*
X5386867Y-33528000D01*
X3757133Y-33528000D01*
X3738697Y-33399774D01*
X3684882Y-33281937D01*
X3600049Y-33184033D01*
X3600048Y-33184032D01*
X3491073Y-33113998D01*
X3491070Y-33113996D01*
X3491069Y-33113996D01*
X3491066Y-33113995D01*
X3366776Y-33077501D01*
X3366774Y-33077500D01*
X3366772Y-33077500D01*
X3237228Y-33077500D01*
X3237225Y-33077500D01*
X3237223Y-33077501D01*
X3112933Y-33113995D01*
X3112926Y-33113998D01*
X3003951Y-33184032D01*
X2960951Y-33233658D01*
X2919118Y-33281937D01*
X2865303Y-33399774D01*
X2846867Y-33528000D01*
X-9088226Y-33528000D01*
X-9081951Y-33523967D01*
X-8997118Y-33426063D01*
X-8943303Y-33308226D01*
X-8924867Y-33180000D01*
X-8943303Y-33051774D01*
X-8997118Y-32933937D01*
X-9081951Y-32836033D01*
X-9081952Y-32836032D01*
X-9190924Y-32766000D01*
X4116867Y-32766000D01*
X4135303Y-32894226D01*
X4189118Y-33012063D01*
X4251545Y-33084109D01*
X4273951Y-33109967D01*
X4382924Y-33180000D01*
X4382931Y-33180004D01*
X4507228Y-33216500D01*
X4507232Y-33216500D01*
X4636768Y-33216500D01*
X4636772Y-33216500D01*
X4761069Y-33180004D01*
X4870049Y-33109967D01*
X4954882Y-33012063D01*
X5008697Y-32894226D01*
X5027133Y-32766000D01*
X5008697Y-32637774D01*
X4954882Y-32519937D01*
X4870049Y-32422033D01*
X4870048Y-32422032D01*
X4761073Y-32351998D01*
X4761070Y-32351996D01*
X4761069Y-32351996D01*
X4755429Y-32350340D01*
X4636776Y-32315501D01*
X4636774Y-32315500D01*
X4636772Y-32315500D01*
X4507228Y-32315500D01*
X4507225Y-32315500D01*
X4507223Y-32315501D01*
X4382933Y-32351995D01*
X4382926Y-32351998D01*
X4273951Y-32422032D01*
X4204555Y-32502121D01*
X4189118Y-32519937D01*
X4135303Y-32637774D01*
X4116867Y-32766000D01*
X-9190924Y-32766000D01*
X-9190927Y-32765998D01*
X-9190930Y-32765996D01*
X-9190931Y-32765996D01*
X-9190934Y-32765995D01*
X-9315224Y-32729501D01*
X-9315226Y-32729500D01*
X-9315228Y-32729500D01*
X-9444772Y-32729500D01*
X-9444775Y-32729500D01*
X-9444777Y-32729501D01*
X-9569067Y-32765995D01*
X-9569073Y-32765998D01*
X-9628956Y-32804482D01*
X-9697077Y-32824483D01*
X-9765197Y-32804480D01*
X-9811689Y-32750824D01*
X-9821791Y-32716421D01*
X-9835399Y-32621774D01*
X-9889214Y-32503937D01*
X-9974047Y-32406033D01*
X-9974048Y-32406032D01*
X-10083023Y-32335998D01*
X-10083026Y-32335996D01*
X-10083027Y-32335996D01*
X-10152828Y-32315501D01*
X-10207320Y-32299501D01*
X-10207322Y-32299500D01*
X-10207324Y-32299500D01*
X-10336868Y-32299500D01*
X-10336871Y-32299500D01*
X-10336873Y-32299501D01*
X-10461163Y-32335995D01*
X-10461170Y-32335998D01*
X-10570145Y-32406032D01*
X-10632994Y-32478566D01*
X-10654978Y-32503937D01*
X-10708793Y-32621774D01*
X-10727229Y-32750000D01*
X-12387237Y-32750000D01*
X-12300580Y-32694309D01*
X-12215747Y-32596405D01*
X-12161932Y-32478568D01*
X-12143496Y-32350342D01*
X-12161932Y-32222116D01*
X-12215747Y-32104279D01*
X-12300580Y-32006375D01*
X-12300581Y-32006374D01*
X-12409556Y-31936340D01*
X-12409558Y-31936339D01*
X-12409560Y-31936338D01*
X-12441201Y-31927047D01*
X-12500926Y-31888664D01*
X-12530419Y-31824083D01*
X-12530419Y-31788222D01*
X-12527867Y-31770480D01*
X-12546303Y-31642254D01*
X-12600118Y-31524417D01*
X-12684951Y-31426513D01*
X-12684952Y-31426512D01*
X-12793927Y-31356478D01*
X-12793930Y-31356476D01*
X-12793931Y-31356476D01*
X-12793934Y-31356475D01*
X-12918224Y-31319981D01*
X-12918226Y-31319980D01*
X-12918228Y-31319980D01*
X-12941377Y-31319980D01*
X-13009498Y-31299978D01*
X-13055991Y-31246322D01*
X-13066094Y-31211914D01*
X-13073303Y-31161774D01*
X-13127118Y-31043937D01*
X-13211951Y-30946033D01*
X-13211952Y-30946032D01*
X-13320927Y-30875998D01*
X-13320930Y-30875996D01*
X-13320931Y-30875996D01*
X-13320934Y-30875995D01*
X-13445224Y-30839501D01*
X-13445226Y-30839500D01*
X-13445228Y-30839500D01*
X-13574772Y-30839500D01*
X-13574775Y-30839500D01*
X-13574777Y-30839501D01*
X-13699067Y-30875995D01*
X-13699074Y-30875998D01*
X-13808049Y-30946032D01*
X-13850166Y-30994639D01*
X-13892882Y-31043937D01*
X-13946697Y-31161774D01*
X-13965133Y-31290000D01*
X-19924500Y-31290000D01*
X-19924500Y-28760000D01*
X-1165133Y-28760000D01*
X-1146697Y-28888226D01*
X-1092882Y-29006063D01*
X-1008049Y-29103967D01*
X-977662Y-29123496D01*
X-931168Y-29177150D01*
X-921063Y-29247424D01*
X-950555Y-29312004D01*
X-1012881Y-29383934D01*
X-1012881Y-29383935D01*
X-1012882Y-29383936D01*
X-1012882Y-29383937D01*
X-1066697Y-29501774D01*
X-1085133Y-29630000D01*
X-1066697Y-29758226D01*
X-1012882Y-29876063D01*
X-928051Y-29973965D01*
X-928049Y-29973967D01*
X-873534Y-30009002D01*
X-827041Y-30062657D01*
X-816936Y-30132931D01*
X-846429Y-30197512D01*
X-873534Y-30220998D01*
X-928049Y-30256032D01*
X-1012882Y-30353937D01*
X-1066697Y-30471774D01*
X-1085133Y-30600000D01*
X-1066697Y-30728226D01*
X-1012882Y-30846063D01*
X-948990Y-30919799D01*
X-919497Y-30984381D01*
X-929602Y-31054654D01*
X-948989Y-31084821D01*
X-982882Y-31123937D01*
X-1036697Y-31241774D01*
X-1055133Y-31370000D01*
X-1036697Y-31498226D01*
X-982882Y-31616063D01*
X-943323Y-31661717D01*
X-933322Y-31673259D01*
X-903830Y-31737840D01*
X-913935Y-31808114D01*
X-933322Y-31838280D01*
X-972881Y-31883934D01*
X-972881Y-31883935D01*
X-972882Y-31883936D01*
X-972882Y-31883937D01*
X-1026697Y-32001774D01*
X-1045133Y-32130000D01*
X-1026697Y-32258226D01*
X-972882Y-32376063D01*
X-946914Y-32406032D01*
X-888049Y-32473967D01*
X-785303Y-32539998D01*
X-779069Y-32544004D01*
X-654772Y-32580500D01*
X-654768Y-32580500D01*
X-525232Y-32580500D01*
X-525228Y-32580500D01*
X-400931Y-32544004D01*
X-291951Y-32473967D01*
X-207118Y-32376063D01*
X-153303Y-32258226D01*
X-134867Y-32130000D01*
X-153303Y-32001774D01*
X-207118Y-31883937D01*
X-207120Y-31883934D01*
X-256678Y-31826740D01*
X-286171Y-31762159D01*
X-276066Y-31691885D01*
X-256682Y-31661722D01*
X-217118Y-31616063D01*
X-163303Y-31498226D01*
X-144867Y-31370000D01*
X-163303Y-31241774D01*
X-217118Y-31123937D01*
X-281011Y-31050199D01*
X-310503Y-30985618D01*
X-300398Y-30915344D01*
X-281013Y-30885180D01*
X-247118Y-30846063D01*
X-193303Y-30728226D01*
X-174867Y-30600000D01*
X-193303Y-30471774D01*
X-247118Y-30353937D01*
X-331951Y-30256033D01*
X-386470Y-30220996D01*
X-432960Y-30167344D01*
X-443065Y-30097070D01*
X-413572Y-30032489D01*
X-386473Y-30009005D01*
X-331951Y-29973967D01*
X-247118Y-29876063D01*
X-193303Y-29758226D01*
X-175929Y-29637389D01*
X3779900Y-29637389D01*
X3779900Y-31276890D01*
X3788471Y-31319981D01*
X3791533Y-31335371D01*
X3835848Y-31401692D01*
X3902169Y-31446007D01*
X3960652Y-31457640D01*
X3960653Y-31457640D01*
X5600147Y-31457640D01*
X5600148Y-31457640D01*
X5658631Y-31446007D01*
X5724952Y-31401692D01*
X5769267Y-31335371D01*
X5780900Y-31276888D01*
X5780900Y-29637392D01*
X5769267Y-29578909D01*
X5724952Y-29512588D01*
X5658631Y-29468273D01*
X5658628Y-29468272D01*
X5600150Y-29456640D01*
X5600148Y-29456640D01*
X3960652Y-29456640D01*
X3960649Y-29456640D01*
X3902171Y-29468272D01*
X3902168Y-29468273D01*
X3835848Y-29512588D01*
X3791533Y-29578908D01*
X3791532Y-29578911D01*
X3779900Y-29637389D01*
X-175929Y-29637389D01*
X-174867Y-29630000D01*
X-193303Y-29501774D01*
X-247118Y-29383937D01*
X-331951Y-29286033D01*
X-362342Y-29266502D01*
X-408833Y-29212848D01*
X-418938Y-29142574D01*
X-389445Y-29077994D01*
X-327120Y-29006065D01*
X-327118Y-29006063D01*
X-273303Y-28888226D01*
X-254867Y-28760000D01*
X-273303Y-28631774D01*
X-327118Y-28513937D01*
X-411951Y-28416033D01*
X-411952Y-28416032D01*
X-520927Y-28345998D01*
X-520930Y-28345996D01*
X-520931Y-28345996D01*
X-527841Y-28343967D01*
X-645224Y-28309501D01*
X-645226Y-28309500D01*
X-645228Y-28309500D01*
X-774772Y-28309500D01*
X-774775Y-28309500D01*
X-774777Y-28309501D01*
X-899067Y-28345995D01*
X-899074Y-28345998D01*
X-1008049Y-28416032D01*
X-1092880Y-28513935D01*
X-1092881Y-28513935D01*
X-1092882Y-28513936D01*
X-1092882Y-28513937D01*
X-1146697Y-28631774D01*
X-1165133Y-28760000D01*
X-19924500Y-28760000D01*
X-19924500Y-27500000D01*
X-8895133Y-27500000D01*
X-8876697Y-27628226D01*
X-8822882Y-27746063D01*
X-8738049Y-27843967D01*
X-8629069Y-27914004D01*
X-8504772Y-27950500D01*
X-8504768Y-27950500D01*
X-8375232Y-27950500D01*
X-8375228Y-27950500D01*
X-8250931Y-27914004D01*
X-8141951Y-27843967D01*
X-8057118Y-27746063D01*
X-8003303Y-27628226D01*
X-7984867Y-27500000D01*
X-7996369Y-27420000D01*
X-7475133Y-27420000D01*
X-7456697Y-27548226D01*
X-7402882Y-27666063D01*
X-7333563Y-27746063D01*
X-7318049Y-27763967D01*
X-7239848Y-27814224D01*
X-7209069Y-27834004D01*
X-7084772Y-27870500D01*
X-7084768Y-27870500D01*
X-6955232Y-27870500D01*
X-6955228Y-27870500D01*
X-6830931Y-27834004D01*
X-6721951Y-27763967D01*
X-6637118Y-27666063D01*
X-6583303Y-27548226D01*
X-6564867Y-27420000D01*
X-6583303Y-27291774D01*
X-6607176Y-27239500D01*
X-3555133Y-27239500D01*
X-3536697Y-27367726D01*
X-3482882Y-27485563D01*
X-3428585Y-27548226D01*
X-3398049Y-27583467D01*
X-3328403Y-27628226D01*
X-3289069Y-27653504D01*
X-3164772Y-27690000D01*
X-3164768Y-27690000D01*
X-3035232Y-27690000D01*
X-3035228Y-27690000D01*
X-2910931Y-27653504D01*
X-2823742Y-27597471D01*
X-2755624Y-27577470D01*
X-2687503Y-27597472D01*
X-2683538Y-27600440D01*
X-2569074Y-27674001D01*
X-2569069Y-27674004D01*
X-2444772Y-27710500D01*
X-2444768Y-27710500D01*
X-2307659Y-27710500D01*
X-2239538Y-27730502D01*
X-2193045Y-27784158D01*
X-2182941Y-27854432D01*
X-2186663Y-27871536D01*
X-2186697Y-27871774D01*
X-2205133Y-28000000D01*
X-2186697Y-28128226D01*
X-2132882Y-28246063D01*
X-2048049Y-28343967D01*
X-1939069Y-28414004D01*
X-1814772Y-28450500D01*
X-1814768Y-28450500D01*
X-1685232Y-28450500D01*
X-1685228Y-28450500D01*
X-1560931Y-28414004D01*
X-1451951Y-28343967D01*
X-1367118Y-28246063D01*
X-1313303Y-28128226D01*
X-1294867Y-28000000D01*
X-1303494Y-27940000D01*
X2846867Y-27940000D01*
X2865303Y-28068226D01*
X2919118Y-28186063D01*
X3003951Y-28283967D01*
X3100468Y-28345995D01*
X3112931Y-28354004D01*
X3237228Y-28390500D01*
X3237232Y-28390500D01*
X3366768Y-28390500D01*
X3366772Y-28390500D01*
X3491069Y-28354004D01*
X3600049Y-28283967D01*
X3684882Y-28186063D01*
X3738697Y-28068226D01*
X3757133Y-27940000D01*
X3738697Y-27811774D01*
X3684882Y-27693937D01*
X3678005Y-27686000D01*
X5386867Y-27686000D01*
X5405303Y-27814226D01*
X5459118Y-27932063D01*
X5543951Y-28029967D01*
X5652931Y-28100004D01*
X5777228Y-28136500D01*
X5777232Y-28136500D01*
X5906768Y-28136500D01*
X5906772Y-28136500D01*
X6031069Y-28100004D01*
X6140049Y-28029967D01*
X6224882Y-27932063D01*
X6278697Y-27814226D01*
X6297133Y-27686000D01*
X6278697Y-27557774D01*
X6224882Y-27439937D01*
X6140049Y-27342033D01*
X6140048Y-27342032D01*
X6031073Y-27271998D01*
X6031070Y-27271996D01*
X6031069Y-27271996D01*
X6031066Y-27271995D01*
X5906776Y-27235501D01*
X5906774Y-27235500D01*
X5906772Y-27235500D01*
X5777228Y-27235500D01*
X5777225Y-27235500D01*
X5777223Y-27235501D01*
X5652933Y-27271995D01*
X5652926Y-27271998D01*
X5543951Y-27342032D01*
X5488898Y-27405568D01*
X5459118Y-27439937D01*
X5405303Y-27557774D01*
X5386867Y-27686000D01*
X3678005Y-27686000D01*
X3600049Y-27596033D01*
X3600048Y-27596032D01*
X3491073Y-27525998D01*
X3491070Y-27525996D01*
X3491069Y-27525996D01*
X3402533Y-27500000D01*
X3366776Y-27489501D01*
X3366774Y-27489500D01*
X3366772Y-27489500D01*
X3237228Y-27489500D01*
X3237225Y-27489500D01*
X3237223Y-27489501D01*
X3112933Y-27525995D01*
X3112926Y-27525998D01*
X3003951Y-27596032D01*
X2936392Y-27674001D01*
X2919118Y-27693937D01*
X2865303Y-27811774D01*
X2846867Y-27940000D01*
X-1303494Y-27940000D01*
X-1313303Y-27871774D01*
X-1367118Y-27753937D01*
X-1451951Y-27656033D01*
X-1451952Y-27656032D01*
X-1560927Y-27585998D01*
X-1560930Y-27585996D01*
X-1560931Y-27585996D01*
X-1569544Y-27583467D01*
X-1685224Y-27549501D01*
X-1685226Y-27549500D01*
X-1685228Y-27549500D01*
X-1814772Y-27549500D01*
X-1822341Y-27549500D01*
X-1890462Y-27529498D01*
X-1936955Y-27475842D01*
X-1947059Y-27405568D01*
X-1943338Y-27388463D01*
X-1943305Y-27388228D01*
X-1943303Y-27388226D01*
X-1924867Y-27260000D01*
X-1943303Y-27131774D01*
X-1997118Y-27013937D01*
X-2081951Y-26916033D01*
X-2081952Y-26916032D01*
X-2190927Y-26845998D01*
X-2190930Y-26845996D01*
X-2190931Y-26845996D01*
X-2260749Y-26825496D01*
X-2315224Y-26809501D01*
X-2315226Y-26809500D01*
X-2315228Y-26809500D01*
X-2444772Y-26809500D01*
X-2444775Y-26809500D01*
X-2444777Y-26809501D01*
X-2569067Y-26845995D01*
X-2569069Y-26845996D01*
X-2656257Y-26902028D01*
X-2724378Y-26922029D01*
X-2792499Y-26902026D01*
X-2796459Y-26899062D01*
X-2910927Y-26825498D01*
X-2910930Y-26825496D01*
X-2910931Y-26825496D01*
X-2965406Y-26809501D01*
X-3035224Y-26789001D01*
X-3035226Y-26789000D01*
X-3035228Y-26789000D01*
X-3164772Y-26789000D01*
X-3164775Y-26789000D01*
X-3164777Y-26789001D01*
X-3289067Y-26825495D01*
X-3289074Y-26825498D01*
X-3398049Y-26895532D01*
X-3468881Y-26977279D01*
X-3482882Y-26993437D01*
X-3536697Y-27111274D01*
X-3555133Y-27239500D01*
X-6607176Y-27239500D01*
X-6637118Y-27173937D01*
X-6721951Y-27076033D01*
X-6721952Y-27076032D01*
X-6830927Y-27005998D01*
X-6830930Y-27005996D01*
X-6830931Y-27005996D01*
X-6873704Y-26993437D01*
X-6955224Y-26969501D01*
X-6955226Y-26969500D01*
X-6955228Y-26969500D01*
X-7084772Y-26969500D01*
X-7084775Y-26969500D01*
X-7084777Y-26969501D01*
X-7209067Y-27005995D01*
X-7209074Y-27005998D01*
X-7318049Y-27076032D01*
X-7402880Y-27173935D01*
X-7402881Y-27173935D01*
X-7402882Y-27173936D01*
X-7402882Y-27173937D01*
X-7456697Y-27291774D01*
X-7475133Y-27420000D01*
X-7996369Y-27420000D01*
X-8003303Y-27371774D01*
X-8057118Y-27253937D01*
X-8141951Y-27156033D01*
X-8141952Y-27156032D01*
X-8250927Y-27085998D01*
X-8250930Y-27085996D01*
X-8250931Y-27085996D01*
X-8257715Y-27084004D01*
X-8375224Y-27049501D01*
X-8375226Y-27049500D01*
X-8375228Y-27049500D01*
X-8504772Y-27049500D01*
X-8504775Y-27049500D01*
X-8504777Y-27049501D01*
X-8629067Y-27085995D01*
X-8629074Y-27085998D01*
X-8738049Y-27156032D01*
X-8822882Y-27253937D01*
X-8876697Y-27371774D01*
X-8895133Y-27500000D01*
X-19924500Y-27500000D01*
X-19924500Y-26560000D01*
X-11755133Y-26560000D01*
X-11736697Y-26688226D01*
X-11682882Y-26806063D01*
X-11648223Y-26846062D01*
X-11598049Y-26903967D01*
X-11496078Y-26969500D01*
X-11489069Y-26974004D01*
X-11364772Y-27010500D01*
X-11364768Y-27010500D01*
X-11235232Y-27010500D01*
X-11235228Y-27010500D01*
X-11110931Y-26974004D01*
X-11001951Y-26903967D01*
X-10917118Y-26806063D01*
X-10863303Y-26688226D01*
X-10860683Y-26670000D01*
X-4925133Y-26670000D01*
X-4906697Y-26798226D01*
X-4852882Y-26916063D01*
X-4799839Y-26977279D01*
X-4768049Y-27013967D01*
X-4711203Y-27050500D01*
X-4659069Y-27084004D01*
X-4534772Y-27120500D01*
X-4534768Y-27120500D01*
X-4405232Y-27120500D01*
X-4405228Y-27120500D01*
X-4280931Y-27084004D01*
X-4171951Y-27013967D01*
X-4087118Y-26916063D01*
X-4033303Y-26798226D01*
X-4014867Y-26670000D01*
X-4024931Y-26600000D01*
X1114367Y-26600000D01*
X1132803Y-26728226D01*
X1186618Y-26846063D01*
X1252442Y-26922029D01*
X1271451Y-26943967D01*
X1380326Y-27013937D01*
X1380431Y-27014004D01*
X1504728Y-27050500D01*
X1504732Y-27050500D01*
X1634268Y-27050500D01*
X1634272Y-27050500D01*
X1758569Y-27014004D01*
X1867549Y-26943967D01*
X1884850Y-26924000D01*
X4116867Y-26924000D01*
X4135303Y-27052226D01*
X4189118Y-27170063D01*
X4249285Y-27239500D01*
X4273951Y-27267967D01*
X4310995Y-27291774D01*
X4382931Y-27338004D01*
X4507228Y-27374500D01*
X4507232Y-27374500D01*
X4636768Y-27374500D01*
X4636772Y-27374500D01*
X4761069Y-27338004D01*
X4870049Y-27267967D01*
X4954882Y-27170063D01*
X5008697Y-27052226D01*
X5027133Y-26924000D01*
X5008697Y-26795774D01*
X4954882Y-26677937D01*
X4870049Y-26580033D01*
X4870048Y-26580032D01*
X4761073Y-26509998D01*
X4761070Y-26509996D01*
X4761069Y-26509996D01*
X4761066Y-26509995D01*
X4636776Y-26473501D01*
X4636774Y-26473500D01*
X4636772Y-26473500D01*
X4507228Y-26473500D01*
X4507225Y-26473500D01*
X4507223Y-26473501D01*
X4382933Y-26509995D01*
X4382926Y-26509998D01*
X4273951Y-26580032D01*
X4195995Y-26670000D01*
X4189118Y-26677937D01*
X4135303Y-26795774D01*
X4116867Y-26924000D01*
X1884850Y-26924000D01*
X1952382Y-26846063D01*
X2006197Y-26728226D01*
X2024633Y-26600000D01*
X2006197Y-26471774D01*
X1952382Y-26353937D01*
X1867549Y-26256033D01*
X1867548Y-26256032D01*
X1758573Y-26185998D01*
X1758570Y-26185996D01*
X1758569Y-26185996D01*
X1758566Y-26185995D01*
X1676845Y-26162000D01*
X2846867Y-26162000D01*
X2865303Y-26290226D01*
X2919118Y-26408063D01*
X2984888Y-26483967D01*
X3003951Y-26505967D01*
X3078693Y-26554001D01*
X3112931Y-26576004D01*
X3237228Y-26612500D01*
X3237232Y-26612500D01*
X3366768Y-26612500D01*
X3366772Y-26612500D01*
X3491069Y-26576004D01*
X3600049Y-26505967D01*
X3684882Y-26408063D01*
X3738697Y-26290226D01*
X3757133Y-26162000D01*
X5386867Y-26162000D01*
X5405303Y-26290226D01*
X5459118Y-26408063D01*
X5524888Y-26483967D01*
X5543951Y-26505967D01*
X5618693Y-26554001D01*
X5652931Y-26576004D01*
X5777228Y-26612500D01*
X5777232Y-26612500D01*
X5906768Y-26612500D01*
X5906772Y-26612500D01*
X6031069Y-26576004D01*
X6140049Y-26505967D01*
X6224882Y-26408063D01*
X6278697Y-26290226D01*
X6297133Y-26162000D01*
X6278697Y-26033774D01*
X6224882Y-25915937D01*
X6140049Y-25818033D01*
X6140048Y-25818032D01*
X6031073Y-25747998D01*
X6031070Y-25747996D01*
X6031069Y-25747996D01*
X6031066Y-25747995D01*
X5906776Y-25711501D01*
X5906774Y-25711500D01*
X5906772Y-25711500D01*
X5777228Y-25711500D01*
X5777225Y-25711500D01*
X5777223Y-25711501D01*
X5652933Y-25747995D01*
X5652926Y-25747998D01*
X5543951Y-25818032D01*
X5478181Y-25893937D01*
X5459118Y-25915937D01*
X5405303Y-26033774D01*
X5386867Y-26162000D01*
X3757133Y-26162000D01*
X3738697Y-26033774D01*
X3684882Y-25915937D01*
X3600049Y-25818033D01*
X3600048Y-25818032D01*
X3491073Y-25747998D01*
X3491070Y-25747996D01*
X3491069Y-25747996D01*
X3491066Y-25747995D01*
X3366776Y-25711501D01*
X3366774Y-25711500D01*
X3366772Y-25711500D01*
X3237228Y-25711500D01*
X3237225Y-25711500D01*
X3237223Y-25711501D01*
X3112933Y-25747995D01*
X3112926Y-25747998D01*
X3003951Y-25818032D01*
X2938181Y-25893937D01*
X2919118Y-25915937D01*
X2865303Y-26033774D01*
X2846867Y-26162000D01*
X1676845Y-26162000D01*
X1634276Y-26149501D01*
X1634274Y-26149500D01*
X1634272Y-26149500D01*
X1504728Y-26149500D01*
X1504725Y-26149500D01*
X1504723Y-26149501D01*
X1380433Y-26185995D01*
X1380426Y-26185998D01*
X1271451Y-26256032D01*
X1186618Y-26353937D01*
X1132803Y-26471774D01*
X1114367Y-26600000D01*
X-4024931Y-26600000D01*
X-4033303Y-26541774D01*
X-4087118Y-26423937D01*
X-4171951Y-26326033D01*
X-4171952Y-26326032D01*
X-4280927Y-26255998D01*
X-4280930Y-26255996D01*
X-4280931Y-26255996D01*
X-4280934Y-26255995D01*
X-4405224Y-26219501D01*
X-4405226Y-26219500D01*
X-4405228Y-26219500D01*
X-4534772Y-26219500D01*
X-4534775Y-26219500D01*
X-4534777Y-26219501D01*
X-4659067Y-26255995D01*
X-4659074Y-26255998D01*
X-4768049Y-26326032D01*
X-4839127Y-26408063D01*
X-4852882Y-26423937D01*
X-4906697Y-26541774D01*
X-4925133Y-26670000D01*
X-10860683Y-26670000D01*
X-10844867Y-26560000D01*
X-10863303Y-26431774D01*
X-10917118Y-26313937D01*
X-11001951Y-26216033D01*
X-11001952Y-26216032D01*
X-11110927Y-26145998D01*
X-11110930Y-26145996D01*
X-11110931Y-26145996D01*
X-11131352Y-26140000D01*
X-6755133Y-26140000D01*
X-6736697Y-26268226D01*
X-6682882Y-26386063D01*
X-6607118Y-26473501D01*
X-6598049Y-26483967D01*
X-6508100Y-26541774D01*
X-6489069Y-26554004D01*
X-6364772Y-26590500D01*
X-6364768Y-26590500D01*
X-6235232Y-26590500D01*
X-6235228Y-26590500D01*
X-6110931Y-26554004D01*
X-6001951Y-26483967D01*
X-5917118Y-26386063D01*
X-5863303Y-26268226D01*
X-5844867Y-26140000D01*
X-5863303Y-26011774D01*
X-5917118Y-25893937D01*
X-6001951Y-25796033D01*
X-6001952Y-25796032D01*
X-6110927Y-25725998D01*
X-6110930Y-25725996D01*
X-6110931Y-25725996D01*
X-6110934Y-25725995D01*
X-6235224Y-25689501D01*
X-6235226Y-25689500D01*
X-6235228Y-25689500D01*
X-6364772Y-25689500D01*
X-6364775Y-25689500D01*
X-6364777Y-25689501D01*
X-6489067Y-25725995D01*
X-6489074Y-25725998D01*
X-6598049Y-25796032D01*
X-6674273Y-25884001D01*
X-6682882Y-25893937D01*
X-6736697Y-26011774D01*
X-6755133Y-26140000D01*
X-11131352Y-26140000D01*
X-11235224Y-26109501D01*
X-11235226Y-26109500D01*
X-11235228Y-26109500D01*
X-11364772Y-26109500D01*
X-11364775Y-26109500D01*
X-11364777Y-26109501D01*
X-11489067Y-26145995D01*
X-11489074Y-26145998D01*
X-11598049Y-26216032D01*
X-11643272Y-26268224D01*
X-11682882Y-26313937D01*
X-11736697Y-26431774D01*
X-11755133Y-26560000D01*
X-19924500Y-26560000D01*
X-19924500Y-25470000D01*
X-8635633Y-25470000D01*
X-8617197Y-25598226D01*
X-8563382Y-25716063D01*
X-8494089Y-25796033D01*
X-8478549Y-25813967D01*
X-8421703Y-25850500D01*
X-8369569Y-25884004D01*
X-8245272Y-25920500D01*
X-8245268Y-25920500D01*
X-8115732Y-25920500D01*
X-8115728Y-25920500D01*
X-7991431Y-25884004D01*
X-7891382Y-25819706D01*
X-7823263Y-25799705D01*
X-7755142Y-25819707D01*
X-7728042Y-25843190D01*
X-7658049Y-25923967D01*
X-7549069Y-25994004D01*
X-7424772Y-26030500D01*
X-7424768Y-26030500D01*
X-7295232Y-26030500D01*
X-7295228Y-26030500D01*
X-7170931Y-25994004D01*
X-7061951Y-25923967D01*
X-6977118Y-25826063D01*
X-6923303Y-25708226D01*
X-6904867Y-25580000D01*
X-6923303Y-25451774D01*
X-6946948Y-25400000D01*
X4116867Y-25400000D01*
X4135303Y-25528226D01*
X4189118Y-25646063D01*
X4258379Y-25725996D01*
X4273951Y-25743967D01*
X4354967Y-25796033D01*
X4382931Y-25814004D01*
X4507228Y-25850500D01*
X4507232Y-25850500D01*
X4636768Y-25850500D01*
X4636772Y-25850500D01*
X4761069Y-25814004D01*
X4870049Y-25743967D01*
X4954882Y-25646063D01*
X5008697Y-25528226D01*
X5027133Y-25400000D01*
X5008697Y-25271774D01*
X4954882Y-25153937D01*
X4870049Y-25056033D01*
X4870048Y-25056032D01*
X4761073Y-24985998D01*
X4761070Y-24985996D01*
X4761069Y-24985996D01*
X4761066Y-24985995D01*
X4636776Y-24949501D01*
X4636774Y-24949500D01*
X4636772Y-24949500D01*
X4507228Y-24949500D01*
X4507225Y-24949500D01*
X4507223Y-24949501D01*
X4382933Y-24985995D01*
X4382926Y-24985998D01*
X4273951Y-25056032D01*
X4189118Y-25153937D01*
X4135303Y-25271774D01*
X4116867Y-25400000D01*
X-6946948Y-25400000D01*
X-6977118Y-25333937D01*
X-7061951Y-25236033D01*
X-7061952Y-25236032D01*
X-7170927Y-25165998D01*
X-7170930Y-25165996D01*
X-7170931Y-25165996D01*
X-7212001Y-25153937D01*
X-7295224Y-25129501D01*
X-7295226Y-25129500D01*
X-7295228Y-25129500D01*
X-7424772Y-25129500D01*
X-7424775Y-25129500D01*
X-7424777Y-25129501D01*
X-7549067Y-25165995D01*
X-7549069Y-25165996D01*
X-7649118Y-25230293D01*
X-7717239Y-25250294D01*
X-7785360Y-25230291D01*
X-7812459Y-25206809D01*
X-7882451Y-25126033D01*
X-7882452Y-25126032D01*
X-7991427Y-25055998D01*
X-7991430Y-25055996D01*
X-7991431Y-25055996D01*
X-7991434Y-25055995D01*
X-8115724Y-25019501D01*
X-8115726Y-25019500D01*
X-8115728Y-25019500D01*
X-8245272Y-25019500D01*
X-8245275Y-25019500D01*
X-8245277Y-25019501D01*
X-8369567Y-25055995D01*
X-8369574Y-25055998D01*
X-8478549Y-25126032D01*
X-8548537Y-25206805D01*
X-8563382Y-25223937D01*
X-8617197Y-25341774D01*
X-8635633Y-25470000D01*
X-19924500Y-25470000D01*
X-19924500Y-24638000D01*
X2846867Y-24638000D01*
X2865303Y-24766226D01*
X2919118Y-24884063D01*
X3003951Y-24981967D01*
X3062353Y-25019500D01*
X3112931Y-25052004D01*
X3237228Y-25088500D01*
X3237232Y-25088500D01*
X3366768Y-25088500D01*
X3366772Y-25088500D01*
X3491069Y-25052004D01*
X3600049Y-24981967D01*
X3684882Y-24884063D01*
X3738697Y-24766226D01*
X3757133Y-24638000D01*
X5386867Y-24638000D01*
X5405303Y-24766226D01*
X5459118Y-24884063D01*
X5543951Y-24981967D01*
X5602353Y-25019500D01*
X5652931Y-25052004D01*
X5777228Y-25088500D01*
X5777232Y-25088500D01*
X5906768Y-25088500D01*
X5906772Y-25088500D01*
X6031069Y-25052004D01*
X6140049Y-24981967D01*
X6224882Y-24884063D01*
X6278697Y-24766226D01*
X6297133Y-24638000D01*
X6278697Y-24509774D01*
X6273762Y-24498969D01*
X15202040Y-24498969D01*
X15202040Y-26138470D01*
X15211493Y-26185995D01*
X15213673Y-26196951D01*
X15257988Y-26263272D01*
X15324309Y-26307587D01*
X15382792Y-26319220D01*
X15382793Y-26319220D01*
X17022287Y-26319220D01*
X17022288Y-26319220D01*
X17080771Y-26307587D01*
X17147092Y-26263272D01*
X17191407Y-26196951D01*
X17203040Y-26138468D01*
X17203040Y-24498972D01*
X17191407Y-24440489D01*
X17147092Y-24374168D01*
X17080771Y-24329853D01*
X17080768Y-24329852D01*
X17022290Y-24318220D01*
X17022288Y-24318220D01*
X15382792Y-24318220D01*
X15382789Y-24318220D01*
X15324311Y-24329852D01*
X15324308Y-24329853D01*
X15257988Y-24374168D01*
X15213673Y-24440488D01*
X15213672Y-24440491D01*
X15202040Y-24498969D01*
X6273762Y-24498969D01*
X6224882Y-24391937D01*
X6140049Y-24294033D01*
X6140048Y-24294032D01*
X6031073Y-24223998D01*
X6031070Y-24223996D01*
X6031069Y-24223996D01*
X6031066Y-24223995D01*
X5906776Y-24187501D01*
X5906774Y-24187500D01*
X5906772Y-24187500D01*
X5777228Y-24187500D01*
X5777225Y-24187500D01*
X5777223Y-24187501D01*
X5652933Y-24223995D01*
X5652926Y-24223998D01*
X5543951Y-24294032D01*
X5512914Y-24329852D01*
X5459118Y-24391937D01*
X5405303Y-24509774D01*
X5386867Y-24638000D01*
X3757133Y-24638000D01*
X3738697Y-24509774D01*
X3684882Y-24391937D01*
X3600049Y-24294033D01*
X3600048Y-24294032D01*
X3491073Y-24223998D01*
X3491070Y-24223996D01*
X3491069Y-24223996D01*
X3491066Y-24223995D01*
X3366776Y-24187501D01*
X3366774Y-24187500D01*
X3366772Y-24187500D01*
X3237228Y-24187500D01*
X3237225Y-24187500D01*
X3237223Y-24187501D01*
X3112933Y-24223995D01*
X3112926Y-24223998D01*
X3003951Y-24294032D01*
X2972914Y-24329852D01*
X2919118Y-24391937D01*
X2865303Y-24509774D01*
X2846867Y-24638000D01*
X-19924500Y-24638000D01*
X-19924500Y-23740000D01*
X1414867Y-23740000D01*
X1433303Y-23868226D01*
X1487118Y-23986063D01*
X1571951Y-24083967D01*
X1680931Y-24154004D01*
X1805228Y-24190500D01*
X1805232Y-24190500D01*
X1934768Y-24190500D01*
X1934772Y-24190500D01*
X2059069Y-24154004D01*
X2168049Y-24083967D01*
X2252882Y-23986063D01*
X2303147Y-23876000D01*
X4116867Y-23876000D01*
X4135303Y-24004226D01*
X4189118Y-24122063D01*
X4273951Y-24219967D01*
X4382931Y-24290004D01*
X4507228Y-24326500D01*
X4507232Y-24326500D01*
X4636768Y-24326500D01*
X4636772Y-24326500D01*
X4761069Y-24290004D01*
X4870049Y-24219967D01*
X4954882Y-24122063D01*
X5008697Y-24004226D01*
X5027133Y-23876000D01*
X5008697Y-23747774D01*
X4954882Y-23629937D01*
X4870049Y-23532033D01*
X4870048Y-23532032D01*
X4761073Y-23461998D01*
X4761070Y-23461996D01*
X4761069Y-23461996D01*
X4761066Y-23461995D01*
X4636776Y-23425501D01*
X4636774Y-23425500D01*
X4636772Y-23425500D01*
X4507228Y-23425500D01*
X4507225Y-23425500D01*
X4507223Y-23425501D01*
X4382933Y-23461995D01*
X4382926Y-23461998D01*
X4273951Y-23532032D01*
X4204856Y-23611774D01*
X4189118Y-23629937D01*
X4135303Y-23747774D01*
X4116867Y-23876000D01*
X2303147Y-23876000D01*
X2306697Y-23868226D01*
X2325133Y-23740000D01*
X2306697Y-23611774D01*
X2252882Y-23493937D01*
X2168049Y-23396033D01*
X2168048Y-23396032D01*
X2059073Y-23325998D01*
X2059070Y-23325996D01*
X2059069Y-23325996D01*
X2059066Y-23325995D01*
X1934776Y-23289501D01*
X1934774Y-23289500D01*
X1934772Y-23289500D01*
X1805228Y-23289500D01*
X1805225Y-23289500D01*
X1805223Y-23289501D01*
X1680933Y-23325995D01*
X1680926Y-23325998D01*
X1571951Y-23396032D01*
X1514793Y-23461998D01*
X1487118Y-23493937D01*
X1433303Y-23611774D01*
X1414867Y-23740000D01*
X-19924500Y-23740000D01*
X-19924500Y-20840000D01*
X-9185133Y-20840000D01*
X-9166697Y-20968226D01*
X-9112882Y-21086063D01*
X-9028049Y-21183967D01*
X-8919069Y-21254004D01*
X-8794772Y-21290500D01*
X-8794768Y-21290500D01*
X-8665232Y-21290500D01*
X-8665228Y-21290500D01*
X-8540931Y-21254004D01*
X-8441339Y-21190000D01*
X1444867Y-21190000D01*
X1463303Y-21318226D01*
X1517118Y-21436063D01*
X1601951Y-21533967D01*
X1710931Y-21604004D01*
X1835228Y-21640500D01*
X1835232Y-21640500D01*
X1964768Y-21640500D01*
X1964772Y-21640500D01*
X2089069Y-21604004D01*
X2198049Y-21533967D01*
X2282882Y-21436063D01*
X2336697Y-21318226D01*
X2355133Y-21190000D01*
X2336697Y-21061774D01*
X2298680Y-20978529D01*
X3739260Y-20978529D01*
X3739260Y-20978532D01*
X3739260Y-22618028D01*
X3750893Y-22676511D01*
X3795208Y-22742832D01*
X3861529Y-22787147D01*
X3920012Y-22798780D01*
X3920013Y-22798780D01*
X5559507Y-22798780D01*
X5559508Y-22798780D01*
X5617991Y-22787147D01*
X5684312Y-22742832D01*
X5728627Y-22676511D01*
X5740260Y-22618028D01*
X5740260Y-20978532D01*
X5728627Y-20920049D01*
X5684312Y-20853728D01*
X5617991Y-20809413D01*
X5617988Y-20809412D01*
X5559510Y-20797780D01*
X5559508Y-20797780D01*
X3920012Y-20797780D01*
X3920009Y-20797780D01*
X3861531Y-20809412D01*
X3861528Y-20809413D01*
X3795208Y-20853728D01*
X3750893Y-20920048D01*
X3750892Y-20920051D01*
X3739260Y-20978529D01*
X2298680Y-20978529D01*
X2282882Y-20943937D01*
X2198049Y-20846033D01*
X2198048Y-20846032D01*
X2089073Y-20775998D01*
X2089070Y-20775996D01*
X2089069Y-20775996D01*
X2089066Y-20775995D01*
X1964776Y-20739501D01*
X1964774Y-20739500D01*
X1964772Y-20739500D01*
X1835228Y-20739500D01*
X1835225Y-20739500D01*
X1835223Y-20739501D01*
X1710933Y-20775995D01*
X1710926Y-20775998D01*
X1601951Y-20846032D01*
X1537817Y-20920049D01*
X1517118Y-20943937D01*
X1463303Y-21061774D01*
X1444867Y-21190000D01*
X-8441339Y-21190000D01*
X-8431951Y-21183967D01*
X-8347118Y-21086063D01*
X-8293303Y-20968226D01*
X-8274867Y-20840000D01*
X-8293303Y-20711774D01*
X-8347118Y-20593937D01*
X-8431951Y-20496033D01*
X-8431952Y-20496032D01*
X-8540927Y-20425998D01*
X-8540930Y-20425996D01*
X-8540931Y-20425996D01*
X-8581773Y-20414004D01*
X-8665224Y-20389501D01*
X-8665226Y-20389500D01*
X-8665228Y-20389500D01*
X-8794772Y-20389500D01*
X-8794775Y-20389500D01*
X-8794777Y-20389501D01*
X-8919067Y-20425995D01*
X-8919073Y-20425998D01*
X-8980613Y-20465547D01*
X-9048734Y-20485548D01*
X-9058823Y-20482585D01*
X-9056551Y-20498382D01*
X-9086042Y-20562961D01*
X-9112882Y-20593937D01*
X-9166697Y-20711774D01*
X-9185133Y-20840000D01*
X-19924500Y-20840000D01*
X-19924500Y-19563453D01*
X-19904498Y-19495332D01*
X-19850842Y-19448839D01*
X-19780568Y-19438735D01*
X-19730382Y-19457453D01*
X-19689069Y-19484004D01*
X-19564772Y-19520500D01*
X-19564768Y-19520500D01*
X-19435232Y-19520500D01*
X-19435228Y-19520500D01*
X-19310931Y-19484004D01*
X-19201951Y-19413967D01*
X-19117118Y-19316063D01*
X-19063303Y-19198226D01*
X-19044867Y-19070000D01*
X-11485133Y-19070000D01*
X-11466697Y-19198226D01*
X-11412882Y-19316063D01*
X-11341888Y-19397996D01*
X-11328049Y-19413967D01*
X-11243921Y-19468033D01*
X-11219069Y-19484004D01*
X-11094772Y-19520500D01*
X-11053126Y-19520500D01*
X-10985005Y-19540502D01*
X-10964036Y-19557400D01*
X-10902977Y-19618459D01*
X-10869000Y-19638075D01*
X-10835024Y-19657691D01*
X-10835022Y-19657691D01*
X-10835021Y-19657692D01*
X-10759236Y-19677999D01*
X-10759232Y-19678000D01*
X-10044263Y-19678000D01*
X-9976142Y-19698002D01*
X-9929649Y-19751658D01*
X-9919545Y-19821932D01*
X-9929649Y-19856339D01*
X-9936697Y-19871774D01*
X-9955133Y-20000000D01*
X-9936697Y-20128226D01*
X-9882882Y-20246063D01*
X-9798049Y-20343967D01*
X-9689069Y-20414004D01*
X-9564772Y-20450500D01*
X-9564768Y-20450500D01*
X-9435232Y-20450500D01*
X-9435228Y-20450500D01*
X-9310931Y-20414004D01*
X-9249387Y-20374452D01*
X-9181269Y-20354451D01*
X-9171178Y-20357414D01*
X-9173449Y-20341615D01*
X-9143956Y-20277036D01*
X-9117120Y-20246065D01*
X-9117118Y-20246063D01*
X-9063303Y-20128226D01*
X-9044867Y-20000000D01*
X-855133Y-20000000D01*
X-836697Y-20128226D01*
X-782882Y-20246063D01*
X-698049Y-20343967D01*
X-589069Y-20414004D01*
X-464772Y-20450500D01*
X-464768Y-20450500D01*
X-335232Y-20450500D01*
X-335228Y-20450500D01*
X-210931Y-20414004D01*
X-101951Y-20343967D01*
X-17118Y-20246063D01*
X36697Y-20128226D01*
X55133Y-20000000D01*
X36697Y-19871774D01*
X9399Y-19812000D01*
X4116867Y-19812000D01*
X4135303Y-19940226D01*
X4189118Y-20058063D01*
X4273951Y-20155967D01*
X4382931Y-20226004D01*
X4507228Y-20262500D01*
X4507232Y-20262500D01*
X4636768Y-20262500D01*
X4636772Y-20262500D01*
X4761069Y-20226004D01*
X4870049Y-20155967D01*
X4954882Y-20058063D01*
X5008697Y-19940226D01*
X5027133Y-19812000D01*
X5008697Y-19683774D01*
X4954882Y-19565937D01*
X4870049Y-19468033D01*
X4870048Y-19468032D01*
X4761073Y-19397998D01*
X4761070Y-19397996D01*
X4761069Y-19397996D01*
X4761066Y-19397995D01*
X4636776Y-19361501D01*
X4636774Y-19361500D01*
X4636772Y-19361500D01*
X4507228Y-19361500D01*
X4507225Y-19361500D01*
X4507223Y-19361501D01*
X4382933Y-19397995D01*
X4382926Y-19397998D01*
X4273951Y-19468032D01*
X4203360Y-19549501D01*
X4189118Y-19565937D01*
X4135303Y-19683774D01*
X4116867Y-19812000D01*
X9399Y-19812000D01*
X-17118Y-19753937D01*
X-101951Y-19656033D01*
X-101952Y-19656032D01*
X-210927Y-19585998D01*
X-210930Y-19585996D01*
X-210931Y-19585996D01*
X-308305Y-19557405D01*
X-335224Y-19549501D01*
X-335226Y-19549500D01*
X-335228Y-19549500D01*
X-464772Y-19549500D01*
X-464775Y-19549500D01*
X-464777Y-19549501D01*
X-589067Y-19585995D01*
X-589074Y-19585998D01*
X-698049Y-19656032D01*
X-734415Y-19698002D01*
X-782882Y-19753937D01*
X-836697Y-19871774D01*
X-855133Y-20000000D01*
X-9044867Y-20000000D01*
X-9063303Y-19871774D01*
X-9070352Y-19856340D01*
X-9080454Y-19786068D01*
X-9050961Y-19721488D01*
X-8991235Y-19683104D01*
X-8955737Y-19678000D01*
X-5800768Y-19678000D01*
X-5724976Y-19657691D01*
X-5691000Y-19638075D01*
X-5657023Y-19618459D01*
X-4838564Y-18800000D01*
X-2155133Y-18800000D01*
X-2136697Y-18928226D01*
X-2082882Y-19046063D01*
X-1998049Y-19143967D01*
X-1889069Y-19214004D01*
X-1764772Y-19250500D01*
X-1764768Y-19250500D01*
X-1635232Y-19250500D01*
X-1635228Y-19250500D01*
X-1510931Y-19214004D01*
X-1401951Y-19143967D01*
X-1317118Y-19046063D01*
X-1263303Y-18928226D01*
X-1244867Y-18800000D01*
X-1263303Y-18671774D01*
X-1317118Y-18553937D01*
X-1401951Y-18456033D01*
X-1401952Y-18456032D01*
X-1510927Y-18385998D01*
X-1510930Y-18385996D01*
X-1510931Y-18385996D01*
X-1612978Y-18356033D01*
X-1635224Y-18349501D01*
X-1635226Y-18349500D01*
X-1635228Y-18349500D01*
X-1764772Y-18349500D01*
X-1764775Y-18349500D01*
X-1764777Y-18349501D01*
X-1889067Y-18385995D01*
X-1889074Y-18385998D01*
X-1998049Y-18456032D01*
X-2016568Y-18477405D01*
X-2082882Y-18553937D01*
X-2136697Y-18671774D01*
X-2155133Y-18800000D01*
X-4838564Y-18800000D01*
X-4515969Y-18477405D01*
X-4453657Y-18443380D01*
X-4426874Y-18440500D01*
X-4385232Y-18440500D01*
X-4385228Y-18440500D01*
X-4260931Y-18404004D01*
X-4151951Y-18333967D01*
X-4067118Y-18236063D01*
X-4013303Y-18118226D01*
X-3994867Y-17990000D01*
X-4013303Y-17861774D01*
X-4067118Y-17743937D01*
X-4087859Y-17720000D01*
X-3725133Y-17720000D01*
X-3706697Y-17848226D01*
X-3652882Y-17966063D01*
X-3568049Y-18063967D01*
X-3459069Y-18134004D01*
X-3334772Y-18170500D01*
X-3334768Y-18170500D01*
X-3205232Y-18170500D01*
X-3205228Y-18170500D01*
X-3080931Y-18134004D01*
X-2971951Y-18063967D01*
X-2887118Y-17966063D01*
X-2852381Y-17890000D01*
X2854867Y-17890000D01*
X2873303Y-18018226D01*
X2927118Y-18136063D01*
X2994653Y-18214004D01*
X3011951Y-18233967D01*
X3094512Y-18287026D01*
X3120931Y-18304004D01*
X3245228Y-18340500D01*
X3245232Y-18340500D01*
X3374768Y-18340500D01*
X3374772Y-18340500D01*
X3499069Y-18304004D01*
X3608049Y-18233967D01*
X3692882Y-18136063D01*
X3746697Y-18018226D01*
X3765133Y-17890000D01*
X3749317Y-17780000D01*
X5364867Y-17780000D01*
X5383303Y-17908226D01*
X5437118Y-18026063D01*
X5521951Y-18123967D01*
X5630931Y-18194004D01*
X5755228Y-18230500D01*
X5755232Y-18230500D01*
X5884768Y-18230500D01*
X5884772Y-18230500D01*
X6009069Y-18194004D01*
X6118049Y-18123967D01*
X6202882Y-18026063D01*
X6256697Y-17908226D01*
X6275133Y-17780000D01*
X6256697Y-17651774D01*
X6202882Y-17533937D01*
X6118049Y-17436033D01*
X6118048Y-17436032D01*
X6009073Y-17365998D01*
X6009070Y-17365996D01*
X6009069Y-17365996D01*
X6009066Y-17365995D01*
X5884776Y-17329501D01*
X5884774Y-17329500D01*
X5884772Y-17329500D01*
X5755228Y-17329500D01*
X5755225Y-17329500D01*
X5755223Y-17329501D01*
X5630933Y-17365995D01*
X5630926Y-17365998D01*
X5521951Y-17436032D01*
X5437118Y-17533937D01*
X5383303Y-17651774D01*
X5364867Y-17780000D01*
X3749317Y-17780000D01*
X3746697Y-17761774D01*
X3692882Y-17643937D01*
X3608049Y-17546033D01*
X3608048Y-17546032D01*
X3499073Y-17475998D01*
X3499070Y-17475996D01*
X3499069Y-17475996D01*
X3492057Y-17473937D01*
X3374776Y-17439501D01*
X3374774Y-17439500D01*
X3374772Y-17439500D01*
X3245228Y-17439500D01*
X3245225Y-17439500D01*
X3245223Y-17439501D01*
X3120933Y-17475995D01*
X3120926Y-17475998D01*
X3011951Y-17546032D01*
X2927118Y-17643937D01*
X2873303Y-17761774D01*
X2854867Y-17890000D01*
X-2852381Y-17890000D01*
X-2833303Y-17848226D01*
X-2814867Y-17720000D01*
X-2833303Y-17591774D01*
X-2887118Y-17473937D01*
X-2971951Y-17376033D01*
X-2971952Y-17376032D01*
X-3080927Y-17305998D01*
X-3080930Y-17305996D01*
X-3080931Y-17305996D01*
X-3080934Y-17305995D01*
X-3205224Y-17269501D01*
X-3205226Y-17269500D01*
X-3205228Y-17269500D01*
X-3334772Y-17269500D01*
X-3334775Y-17269500D01*
X-3334777Y-17269501D01*
X-3459067Y-17305995D01*
X-3459074Y-17305998D01*
X-3568049Y-17376032D01*
X-3637368Y-17456033D01*
X-3652882Y-17473937D01*
X-3706697Y-17591774D01*
X-3725133Y-17720000D01*
X-4087859Y-17720000D01*
X-4151951Y-17646033D01*
X-4151952Y-17646032D01*
X-4260927Y-17575998D01*
X-4260930Y-17575996D01*
X-4260931Y-17575996D01*
X-4260934Y-17575995D01*
X-4385224Y-17539501D01*
X-4385226Y-17539500D01*
X-4385228Y-17539500D01*
X-4514772Y-17539500D01*
X-4514775Y-17539500D01*
X-4514777Y-17539501D01*
X-4639067Y-17575995D01*
X-4639074Y-17575998D01*
X-4748049Y-17646032D01*
X-4832882Y-17743937D01*
X-4886698Y-17861776D01*
X-4886699Y-17861780D01*
X-4904824Y-17987845D01*
X-4934317Y-18052426D01*
X-4940446Y-18059008D01*
X-5926533Y-19045096D01*
X-5988843Y-19079120D01*
X-6015626Y-19082000D01*
X-8783138Y-19082000D01*
X-8851259Y-19061998D01*
X-8897752Y-19008342D01*
X-8907856Y-18938068D01*
X-8897752Y-18903658D01*
X-8896013Y-18899848D01*
X-8863303Y-18828226D01*
X-8844867Y-18700000D01*
X-8863303Y-18571774D01*
X-8917118Y-18453937D01*
X-9001951Y-18356033D01*
X-9001952Y-18356032D01*
X-9110927Y-18285998D01*
X-9110930Y-18285996D01*
X-9110931Y-18285996D01*
X-9231822Y-18250500D01*
X-9235224Y-18249501D01*
X-9235226Y-18249500D01*
X-9235228Y-18249500D01*
X-9364772Y-18249500D01*
X-9364775Y-18249500D01*
X-9364777Y-18249501D01*
X-9489067Y-18285995D01*
X-9489074Y-18285998D01*
X-9598049Y-18356032D01*
X-9682882Y-18453937D01*
X-9736697Y-18571774D01*
X-9751075Y-18671774D01*
X-9755133Y-18700000D01*
X-9736697Y-18828226D01*
X-9702248Y-18903658D01*
X-9692145Y-18973932D01*
X-9721638Y-19038513D01*
X-9781364Y-19076896D01*
X-9816862Y-19082000D01*
X-10463962Y-19082000D01*
X-10532083Y-19061998D01*
X-10578576Y-19008342D01*
X-10588680Y-18973934D01*
X-10593303Y-18941774D01*
X-10647118Y-18823937D01*
X-10731951Y-18726033D01*
X-10731952Y-18726032D01*
X-10840927Y-18655998D01*
X-10840930Y-18655996D01*
X-10840931Y-18655996D01*
X-10840934Y-18655995D01*
X-10965224Y-18619501D01*
X-10965226Y-18619500D01*
X-10965228Y-18619500D01*
X-11094772Y-18619500D01*
X-11094775Y-18619500D01*
X-11094777Y-18619501D01*
X-11219067Y-18655995D01*
X-11219074Y-18655998D01*
X-11328049Y-18726032D01*
X-11392141Y-18800000D01*
X-11412882Y-18823937D01*
X-11466697Y-18941774D01*
X-11485133Y-19070000D01*
X-19044867Y-19070000D01*
X-19063303Y-18941774D01*
X-19117118Y-18823937D01*
X-19201951Y-18726033D01*
X-19201952Y-18726032D01*
X-19310927Y-18655998D01*
X-19310930Y-18655996D01*
X-19310931Y-18655996D01*
X-19310934Y-18655995D01*
X-19435224Y-18619501D01*
X-19435226Y-18619500D01*
X-19435228Y-18619500D01*
X-19564772Y-18619500D01*
X-19564775Y-18619500D01*
X-19564777Y-18619501D01*
X-19689067Y-18655995D01*
X-19689073Y-18655998D01*
X-19730381Y-18682545D01*
X-19798502Y-18702546D01*
X-19866622Y-18682543D01*
X-19913114Y-18628887D01*
X-19924500Y-18576546D01*
X-19924500Y-18287026D01*
X-19904498Y-18218905D01*
X-19850842Y-18172412D01*
X-19780568Y-18162308D01*
X-19730384Y-18181026D01*
X-19679069Y-18214004D01*
X-19554772Y-18250500D01*
X-19554768Y-18250500D01*
X-19425232Y-18250500D01*
X-19425228Y-18250500D01*
X-19300931Y-18214004D01*
X-19191951Y-18143967D01*
X-19107118Y-18046063D01*
X-19053303Y-17928226D01*
X-19034867Y-17800000D01*
X-19053303Y-17671774D01*
X-19107118Y-17553937D01*
X-19191951Y-17456033D01*
X-19191952Y-17456032D01*
X-19300927Y-17385998D01*
X-19300930Y-17385996D01*
X-19300931Y-17385996D01*
X-19300934Y-17385995D01*
X-19425224Y-17349501D01*
X-19425226Y-17349500D01*
X-19425228Y-17349500D01*
X-19554772Y-17349500D01*
X-19554775Y-17349500D01*
X-19554777Y-17349501D01*
X-19679067Y-17385995D01*
X-19679074Y-17385998D01*
X-19730380Y-17418971D01*
X-19798501Y-17438973D01*
X-19866621Y-17418970D01*
X-19913114Y-17365314D01*
X-19924500Y-17312973D01*
X-19924500Y-17036306D01*
X-19904498Y-16968185D01*
X-19850842Y-16921692D01*
X-19780568Y-16911588D01*
X-19730383Y-16930306D01*
X-19709069Y-16944004D01*
X-19584772Y-16980500D01*
X-19584768Y-16980500D01*
X-19455232Y-16980500D01*
X-19455228Y-16980500D01*
X-19330931Y-16944004D01*
X-19221951Y-16873967D01*
X-19137118Y-16776063D01*
X-19083303Y-16658226D01*
X-19064867Y-16530000D01*
X-19080683Y-16420000D01*
X-9785133Y-16420000D01*
X-9766697Y-16548226D01*
X-9712882Y-16666063D01*
X-9643563Y-16746063D01*
X-9628049Y-16763967D01*
X-9514073Y-16837215D01*
X-9467580Y-16890870D01*
X-9457475Y-16961144D01*
X-9486968Y-17025725D01*
X-9514072Y-17049211D01*
X-9618051Y-17116033D01*
X-9702882Y-17213937D01*
X-9756697Y-17331774D01*
X-9775133Y-17460000D01*
X-9756697Y-17588226D01*
X-9702882Y-17706063D01*
X-9670064Y-17743937D01*
X-9618049Y-17803967D01*
X-9528100Y-17861774D01*
X-9509069Y-17874004D01*
X-9384772Y-17910500D01*
X-9384768Y-17910500D01*
X-9255232Y-17910500D01*
X-9255228Y-17910500D01*
X-9130931Y-17874004D01*
X-9021951Y-17803967D01*
X-8937118Y-17706063D01*
X-8883303Y-17588226D01*
X-8864867Y-17460000D01*
X-8883303Y-17331774D01*
X-8937118Y-17213937D01*
X-8979535Y-17164985D01*
X-9021950Y-17116033D01*
X-9135929Y-17042784D01*
X-9182422Y-16989128D01*
X-9192526Y-16918854D01*
X-9163033Y-16854274D01*
X-9135936Y-16830793D01*
X-9031951Y-16763967D01*
X-8947118Y-16666063D01*
X-8893303Y-16548226D01*
X-8886369Y-16500000D01*
X-1955133Y-16500000D01*
X-1936697Y-16628226D01*
X-1882882Y-16746063D01*
X-1798049Y-16843967D01*
X-1692829Y-16911588D01*
X-1689069Y-16914004D01*
X-1564772Y-16950500D01*
X-1564768Y-16950500D01*
X-1435232Y-16950500D01*
X-1435228Y-16950500D01*
X-1310931Y-16914004D01*
X-1201951Y-16843967D01*
X-1117118Y-16746063D01*
X-1063303Y-16628226D01*
X-1044867Y-16500000D01*
X-1063303Y-16371774D01*
X-1117118Y-16253937D01*
X-1201951Y-16156033D01*
X-1201952Y-16156032D01*
X-1310927Y-16085998D01*
X-1310930Y-16085996D01*
X-1310931Y-16085996D01*
X-1333051Y-16079501D01*
X-1435224Y-16049501D01*
X-1435226Y-16049500D01*
X-1435228Y-16049500D01*
X-1564772Y-16049500D01*
X-1564775Y-16049500D01*
X-1564777Y-16049501D01*
X-1689067Y-16085995D01*
X-1689074Y-16085998D01*
X-1798049Y-16156032D01*
X-1813563Y-16173937D01*
X-1882882Y-16253937D01*
X-1936697Y-16371774D01*
X-1955133Y-16500000D01*
X-8886369Y-16500000D01*
X-8874867Y-16420000D01*
X-8893303Y-16291774D01*
X-8947118Y-16173937D01*
X-9031951Y-16076033D01*
X-9031952Y-16076032D01*
X-9140927Y-16005998D01*
X-9140930Y-16005996D01*
X-9140931Y-16005996D01*
X-9140934Y-16005995D01*
X-9265224Y-15969501D01*
X-9265226Y-15969500D01*
X-9265228Y-15969500D01*
X-9394772Y-15969500D01*
X-9394775Y-15969500D01*
X-9394777Y-15969501D01*
X-9519067Y-16005995D01*
X-9519074Y-16005998D01*
X-9628049Y-16076032D01*
X-9697368Y-16156033D01*
X-9712882Y-16173937D01*
X-9766697Y-16291774D01*
X-9785133Y-16420000D01*
X-19080683Y-16420000D01*
X-19083303Y-16401774D01*
X-19137118Y-16283937D01*
X-19221951Y-16186033D01*
X-19221952Y-16186032D01*
X-19330927Y-16115998D01*
X-19330930Y-16115996D01*
X-19330931Y-16115996D01*
X-19433104Y-16085996D01*
X-19455224Y-16079501D01*
X-19455226Y-16079500D01*
X-19455228Y-16079500D01*
X-19584772Y-16079500D01*
X-19584775Y-16079500D01*
X-19584777Y-16079501D01*
X-19709067Y-16115995D01*
X-19709073Y-16115998D01*
X-19730381Y-16129692D01*
X-19798502Y-16149693D01*
X-19866623Y-16129690D01*
X-19913115Y-16076033D01*
X-19924500Y-16023693D01*
X-19924500Y-15809159D01*
X-19904498Y-15741038D01*
X-19850842Y-15694545D01*
X-19780568Y-15684441D01*
X-19737399Y-15700544D01*
X-19737268Y-15700259D01*
X-19733278Y-15702081D01*
X-19730378Y-15703163D01*
X-19729069Y-15704004D01*
X-19604772Y-15740500D01*
X-19604768Y-15740500D01*
X-19475232Y-15740500D01*
X-19475228Y-15740500D01*
X-19350931Y-15704004D01*
X-19241951Y-15633967D01*
X-19157118Y-15536063D01*
X-19103303Y-15418226D01*
X-19086305Y-15300000D01*
X-7955133Y-15300000D01*
X-7936697Y-15428226D01*
X-7882882Y-15546063D01*
X-7818383Y-15620500D01*
X-7798049Y-15643967D01*
X-7704630Y-15704004D01*
X-7689069Y-15714004D01*
X-7564772Y-15750500D01*
X-7564768Y-15750500D01*
X-7435232Y-15750500D01*
X-7435228Y-15750500D01*
X-7310931Y-15714004D01*
X-7201951Y-15643967D01*
X-7117118Y-15546063D01*
X-7063303Y-15428226D01*
X-7044867Y-15300000D01*
X-7063303Y-15171774D01*
X-7064113Y-15170000D01*
X2904867Y-15170000D01*
X2923303Y-15298226D01*
X2977118Y-15416063D01*
X3044651Y-15494001D01*
X3061951Y-15513967D01*
X3096331Y-15536062D01*
X3170931Y-15584004D01*
X3295228Y-15620500D01*
X3295232Y-15620500D01*
X3424768Y-15620500D01*
X3424772Y-15620500D01*
X3549069Y-15584004D01*
X3658049Y-15513967D01*
X3742882Y-15416063D01*
X3796697Y-15298226D01*
X3815133Y-15170000D01*
X3802193Y-15080000D01*
X5364867Y-15080000D01*
X5383303Y-15208226D01*
X5437118Y-15326063D01*
X5521951Y-15423967D01*
X5630931Y-15494004D01*
X5755228Y-15530500D01*
X5755232Y-15530500D01*
X5884768Y-15530500D01*
X5884772Y-15530500D01*
X6009069Y-15494004D01*
X6118049Y-15423967D01*
X6202882Y-15326063D01*
X6256697Y-15208226D01*
X6275133Y-15080000D01*
X6256697Y-14951774D01*
X6202882Y-14833937D01*
X6118049Y-14736033D01*
X6118048Y-14736032D01*
X6009073Y-14665998D01*
X6009070Y-14665996D01*
X6009069Y-14665996D01*
X6009066Y-14665995D01*
X5884776Y-14629501D01*
X5884774Y-14629500D01*
X5884772Y-14629500D01*
X5755228Y-14629500D01*
X5755225Y-14629500D01*
X5755223Y-14629501D01*
X5630933Y-14665995D01*
X5630926Y-14665998D01*
X5521951Y-14736032D01*
X5485391Y-14778226D01*
X5437118Y-14833937D01*
X5383303Y-14951774D01*
X5364867Y-15080000D01*
X3802193Y-15080000D01*
X3796697Y-15041774D01*
X3742882Y-14923937D01*
X3658049Y-14826033D01*
X3658048Y-14826032D01*
X3549073Y-14755998D01*
X3549070Y-14755996D01*
X3549069Y-14755996D01*
X3481080Y-14736033D01*
X3424776Y-14719501D01*
X3424774Y-14719500D01*
X3424772Y-14719500D01*
X3295228Y-14719500D01*
X3295225Y-14719500D01*
X3295223Y-14719501D01*
X3170933Y-14755995D01*
X3170926Y-14755998D01*
X3061951Y-14826032D01*
X3000597Y-14896840D01*
X2977118Y-14923937D01*
X2923303Y-15041774D01*
X2904867Y-15170000D01*
X-7064113Y-15170000D01*
X-7117118Y-15053937D01*
X-7201951Y-14956033D01*
X-7201952Y-14956032D01*
X-7310927Y-14885998D01*
X-7310930Y-14885996D01*
X-7310931Y-14885996D01*
X-7340619Y-14877279D01*
X-7435224Y-14849501D01*
X-7435226Y-14849500D01*
X-7435228Y-14849500D01*
X-7564772Y-14849500D01*
X-7564775Y-14849500D01*
X-7564777Y-14849501D01*
X-7689067Y-14885995D01*
X-7689074Y-14885998D01*
X-7798049Y-14956032D01*
X-7872343Y-15041774D01*
X-7882882Y-15053937D01*
X-7936697Y-15171774D01*
X-7955133Y-15300000D01*
X-19086305Y-15300000D01*
X-19084867Y-15290000D01*
X-19103303Y-15161774D01*
X-19157118Y-15043937D01*
X-19241951Y-14946033D01*
X-19241952Y-14946032D01*
X-19350927Y-14875998D01*
X-19350930Y-14875996D01*
X-19350931Y-14875996D01*
X-19350934Y-14875995D01*
X-19475224Y-14839501D01*
X-19475226Y-14839500D01*
X-19475228Y-14839500D01*
X-19604772Y-14839500D01*
X-19604775Y-14839500D01*
X-19604777Y-14839501D01*
X-19729067Y-14875995D01*
X-19729074Y-14875998D01*
X-19730384Y-14876841D01*
X-19731879Y-14877279D01*
X-19737268Y-14879741D01*
X-19737622Y-14878965D01*
X-19798505Y-14896840D01*
X-19866625Y-14876835D01*
X-19913116Y-14823177D01*
X-19924500Y-14770840D01*
X-19924500Y-14650000D01*
X-6925133Y-14650000D01*
X-6906697Y-14778226D01*
X-6852882Y-14896063D01*
X-6828729Y-14923937D01*
X-6768049Y-14993967D01*
X-6684783Y-15047479D01*
X-6659069Y-15064004D01*
X-6534772Y-15100500D01*
X-6534768Y-15100500D01*
X-6405232Y-15100500D01*
X-6405228Y-15100500D01*
X-6280931Y-15064004D01*
X-6171951Y-14993967D01*
X-6087118Y-14896063D01*
X-6033303Y-14778226D01*
X-6014867Y-14650000D01*
X-6033303Y-14521774D01*
X-6087118Y-14403937D01*
X-6171951Y-14306033D01*
X-6171952Y-14306032D01*
X-6280927Y-14235998D01*
X-6280930Y-14235996D01*
X-6280931Y-14235996D01*
X-6392538Y-14203226D01*
X-6405224Y-14199501D01*
X-6405226Y-14199500D01*
X-6405228Y-14199500D01*
X-6534772Y-14199500D01*
X-6534775Y-14199500D01*
X-6534777Y-14199501D01*
X-6659067Y-14235995D01*
X-6659074Y-14235998D01*
X-6768049Y-14306032D01*
X-6792254Y-14333967D01*
X-6852882Y-14403937D01*
X-6906697Y-14521774D01*
X-6925133Y-14650000D01*
X-19924500Y-14650000D01*
X-19924500Y-14509159D01*
X-19904498Y-14441038D01*
X-19850842Y-14394545D01*
X-19780568Y-14384441D01*
X-19737399Y-14400544D01*
X-19737268Y-14400259D01*
X-19733278Y-14402081D01*
X-19730378Y-14403163D01*
X-19729069Y-14404004D01*
X-19604772Y-14440500D01*
X-19604768Y-14440500D01*
X-19475232Y-14440500D01*
X-19475228Y-14440500D01*
X-19350931Y-14404004D01*
X-19241951Y-14333967D01*
X-19157118Y-14236063D01*
X-19103303Y-14118226D01*
X-19097088Y-14075000D01*
X-5905133Y-14075000D01*
X-5886697Y-14203226D01*
X-5832882Y-14321063D01*
X-5748049Y-14418967D01*
X-5639069Y-14489004D01*
X-5514772Y-14525500D01*
X-5514768Y-14525500D01*
X-5385232Y-14525500D01*
X-5385228Y-14525500D01*
X-5260931Y-14489004D01*
X-5151951Y-14418967D01*
X-5067118Y-14321063D01*
X-5013303Y-14203226D01*
X-5012839Y-14200000D01*
X16974867Y-14200000D01*
X16993303Y-14328226D01*
X17047118Y-14446063D01*
X17131951Y-14543967D01*
X17240931Y-14614004D01*
X17365228Y-14650500D01*
X17365232Y-14650500D01*
X17494768Y-14650500D01*
X17494772Y-14650500D01*
X17619069Y-14614004D01*
X17728049Y-14543967D01*
X17812882Y-14446063D01*
X17866697Y-14328226D01*
X17885133Y-14200000D01*
X17866697Y-14071774D01*
X17812882Y-13953937D01*
X17728049Y-13856033D01*
X17728048Y-13856032D01*
X17619073Y-13785998D01*
X17619070Y-13785996D01*
X17619069Y-13785996D01*
X17619066Y-13785995D01*
X17494776Y-13749501D01*
X17494774Y-13749500D01*
X17494772Y-13749500D01*
X17365228Y-13749500D01*
X17365225Y-13749500D01*
X17365223Y-13749501D01*
X17240933Y-13785995D01*
X17240926Y-13785998D01*
X17131951Y-13856032D01*
X17053325Y-13946774D01*
X17047118Y-13953937D01*
X16993303Y-14071774D01*
X16974867Y-14200000D01*
X-5012839Y-14200000D01*
X-4994867Y-14075000D01*
X-5013303Y-13946774D01*
X-5067118Y-13828937D01*
X-5151951Y-13731033D01*
X-5151952Y-13731032D01*
X-5260927Y-13660998D01*
X-5260930Y-13660996D01*
X-5260931Y-13660996D01*
X-5260934Y-13660995D01*
X-5385224Y-13624501D01*
X-5385226Y-13624500D01*
X-5385228Y-13624500D01*
X-5514772Y-13624500D01*
X-5514775Y-13624500D01*
X-5514777Y-13624501D01*
X-5639067Y-13660995D01*
X-5639074Y-13660998D01*
X-5748049Y-13731032D01*
X-5795673Y-13785995D01*
X-5832882Y-13828937D01*
X-5886697Y-13946774D01*
X-5905133Y-14075000D01*
X-19097088Y-14075000D01*
X-19084867Y-13990000D01*
X-19103303Y-13861774D01*
X-19157118Y-13743937D01*
X-19241951Y-13646033D01*
X-19241952Y-13646032D01*
X-19350927Y-13575998D01*
X-19350930Y-13575996D01*
X-19350931Y-13575996D01*
X-19350934Y-13575995D01*
X-19475224Y-13539501D01*
X-19475226Y-13539500D01*
X-19475228Y-13539500D01*
X-19604772Y-13539500D01*
X-19604775Y-13539500D01*
X-19604777Y-13539501D01*
X-19729067Y-13575995D01*
X-19729074Y-13575998D01*
X-19730384Y-13576841D01*
X-19731879Y-13577279D01*
X-19737268Y-13579741D01*
X-19737622Y-13578965D01*
X-19798505Y-13596840D01*
X-19866625Y-13576835D01*
X-19913116Y-13523177D01*
X-19924500Y-13470840D01*
X-19924500Y-12944999D01*
X1699868Y-12944999D01*
X1718304Y-13073225D01*
X1772119Y-13191062D01*
X1856952Y-13288966D01*
X1965932Y-13359003D01*
X2090229Y-13395499D01*
X2090233Y-13395499D01*
X2219769Y-13395499D01*
X2219773Y-13395499D01*
X2344070Y-13359003D01*
X2453050Y-13288966D01*
X2537883Y-13191062D01*
X2591698Y-13073225D01*
X2607977Y-12960000D01*
X16254867Y-12960000D01*
X16273303Y-13088226D01*
X16327118Y-13206063D01*
X16411951Y-13303967D01*
X16520931Y-13374004D01*
X16645228Y-13410500D01*
X16645232Y-13410500D01*
X16774768Y-13410500D01*
X16774772Y-13410500D01*
X16899069Y-13374004D01*
X17008049Y-13303967D01*
X17092882Y-13206063D01*
X17146697Y-13088226D01*
X17165133Y-12960000D01*
X17146697Y-12831774D01*
X17092882Y-12713937D01*
X17008049Y-12616033D01*
X17008048Y-12616032D01*
X16899073Y-12545998D01*
X16899070Y-12545996D01*
X16899069Y-12545996D01*
X16847986Y-12530997D01*
X16774776Y-12509501D01*
X16774774Y-12509500D01*
X16774772Y-12509500D01*
X16645228Y-12509500D01*
X16645225Y-12509500D01*
X16645223Y-12509501D01*
X16520933Y-12545995D01*
X16520926Y-12545998D01*
X16411951Y-12616032D01*
X16340116Y-12698936D01*
X16327118Y-12713937D01*
X16273303Y-12831774D01*
X16254867Y-12960000D01*
X2607977Y-12960000D01*
X2610134Y-12944999D01*
X2591698Y-12816773D01*
X2537883Y-12698936D01*
X2453050Y-12601032D01*
X2453049Y-12601031D01*
X2344074Y-12530997D01*
X2344071Y-12530995D01*
X2344070Y-12530995D01*
X2344067Y-12530994D01*
X2219777Y-12494500D01*
X2219775Y-12494499D01*
X2219773Y-12494499D01*
X2090229Y-12494499D01*
X2090226Y-12494499D01*
X2090224Y-12494500D01*
X1965934Y-12530994D01*
X1965927Y-12530997D01*
X1856952Y-12601031D01*
X1772119Y-12698936D01*
X1718304Y-12816773D01*
X1699868Y-12944999D01*
X-19924500Y-12944999D01*
X-19924500Y-11400000D01*
X-17815133Y-11400000D01*
X-17796697Y-11528226D01*
X-17742882Y-11646063D01*
X-17658049Y-11743967D01*
X-17549069Y-11814004D01*
X-17424772Y-11850500D01*
X-17424768Y-11850500D01*
X-17295232Y-11850500D01*
X-17295228Y-11850500D01*
X-17170931Y-11814004D01*
X-17061951Y-11743967D01*
X-16977118Y-11646063D01*
X-16923303Y-11528226D01*
X-16914931Y-11470000D01*
X10244867Y-11470000D01*
X10263303Y-11598226D01*
X10317118Y-11716063D01*
X10341297Y-11743967D01*
X10401951Y-11813967D01*
X10458797Y-11850500D01*
X10510931Y-11884004D01*
X10635228Y-11920500D01*
X10635232Y-11920500D01*
X10764768Y-11920500D01*
X10764772Y-11920500D01*
X10889069Y-11884004D01*
X10998049Y-11813967D01*
X11082882Y-11716063D01*
X11136697Y-11598226D01*
X11155133Y-11470000D01*
X11136697Y-11341774D01*
X11082882Y-11223937D01*
X10998049Y-11126033D01*
X10998048Y-11126032D01*
X10889073Y-11055998D01*
X10889070Y-11055996D01*
X10889069Y-11055996D01*
X10889066Y-11055995D01*
X10764776Y-11019501D01*
X10764774Y-11019500D01*
X10764772Y-11019500D01*
X10635228Y-11019500D01*
X10635225Y-11019500D01*
X10635223Y-11019501D01*
X10510933Y-11055995D01*
X10510926Y-11055998D01*
X10401951Y-11126032D01*
X10377772Y-11153937D01*
X10317118Y-11223937D01*
X10263303Y-11341774D01*
X10244867Y-11470000D01*
X-16914931Y-11470000D01*
X-16904867Y-11400000D01*
X-16923303Y-11271774D01*
X-16977118Y-11153937D01*
X-17061951Y-11056033D01*
X-17061952Y-11056032D01*
X-17170927Y-10985998D01*
X-17170930Y-10985996D01*
X-17170931Y-10985996D01*
X-17170934Y-10985995D01*
X-17295224Y-10949501D01*
X-17295226Y-10949500D01*
X-17295228Y-10949500D01*
X-17424772Y-10949500D01*
X-17424775Y-10949500D01*
X-17424777Y-10949501D01*
X-17549067Y-10985995D01*
X-17549074Y-10985998D01*
X-17658049Y-11056032D01*
X-17742882Y-11153937D01*
X-17796697Y-11271774D01*
X-17815133Y-11400000D01*
X-19924500Y-11400000D01*
X-19924500Y-10620000D01*
X-8435133Y-10620000D01*
X-8416697Y-10748226D01*
X-8362882Y-10866063D01*
X-8278049Y-10963967D01*
X-8169069Y-11034004D01*
X-8044772Y-11070500D01*
X-8044768Y-11070500D01*
X-7915232Y-11070500D01*
X-7915228Y-11070500D01*
X-7790931Y-11034004D01*
X-7681951Y-10963967D01*
X-7597118Y-10866063D01*
X-7543303Y-10748226D01*
X-7524867Y-10620000D01*
X-7543303Y-10491774D01*
X-7571515Y-10430000D01*
X5814867Y-10430000D01*
X5833303Y-10558226D01*
X5887118Y-10676063D01*
X5971951Y-10773967D01*
X6080931Y-10844004D01*
X6205228Y-10880500D01*
X6205232Y-10880500D01*
X6334768Y-10880500D01*
X6334772Y-10880500D01*
X6459069Y-10844004D01*
X6568049Y-10773967D01*
X6652882Y-10676063D01*
X6706697Y-10558226D01*
X6725133Y-10430000D01*
X6721539Y-10405000D01*
X17579867Y-10405000D01*
X17598303Y-10533226D01*
X17652118Y-10651063D01*
X17736951Y-10748967D01*
X17845931Y-10819004D01*
X17970228Y-10855500D01*
X17970232Y-10855500D01*
X18099768Y-10855500D01*
X18099772Y-10855500D01*
X18224069Y-10819004D01*
X18333049Y-10748967D01*
X18417882Y-10651063D01*
X18471697Y-10533226D01*
X18490133Y-10405000D01*
X18471697Y-10276774D01*
X18417882Y-10158937D01*
X18333049Y-10061033D01*
X18333048Y-10061032D01*
X18224073Y-9990998D01*
X18224070Y-9990996D01*
X18224069Y-9990996D01*
X18184920Y-9979501D01*
X18099776Y-9954501D01*
X18099774Y-9954500D01*
X18099772Y-9954500D01*
X17970228Y-9954500D01*
X17970225Y-9954500D01*
X17970223Y-9954501D01*
X17845933Y-9990995D01*
X17845926Y-9990998D01*
X17736951Y-10061032D01*
X17652118Y-10158937D01*
X17598303Y-10276774D01*
X17579867Y-10405000D01*
X6721539Y-10405000D01*
X6706697Y-10301774D01*
X6652882Y-10183937D01*
X6568049Y-10086033D01*
X6568048Y-10086032D01*
X6459073Y-10015998D01*
X6459070Y-10015996D01*
X6459069Y-10015996D01*
X6373925Y-9990996D01*
X6334776Y-9979501D01*
X6334774Y-9979500D01*
X6334772Y-9979500D01*
X6205228Y-9979500D01*
X6205225Y-9979500D01*
X6205223Y-9979501D01*
X6080933Y-10015995D01*
X6080926Y-10015998D01*
X5971951Y-10086032D01*
X5899627Y-10169501D01*
X5887118Y-10183937D01*
X5833303Y-10301774D01*
X5814867Y-10430000D01*
X-7571515Y-10430000D01*
X-7597118Y-10373937D01*
X-7681951Y-10276033D01*
X-7681952Y-10276032D01*
X-7790927Y-10205998D01*
X-7790930Y-10205996D01*
X-7790931Y-10205996D01*
X-7790934Y-10205995D01*
X-7915224Y-10169501D01*
X-7915226Y-10169500D01*
X-7915228Y-10169500D01*
X-8044772Y-10169500D01*
X-8044775Y-10169500D01*
X-8044777Y-10169501D01*
X-8169067Y-10205995D01*
X-8169074Y-10205998D01*
X-8278049Y-10276032D01*
X-8362882Y-10373937D01*
X-8416697Y-10491774D01*
X-8435133Y-10620000D01*
X-19924500Y-10620000D01*
X-19924500Y-425649D01*
X-12455100Y-425649D01*
X-12455100Y-2165150D01*
X-12453522Y-2173085D01*
X-12443467Y-2223631D01*
X-12399152Y-2289952D01*
X-12332831Y-2334267D01*
X-12274348Y-2345900D01*
X-12274347Y-2345900D01*
X-10534853Y-2345900D01*
X-10534852Y-2345900D01*
X-10476369Y-2334267D01*
X-10410048Y-2289952D01*
X-10365733Y-2223631D01*
X-10354100Y-2165148D01*
X-10354100Y-1295396D01*
X-9920183Y-1295396D01*
X-9920183Y-1295403D01*
X-9899902Y-1501327D01*
X-9899901Y-1501333D01*
X-9899900Y-1501334D01*
X-9839832Y-1699354D01*
X-9742285Y-1881850D01*
X-9611010Y-2041810D01*
X-9451050Y-2173085D01*
X-9268554Y-2270632D01*
X-9070534Y-2330700D01*
X-9070530Y-2330700D01*
X-9070528Y-2330701D01*
X-8864603Y-2350983D01*
X-8864600Y-2350983D01*
X-8864597Y-2350983D01*
X-8658673Y-2330701D01*
X-8658672Y-2330700D01*
X-8658666Y-2330700D01*
X-8460646Y-2270632D01*
X-8278150Y-2173085D01*
X-8118190Y-2041810D01*
X-7986915Y-1881850D01*
X-7889368Y-1699354D01*
X-7829300Y-1501334D01*
X-7809017Y-1295400D01*
X-7809017Y-1295396D01*
X-4840183Y-1295396D01*
X-4840183Y-1295403D01*
X-4819902Y-1501327D01*
X-4819901Y-1501333D01*
X-4819900Y-1501334D01*
X-4759832Y-1699354D01*
X-4662285Y-1881850D01*
X-4531010Y-2041810D01*
X-4371050Y-2173085D01*
X-4188554Y-2270632D01*
X-3990534Y-2330700D01*
X-3990530Y-2330700D01*
X-3990528Y-2330701D01*
X-3784603Y-2350983D01*
X-3784600Y-2350983D01*
X-3784597Y-2350983D01*
X-3578673Y-2330701D01*
X-3578672Y-2330700D01*
X-3578666Y-2330700D01*
X-3380646Y-2270632D01*
X-3198150Y-2173085D01*
X-3038190Y-2041810D01*
X-2906915Y-1881850D01*
X-2809368Y-1699354D01*
X-2749300Y-1501334D01*
X-2729017Y-1295400D01*
X-2729017Y-1295396D01*
X239817Y-1295396D01*
X239817Y-1295403D01*
X260098Y-1501327D01*
X260099Y-1501333D01*
X260100Y-1501334D01*
X320168Y-1699354D01*
X417715Y-1881850D01*
X548990Y-2041810D01*
X708950Y-2173085D01*
X891446Y-2270632D01*
X1089466Y-2330700D01*
X1089470Y-2330700D01*
X1089472Y-2330701D01*
X1295397Y-2350983D01*
X1295400Y-2350983D01*
X1295403Y-2350983D01*
X1501327Y-2330701D01*
X1501328Y-2330700D01*
X1501334Y-2330700D01*
X1699354Y-2270632D01*
X1881850Y-2173085D01*
X2041810Y-2041810D01*
X2173085Y-1881850D01*
X2270632Y-1699354D01*
X2330700Y-1501334D01*
X2350983Y-1295400D01*
X2350983Y-1295396D01*
X2779817Y-1295396D01*
X2779817Y-1295403D01*
X2800098Y-1501327D01*
X2800099Y-1501333D01*
X2800100Y-1501334D01*
X2860168Y-1699354D01*
X2957715Y-1881850D01*
X3088990Y-2041810D01*
X3248950Y-2173085D01*
X3431446Y-2270632D01*
X3629466Y-2330700D01*
X3629470Y-2330700D01*
X3629472Y-2330701D01*
X3835397Y-2350983D01*
X3835400Y-2350983D01*
X3835403Y-2350983D01*
X4041327Y-2330701D01*
X4041328Y-2330700D01*
X4041334Y-2330700D01*
X4239354Y-2270632D01*
X4421850Y-2173085D01*
X4581810Y-2041810D01*
X4713085Y-1881850D01*
X4810632Y-1699354D01*
X4870700Y-1501334D01*
X4890983Y-1295400D01*
X4890983Y-1295396D01*
X5319817Y-1295396D01*
X5319817Y-1295403D01*
X5340098Y-1501327D01*
X5340099Y-1501333D01*
X5340100Y-1501334D01*
X5400168Y-1699354D01*
X5497715Y-1881850D01*
X5628990Y-2041810D01*
X5788950Y-2173085D01*
X5971446Y-2270632D01*
X6169466Y-2330700D01*
X6169470Y-2330700D01*
X6169472Y-2330701D01*
X6375397Y-2350983D01*
X6375400Y-2350983D01*
X6375403Y-2350983D01*
X6581327Y-2330701D01*
X6581328Y-2330700D01*
X6581334Y-2330700D01*
X6779354Y-2270632D01*
X6961850Y-2173085D01*
X7121810Y-2041810D01*
X7253085Y-1881850D01*
X7350632Y-1699354D01*
X7410700Y-1501334D01*
X7430983Y-1295400D01*
X7430983Y-1295396D01*
X7859817Y-1295396D01*
X7859817Y-1295403D01*
X7880098Y-1501327D01*
X7880099Y-1501333D01*
X7880100Y-1501334D01*
X7940168Y-1699354D01*
X8037715Y-1881850D01*
X8168990Y-2041810D01*
X8328950Y-2173085D01*
X8511446Y-2270632D01*
X8709466Y-2330700D01*
X8709470Y-2330700D01*
X8709472Y-2330701D01*
X8915397Y-2350983D01*
X8915400Y-2350983D01*
X8915403Y-2350983D01*
X9121327Y-2330701D01*
X9121328Y-2330700D01*
X9121334Y-2330700D01*
X9319354Y-2270632D01*
X9501850Y-2173085D01*
X9661810Y-2041810D01*
X9793085Y-1881850D01*
X9890632Y-1699354D01*
X9950700Y-1501334D01*
X9970983Y-1295400D01*
X9970983Y-1295396D01*
X10399817Y-1295396D01*
X10399817Y-1295403D01*
X10420098Y-1501327D01*
X10420099Y-1501333D01*
X10420100Y-1501334D01*
X10480168Y-1699354D01*
X10577715Y-1881850D01*
X10708990Y-2041810D01*
X10868950Y-2173085D01*
X11051446Y-2270632D01*
X11249466Y-2330700D01*
X11249470Y-2330700D01*
X11249472Y-2330701D01*
X11455397Y-2350983D01*
X11455400Y-2350983D01*
X11455403Y-2350983D01*
X11661327Y-2330701D01*
X11661328Y-2330700D01*
X11661334Y-2330700D01*
X11859354Y-2270632D01*
X12041850Y-2173085D01*
X12201810Y-2041810D01*
X12333085Y-1881850D01*
X12430632Y-1699354D01*
X12490700Y-1501334D01*
X12510983Y-1295400D01*
X12490700Y-1089466D01*
X12430632Y-891446D01*
X12333085Y-708950D01*
X12201810Y-548990D01*
X12041850Y-417715D01*
X12041848Y-417714D01*
X12041847Y-417713D01*
X11859354Y-320168D01*
X11661327Y-260098D01*
X11455403Y-239817D01*
X11455397Y-239817D01*
X11249472Y-260098D01*
X11051445Y-320168D01*
X10868952Y-417713D01*
X10708990Y-548990D01*
X10577713Y-708952D01*
X10480168Y-891445D01*
X10420098Y-1089472D01*
X10399817Y-1295396D01*
X9970983Y-1295396D01*
X9950700Y-1089466D01*
X9890632Y-891446D01*
X9793085Y-708950D01*
X9661810Y-548990D01*
X9501850Y-417715D01*
X9501848Y-417714D01*
X9501847Y-417713D01*
X9319354Y-320168D01*
X9121327Y-260098D01*
X8915403Y-239817D01*
X8915397Y-239817D01*
X8709472Y-260098D01*
X8511445Y-320168D01*
X8328952Y-417713D01*
X8168990Y-548990D01*
X8037713Y-708952D01*
X7940168Y-891445D01*
X7880098Y-1089472D01*
X7859817Y-1295396D01*
X7430983Y-1295396D01*
X7410700Y-1089466D01*
X7350632Y-891446D01*
X7253085Y-708950D01*
X7121810Y-548990D01*
X6961850Y-417715D01*
X6961848Y-417714D01*
X6961847Y-417713D01*
X6779354Y-320168D01*
X6581327Y-260098D01*
X6375403Y-239817D01*
X6375397Y-239817D01*
X6169472Y-260098D01*
X5971445Y-320168D01*
X5788952Y-417713D01*
X5628990Y-548990D01*
X5497713Y-708952D01*
X5400168Y-891445D01*
X5340098Y-1089472D01*
X5319817Y-1295396D01*
X4890983Y-1295396D01*
X4870700Y-1089466D01*
X4810632Y-891446D01*
X4713085Y-708950D01*
X4581810Y-548990D01*
X4421850Y-417715D01*
X4421848Y-417714D01*
X4421847Y-417713D01*
X4239354Y-320168D01*
X4041327Y-260098D01*
X3835403Y-239817D01*
X3835397Y-239817D01*
X3629472Y-260098D01*
X3431445Y-320168D01*
X3248952Y-417713D01*
X3088990Y-548990D01*
X2957713Y-708952D01*
X2860168Y-891445D01*
X2800098Y-1089472D01*
X2779817Y-1295396D01*
X2350983Y-1295396D01*
X2330700Y-1089466D01*
X2270632Y-891446D01*
X2173085Y-708950D01*
X2041810Y-548990D01*
X1881850Y-417715D01*
X1881848Y-417714D01*
X1881847Y-417713D01*
X1699354Y-320168D01*
X1501327Y-260098D01*
X1295403Y-239817D01*
X1295397Y-239817D01*
X1089472Y-260098D01*
X891445Y-320168D01*
X708952Y-417713D01*
X548990Y-548990D01*
X417713Y-708952D01*
X320168Y-891445D01*
X260098Y-1089472D01*
X239817Y-1295396D01*
X-2729017Y-1295396D01*
X-2749300Y-1089466D01*
X-2809368Y-891446D01*
X-2906915Y-708950D01*
X-3038190Y-548990D01*
X-3198150Y-417715D01*
X-3198152Y-417714D01*
X-3198153Y-417713D01*
X-3380646Y-320168D01*
X-3578673Y-260098D01*
X-3784597Y-239817D01*
X-3784603Y-239817D01*
X-3990528Y-260098D01*
X-4188555Y-320168D01*
X-4371048Y-417713D01*
X-4531010Y-548990D01*
X-4662287Y-708952D01*
X-4759832Y-891445D01*
X-4819902Y-1089472D01*
X-4840183Y-1295396D01*
X-7809017Y-1295396D01*
X-7829300Y-1089466D01*
X-7889368Y-891446D01*
X-7986915Y-708950D01*
X-8118190Y-548990D01*
X-8278150Y-417715D01*
X-8278152Y-417714D01*
X-8278153Y-417713D01*
X-8460646Y-320168D01*
X-8658673Y-260098D01*
X-8864597Y-239817D01*
X-8864603Y-239817D01*
X-9070528Y-260098D01*
X-9268555Y-320168D01*
X-9451048Y-417713D01*
X-9611010Y-548990D01*
X-9742287Y-708952D01*
X-9839832Y-891445D01*
X-9899902Y-1089472D01*
X-9920183Y-1295396D01*
X-10354100Y-1295396D01*
X-10354100Y-425652D01*
X-10365733Y-367169D01*
X-10410048Y-300848D01*
X-10476369Y-256533D01*
X-10476372Y-256532D01*
X-10534850Y-244900D01*
X-10534852Y-244900D01*
X-12274348Y-244900D01*
X-12274351Y-244900D01*
X-12332829Y-256532D01*
X-12332832Y-256533D01*
X-12399152Y-300848D01*
X-12443467Y-367168D01*
X-12443468Y-367171D01*
X-12455100Y-425649D01*
X-19924500Y-425649D01*
X-19924500Y1244604D01*
X-12460183Y1244604D01*
X-12460183Y1244597D01*
X-12439902Y1038673D01*
X-12439901Y1038667D01*
X-12439900Y1038666D01*
X-12379832Y840646D01*
X-12282285Y658150D01*
X-12151010Y498190D01*
X-11991050Y366915D01*
X-11808554Y269368D01*
X-11610534Y209300D01*
X-11610530Y209300D01*
X-11610528Y209299D01*
X-11404603Y189017D01*
X-11404600Y189017D01*
X-11404597Y189017D01*
X-11198673Y209299D01*
X-11198672Y209300D01*
X-11198666Y209300D01*
X-11000646Y269368D01*
X-10818150Y366915D01*
X-10658190Y498190D01*
X-10526915Y658150D01*
X-10429368Y840646D01*
X-10369300Y1038666D01*
X-10349017Y1244600D01*
X-10349017Y1244604D01*
X-9920183Y1244604D01*
X-9920183Y1244597D01*
X-9899902Y1038673D01*
X-9899901Y1038667D01*
X-9899900Y1038666D01*
X-9839832Y840646D01*
X-9742285Y658150D01*
X-9611010Y498190D01*
X-9451050Y366915D01*
X-9268554Y269368D01*
X-9070534Y209300D01*
X-9070530Y209300D01*
X-9070528Y209299D01*
X-8864603Y189017D01*
X-8864600Y189017D01*
X-8864597Y189017D01*
X-8658673Y209299D01*
X-8658672Y209300D01*
X-8658666Y209300D01*
X-8460646Y269368D01*
X-8278150Y366915D01*
X-8118190Y498190D01*
X-7986915Y658150D01*
X-7889368Y840646D01*
X-7829300Y1038666D01*
X-7809017Y1244600D01*
X-7809017Y1244604D01*
X-7380183Y1244604D01*
X-7380183Y1244597D01*
X-7359902Y1038673D01*
X-7359901Y1038667D01*
X-7359900Y1038666D01*
X-7299832Y840646D01*
X-7202285Y658150D01*
X-7071010Y498190D01*
X-6911050Y366915D01*
X-6728554Y269368D01*
X-6530534Y209300D01*
X-6530530Y209300D01*
X-6530528Y209299D01*
X-6324603Y189017D01*
X-6324600Y189017D01*
X-6324597Y189017D01*
X-6118673Y209299D01*
X-6118672Y209300D01*
X-6118666Y209300D01*
X-5920646Y269368D01*
X-5738150Y366915D01*
X-5578190Y498190D01*
X-5446915Y658150D01*
X-5349368Y840646D01*
X-5289300Y1038666D01*
X-5269017Y1244600D01*
X-5269017Y1244604D01*
X-2300183Y1244604D01*
X-2300183Y1244597D01*
X-2279902Y1038673D01*
X-2279901Y1038667D01*
X-2279900Y1038666D01*
X-2219832Y840646D01*
X-2122285Y658150D01*
X-1991010Y498190D01*
X-1831050Y366915D01*
X-1648554Y269368D01*
X-1450534Y209300D01*
X-1450530Y209300D01*
X-1450528Y209299D01*
X-1244603Y189017D01*
X-1244600Y189017D01*
X-1244597Y189017D01*
X-1038673Y209299D01*
X-1038672Y209300D01*
X-1038666Y209300D01*
X-840646Y269368D01*
X-658150Y366915D01*
X-498190Y498190D01*
X-366915Y658150D01*
X-269368Y840646D01*
X-209300Y1038666D01*
X-189017Y1244600D01*
X-189017Y1244604D01*
X239817Y1244604D01*
X239817Y1244597D01*
X260098Y1038673D01*
X260099Y1038667D01*
X260100Y1038666D01*
X320168Y840646D01*
X417715Y658150D01*
X548990Y498190D01*
X708950Y366915D01*
X891446Y269368D01*
X1089466Y209300D01*
X1089470Y209300D01*
X1089472Y209299D01*
X1295397Y189017D01*
X1295400Y189017D01*
X1295403Y189017D01*
X1501327Y209299D01*
X1501328Y209300D01*
X1501334Y209300D01*
X1699354Y269368D01*
X1881850Y366915D01*
X2041810Y498190D01*
X2173085Y658150D01*
X2270632Y840646D01*
X2330700Y1038666D01*
X2350983Y1244600D01*
X2350983Y1244604D01*
X2779817Y1244604D01*
X2779817Y1244597D01*
X2800098Y1038673D01*
X2800099Y1038667D01*
X2800100Y1038666D01*
X2860168Y840646D01*
X2957715Y658150D01*
X3088990Y498190D01*
X3248950Y366915D01*
X3431446Y269368D01*
X3629466Y209300D01*
X3629470Y209300D01*
X3629472Y209299D01*
X3835397Y189017D01*
X3835400Y189017D01*
X3835403Y189017D01*
X4041327Y209299D01*
X4041328Y209300D01*
X4041334Y209300D01*
X4239354Y269368D01*
X4421850Y366915D01*
X4581810Y498190D01*
X4713085Y658150D01*
X4810632Y840646D01*
X4870700Y1038666D01*
X4890983Y1244600D01*
X4890983Y1244604D01*
X5319817Y1244604D01*
X5319817Y1244597D01*
X5340098Y1038673D01*
X5340099Y1038667D01*
X5340100Y1038666D01*
X5400168Y840646D01*
X5497715Y658150D01*
X5628990Y498190D01*
X5788950Y366915D01*
X5971446Y269368D01*
X6169466Y209300D01*
X6169470Y209300D01*
X6169472Y209299D01*
X6375397Y189017D01*
X6375400Y189017D01*
X6375403Y189017D01*
X6581327Y209299D01*
X6581328Y209300D01*
X6581334Y209300D01*
X6779354Y269368D01*
X6961850Y366915D01*
X7121810Y498190D01*
X7253085Y658150D01*
X7350632Y840646D01*
X7410700Y1038666D01*
X7430983Y1244600D01*
X7430983Y1244604D01*
X7859817Y1244604D01*
X7859817Y1244597D01*
X7880098Y1038673D01*
X7880099Y1038667D01*
X7880100Y1038666D01*
X7940168Y840646D01*
X8037715Y658150D01*
X8168990Y498190D01*
X8328950Y366915D01*
X8511446Y269368D01*
X8709466Y209300D01*
X8709470Y209300D01*
X8709472Y209299D01*
X8915397Y189017D01*
X8915400Y189017D01*
X8915403Y189017D01*
X9121327Y209299D01*
X9121328Y209300D01*
X9121334Y209300D01*
X9319354Y269368D01*
X9501850Y366915D01*
X9661810Y498190D01*
X9793085Y658150D01*
X9890632Y840646D01*
X9950700Y1038666D01*
X9970983Y1244600D01*
X9970983Y1244604D01*
X10399817Y1244604D01*
X10399817Y1244597D01*
X10420098Y1038673D01*
X10420099Y1038667D01*
X10420100Y1038666D01*
X10480168Y840646D01*
X10577715Y658150D01*
X10708990Y498190D01*
X10868950Y366915D01*
X11051446Y269368D01*
X11249466Y209300D01*
X11249470Y209300D01*
X11249472Y209299D01*
X11455397Y189017D01*
X11455400Y189017D01*
X11455403Y189017D01*
X11661327Y209299D01*
X11661328Y209300D01*
X11661334Y209300D01*
X11859354Y269368D01*
X12041850Y366915D01*
X12201810Y498190D01*
X12333085Y658150D01*
X12430632Y840646D01*
X12490700Y1038666D01*
X12510983Y1244600D01*
X12490700Y1450534D01*
X12430632Y1648554D01*
X12333085Y1831050D01*
X12201810Y1991010D01*
X12041850Y2122285D01*
X12041848Y2122286D01*
X12041847Y2122287D01*
X11859354Y2219832D01*
X11661327Y2279902D01*
X11455403Y2300183D01*
X11455397Y2300183D01*
X11249472Y2279902D01*
X11051445Y2219832D01*
X10868952Y2122287D01*
X10708990Y1991010D01*
X10577713Y1831048D01*
X10480168Y1648555D01*
X10420098Y1450528D01*
X10399817Y1244604D01*
X9970983Y1244604D01*
X9950700Y1450534D01*
X9890632Y1648554D01*
X9793085Y1831050D01*
X9661810Y1991010D01*
X9501850Y2122285D01*
X9501848Y2122286D01*
X9501847Y2122287D01*
X9319354Y2219832D01*
X9121327Y2279902D01*
X8915403Y2300183D01*
X8915397Y2300183D01*
X8709472Y2279902D01*
X8511445Y2219832D01*
X8328952Y2122287D01*
X8168990Y1991010D01*
X8037713Y1831048D01*
X7940168Y1648555D01*
X7880098Y1450528D01*
X7859817Y1244604D01*
X7430983Y1244604D01*
X7410700Y1450534D01*
X7350632Y1648554D01*
X7253085Y1831050D01*
X7121810Y1991010D01*
X6961850Y2122285D01*
X6961848Y2122286D01*
X6961847Y2122287D01*
X6779354Y2219832D01*
X6581327Y2279902D01*
X6375403Y2300183D01*
X6375397Y2300183D01*
X6169472Y2279902D01*
X5971445Y2219832D01*
X5788952Y2122287D01*
X5628990Y1991010D01*
X5497713Y1831048D01*
X5400168Y1648555D01*
X5340098Y1450528D01*
X5319817Y1244604D01*
X4890983Y1244604D01*
X4870700Y1450534D01*
X4810632Y1648554D01*
X4713085Y1831050D01*
X4581810Y1991010D01*
X4421850Y2122285D01*
X4421848Y2122286D01*
X4421847Y2122287D01*
X4239354Y2219832D01*
X4041327Y2279902D01*
X3835403Y2300183D01*
X3835397Y2300183D01*
X3629472Y2279902D01*
X3431445Y2219832D01*
X3248952Y2122287D01*
X3088990Y1991010D01*
X2957713Y1831048D01*
X2860168Y1648555D01*
X2800098Y1450528D01*
X2779817Y1244604D01*
X2350983Y1244604D01*
X2330700Y1450534D01*
X2270632Y1648554D01*
X2173085Y1831050D01*
X2041810Y1991010D01*
X1881850Y2122285D01*
X1881848Y2122286D01*
X1881847Y2122287D01*
X1699354Y2219832D01*
X1501327Y2279902D01*
X1295403Y2300183D01*
X1295397Y2300183D01*
X1089472Y2279902D01*
X891445Y2219832D01*
X708952Y2122287D01*
X548990Y1991010D01*
X417713Y1831048D01*
X320168Y1648555D01*
X260098Y1450528D01*
X239817Y1244604D01*
X-189017Y1244604D01*
X-209300Y1450534D01*
X-269368Y1648554D01*
X-366915Y1831050D01*
X-498190Y1991010D01*
X-658150Y2122285D01*
X-658152Y2122286D01*
X-658153Y2122287D01*
X-840646Y2219832D01*
X-1038673Y2279902D01*
X-1244597Y2300183D01*
X-1244603Y2300183D01*
X-1450528Y2279902D01*
X-1648555Y2219832D01*
X-1831048Y2122287D01*
X-1991010Y1991010D01*
X-2122287Y1831048D01*
X-2219832Y1648555D01*
X-2279902Y1450528D01*
X-2300183Y1244604D01*
X-5269017Y1244604D01*
X-5289300Y1450534D01*
X-5349368Y1648554D01*
X-5446915Y1831050D01*
X-5578190Y1991010D01*
X-5738150Y2122285D01*
X-5738152Y2122286D01*
X-5738153Y2122287D01*
X-5920646Y2219832D01*
X-6118673Y2279902D01*
X-6324597Y2300183D01*
X-6324603Y2300183D01*
X-6530528Y2279902D01*
X-6728555Y2219832D01*
X-6911048Y2122287D01*
X-7071010Y1991010D01*
X-7202287Y1831048D01*
X-7299832Y1648555D01*
X-7359902Y1450528D01*
X-7380183Y1244604D01*
X-7809017Y1244604D01*
X-7829300Y1450534D01*
X-7889368Y1648554D01*
X-7986915Y1831050D01*
X-8118190Y1991010D01*
X-8278150Y2122285D01*
X-8278152Y2122286D01*
X-8278153Y2122287D01*
X-8460646Y2219832D01*
X-8658673Y2279902D01*
X-8864597Y2300183D01*
X-8864603Y2300183D01*
X-9070528Y2279902D01*
X-9268555Y2219832D01*
X-9451048Y2122287D01*
X-9611010Y1991010D01*
X-9742287Y1831048D01*
X-9839832Y1648555D01*
X-9899902Y1450528D01*
X-9920183Y1244604D01*
X-10349017Y1244604D01*
X-10369300Y1450534D01*
X-10429368Y1648554D01*
X-10526915Y1831050D01*
X-10658190Y1991010D01*
X-10818150Y2122285D01*
X-10818152Y2122286D01*
X-10818153Y2122287D01*
X-11000646Y2219832D01*
X-11198673Y2279902D01*
X-11404597Y2300183D01*
X-11404603Y2300183D01*
X-11610528Y2279902D01*
X-11808555Y2219832D01*
X-11991048Y2122287D01*
X-12151010Y1991010D01*
X-12282287Y1831048D01*
X-12379832Y1648555D01*
X-12439902Y1450528D01*
X-12460183Y1244604D01*
X-19924500Y1244604D01*
X-19924500Y1996461D01*
X-19924302Y2003526D01*
X-19923657Y2015018D01*
X-19906508Y2320380D01*
X-19904926Y2334415D01*
X-19879889Y2481775D01*
X-19852361Y2643795D01*
X-19849222Y2657549D01*
X-19762344Y2959112D01*
X-19757683Y2972432D01*
X-19637584Y3262374D01*
X-19631470Y3275070D01*
X-19479665Y3549742D01*
X-19472155Y3561693D01*
X-19290554Y3817635D01*
X-19281756Y3828667D01*
X-19072649Y4062659D01*
X-19062658Y4072649D01*
X-18828667Y4281756D01*
X-18817635Y4290554D01*
X-18561687Y4472159D01*
X-18549742Y4479665D01*
X-18275070Y4631470D01*
X-18262374Y4637584D01*
X-17972432Y4757683D01*
X-17959112Y4762344D01*
X-17657549Y4849222D01*
X-17643795Y4852361D01*
X-17334414Y4904927D01*
X-17320380Y4906508D01*
X-17003526Y4924303D01*
X-16996461Y4924500D01*
X-16975469Y4924500D01*
X16975469Y4924500D01*
X16996461Y4924500D01*
X17003525Y4924303D01*
G37*
G04 #@! TD.AperFunction*
M02*
