G04 #@! TF.GenerationSoftware,KiCad,Pcbnew,8.0.4*
G04 #@! TF.CreationDate,2025-02-25T17:16:13+05:30*
G04 #@! TF.ProjectId,P-1000101_Cicada WiSun,502d3130-3030-4313-9031-5f4369636164,0.1*
G04 #@! TF.SameCoordinates,PX7cee6c0PY3dfd240*
G04 #@! TF.FileFunction,Copper,L4,Bot*
G04 #@! TF.FilePolarity,Positive*
%FSLAX46Y46*%
G04 Gerber Fmt 4.6, Leading zero omitted, Abs format (unit mm)*
G04 Created by KiCad (PCBNEW 8.0.4) date 2025-02-25 17:16:13*
%MOMM*%
%LPD*%
G01*
G04 APERTURE LIST*
G04 Aperture macros list*
%AMRoundRect*
0 Rectangle with rounded corners*
0 $1 Rounding radius*
0 $2 $3 $4 $5 $6 $7 $8 $9 X,Y pos of 4 corners*
0 Add a 4 corners polygon primitive as box body*
4,1,4,$2,$3,$4,$5,$6,$7,$8,$9,$2,$3,0*
0 Add four circle primitives for the rounded corners*
1,1,$1+$1,$2,$3*
1,1,$1+$1,$4,$5*
1,1,$1+$1,$6,$7*
1,1,$1+$1,$8,$9*
0 Add four rect primitives between the rounded corners*
20,1,$1+$1,$2,$3,$4,$5,0*
20,1,$1+$1,$4,$5,$6,$7,0*
20,1,$1+$1,$6,$7,$8,$9,0*
20,1,$1+$1,$8,$9,$2,$3,0*%
G04 Aperture macros list end*
G04 #@! TA.AperFunction,ComponentPad*
%ADD10R,1.600000X1.600000*%
G04 #@! TD*
G04 #@! TA.AperFunction,ComponentPad*
%ADD11C,1.600000*%
G04 #@! TD*
G04 #@! TA.AperFunction,ComponentPad*
%ADD12C,0.500000*%
G04 #@! TD*
G04 #@! TA.AperFunction,ComponentPad*
%ADD13C,5.500000*%
G04 #@! TD*
G04 #@! TA.AperFunction,SMDPad,CuDef*
%ADD14RoundRect,0.218750X0.218750X0.256250X-0.218750X0.256250X-0.218750X-0.256250X0.218750X-0.256250X0*%
G04 #@! TD*
G04 #@! TA.AperFunction,ComponentPad*
%ADD15O,1.700000X1.700000*%
G04 #@! TD*
G04 #@! TA.AperFunction,ComponentPad*
%ADD16R,1.700000X1.700000*%
G04 #@! TD*
G04 #@! TA.AperFunction,SMDPad,CuDef*
%ADD17C,1.500000*%
G04 #@! TD*
G04 #@! TA.AperFunction,SMDPad,CuDef*
%ADD18RoundRect,0.147500X-0.172500X0.147500X-0.172500X-0.147500X0.172500X-0.147500X0.172500X0.147500X0*%
G04 #@! TD*
G04 #@! TA.AperFunction,SMDPad,CuDef*
%ADD19RoundRect,0.147500X0.172500X-0.147500X0.172500X0.147500X-0.172500X0.147500X-0.172500X-0.147500X0*%
G04 #@! TD*
G04 #@! TA.AperFunction,SMDPad,CuDef*
%ADD20RoundRect,0.147500X-0.147500X-0.172500X0.147500X-0.172500X0.147500X0.172500X-0.147500X0.172500X0*%
G04 #@! TD*
G04 #@! TA.AperFunction,SMDPad,CuDef*
%ADD21C,0.500000*%
G04 #@! TD*
G04 #@! TA.AperFunction,SMDPad,CuDef*
%ADD22RoundRect,0.147500X0.147500X0.172500X-0.147500X0.172500X-0.147500X-0.172500X0.147500X-0.172500X0*%
G04 #@! TD*
G04 #@! TA.AperFunction,SMDPad,CuDef*
%ADD23RoundRect,0.243750X0.243750X0.456250X-0.243750X0.456250X-0.243750X-0.456250X0.243750X-0.456250X0*%
G04 #@! TD*
G04 #@! TA.AperFunction,SMDPad,CuDef*
%ADD24RoundRect,0.218750X-0.218750X-0.256250X0.218750X-0.256250X0.218750X0.256250X-0.218750X0.256250X0*%
G04 #@! TD*
G04 #@! TA.AperFunction,SMDPad,CuDef*
%ADD25R,1.100000X0.600000*%
G04 #@! TD*
G04 #@! TA.AperFunction,ViaPad*
%ADD26C,0.500000*%
G04 #@! TD*
G04 #@! TA.AperFunction,Conductor*
%ADD27C,1.200000*%
G04 #@! TD*
G04 #@! TA.AperFunction,Conductor*
%ADD28C,0.200000*%
G04 #@! TD*
G04 #@! TA.AperFunction,Conductor*
%ADD29C,0.250000*%
G04 #@! TD*
G04 #@! TA.AperFunction,Conductor*
%ADD30C,0.400000*%
G04 #@! TD*
G04 #@! TA.AperFunction,Conductor*
%ADD31C,0.195000*%
G04 #@! TD*
G04 APERTURE END LIST*
D10*
X16222860Y-33962340D03*
D11*
X12722860Y-33962340D03*
D10*
X4780400Y-30457140D03*
D11*
X8280400Y-30457140D03*
D10*
X4739760Y-21798280D03*
D11*
X8239760Y-21798280D03*
D10*
X4815840Y-39116000D03*
D11*
X8315840Y-39116000D03*
D10*
X16202540Y-25318720D03*
D11*
X12702540Y-25318720D03*
D12*
X-7375000Y-30640000D03*
X-7350000Y-31900000D03*
X-7350000Y-33160000D03*
X-6310000Y-29575000D03*
X-6310000Y-30640000D03*
X-6310000Y-31900000D03*
X-6310000Y-33160000D03*
X-6310000Y-34225000D03*
X-5050000Y-29575000D03*
X-5050000Y-30640000D03*
X-5050000Y-31900000D03*
X-5050000Y-33160000D03*
X-5050000Y-34225000D03*
X-3790000Y-29575000D03*
X-3790000Y-30640000D03*
X-3790000Y-31900000D03*
X-3790000Y-33160000D03*
X-3790000Y-34225000D03*
X-2725000Y-30640000D03*
X-2725000Y-31900000D03*
X-2725000Y-33160000D03*
D13*
X17030000Y-57000000D03*
X-17013750Y-57000000D03*
D14*
X-9837488Y-4460000D03*
X-11412488Y-4460000D03*
D15*
X11455400Y1244600D03*
X-11404600Y1244600D03*
X11455400Y-1295400D03*
D16*
X-11404600Y-1295400D03*
D15*
X-8864600Y-1295400D03*
X-8864600Y1244600D03*
X-6324600Y-1295400D03*
X-6324600Y1244600D03*
X-3784600Y-1295400D03*
X-3784600Y1244600D03*
X-1244600Y-1295400D03*
X-1244600Y1244600D03*
X1295400Y-1295400D03*
X1295400Y1244600D03*
X3835400Y-1295400D03*
X3835400Y1244600D03*
X6375400Y-1295400D03*
X6375400Y1244600D03*
X8915400Y-1295400D03*
X8915400Y1244600D03*
D17*
X9600000Y-8870000D03*
D14*
X-9857500Y-6070000D03*
X-11432500Y-6070000D03*
D17*
X14490000Y-17470000D03*
D18*
X370000Y-30600000D03*
X370000Y-31570000D03*
D19*
X-8480000Y-33145000D03*
X-8480000Y-32175000D03*
X250000Y-34985000D03*
X250000Y-34015000D03*
D18*
X-430000Y-13415000D03*
X-430000Y-14385000D03*
D20*
X-695000Y-36390000D03*
X275000Y-36390000D03*
D21*
X-16750000Y1750000D03*
D17*
X-690000Y-11150000D03*
D19*
X350000Y-29625000D03*
X350000Y-28655000D03*
D17*
X17430000Y-15680000D03*
D21*
X15550000Y1770000D03*
D17*
X4500000Y-16750000D03*
D22*
X-7255000Y-28350000D03*
X-8225000Y-28350000D03*
D23*
X-6282500Y-22320000D03*
X-8157500Y-22320000D03*
D21*
X13010000Y-57090000D03*
D22*
X-7300000Y-26550000D03*
X-8270000Y-26550000D03*
D24*
X-5927500Y-28140000D03*
X-4352500Y-28140000D03*
D18*
X-8480000Y-34605000D03*
X-8480000Y-35575000D03*
X-10910000Y-33520000D03*
X-10910000Y-34490000D03*
D17*
X8250000Y-14750000D03*
X8450000Y-11420000D03*
D21*
X-12200000Y-55900000D03*
D19*
X-12210000Y-34475000D03*
X-12210000Y-33505000D03*
D14*
X-8212500Y-24150000D03*
X-9787500Y-24150000D03*
D19*
X-9500000Y-32395000D03*
X-9500000Y-31425000D03*
D25*
X-2180000Y-36420000D03*
X-2180000Y-37820000D03*
D22*
X-9245000Y-26560000D03*
X-10215000Y-26560000D03*
D20*
X-695000Y-37790000D03*
X275000Y-37790000D03*
D18*
X-1500000Y-13430000D03*
X-1500000Y-14400000D03*
D26*
X10000000Y-22000000D03*
X-17610000Y-44990000D03*
X-16000000Y-53000000D03*
X500000Y-14000000D03*
X15320000Y-9680000D03*
X-8000000Y-53000000D03*
X-10774414Y-35395586D03*
X19000000Y-36000000D03*
X-11000000Y-28000000D03*
X13716000Y-48260000D03*
X-310000Y-40790000D03*
X-3000000Y-12000000D03*
X10000000Y-37000000D03*
X10000000Y-42500000D03*
X-17000000Y-27000000D03*
X-5000000Y-53090000D03*
X-17000000Y-25000000D03*
X-15610000Y-46390000D03*
X-14000000Y-53000000D03*
X13000000Y-59000000D03*
X-1020000Y-53980000D03*
X-5550000Y-43010000D03*
X-15610000Y-43390000D03*
X10000000Y-28000000D03*
X-9000000Y-55000000D03*
X19000000Y-30000000D03*
X-15000000Y-30000000D03*
X12000000Y-4000000D03*
X-13000000Y-25000000D03*
X15000000Y-54000000D03*
X-7000000Y-8000000D03*
X-10000000Y-57000000D03*
X-12000000Y-53000000D03*
X-19380000Y-43500000D03*
X-7100681Y-39494066D03*
X1250000Y-42250000D03*
X8000000Y-35500000D03*
X7970000Y-34230000D03*
X-17000000Y-23000000D03*
X1250000Y-45250000D03*
X15040000Y-14960000D03*
X-5000000Y4000000D03*
X-17000000Y-5000000D03*
X14000000Y-28000000D03*
X13000000Y-54000000D03*
X1250000Y-53250000D03*
X19000000Y-12000000D03*
X15000000Y0D03*
X14000000Y-22500000D03*
X8250000Y-26500000D03*
X1850000Y-33490000D03*
X-3930000Y-47630000D03*
X-8000000Y-57000000D03*
X-11000000Y-8000000D03*
X1750000Y-19250000D03*
X-17000000Y-29000000D03*
X-15000000Y-4000000D03*
X-13000000Y-9000000D03*
X-19000000Y0D03*
X12240000Y-6760000D03*
X-10000000Y-53000000D03*
X3000000Y-59000000D03*
X-17000000Y-1000000D03*
X-12740000Y-42950000D03*
X-11000000Y4000000D03*
X10000000Y-5000000D03*
X1000000Y-4000000D03*
X-7000000Y-4000000D03*
X-11000000Y-22000000D03*
X13716000Y-49530000D03*
X-19000000Y-24000000D03*
X-19000000Y-28000000D03*
X-1515000Y-58840000D03*
X-17000000Y4000000D03*
X-19000000Y2000000D03*
X-13000000Y-59000000D03*
X-19000000Y-8000000D03*
X3000000Y-5000000D03*
X1250000Y-43750000D03*
X19000000Y-18000000D03*
X-8275000Y-13225000D03*
X-15000000Y-8000000D03*
X19000000Y-33000000D03*
X-13660000Y-46670000D03*
X-15000000Y-6000000D03*
X10000000Y-15000000D03*
X-5590000Y-38570000D03*
X-13000000Y-29000000D03*
X-15000000Y-2000000D03*
X1250000Y-48250000D03*
X-5720000Y-57340000D03*
X9000000Y-59000000D03*
X-3000000Y4000000D03*
X1250000Y-49750000D03*
X-18000000Y-53000000D03*
X1250000Y-46750000D03*
X8240000Y-6760000D03*
X-19000000Y-2000000D03*
X-4465000Y-58840000D03*
X10000000Y-40000000D03*
X-17000000Y-9000000D03*
X8000000Y-20000000D03*
X-9140000Y-37790000D03*
X19000000Y-24000000D03*
X-13000000Y-27000000D03*
X1000000Y-59000000D03*
X19000000Y-42000000D03*
X-5000000Y-7000000D03*
X1250000Y-40750000D03*
X15000000Y-4000000D03*
X-11570000Y-35400000D03*
X-13000000Y-55000000D03*
X19000000Y-54000000D03*
X5000000Y-59000000D03*
X1750000Y-14500000D03*
X1250000Y-51500000D03*
X-1244600Y-4244600D03*
X-19000000Y-30000000D03*
X12000000Y-29500000D03*
X-15000000Y-26000000D03*
X8000000Y-4000000D03*
X11000000Y-59000000D03*
X17000000Y-7000000D03*
X-11000000Y-24000000D03*
X1850000Y-36520000D03*
X17000000Y-44000000D03*
X14000000Y-36000000D03*
X9000000Y-54000000D03*
X-7000000Y-6000000D03*
X10000000Y-18000000D03*
X1750000Y-17750000D03*
X-8840000Y-41480000D03*
X11000000Y-54000000D03*
X14000000Y-19500000D03*
X1750000Y-16000000D03*
X-11000000Y-55000000D03*
X-13890000Y-40970000D03*
X-4000000Y-11000000D03*
X-13000000Y4000000D03*
X19000000Y-39000000D03*
X-390000Y-57340000D03*
X14000000Y-31000000D03*
X-15000000Y-28000000D03*
X10000000Y-34000000D03*
X10000000Y-25000000D03*
X-3629500Y-20529500D03*
X-10900000Y-37210000D03*
X-3960000Y-46560000D03*
X5000000Y-54000000D03*
X17000000Y-3000000D03*
X4240000Y-6760000D03*
X-5000000Y-9000000D03*
X2240000Y-6760000D03*
X-19000000Y-10000000D03*
X-13000000Y-23000000D03*
X7000000Y-59000000D03*
X14000000Y-6000000D03*
X2000000Y3000000D03*
X-19000000Y-4000000D03*
X-9000000Y4000000D03*
X14000000Y2000000D03*
X11938000Y-49530000D03*
X-17000000Y-31000000D03*
X5000000Y-4000000D03*
X0Y3000000D03*
X-7000000Y4000000D03*
X19000000Y-15000000D03*
X-4530000Y-42990000D03*
X-11000000Y-59000000D03*
X10000000Y-31000000D03*
X19000000Y-27000000D03*
X-19000000Y-22000000D03*
X15215000Y-7785000D03*
X-15000000Y-24000000D03*
X-11170000Y-32700000D03*
X3000000Y-54000000D03*
X17000000Y1000000D03*
X-550000Y-43130000D03*
X17000000Y-1000000D03*
X-19360000Y-46520000D03*
X10414000Y-49530000D03*
X1250000Y-39250000D03*
X-17000000Y-7000000D03*
X14000000Y-38500000D03*
X-19000000Y-6000000D03*
X-15000000Y4000000D03*
X-19000000Y-26000000D03*
X-2000000Y-7000000D03*
X-1020000Y-46870000D03*
X-5000000Y-5000000D03*
X-125000Y-6125000D03*
X-11000000Y-30000000D03*
X14000000Y-2000000D03*
X-15000000Y1000000D03*
X8000000Y-41250000D03*
X19000000Y-21000000D03*
X14000000Y-9000000D03*
X-9000000Y-59000000D03*
X-17000000Y-3000000D03*
X17000000Y-5000000D03*
X-10620000Y-17150000D03*
X-3940000Y-50080000D03*
X10240000Y-6760000D03*
X7000000Y-54000000D03*
X-4590000Y-50110000D03*
X-9000000Y-9000000D03*
X-15000000Y-22000000D03*
X17430000Y-14200000D03*
X9580000Y-48260000D03*
X3302000Y-24638000D03*
X5080000Y-48768000D03*
X5842000Y-27686000D03*
X3302000Y-35052000D03*
X6604000Y-49784000D03*
X4572000Y-32766000D03*
X-630000Y-30600000D03*
X3556000Y-49784000D03*
X3360000Y-15170000D03*
X5820000Y-17780000D03*
X3302000Y-26162000D03*
X5842000Y-35052000D03*
X4572000Y-19812000D03*
X-10272096Y-32750000D03*
X4572000Y-23876000D03*
X5080000Y-44704000D03*
X3310000Y-17890000D03*
X-7020000Y-27420000D03*
X3556000Y-51816000D03*
X4572000Y-26924000D03*
X3302000Y-27940000D03*
X-7360000Y-25580000D03*
X4572000Y-35814000D03*
X3556000Y-43688000D03*
X19050000Y-52324000D03*
X3556000Y-45720000D03*
X-11030000Y-19070000D03*
X-4450000Y-17990000D03*
X1900000Y-21190000D03*
X9652000Y-51816000D03*
X5820000Y-15080000D03*
X5842000Y-24638000D03*
X5842000Y-36576000D03*
X6604000Y-47752000D03*
X1870000Y-23740000D03*
X8128000Y-48768000D03*
X-5380000Y-40540000D03*
X14986000Y-52324000D03*
X3302000Y-36830000D03*
X4572000Y-25400000D03*
X5080000Y-46736000D03*
X3302000Y-33528000D03*
X5842000Y-33528000D03*
X6604000Y-51816000D03*
X-710000Y-34990000D03*
X3556000Y-47752000D03*
X8128000Y-50800000D03*
X5080000Y-42672000D03*
X3556000Y-41656000D03*
X5842000Y-26162000D03*
X-11300000Y-26560000D03*
X5080000Y-50800000D03*
X17018000Y-52324000D03*
X4572000Y-34290000D03*
X-630000Y-29630000D03*
X16710000Y-12960000D03*
X-19540000Y-13990000D03*
X-8730000Y-20840000D03*
X2155001Y-12944999D03*
X-8440000Y-27500000D03*
X-4065399Y-36123429D03*
X-3385897Y-36123929D03*
X-9976932Y-33504647D03*
X-4773000Y-36090000D03*
X-5580000Y-37760000D03*
X-12240000Y-36010000D03*
X-12983000Y-31770480D03*
X-5240000Y-48500000D03*
X-12598629Y-32350342D03*
X-2432500Y-48637500D03*
X-3270000Y-17720000D03*
X-3100000Y-27239500D03*
X-2380000Y-27260000D03*
X-1500000Y-16500000D03*
X10700000Y-11470000D03*
X18035000Y-10405000D03*
X6270000Y-10430000D03*
X-400000Y-20000000D03*
X-9500000Y-20000000D03*
X-19500000Y-19070000D03*
X-710000Y-28760000D03*
X-1700000Y-18800000D03*
X-9300000Y-18700000D03*
X-19490000Y-17800000D03*
X-1750000Y-28000000D03*
X-19520000Y-16530000D03*
X-9320000Y-17460000D03*
X-9330000Y-16420000D03*
X-19540000Y-15290000D03*
X-7500000Y-15300000D03*
X-590000Y-32130000D03*
X-5450000Y-14075000D03*
X-7980000Y-10620000D03*
X-17360000Y-11400000D03*
X-600000Y-31370000D03*
X-6470000Y-14650000D03*
X-4470000Y-26670000D03*
X1569500Y-26600000D03*
X-13510000Y-31290000D03*
X-5980000Y-48690000D03*
X-8180500Y-25470000D03*
X-9395353Y-34674647D03*
X-9380000Y-33180000D03*
X-6300000Y-26140000D03*
D27*
X11213040Y-6760000D02*
X12240000Y-6760000D01*
X8942280Y-6760000D02*
X10240000Y-6760000D01*
X14027360Y-6760000D02*
X14080000Y-6760000D01*
X15320000Y-9206240D02*
X15320000Y-9680000D01*
X15215000Y-7785000D02*
X15320000Y-7890000D01*
X15320000Y-9680000D02*
X15320000Y-11300000D01*
X8240000Y-6760000D02*
X8942280Y-6760000D01*
X10240000Y-6760000D02*
X10740000Y-6760000D01*
X12240000Y-6760000D02*
X13740000Y-6760000D01*
X13740000Y-6760000D02*
X14027360Y-6760000D01*
X4240000Y-6760000D02*
X2240000Y-6760000D01*
D28*
X-4460000Y-27780000D02*
X-4420000Y-27820000D01*
D27*
X15140000Y-7710000D02*
X15215000Y-7785000D01*
X-1244600Y-5005400D02*
X-1244600Y-4244600D01*
X-1244600Y-4244600D02*
X-1244600Y-1295400D01*
X1240000Y-6760000D02*
X510000Y-6760000D01*
X8240000Y-6760000D02*
X4240000Y-6760000D01*
X15320000Y-7890000D02*
X15320000Y-9206240D01*
X14190000Y-6760000D02*
X15140000Y-7710000D01*
X10740000Y-6760000D02*
X11213040Y-6760000D01*
X-125000Y-6125000D02*
X-1244600Y-5005400D01*
X510000Y-6760000D02*
X-125000Y-6125000D01*
X14080000Y-6760000D02*
X14190000Y-6760000D01*
X2240000Y-6760000D02*
X1240000Y-6760000D01*
X15320000Y-11300000D02*
X15320000Y-14982200D01*
D29*
X-8757920Y2799080D02*
X-11638280Y2799080D01*
X-8757920Y1351280D02*
X-8757920Y2799080D01*
X-8864600Y1244600D02*
X-8757920Y1351280D01*
X-12893040Y1544320D02*
X-12893040Y-4036960D01*
X-12470000Y-4460000D02*
X-11109988Y-4460000D01*
X-12893040Y-4036960D02*
X-12470000Y-4460000D01*
X-11638280Y2799080D02*
X-12893040Y1544320D01*
X-5750560Y1818640D02*
X-5750560Y2667000D01*
X-13343049Y-5036951D02*
X-12310000Y-6070000D01*
X-13343049Y1730721D02*
X-13343049Y-5036951D01*
X-12310000Y-6070000D02*
X-11432500Y-6070000D01*
X-6606970Y3249090D02*
X-11824680Y3249090D01*
X-6324600Y1244600D02*
X-5750560Y1818640D01*
X-6329680Y3246120D02*
X-6604000Y3246120D01*
X-11824680Y3249090D02*
X-13343049Y1730721D01*
X-6604000Y3246120D02*
X-6606970Y3249090D01*
X-5750560Y2667000D02*
X-6329680Y3246120D01*
D30*
X16327120Y-41838880D02*
X16327120Y-37099240D01*
X18860001Y-10730999D02*
X18860001Y-10764001D01*
X18034000Y-35392360D02*
X18034000Y-17624000D01*
X18860001Y-10764001D02*
X17873962Y-11750040D01*
X-1244600Y4075400D02*
X-795010Y4524990D01*
X12938040Y-42500000D02*
X15666000Y-42500000D01*
X10609580Y-43075860D02*
X10909300Y-42776140D01*
X16995700Y4524990D02*
X17066300Y4523700D01*
X-1244600Y1244600D02*
X-1244600Y4075400D01*
X10032120Y-47807880D02*
X10609580Y-47807880D01*
X17066300Y4523700D02*
X19050000Y2540000D01*
X19050000Y-10541000D02*
X18860001Y-10730999D01*
X9580000Y-48260000D02*
X10032120Y-47807880D01*
X18034000Y-17624000D02*
X17430000Y-17020000D01*
X10609580Y-47807880D02*
X10609580Y-43075860D01*
X17430000Y-14250000D02*
X17430000Y-15680000D01*
X19050000Y2540000D02*
X19050000Y-10541000D01*
X-795010Y4524990D02*
X16995700Y4524990D01*
X15666000Y-42500000D02*
X16327120Y-41838880D01*
X12661900Y-42776140D02*
X12938040Y-42500000D01*
X17873962Y-13806038D02*
X17430000Y-14250000D01*
X17430000Y-17020000D02*
X17430000Y-15680000D01*
X17873962Y-11750040D02*
X17873962Y-13806038D01*
X10909300Y-42776140D02*
X12661900Y-42776140D01*
X16327120Y-37099240D02*
X18034000Y-35392360D01*
D27*
X16222860Y-33962340D02*
X16222860Y-18002860D01*
X12590000Y-9610000D02*
X11850000Y-8870000D01*
X11850000Y-8870000D02*
X9600000Y-8870000D01*
X-2050000Y-8870000D02*
X-3784600Y-7135400D01*
X9600000Y-8870000D02*
X-2050000Y-8870000D01*
X13230000Y-17470000D02*
X12590000Y-16830000D01*
X16222860Y-18002860D02*
X15690000Y-17470000D01*
X-3784600Y-7135400D02*
X-3784600Y-1295400D01*
X15690000Y-17470000D02*
X14490000Y-17470000D01*
X14490000Y-17470000D02*
X13230000Y-17470000D01*
X12590000Y-16830000D02*
X12590000Y-9610000D01*
D31*
X-6700000Y-28400000D02*
X-6187500Y-28400000D01*
D30*
X4500000Y-16310000D02*
X3360000Y-15170000D01*
D28*
X-710000Y-34990000D02*
X245000Y-34990000D01*
D31*
X-10272096Y-32750000D02*
X-10220000Y-32750000D01*
X-10215000Y-26560000D02*
X-11300000Y-26560000D01*
D28*
X225000Y-30600000D02*
X360000Y-30735000D01*
D30*
X4790000Y-16750000D02*
X5820000Y-17780000D01*
X4500000Y-16750000D02*
X4450000Y-16750000D01*
D31*
X-9865000Y-32395000D02*
X-9500000Y-32395000D01*
D30*
X4500000Y-16400000D02*
X5820000Y-15080000D01*
X4500000Y-16750000D02*
X4500000Y-16310000D01*
D31*
X-7020000Y-27420000D02*
X-6700000Y-27740000D01*
D28*
X245000Y-34990000D02*
X250000Y-34985000D01*
D31*
X-7255000Y-28350000D02*
X-7205000Y-28400000D01*
D30*
X4500000Y-16750000D02*
X4500000Y-16400000D01*
D31*
X-6187500Y-28400000D02*
X-5927500Y-28140000D01*
D30*
X4500000Y-16750000D02*
X4790000Y-16750000D01*
X4450000Y-16750000D02*
X3310000Y-17890000D01*
D28*
X-630000Y-30600000D02*
X225000Y-30600000D01*
D31*
X-6700000Y-27740000D02*
X-6700000Y-28400000D01*
X-7205000Y-28400000D02*
X-6700000Y-28400000D01*
X-10220000Y-32750000D02*
X-9865000Y-32395000D01*
D28*
X-630000Y-29630000D02*
X345000Y-29630000D01*
X345000Y-29630000D02*
X350000Y-29625000D01*
D30*
X-9070000Y-4460000D02*
X-9837488Y-4460000D01*
X-9070000Y-5600000D02*
X-9540000Y-6070000D01*
X-8360000Y-1800000D02*
X-8360000Y-4320000D01*
X-8360000Y-4320000D02*
X-9070000Y-5030000D01*
X-8864600Y-1295400D02*
X-8360000Y-1800000D01*
X-9540000Y-6070000D02*
X-9857500Y-6070000D01*
X-9070000Y-5030000D02*
X-9070000Y-5600000D01*
X-9070000Y-5030000D02*
X-9070000Y-4460000D01*
D31*
X-8440000Y-27500000D02*
X-8700000Y-27500000D01*
D30*
X9350000Y3324970D02*
X16567946Y3324970D01*
D31*
X-8700000Y-27500000D02*
X-9245000Y-26955000D01*
X-8440000Y-27500000D02*
X-8250000Y-27500000D01*
D30*
X8915400Y1244600D02*
X8915400Y2890370D01*
D31*
X-9245000Y-26955000D02*
X-9245000Y-26560000D01*
D30*
X8915400Y2890370D02*
X9350000Y3324970D01*
X16970000Y-9210000D02*
X16700000Y-9480000D01*
X17849980Y-8830000D02*
X17350000Y-8830000D01*
X17350000Y-8830000D02*
X16970000Y-9210000D01*
D31*
X-8250000Y-27500000D02*
X-7300000Y-26550000D01*
D30*
X17849980Y2042936D02*
X17849980Y-8830000D01*
X16567946Y3324970D02*
X17849980Y2042936D01*
X16700000Y-9480000D02*
X16700000Y-12840000D01*
D31*
X-4065399Y-37274601D02*
X-3550000Y-37790000D01*
X-2172500Y-37790000D02*
X-695000Y-37790000D01*
X-4065399Y-36123429D02*
X-4065399Y-37274601D01*
X-3550000Y-37790000D02*
X-2172500Y-37790000D01*
D28*
X-3385897Y-36314103D02*
X-3310000Y-36390000D01*
X-3310000Y-36390000D02*
X-695000Y-36390000D01*
X-3385897Y-36123929D02*
X-3385897Y-36314103D01*
X-9992285Y-33520000D02*
X-10910000Y-33520000D01*
X-9976932Y-33504647D02*
X-9992285Y-33520000D01*
D31*
X-4773000Y-36090000D02*
X-4773000Y-37463000D01*
X-5070000Y-37760000D02*
X-5580000Y-37760000D01*
X-4773000Y-37463000D02*
X-5070000Y-37760000D01*
D28*
X-12240000Y-34505000D02*
X-12210000Y-34475000D01*
X-12240000Y-36010000D02*
X-12240000Y-34505000D01*
X-12983000Y-31770480D02*
X-14120000Y-32907481D01*
X-14120000Y-39380000D02*
X-5240000Y-48260000D01*
X-14120000Y-32907481D02*
X-14120000Y-39380000D01*
X-5240000Y-48260000D02*
X-5240000Y-48500000D01*
X-12598629Y-32350342D02*
X-13025460Y-32350342D01*
X-13025460Y-32350342D02*
X-13740000Y-33064882D01*
X-4325098Y-48637500D02*
X-2432500Y-48637500D01*
X-13740000Y-33064882D02*
X-13740000Y-39222598D01*
X-13740000Y-39222598D02*
X-4325098Y-48637500D01*
X-420000Y-17110000D02*
X-420000Y-14395000D01*
X-420000Y-14395000D02*
X-430000Y-14385000D01*
X-1030000Y-17720000D02*
X-420000Y-17110000D01*
X-3270000Y-17720000D02*
X-1030000Y-17720000D01*
X-1500000Y-16500000D02*
X-1500000Y-14400000D01*
D30*
X950000Y-11430000D02*
X-430000Y-12810000D01*
X16816478Y3924980D02*
X18449990Y2291468D01*
X3835400Y1244600D02*
X3835400Y3060380D01*
X18449990Y-9990010D02*
X18060000Y-10380000D01*
X10660000Y-11430000D02*
X950000Y-11430000D01*
X-430000Y-12810000D02*
X-430000Y-13415000D01*
X3835400Y3060380D02*
X4700000Y3924980D01*
X18449990Y2291468D02*
X18449990Y-9990010D01*
X4700000Y3924980D02*
X16816478Y3924980D01*
X-1500000Y-12010000D02*
X-1500000Y-13430000D01*
X80000Y-10430000D02*
X-1500000Y-12010000D01*
X6270000Y-10430000D02*
X80000Y-10430000D01*
D28*
X-400000Y-20000000D02*
X-9500000Y-20000000D01*
X-1700000Y-18800000D02*
X-1770000Y-18730000D01*
X-1770000Y-18730000D02*
X-9300000Y-18730000D01*
X-6460000Y-10620000D02*
X-7980000Y-10620000D01*
X-6470000Y-14350466D02*
X-6460000Y-14340466D01*
X-16580000Y-10620000D02*
X-17360000Y-11400000D01*
X-7980000Y-10620000D02*
X-16580000Y-10620000D01*
X-6470000Y-14650000D02*
X-6470000Y-14350466D01*
X-6460000Y-14340466D02*
X-6460000Y-10620000D01*
X1499500Y-26670000D02*
X-4470000Y-26670000D01*
X1569500Y-26600000D02*
X1499500Y-26670000D01*
X-14500000Y-32280000D02*
X-14500000Y-39610466D01*
X-13510000Y-31290000D02*
X-14500000Y-32280000D01*
X-5990000Y-48120466D02*
X-5990000Y-48680000D01*
X-5990000Y-48680000D02*
X-5980000Y-48690000D01*
X-14500000Y-39610466D02*
X-5990000Y-48120466D01*
X-8180500Y-24890500D02*
X-8150000Y-24860000D01*
X-8549647Y-34674647D02*
X-8480000Y-34605000D01*
X-8515000Y-33180000D02*
X-8480000Y-33145000D01*
X-8180500Y-25470000D02*
X-8180500Y-24890500D01*
X-9380000Y-33180000D02*
X-8515000Y-33180000D01*
X-8150000Y-24860000D02*
X-8150000Y-22327500D01*
X-9395353Y-34674647D02*
X-8549647Y-34674647D01*
X-8150000Y-22327500D02*
X-8157500Y-22320000D01*
X-6300000Y-26140000D02*
X-6290000Y-26130000D01*
X-6290000Y-25272500D02*
X-6277500Y-25260000D01*
X-6277500Y-25260000D02*
X-6277500Y-22325000D01*
X-6290000Y-26130000D02*
X-6290000Y-25272500D01*
X-6277500Y-22325000D02*
X-6282500Y-22320000D01*
G04 #@! TA.AperFunction,Conductor*
G36*
X-1197963Y4904498D02*
G01*
X-1151470Y4850842D01*
X-1141366Y4780568D01*
X-1170860Y4715988D01*
X-1176989Y4709405D01*
X-1565075Y4321320D01*
X-1565083Y4321310D01*
X-1617805Y4229993D01*
X-1617807Y4229989D01*
X-1617807Y4229988D01*
X-1639847Y4147731D01*
X-1645100Y4128127D01*
X-1645100Y2297200D01*
X-1665102Y2229079D01*
X-1711703Y2186078D01*
X-1831049Y2122286D01*
X-1991010Y1991010D01*
X-2122287Y1831048D01*
X-2219832Y1648555D01*
X-2279902Y1450528D01*
X-2300183Y1244604D01*
X-2300183Y1244597D01*
X-2279902Y1038673D01*
X-2279901Y1038667D01*
X-2279900Y1038666D01*
X-2219832Y840646D01*
X-2122285Y658150D01*
X-1991010Y498190D01*
X-1831050Y366915D01*
X-1648554Y269368D01*
X-1450534Y209300D01*
X-1450530Y209300D01*
X-1450528Y209299D01*
X-1244603Y189017D01*
X-1244600Y189017D01*
X-1244597Y189017D01*
X-1038673Y209299D01*
X-1038672Y209300D01*
X-1038666Y209300D01*
X-840646Y269368D01*
X-658150Y366915D01*
X-498190Y498190D01*
X-366915Y658150D01*
X-269368Y840646D01*
X-209300Y1038666D01*
X-189017Y1244600D01*
X-189017Y1244604D01*
X239817Y1244604D01*
X239817Y1244597D01*
X260098Y1038673D01*
X260099Y1038667D01*
X260100Y1038666D01*
X320168Y840646D01*
X417715Y658150D01*
X548990Y498190D01*
X708950Y366915D01*
X891446Y269368D01*
X1089466Y209300D01*
X1089470Y209300D01*
X1089472Y209299D01*
X1295397Y189017D01*
X1295400Y189017D01*
X1295403Y189017D01*
X1501327Y209299D01*
X1501328Y209300D01*
X1501334Y209300D01*
X1699354Y269368D01*
X1881850Y366915D01*
X2041810Y498190D01*
X2173085Y658150D01*
X2270632Y840646D01*
X2330700Y1038666D01*
X2350983Y1244600D01*
X2350983Y1244604D01*
X2330701Y1450528D01*
X2330700Y1450530D01*
X2330700Y1450534D01*
X2270632Y1648554D01*
X2173085Y1831050D01*
X2041810Y1991010D01*
X1881850Y2122285D01*
X1881848Y2122286D01*
X1881847Y2122287D01*
X1699354Y2219832D01*
X1695899Y2220880D01*
X1501334Y2279900D01*
X1501333Y2279901D01*
X1501327Y2279902D01*
X1295403Y2300183D01*
X1295397Y2300183D01*
X1089472Y2279902D01*
X891445Y2219832D01*
X708952Y2122287D01*
X548990Y1991010D01*
X417713Y1831048D01*
X320168Y1648555D01*
X260098Y1450528D01*
X239817Y1244604D01*
X-189017Y1244604D01*
X-209299Y1450528D01*
X-209300Y1450530D01*
X-209300Y1450534D01*
X-269368Y1648554D01*
X-366915Y1831050D01*
X-498190Y1991010D01*
X-658150Y2122285D01*
X-777497Y2186078D01*
X-828145Y2235831D01*
X-844100Y2297200D01*
X-844100Y3857317D01*
X-824098Y3925438D01*
X-807195Y3946412D01*
X-666022Y4087585D01*
X-603710Y4121611D01*
X-576927Y4124490D01*
X4028927Y4124490D01*
X4097048Y4104488D01*
X4143541Y4050832D01*
X4153645Y3980558D01*
X4124151Y3915978D01*
X4118035Y3909409D01*
X3885963Y3677336D01*
X3514922Y3306296D01*
X3514917Y3306290D01*
X3462195Y3214973D01*
X3462192Y3214966D01*
X3441110Y3136283D01*
X3434900Y3113108D01*
X3434900Y2297200D01*
X3414898Y2229079D01*
X3368297Y2186078D01*
X3248951Y2122286D01*
X3088990Y1991010D01*
X2957713Y1831048D01*
X2860168Y1648555D01*
X2800098Y1450528D01*
X2779817Y1244604D01*
X2779817Y1244597D01*
X2800098Y1038673D01*
X2800099Y1038667D01*
X2800100Y1038666D01*
X2860168Y840646D01*
X2957715Y658150D01*
X3088990Y498190D01*
X3248950Y366915D01*
X3431446Y269368D01*
X3629466Y209300D01*
X3629470Y209300D01*
X3629472Y209299D01*
X3835397Y189017D01*
X3835400Y189017D01*
X3835403Y189017D01*
X4041327Y209299D01*
X4041328Y209300D01*
X4041334Y209300D01*
X4239354Y269368D01*
X4421850Y366915D01*
X4581810Y498190D01*
X4713085Y658150D01*
X4810632Y840646D01*
X4870700Y1038666D01*
X4890983Y1244600D01*
X4890983Y1244604D01*
X5319817Y1244604D01*
X5319817Y1244597D01*
X5340098Y1038673D01*
X5340099Y1038667D01*
X5340100Y1038666D01*
X5400168Y840646D01*
X5497715Y658150D01*
X5628990Y498190D01*
X5788950Y366915D01*
X5971446Y269368D01*
X6169466Y209300D01*
X6169470Y209300D01*
X6169472Y209299D01*
X6375397Y189017D01*
X6375400Y189017D01*
X6375403Y189017D01*
X6581327Y209299D01*
X6581328Y209300D01*
X6581334Y209300D01*
X6779354Y269368D01*
X6961850Y366915D01*
X7121810Y498190D01*
X7253085Y658150D01*
X7350632Y840646D01*
X7410700Y1038666D01*
X7430983Y1244600D01*
X7430983Y1244604D01*
X7410701Y1450528D01*
X7410700Y1450530D01*
X7410700Y1450534D01*
X7350632Y1648554D01*
X7253085Y1831050D01*
X7121810Y1991010D01*
X6961850Y2122285D01*
X6961848Y2122286D01*
X6961847Y2122287D01*
X6779354Y2219832D01*
X6775899Y2220880D01*
X6581334Y2279900D01*
X6581333Y2279901D01*
X6581327Y2279902D01*
X6375403Y2300183D01*
X6375397Y2300183D01*
X6169472Y2279902D01*
X5971445Y2219832D01*
X5788952Y2122287D01*
X5628990Y1991010D01*
X5497713Y1831048D01*
X5400168Y1648555D01*
X5340098Y1450528D01*
X5319817Y1244604D01*
X4890983Y1244604D01*
X4870701Y1450528D01*
X4870700Y1450530D01*
X4870700Y1450534D01*
X4810632Y1648554D01*
X4713085Y1831050D01*
X4581810Y1991010D01*
X4421850Y2122285D01*
X4302503Y2186078D01*
X4251855Y2235831D01*
X4235900Y2297200D01*
X4235900Y2842297D01*
X4255902Y2910418D01*
X4272805Y2931392D01*
X4828988Y3487575D01*
X4891300Y3521601D01*
X4918083Y3524480D01*
X8678926Y3524480D01*
X8747047Y3504478D01*
X8793540Y3450822D01*
X8803644Y3380548D01*
X8774150Y3315968D01*
X8768021Y3309385D01*
X8594925Y3136290D01*
X8594917Y3136280D01*
X8542195Y3044963D01*
X8542193Y3044958D01*
X8531350Y3004490D01*
X8531350Y3004489D01*
X8531349Y3004490D01*
X8514900Y2943098D01*
X8514900Y2297200D01*
X8494898Y2229079D01*
X8448297Y2186078D01*
X8328951Y2122286D01*
X8168990Y1991010D01*
X8037713Y1831048D01*
X7940168Y1648555D01*
X7880098Y1450528D01*
X7859817Y1244604D01*
X7859817Y1244597D01*
X7880098Y1038673D01*
X7880099Y1038667D01*
X7880100Y1038666D01*
X7940168Y840646D01*
X8037715Y658150D01*
X8168990Y498190D01*
X8328950Y366915D01*
X8511446Y269368D01*
X8709466Y209300D01*
X8709470Y209300D01*
X8709472Y209299D01*
X8915397Y189017D01*
X8915400Y189017D01*
X8915403Y189017D01*
X9121327Y209299D01*
X9121328Y209300D01*
X9121334Y209300D01*
X9319354Y269368D01*
X9501850Y366915D01*
X9661810Y498190D01*
X9793085Y658150D01*
X9890632Y840646D01*
X9950700Y1038666D01*
X9970983Y1244600D01*
X9970983Y1244604D01*
X10399817Y1244604D01*
X10399817Y1244597D01*
X10420098Y1038673D01*
X10420099Y1038667D01*
X10420100Y1038666D01*
X10480168Y840646D01*
X10577715Y658150D01*
X10708990Y498190D01*
X10868950Y366915D01*
X11051446Y269368D01*
X11249466Y209300D01*
X11249470Y209300D01*
X11249472Y209299D01*
X11455397Y189017D01*
X11455400Y189017D01*
X11455403Y189017D01*
X11661327Y209299D01*
X11661328Y209300D01*
X11661334Y209300D01*
X11859354Y269368D01*
X12041850Y366915D01*
X12201810Y498190D01*
X12333085Y658150D01*
X12430632Y840646D01*
X12490700Y1038666D01*
X12510983Y1244600D01*
X12510983Y1244604D01*
X12490701Y1450528D01*
X12490700Y1450530D01*
X12490700Y1450534D01*
X12430632Y1648554D01*
X12365717Y1770000D01*
X15044353Y1770000D01*
X15064835Y1627543D01*
X15124623Y1496627D01*
X15164562Y1450534D01*
X15218873Y1387856D01*
X15249994Y1367856D01*
X15339947Y1310047D01*
X15478039Y1269500D01*
X15621961Y1269500D01*
X15760053Y1310047D01*
X15881128Y1387857D01*
X15975377Y1496627D01*
X16035165Y1627543D01*
X16055647Y1770000D01*
X16035165Y1912457D01*
X15975377Y2043373D01*
X15881128Y2152143D01*
X15881127Y2152144D01*
X15881126Y2152145D01*
X15760053Y2229953D01*
X15621961Y2270500D01*
X15478039Y2270500D01*
X15339946Y2229953D01*
X15218873Y2152145D01*
X15124623Y2043374D01*
X15100710Y1991011D01*
X15064835Y1912457D01*
X15044353Y1770000D01*
X12365717Y1770000D01*
X12333085Y1831050D01*
X12201810Y1991010D01*
X12041850Y2122285D01*
X12041848Y2122286D01*
X12041847Y2122287D01*
X11859354Y2219832D01*
X11855899Y2220880D01*
X11661334Y2279900D01*
X11661333Y2279901D01*
X11661327Y2279902D01*
X11455403Y2300183D01*
X11455397Y2300183D01*
X11249472Y2279902D01*
X11051445Y2219832D01*
X10868952Y2122287D01*
X10708990Y1991010D01*
X10577713Y1831048D01*
X10480168Y1648555D01*
X10420098Y1450528D01*
X10399817Y1244604D01*
X9970983Y1244604D01*
X9950701Y1450528D01*
X9950700Y1450530D01*
X9950700Y1450534D01*
X9890632Y1648554D01*
X9793085Y1831050D01*
X9661810Y1991010D01*
X9501850Y2122285D01*
X9382503Y2186078D01*
X9331855Y2235831D01*
X9315900Y2297200D01*
X9315900Y2672287D01*
X9335902Y2740408D01*
X9352805Y2761382D01*
X9478988Y2887565D01*
X9541300Y2921591D01*
X9568083Y2924470D01*
X16349863Y2924470D01*
X16417984Y2904468D01*
X16438958Y2887565D01*
X17412575Y1913948D01*
X17446601Y1851636D01*
X17449480Y1824853D01*
X17449480Y-8303500D01*
X17429478Y-8371621D01*
X17375822Y-8418114D01*
X17323480Y-8429500D01*
X17297273Y-8429500D01*
X17195412Y-8456793D01*
X17195410Y-8456794D01*
X17195407Y-8456795D01*
X17104090Y-8509517D01*
X17104080Y-8509525D01*
X16379525Y-9234080D01*
X16379517Y-9234090D01*
X16326795Y-9325407D01*
X16326790Y-9325419D01*
X16312088Y-9380287D01*
X16312089Y-9380288D01*
X16299500Y-9427272D01*
X16299500Y-12747001D01*
X16288114Y-12799342D01*
X16273303Y-12831774D01*
X16254867Y-12960000D01*
X16273303Y-13088226D01*
X16327118Y-13206063D01*
X16411951Y-13303967D01*
X16520931Y-13374004D01*
X16645228Y-13410500D01*
X16645232Y-13410500D01*
X16774768Y-13410500D01*
X16774772Y-13410500D01*
X16899069Y-13374004D01*
X17008049Y-13303967D01*
X17092882Y-13206063D01*
X17146697Y-13088226D01*
X17165133Y-12960000D01*
X17146697Y-12831774D01*
X17111885Y-12755548D01*
X17100500Y-12703207D01*
X17100500Y-9698082D01*
X17120502Y-9629961D01*
X17137399Y-9608992D01*
X17215911Y-9530481D01*
X17215913Y-9530480D01*
X17478989Y-9267403D01*
X17541300Y-9233380D01*
X17568083Y-9230500D01*
X17902706Y-9230500D01*
X17902707Y-9230500D01*
X17902707Y-9230499D01*
X17907043Y-9229929D01*
X17910705Y-9230500D01*
X17910965Y-9230500D01*
X17910965Y-9230540D01*
X17977192Y-9240868D01*
X18030291Y-9287996D01*
X18049490Y-9354851D01*
X18049490Y-9771925D01*
X18029488Y-9840046D01*
X18012585Y-9861021D01*
X17920596Y-9953009D01*
X17867003Y-9984808D01*
X17845933Y-9990995D01*
X17845929Y-9990997D01*
X17736949Y-10061033D01*
X17652118Y-10158937D01*
X17598303Y-10276774D01*
X17579867Y-10405000D01*
X17598303Y-10533226D01*
X17652118Y-10651063D01*
X17690696Y-10695585D01*
X17736951Y-10748967D01*
X17812471Y-10797501D01*
X17845931Y-10819004D01*
X17943217Y-10847569D01*
X17945717Y-10848303D01*
X18005443Y-10886686D01*
X18034936Y-10951267D01*
X18024833Y-11021541D01*
X17999314Y-11058294D01*
X17553487Y-11504120D01*
X17553479Y-11504130D01*
X17500757Y-11595447D01*
X17500752Y-11595459D01*
X17487193Y-11646060D01*
X17487194Y-11646061D01*
X17473462Y-11697310D01*
X17473462Y-13587953D01*
X17453460Y-13656074D01*
X17436557Y-13677049D01*
X17386380Y-13727225D01*
X17332784Y-13759025D01*
X17240931Y-13785996D01*
X17240929Y-13785997D01*
X17131949Y-13856033D01*
X17053325Y-13946774D01*
X17047118Y-13953937D01*
X17024212Y-14004095D01*
X16993303Y-14071775D01*
X16974867Y-14200000D01*
X16993303Y-14328227D01*
X16995925Y-14333967D01*
X17018113Y-14382552D01*
X17029500Y-14434894D01*
X17029500Y-14740789D01*
X17009498Y-14808910D01*
X16962897Y-14851911D01*
X16899372Y-14885865D01*
X16754643Y-15004643D01*
X16635864Y-15149374D01*
X16547603Y-15314499D01*
X16547601Y-15314503D01*
X16493253Y-15493665D01*
X16493251Y-15493676D01*
X16474901Y-15679996D01*
X16474901Y-15680003D01*
X16493251Y-15866323D01*
X16493253Y-15866334D01*
X16547601Y-16045496D01*
X16547603Y-16045500D01*
X16600286Y-16144063D01*
X16635864Y-16210625D01*
X16754643Y-16355357D01*
X16865374Y-16446232D01*
X16899376Y-16474137D01*
X16962895Y-16508088D01*
X17013544Y-16557839D01*
X17029500Y-16619210D01*
X17029500Y-16967273D01*
X17029500Y-17072727D01*
X17056793Y-17174588D01*
X17056794Y-17174590D01*
X17056795Y-17174592D01*
X17109517Y-17265909D01*
X17109519Y-17265912D01*
X17109520Y-17265913D01*
X17596596Y-17752989D01*
X17630620Y-17815300D01*
X17633500Y-17842083D01*
X17633500Y-35174276D01*
X17613498Y-35242397D01*
X17596595Y-35263371D01*
X16006645Y-36853320D01*
X16006637Y-36853330D01*
X15953915Y-36944647D01*
X15953910Y-36944659D01*
X15941760Y-36990001D01*
X15941761Y-36990002D01*
X15926620Y-37046510D01*
X15926620Y-41620797D01*
X15906618Y-41688918D01*
X15889715Y-41709892D01*
X15537012Y-42062595D01*
X15474700Y-42096621D01*
X15447917Y-42099500D01*
X12990767Y-42099500D01*
X12885313Y-42099500D01*
X12783452Y-42126793D01*
X12783450Y-42126794D01*
X12783447Y-42126795D01*
X12692130Y-42179517D01*
X12692127Y-42179520D01*
X12532910Y-42338736D01*
X12470601Y-42372760D01*
X12443817Y-42375640D01*
X10962027Y-42375640D01*
X10856573Y-42375640D01*
X10754712Y-42402933D01*
X10754710Y-42402934D01*
X10754707Y-42402935D01*
X10663390Y-42455657D01*
X10663380Y-42455665D01*
X10289105Y-42829940D01*
X10289099Y-42829948D01*
X10236372Y-42921271D01*
X10236371Y-42921274D01*
X10226239Y-42959093D01*
X10226239Y-42959095D01*
X10209080Y-43023134D01*
X10209080Y-47281380D01*
X10189078Y-47349501D01*
X10135422Y-47395994D01*
X10083080Y-47407380D01*
X9979393Y-47407380D01*
X9877532Y-47434673D01*
X9877530Y-47434674D01*
X9877527Y-47434675D01*
X9786210Y-47487397D01*
X9786204Y-47487402D01*
X9465596Y-47808009D01*
X9412003Y-47839808D01*
X9390933Y-47845995D01*
X9390929Y-47845997D01*
X9281949Y-47916033D01*
X9197118Y-48013937D01*
X9143303Y-48131774D01*
X9124867Y-48260000D01*
X9143303Y-48388226D01*
X9197118Y-48506063D01*
X9210873Y-48521937D01*
X9281951Y-48603967D01*
X9334129Y-48637500D01*
X9390931Y-48674004D01*
X9515228Y-48710500D01*
X9515232Y-48710500D01*
X9644768Y-48710500D01*
X9644772Y-48710500D01*
X9769069Y-48674004D01*
X9878049Y-48603967D01*
X9962882Y-48506063D01*
X10006018Y-48411606D01*
X10031533Y-48374858D01*
X10161109Y-48245284D01*
X10223422Y-48211259D01*
X10250204Y-48208380D01*
X10662305Y-48208380D01*
X10662307Y-48208380D01*
X10764167Y-48181087D01*
X10764170Y-48181085D01*
X10764171Y-48181085D01*
X10849578Y-48131775D01*
X10855493Y-48128360D01*
X10930060Y-48053793D01*
X10982787Y-47962467D01*
X11010080Y-47860607D01*
X11010080Y-43302640D01*
X11030082Y-43234519D01*
X11083738Y-43188026D01*
X11136080Y-43176640D01*
X12714625Y-43176640D01*
X12714627Y-43176640D01*
X12816488Y-43149347D01*
X12907813Y-43096620D01*
X13067029Y-42937403D01*
X13129339Y-42903380D01*
X13156123Y-42900500D01*
X15718725Y-42900500D01*
X15718727Y-42900500D01*
X15820588Y-42873207D01*
X15911913Y-42820480D01*
X16647600Y-42084793D01*
X16700327Y-41993468D01*
X16727620Y-41891607D01*
X16727620Y-41786153D01*
X16727620Y-37317323D01*
X16747622Y-37249202D01*
X16764525Y-37228228D01*
X18354474Y-35638279D01*
X18354480Y-35638273D01*
X18407207Y-35546948D01*
X18434500Y-35445087D01*
X18434500Y-35339633D01*
X18434500Y-17571273D01*
X18413412Y-17492571D01*
X18407207Y-17469412D01*
X18407207Y-17469411D01*
X18376728Y-17416621D01*
X18354480Y-17378087D01*
X18354477Y-17378084D01*
X18354474Y-17378080D01*
X17867405Y-16891011D01*
X17833379Y-16828699D01*
X17830500Y-16801916D01*
X17830500Y-16619210D01*
X17850502Y-16551089D01*
X17897105Y-16508088D01*
X17960623Y-16474137D01*
X17960622Y-16474137D01*
X17960625Y-16474136D01*
X18105357Y-16355357D01*
X18224136Y-16210625D01*
X18312396Y-16045501D01*
X18319012Y-16023693D01*
X18366746Y-15866334D01*
X18366748Y-15866323D01*
X18385099Y-15680003D01*
X18385099Y-15679996D01*
X18366748Y-15493676D01*
X18366746Y-15493665D01*
X18312398Y-15314503D01*
X18312396Y-15314499D01*
X18235160Y-15170000D01*
X18224136Y-15149375D01*
X18105357Y-15004643D01*
X18007017Y-14923937D01*
X17960627Y-14885865D01*
X17897103Y-14851911D01*
X17846455Y-14802158D01*
X17830500Y-14740789D01*
X17830500Y-14468083D01*
X17850502Y-14399962D01*
X17867400Y-14378992D01*
X18194442Y-14051951D01*
X18247169Y-13960626D01*
X18274462Y-13858765D01*
X18274462Y-13753311D01*
X18274462Y-11968122D01*
X18294464Y-11900001D01*
X18311362Y-11879031D01*
X19095538Y-11094854D01*
X19095548Y-11094847D01*
X19180474Y-11009921D01*
X19180481Y-11009914D01*
X19217270Y-10946191D01*
X19237288Y-10920103D01*
X19370480Y-10786913D01*
X19423207Y-10695588D01*
X19450500Y-10593727D01*
X19450500Y-10488273D01*
X19450500Y2592727D01*
X19423207Y2694587D01*
X19423205Y2694590D01*
X19423205Y2694592D01*
X19370482Y2785910D01*
X19370478Y2785915D01*
X19358803Y2797590D01*
X19295913Y2860480D01*
X17514021Y4642372D01*
X17479995Y4704684D01*
X17485060Y4775499D01*
X17527607Y4832335D01*
X17594127Y4857146D01*
X17624216Y4855688D01*
X17643794Y4852361D01*
X17657552Y4849221D01*
X17959105Y4762345D01*
X17972436Y4757680D01*
X18262366Y4637587D01*
X18275076Y4631466D01*
X18549733Y4479669D01*
X18561692Y4472155D01*
X18817626Y4290560D01*
X18828673Y4281750D01*
X19062657Y4072649D01*
X19072648Y4062658D01*
X19281749Y3828674D01*
X19290559Y3817627D01*
X19472154Y3561693D01*
X19479671Y3549729D01*
X19614214Y3306290D01*
X19631458Y3275091D01*
X19637589Y3262360D01*
X19757678Y2972440D01*
X19762345Y2959103D01*
X19849218Y2657561D01*
X19852362Y2643785D01*
X19904925Y2334415D01*
X19906507Y2320375D01*
X19924302Y2003526D01*
X19924500Y1996461D01*
X19924500Y-55650730D01*
X19904498Y-55718851D01*
X19850842Y-55765344D01*
X19780568Y-55775448D01*
X19715988Y-55745954D01*
X19682805Y-55700637D01*
X19671136Y-55673586D01*
X19671131Y-55673574D01*
X19499284Y-55375926D01*
X19478045Y-55347397D01*
X19294047Y-55100244D01*
X19058183Y-54850243D01*
X18794897Y-54629321D01*
X18507757Y-54440466D01*
X18507753Y-54440464D01*
X18507750Y-54440462D01*
X18200614Y-54286212D01*
X18200613Y-54286211D01*
X18200610Y-54286210D01*
X17877655Y-54168664D01*
X17877648Y-54168662D01*
X17877647Y-54168662D01*
X17689835Y-54124150D01*
X17543222Y-54089402D01*
X17543212Y-54089400D01*
X17201850Y-54049500D01*
X17201847Y-54049500D01*
X16858153Y-54049500D01*
X16858150Y-54049500D01*
X16516787Y-54089400D01*
X16516777Y-54089402D01*
X16182353Y-54168662D01*
X16182344Y-54168664D01*
X15859389Y-54286210D01*
X15552242Y-54440466D01*
X15265102Y-54629321D01*
X15001816Y-54850243D01*
X14765952Y-55100244D01*
X14560727Y-55375910D01*
X14560709Y-55375937D01*
X14388872Y-55673568D01*
X14388863Y-55673586D01*
X14252741Y-55989151D01*
X14252739Y-55989157D01*
X14154166Y-56318414D01*
X14094483Y-56656891D01*
X14094483Y-56656897D01*
X14074500Y-57000000D01*
X14094483Y-57343102D01*
X14094483Y-57343108D01*
X14117236Y-57472144D01*
X14154166Y-57681585D01*
X14252738Y-58010841D01*
X14388869Y-58326426D01*
X14560716Y-58624074D01*
X14560725Y-58624086D01*
X14560727Y-58624089D01*
X14765952Y-58899755D01*
X15001816Y-59149756D01*
X15265102Y-59370678D01*
X15552242Y-59559533D01*
X15552250Y-59559538D01*
X15803861Y-59685902D01*
X15855759Y-59734350D01*
X15873226Y-59803164D01*
X15850716Y-59870498D01*
X15795376Y-59914973D01*
X15747312Y-59924500D01*
X-15731062Y-59924500D01*
X-15799183Y-59904498D01*
X-15845676Y-59850842D01*
X-15855780Y-59780568D01*
X-15826286Y-59715988D01*
X-15787611Y-59685902D01*
X-15536000Y-59559538D01*
X-15248848Y-59370675D01*
X-14985563Y-59149753D01*
X-14749706Y-58899759D01*
X-14544466Y-58624074D01*
X-14372619Y-58326426D01*
X-14236488Y-58010841D01*
X-14137916Y-57681585D01*
X-14078234Y-57343113D01*
X-14063492Y-57090000D01*
X12504353Y-57090000D01*
X12524835Y-57232457D01*
X12584623Y-57363373D01*
X12678873Y-57472144D01*
X12739409Y-57511048D01*
X12799947Y-57549953D01*
X12938039Y-57590500D01*
X13081961Y-57590500D01*
X13220053Y-57549953D01*
X13341128Y-57472143D01*
X13435377Y-57363373D01*
X13495165Y-57232457D01*
X13515647Y-57090000D01*
X13495165Y-56947543D01*
X13435377Y-56816627D01*
X13341128Y-56707857D01*
X13341127Y-56707856D01*
X13341126Y-56707855D01*
X13220053Y-56630047D01*
X13081961Y-56589500D01*
X12938039Y-56589500D01*
X12799946Y-56630047D01*
X12678873Y-56707855D01*
X12584623Y-56816626D01*
X12584623Y-56816627D01*
X12524835Y-56947543D01*
X12504353Y-57090000D01*
X-14063492Y-57090000D01*
X-14058250Y-57000000D01*
X-14078234Y-56656887D01*
X-14137916Y-56318415D01*
X-14236488Y-55989159D01*
X-14274948Y-55900000D01*
X-12705647Y-55900000D01*
X-12685165Y-56042456D01*
X-12625377Y-56173373D01*
X-12531127Y-56282144D01*
X-12474689Y-56318414D01*
X-12410053Y-56359953D01*
X-12271961Y-56400500D01*
X-12128039Y-56400500D01*
X-11989947Y-56359953D01*
X-11868872Y-56282143D01*
X-11774623Y-56173373D01*
X-11714835Y-56042457D01*
X-11694353Y-55900000D01*
X-11714835Y-55757543D01*
X-11774623Y-55626627D01*
X-11868872Y-55517857D01*
X-11868873Y-55517856D01*
X-11868874Y-55517855D01*
X-11989947Y-55440047D01*
X-12128039Y-55399500D01*
X-12271961Y-55399500D01*
X-12410054Y-55440047D01*
X-12531127Y-55517855D01*
X-12625377Y-55626626D01*
X-12685165Y-55757543D01*
X-12705647Y-55900000D01*
X-14274948Y-55900000D01*
X-14372619Y-55673574D01*
X-14544466Y-55375926D01*
X-14565705Y-55347397D01*
X-14749703Y-55100244D01*
X-14985567Y-54850243D01*
X-15248853Y-54629321D01*
X-15535993Y-54440466D01*
X-15535997Y-54440464D01*
X-15536000Y-54440462D01*
X-15843136Y-54286212D01*
X-15843137Y-54286211D01*
X-15843140Y-54286210D01*
X-16166095Y-54168664D01*
X-16166102Y-54168662D01*
X-16166103Y-54168662D01*
X-16353915Y-54124150D01*
X-16500528Y-54089402D01*
X-16500538Y-54089400D01*
X-16841900Y-54049500D01*
X-16841903Y-54049500D01*
X-17185597Y-54049500D01*
X-17185600Y-54049500D01*
X-17526963Y-54089400D01*
X-17526973Y-54089402D01*
X-17861397Y-54168662D01*
X-17861406Y-54168664D01*
X-18184361Y-54286210D01*
X-18491508Y-54440466D01*
X-18778648Y-54629321D01*
X-19041934Y-54850243D01*
X-19277798Y-55100244D01*
X-19483023Y-55375910D01*
X-19483041Y-55375937D01*
X-19654878Y-55673568D01*
X-19654884Y-55673580D01*
X-19682805Y-55738308D01*
X-19728153Y-55792935D01*
X-19795835Y-55814373D01*
X-19864364Y-55795816D01*
X-19911981Y-55743155D01*
X-19924500Y-55688401D01*
X-19924500Y-52324000D01*
X14530867Y-52324000D01*
X14549303Y-52452226D01*
X14603118Y-52570063D01*
X14687951Y-52667967D01*
X14796931Y-52738004D01*
X14921228Y-52774500D01*
X14921232Y-52774500D01*
X15050768Y-52774500D01*
X15050772Y-52774500D01*
X15175069Y-52738004D01*
X15284049Y-52667967D01*
X15368882Y-52570063D01*
X15422697Y-52452226D01*
X15441133Y-52324000D01*
X16562867Y-52324000D01*
X16581303Y-52452226D01*
X16635118Y-52570063D01*
X16719951Y-52667967D01*
X16828931Y-52738004D01*
X16953228Y-52774500D01*
X16953232Y-52774500D01*
X17082768Y-52774500D01*
X17082772Y-52774500D01*
X17207069Y-52738004D01*
X17316049Y-52667967D01*
X17400882Y-52570063D01*
X17454697Y-52452226D01*
X17473133Y-52324000D01*
X18594867Y-52324000D01*
X18613303Y-52452226D01*
X18667118Y-52570063D01*
X18751951Y-52667967D01*
X18860931Y-52738004D01*
X18985228Y-52774500D01*
X18985232Y-52774500D01*
X19114768Y-52774500D01*
X19114772Y-52774500D01*
X19239069Y-52738004D01*
X19348049Y-52667967D01*
X19432882Y-52570063D01*
X19486697Y-52452226D01*
X19505133Y-52324000D01*
X19486697Y-52195774D01*
X19432882Y-52077937D01*
X19348049Y-51980033D01*
X19348048Y-51980032D01*
X19239073Y-51909998D01*
X19239070Y-51909996D01*
X19239069Y-51909996D01*
X19239066Y-51909995D01*
X19114776Y-51873501D01*
X19114774Y-51873500D01*
X19114772Y-51873500D01*
X18985228Y-51873500D01*
X18985225Y-51873500D01*
X18985223Y-51873501D01*
X18860933Y-51909995D01*
X18860926Y-51909998D01*
X18751951Y-51980032D01*
X18680873Y-52062063D01*
X18667118Y-52077937D01*
X18613303Y-52195774D01*
X18594867Y-52324000D01*
X17473133Y-52324000D01*
X17454697Y-52195774D01*
X17400882Y-52077937D01*
X17316049Y-51980033D01*
X17316048Y-51980032D01*
X17207073Y-51909998D01*
X17207070Y-51909996D01*
X17207069Y-51909996D01*
X17207066Y-51909995D01*
X17082776Y-51873501D01*
X17082774Y-51873500D01*
X17082772Y-51873500D01*
X16953228Y-51873500D01*
X16953225Y-51873500D01*
X16953223Y-51873501D01*
X16828933Y-51909995D01*
X16828926Y-51909998D01*
X16719951Y-51980032D01*
X16648873Y-52062063D01*
X16635118Y-52077937D01*
X16581303Y-52195774D01*
X16562867Y-52324000D01*
X15441133Y-52324000D01*
X15422697Y-52195774D01*
X15368882Y-52077937D01*
X15284049Y-51980033D01*
X15284048Y-51980032D01*
X15175073Y-51909998D01*
X15175070Y-51909996D01*
X15175069Y-51909996D01*
X15175066Y-51909995D01*
X15050776Y-51873501D01*
X15050774Y-51873500D01*
X15050772Y-51873500D01*
X14921228Y-51873500D01*
X14921225Y-51873500D01*
X14921223Y-51873501D01*
X14796933Y-51909995D01*
X14796926Y-51909998D01*
X14687951Y-51980032D01*
X14616873Y-52062063D01*
X14603118Y-52077937D01*
X14549303Y-52195774D01*
X14530867Y-52324000D01*
X-19924500Y-52324000D01*
X-19924500Y-51816000D01*
X3100867Y-51816000D01*
X3119303Y-51944226D01*
X3173118Y-52062063D01*
X3257951Y-52159967D01*
X3366931Y-52230004D01*
X3491228Y-52266500D01*
X3491232Y-52266500D01*
X3620768Y-52266500D01*
X3620772Y-52266500D01*
X3745069Y-52230004D01*
X3854049Y-52159967D01*
X3938882Y-52062063D01*
X3992697Y-51944226D01*
X4011133Y-51816000D01*
X6148867Y-51816000D01*
X6167303Y-51944226D01*
X6221118Y-52062063D01*
X6305951Y-52159967D01*
X6414931Y-52230004D01*
X6539228Y-52266500D01*
X6539232Y-52266500D01*
X6668768Y-52266500D01*
X6668772Y-52266500D01*
X6793069Y-52230004D01*
X6902049Y-52159967D01*
X6986882Y-52062063D01*
X7040697Y-51944226D01*
X7059133Y-51816000D01*
X9196867Y-51816000D01*
X9215303Y-51944226D01*
X9269118Y-52062063D01*
X9353951Y-52159967D01*
X9462931Y-52230004D01*
X9587228Y-52266500D01*
X9587232Y-52266500D01*
X9716768Y-52266500D01*
X9716772Y-52266500D01*
X9841069Y-52230004D01*
X9950049Y-52159967D01*
X10034882Y-52062063D01*
X10088697Y-51944226D01*
X10107133Y-51816000D01*
X10088697Y-51687774D01*
X10034882Y-51569937D01*
X9950049Y-51472033D01*
X9950048Y-51472032D01*
X9841073Y-51401998D01*
X9841070Y-51401996D01*
X9841069Y-51401996D01*
X9841066Y-51401995D01*
X9716776Y-51365501D01*
X9716774Y-51365500D01*
X9716772Y-51365500D01*
X9587228Y-51365500D01*
X9587225Y-51365500D01*
X9587223Y-51365501D01*
X9462933Y-51401995D01*
X9462926Y-51401998D01*
X9353951Y-51472032D01*
X9269118Y-51569937D01*
X9215303Y-51687774D01*
X9196867Y-51816000D01*
X7059133Y-51816000D01*
X7040697Y-51687774D01*
X6986882Y-51569937D01*
X6902049Y-51472033D01*
X6902048Y-51472032D01*
X6793073Y-51401998D01*
X6793070Y-51401996D01*
X6793069Y-51401996D01*
X6793066Y-51401995D01*
X6668776Y-51365501D01*
X6668774Y-51365500D01*
X6668772Y-51365500D01*
X6539228Y-51365500D01*
X6539225Y-51365500D01*
X6539223Y-51365501D01*
X6414933Y-51401995D01*
X6414926Y-51401998D01*
X6305951Y-51472032D01*
X6221118Y-51569937D01*
X6167303Y-51687774D01*
X6148867Y-51816000D01*
X4011133Y-51816000D01*
X3992697Y-51687774D01*
X3938882Y-51569937D01*
X3854049Y-51472033D01*
X3854048Y-51472032D01*
X3745073Y-51401998D01*
X3745070Y-51401996D01*
X3745069Y-51401996D01*
X3745066Y-51401995D01*
X3620776Y-51365501D01*
X3620774Y-51365500D01*
X3620772Y-51365500D01*
X3491228Y-51365500D01*
X3491225Y-51365500D01*
X3491223Y-51365501D01*
X3366933Y-51401995D01*
X3366926Y-51401998D01*
X3257951Y-51472032D01*
X3173118Y-51569937D01*
X3119303Y-51687774D01*
X3100867Y-51816000D01*
X-19924500Y-51816000D01*
X-19924500Y-50800000D01*
X4624867Y-50800000D01*
X4643303Y-50928226D01*
X4697118Y-51046063D01*
X4781951Y-51143967D01*
X4890931Y-51214004D01*
X5015228Y-51250500D01*
X5015232Y-51250500D01*
X5144768Y-51250500D01*
X5144772Y-51250500D01*
X5269069Y-51214004D01*
X5378049Y-51143967D01*
X5462882Y-51046063D01*
X5516697Y-50928226D01*
X5535133Y-50800000D01*
X7672867Y-50800000D01*
X7691303Y-50928226D01*
X7745118Y-51046063D01*
X7829951Y-51143967D01*
X7938931Y-51214004D01*
X8063228Y-51250500D01*
X8063232Y-51250500D01*
X8192768Y-51250500D01*
X8192772Y-51250500D01*
X8317069Y-51214004D01*
X8426049Y-51143967D01*
X8510882Y-51046063D01*
X8564697Y-50928226D01*
X8583133Y-50800000D01*
X8564697Y-50671774D01*
X8510882Y-50553937D01*
X8426049Y-50456033D01*
X8426048Y-50456032D01*
X8317073Y-50385998D01*
X8317070Y-50385996D01*
X8317069Y-50385996D01*
X8317066Y-50385995D01*
X8192776Y-50349501D01*
X8192774Y-50349500D01*
X8192772Y-50349500D01*
X8063228Y-50349500D01*
X8063225Y-50349500D01*
X8063223Y-50349501D01*
X7938933Y-50385995D01*
X7938926Y-50385998D01*
X7829951Y-50456032D01*
X7745118Y-50553937D01*
X7691303Y-50671774D01*
X7672867Y-50800000D01*
X5535133Y-50800000D01*
X5516697Y-50671774D01*
X5462882Y-50553937D01*
X5378049Y-50456033D01*
X5378048Y-50456032D01*
X5269073Y-50385998D01*
X5269070Y-50385996D01*
X5269069Y-50385996D01*
X5269066Y-50385995D01*
X5144776Y-50349501D01*
X5144774Y-50349500D01*
X5144772Y-50349500D01*
X5015228Y-50349500D01*
X5015225Y-50349500D01*
X5015223Y-50349501D01*
X4890933Y-50385995D01*
X4890926Y-50385998D01*
X4781951Y-50456032D01*
X4697118Y-50553937D01*
X4643303Y-50671774D01*
X4624867Y-50800000D01*
X-19924500Y-50800000D01*
X-19924500Y-49784000D01*
X3100867Y-49784000D01*
X3119303Y-49912226D01*
X3173118Y-50030063D01*
X3257951Y-50127967D01*
X3366931Y-50198004D01*
X3491228Y-50234500D01*
X3491232Y-50234500D01*
X3620768Y-50234500D01*
X3620772Y-50234500D01*
X3745069Y-50198004D01*
X3854049Y-50127967D01*
X3938882Y-50030063D01*
X3992697Y-49912226D01*
X4011133Y-49784000D01*
X6148867Y-49784000D01*
X6167303Y-49912226D01*
X6221118Y-50030063D01*
X6305951Y-50127967D01*
X6414931Y-50198004D01*
X6539228Y-50234500D01*
X6539232Y-50234500D01*
X6668768Y-50234500D01*
X6668772Y-50234500D01*
X6793069Y-50198004D01*
X6902049Y-50127967D01*
X6986882Y-50030063D01*
X7040697Y-49912226D01*
X7059133Y-49784000D01*
X7040697Y-49655774D01*
X6986882Y-49537937D01*
X6902049Y-49440033D01*
X6902048Y-49440032D01*
X6793073Y-49369998D01*
X6793070Y-49369996D01*
X6793069Y-49369996D01*
X6793066Y-49369995D01*
X6668776Y-49333501D01*
X6668774Y-49333500D01*
X6668772Y-49333500D01*
X6539228Y-49333500D01*
X6539225Y-49333500D01*
X6539223Y-49333501D01*
X6414933Y-49369995D01*
X6414926Y-49369998D01*
X6305951Y-49440032D01*
X6221118Y-49537937D01*
X6167303Y-49655774D01*
X6148867Y-49784000D01*
X4011133Y-49784000D01*
X3992697Y-49655774D01*
X3938882Y-49537937D01*
X3854049Y-49440033D01*
X3854048Y-49440032D01*
X3745073Y-49369998D01*
X3745070Y-49369996D01*
X3745069Y-49369996D01*
X3745066Y-49369995D01*
X3620776Y-49333501D01*
X3620774Y-49333500D01*
X3620772Y-49333500D01*
X3491228Y-49333500D01*
X3491225Y-49333500D01*
X3491223Y-49333501D01*
X3366933Y-49369995D01*
X3366926Y-49369998D01*
X3257951Y-49440032D01*
X3173118Y-49537937D01*
X3119303Y-49655774D01*
X3100867Y-49784000D01*
X-19924500Y-49784000D01*
X-19924500Y-38686000D01*
X-19904498Y-38617879D01*
X-19850842Y-38571386D01*
X-19798500Y-38560000D01*
X-19010000Y-38560000D01*
X-19010000Y-37686000D01*
X-18989998Y-37617879D01*
X-18936342Y-37571386D01*
X-18884000Y-37560000D01*
X-18486000Y-37560000D01*
X-18417879Y-37580002D01*
X-18371386Y-37633658D01*
X-18360000Y-37686000D01*
X-18360000Y-38560000D01*
X-18060000Y-38560000D01*
X-18060000Y-37686000D01*
X-18039998Y-37617879D01*
X-17986342Y-37571386D01*
X-17934000Y-37560000D01*
X-17536000Y-37560000D01*
X-17467879Y-37580002D01*
X-17421386Y-37633658D01*
X-17410000Y-37686000D01*
X-17410000Y-38560000D01*
X-15710000Y-38560000D01*
X-15710000Y-32260000D01*
X-17410000Y-32260000D01*
X-17410000Y-32434000D01*
X-17430002Y-32502121D01*
X-17483658Y-32548614D01*
X-17536000Y-32560000D01*
X-17840000Y-32560000D01*
X-17840000Y-33160000D01*
X-17536000Y-33160000D01*
X-17467879Y-33180002D01*
X-17421386Y-33233658D01*
X-17410000Y-33286000D01*
X-17410000Y-34834000D01*
X-17430002Y-34902121D01*
X-17483658Y-34948614D01*
X-17536000Y-34960000D01*
X-18884000Y-34960000D01*
X-18952121Y-34939998D01*
X-18998614Y-34886342D01*
X-19010000Y-34834000D01*
X-19010000Y-33286000D01*
X-18989998Y-33217879D01*
X-18936342Y-33171386D01*
X-18884000Y-33160000D01*
X-18590000Y-33160000D01*
X-18590000Y-32560000D01*
X-18884000Y-32560000D01*
X-18952121Y-32539998D01*
X-18998614Y-32486342D01*
X-19010000Y-32434000D01*
X-19010000Y-32260000D01*
X-19798500Y-32260000D01*
X-19865136Y-32240434D01*
X-14800500Y-32240434D01*
X-14800500Y-39650031D01*
X-14780024Y-39726448D01*
X-14780019Y-39726460D01*
X-14771334Y-39741502D01*
X-14740463Y-39794973D01*
X-14740455Y-39794983D01*
X-6327405Y-48208032D01*
X-6293379Y-48270344D01*
X-6290500Y-48297127D01*
X-6290500Y-48313407D01*
X-6310502Y-48381528D01*
X-6321274Y-48395916D01*
X-6362882Y-48443937D01*
X-6416697Y-48561774D01*
X-6435133Y-48690000D01*
X-6416697Y-48818226D01*
X-6362882Y-48936063D01*
X-6278050Y-49033966D01*
X-6278049Y-49033967D01*
X-6250766Y-49051501D01*
X-6169069Y-49104004D01*
X-6044772Y-49140500D01*
X-6044768Y-49140500D01*
X-5915232Y-49140500D01*
X-5915228Y-49140500D01*
X-5790931Y-49104004D01*
X-5681951Y-49033967D01*
X-5597118Y-48936063D01*
X-5597117Y-48936059D01*
X-5596232Y-48935039D01*
X-5536507Y-48896654D01*
X-5465510Y-48896652D01*
X-5432886Y-48911551D01*
X-5429069Y-48914004D01*
X-5304772Y-48950500D01*
X-5304768Y-48950500D01*
X-5175232Y-48950500D01*
X-5175228Y-48950500D01*
X-5050931Y-48914004D01*
X-4941951Y-48843967D01*
X-4857118Y-48746063D01*
X-4857118Y-48746060D01*
X-4851218Y-48739253D01*
X-4850168Y-48740163D01*
X-4803652Y-48699851D01*
X-4733379Y-48689741D01*
X-4668796Y-48719228D01*
X-4662204Y-48725365D01*
X-4565558Y-48822011D01*
X-4509609Y-48877960D01*
X-4441087Y-48917521D01*
X-4441085Y-48917521D01*
X-4441084Y-48917522D01*
X-4371893Y-48936062D01*
X-4364660Y-48938000D01*
X-4285536Y-48938000D01*
X-2825756Y-48938000D01*
X-2757635Y-48958002D01*
X-2737361Y-48975569D01*
X-2737358Y-48975567D01*
X-2730548Y-48981468D01*
X-2621574Y-49051501D01*
X-2621569Y-49051504D01*
X-2497272Y-49088000D01*
X-2497268Y-49088000D01*
X-2367732Y-49088000D01*
X-2367728Y-49088000D01*
X-2243431Y-49051504D01*
X-2134451Y-48981467D01*
X-2049618Y-48883563D01*
X-1996842Y-48768000D01*
X4624867Y-48768000D01*
X4643303Y-48896226D01*
X4697118Y-49014063D01*
X4781951Y-49111967D01*
X4890931Y-49182004D01*
X5015228Y-49218500D01*
X5015232Y-49218500D01*
X5144768Y-49218500D01*
X5144772Y-49218500D01*
X5269069Y-49182004D01*
X5378049Y-49111967D01*
X5462882Y-49014063D01*
X5516697Y-48896226D01*
X5535133Y-48768000D01*
X7672867Y-48768000D01*
X7691303Y-48896226D01*
X7745118Y-49014063D01*
X7829951Y-49111967D01*
X7938931Y-49182004D01*
X8063228Y-49218500D01*
X8063232Y-49218500D01*
X8192768Y-49218500D01*
X8192772Y-49218500D01*
X8317069Y-49182004D01*
X8426049Y-49111967D01*
X8510882Y-49014063D01*
X8564697Y-48896226D01*
X8583133Y-48768000D01*
X8564697Y-48639774D01*
X8510882Y-48521937D01*
X8426049Y-48424033D01*
X8426048Y-48424032D01*
X8317073Y-48353998D01*
X8317070Y-48353996D01*
X8317069Y-48353996D01*
X8289949Y-48346033D01*
X8192776Y-48317501D01*
X8192774Y-48317500D01*
X8192772Y-48317500D01*
X8063228Y-48317500D01*
X8063225Y-48317500D01*
X8063223Y-48317501D01*
X7938933Y-48353995D01*
X7938926Y-48353998D01*
X7829951Y-48424032D01*
X7745118Y-48521937D01*
X7691303Y-48639774D01*
X7672867Y-48768000D01*
X5535133Y-48768000D01*
X5516697Y-48639774D01*
X5462882Y-48521937D01*
X5378049Y-48424033D01*
X5378048Y-48424032D01*
X5269073Y-48353998D01*
X5269070Y-48353996D01*
X5269069Y-48353996D01*
X5241949Y-48346033D01*
X5144776Y-48317501D01*
X5144774Y-48317500D01*
X5144772Y-48317500D01*
X5015228Y-48317500D01*
X5015225Y-48317500D01*
X5015223Y-48317501D01*
X4890933Y-48353995D01*
X4890926Y-48353998D01*
X4781951Y-48424032D01*
X4697118Y-48521937D01*
X4643303Y-48639774D01*
X4624867Y-48768000D01*
X-1996842Y-48768000D01*
X-1995803Y-48765726D01*
X-1977367Y-48637500D01*
X-1995803Y-48509274D01*
X-2049618Y-48391437D01*
X-2134451Y-48293533D01*
X-2134452Y-48293532D01*
X-2243427Y-48223498D01*
X-2243430Y-48223496D01*
X-2243431Y-48223496D01*
X-2285107Y-48211259D01*
X-2367724Y-48187001D01*
X-2367726Y-48187000D01*
X-2367728Y-48187000D01*
X-2497272Y-48187000D01*
X-2497275Y-48187000D01*
X-2497277Y-48187001D01*
X-2621567Y-48223495D01*
X-2621574Y-48223498D01*
X-2730548Y-48293531D01*
X-2737358Y-48299433D01*
X-2738211Y-48298448D01*
X-2790262Y-48331897D01*
X-2825756Y-48337000D01*
X-4148437Y-48337000D01*
X-4216558Y-48316998D01*
X-4237532Y-48300095D01*
X-4785627Y-47752000D01*
X3100867Y-47752000D01*
X3119303Y-47880226D01*
X3173118Y-47998063D01*
X3186873Y-48013937D01*
X3257951Y-48095967D01*
X3308355Y-48128360D01*
X3366931Y-48166004D01*
X3491228Y-48202500D01*
X3491232Y-48202500D01*
X3620768Y-48202500D01*
X3620772Y-48202500D01*
X3745069Y-48166004D01*
X3854049Y-48095967D01*
X3938882Y-47998063D01*
X3992697Y-47880226D01*
X4011133Y-47752000D01*
X6148867Y-47752000D01*
X6167303Y-47880226D01*
X6221118Y-47998063D01*
X6234873Y-48013937D01*
X6305951Y-48095967D01*
X6356355Y-48128360D01*
X6414931Y-48166004D01*
X6539228Y-48202500D01*
X6539232Y-48202500D01*
X6668768Y-48202500D01*
X6668772Y-48202500D01*
X6793069Y-48166004D01*
X6902049Y-48095967D01*
X6986882Y-47998063D01*
X7040697Y-47880226D01*
X7059133Y-47752000D01*
X7040697Y-47623774D01*
X6986882Y-47505937D01*
X6902049Y-47408033D01*
X6902048Y-47408032D01*
X6793073Y-47337998D01*
X6793070Y-47337996D01*
X6793069Y-47337996D01*
X6793066Y-47337995D01*
X6668776Y-47301501D01*
X6668774Y-47301500D01*
X6668772Y-47301500D01*
X6539228Y-47301500D01*
X6539225Y-47301500D01*
X6539223Y-47301501D01*
X6414933Y-47337995D01*
X6414926Y-47337998D01*
X6305951Y-47408032D01*
X6237183Y-47487397D01*
X6221118Y-47505937D01*
X6167303Y-47623774D01*
X6148867Y-47752000D01*
X4011133Y-47752000D01*
X3992697Y-47623774D01*
X3938882Y-47505937D01*
X3854049Y-47408033D01*
X3854048Y-47408032D01*
X3745073Y-47337998D01*
X3745070Y-47337996D01*
X3745069Y-47337996D01*
X3745066Y-47337995D01*
X3620776Y-47301501D01*
X3620774Y-47301500D01*
X3620772Y-47301500D01*
X3491228Y-47301500D01*
X3491225Y-47301500D01*
X3491223Y-47301501D01*
X3366933Y-47337995D01*
X3366926Y-47337998D01*
X3257951Y-47408032D01*
X3189183Y-47487397D01*
X3173118Y-47505937D01*
X3119303Y-47623774D01*
X3100867Y-47752000D01*
X-4785627Y-47752000D01*
X-5801627Y-46736000D01*
X4624867Y-46736000D01*
X4643303Y-46864226D01*
X4697118Y-46982063D01*
X4781951Y-47079967D01*
X4890931Y-47150004D01*
X5015228Y-47186500D01*
X5015232Y-47186500D01*
X5144768Y-47186500D01*
X5144772Y-47186500D01*
X5269069Y-47150004D01*
X5378049Y-47079967D01*
X5462882Y-46982063D01*
X5516697Y-46864226D01*
X5535133Y-46736000D01*
X5516697Y-46607774D01*
X5462882Y-46489937D01*
X5378049Y-46392033D01*
X5378048Y-46392032D01*
X5269073Y-46321998D01*
X5269070Y-46321996D01*
X5269069Y-46321996D01*
X5269066Y-46321995D01*
X5144776Y-46285501D01*
X5144774Y-46285500D01*
X5144772Y-46285500D01*
X5015228Y-46285500D01*
X5015225Y-46285500D01*
X5015223Y-46285501D01*
X4890933Y-46321995D01*
X4890926Y-46321998D01*
X4781951Y-46392032D01*
X4697118Y-46489937D01*
X4643303Y-46607774D01*
X4624867Y-46736000D01*
X-5801627Y-46736000D01*
X-6817627Y-45720000D01*
X3100867Y-45720000D01*
X3119303Y-45848226D01*
X3173118Y-45966063D01*
X3257951Y-46063967D01*
X3366931Y-46134004D01*
X3491228Y-46170500D01*
X3491232Y-46170500D01*
X3620768Y-46170500D01*
X3620772Y-46170500D01*
X3745069Y-46134004D01*
X3854049Y-46063967D01*
X3938882Y-45966063D01*
X3992697Y-45848226D01*
X4011133Y-45720000D01*
X3992697Y-45591774D01*
X3938882Y-45473937D01*
X3854049Y-45376033D01*
X3854048Y-45376032D01*
X3745073Y-45305998D01*
X3745070Y-45305996D01*
X3745069Y-45305996D01*
X3745066Y-45305995D01*
X3620776Y-45269501D01*
X3620774Y-45269500D01*
X3620772Y-45269500D01*
X3491228Y-45269500D01*
X3491225Y-45269500D01*
X3491223Y-45269501D01*
X3366933Y-45305995D01*
X3366926Y-45305998D01*
X3257951Y-45376032D01*
X3173118Y-45473937D01*
X3119303Y-45591774D01*
X3100867Y-45720000D01*
X-6817627Y-45720000D01*
X-7833627Y-44704000D01*
X4624867Y-44704000D01*
X4643303Y-44832226D01*
X4697118Y-44950063D01*
X4781951Y-45047967D01*
X4890931Y-45118004D01*
X5015228Y-45154500D01*
X5015232Y-45154500D01*
X5144768Y-45154500D01*
X5144772Y-45154500D01*
X5269069Y-45118004D01*
X5378049Y-45047967D01*
X5462882Y-44950063D01*
X5516697Y-44832226D01*
X5535133Y-44704000D01*
X5516697Y-44575774D01*
X5462882Y-44457937D01*
X5378049Y-44360033D01*
X5378048Y-44360032D01*
X5269073Y-44289998D01*
X5269070Y-44289996D01*
X5269069Y-44289996D01*
X5269066Y-44289995D01*
X5144776Y-44253501D01*
X5144774Y-44253500D01*
X5144772Y-44253500D01*
X5015228Y-44253500D01*
X5015225Y-44253500D01*
X5015223Y-44253501D01*
X4890933Y-44289995D01*
X4890926Y-44289998D01*
X4781951Y-44360032D01*
X4697118Y-44457937D01*
X4643303Y-44575774D01*
X4624867Y-44704000D01*
X-7833627Y-44704000D01*
X-8849627Y-43688000D01*
X3100867Y-43688000D01*
X3119303Y-43816226D01*
X3173118Y-43934063D01*
X3257951Y-44031967D01*
X3366931Y-44102004D01*
X3491228Y-44138500D01*
X3491232Y-44138500D01*
X3620768Y-44138500D01*
X3620772Y-44138500D01*
X3745069Y-44102004D01*
X3854049Y-44031967D01*
X3938882Y-43934063D01*
X3992697Y-43816226D01*
X4011133Y-43688000D01*
X3992697Y-43559774D01*
X3938882Y-43441937D01*
X3854049Y-43344033D01*
X3854048Y-43344032D01*
X3745073Y-43273998D01*
X3745070Y-43273996D01*
X3745069Y-43273996D01*
X3635257Y-43241753D01*
X3620776Y-43237501D01*
X3620774Y-43237500D01*
X3620772Y-43237500D01*
X3491228Y-43237500D01*
X3491225Y-43237500D01*
X3491223Y-43237501D01*
X3366933Y-43273995D01*
X3366926Y-43273998D01*
X3257951Y-43344032D01*
X3173118Y-43441937D01*
X3119303Y-43559774D01*
X3100867Y-43688000D01*
X-8849627Y-43688000D01*
X-9865627Y-42672000D01*
X4624867Y-42672000D01*
X4643303Y-42800226D01*
X4697118Y-42918063D01*
X4781951Y-43015967D01*
X4890931Y-43086004D01*
X5015228Y-43122500D01*
X5015232Y-43122500D01*
X5144768Y-43122500D01*
X5144772Y-43122500D01*
X5269069Y-43086004D01*
X5378049Y-43015967D01*
X5462882Y-42918063D01*
X5516697Y-42800226D01*
X5535133Y-42672000D01*
X5516697Y-42543774D01*
X5462882Y-42425937D01*
X5378049Y-42328033D01*
X5378048Y-42328032D01*
X5269073Y-42257998D01*
X5269070Y-42257996D01*
X5269069Y-42257996D01*
X5269066Y-42257995D01*
X5144776Y-42221501D01*
X5144774Y-42221500D01*
X5144772Y-42221500D01*
X5015228Y-42221500D01*
X5015225Y-42221500D01*
X5015223Y-42221501D01*
X4890933Y-42257995D01*
X4890926Y-42257998D01*
X4781951Y-42328032D01*
X4717051Y-42402933D01*
X4697118Y-42425937D01*
X4643303Y-42543774D01*
X4624867Y-42672000D01*
X-9865627Y-42672000D01*
X-10881627Y-41656000D01*
X3100867Y-41656000D01*
X3119303Y-41784226D01*
X3173118Y-41902063D01*
X3257951Y-41999967D01*
X3366931Y-42070004D01*
X3491228Y-42106500D01*
X3491232Y-42106500D01*
X3620768Y-42106500D01*
X3620772Y-42106500D01*
X3745069Y-42070004D01*
X3854049Y-41999967D01*
X3938882Y-41902063D01*
X3992697Y-41784226D01*
X4011133Y-41656000D01*
X3992697Y-41527774D01*
X3938882Y-41409937D01*
X3854049Y-41312033D01*
X3854048Y-41312032D01*
X3745073Y-41241998D01*
X3745070Y-41241996D01*
X3745069Y-41241996D01*
X3745066Y-41241995D01*
X3620776Y-41205501D01*
X3620774Y-41205500D01*
X3620772Y-41205500D01*
X3491228Y-41205500D01*
X3491225Y-41205500D01*
X3491223Y-41205501D01*
X3366933Y-41241995D01*
X3366926Y-41241998D01*
X3257951Y-41312032D01*
X3173118Y-41409937D01*
X3119303Y-41527774D01*
X3100867Y-41656000D01*
X-10881627Y-41656000D01*
X-11997627Y-40540000D01*
X-5835133Y-40540000D01*
X-5816697Y-40668226D01*
X-5762882Y-40786063D01*
X-5678049Y-40883967D01*
X-5569069Y-40954004D01*
X-5444772Y-40990500D01*
X-5444768Y-40990500D01*
X-5315232Y-40990500D01*
X-5315228Y-40990500D01*
X-5190931Y-40954004D01*
X-5081951Y-40883967D01*
X-4997118Y-40786063D01*
X-4943303Y-40668226D01*
X-4924867Y-40540000D01*
X-4943303Y-40411774D01*
X-4997118Y-40293937D01*
X-5081951Y-40196033D01*
X-5081952Y-40196032D01*
X-5190927Y-40125998D01*
X-5190930Y-40125996D01*
X-5190931Y-40125996D01*
X-5223272Y-40116500D01*
X-5315224Y-40089501D01*
X-5315226Y-40089500D01*
X-5315228Y-40089500D01*
X-5444772Y-40089500D01*
X-5444775Y-40089500D01*
X-5444777Y-40089501D01*
X-5569067Y-40125995D01*
X-5569074Y-40125998D01*
X-5678049Y-40196032D01*
X-5762882Y-40293937D01*
X-5816697Y-40411774D01*
X-5835133Y-40540000D01*
X-11997627Y-40540000D01*
X-13402595Y-39135032D01*
X-13436621Y-39072720D01*
X-13439500Y-39045937D01*
X-13439500Y-37760000D01*
X-6035133Y-37760000D01*
X-6016697Y-37888226D01*
X-5962882Y-38006063D01*
X-5917879Y-38058000D01*
X-5878049Y-38103967D01*
X-5773047Y-38171448D01*
X-5769069Y-38174004D01*
X-5644772Y-38210500D01*
X-5644768Y-38210500D01*
X-5515232Y-38210500D01*
X-5515228Y-38210500D01*
X-5390931Y-38174004D01*
X-5281951Y-38103967D01*
X-5281950Y-38103966D01*
X-5279801Y-38101487D01*
X-5277040Y-38099712D01*
X-5275137Y-38098064D01*
X-5274901Y-38098337D01*
X-5220074Y-38063104D01*
X-5184577Y-38058000D01*
X-5030768Y-38058000D01*
X-4954976Y-38037691D01*
X-4921000Y-38018075D01*
X-4887023Y-37998459D01*
X-4534541Y-37645977D01*
X-4499032Y-37584472D01*
X-4495309Y-37578024D01*
X-4485882Y-37542839D01*
X-4448931Y-37482219D01*
X-4385070Y-37451197D01*
X-4314576Y-37459625D01*
X-4275080Y-37486357D01*
X-3732983Y-38028454D01*
X-3732980Y-38028456D01*
X-3732977Y-38028459D01*
X-3716991Y-38037688D01*
X-3716988Y-38037691D01*
X-3716988Y-38037690D01*
X-3716986Y-38037691D01*
X-3665024Y-38067691D01*
X-3665022Y-38067691D01*
X-3665021Y-38067692D01*
X-3589236Y-38087999D01*
X-3589232Y-38088000D01*
X-3044199Y-38088000D01*
X-2976078Y-38108002D01*
X-2929585Y-38161658D01*
X-2920621Y-38189417D01*
X-2918867Y-38198231D01*
X-2874552Y-38264552D01*
X-2808231Y-38308867D01*
X-2749748Y-38320500D01*
X-2749747Y-38320500D01*
X-1610253Y-38320500D01*
X-1610252Y-38320500D01*
X-1551769Y-38308867D01*
X-1485448Y-38264552D01*
X-1441133Y-38198231D01*
X-1439380Y-38189417D01*
X-1406472Y-38126509D01*
X-1344777Y-38091377D01*
X-1315801Y-38088000D01*
X-1247160Y-38088000D01*
X-1179039Y-38108002D01*
X-1133964Y-38158659D01*
X-1129637Y-38167511D01*
X-1047511Y-38249637D01*
X-952162Y-38296249D01*
X-943170Y-38300645D01*
X-875528Y-38310500D01*
X-875522Y-38310500D01*
X-514478Y-38310500D01*
X-514472Y-38310500D01*
X-446830Y-38300645D01*
X-437838Y-38296249D01*
X3815340Y-38296249D01*
X3815340Y-38296252D01*
X3815340Y-39935748D01*
X3826973Y-39994231D01*
X3871288Y-40060552D01*
X3937609Y-40104867D01*
X3996092Y-40116500D01*
X3996093Y-40116500D01*
X5635587Y-40116500D01*
X5635588Y-40116500D01*
X5694071Y-40104867D01*
X5760392Y-40060552D01*
X5804707Y-39994231D01*
X5816340Y-39935748D01*
X5816340Y-38296252D01*
X5804707Y-38237769D01*
X5760392Y-38171448D01*
X5694071Y-38127133D01*
X5694068Y-38127132D01*
X5635590Y-38115500D01*
X5635588Y-38115500D01*
X3996092Y-38115500D01*
X3996089Y-38115500D01*
X3937611Y-38127132D01*
X3937608Y-38127133D01*
X3871288Y-38171448D01*
X3826973Y-38237768D01*
X3826972Y-38237771D01*
X3815340Y-38296249D01*
X-437838Y-38296249D01*
X-372998Y-38264551D01*
X-342490Y-38249637D01*
X-260363Y-38167510D01*
X-211566Y-38067692D01*
X-209355Y-38063170D01*
X-199500Y-37995528D01*
X-199500Y-37584472D01*
X-209355Y-37516830D01*
X-216491Y-37502232D01*
X-260363Y-37412489D01*
X-342490Y-37330362D01*
X-446829Y-37279355D01*
X-514469Y-37269500D01*
X-514472Y-37269500D01*
X-875528Y-37269500D01*
X-875532Y-37269500D01*
X-943172Y-37279355D01*
X-1047511Y-37330362D01*
X-1129637Y-37412488D01*
X-1133964Y-37421341D01*
X-1181853Y-37473754D01*
X-1247160Y-37492000D01*
X-1340222Y-37492000D01*
X-1408343Y-37471998D01*
X-1444986Y-37436003D01*
X-1485448Y-37375448D01*
X-1551769Y-37331133D01*
X-1551772Y-37331132D01*
X-1610250Y-37319500D01*
X-1610252Y-37319500D01*
X-2749748Y-37319500D01*
X-2749751Y-37319500D01*
X-2808229Y-37331132D01*
X-2808232Y-37331133D01*
X-2874552Y-37375447D01*
X-2884025Y-37389625D01*
X-2915015Y-37436003D01*
X-2969490Y-37481530D01*
X-3019778Y-37492000D01*
X-3374374Y-37492000D01*
X-3442495Y-37471998D01*
X-3463469Y-37455095D01*
X-3730494Y-37188070D01*
X-3764520Y-37125758D01*
X-3767399Y-37098975D01*
X-3767399Y-36661762D01*
X-3747397Y-36593641D01*
X-3693741Y-36547148D01*
X-3623467Y-36537044D01*
X-3558887Y-36566538D01*
X-3552318Y-36572653D01*
X-3494511Y-36630460D01*
X-3425988Y-36670022D01*
X-3349562Y-36690500D01*
X-3043702Y-36690500D01*
X-2975581Y-36710502D01*
X-2929088Y-36764158D01*
X-2920123Y-36791917D01*
X-2918867Y-36798231D01*
X-2874552Y-36864552D01*
X-2808231Y-36908867D01*
X-2749748Y-36920500D01*
X-2749747Y-36920500D01*
X-1610253Y-36920500D01*
X-1610252Y-36920500D01*
X-1551769Y-36908867D01*
X-1485448Y-36864552D01*
X-1441133Y-36798231D01*
X-1439877Y-36791917D01*
X-1406968Y-36729008D01*
X-1345273Y-36693877D01*
X-1316298Y-36690500D01*
X-1245937Y-36690500D01*
X-1177816Y-36710502D01*
X-1132740Y-36761161D01*
X-1129636Y-36767511D01*
X-1129635Y-36767512D01*
X-1129634Y-36767514D01*
X-1047511Y-36849637D01*
X-945445Y-36899533D01*
X-943170Y-36900645D01*
X-875528Y-36910500D01*
X-875522Y-36910500D01*
X-514478Y-36910500D01*
X-514472Y-36910500D01*
X-446830Y-36900645D01*
X-372998Y-36864551D01*
X-342490Y-36849637D01*
X-322853Y-36830000D01*
X2846867Y-36830000D01*
X2865303Y-36958226D01*
X2919118Y-37076063D01*
X3003951Y-37173967D01*
X3112931Y-37244004D01*
X3237228Y-37280500D01*
X3237232Y-37280500D01*
X3366768Y-37280500D01*
X3366772Y-37280500D01*
X3491069Y-37244004D01*
X3600049Y-37173967D01*
X3684882Y-37076063D01*
X3738697Y-36958226D01*
X3757133Y-36830000D01*
X3738697Y-36701774D01*
X3684882Y-36583937D01*
X3678005Y-36576000D01*
X5386867Y-36576000D01*
X5405303Y-36704226D01*
X5459118Y-36822063D01*
X5527208Y-36900644D01*
X5543951Y-36919967D01*
X5582372Y-36944659D01*
X5652931Y-36990004D01*
X5777228Y-37026500D01*
X5777232Y-37026500D01*
X5906768Y-37026500D01*
X5906772Y-37026500D01*
X6031069Y-36990004D01*
X6140049Y-36919967D01*
X6224882Y-36822063D01*
X6278697Y-36704226D01*
X6297133Y-36576000D01*
X6278697Y-36447774D01*
X6224882Y-36329937D01*
X6140049Y-36232033D01*
X6140048Y-36232032D01*
X6031073Y-36161998D01*
X6031070Y-36161996D01*
X6031069Y-36161996D01*
X6031066Y-36161995D01*
X5906776Y-36125501D01*
X5906774Y-36125500D01*
X5906772Y-36125500D01*
X5777228Y-36125500D01*
X5777225Y-36125500D01*
X5777223Y-36125501D01*
X5652933Y-36161995D01*
X5652926Y-36161998D01*
X5543951Y-36232032D01*
X5459118Y-36329937D01*
X5405303Y-36447774D01*
X5386867Y-36576000D01*
X3678005Y-36576000D01*
X3600049Y-36486033D01*
X3600048Y-36486032D01*
X3491073Y-36415998D01*
X3491070Y-36415996D01*
X3491069Y-36415996D01*
X3491066Y-36415995D01*
X3366776Y-36379501D01*
X3366774Y-36379500D01*
X3366772Y-36379500D01*
X3237228Y-36379500D01*
X3237225Y-36379500D01*
X3237223Y-36379501D01*
X3112933Y-36415995D01*
X3112926Y-36415998D01*
X3003951Y-36486032D01*
X2977792Y-36516222D01*
X2925996Y-36576000D01*
X2919120Y-36583935D01*
X2919119Y-36583935D01*
X2919118Y-36583936D01*
X2919118Y-36583937D01*
X2865303Y-36701774D01*
X2846867Y-36830000D01*
X-322853Y-36830000D01*
X-260363Y-36767510D01*
X-212705Y-36670022D01*
X-209355Y-36663170D01*
X-199500Y-36595528D01*
X-199500Y-36184472D01*
X-209355Y-36116830D01*
X-222716Y-36089500D01*
X-260363Y-36012489D01*
X-342490Y-35930362D01*
X-446829Y-35879355D01*
X-514469Y-35869500D01*
X-514472Y-35869500D01*
X-875528Y-35869500D01*
X-875532Y-35869500D01*
X-943172Y-35879355D01*
X-1047511Y-35930362D01*
X-1129634Y-36012485D01*
X-1129636Y-36012488D01*
X-1129636Y-36012489D01*
X-1132740Y-36018837D01*
X-1180625Y-36071252D01*
X-1245937Y-36089500D01*
X-1341891Y-36089500D01*
X-1410012Y-36069498D01*
X-1446655Y-36033504D01*
X-1485449Y-35975447D01*
X-1551769Y-35931133D01*
X-1551772Y-35931132D01*
X-1610250Y-35919500D01*
X-1610252Y-35919500D01*
X-2749748Y-35919500D01*
X-2749751Y-35919500D01*
X-2808229Y-35931132D01*
X-2808233Y-35931134D01*
X-2815731Y-35936144D01*
X-2883485Y-35957356D01*
X-2951951Y-35938571D01*
X-2999392Y-35885752D01*
X-3000344Y-35883715D01*
X-3001230Y-35881775D01*
X-3003015Y-35877866D01*
X-3058354Y-35814000D01*
X4116867Y-35814000D01*
X4135303Y-35942226D01*
X4189118Y-36060063D01*
X4273951Y-36157967D01*
X4382931Y-36228004D01*
X4507228Y-36264500D01*
X4507232Y-36264500D01*
X4636768Y-36264500D01*
X4636772Y-36264500D01*
X4761069Y-36228004D01*
X4870049Y-36157967D01*
X4954882Y-36060063D01*
X5008697Y-35942226D01*
X5027133Y-35814000D01*
X5008697Y-35685774D01*
X4954882Y-35567937D01*
X4870049Y-35470033D01*
X4870048Y-35470032D01*
X4761073Y-35399998D01*
X4761070Y-35399996D01*
X4761069Y-35399996D01*
X4761066Y-35399995D01*
X4636776Y-35363501D01*
X4636774Y-35363500D01*
X4636772Y-35363500D01*
X4507228Y-35363500D01*
X4507225Y-35363500D01*
X4507223Y-35363501D01*
X4382933Y-35399995D01*
X4382926Y-35399998D01*
X4273951Y-35470032D01*
X4207307Y-35546945D01*
X4189118Y-35567937D01*
X4135303Y-35685774D01*
X4116867Y-35814000D01*
X-3058354Y-35814000D01*
X-3087848Y-35779962D01*
X-3087849Y-35779961D01*
X-3196824Y-35709927D01*
X-3196827Y-35709925D01*
X-3196828Y-35709925D01*
X-3198524Y-35709427D01*
X-3321121Y-35673430D01*
X-3321123Y-35673429D01*
X-3321125Y-35673429D01*
X-3450669Y-35673429D01*
X-3450672Y-35673429D01*
X-3450674Y-35673430D01*
X-3574964Y-35709924D01*
X-3574966Y-35709925D01*
X-3657139Y-35762734D01*
X-3725260Y-35782735D01*
X-3793379Y-35762734D01*
X-3819368Y-35746032D01*
X-3876330Y-35709425D01*
X-3956876Y-35685775D01*
X-4000623Y-35672930D01*
X-4000625Y-35672929D01*
X-4000627Y-35672929D01*
X-4130171Y-35672929D01*
X-4130174Y-35672929D01*
X-4130176Y-35672930D01*
X-4254466Y-35709424D01*
X-4254472Y-35709427D01*
X-4325971Y-35755376D01*
X-4394092Y-35775377D01*
X-4462212Y-35755374D01*
X-4473113Y-35747213D01*
X-4583927Y-35675998D01*
X-4583930Y-35675996D01*
X-4583931Y-35675996D01*
X-4592670Y-35673430D01*
X-4708224Y-35639501D01*
X-4708226Y-35639500D01*
X-4708228Y-35639500D01*
X-4837772Y-35639500D01*
X-4837775Y-35639500D01*
X-4837777Y-35639501D01*
X-4962067Y-35675995D01*
X-4962074Y-35675998D01*
X-5071049Y-35746032D01*
X-5129942Y-35814000D01*
X-5155882Y-35843937D01*
X-5209697Y-35961774D01*
X-5228133Y-36090000D01*
X-5209697Y-36218226D01*
X-5155882Y-36336063D01*
X-5101775Y-36398507D01*
X-5072282Y-36463087D01*
X-5071000Y-36481018D01*
X-5071000Y-37287374D01*
X-5091002Y-37355495D01*
X-5107903Y-37376466D01*
X-5121061Y-37389625D01*
X-5128287Y-37396851D01*
X-5190600Y-37430874D01*
X-5261415Y-37425808D01*
X-5285500Y-37413752D01*
X-5323043Y-37389625D01*
X-5390931Y-37345996D01*
X-5390934Y-37345995D01*
X-5515224Y-37309501D01*
X-5515226Y-37309500D01*
X-5515228Y-37309500D01*
X-5644772Y-37309500D01*
X-5644775Y-37309500D01*
X-5644777Y-37309501D01*
X-5769067Y-37345995D01*
X-5769074Y-37345998D01*
X-5878049Y-37416032D01*
X-5928064Y-37473754D01*
X-5962882Y-37513937D01*
X-6016697Y-37631774D01*
X-6035133Y-37760000D01*
X-13439500Y-37760000D01*
X-13439500Y-34294468D01*
X-12730500Y-34294468D01*
X-12730500Y-34655531D01*
X-12720645Y-34723171D01*
X-12669638Y-34827510D01*
X-12580129Y-34917019D01*
X-12582447Y-34919336D01*
X-12549477Y-34961350D01*
X-12540500Y-35008058D01*
X-12540500Y-35621866D01*
X-12560502Y-35689987D01*
X-12571274Y-35704376D01*
X-12622882Y-35763937D01*
X-12676697Y-35881774D01*
X-12695133Y-36010000D01*
X-12676697Y-36138226D01*
X-12622882Y-36256063D01*
X-12553563Y-36336063D01*
X-12538049Y-36353967D01*
X-12436050Y-36419518D01*
X-12429069Y-36424004D01*
X-12304772Y-36460500D01*
X-12304768Y-36460500D01*
X-12175232Y-36460500D01*
X-12175228Y-36460500D01*
X-12050931Y-36424004D01*
X-11941951Y-36353967D01*
X-11857118Y-36256063D01*
X-11803303Y-36138226D01*
X-11784867Y-36010000D01*
X-11803303Y-35881774D01*
X-11857118Y-35763937D01*
X-11908727Y-35704376D01*
X-11938218Y-35639796D01*
X-11939500Y-35621866D01*
X-11939500Y-35040603D01*
X-11919498Y-34972482D01*
X-11868841Y-34927406D01*
X-11832489Y-34909636D01*
X-11750364Y-34827511D01*
X-11750363Y-34827510D01*
X-11724860Y-34775340D01*
X-11699355Y-34723170D01*
X-11692286Y-34674647D01*
X-9850486Y-34674647D01*
X-9832050Y-34802873D01*
X-9778235Y-34920710D01*
X-9726644Y-34980250D01*
X-9693402Y-35018614D01*
X-9660690Y-35039637D01*
X-9584422Y-35088651D01*
X-9460125Y-35125147D01*
X-9460121Y-35125147D01*
X-9330585Y-35125147D01*
X-9330581Y-35125147D01*
X-9206284Y-35088651D01*
X-9097304Y-35018614D01*
X-9097302Y-35018611D01*
X-9090495Y-35012714D01*
X-9089643Y-35013698D01*
X-9037591Y-34980250D01*
X-9002097Y-34975147D01*
X-8974191Y-34975147D01*
X-8906070Y-34995149D01*
X-8885096Y-35012052D01*
X-8857511Y-35039637D01*
X-8757255Y-35088648D01*
X-8753170Y-35090645D01*
X-8685528Y-35100500D01*
X-8685522Y-35100500D01*
X-8274478Y-35100500D01*
X-8274472Y-35100500D01*
X-8206830Y-35090645D01*
X-8127780Y-35052000D01*
X-8102490Y-35039637D01*
X-8052853Y-34990000D01*
X-1165133Y-34990000D01*
X-1146697Y-35118226D01*
X-1092882Y-35236063D01*
X-1028381Y-35310502D01*
X-1008049Y-35333967D01*
X-905303Y-35399998D01*
X-899069Y-35404004D01*
X-774772Y-35440500D01*
X-774768Y-35440500D01*
X-645232Y-35440500D01*
X-645228Y-35440500D01*
X-520931Y-35404004D01*
X-411951Y-35333967D01*
X-411949Y-35333964D01*
X-405142Y-35328067D01*
X-404290Y-35329051D01*
X-352238Y-35295603D01*
X-316744Y-35290500D01*
X-308059Y-35290500D01*
X-239938Y-35310502D01*
X-218146Y-35331255D01*
X-217019Y-35330129D01*
X-127511Y-35419637D01*
X-25445Y-35469533D01*
X-23170Y-35470645D01*
X44472Y-35480500D01*
X44478Y-35480500D01*
X455522Y-35480500D01*
X455528Y-35480500D01*
X523170Y-35470645D01*
X584837Y-35440498D01*
X627510Y-35419637D01*
X709637Y-35337510D01*
X735140Y-35285340D01*
X760645Y-35233170D01*
X770500Y-35165528D01*
X770500Y-35052000D01*
X2846867Y-35052000D01*
X2865303Y-35180226D01*
X2919118Y-35298063D01*
X3003951Y-35395967D01*
X3112931Y-35466004D01*
X3237228Y-35502500D01*
X3237232Y-35502500D01*
X3366768Y-35502500D01*
X3366772Y-35502500D01*
X3491069Y-35466004D01*
X3600049Y-35395967D01*
X3684882Y-35298063D01*
X3738697Y-35180226D01*
X3757133Y-35052000D01*
X5386867Y-35052000D01*
X5405303Y-35180226D01*
X5459118Y-35298063D01*
X5543951Y-35395967D01*
X5652931Y-35466004D01*
X5777228Y-35502500D01*
X5777232Y-35502500D01*
X5906768Y-35502500D01*
X5906772Y-35502500D01*
X6031069Y-35466004D01*
X6140049Y-35395967D01*
X6224882Y-35298063D01*
X6278697Y-35180226D01*
X6297133Y-35052000D01*
X6278697Y-34923774D01*
X6224882Y-34805937D01*
X6140049Y-34708033D01*
X6140048Y-34708032D01*
X6031073Y-34637998D01*
X6031070Y-34637996D01*
X6031069Y-34637996D01*
X6026713Y-34636717D01*
X5906776Y-34601501D01*
X5906774Y-34601500D01*
X5906772Y-34601500D01*
X5777228Y-34601500D01*
X5777225Y-34601500D01*
X5777223Y-34601501D01*
X5652933Y-34637995D01*
X5652926Y-34637998D01*
X5543951Y-34708032D01*
X5461775Y-34802871D01*
X5459118Y-34805937D01*
X5405303Y-34923774D01*
X5386867Y-35052000D01*
X3757133Y-35052000D01*
X3738697Y-34923774D01*
X3684882Y-34805937D01*
X3600049Y-34708033D01*
X3600048Y-34708032D01*
X3491073Y-34637998D01*
X3491070Y-34637996D01*
X3491069Y-34637996D01*
X3486713Y-34636717D01*
X3366776Y-34601501D01*
X3366774Y-34601500D01*
X3366772Y-34601500D01*
X3237228Y-34601500D01*
X3237225Y-34601500D01*
X3237223Y-34601501D01*
X3112933Y-34637995D01*
X3112926Y-34637998D01*
X3003951Y-34708032D01*
X2921775Y-34802871D01*
X2919118Y-34805937D01*
X2865303Y-34923774D01*
X2846867Y-35052000D01*
X770500Y-35052000D01*
X770500Y-34804472D01*
X760645Y-34736830D01*
X746567Y-34708032D01*
X709637Y-34632489D01*
X627510Y-34550362D01*
X523171Y-34499355D01*
X455531Y-34489500D01*
X455528Y-34489500D01*
X44472Y-34489500D01*
X44468Y-34489500D01*
X-23172Y-34499355D01*
X-127511Y-34550362D01*
X-209635Y-34632486D01*
X-212655Y-34636717D01*
X-268518Y-34680534D01*
X-315199Y-34689500D01*
X-316744Y-34689500D01*
X-384865Y-34669498D01*
X-405140Y-34651930D01*
X-405142Y-34651933D01*
X-411953Y-34646031D01*
X-520927Y-34575998D01*
X-520930Y-34575996D01*
X-520931Y-34575996D01*
X-520934Y-34575995D01*
X-645224Y-34539501D01*
X-645226Y-34539500D01*
X-645228Y-34539500D01*
X-774772Y-34539500D01*
X-774775Y-34539500D01*
X-774777Y-34539501D01*
X-899067Y-34575995D01*
X-899074Y-34575998D01*
X-1008049Y-34646032D01*
X-1086722Y-34736828D01*
X-1092882Y-34743937D01*
X-1146697Y-34861774D01*
X-1165133Y-34990000D01*
X-8052853Y-34990000D01*
X-8020363Y-34957510D01*
X-7973562Y-34861775D01*
X-7969355Y-34853170D01*
X-7959500Y-34785528D01*
X-7959500Y-34424472D01*
X-7969355Y-34356830D01*
X-7991010Y-34312533D01*
X-8002025Y-34290000D01*
X4116867Y-34290000D01*
X4135303Y-34418226D01*
X4189118Y-34536063D01*
X4273951Y-34633967D01*
X4382931Y-34704004D01*
X4507228Y-34740500D01*
X4507232Y-34740500D01*
X4636768Y-34740500D01*
X4636772Y-34740500D01*
X4761069Y-34704004D01*
X4870049Y-34633967D01*
X4954882Y-34536063D01*
X5008697Y-34418226D01*
X5027133Y-34290000D01*
X5008697Y-34161774D01*
X4954882Y-34043937D01*
X4870049Y-33946033D01*
X4870048Y-33946032D01*
X4761073Y-33875998D01*
X4761070Y-33875996D01*
X4761069Y-33875996D01*
X4749200Y-33872511D01*
X4636776Y-33839501D01*
X4636774Y-33839500D01*
X4636772Y-33839500D01*
X4507228Y-33839500D01*
X4507225Y-33839500D01*
X4507223Y-33839501D01*
X4382933Y-33875995D01*
X4382926Y-33875998D01*
X4273951Y-33946032D01*
X4213759Y-34015499D01*
X4189118Y-34043937D01*
X4135303Y-34161774D01*
X4116867Y-34290000D01*
X-8002025Y-34290000D01*
X-8020363Y-34252489D01*
X-8102490Y-34170362D01*
X-8206829Y-34119355D01*
X-8274469Y-34109500D01*
X-8274472Y-34109500D01*
X-8685528Y-34109500D01*
X-8685532Y-34109500D01*
X-8753172Y-34119355D01*
X-8857511Y-34170362D01*
X-8939635Y-34252486D01*
X-8939638Y-34252490D01*
X-8944225Y-34261874D01*
X-8992113Y-34314288D01*
X-9060737Y-34332490D01*
X-9125541Y-34312533D01*
X-9153651Y-34294468D01*
X-9206284Y-34260643D01*
X-9234051Y-34252490D01*
X-9330577Y-34224148D01*
X-9330579Y-34224147D01*
X-9330581Y-34224147D01*
X-9460125Y-34224147D01*
X-9460128Y-34224147D01*
X-9460130Y-34224148D01*
X-9584420Y-34260642D01*
X-9584427Y-34260645D01*
X-9693402Y-34330679D01*
X-9716061Y-34356830D01*
X-9778235Y-34428584D01*
X-9832050Y-34546421D01*
X-9850486Y-34674647D01*
X-11692286Y-34674647D01*
X-11689500Y-34655528D01*
X-11689500Y-34294472D01*
X-11699355Y-34226830D01*
X-11731158Y-34161775D01*
X-11750363Y-34122489D01*
X-11832490Y-34040362D01*
X-11936829Y-33989355D01*
X-12004469Y-33979500D01*
X-12004472Y-33979500D01*
X-12415528Y-33979500D01*
X-12415532Y-33979500D01*
X-12483172Y-33989355D01*
X-12587511Y-34040362D01*
X-12669638Y-34122489D01*
X-12720645Y-34226828D01*
X-12730500Y-34294468D01*
X-13439500Y-34294468D01*
X-13439500Y-33339468D01*
X-11430500Y-33339468D01*
X-11430500Y-33700531D01*
X-11420645Y-33768171D01*
X-11369638Y-33872510D01*
X-11287511Y-33954637D01*
X-11216492Y-33989355D01*
X-11183170Y-34005645D01*
X-11115528Y-34015500D01*
X-11115522Y-34015500D01*
X-10704478Y-34015500D01*
X-10704472Y-34015500D01*
X-10636830Y-34005645D01*
X-10581300Y-33978498D01*
X-10532490Y-33954637D01*
X-10532487Y-33954634D01*
X-10442981Y-33865129D01*
X-10441100Y-33867010D01*
X-10397371Y-33832708D01*
X-10326688Y-33826045D01*
X-10285033Y-33847584D01*
X-10282563Y-33843742D01*
X-10232374Y-33875996D01*
X-10166001Y-33918651D01*
X-10041704Y-33955147D01*
X-10041700Y-33955147D01*
X-9912164Y-33955147D01*
X-9912160Y-33955147D01*
X-9787863Y-33918651D01*
X-9678883Y-33848614D01*
X-9594050Y-33750710D01*
X-9572519Y-33703563D01*
X-9526027Y-33649909D01*
X-9457907Y-33629907D01*
X-9449620Y-33630500D01*
X-9444772Y-33630500D01*
X-9315232Y-33630500D01*
X-9315228Y-33630500D01*
X-9190931Y-33594004D01*
X-9081951Y-33523967D01*
X-9081949Y-33523964D01*
X-9080191Y-33522442D01*
X-9078069Y-33521472D01*
X-9074369Y-33519095D01*
X-9074028Y-33519626D01*
X-9015612Y-33492946D01*
X-8945337Y-33503047D01*
X-8908580Y-33528568D01*
X-8857511Y-33579637D01*
X-8755445Y-33629533D01*
X-8753170Y-33630645D01*
X-8685528Y-33640500D01*
X-8685522Y-33640500D01*
X-8274478Y-33640500D01*
X-8274472Y-33640500D01*
X-8206830Y-33630645D01*
X-8131873Y-33594001D01*
X-8102490Y-33579637D01*
X-8050853Y-33528000D01*
X2846867Y-33528000D01*
X2865303Y-33656226D01*
X2919118Y-33774063D01*
X3003951Y-33871967D01*
X3112931Y-33942004D01*
X3237228Y-33978500D01*
X3237232Y-33978500D01*
X3366768Y-33978500D01*
X3366772Y-33978500D01*
X3491069Y-33942004D01*
X3600049Y-33871967D01*
X3684882Y-33774063D01*
X3738697Y-33656226D01*
X3757133Y-33528000D01*
X5386867Y-33528000D01*
X5405303Y-33656226D01*
X5459118Y-33774063D01*
X5543951Y-33871967D01*
X5652931Y-33942004D01*
X5777228Y-33978500D01*
X5777232Y-33978500D01*
X5906768Y-33978500D01*
X5906772Y-33978500D01*
X6031069Y-33942004D01*
X6140049Y-33871967D01*
X6224882Y-33774063D01*
X6278697Y-33656226D01*
X6297133Y-33528000D01*
X6278697Y-33399774D01*
X6224882Y-33281937D01*
X6140049Y-33184033D01*
X6140048Y-33184032D01*
X6031073Y-33113998D01*
X6031070Y-33113996D01*
X6031069Y-33113996D01*
X6031066Y-33113995D01*
X5906776Y-33077501D01*
X5906774Y-33077500D01*
X5906772Y-33077500D01*
X5777228Y-33077500D01*
X5777225Y-33077500D01*
X5777223Y-33077501D01*
X5652933Y-33113995D01*
X5652926Y-33113998D01*
X5543951Y-33184032D01*
X5513219Y-33219500D01*
X5459118Y-33281937D01*
X5405303Y-33399774D01*
X5386867Y-33528000D01*
X3757133Y-33528000D01*
X3738697Y-33399774D01*
X3684882Y-33281937D01*
X3600049Y-33184033D01*
X3600048Y-33184032D01*
X3491073Y-33113998D01*
X3491070Y-33113996D01*
X3491069Y-33113996D01*
X3491066Y-33113995D01*
X3366776Y-33077501D01*
X3366774Y-33077500D01*
X3366772Y-33077500D01*
X3237228Y-33077500D01*
X3237225Y-33077500D01*
X3237223Y-33077501D01*
X3112933Y-33113995D01*
X3112926Y-33113998D01*
X3003951Y-33184032D01*
X2973219Y-33219500D01*
X2919118Y-33281937D01*
X2865303Y-33399774D01*
X2846867Y-33528000D01*
X-8050853Y-33528000D01*
X-8020363Y-33497510D01*
X-7972584Y-33399775D01*
X-7969355Y-33393170D01*
X-7959500Y-33325528D01*
X-7959500Y-32964472D01*
X-7969355Y-32896830D01*
X-7988785Y-32857085D01*
X-8020363Y-32792489D01*
X-8046852Y-32766000D01*
X4116867Y-32766000D01*
X4135303Y-32894226D01*
X4189118Y-33012063D01*
X4251545Y-33084109D01*
X4273951Y-33109967D01*
X4324716Y-33142592D01*
X4382931Y-33180004D01*
X4507228Y-33216500D01*
X4507232Y-33216500D01*
X4636768Y-33216500D01*
X4636772Y-33216500D01*
X4761069Y-33180004D01*
X4870049Y-33109967D01*
X4954882Y-33012063D01*
X5008697Y-32894226D01*
X5027133Y-32766000D01*
X5008697Y-32637774D01*
X4954882Y-32519937D01*
X4870049Y-32422033D01*
X4870048Y-32422032D01*
X4761073Y-32351998D01*
X4761070Y-32351996D01*
X4761069Y-32351996D01*
X4755436Y-32350342D01*
X4636776Y-32315501D01*
X4636774Y-32315500D01*
X4636772Y-32315500D01*
X4507228Y-32315500D01*
X4507225Y-32315500D01*
X4507223Y-32315501D01*
X4382933Y-32351995D01*
X4382926Y-32351998D01*
X4273951Y-32422032D01*
X4204555Y-32502121D01*
X4189118Y-32519937D01*
X4135303Y-32637774D01*
X4116867Y-32766000D01*
X-8046852Y-32766000D01*
X-8102490Y-32710362D01*
X-8206829Y-32659355D01*
X-8274469Y-32649500D01*
X-8274472Y-32649500D01*
X-8685528Y-32649500D01*
X-8685532Y-32649500D01*
X-8753171Y-32659355D01*
X-8798163Y-32681350D01*
X-8868147Y-32693298D01*
X-8933481Y-32665513D01*
X-8973421Y-32606816D01*
X-8979500Y-32568152D01*
X-8979500Y-32214478D01*
X-8979500Y-32214472D01*
X-8989355Y-32146830D01*
X-8997583Y-32130000D01*
X-9040363Y-32042489D01*
X-9122490Y-31960362D01*
X-9226829Y-31909355D01*
X-9294469Y-31899500D01*
X-9294472Y-31899500D01*
X-9705528Y-31899500D01*
X-9705532Y-31899500D01*
X-9773172Y-31909355D01*
X-9877511Y-31960362D01*
X-9959634Y-32042485D01*
X-9959638Y-32042491D01*
X-9985692Y-32095782D01*
X-10033581Y-32148195D01*
X-10035878Y-32149554D01*
X-10047973Y-32156537D01*
X-10154032Y-32262596D01*
X-10216344Y-32296621D01*
X-10243127Y-32299500D01*
X-10336868Y-32299500D01*
X-10336871Y-32299500D01*
X-10336873Y-32299501D01*
X-10461163Y-32335995D01*
X-10461170Y-32335998D01*
X-10570145Y-32406032D01*
X-10632994Y-32478566D01*
X-10654978Y-32503937D01*
X-10708793Y-32621774D01*
X-10727229Y-32750000D01*
X-10711833Y-32857085D01*
X-10708456Y-32880569D01*
X-10718560Y-32950843D01*
X-10765054Y-33004498D01*
X-10833174Y-33024500D01*
X-11115532Y-33024500D01*
X-11183172Y-33034355D01*
X-11287511Y-33085362D01*
X-11369638Y-33167489D01*
X-11420645Y-33271828D01*
X-11430500Y-33339468D01*
X-13439500Y-33339468D01*
X-13439500Y-33241543D01*
X-13419498Y-33173422D01*
X-13402600Y-33152452D01*
X-12997561Y-32747412D01*
X-12935250Y-32713389D01*
X-12864435Y-32718453D01*
X-12840347Y-32730511D01*
X-12814045Y-32747414D01*
X-12787698Y-32764346D01*
X-12663401Y-32800842D01*
X-12663397Y-32800842D01*
X-12533861Y-32800842D01*
X-12533857Y-32800842D01*
X-12409560Y-32764346D01*
X-12300580Y-32694309D01*
X-12215747Y-32596405D01*
X-12161932Y-32478568D01*
X-12143496Y-32350342D01*
X-12161932Y-32222116D01*
X-12215747Y-32104279D01*
X-12300580Y-32006375D01*
X-12300581Y-32006374D01*
X-12409556Y-31936340D01*
X-12409558Y-31936339D01*
X-12409560Y-31936338D01*
X-12441201Y-31927047D01*
X-12500926Y-31888664D01*
X-12530419Y-31824083D01*
X-12530419Y-31788222D01*
X-12527867Y-31770480D01*
X-12546303Y-31642254D01*
X-12600118Y-31524417D01*
X-12684951Y-31426513D01*
X-12684952Y-31426512D01*
X-12793927Y-31356478D01*
X-12793930Y-31356476D01*
X-12793931Y-31356476D01*
X-12799370Y-31354879D01*
X-12918224Y-31319981D01*
X-12918226Y-31319980D01*
X-12918228Y-31319980D01*
X-12941377Y-31319980D01*
X-13009498Y-31299978D01*
X-13055991Y-31246322D01*
X-13066094Y-31211914D01*
X-13073303Y-31161774D01*
X-13127118Y-31043937D01*
X-13211951Y-30946033D01*
X-13211952Y-30946032D01*
X-13320927Y-30875998D01*
X-13320930Y-30875996D01*
X-13320931Y-30875996D01*
X-13320934Y-30875995D01*
X-13445224Y-30839501D01*
X-13445226Y-30839500D01*
X-13445228Y-30839500D01*
X-13574772Y-30839500D01*
X-13574775Y-30839500D01*
X-13574777Y-30839501D01*
X-13699067Y-30875995D01*
X-13699074Y-30875998D01*
X-13808049Y-30946032D01*
X-13892882Y-31043937D01*
X-13946698Y-31161776D01*
X-13946699Y-31161780D01*
X-13964231Y-31283716D01*
X-13993724Y-31348297D01*
X-13999852Y-31354879D01*
X-14684511Y-32039540D01*
X-14684512Y-32039540D01*
X-14740455Y-32095482D01*
X-14740461Y-32095490D01*
X-14780023Y-32164014D01*
X-14800500Y-32240434D01*
X-19865136Y-32240434D01*
X-19866621Y-32239998D01*
X-19913114Y-32186342D01*
X-19924500Y-32134000D01*
X-19924500Y-26560000D01*
X-11755133Y-26560000D01*
X-11736697Y-26688226D01*
X-11682882Y-26806063D01*
X-11603164Y-26898064D01*
X-11598049Y-26903967D01*
X-11494522Y-26970500D01*
X-11489069Y-26974004D01*
X-11364772Y-27010500D01*
X-11364768Y-27010500D01*
X-11235232Y-27010500D01*
X-11235228Y-27010500D01*
X-11110931Y-26974004D01*
X-11001951Y-26903967D01*
X-11001950Y-26903966D01*
X-10999801Y-26901487D01*
X-10997040Y-26899712D01*
X-10995137Y-26898064D01*
X-10994901Y-26898337D01*
X-10940074Y-26863104D01*
X-10904577Y-26858000D01*
X-10767160Y-26858000D01*
X-10699039Y-26878002D01*
X-10653964Y-26928659D01*
X-10649637Y-26937511D01*
X-10567511Y-27019637D01*
X-10473320Y-27065683D01*
X-10463170Y-27070645D01*
X-10395528Y-27080500D01*
X-10395522Y-27080500D01*
X-10034478Y-27080500D01*
X-10034472Y-27080500D01*
X-9966830Y-27070645D01*
X-9887080Y-27031658D01*
X-9862490Y-27019637D01*
X-9862487Y-27019634D01*
X-9819095Y-26976243D01*
X-9756783Y-26942217D01*
X-9685968Y-26947282D01*
X-9640905Y-26976243D01*
X-9597513Y-27019635D01*
X-9568352Y-27033891D01*
X-9515938Y-27081779D01*
X-9514574Y-27084085D01*
X-9503077Y-27103997D01*
X-9503073Y-27104003D01*
X-9483461Y-27137975D01*
X-9483456Y-27137981D01*
X-8882982Y-27738455D01*
X-8882973Y-27738462D01*
X-8858524Y-27752577D01*
X-8858522Y-27752577D01*
X-8858518Y-27752580D01*
X-8815024Y-27777691D01*
X-8815022Y-27777691D01*
X-8815021Y-27777692D01*
X-8812047Y-27778924D01*
X-8808670Y-27781359D01*
X-8807870Y-27781821D01*
X-8807917Y-27781902D01*
X-8765036Y-27812822D01*
X-8742299Y-27839062D01*
X-8738047Y-27843969D01*
X-8665857Y-27890362D01*
X-8629069Y-27914004D01*
X-8504772Y-27950500D01*
X-8504768Y-27950500D01*
X-8375232Y-27950500D01*
X-8375228Y-27950500D01*
X-8250931Y-27914004D01*
X-8141951Y-27843967D01*
X-8057118Y-27746063D01*
X-8051847Y-27734518D01*
X-8026326Y-27697761D01*
X-7734133Y-27405568D01*
X-7687494Y-27358929D01*
X-7625183Y-27324904D01*
X-7554368Y-27329969D01*
X-7497532Y-27372516D01*
X-7473683Y-27430093D01*
X-7456699Y-27548218D01*
X-7456697Y-27548226D01*
X-7404721Y-27662037D01*
X-7394618Y-27732311D01*
X-7424111Y-27796892D01*
X-7483837Y-27835275D01*
X-7501162Y-27839062D01*
X-7503171Y-27839354D01*
X-7607511Y-27890362D01*
X-7689638Y-27972489D01*
X-7740645Y-28076828D01*
X-7750500Y-28144468D01*
X-7750500Y-28555531D01*
X-7740645Y-28623171D01*
X-7689638Y-28727510D01*
X-7607511Y-28809637D01*
X-7505445Y-28859533D01*
X-7503170Y-28860645D01*
X-7435528Y-28870500D01*
X-7435522Y-28870500D01*
X-7074478Y-28870500D01*
X-7074472Y-28870500D01*
X-7006830Y-28860645D01*
X-6954660Y-28835140D01*
X-6902490Y-28809637D01*
X-6902487Y-28809634D01*
X-6827757Y-28734905D01*
X-6765445Y-28700879D01*
X-6738662Y-28698000D01*
X-6660768Y-28698000D01*
X-6489600Y-28698000D01*
X-6421479Y-28718002D01*
X-6400505Y-28734905D01*
X-6395752Y-28739658D01*
X-6355828Y-28760000D01*
X-6277420Y-28799951D01*
X-6179246Y-28815500D01*
X-6179244Y-28815500D01*
X-5675756Y-28815500D01*
X-5675754Y-28815500D01*
X-5577580Y-28799951D01*
X-5499172Y-28760000D01*
X-1165133Y-28760000D01*
X-1146697Y-28888226D01*
X-1092882Y-29006063D01*
X-1008049Y-29103967D01*
X-977662Y-29123496D01*
X-931168Y-29177150D01*
X-921063Y-29247424D01*
X-950555Y-29312004D01*
X-1012881Y-29383934D01*
X-1012881Y-29383935D01*
X-1012882Y-29383936D01*
X-1012882Y-29383937D01*
X-1066697Y-29501774D01*
X-1085133Y-29630000D01*
X-1066697Y-29758226D01*
X-1012882Y-29876063D01*
X-928049Y-29973967D01*
X-873534Y-30009002D01*
X-827041Y-30062657D01*
X-816936Y-30132931D01*
X-846429Y-30197512D01*
X-873534Y-30220998D01*
X-928049Y-30256032D01*
X-965713Y-30299500D01*
X-1012882Y-30353937D01*
X-1066697Y-30471774D01*
X-1085133Y-30600000D01*
X-1066697Y-30728226D01*
X-1012882Y-30846063D01*
X-948990Y-30919799D01*
X-919497Y-30984381D01*
X-929602Y-31054654D01*
X-948989Y-31084821D01*
X-982882Y-31123937D01*
X-1036697Y-31241774D01*
X-1055133Y-31370000D01*
X-1036697Y-31498226D01*
X-982882Y-31616063D01*
X-943323Y-31661717D01*
X-933322Y-31673259D01*
X-903830Y-31737840D01*
X-913935Y-31808114D01*
X-933322Y-31838280D01*
X-972881Y-31883934D01*
X-972881Y-31883935D01*
X-972882Y-31883936D01*
X-972882Y-31883937D01*
X-1026697Y-32001774D01*
X-1045133Y-32130000D01*
X-1026697Y-32258226D01*
X-972882Y-32376063D01*
X-946914Y-32406032D01*
X-888049Y-32473967D01*
X-785303Y-32539998D01*
X-779069Y-32544004D01*
X-654772Y-32580500D01*
X-654768Y-32580500D01*
X-525232Y-32580500D01*
X-525228Y-32580500D01*
X-400931Y-32544004D01*
X-291951Y-32473967D01*
X-207118Y-32376063D01*
X-153303Y-32258226D01*
X-134867Y-32130000D01*
X-153303Y-32001774D01*
X-207118Y-31883937D01*
X-207120Y-31883934D01*
X-256678Y-31826740D01*
X-286171Y-31762159D01*
X-276066Y-31691885D01*
X-256682Y-31661722D01*
X-217118Y-31616063D01*
X-163303Y-31498226D01*
X-144867Y-31370000D01*
X-163303Y-31241774D01*
X-183691Y-31197131D01*
X-193796Y-31126857D01*
X-164303Y-31062276D01*
X-104577Y-31023892D01*
X-33580Y-31023892D01*
X-13739Y-31031591D01*
X-7512Y-31034635D01*
X-7511Y-31034636D01*
X96830Y-31085645D01*
X164472Y-31095500D01*
X164478Y-31095500D01*
X575522Y-31095500D01*
X575528Y-31095500D01*
X643170Y-31085645D01*
X695340Y-31060140D01*
X747510Y-31034637D01*
X829637Y-30952510D01*
X867042Y-30875995D01*
X880645Y-30848170D01*
X890500Y-30780528D01*
X890500Y-30419472D01*
X880645Y-30351830D01*
X855063Y-30299500D01*
X829637Y-30247489D01*
X773743Y-30191595D01*
X739717Y-30129283D01*
X744782Y-30058468D01*
X773743Y-30013405D01*
X809634Y-29977513D01*
X809637Y-29977510D01*
X835140Y-29925340D01*
X860645Y-29873170D01*
X870500Y-29805528D01*
X870500Y-29637389D01*
X3779900Y-29637389D01*
X3779900Y-31276890D01*
X3788471Y-31319981D01*
X3791533Y-31335371D01*
X3835848Y-31401692D01*
X3902169Y-31446007D01*
X3960652Y-31457640D01*
X3960653Y-31457640D01*
X5600147Y-31457640D01*
X5600148Y-31457640D01*
X5658631Y-31446007D01*
X5724952Y-31401692D01*
X5769267Y-31335371D01*
X5780900Y-31276888D01*
X5780900Y-29637392D01*
X5769267Y-29578909D01*
X5724952Y-29512588D01*
X5658631Y-29468273D01*
X5658628Y-29468272D01*
X5600150Y-29456640D01*
X5600148Y-29456640D01*
X3960652Y-29456640D01*
X3960649Y-29456640D01*
X3902171Y-29468272D01*
X3902168Y-29468273D01*
X3835848Y-29512588D01*
X3791533Y-29578908D01*
X3791532Y-29578911D01*
X3779900Y-29637389D01*
X870500Y-29637389D01*
X870500Y-29444472D01*
X860645Y-29376830D01*
X819142Y-29291933D01*
X809637Y-29272489D01*
X727510Y-29190362D01*
X623171Y-29139355D01*
X555531Y-29129500D01*
X555528Y-29129500D01*
X144472Y-29129500D01*
X144468Y-29129500D01*
X76828Y-29139355D01*
X-27511Y-29190362D01*
X-109635Y-29272486D01*
X-112655Y-29276717D01*
X-168518Y-29320534D01*
X-215199Y-29329500D01*
X-236744Y-29329500D01*
X-304865Y-29309498D01*
X-325140Y-29291930D01*
X-325142Y-29291933D01*
X-331949Y-29286035D01*
X-331950Y-29286034D01*
X-331951Y-29286033D01*
X-362342Y-29266502D01*
X-408833Y-29212848D01*
X-418938Y-29142574D01*
X-389445Y-29077994D01*
X-327120Y-29006065D01*
X-327118Y-29006063D01*
X-273303Y-28888226D01*
X-254867Y-28760000D01*
X-273303Y-28631774D01*
X-327118Y-28513937D01*
X-411951Y-28416033D01*
X-411952Y-28416032D01*
X-520927Y-28345998D01*
X-520930Y-28345996D01*
X-520931Y-28345996D01*
X-527841Y-28343967D01*
X-645224Y-28309501D01*
X-645226Y-28309500D01*
X-645228Y-28309500D01*
X-774772Y-28309500D01*
X-774775Y-28309500D01*
X-774777Y-28309501D01*
X-899067Y-28345995D01*
X-899074Y-28345998D01*
X-1008049Y-28416032D01*
X-1092880Y-28513935D01*
X-1092881Y-28513935D01*
X-1092882Y-28513936D01*
X-1092882Y-28513937D01*
X-1146697Y-28631774D01*
X-1165133Y-28760000D01*
X-5499172Y-28760000D01*
X-5459249Y-28739658D01*
X-5365342Y-28645751D01*
X-5305049Y-28527420D01*
X-5289500Y-28429246D01*
X-5289500Y-27850754D01*
X-5305049Y-27752580D01*
X-5308370Y-27746063D01*
X-5365342Y-27634248D01*
X-5459249Y-27540341D01*
X-5577582Y-27480048D01*
X-5644658Y-27469425D01*
X-5675754Y-27464500D01*
X-6179246Y-27464500D01*
X-6206091Y-27468751D01*
X-6277419Y-27480048D01*
X-6368819Y-27526619D01*
X-6438596Y-27539723D01*
X-6504381Y-27513023D01*
X-6515117Y-27503447D01*
X-6529555Y-27489009D01*
X-6563581Y-27426697D01*
X-6565173Y-27417876D01*
X-6583303Y-27291774D01*
X-6637118Y-27173937D01*
X-6721951Y-27076033D01*
X-6721952Y-27076032D01*
X-6792011Y-27031008D01*
X-6838504Y-26977353D01*
X-6848609Y-26907079D01*
X-6837088Y-26869671D01*
X-6814355Y-26823170D01*
X-6804500Y-26755528D01*
X-6804500Y-26670000D01*
X-4925133Y-26670000D01*
X-4906697Y-26798226D01*
X-4852882Y-26916063D01*
X-4797164Y-26980366D01*
X-4768049Y-27013967D01*
X-4664522Y-27080500D01*
X-4659069Y-27084004D01*
X-4534772Y-27120500D01*
X-4534768Y-27120500D01*
X-4405232Y-27120500D01*
X-4405228Y-27120500D01*
X-4280931Y-27084004D01*
X-4171951Y-27013967D01*
X-4171949Y-27013964D01*
X-4165142Y-27008067D01*
X-4164290Y-27009051D01*
X-4112238Y-26975603D01*
X-4076744Y-26970500D01*
X-3661869Y-26970500D01*
X-3593748Y-26990502D01*
X-3547255Y-27044158D01*
X-3537151Y-27114431D01*
X-3545149Y-27170062D01*
X-3555133Y-27239500D01*
X-3536697Y-27367726D01*
X-3482882Y-27485563D01*
X-3420312Y-27557774D01*
X-3398049Y-27583467D01*
X-3319031Y-27634249D01*
X-3289069Y-27653504D01*
X-3164772Y-27690000D01*
X-3164768Y-27690000D01*
X-3035232Y-27690000D01*
X-3035228Y-27690000D01*
X-2910931Y-27653504D01*
X-2823742Y-27597471D01*
X-2755624Y-27577470D01*
X-2687503Y-27597472D01*
X-2683538Y-27600440D01*
X-2569074Y-27674001D01*
X-2569069Y-27674004D01*
X-2444772Y-27710500D01*
X-2444768Y-27710500D01*
X-2307659Y-27710500D01*
X-2239538Y-27730502D01*
X-2193045Y-27784158D01*
X-2182941Y-27854432D01*
X-2186663Y-27871536D01*
X-2186697Y-27871774D01*
X-2205133Y-28000000D01*
X-2186697Y-28128226D01*
X-2132882Y-28246063D01*
X-2048049Y-28343967D01*
X-1939069Y-28414004D01*
X-1814772Y-28450500D01*
X-1814768Y-28450500D01*
X-1685232Y-28450500D01*
X-1685228Y-28450500D01*
X-1560931Y-28414004D01*
X-1451951Y-28343967D01*
X-1367118Y-28246063D01*
X-1313303Y-28128226D01*
X-1294867Y-28000000D01*
X-1303494Y-27940000D01*
X2846867Y-27940000D01*
X2865303Y-28068226D01*
X2919118Y-28186063D01*
X3003951Y-28283967D01*
X3100468Y-28345995D01*
X3112931Y-28354004D01*
X3237228Y-28390500D01*
X3237232Y-28390500D01*
X3366768Y-28390500D01*
X3366772Y-28390500D01*
X3491069Y-28354004D01*
X3600049Y-28283967D01*
X3684882Y-28186063D01*
X3738697Y-28068226D01*
X3757133Y-27940000D01*
X3738697Y-27811774D01*
X3684882Y-27693937D01*
X3678005Y-27686000D01*
X5386867Y-27686000D01*
X5405303Y-27814226D01*
X5459118Y-27932063D01*
X5543951Y-28029967D01*
X5652931Y-28100004D01*
X5777228Y-28136500D01*
X5777232Y-28136500D01*
X5906768Y-28136500D01*
X5906772Y-28136500D01*
X6031069Y-28100004D01*
X6140049Y-28029967D01*
X6224882Y-27932063D01*
X6278697Y-27814226D01*
X6297133Y-27686000D01*
X6278697Y-27557774D01*
X6224882Y-27439937D01*
X6140049Y-27342033D01*
X6140048Y-27342032D01*
X6031073Y-27271998D01*
X6031070Y-27271996D01*
X6031069Y-27271996D01*
X6031066Y-27271995D01*
X5906776Y-27235501D01*
X5906774Y-27235500D01*
X5906772Y-27235500D01*
X5777228Y-27235500D01*
X5777225Y-27235500D01*
X5777223Y-27235501D01*
X5652933Y-27271995D01*
X5652926Y-27271998D01*
X5543951Y-27342032D01*
X5476393Y-27420000D01*
X5459118Y-27439937D01*
X5405303Y-27557774D01*
X5386867Y-27686000D01*
X3678005Y-27686000D01*
X3600049Y-27596033D01*
X3600048Y-27596032D01*
X3491073Y-27525998D01*
X3491070Y-27525996D01*
X3491069Y-27525996D01*
X3423182Y-27506063D01*
X3366776Y-27489501D01*
X3366774Y-27489500D01*
X3366772Y-27489500D01*
X3237228Y-27489500D01*
X3237225Y-27489500D01*
X3237223Y-27489501D01*
X3112933Y-27525995D01*
X3112926Y-27525998D01*
X3003951Y-27596032D01*
X2936392Y-27674001D01*
X2919118Y-27693937D01*
X2865303Y-27811774D01*
X2846867Y-27940000D01*
X-1303494Y-27940000D01*
X-1313303Y-27871774D01*
X-1367118Y-27753937D01*
X-1451951Y-27656033D01*
X-1451952Y-27656032D01*
X-1560927Y-27585998D01*
X-1560930Y-27585996D01*
X-1560931Y-27585996D01*
X-1569544Y-27583467D01*
X-1685224Y-27549501D01*
X-1685226Y-27549500D01*
X-1685228Y-27549500D01*
X-1814772Y-27549500D01*
X-1822341Y-27549500D01*
X-1890462Y-27529498D01*
X-1936955Y-27475842D01*
X-1947059Y-27405568D01*
X-1943338Y-27388463D01*
X-1943305Y-27388228D01*
X-1943303Y-27388226D01*
X-1924867Y-27260000D01*
X-1943303Y-27131774D01*
X-1943304Y-27131772D01*
X-1944586Y-27122854D01*
X-1943237Y-27122660D01*
X-1943237Y-27061003D01*
X-1904854Y-27001276D01*
X-1840274Y-26971783D01*
X-1822341Y-26970500D01*
X1275741Y-26970500D01*
X1343860Y-26990501D01*
X1380431Y-27014004D01*
X1504728Y-27050500D01*
X1504732Y-27050500D01*
X1634268Y-27050500D01*
X1634272Y-27050500D01*
X1758569Y-27014004D01*
X1867549Y-26943967D01*
X1884850Y-26924000D01*
X4116867Y-26924000D01*
X4135303Y-27052226D01*
X4189118Y-27170063D01*
X4249284Y-27239499D01*
X4273951Y-27267967D01*
X4310995Y-27291774D01*
X4382931Y-27338004D01*
X4507228Y-27374500D01*
X4507232Y-27374500D01*
X4636768Y-27374500D01*
X4636772Y-27374500D01*
X4761069Y-27338004D01*
X4870049Y-27267967D01*
X4954882Y-27170063D01*
X5008697Y-27052226D01*
X5027133Y-26924000D01*
X5008697Y-26795774D01*
X4954882Y-26677937D01*
X4870049Y-26580033D01*
X4870048Y-26580032D01*
X4761073Y-26509998D01*
X4761070Y-26509996D01*
X4761069Y-26509996D01*
X4761066Y-26509995D01*
X4636776Y-26473501D01*
X4636774Y-26473500D01*
X4636772Y-26473500D01*
X4507228Y-26473500D01*
X4507225Y-26473500D01*
X4507223Y-26473501D01*
X4382933Y-26509995D01*
X4382926Y-26509998D01*
X4273951Y-26580032D01*
X4221996Y-26639993D01*
X4189118Y-26677937D01*
X4135303Y-26795774D01*
X4116867Y-26924000D01*
X1884850Y-26924000D01*
X1952382Y-26846063D01*
X2006197Y-26728226D01*
X2024633Y-26600000D01*
X2006197Y-26471774D01*
X1952382Y-26353937D01*
X1867549Y-26256033D01*
X1867548Y-26256032D01*
X1758573Y-26185998D01*
X1758570Y-26185996D01*
X1758569Y-26185996D01*
X1746622Y-26182488D01*
X1676845Y-26162000D01*
X2846867Y-26162000D01*
X2865303Y-26290226D01*
X2919118Y-26408063D01*
X2980667Y-26479095D01*
X3003951Y-26505967D01*
X3078693Y-26554001D01*
X3112931Y-26576004D01*
X3237228Y-26612500D01*
X3237232Y-26612500D01*
X3366768Y-26612500D01*
X3366772Y-26612500D01*
X3491069Y-26576004D01*
X3600049Y-26505967D01*
X3684882Y-26408063D01*
X3738697Y-26290226D01*
X3757133Y-26162000D01*
X5386867Y-26162000D01*
X5405303Y-26290226D01*
X5459118Y-26408063D01*
X5520667Y-26479095D01*
X5543951Y-26505967D01*
X5618693Y-26554001D01*
X5652931Y-26576004D01*
X5777228Y-26612500D01*
X5777232Y-26612500D01*
X5906768Y-26612500D01*
X5906772Y-26612500D01*
X6031069Y-26576004D01*
X6140049Y-26505967D01*
X6224882Y-26408063D01*
X6278697Y-26290226D01*
X6297133Y-26162000D01*
X6278697Y-26033774D01*
X6224882Y-25915937D01*
X6140049Y-25818033D01*
X6140048Y-25818032D01*
X6031073Y-25747998D01*
X6031070Y-25747996D01*
X6031069Y-25747996D01*
X6031066Y-25747995D01*
X5906776Y-25711501D01*
X5906774Y-25711500D01*
X5906772Y-25711500D01*
X5777228Y-25711500D01*
X5777225Y-25711500D01*
X5777223Y-25711501D01*
X5652933Y-25747995D01*
X5652926Y-25747998D01*
X5543951Y-25818032D01*
X5482117Y-25889394D01*
X5459118Y-25915937D01*
X5405303Y-26033774D01*
X5386867Y-26162000D01*
X3757133Y-26162000D01*
X3738697Y-26033774D01*
X3684882Y-25915937D01*
X3600049Y-25818033D01*
X3600048Y-25818032D01*
X3491073Y-25747998D01*
X3491070Y-25747996D01*
X3491069Y-25747996D01*
X3491066Y-25747995D01*
X3366776Y-25711501D01*
X3366774Y-25711500D01*
X3366772Y-25711500D01*
X3237228Y-25711500D01*
X3237225Y-25711500D01*
X3237223Y-25711501D01*
X3112933Y-25747995D01*
X3112926Y-25747998D01*
X3003951Y-25818032D01*
X2942117Y-25889394D01*
X2919118Y-25915937D01*
X2865303Y-26033774D01*
X2846867Y-26162000D01*
X1676845Y-26162000D01*
X1634276Y-26149501D01*
X1634274Y-26149500D01*
X1634272Y-26149500D01*
X1504728Y-26149500D01*
X1504725Y-26149500D01*
X1504723Y-26149501D01*
X1380433Y-26185995D01*
X1380426Y-26185998D01*
X1271450Y-26256032D01*
X1210814Y-26326012D01*
X1151088Y-26364396D01*
X1115589Y-26369500D01*
X-4076744Y-26369500D01*
X-4144865Y-26349498D01*
X-4165140Y-26331930D01*
X-4165142Y-26331933D01*
X-4171953Y-26326031D01*
X-4280927Y-26255998D01*
X-4280930Y-26255996D01*
X-4280931Y-26255996D01*
X-4322624Y-26243754D01*
X-4405224Y-26219501D01*
X-4405226Y-26219500D01*
X-4405228Y-26219500D01*
X-4534772Y-26219500D01*
X-4534775Y-26219500D01*
X-4534777Y-26219501D01*
X-4659067Y-26255995D01*
X-4659074Y-26255998D01*
X-4768049Y-26326032D01*
X-4839127Y-26408063D01*
X-4852882Y-26423937D01*
X-4906697Y-26541774D01*
X-4925133Y-26670000D01*
X-6804500Y-26670000D01*
X-6804500Y-26580978D01*
X-6784498Y-26512857D01*
X-6730842Y-26466364D01*
X-6660568Y-26456260D01*
X-6606751Y-26480837D01*
X-6605631Y-26479095D01*
X-6508098Y-26541775D01*
X-6489069Y-26554004D01*
X-6364772Y-26590500D01*
X-6364768Y-26590500D01*
X-6235232Y-26590500D01*
X-6235228Y-26590500D01*
X-6110931Y-26554004D01*
X-6001951Y-26483967D01*
X-5917118Y-26386063D01*
X-5863303Y-26268226D01*
X-5844867Y-26140000D01*
X-5863303Y-26011774D01*
X-5917118Y-25893937D01*
X-5958727Y-25845917D01*
X-5988218Y-25781337D01*
X-5989500Y-25763407D01*
X-5989500Y-25400000D01*
X4116867Y-25400000D01*
X4135303Y-25528226D01*
X4189118Y-25646063D01*
X4270795Y-25740325D01*
X4273951Y-25743967D01*
X4374282Y-25808446D01*
X4382931Y-25814004D01*
X4507228Y-25850500D01*
X4507232Y-25850500D01*
X4636768Y-25850500D01*
X4636772Y-25850500D01*
X4761069Y-25814004D01*
X4870049Y-25743967D01*
X4954882Y-25646063D01*
X5008697Y-25528226D01*
X5027133Y-25400000D01*
X5008697Y-25271774D01*
X4954882Y-25153937D01*
X4870049Y-25056033D01*
X4870048Y-25056032D01*
X4761073Y-24985998D01*
X4761070Y-24985996D01*
X4761069Y-24985996D01*
X4754152Y-24983965D01*
X4636776Y-24949501D01*
X4636774Y-24949500D01*
X4636772Y-24949500D01*
X4507228Y-24949500D01*
X4507225Y-24949500D01*
X4507223Y-24949501D01*
X4382933Y-24985995D01*
X4382926Y-24985998D01*
X4273951Y-25056032D01*
X4192541Y-25149987D01*
X4189118Y-25153937D01*
X4135303Y-25271774D01*
X4116867Y-25400000D01*
X-5989500Y-25400000D01*
X-5989500Y-25362801D01*
X-5985207Y-25330190D01*
X-5977000Y-25299562D01*
X-5977000Y-25220438D01*
X-5977000Y-24638000D01*
X2846867Y-24638000D01*
X2865303Y-24766226D01*
X2919118Y-24884063D01*
X3003951Y-24981967D01*
X3112931Y-25052004D01*
X3237228Y-25088500D01*
X3237232Y-25088500D01*
X3366768Y-25088500D01*
X3366772Y-25088500D01*
X3491069Y-25052004D01*
X3600049Y-24981967D01*
X3684882Y-24884063D01*
X3738697Y-24766226D01*
X3757133Y-24638000D01*
X5386867Y-24638000D01*
X5405303Y-24766226D01*
X5459118Y-24884063D01*
X5543951Y-24981967D01*
X5652931Y-25052004D01*
X5777228Y-25088500D01*
X5777232Y-25088500D01*
X5906768Y-25088500D01*
X5906772Y-25088500D01*
X6031069Y-25052004D01*
X6140049Y-24981967D01*
X6224882Y-24884063D01*
X6278697Y-24766226D01*
X6297133Y-24638000D01*
X6278697Y-24509774D01*
X6224882Y-24391937D01*
X6140049Y-24294033D01*
X6140048Y-24294032D01*
X6031073Y-24223998D01*
X6031070Y-24223996D01*
X6031069Y-24223996D01*
X6031066Y-24223995D01*
X5906776Y-24187501D01*
X5906774Y-24187500D01*
X5906772Y-24187500D01*
X5777228Y-24187500D01*
X5777225Y-24187500D01*
X5777223Y-24187501D01*
X5652933Y-24223995D01*
X5652926Y-24223998D01*
X5543951Y-24294032D01*
X5474515Y-24374168D01*
X5459118Y-24391937D01*
X5405303Y-24509774D01*
X5386867Y-24638000D01*
X3757133Y-24638000D01*
X3738697Y-24509774D01*
X3684882Y-24391937D01*
X3600049Y-24294033D01*
X3600048Y-24294032D01*
X3491073Y-24223998D01*
X3491070Y-24223996D01*
X3491069Y-24223996D01*
X3491066Y-24223995D01*
X3366776Y-24187501D01*
X3366774Y-24187500D01*
X3366772Y-24187500D01*
X3237228Y-24187500D01*
X3237225Y-24187500D01*
X3237223Y-24187501D01*
X3112933Y-24223995D01*
X3112926Y-24223998D01*
X3003951Y-24294032D01*
X2934515Y-24374168D01*
X2919118Y-24391937D01*
X2865303Y-24509774D01*
X2846867Y-24638000D01*
X-5977000Y-24638000D01*
X-5977000Y-23740000D01*
X1414867Y-23740000D01*
X1433303Y-23868226D01*
X1487118Y-23986063D01*
X1571951Y-24083967D01*
X1680931Y-24154004D01*
X1805228Y-24190500D01*
X1805232Y-24190500D01*
X1934768Y-24190500D01*
X1934772Y-24190500D01*
X2059069Y-24154004D01*
X2168049Y-24083967D01*
X2252882Y-23986063D01*
X2303147Y-23876000D01*
X4116867Y-23876000D01*
X4135303Y-24004226D01*
X4189118Y-24122063D01*
X4273951Y-24219967D01*
X4382931Y-24290004D01*
X4507228Y-24326500D01*
X4507232Y-24326500D01*
X4636768Y-24326500D01*
X4636772Y-24326500D01*
X4761069Y-24290004D01*
X4870049Y-24219967D01*
X4954882Y-24122063D01*
X5008697Y-24004226D01*
X5027133Y-23876000D01*
X5008697Y-23747774D01*
X4954882Y-23629937D01*
X4870049Y-23532033D01*
X4870048Y-23532032D01*
X4761073Y-23461998D01*
X4761070Y-23461996D01*
X4761069Y-23461996D01*
X4661733Y-23432829D01*
X4636776Y-23425501D01*
X4636774Y-23425500D01*
X4636772Y-23425500D01*
X4507228Y-23425500D01*
X4507225Y-23425500D01*
X4507223Y-23425501D01*
X4382933Y-23461995D01*
X4382926Y-23461998D01*
X4273951Y-23532032D01*
X4204856Y-23611774D01*
X4189118Y-23629937D01*
X4135303Y-23747774D01*
X4116867Y-23876000D01*
X2303147Y-23876000D01*
X2306697Y-23868226D01*
X2325133Y-23740000D01*
X2306697Y-23611774D01*
X2252882Y-23493937D01*
X2168049Y-23396033D01*
X2168048Y-23396032D01*
X2059073Y-23325998D01*
X2059070Y-23325996D01*
X2059069Y-23325996D01*
X2059066Y-23325995D01*
X1934776Y-23289501D01*
X1934774Y-23289500D01*
X1934772Y-23289500D01*
X1805228Y-23289500D01*
X1805225Y-23289500D01*
X1805223Y-23289501D01*
X1680933Y-23325995D01*
X1680926Y-23325998D01*
X1571951Y-23396032D01*
X1514793Y-23461998D01*
X1487118Y-23493937D01*
X1433303Y-23611774D01*
X1414867Y-23740000D01*
X-5977000Y-23740000D01*
X-5977000Y-23314707D01*
X-5956998Y-23246586D01*
X-5903342Y-23200093D01*
X-5892615Y-23195778D01*
X-5828823Y-23173456D01*
X-5828823Y-23173455D01*
X-5828821Y-23173455D01*
X-5721070Y-23093930D01*
X-5641545Y-22986179D01*
X-5597314Y-22859774D01*
X-5594500Y-22829764D01*
X-5594500Y-21810236D01*
X-5597314Y-21780226D01*
X-5597315Y-21780222D01*
X-5641544Y-21653822D01*
X-5678312Y-21604004D01*
X-5721070Y-21546070D01*
X-5784830Y-21499012D01*
X-5828823Y-21466543D01*
X-5955224Y-21422314D01*
X-5955222Y-21422314D01*
X-5985235Y-21419500D01*
X-5985236Y-21419500D01*
X-6579764Y-21419500D01*
X-6579766Y-21419500D01*
X-6609778Y-21422314D01*
X-6736178Y-21466543D01*
X-6843930Y-21546070D01*
X-6923457Y-21653822D01*
X-6967686Y-21780222D01*
X-6970500Y-21810234D01*
X-6970500Y-22829765D01*
X-6967686Y-22859777D01*
X-6923457Y-22986177D01*
X-6890441Y-23030911D01*
X-6843930Y-23093930D01*
X-6758546Y-23156947D01*
X-6736178Y-23173456D01*
X-6662385Y-23199277D01*
X-6604693Y-23240655D01*
X-6578531Y-23306655D01*
X-6578000Y-23318206D01*
X-6578000Y-25169698D01*
X-6582293Y-25202308D01*
X-6590500Y-25232937D01*
X-6590500Y-25740325D01*
X-6610502Y-25808446D01*
X-6621274Y-25822836D01*
X-6682882Y-25893937D01*
X-6736698Y-26011776D01*
X-6736700Y-26011784D01*
X-6737253Y-26015632D01*
X-6738868Y-26019165D01*
X-6739236Y-26020422D01*
X-6739417Y-26020368D01*
X-6766750Y-26080211D01*
X-6826478Y-26118591D01*
X-6897475Y-26118587D01*
X-6937748Y-26094689D01*
X-6938991Y-26096431D01*
X-6947490Y-26090362D01*
X-6982033Y-26073476D01*
X-7034448Y-26025588D01*
X-7052651Y-25956965D01*
X-7030865Y-25889394D01*
X-7021928Y-25877776D01*
X-6977118Y-25826063D01*
X-6923303Y-25708226D01*
X-6904867Y-25580000D01*
X-6923303Y-25451774D01*
X-6977118Y-25333937D01*
X-7061951Y-25236033D01*
X-7061952Y-25236032D01*
X-7170927Y-25165998D01*
X-7170930Y-25165996D01*
X-7170931Y-25165996D01*
X-7212001Y-25153937D01*
X-7295224Y-25129501D01*
X-7295226Y-25129500D01*
X-7295228Y-25129500D01*
X-7424772Y-25129500D01*
X-7424775Y-25129500D01*
X-7424777Y-25129501D01*
X-7549067Y-25165995D01*
X-7549069Y-25165996D01*
X-7649118Y-25230293D01*
X-7717239Y-25250294D01*
X-7785360Y-25230291D01*
X-7812459Y-25206809D01*
X-7849228Y-25164375D01*
X-7878718Y-25099794D01*
X-7880000Y-25081866D01*
X-7880000Y-25025245D01*
X-7871806Y-24984048D01*
X-7872116Y-24983965D01*
X-7870845Y-24979220D01*
X-7870408Y-24977025D01*
X-7869982Y-24975994D01*
X-7869978Y-24975988D01*
X-7849500Y-24899562D01*
X-7849500Y-24880499D01*
X-7829498Y-24812378D01*
X-7780703Y-24768232D01*
X-7776762Y-24766224D01*
X-7744249Y-24749658D01*
X-7650342Y-24655751D01*
X-7590049Y-24537420D01*
X-7574500Y-24439246D01*
X-7574500Y-23860754D01*
X-7590049Y-23762580D01*
X-7620196Y-23703414D01*
X-7650342Y-23644248D01*
X-7744247Y-23550343D01*
X-7780704Y-23531767D01*
X-7832319Y-23483019D01*
X-7849500Y-23419501D01*
X-7849500Y-23313832D01*
X-7829498Y-23245711D01*
X-7775842Y-23199218D01*
X-7765121Y-23194904D01*
X-7703821Y-23173455D01*
X-7596070Y-23093930D01*
X-7516545Y-22986179D01*
X-7472314Y-22859774D01*
X-7469500Y-22829764D01*
X-7469500Y-21810236D01*
X-7472314Y-21780226D01*
X-7472315Y-21780222D01*
X-7516544Y-21653822D01*
X-7553312Y-21604004D01*
X-7596070Y-21546070D01*
X-7659830Y-21499012D01*
X-7703823Y-21466543D01*
X-7830224Y-21422314D01*
X-7830222Y-21422314D01*
X-7860235Y-21419500D01*
X-7860236Y-21419500D01*
X-8369331Y-21419500D01*
X-8437452Y-21399498D01*
X-8483945Y-21345842D01*
X-8494049Y-21275568D01*
X-8464555Y-21210988D01*
X-8440334Y-21190000D01*
X1444867Y-21190000D01*
X1463303Y-21318226D01*
X1517118Y-21436063D01*
X1601951Y-21533967D01*
X1710931Y-21604004D01*
X1835228Y-21640500D01*
X1835232Y-21640500D01*
X1964768Y-21640500D01*
X1964772Y-21640500D01*
X2089069Y-21604004D01*
X2198049Y-21533967D01*
X2282882Y-21436063D01*
X2336697Y-21318226D01*
X2355133Y-21190000D01*
X2336697Y-21061774D01*
X2298680Y-20978529D01*
X3739260Y-20978529D01*
X3739260Y-20978532D01*
X3739260Y-22618028D01*
X3750893Y-22676511D01*
X3795208Y-22742832D01*
X3861529Y-22787147D01*
X3920012Y-22798780D01*
X3920013Y-22798780D01*
X5559507Y-22798780D01*
X5559508Y-22798780D01*
X5617991Y-22787147D01*
X5684312Y-22742832D01*
X5728627Y-22676511D01*
X5740260Y-22618028D01*
X5740260Y-20978532D01*
X5728627Y-20920049D01*
X5684312Y-20853728D01*
X5617991Y-20809413D01*
X5617988Y-20809412D01*
X5559510Y-20797780D01*
X5559508Y-20797780D01*
X3920012Y-20797780D01*
X3920009Y-20797780D01*
X3861531Y-20809412D01*
X3861528Y-20809413D01*
X3795208Y-20853728D01*
X3750893Y-20920048D01*
X3750892Y-20920051D01*
X3739260Y-20978529D01*
X2298680Y-20978529D01*
X2282882Y-20943937D01*
X2198049Y-20846033D01*
X2198048Y-20846032D01*
X2089073Y-20775998D01*
X2089070Y-20775996D01*
X2089069Y-20775996D01*
X2089066Y-20775995D01*
X1964776Y-20739501D01*
X1964774Y-20739500D01*
X1964772Y-20739500D01*
X1835228Y-20739500D01*
X1835225Y-20739500D01*
X1835223Y-20739501D01*
X1710933Y-20775995D01*
X1710926Y-20775998D01*
X1601951Y-20846032D01*
X1537817Y-20920049D01*
X1517118Y-20943937D01*
X1463303Y-21061774D01*
X1444867Y-21190000D01*
X-8440334Y-21190000D01*
X-8437450Y-21187501D01*
X-8437358Y-21187441D01*
X-8431951Y-21183967D01*
X-8347118Y-21086063D01*
X-8293303Y-20968226D01*
X-8274867Y-20840000D01*
X-8293303Y-20711774D01*
X-8347118Y-20593937D01*
X-8391152Y-20543118D01*
X-8420705Y-20509011D01*
X-8450197Y-20444430D01*
X-8440092Y-20374156D01*
X-8393598Y-20320501D01*
X-8325479Y-20300500D01*
X-793256Y-20300500D01*
X-725135Y-20320502D01*
X-704861Y-20338069D01*
X-704858Y-20338067D01*
X-698048Y-20343968D01*
X-681736Y-20354451D01*
X-589069Y-20414004D01*
X-464772Y-20450500D01*
X-464768Y-20450500D01*
X-335232Y-20450500D01*
X-335228Y-20450500D01*
X-210931Y-20414004D01*
X-101951Y-20343967D01*
X-17118Y-20246063D01*
X36697Y-20128226D01*
X55133Y-20000000D01*
X36697Y-19871774D01*
X9399Y-19812000D01*
X4116867Y-19812000D01*
X4135303Y-19940226D01*
X4189118Y-20058063D01*
X4273951Y-20155967D01*
X4382931Y-20226004D01*
X4507228Y-20262500D01*
X4507232Y-20262500D01*
X4636768Y-20262500D01*
X4636772Y-20262500D01*
X4761069Y-20226004D01*
X4870049Y-20155967D01*
X4954882Y-20058063D01*
X5008697Y-19940226D01*
X5027133Y-19812000D01*
X5008697Y-19683774D01*
X4954882Y-19565937D01*
X4870049Y-19468033D01*
X4870048Y-19468032D01*
X4761073Y-19397998D01*
X4761070Y-19397996D01*
X4761069Y-19397996D01*
X4761066Y-19397995D01*
X4636776Y-19361501D01*
X4636774Y-19361500D01*
X4636772Y-19361500D01*
X4507228Y-19361500D01*
X4507225Y-19361500D01*
X4507223Y-19361501D01*
X4382933Y-19397995D01*
X4382926Y-19397998D01*
X4273951Y-19468032D01*
X4203360Y-19549501D01*
X4189118Y-19565937D01*
X4135303Y-19683774D01*
X4116867Y-19812000D01*
X9399Y-19812000D01*
X-17118Y-19753937D01*
X-101951Y-19656033D01*
X-101952Y-19656032D01*
X-210927Y-19585998D01*
X-210930Y-19585996D01*
X-210931Y-19585996D01*
X-287707Y-19563453D01*
X-335224Y-19549501D01*
X-335226Y-19549500D01*
X-335228Y-19549500D01*
X-464772Y-19549500D01*
X-464775Y-19549500D01*
X-464777Y-19549501D01*
X-589067Y-19585995D01*
X-589074Y-19585998D01*
X-698048Y-19656031D01*
X-704858Y-19661933D01*
X-705711Y-19660948D01*
X-757762Y-19694397D01*
X-793256Y-19699500D01*
X-9106744Y-19699500D01*
X-9174865Y-19679498D01*
X-9195140Y-19661930D01*
X-9195142Y-19661933D01*
X-9201953Y-19656031D01*
X-9310927Y-19585998D01*
X-9310930Y-19585996D01*
X-9310931Y-19585996D01*
X-9387707Y-19563453D01*
X-9435224Y-19549501D01*
X-9435226Y-19549500D01*
X-9435228Y-19549500D01*
X-9564772Y-19549500D01*
X-9564775Y-19549500D01*
X-9564777Y-19549501D01*
X-9689067Y-19585995D01*
X-9689074Y-19585998D01*
X-9798049Y-19656032D01*
X-9835713Y-19699500D01*
X-9882882Y-19753937D01*
X-9936697Y-19871774D01*
X-9955133Y-20000000D01*
X-9936697Y-20128226D01*
X-9882882Y-20246063D01*
X-9798049Y-20343967D01*
X-9689069Y-20414004D01*
X-9564772Y-20450500D01*
X-9564768Y-20450500D01*
X-9435232Y-20450500D01*
X-9435228Y-20450500D01*
X-9310931Y-20414004D01*
X-9249387Y-20374452D01*
X-9181269Y-20354451D01*
X-9113149Y-20374453D01*
X-9066656Y-20428108D01*
X-9056551Y-20498382D01*
X-9086042Y-20562961D01*
X-9112882Y-20593937D01*
X-9166697Y-20711774D01*
X-9185133Y-20840000D01*
X-9166697Y-20968226D01*
X-9112882Y-21086063D01*
X-9028050Y-21183966D01*
X-9028049Y-21183967D01*
X-8986004Y-21210988D01*
X-8919069Y-21254004D01*
X-8794772Y-21290500D01*
X-8794768Y-21290500D01*
X-8755555Y-21290500D01*
X-8687434Y-21310502D01*
X-8640941Y-21364158D01*
X-8630837Y-21434432D01*
X-8660331Y-21499012D01*
X-8680733Y-21517879D01*
X-8718930Y-21546070D01*
X-8798457Y-21653822D01*
X-8842686Y-21780222D01*
X-8845500Y-21810234D01*
X-8845500Y-22829765D01*
X-8842686Y-22859777D01*
X-8798457Y-22986177D01*
X-8765441Y-23030911D01*
X-8718930Y-23093930D01*
X-8633546Y-23156947D01*
X-8611178Y-23173456D01*
X-8534885Y-23200152D01*
X-8477193Y-23241530D01*
X-8451031Y-23307530D01*
X-8450500Y-23319081D01*
X-8450500Y-23364708D01*
X-8470502Y-23432829D01*
X-8524158Y-23479322D01*
X-8556790Y-23489157D01*
X-8562419Y-23490048D01*
X-8680752Y-23550341D01*
X-8774659Y-23644248D01*
X-8834952Y-23762581D01*
X-8850500Y-23860755D01*
X-8850500Y-24439244D01*
X-8834952Y-24537418D01*
X-8774659Y-24655751D01*
X-8680752Y-24749658D01*
X-8553584Y-24814453D01*
X-8554933Y-24817098D01*
X-8509467Y-24848179D01*
X-8481823Y-24913573D01*
X-8481000Y-24927950D01*
X-8481000Y-25081866D01*
X-8501002Y-25149987D01*
X-8511774Y-25164376D01*
X-8563382Y-25223937D01*
X-8617197Y-25341774D01*
X-8635633Y-25470000D01*
X-8617197Y-25598226D01*
X-8563382Y-25716063D01*
X-8498293Y-25791181D01*
X-8478549Y-25813967D01*
X-8421703Y-25850500D01*
X-8369569Y-25884004D01*
X-8245272Y-25920500D01*
X-8245268Y-25920500D01*
X-8115732Y-25920500D01*
X-8115728Y-25920500D01*
X-7991431Y-25884004D01*
X-7891382Y-25819706D01*
X-7823263Y-25799705D01*
X-7755142Y-25819707D01*
X-7728042Y-25843190D01*
X-7665007Y-25915937D01*
X-7655051Y-25927427D01*
X-7625559Y-25992008D01*
X-7635664Y-26062282D01*
X-7661181Y-26099033D01*
X-7734638Y-26172489D01*
X-7785645Y-26276828D01*
X-7795500Y-26344468D01*
X-7795500Y-26571872D01*
X-7815502Y-26639993D01*
X-7832405Y-26660968D01*
X-8203096Y-27031658D01*
X-8265408Y-27065683D01*
X-8327687Y-27063459D01*
X-8375228Y-27049500D01*
X-8504772Y-27049500D01*
X-8504775Y-27049501D01*
X-8606428Y-27079347D01*
X-8677425Y-27079345D01*
X-8731019Y-27047545D01*
X-8756828Y-27021736D01*
X-8790854Y-26959424D01*
X-8785789Y-26888609D01*
X-8780930Y-26877302D01*
X-8759355Y-26833170D01*
X-8749500Y-26765528D01*
X-8749500Y-26354472D01*
X-8759355Y-26286830D01*
X-8770872Y-26263271D01*
X-8810363Y-26182489D01*
X-8892490Y-26100362D01*
X-8996829Y-26049355D01*
X-9064469Y-26039500D01*
X-9064472Y-26039500D01*
X-9425528Y-26039500D01*
X-9425532Y-26039500D01*
X-9493172Y-26049355D01*
X-9597511Y-26100362D01*
X-9597514Y-26100365D01*
X-9640905Y-26143757D01*
X-9703217Y-26177783D01*
X-9774032Y-26172718D01*
X-9819095Y-26143757D01*
X-9862490Y-26100362D01*
X-9966829Y-26049355D01*
X-10034469Y-26039500D01*
X-10034472Y-26039500D01*
X-10395528Y-26039500D01*
X-10395532Y-26039500D01*
X-10463172Y-26049355D01*
X-10567511Y-26100362D01*
X-10649637Y-26182488D01*
X-10653964Y-26191341D01*
X-10701853Y-26243754D01*
X-10767160Y-26262000D01*
X-10904577Y-26262000D01*
X-10972698Y-26241998D01*
X-10999801Y-26218513D01*
X-11001950Y-26216033D01*
X-11110927Y-26145998D01*
X-11110930Y-26145996D01*
X-11110931Y-26145996D01*
X-11110934Y-26145995D01*
X-11235224Y-26109501D01*
X-11235226Y-26109500D01*
X-11235228Y-26109500D01*
X-11364772Y-26109500D01*
X-11364775Y-26109500D01*
X-11364777Y-26109501D01*
X-11489067Y-26145995D01*
X-11489074Y-26145998D01*
X-11598049Y-26216032D01*
X-11659394Y-26286830D01*
X-11682882Y-26313937D01*
X-11736697Y-26431774D01*
X-11755133Y-26560000D01*
X-19924500Y-26560000D01*
X-19924500Y-19563453D01*
X-19904498Y-19495332D01*
X-19850842Y-19448839D01*
X-19780568Y-19438735D01*
X-19730382Y-19457453D01*
X-19689069Y-19484004D01*
X-19564772Y-19520500D01*
X-19564768Y-19520500D01*
X-19435232Y-19520500D01*
X-19435228Y-19520500D01*
X-19310931Y-19484004D01*
X-19201951Y-19413967D01*
X-19117118Y-19316063D01*
X-19063303Y-19198226D01*
X-19044867Y-19070000D01*
X-11485133Y-19070000D01*
X-11466697Y-19198226D01*
X-11412882Y-19316063D01*
X-11341888Y-19397996D01*
X-11328049Y-19413967D01*
X-11243921Y-19468033D01*
X-11219069Y-19484004D01*
X-11094772Y-19520500D01*
X-11094768Y-19520500D01*
X-10965232Y-19520500D01*
X-10965228Y-19520500D01*
X-10840931Y-19484004D01*
X-10731951Y-19413967D01*
X-10647118Y-19316063D01*
X-10593303Y-19198226D01*
X-10574867Y-19070000D01*
X-10593303Y-18941774D01*
X-10647118Y-18823937D01*
X-10731951Y-18726033D01*
X-10731952Y-18726032D01*
X-10772459Y-18700000D01*
X-9755133Y-18700000D01*
X-9736697Y-18828226D01*
X-9682882Y-18946063D01*
X-9598049Y-19043967D01*
X-9489069Y-19114004D01*
X-9364772Y-19150500D01*
X-9364768Y-19150500D01*
X-9235232Y-19150500D01*
X-9235228Y-19150500D01*
X-9110931Y-19114004D01*
X-9042459Y-19070000D01*
X-9012119Y-19050502D01*
X-8943999Y-19030500D01*
X-2153911Y-19030500D01*
X-2085790Y-19050502D01*
X-2058686Y-19073988D01*
X-1998050Y-19143967D01*
X-1889074Y-19214001D01*
X-1889069Y-19214004D01*
X-1764772Y-19250500D01*
X-1764768Y-19250500D01*
X-1635232Y-19250500D01*
X-1635228Y-19250500D01*
X-1510931Y-19214004D01*
X-1401951Y-19143967D01*
X-1317118Y-19046063D01*
X-1263303Y-18928226D01*
X-1244867Y-18800000D01*
X-1263303Y-18671774D01*
X-1317118Y-18553937D01*
X-1401951Y-18456033D01*
X-1401952Y-18456032D01*
X-1510927Y-18385998D01*
X-1510930Y-18385996D01*
X-1510931Y-18385996D01*
X-1612978Y-18356033D01*
X-1635224Y-18349501D01*
X-1635226Y-18349500D01*
X-1635228Y-18349500D01*
X-1764772Y-18349500D01*
X-1764775Y-18349500D01*
X-1764777Y-18349501D01*
X-1889067Y-18385995D01*
X-1889069Y-18385995D01*
X-1889069Y-18385996D01*
X-1925640Y-18409498D01*
X-1993759Y-18429500D01*
X-3960681Y-18429500D01*
X-4028802Y-18409498D01*
X-4075295Y-18355842D01*
X-4085399Y-18285568D01*
X-4070117Y-18244600D01*
X-4070862Y-18244260D01*
X-4067120Y-18236064D01*
X-4067118Y-18236063D01*
X-4013303Y-18118226D01*
X-3994867Y-17990000D01*
X-4013303Y-17861774D01*
X-4067118Y-17743937D01*
X-4087859Y-17720000D01*
X-3725133Y-17720000D01*
X-3706697Y-17848226D01*
X-3652882Y-17966063D01*
X-3568049Y-18063967D01*
X-3459069Y-18134004D01*
X-3334772Y-18170500D01*
X-3334768Y-18170500D01*
X-3205232Y-18170500D01*
X-3205228Y-18170500D01*
X-3080931Y-18134004D01*
X-2971951Y-18063967D01*
X-2971949Y-18063964D01*
X-2965142Y-18058067D01*
X-2964290Y-18059051D01*
X-2912238Y-18025603D01*
X-2876744Y-18020500D01*
X-990438Y-18020500D01*
X-914011Y-18000021D01*
X-845489Y-17960460D01*
X-789540Y-17904511D01*
X-775029Y-17890000D01*
X2854867Y-17890000D01*
X2873303Y-18018226D01*
X2927118Y-18136063D01*
X2994653Y-18214004D01*
X3011951Y-18233967D01*
X3094512Y-18287026D01*
X3120931Y-18304004D01*
X3245228Y-18340500D01*
X3245232Y-18340500D01*
X3374768Y-18340500D01*
X3374772Y-18340500D01*
X3499069Y-18304004D01*
X3608049Y-18233967D01*
X3692882Y-18136063D01*
X3736019Y-18041604D01*
X3761534Y-18004857D01*
X4080712Y-17685679D01*
X4143022Y-17651655D01*
X4206379Y-17654200D01*
X4313669Y-17686747D01*
X4313673Y-17686747D01*
X4313675Y-17686748D01*
X4499997Y-17705099D01*
X4500000Y-17705099D01*
X4500003Y-17705099D01*
X4686323Y-17686748D01*
X4686325Y-17686747D01*
X4686331Y-17686747D01*
X4793620Y-17654201D01*
X4865495Y-17632398D01*
X4865495Y-17632397D01*
X4865501Y-17632396D01*
X4939819Y-17592672D01*
X5009321Y-17578201D01*
X5075617Y-17603604D01*
X5088307Y-17614700D01*
X5368462Y-17894855D01*
X5393980Y-17931607D01*
X5437115Y-18026058D01*
X5437116Y-18026060D01*
X5437117Y-18026061D01*
X5437118Y-18026063D01*
X5521951Y-18123967D01*
X5630931Y-18194004D01*
X5755228Y-18230500D01*
X5755232Y-18230500D01*
X5884768Y-18230500D01*
X5884772Y-18230500D01*
X6009069Y-18194004D01*
X6118049Y-18123967D01*
X6202882Y-18026063D01*
X6256697Y-17908226D01*
X6275133Y-17780000D01*
X6256697Y-17651774D01*
X6202882Y-17533937D01*
X6118049Y-17436033D01*
X6118048Y-17436032D01*
X6009069Y-17365996D01*
X5987998Y-17359809D01*
X5934401Y-17328008D01*
X5488388Y-16881995D01*
X5454362Y-16819683D01*
X5452090Y-16780548D01*
X5455099Y-16750001D01*
X5455099Y-16749996D01*
X5436748Y-16563676D01*
X5436746Y-16563665D01*
X5382398Y-16384503D01*
X5382396Y-16384499D01*
X5332834Y-16291775D01*
X5321772Y-16271079D01*
X5307301Y-16201576D01*
X5332705Y-16135280D01*
X5343793Y-16122598D01*
X5934401Y-15531990D01*
X5987998Y-15500190D01*
X6009069Y-15494004D01*
X6118049Y-15423967D01*
X6202882Y-15326063D01*
X6256697Y-15208226D01*
X6275133Y-15080000D01*
X6256697Y-14951774D01*
X6202882Y-14833937D01*
X6118049Y-14736033D01*
X6118048Y-14736032D01*
X6009073Y-14665998D01*
X6009070Y-14665996D01*
X6009069Y-14665996D01*
X6009066Y-14665995D01*
X5884776Y-14629501D01*
X5884774Y-14629500D01*
X5884772Y-14629500D01*
X5755228Y-14629500D01*
X5755225Y-14629500D01*
X5755223Y-14629501D01*
X5630933Y-14665995D01*
X5630926Y-14665998D01*
X5521948Y-14736033D01*
X5437121Y-14833932D01*
X5437117Y-14833937D01*
X5393981Y-14928390D01*
X5368464Y-14965141D01*
X4634095Y-15699511D01*
X4571782Y-15733536D01*
X4500967Y-15728472D01*
X4455904Y-15699511D01*
X3811536Y-15055143D01*
X3786018Y-15018392D01*
X3742882Y-14923937D01*
X3658049Y-14826033D01*
X3658048Y-14826032D01*
X3549073Y-14755998D01*
X3549070Y-14755996D01*
X3549069Y-14755996D01*
X3537200Y-14752511D01*
X3424776Y-14719501D01*
X3424774Y-14719500D01*
X3424772Y-14719500D01*
X3295228Y-14719500D01*
X3295225Y-14719500D01*
X3295223Y-14719501D01*
X3170933Y-14755995D01*
X3170926Y-14755998D01*
X3061951Y-14826032D01*
X3000597Y-14896840D01*
X2977118Y-14923937D01*
X2923303Y-15041774D01*
X2904867Y-15170000D01*
X2923303Y-15298226D01*
X2977118Y-15416063D01*
X3061951Y-15513967D01*
X3170931Y-15584004D01*
X3192000Y-15590190D01*
X3245599Y-15621992D01*
X3687666Y-16064059D01*
X3721692Y-16126371D01*
X3716627Y-16197186D01*
X3708226Y-16213618D01*
X3708782Y-16213916D01*
X3617603Y-16384499D01*
X3617601Y-16384503D01*
X3563253Y-16563665D01*
X3563251Y-16563676D01*
X3544901Y-16749996D01*
X3544901Y-16750003D01*
X3563251Y-16936323D01*
X3563253Y-16936331D01*
X3572523Y-16966889D01*
X3573157Y-17037883D01*
X3541044Y-17092561D01*
X3195597Y-17438008D01*
X3142003Y-17469808D01*
X3120934Y-17475994D01*
X3120929Y-17475997D01*
X3011949Y-17546033D01*
X2937270Y-17632221D01*
X2927118Y-17643937D01*
X2873303Y-17761774D01*
X2854867Y-17890000D01*
X-775029Y-17890000D01*
X-179540Y-17294511D01*
X-163029Y-17265913D01*
X-139979Y-17225989D01*
X-119500Y-17149562D01*
X-119500Y-14931048D01*
X-99498Y-14862927D01*
X-59694Y-14827513D01*
X-60986Y-14825703D01*
X-52492Y-14819637D01*
X-52489Y-14819636D01*
X29636Y-14737511D01*
X29637Y-14737510D01*
X73312Y-14648170D01*
X80645Y-14633170D01*
X90500Y-14565528D01*
X90500Y-14204472D01*
X80645Y-14136830D01*
X71549Y-14118224D01*
X29637Y-14032489D01*
X-13757Y-13989095D01*
X-47783Y-13926783D01*
X-42718Y-13855968D01*
X-13757Y-13810905D01*
X29634Y-13767513D01*
X29637Y-13767510D01*
X73860Y-13677049D01*
X80645Y-13663170D01*
X90500Y-13595528D01*
X90500Y-13234472D01*
X80645Y-13166830D01*
X36968Y-13077486D01*
X25051Y-13053109D01*
X26756Y-13052275D01*
X7634Y-12997258D01*
X20239Y-12944999D01*
X1699868Y-12944999D01*
X1718304Y-13073225D01*
X1772119Y-13191062D01*
X1856952Y-13288966D01*
X1965932Y-13359003D01*
X2090229Y-13395499D01*
X2090233Y-13395499D01*
X2219769Y-13395499D01*
X2219773Y-13395499D01*
X2344070Y-13359003D01*
X2453050Y-13288966D01*
X2537883Y-13191062D01*
X2591698Y-13073225D01*
X2610134Y-12944999D01*
X2591698Y-12816773D01*
X2537883Y-12698936D01*
X2453050Y-12601032D01*
X2453049Y-12601031D01*
X2344074Y-12530997D01*
X2344071Y-12530995D01*
X2344070Y-12530995D01*
X2344067Y-12530994D01*
X2219777Y-12494500D01*
X2219775Y-12494499D01*
X2219773Y-12494499D01*
X2090229Y-12494499D01*
X2090226Y-12494499D01*
X2090224Y-12494500D01*
X1965934Y-12530994D01*
X1965927Y-12530997D01*
X1856952Y-12601031D01*
X1772119Y-12698936D01*
X1718304Y-12816773D01*
X1699868Y-12944999D01*
X20239Y-12944999D01*
X24281Y-12928241D01*
X44384Y-12902007D01*
X1078987Y-11867405D01*
X1141299Y-11833379D01*
X1168082Y-11830500D01*
X7516135Y-11830500D01*
X7584256Y-11850502D01*
X7627257Y-11897105D01*
X7655862Y-11950623D01*
X7655864Y-11950625D01*
X7774643Y-12095357D01*
X7919375Y-12214136D01*
X8069264Y-12294253D01*
X8084499Y-12302396D01*
X8084503Y-12302398D01*
X8263665Y-12356746D01*
X8263666Y-12356746D01*
X8263669Y-12356747D01*
X8263672Y-12356747D01*
X8263676Y-12356748D01*
X8449997Y-12375099D01*
X8450000Y-12375099D01*
X8450003Y-12375099D01*
X8636323Y-12356748D01*
X8636325Y-12356747D01*
X8636331Y-12356747D01*
X8664449Y-12348217D01*
X8815496Y-12302398D01*
X8815498Y-12302396D01*
X8815501Y-12302396D01*
X8980625Y-12214136D01*
X9125357Y-12095357D01*
X9244136Y-11950625D01*
X9272743Y-11897105D01*
X9322494Y-11846456D01*
X9383865Y-11830500D01*
X10390680Y-11830500D01*
X10458800Y-11850502D01*
X10510926Y-11884001D01*
X10510931Y-11884004D01*
X10635228Y-11920500D01*
X10635232Y-11920500D01*
X10764768Y-11920500D01*
X10764772Y-11920500D01*
X10889069Y-11884004D01*
X10998049Y-11813967D01*
X11082882Y-11716063D01*
X11136697Y-11598226D01*
X11155133Y-11470000D01*
X11136697Y-11341774D01*
X11082882Y-11223937D01*
X10998049Y-11126033D01*
X10998048Y-11126032D01*
X10889073Y-11055998D01*
X10889070Y-11055996D01*
X10889069Y-11055996D01*
X10889066Y-11055995D01*
X10764776Y-11019501D01*
X10764774Y-11019500D01*
X10764772Y-11019500D01*
X10635228Y-11019500D01*
X10635225Y-11019500D01*
X10624799Y-11022562D01*
X10618551Y-11024396D01*
X10583056Y-11029500D01*
X9394556Y-11029500D01*
X9326435Y-11009498D01*
X9283434Y-10962896D01*
X9262311Y-10923379D01*
X9244136Y-10889375D01*
X9125357Y-10744643D01*
X8980625Y-10625864D01*
X8968483Y-10619374D01*
X8815500Y-10537603D01*
X8815496Y-10537601D01*
X8636334Y-10483253D01*
X8636323Y-10483251D01*
X8450003Y-10464901D01*
X8449997Y-10464901D01*
X8263676Y-10483251D01*
X8263665Y-10483253D01*
X8084503Y-10537601D01*
X8084499Y-10537603D01*
X7919374Y-10625864D01*
X7774643Y-10744643D01*
X7655864Y-10889374D01*
X7616566Y-10962896D01*
X7566814Y-11013544D01*
X7505444Y-11029500D01*
X6599548Y-11029500D01*
X6531427Y-11009498D01*
X6484934Y-10955842D01*
X6474830Y-10885568D01*
X6504324Y-10820988D01*
X6531424Y-10797504D01*
X6568049Y-10773967D01*
X6652882Y-10676063D01*
X6706697Y-10558226D01*
X6725133Y-10430000D01*
X6706697Y-10301774D01*
X6652882Y-10183937D01*
X6568049Y-10086033D01*
X6568048Y-10086032D01*
X6459073Y-10015998D01*
X6459070Y-10015996D01*
X6459069Y-10015996D01*
X6383366Y-9993768D01*
X6334776Y-9979501D01*
X6334774Y-9979500D01*
X6334772Y-9979500D01*
X6205228Y-9979500D01*
X6205226Y-9979500D01*
X6205221Y-9979501D01*
X6080936Y-10015993D01*
X6076298Y-10018112D01*
X6023952Y-10029500D01*
X27273Y-10029500D01*
X-27311Y-10044125D01*
X-74585Y-10056792D01*
X-74590Y-10056794D01*
X-81931Y-10061033D01*
X-93132Y-10067500D01*
X-93134Y-10067500D01*
X-165910Y-10109517D01*
X-165916Y-10109522D01*
X-270713Y-10214319D01*
X-333025Y-10248344D01*
X-396384Y-10245798D01*
X-503669Y-10213253D01*
X-503670Y-10213252D01*
X-503676Y-10213251D01*
X-689997Y-10194901D01*
X-690003Y-10194901D01*
X-876324Y-10213251D01*
X-876335Y-10213253D01*
X-1055497Y-10267601D01*
X-1055501Y-10267603D01*
X-1220626Y-10355864D01*
X-1365357Y-10474643D01*
X-1484136Y-10619374D01*
X-1572397Y-10784499D01*
X-1572399Y-10784503D01*
X-1626747Y-10963665D01*
X-1626749Y-10963676D01*
X-1645099Y-11149996D01*
X-1645099Y-11150003D01*
X-1626749Y-11336323D01*
X-1626747Y-11336334D01*
X-1594203Y-11443615D01*
X-1593569Y-11514609D01*
X-1625681Y-11569286D01*
X-1820478Y-11764084D01*
X-1820483Y-11764090D01*
X-1873208Y-11855411D01*
X-1873207Y-11855412D01*
X-1900500Y-11957272D01*
X-1900500Y-12966162D01*
X-1920502Y-13034283D01*
X-1937405Y-13055257D01*
X-1959635Y-13077486D01*
X-1959638Y-13077489D01*
X-2010645Y-13181828D01*
X-2020500Y-13249468D01*
X-2020500Y-13610531D01*
X-2010645Y-13678171D01*
X-1959638Y-13782510D01*
X-1916243Y-13825905D01*
X-1882217Y-13888217D01*
X-1887282Y-13959032D01*
X-1916243Y-14004095D01*
X-1959635Y-14047486D01*
X-1959638Y-14047489D01*
X-2010645Y-14151828D01*
X-2020500Y-14219468D01*
X-2020500Y-14580531D01*
X-2010645Y-14648171D01*
X-1959638Y-14752510D01*
X-1877515Y-14834633D01*
X-1877514Y-14834633D01*
X-1877511Y-14834636D01*
X-1871163Y-14837739D01*
X-1818748Y-14885625D01*
X-1800500Y-14950937D01*
X-1800500Y-16111866D01*
X-1820502Y-16179987D01*
X-1831274Y-16194376D01*
X-1882882Y-16253937D01*
X-1936697Y-16371774D01*
X-1955133Y-16500000D01*
X-1936697Y-16628226D01*
X-1882882Y-16746063D01*
X-1801612Y-16839855D01*
X-1798049Y-16843967D01*
X-1692829Y-16911588D01*
X-1689069Y-16914004D01*
X-1564772Y-16950500D01*
X-1564768Y-16950500D01*
X-1435232Y-16950500D01*
X-1435228Y-16950500D01*
X-1310931Y-16914004D01*
X-1201951Y-16843967D01*
X-1117118Y-16746063D01*
X-1063303Y-16628226D01*
X-1044867Y-16500000D01*
X-1063303Y-16371774D01*
X-1117118Y-16253937D01*
X-1168727Y-16194376D01*
X-1198218Y-16129796D01*
X-1199500Y-16111866D01*
X-1199500Y-14950937D01*
X-1179498Y-14882816D01*
X-1128839Y-14837739D01*
X-1122489Y-14834636D01*
X-1090011Y-14802158D01*
X-1046595Y-14758743D01*
X-984283Y-14724717D01*
X-913468Y-14729782D01*
X-868405Y-14758743D01*
X-807514Y-14819634D01*
X-807515Y-14819634D01*
X-807512Y-14819635D01*
X-807511Y-14819636D01*
X-791163Y-14827627D01*
X-738749Y-14875512D01*
X-720500Y-14940825D01*
X-720500Y-16933339D01*
X-740502Y-17001460D01*
X-757405Y-17022434D01*
X-1117566Y-17382595D01*
X-1179878Y-17416621D01*
X-1206661Y-17419500D01*
X-2876744Y-17419500D01*
X-2944865Y-17399498D01*
X-2965140Y-17381930D01*
X-2965142Y-17381933D01*
X-2971953Y-17376031D01*
X-3080927Y-17305998D01*
X-3080930Y-17305996D01*
X-3080931Y-17305996D01*
X-3120053Y-17294509D01*
X-3205224Y-17269501D01*
X-3205226Y-17269500D01*
X-3205228Y-17269500D01*
X-3334772Y-17269500D01*
X-3334775Y-17269500D01*
X-3334777Y-17269501D01*
X-3459067Y-17305995D01*
X-3459074Y-17305998D01*
X-3568049Y-17376032D01*
X-3637368Y-17456033D01*
X-3652882Y-17473937D01*
X-3706697Y-17591774D01*
X-3725133Y-17720000D01*
X-4087859Y-17720000D01*
X-4151951Y-17646033D01*
X-4151952Y-17646032D01*
X-4260927Y-17575998D01*
X-4260930Y-17575996D01*
X-4260931Y-17575996D01*
X-4277016Y-17571273D01*
X-4385224Y-17539501D01*
X-4385226Y-17539500D01*
X-4385228Y-17539500D01*
X-4514772Y-17539500D01*
X-4514775Y-17539500D01*
X-4514777Y-17539501D01*
X-4639067Y-17575995D01*
X-4639074Y-17575998D01*
X-4748049Y-17646032D01*
X-4812141Y-17720000D01*
X-4832882Y-17743937D01*
X-4886697Y-17861774D01*
X-4905133Y-17990000D01*
X-4886697Y-18118226D01*
X-4832882Y-18236063D01*
X-4832881Y-18236064D01*
X-4829138Y-18244260D01*
X-4830529Y-18244895D01*
X-4813319Y-18303493D01*
X-4833317Y-18371615D01*
X-4886970Y-18418111D01*
X-4939319Y-18429500D01*
X-8880749Y-18429500D01*
X-8948870Y-18409498D01*
X-8975973Y-18386013D01*
X-9001952Y-18356032D01*
X-9001953Y-18356031D01*
X-9110927Y-18285998D01*
X-9110930Y-18285996D01*
X-9110931Y-18285996D01*
X-9110934Y-18285995D01*
X-9235224Y-18249501D01*
X-9235226Y-18249500D01*
X-9235228Y-18249500D01*
X-9364772Y-18249500D01*
X-9364775Y-18249500D01*
X-9364777Y-18249501D01*
X-9489067Y-18285995D01*
X-9489074Y-18285998D01*
X-9598049Y-18356032D01*
X-9644376Y-18409498D01*
X-9682882Y-18453937D01*
X-9736697Y-18571774D01*
X-9755133Y-18700000D01*
X-10772459Y-18700000D01*
X-10840927Y-18655998D01*
X-10840930Y-18655996D01*
X-10840931Y-18655996D01*
X-10840934Y-18655995D01*
X-10965224Y-18619501D01*
X-10965226Y-18619500D01*
X-10965228Y-18619500D01*
X-11094772Y-18619500D01*
X-11094775Y-18619500D01*
X-11094777Y-18619501D01*
X-11219067Y-18655995D01*
X-11219074Y-18655998D01*
X-11328049Y-18726032D01*
X-11392141Y-18800000D01*
X-11412882Y-18823937D01*
X-11466697Y-18941774D01*
X-11485133Y-19070000D01*
X-19044867Y-19070000D01*
X-19063303Y-18941774D01*
X-19117118Y-18823937D01*
X-19201951Y-18726033D01*
X-19201952Y-18726032D01*
X-19310927Y-18655998D01*
X-19310930Y-18655996D01*
X-19310931Y-18655996D01*
X-19310934Y-18655995D01*
X-19435224Y-18619501D01*
X-19435226Y-18619500D01*
X-19435228Y-18619500D01*
X-19564772Y-18619500D01*
X-19564775Y-18619500D01*
X-19564777Y-18619501D01*
X-19689067Y-18655995D01*
X-19689073Y-18655998D01*
X-19730381Y-18682545D01*
X-19798502Y-18702546D01*
X-19866622Y-18682543D01*
X-19913114Y-18628887D01*
X-19924500Y-18576546D01*
X-19924500Y-18287026D01*
X-19904498Y-18218905D01*
X-19850842Y-18172412D01*
X-19780568Y-18162308D01*
X-19730384Y-18181026D01*
X-19679069Y-18214004D01*
X-19554772Y-18250500D01*
X-19554768Y-18250500D01*
X-19425232Y-18250500D01*
X-19425228Y-18250500D01*
X-19300931Y-18214004D01*
X-19191951Y-18143967D01*
X-19107118Y-18046063D01*
X-19053303Y-17928226D01*
X-19034867Y-17800000D01*
X-19053303Y-17671774D01*
X-19107118Y-17553937D01*
X-19191951Y-17456033D01*
X-19191952Y-17456032D01*
X-19300927Y-17385998D01*
X-19300930Y-17385996D01*
X-19300931Y-17385996D01*
X-19312514Y-17382595D01*
X-19425224Y-17349501D01*
X-19425226Y-17349500D01*
X-19425228Y-17349500D01*
X-19554772Y-17349500D01*
X-19554775Y-17349500D01*
X-19554777Y-17349501D01*
X-19679067Y-17385995D01*
X-19679074Y-17385998D01*
X-19730380Y-17418971D01*
X-19798501Y-17438973D01*
X-19866621Y-17418970D01*
X-19913114Y-17365314D01*
X-19924500Y-17312973D01*
X-19924500Y-17036306D01*
X-19904498Y-16968185D01*
X-19850842Y-16921692D01*
X-19780568Y-16911588D01*
X-19730383Y-16930306D01*
X-19709069Y-16944004D01*
X-19584772Y-16980500D01*
X-19584768Y-16980500D01*
X-19455232Y-16980500D01*
X-19455228Y-16980500D01*
X-19330931Y-16944004D01*
X-19221951Y-16873967D01*
X-19137118Y-16776063D01*
X-19083303Y-16658226D01*
X-19064867Y-16530000D01*
X-19080683Y-16420000D01*
X-9785133Y-16420000D01*
X-9766697Y-16548226D01*
X-9712882Y-16666063D01*
X-9643563Y-16746063D01*
X-9628049Y-16763967D01*
X-9514073Y-16837215D01*
X-9467580Y-16890870D01*
X-9457475Y-16961144D01*
X-9486968Y-17025725D01*
X-9514072Y-17049211D01*
X-9618051Y-17116033D01*
X-9698759Y-17209179D01*
X-9702882Y-17213937D01*
X-9756697Y-17331774D01*
X-9775133Y-17460000D01*
X-9756697Y-17588226D01*
X-9702882Y-17706063D01*
X-9654609Y-17761774D01*
X-9618049Y-17803967D01*
X-9528100Y-17861774D01*
X-9509069Y-17874004D01*
X-9384772Y-17910500D01*
X-9384768Y-17910500D01*
X-9255232Y-17910500D01*
X-9255228Y-17910500D01*
X-9130931Y-17874004D01*
X-9021951Y-17803967D01*
X-8937118Y-17706063D01*
X-8883303Y-17588226D01*
X-8864867Y-17460000D01*
X-8883303Y-17331774D01*
X-8937118Y-17213937D01*
X-8979535Y-17164985D01*
X-9021950Y-17116033D01*
X-9135929Y-17042784D01*
X-9182422Y-16989128D01*
X-9192526Y-16918854D01*
X-9163033Y-16854274D01*
X-9135936Y-16830793D01*
X-9031951Y-16763967D01*
X-8947118Y-16666063D01*
X-8893303Y-16548226D01*
X-8874867Y-16420000D01*
X-8893303Y-16291774D01*
X-8947118Y-16173937D01*
X-9031951Y-16076033D01*
X-9031952Y-16076032D01*
X-9140927Y-16005998D01*
X-9140930Y-16005996D01*
X-9140931Y-16005996D01*
X-9140934Y-16005995D01*
X-9265224Y-15969501D01*
X-9265226Y-15969500D01*
X-9265228Y-15969500D01*
X-9394772Y-15969500D01*
X-9394775Y-15969500D01*
X-9394777Y-15969501D01*
X-9519067Y-16005995D01*
X-9519074Y-16005998D01*
X-9628049Y-16076032D01*
X-9691875Y-16149693D01*
X-9712882Y-16173937D01*
X-9766697Y-16291774D01*
X-9785133Y-16420000D01*
X-19080683Y-16420000D01*
X-19083303Y-16401774D01*
X-19137118Y-16283937D01*
X-19221951Y-16186033D01*
X-19221952Y-16186032D01*
X-19330927Y-16115998D01*
X-19330930Y-16115996D01*
X-19330931Y-16115996D01*
X-19330934Y-16115995D01*
X-19455224Y-16079501D01*
X-19455226Y-16079500D01*
X-19455228Y-16079500D01*
X-19584772Y-16079500D01*
X-19584775Y-16079500D01*
X-19584777Y-16079501D01*
X-19709067Y-16115995D01*
X-19709073Y-16115998D01*
X-19730381Y-16129692D01*
X-19798502Y-16149693D01*
X-19866623Y-16129690D01*
X-19913115Y-16076033D01*
X-19924500Y-16023693D01*
X-19924500Y-15809159D01*
X-19904498Y-15741038D01*
X-19850842Y-15694545D01*
X-19780568Y-15684441D01*
X-19737399Y-15700544D01*
X-19737268Y-15700259D01*
X-19733278Y-15702081D01*
X-19730378Y-15703163D01*
X-19729069Y-15704004D01*
X-19604772Y-15740500D01*
X-19604768Y-15740500D01*
X-19475232Y-15740500D01*
X-19475228Y-15740500D01*
X-19350931Y-15704004D01*
X-19241951Y-15633967D01*
X-19157118Y-15536063D01*
X-19103303Y-15418226D01*
X-19086305Y-15300000D01*
X-7955133Y-15300000D01*
X-7936697Y-15428226D01*
X-7882882Y-15546063D01*
X-7850007Y-15584003D01*
X-7798049Y-15643967D01*
X-7704630Y-15704004D01*
X-7689069Y-15714004D01*
X-7564772Y-15750500D01*
X-7564768Y-15750500D01*
X-7435232Y-15750500D01*
X-7435228Y-15750500D01*
X-7310931Y-15714004D01*
X-7201951Y-15643967D01*
X-7117118Y-15546063D01*
X-7063303Y-15428226D01*
X-7044867Y-15300000D01*
X-7063303Y-15171774D01*
X-7117118Y-15053937D01*
X-7201951Y-14956033D01*
X-7201952Y-14956032D01*
X-7310927Y-14885998D01*
X-7310930Y-14885996D01*
X-7310931Y-14885996D01*
X-7311377Y-14885865D01*
X-7435224Y-14849501D01*
X-7435226Y-14849500D01*
X-7435228Y-14849500D01*
X-7564772Y-14849500D01*
X-7564775Y-14849500D01*
X-7564777Y-14849501D01*
X-7689067Y-14885995D01*
X-7689074Y-14885998D01*
X-7798049Y-14956032D01*
X-7852081Y-15018390D01*
X-7882882Y-15053937D01*
X-7936697Y-15171774D01*
X-7955133Y-15300000D01*
X-19086305Y-15300000D01*
X-19084867Y-15290000D01*
X-19103303Y-15161774D01*
X-19157118Y-15043937D01*
X-19241951Y-14946033D01*
X-19241952Y-14946032D01*
X-19350927Y-14875998D01*
X-19350930Y-14875996D01*
X-19350931Y-14875996D01*
X-19398012Y-14862172D01*
X-19475224Y-14839501D01*
X-19475226Y-14839500D01*
X-19475228Y-14839500D01*
X-19604772Y-14839500D01*
X-19604775Y-14839500D01*
X-19604777Y-14839501D01*
X-19729067Y-14875995D01*
X-19729074Y-14875998D01*
X-19730384Y-14876841D01*
X-19731879Y-14877279D01*
X-19737268Y-14879741D01*
X-19737622Y-14878965D01*
X-19798505Y-14896840D01*
X-19866625Y-14876835D01*
X-19913116Y-14823177D01*
X-19924500Y-14770840D01*
X-19924500Y-14509159D01*
X-19904498Y-14441038D01*
X-19850842Y-14394545D01*
X-19780568Y-14384441D01*
X-19737399Y-14400544D01*
X-19737268Y-14400259D01*
X-19733278Y-14402081D01*
X-19730378Y-14403163D01*
X-19729069Y-14404004D01*
X-19604772Y-14440500D01*
X-19604768Y-14440500D01*
X-19475232Y-14440500D01*
X-19475228Y-14440500D01*
X-19350931Y-14404004D01*
X-19241951Y-14333967D01*
X-19157118Y-14236063D01*
X-19103303Y-14118226D01*
X-19084867Y-13990000D01*
X-19103303Y-13861774D01*
X-19157118Y-13743937D01*
X-19241951Y-13646033D01*
X-19241952Y-13646032D01*
X-19350927Y-13575998D01*
X-19350930Y-13575996D01*
X-19350931Y-13575996D01*
X-19350934Y-13575995D01*
X-19475224Y-13539501D01*
X-19475226Y-13539500D01*
X-19475228Y-13539500D01*
X-19604772Y-13539500D01*
X-19604775Y-13539500D01*
X-19604777Y-13539501D01*
X-19729067Y-13575995D01*
X-19729074Y-13575998D01*
X-19730384Y-13576841D01*
X-19731879Y-13577279D01*
X-19737268Y-13579741D01*
X-19737622Y-13578965D01*
X-19798505Y-13596840D01*
X-19866625Y-13576835D01*
X-19913116Y-13523177D01*
X-19924500Y-13470840D01*
X-19924500Y-11400000D01*
X-17815133Y-11400000D01*
X-17796697Y-11528226D01*
X-17742882Y-11646063D01*
X-17658049Y-11743967D01*
X-17549069Y-11814004D01*
X-17424772Y-11850500D01*
X-17424768Y-11850500D01*
X-17295232Y-11850500D01*
X-17295228Y-11850500D01*
X-17170931Y-11814004D01*
X-17061951Y-11743967D01*
X-16977118Y-11646063D01*
X-16923303Y-11528226D01*
X-16905770Y-11406279D01*
X-16876278Y-11341701D01*
X-16870163Y-11335132D01*
X-16492433Y-10957404D01*
X-16430121Y-10923379D01*
X-16403338Y-10920500D01*
X-8373256Y-10920500D01*
X-8305135Y-10940502D01*
X-8284861Y-10958069D01*
X-8284858Y-10958067D01*
X-8278048Y-10963968D01*
X-8169074Y-11034001D01*
X-8169069Y-11034004D01*
X-8044772Y-11070500D01*
X-8044768Y-11070500D01*
X-7915232Y-11070500D01*
X-7915228Y-11070500D01*
X-7790931Y-11034004D01*
X-7681951Y-10963967D01*
X-7681949Y-10963964D01*
X-7675142Y-10958067D01*
X-7674290Y-10959051D01*
X-7622238Y-10925603D01*
X-7586744Y-10920500D01*
X-6886500Y-10920500D01*
X-6818379Y-10940502D01*
X-6771886Y-10994158D01*
X-6760500Y-11046500D01*
X-6760500Y-14250326D01*
X-6780502Y-14318447D01*
X-6791275Y-14332837D01*
X-6852881Y-14403934D01*
X-6852881Y-14403935D01*
X-6852882Y-14403936D01*
X-6852882Y-14403937D01*
X-6906697Y-14521774D01*
X-6925133Y-14650000D01*
X-6906697Y-14778226D01*
X-6852882Y-14896063D01*
X-6805334Y-14950937D01*
X-6768049Y-14993967D01*
X-6684783Y-15047479D01*
X-6659069Y-15064004D01*
X-6534772Y-15100500D01*
X-6534768Y-15100500D01*
X-6405232Y-15100500D01*
X-6405228Y-15100500D01*
X-6280931Y-15064004D01*
X-6171951Y-14993967D01*
X-6087118Y-14896063D01*
X-6033303Y-14778226D01*
X-6014867Y-14650000D01*
X-6033303Y-14521774D01*
X-6087118Y-14403937D01*
X-6128727Y-14355917D01*
X-6158218Y-14291337D01*
X-6159500Y-14273407D01*
X-6159500Y-14075000D01*
X-5905133Y-14075000D01*
X-5886697Y-14203226D01*
X-5832882Y-14321063D01*
X-5748049Y-14418967D01*
X-5639069Y-14489004D01*
X-5514772Y-14525500D01*
X-5514768Y-14525500D01*
X-5385232Y-14525500D01*
X-5385228Y-14525500D01*
X-5260931Y-14489004D01*
X-5151951Y-14418967D01*
X-5067118Y-14321063D01*
X-5013303Y-14203226D01*
X-4994867Y-14075000D01*
X-5013303Y-13946774D01*
X-5067118Y-13828937D01*
X-5151951Y-13731033D01*
X-5151952Y-13731032D01*
X-5260927Y-13660998D01*
X-5260930Y-13660996D01*
X-5260931Y-13660996D01*
X-5277694Y-13656074D01*
X-5385224Y-13624501D01*
X-5385226Y-13624500D01*
X-5385228Y-13624500D01*
X-5514772Y-13624500D01*
X-5514775Y-13624500D01*
X-5514777Y-13624501D01*
X-5639067Y-13660995D01*
X-5639074Y-13660998D01*
X-5748049Y-13731032D01*
X-5830255Y-13825905D01*
X-5832882Y-13828937D01*
X-5886697Y-13946774D01*
X-5905133Y-14075000D01*
X-6159500Y-14075000D01*
X-6159500Y-10580438D01*
X-6159501Y-10580434D01*
X-6179978Y-10504014D01*
X-6179979Y-10504013D01*
X-6179979Y-10504011D01*
X-6219540Y-10435489D01*
X-6219543Y-10435486D01*
X-6219546Y-10435482D01*
X-6275483Y-10379545D01*
X-6275487Y-10379542D01*
X-6275489Y-10379540D01*
X-6344011Y-10339979D01*
X-6344012Y-10339978D01*
X-6344015Y-10339977D01*
X-6420435Y-10319500D01*
X-6420438Y-10319500D01*
X-7586744Y-10319500D01*
X-7654865Y-10299498D01*
X-7675140Y-10281930D01*
X-7675142Y-10281933D01*
X-7681953Y-10276031D01*
X-7790927Y-10205998D01*
X-7790930Y-10205996D01*
X-7790931Y-10205996D01*
X-7828718Y-10194901D01*
X-7915224Y-10169501D01*
X-7915226Y-10169500D01*
X-7915228Y-10169500D01*
X-8044772Y-10169500D01*
X-8044775Y-10169500D01*
X-8044777Y-10169501D01*
X-8169067Y-10205995D01*
X-8169074Y-10205998D01*
X-8278048Y-10276031D01*
X-8284858Y-10281933D01*
X-8285711Y-10280948D01*
X-8337762Y-10314397D01*
X-8373256Y-10319500D01*
X-16540438Y-10319500D01*
X-16619562Y-10319500D01*
X-16660516Y-10330473D01*
X-16695986Y-10339977D01*
X-16695993Y-10339980D01*
X-16764508Y-10379537D01*
X-16764514Y-10379542D01*
X-16918195Y-10533224D01*
X-17297568Y-10912596D01*
X-17359878Y-10946620D01*
X-17386661Y-10949500D01*
X-17424772Y-10949500D01*
X-17424775Y-10949500D01*
X-17424777Y-10949501D01*
X-17549067Y-10985995D01*
X-17549074Y-10985998D01*
X-17658049Y-11056032D01*
X-17739467Y-11149996D01*
X-17742882Y-11153937D01*
X-17796697Y-11271774D01*
X-17815133Y-11400000D01*
X-19924500Y-11400000D01*
X-19924500Y1750000D01*
X-17255647Y1750000D01*
X-17238041Y1627543D01*
X-17235165Y1607544D01*
X-17175377Y1476627D01*
X-17081127Y1367856D01*
X-17020591Y1328952D01*
X-16960053Y1290047D01*
X-16821961Y1249500D01*
X-16678039Y1249500D01*
X-16539947Y1290047D01*
X-16418872Y1367857D01*
X-16324623Y1476627D01*
X-16264835Y1607543D01*
X-16244353Y1750000D01*
X-16247742Y1773574D01*
X-13668549Y1773574D01*
X-13668549Y-4994098D01*
X-13668549Y-5079804D01*
X-13646367Y-5162590D01*
X-13646366Y-5162592D01*
X-13646365Y-5162594D01*
X-13603517Y-5236809D01*
X-13603509Y-5236819D01*
X-12509869Y-6330459D01*
X-12509864Y-6330463D01*
X-12509862Y-6330465D01*
X-12435639Y-6373318D01*
X-12352853Y-6395500D01*
X-12163714Y-6395500D01*
X-12095593Y-6415502D01*
X-12051447Y-6464297D01*
X-11994659Y-6575751D01*
X-11900752Y-6669658D01*
X-11841586Y-6699804D01*
X-11782420Y-6729951D01*
X-11684246Y-6745500D01*
X-11684244Y-6745500D01*
X-11180756Y-6745500D01*
X-11180754Y-6745500D01*
X-11082580Y-6729951D01*
X-10964249Y-6669658D01*
X-10870342Y-6575751D01*
X-10810049Y-6457420D01*
X-10794500Y-6359246D01*
X-10794500Y-5780755D01*
X-10495500Y-5780755D01*
X-10495500Y-6359244D01*
X-10479952Y-6457418D01*
X-10419659Y-6575751D01*
X-10325752Y-6669658D01*
X-10266586Y-6699804D01*
X-10207420Y-6729951D01*
X-10109246Y-6745500D01*
X-10109244Y-6745500D01*
X-9605756Y-6745500D01*
X-9605754Y-6745500D01*
X-9507580Y-6729951D01*
X-9389249Y-6669658D01*
X-9295342Y-6575751D01*
X-9235049Y-6457420D01*
X-9219500Y-6359246D01*
X-9219500Y-6359227D01*
X-9219446Y-6358547D01*
X-9219350Y-6358293D01*
X-9218726Y-6354357D01*
X-9217900Y-6354487D01*
X-9194171Y-6292202D01*
X-9182942Y-6279334D01*
X-8749520Y-5845913D01*
X-8728517Y-5809535D01*
X-8696793Y-5754587D01*
X-8669500Y-5652727D01*
X-8669500Y-5248082D01*
X-8649498Y-5179961D01*
X-8632600Y-5158991D01*
X-8124463Y-4650853D01*
X-8124453Y-4650846D01*
X-8039526Y-4565919D01*
X-8039520Y-4565913D01*
X-7986793Y-4474587D01*
X-7968756Y-4407273D01*
X-7959499Y-4372727D01*
X-7959499Y-4267273D01*
X-7959499Y-4259556D01*
X-7959500Y-4259538D01*
X-7959500Y-1862122D01*
X-7944622Y-1802726D01*
X-7934683Y-1784130D01*
X-7889368Y-1699354D01*
X-7829300Y-1501334D01*
X-7809017Y-1295400D01*
X-7809017Y-1295396D01*
X-4840183Y-1295396D01*
X-4840183Y-1295403D01*
X-4819902Y-1501327D01*
X-4819901Y-1501333D01*
X-4819900Y-1501334D01*
X-4759832Y-1699354D01*
X-4662285Y-1881850D01*
X-4613701Y-1941050D01*
X-4585947Y-2006396D01*
X-4585100Y-2020983D01*
X-4585100Y-7056558D01*
X-4585100Y-7214242D01*
X-4554337Y-7368897D01*
X-4493994Y-7514579D01*
X-4406389Y-7645689D01*
X-2671789Y-9380289D01*
X-2560289Y-9491789D01*
X-2429179Y-9579394D01*
X-2283497Y-9639737D01*
X-2128842Y-9670500D01*
X9049720Y-9670500D01*
X9109116Y-9685378D01*
X9234499Y-9752396D01*
X9234503Y-9752398D01*
X9413665Y-9806746D01*
X9413666Y-9806746D01*
X9413669Y-9806747D01*
X9413672Y-9806747D01*
X9413676Y-9806748D01*
X9599997Y-9825099D01*
X9600000Y-9825099D01*
X9600003Y-9825099D01*
X9786323Y-9806748D01*
X9786325Y-9806747D01*
X9786331Y-9806747D01*
X9814449Y-9798217D01*
X9965496Y-9752398D01*
X9965498Y-9752396D01*
X9965501Y-9752396D01*
X10090884Y-9685378D01*
X10150280Y-9670500D01*
X11466232Y-9670500D01*
X11534353Y-9690502D01*
X11555327Y-9707405D01*
X11752595Y-9904673D01*
X11786621Y-9966985D01*
X11789500Y-9993768D01*
X11789500Y-16908844D01*
X11801304Y-16968185D01*
X11820263Y-17063497D01*
X11880606Y-17209179D01*
X11968211Y-17340289D01*
X12719711Y-18091789D01*
X12850821Y-18179394D01*
X12996503Y-18239738D01*
X13129666Y-18266225D01*
X13151152Y-18270499D01*
X13151155Y-18270499D01*
X13151158Y-18270500D01*
X13939720Y-18270500D01*
X13999116Y-18285378D01*
X14124499Y-18352396D01*
X14124503Y-18352398D01*
X14303665Y-18406746D01*
X14303666Y-18406746D01*
X14303669Y-18406747D01*
X14303672Y-18406747D01*
X14303676Y-18406748D01*
X14489997Y-18425099D01*
X14490000Y-18425099D01*
X14490003Y-18425099D01*
X14676323Y-18406748D01*
X14676325Y-18406747D01*
X14676331Y-18406747D01*
X14710111Y-18396500D01*
X14855496Y-18352398D01*
X14855498Y-18352396D01*
X14855501Y-18352396D01*
X14980884Y-18285378D01*
X15040280Y-18270500D01*
X15296360Y-18270500D01*
X15364481Y-18290502D01*
X15410974Y-18344158D01*
X15422360Y-18396500D01*
X15422360Y-24206943D01*
X15402358Y-24275064D01*
X15348702Y-24321557D01*
X15328887Y-24327956D01*
X15324308Y-24329853D01*
X15257988Y-24374168D01*
X15213673Y-24440488D01*
X15213672Y-24440491D01*
X15202040Y-24498969D01*
X15202040Y-26138470D01*
X15211493Y-26185995D01*
X15213673Y-26196951D01*
X15257988Y-26263272D01*
X15324309Y-26307587D01*
X15324311Y-26307587D01*
X15335777Y-26312337D01*
X15334980Y-26314260D01*
X15383849Y-26339822D01*
X15418982Y-26401516D01*
X15422360Y-26430496D01*
X15422360Y-32857085D01*
X15402358Y-32925206D01*
X15354823Y-32966394D01*
X15354947Y-32966579D01*
X15353478Y-32967560D01*
X15348702Y-32971699D01*
X15344635Y-32973469D01*
X15278308Y-33017788D01*
X15233993Y-33084108D01*
X15233992Y-33084111D01*
X15222360Y-33142589D01*
X15222360Y-34782090D01*
X15227103Y-34805937D01*
X15233993Y-34840571D01*
X15278308Y-34906892D01*
X15344629Y-34951207D01*
X15403112Y-34962840D01*
X15403113Y-34962840D01*
X17042607Y-34962840D01*
X17042608Y-34962840D01*
X17101091Y-34951207D01*
X17167412Y-34906892D01*
X17211727Y-34840571D01*
X17223360Y-34782088D01*
X17223360Y-33142592D01*
X17211727Y-33084109D01*
X17167412Y-33017788D01*
X17101091Y-32973473D01*
X17101090Y-32973472D01*
X17090773Y-32966579D01*
X17091398Y-32965643D01*
X17045857Y-32928940D01*
X17023440Y-32861575D01*
X17023360Y-32857085D01*
X17023360Y-26413296D01*
X17043362Y-26345175D01*
X17079358Y-26308531D01*
X17106756Y-26290224D01*
X17147092Y-26263272D01*
X17191407Y-26196951D01*
X17203040Y-26138468D01*
X17203040Y-24498972D01*
X17191407Y-24440489D01*
X17147092Y-24374168D01*
X17080771Y-24329853D01*
X17080770Y-24329852D01*
X17079358Y-24328909D01*
X17033830Y-24274432D01*
X17023360Y-24224144D01*
X17023360Y-17924019D01*
X17023359Y-17924015D01*
X16992597Y-17769363D01*
X16932254Y-17623681D01*
X16844649Y-17492571D01*
X16733149Y-17381071D01*
X16200289Y-16848211D01*
X16069179Y-16760606D01*
X15923497Y-16700263D01*
X15768844Y-16669500D01*
X15768842Y-16669500D01*
X15040280Y-16669500D01*
X14980884Y-16654622D01*
X14855500Y-16587603D01*
X14855496Y-16587601D01*
X14676334Y-16533253D01*
X14676323Y-16533251D01*
X14490003Y-16514901D01*
X14489997Y-16514901D01*
X14303676Y-16533251D01*
X14303665Y-16533253D01*
X14124503Y-16587601D01*
X14124499Y-16587603D01*
X13999116Y-16654622D01*
X13939720Y-16669500D01*
X13613768Y-16669500D01*
X13545647Y-16649498D01*
X13524673Y-16632595D01*
X13427405Y-16535327D01*
X13393379Y-16473015D01*
X13390500Y-16446232D01*
X13390500Y-9531159D01*
X13390499Y-9531155D01*
X13382669Y-9491791D01*
X13359737Y-9376503D01*
X13299394Y-9230821D01*
X13211789Y-9099711D01*
X13100289Y-8988211D01*
X12360289Y-8248211D01*
X12229179Y-8160606D01*
X12083497Y-8100263D01*
X11928844Y-8069500D01*
X11928842Y-8069500D01*
X10150280Y-8069500D01*
X10090884Y-8054622D01*
X9965500Y-7987603D01*
X9965496Y-7987601D01*
X9786334Y-7933253D01*
X9786323Y-7933251D01*
X9600003Y-7914901D01*
X9599997Y-7914901D01*
X9413676Y-7933251D01*
X9413665Y-7933253D01*
X9234503Y-7987601D01*
X9234499Y-7987603D01*
X9109116Y-8054622D01*
X9049720Y-8069500D01*
X-1666232Y-8069500D01*
X-1734353Y-8049498D01*
X-1755327Y-8032595D01*
X-2947195Y-6840727D01*
X-2981221Y-6778415D01*
X-2984100Y-6751632D01*
X-2984100Y-2020983D01*
X-2964098Y-1952862D01*
X-2955504Y-1941054D01*
X-2906915Y-1881850D01*
X-2809368Y-1699354D01*
X-2749300Y-1501334D01*
X-2729017Y-1295400D01*
X-2729017Y-1295396D01*
X239817Y-1295396D01*
X239817Y-1295403D01*
X260098Y-1501327D01*
X320168Y-1699354D01*
X390299Y-1830560D01*
X417715Y-1881850D01*
X548990Y-2041810D01*
X708950Y-2173085D01*
X891446Y-2270632D01*
X1089466Y-2330700D01*
X1089470Y-2330700D01*
X1089472Y-2330701D01*
X1295397Y-2350983D01*
X1295400Y-2350983D01*
X1295403Y-2350983D01*
X1501327Y-2330701D01*
X1501328Y-2330700D01*
X1501334Y-2330700D01*
X1699354Y-2270632D01*
X1881850Y-2173085D01*
X2041810Y-2041810D01*
X2173085Y-1881850D01*
X2270632Y-1699354D01*
X2330700Y-1501334D01*
X2350983Y-1295400D01*
X2350983Y-1295396D01*
X2779817Y-1295396D01*
X2779817Y-1295403D01*
X2800098Y-1501327D01*
X2860168Y-1699354D01*
X2930299Y-1830560D01*
X2957715Y-1881850D01*
X3088990Y-2041810D01*
X3248950Y-2173085D01*
X3431446Y-2270632D01*
X3629466Y-2330700D01*
X3629470Y-2330700D01*
X3629472Y-2330701D01*
X3835397Y-2350983D01*
X3835400Y-2350983D01*
X3835403Y-2350983D01*
X4041327Y-2330701D01*
X4041328Y-2330700D01*
X4041334Y-2330700D01*
X4239354Y-2270632D01*
X4421850Y-2173085D01*
X4581810Y-2041810D01*
X4713085Y-1881850D01*
X4810632Y-1699354D01*
X4870700Y-1501334D01*
X4890983Y-1295400D01*
X4890983Y-1295396D01*
X5319817Y-1295396D01*
X5319817Y-1295403D01*
X5340098Y-1501327D01*
X5400168Y-1699354D01*
X5470299Y-1830560D01*
X5497715Y-1881850D01*
X5628990Y-2041810D01*
X5788950Y-2173085D01*
X5971446Y-2270632D01*
X6169466Y-2330700D01*
X6169470Y-2330700D01*
X6169472Y-2330701D01*
X6375397Y-2350983D01*
X6375400Y-2350983D01*
X6375403Y-2350983D01*
X6581327Y-2330701D01*
X6581328Y-2330700D01*
X6581334Y-2330700D01*
X6779354Y-2270632D01*
X6961850Y-2173085D01*
X7121810Y-2041810D01*
X7253085Y-1881850D01*
X7350632Y-1699354D01*
X7410700Y-1501334D01*
X7430983Y-1295400D01*
X7430983Y-1295396D01*
X7859817Y-1295396D01*
X7859817Y-1295403D01*
X7880098Y-1501327D01*
X7940168Y-1699354D01*
X8010299Y-1830560D01*
X8037715Y-1881850D01*
X8168990Y-2041810D01*
X8328950Y-2173085D01*
X8511446Y-2270632D01*
X8709466Y-2330700D01*
X8709470Y-2330700D01*
X8709472Y-2330701D01*
X8915397Y-2350983D01*
X8915400Y-2350983D01*
X8915403Y-2350983D01*
X9121327Y-2330701D01*
X9121328Y-2330700D01*
X9121334Y-2330700D01*
X9319354Y-2270632D01*
X9501850Y-2173085D01*
X9661810Y-2041810D01*
X9793085Y-1881850D01*
X9890632Y-1699354D01*
X9950700Y-1501334D01*
X9970983Y-1295400D01*
X9970983Y-1295396D01*
X10399817Y-1295396D01*
X10399817Y-1295403D01*
X10420098Y-1501327D01*
X10480168Y-1699354D01*
X10550299Y-1830560D01*
X10577715Y-1881850D01*
X10708990Y-2041810D01*
X10868950Y-2173085D01*
X11051446Y-2270632D01*
X11249466Y-2330700D01*
X11249470Y-2330700D01*
X11249472Y-2330701D01*
X11455397Y-2350983D01*
X11455400Y-2350983D01*
X11455403Y-2350983D01*
X11661327Y-2330701D01*
X11661328Y-2330700D01*
X11661334Y-2330700D01*
X11859354Y-2270632D01*
X12041850Y-2173085D01*
X12201810Y-2041810D01*
X12333085Y-1881850D01*
X12430632Y-1699354D01*
X12490700Y-1501334D01*
X12510983Y-1295400D01*
X12490700Y-1089466D01*
X12430632Y-891446D01*
X12333085Y-708950D01*
X12201810Y-548990D01*
X12041850Y-417715D01*
X12041848Y-417714D01*
X12041847Y-417713D01*
X11859354Y-320168D01*
X11661327Y-260098D01*
X11455403Y-239817D01*
X11455397Y-239817D01*
X11249472Y-260098D01*
X11051445Y-320168D01*
X10868952Y-417713D01*
X10708990Y-548990D01*
X10577713Y-708952D01*
X10480168Y-891445D01*
X10420098Y-1089472D01*
X10399817Y-1295396D01*
X9970983Y-1295396D01*
X9950700Y-1089466D01*
X9890632Y-891446D01*
X9793085Y-708950D01*
X9661810Y-548990D01*
X9501850Y-417715D01*
X9501848Y-417714D01*
X9501847Y-417713D01*
X9319354Y-320168D01*
X9121327Y-260098D01*
X8915403Y-239817D01*
X8915397Y-239817D01*
X8709472Y-260098D01*
X8511445Y-320168D01*
X8328952Y-417713D01*
X8168990Y-548990D01*
X8037713Y-708952D01*
X7940168Y-891445D01*
X7880098Y-1089472D01*
X7859817Y-1295396D01*
X7430983Y-1295396D01*
X7410700Y-1089466D01*
X7350632Y-891446D01*
X7253085Y-708950D01*
X7121810Y-548990D01*
X6961850Y-417715D01*
X6961848Y-417714D01*
X6961847Y-417713D01*
X6779354Y-320168D01*
X6581327Y-260098D01*
X6375403Y-239817D01*
X6375397Y-239817D01*
X6169472Y-260098D01*
X5971445Y-320168D01*
X5788952Y-417713D01*
X5628990Y-548990D01*
X5497713Y-708952D01*
X5400168Y-891445D01*
X5340098Y-1089472D01*
X5319817Y-1295396D01*
X4890983Y-1295396D01*
X4870700Y-1089466D01*
X4810632Y-891446D01*
X4713085Y-708950D01*
X4581810Y-548990D01*
X4421850Y-417715D01*
X4421848Y-417714D01*
X4421847Y-417713D01*
X4239354Y-320168D01*
X4041327Y-260098D01*
X3835403Y-239817D01*
X3835397Y-239817D01*
X3629472Y-260098D01*
X3431445Y-320168D01*
X3248952Y-417713D01*
X3088990Y-548990D01*
X2957713Y-708952D01*
X2860168Y-891445D01*
X2800098Y-1089472D01*
X2779817Y-1295396D01*
X2350983Y-1295396D01*
X2330700Y-1089466D01*
X2270632Y-891446D01*
X2173085Y-708950D01*
X2041810Y-548990D01*
X1881850Y-417715D01*
X1881848Y-417714D01*
X1881847Y-417713D01*
X1699354Y-320168D01*
X1501327Y-260098D01*
X1295403Y-239817D01*
X1295397Y-239817D01*
X1089472Y-260098D01*
X891445Y-320168D01*
X708952Y-417713D01*
X548990Y-548990D01*
X417713Y-708952D01*
X320168Y-891445D01*
X260098Y-1089472D01*
X239817Y-1295396D01*
X-2729017Y-1295396D01*
X-2749300Y-1089466D01*
X-2809368Y-891446D01*
X-2906915Y-708950D01*
X-3038190Y-548990D01*
X-3198150Y-417715D01*
X-3198152Y-417714D01*
X-3198153Y-417713D01*
X-3380646Y-320168D01*
X-3578673Y-260098D01*
X-3784597Y-239817D01*
X-3784603Y-239817D01*
X-3990528Y-260098D01*
X-4188555Y-320168D01*
X-4371048Y-417713D01*
X-4531010Y-548990D01*
X-4662287Y-708952D01*
X-4759832Y-891445D01*
X-4819902Y-1089472D01*
X-4840183Y-1295396D01*
X-7809017Y-1295396D01*
X-7829300Y-1089466D01*
X-7889368Y-891446D01*
X-7986915Y-708950D01*
X-8118190Y-548990D01*
X-8278150Y-417715D01*
X-8278152Y-417714D01*
X-8278153Y-417713D01*
X-8460646Y-320168D01*
X-8658673Y-260098D01*
X-8864597Y-239817D01*
X-8864603Y-239817D01*
X-9070528Y-260098D01*
X-9268555Y-320168D01*
X-9451048Y-417713D01*
X-9611010Y-548990D01*
X-9742287Y-708952D01*
X-9839832Y-891445D01*
X-9899902Y-1089472D01*
X-9920183Y-1295396D01*
X-9920183Y-1295403D01*
X-9899902Y-1501327D01*
X-9839832Y-1699354D01*
X-9769701Y-1830560D01*
X-9742285Y-1881850D01*
X-9611010Y-2041810D01*
X-9451050Y-2173085D01*
X-9268554Y-2270632D01*
X-9070534Y-2330700D01*
X-9070530Y-2330700D01*
X-9070528Y-2330701D01*
X-8970564Y-2340546D01*
X-8874149Y-2350042D01*
X-8808318Y-2376624D01*
X-8767308Y-2434578D01*
X-8760500Y-2475435D01*
X-8760500Y-3964095D01*
X-8780502Y-4032216D01*
X-8834158Y-4078709D01*
X-8904432Y-4088813D01*
X-8919110Y-4085802D01*
X-9017273Y-4059500D01*
X-9144489Y-4059500D01*
X-9212610Y-4039498D01*
X-9256756Y-3990703D01*
X-9275330Y-3954249D01*
X-9369237Y-3860342D01*
X-9369238Y-3860341D01*
X-9369237Y-3860341D01*
X-9487570Y-3800048D01*
X-9554646Y-3789425D01*
X-9585742Y-3784500D01*
X-10089234Y-3784500D01*
X-10116079Y-3788751D01*
X-10187407Y-3800048D01*
X-10305740Y-3860341D01*
X-10399647Y-3954248D01*
X-10459940Y-4072581D01*
X-10475488Y-4170755D01*
X-10475488Y-4749244D01*
X-10459940Y-4847418D01*
X-10399647Y-4965751D01*
X-10305740Y-5059658D01*
X-10246574Y-5089804D01*
X-10187408Y-5119951D01*
X-10089234Y-5135500D01*
X-10089232Y-5135500D01*
X-9596500Y-5135500D01*
X-9528379Y-5155502D01*
X-9481886Y-5209158D01*
X-9470500Y-5261500D01*
X-9470500Y-5268838D01*
X-9490502Y-5336959D01*
X-9544158Y-5383452D01*
X-9600804Y-5393467D01*
X-9600804Y-5394500D01*
X-9605754Y-5394500D01*
X-10109246Y-5394500D01*
X-10136091Y-5398751D01*
X-10207419Y-5410048D01*
X-10325752Y-5470341D01*
X-10419659Y-5564248D01*
X-10479952Y-5682581D01*
X-10495500Y-5780755D01*
X-10794500Y-5780755D01*
X-10794500Y-5780754D01*
X-10810049Y-5682580D01*
X-10840196Y-5623414D01*
X-10870342Y-5564248D01*
X-10964249Y-5470341D01*
X-11082582Y-5410048D01*
X-11149658Y-5399425D01*
X-11180754Y-5394500D01*
X-11684246Y-5394500D01*
X-11711091Y-5398751D01*
X-11782419Y-5410048D01*
X-11900752Y-5470341D01*
X-11994657Y-5564246D01*
X-11994662Y-5564253D01*
X-12037700Y-5648720D01*
X-12086448Y-5700335D01*
X-12155363Y-5717401D01*
X-12222564Y-5694500D01*
X-12239061Y-5680612D01*
X-12980644Y-4939029D01*
X-13014670Y-4876717D01*
X-13017549Y-4849934D01*
X-13017549Y-4676968D01*
X-12997547Y-4608847D01*
X-12943891Y-4562354D01*
X-12873617Y-4552250D01*
X-12809037Y-4581744D01*
X-12802468Y-4587859D01*
X-12669862Y-4720465D01*
X-12595639Y-4763318D01*
X-12512853Y-4785500D01*
X-12427147Y-4785500D01*
X-12143702Y-4785500D01*
X-12075581Y-4805502D01*
X-12031435Y-4854297D01*
X-11974647Y-4965751D01*
X-11880740Y-5059658D01*
X-11821574Y-5089804D01*
X-11762408Y-5119951D01*
X-11664234Y-5135500D01*
X-11664232Y-5135500D01*
X-11160744Y-5135500D01*
X-11160742Y-5135500D01*
X-11062568Y-5119951D01*
X-10944237Y-5059658D01*
X-10850330Y-4965751D01*
X-10790037Y-4847420D01*
X-10774488Y-4749246D01*
X-10774488Y-4170754D01*
X-10790037Y-4072580D01*
X-10820184Y-4013414D01*
X-10850330Y-3954248D01*
X-10944237Y-3860341D01*
X-11062570Y-3800048D01*
X-11129646Y-3789425D01*
X-11160742Y-3784500D01*
X-11664234Y-3784500D01*
X-11691079Y-3788751D01*
X-11762407Y-3800048D01*
X-11880740Y-3860341D01*
X-11974647Y-3954248D01*
X-12031435Y-4065703D01*
X-12080183Y-4117318D01*
X-12143702Y-4134500D01*
X-12282983Y-4134500D01*
X-12351104Y-4114498D01*
X-12372078Y-4097595D01*
X-12530635Y-3939038D01*
X-12564661Y-3876726D01*
X-12567540Y-3849943D01*
X-12567540Y-2413168D01*
X-12547538Y-2345047D01*
X-12493882Y-2298554D01*
X-12423608Y-2288450D01*
X-12371541Y-2308401D01*
X-12332831Y-2334267D01*
X-12274348Y-2345900D01*
X-12274347Y-2345900D01*
X-10534853Y-2345900D01*
X-10534852Y-2345900D01*
X-10476369Y-2334267D01*
X-10410048Y-2289952D01*
X-10365733Y-2223631D01*
X-10354100Y-2165148D01*
X-10354100Y-425652D01*
X-10365733Y-367169D01*
X-10410048Y-300848D01*
X-10476369Y-256533D01*
X-10476372Y-256532D01*
X-10534850Y-244900D01*
X-10534852Y-244900D01*
X-12274348Y-244900D01*
X-12274351Y-244900D01*
X-12332829Y-256532D01*
X-12332832Y-256533D01*
X-12371539Y-282397D01*
X-12439292Y-303611D01*
X-12507759Y-284828D01*
X-12555201Y-232010D01*
X-12567540Y-177631D01*
X-12567540Y688804D01*
X-12547538Y756925D01*
X-12493882Y803418D01*
X-12423608Y813522D01*
X-12359028Y784028D01*
X-12330419Y748201D01*
X-12282285Y658150D01*
X-12151010Y498190D01*
X-11991050Y366915D01*
X-11808554Y269368D01*
X-11610534Y209300D01*
X-11610530Y209300D01*
X-11610528Y209299D01*
X-11404603Y189017D01*
X-11404600Y189017D01*
X-11404597Y189017D01*
X-11198673Y209299D01*
X-11198672Y209300D01*
X-11198666Y209300D01*
X-11000646Y269368D01*
X-10818150Y366915D01*
X-10658190Y498190D01*
X-10526915Y658150D01*
X-10429368Y840646D01*
X-10369300Y1038666D01*
X-10349017Y1244600D01*
X-10349017Y1244604D01*
X-10369299Y1450528D01*
X-10369300Y1450530D01*
X-10369300Y1450534D01*
X-10429368Y1648554D01*
X-10526915Y1831050D01*
X-10658190Y1991010D01*
X-10818150Y2122285D01*
X-10818152Y2122286D01*
X-10818153Y2122287D01*
X-11000646Y2219832D01*
X-11004101Y2220880D01*
X-11024294Y2227006D01*
X-11083674Y2265920D01*
X-11112590Y2330761D01*
X-11101860Y2400942D01*
X-11054891Y2454181D01*
X-10987718Y2473580D01*
X-9281483Y2473580D01*
X-9213362Y2453578D01*
X-9166869Y2399922D01*
X-9156765Y2329648D01*
X-9186259Y2265068D01*
X-9244908Y2227005D01*
X-9268550Y2219834D01*
X-9268557Y2219831D01*
X-9451048Y2122287D01*
X-9611010Y1991010D01*
X-9742287Y1831048D01*
X-9839832Y1648555D01*
X-9899902Y1450528D01*
X-9920183Y1244604D01*
X-9920183Y1244597D01*
X-9899902Y1038673D01*
X-9899901Y1038667D01*
X-9899900Y1038666D01*
X-9839832Y840646D01*
X-9742285Y658150D01*
X-9611010Y498190D01*
X-9451050Y366915D01*
X-9268554Y269368D01*
X-9070534Y209300D01*
X-9070530Y209300D01*
X-9070528Y209299D01*
X-8864603Y189017D01*
X-8864600Y189017D01*
X-8864597Y189017D01*
X-8658673Y209299D01*
X-8658672Y209300D01*
X-8658666Y209300D01*
X-8460646Y269368D01*
X-8278150Y366915D01*
X-8118190Y498190D01*
X-7986915Y658150D01*
X-7889368Y840646D01*
X-7829300Y1038666D01*
X-7809017Y1244600D01*
X-7809017Y1244604D01*
X-7829299Y1450528D01*
X-7829300Y1450530D01*
X-7829300Y1450534D01*
X-7889368Y1648554D01*
X-7986915Y1831050D01*
X-8118190Y1991010D01*
X-8278150Y2122285D01*
X-8310188Y2139410D01*
X-8365818Y2169146D01*
X-8416465Y2218899D01*
X-8432420Y2280267D01*
X-8432420Y2797590D01*
X-8412418Y2865711D01*
X-8358762Y2912204D01*
X-8306420Y2923590D01*
X-6674526Y2923590D01*
X-6655129Y2921037D01*
X-6655041Y2921698D01*
X-6646853Y2920620D01*
X-6561147Y2920620D01*
X-6516697Y2920620D01*
X-6448576Y2900618D01*
X-6427602Y2883715D01*
X-6112965Y2569078D01*
X-6078939Y2506766D01*
X-6076060Y2479983D01*
X-6076060Y2414724D01*
X-6096062Y2346603D01*
X-6149718Y2300110D01*
X-6214410Y2289331D01*
X-6324597Y2300183D01*
X-6324603Y2300183D01*
X-6530528Y2279902D01*
X-6728555Y2219832D01*
X-6911048Y2122287D01*
X-7071010Y1991010D01*
X-7202287Y1831048D01*
X-7299832Y1648555D01*
X-7359902Y1450528D01*
X-7380183Y1244604D01*
X-7380183Y1244597D01*
X-7359902Y1038673D01*
X-7359901Y1038667D01*
X-7359900Y1038666D01*
X-7299832Y840646D01*
X-7202285Y658150D01*
X-7071010Y498190D01*
X-6911050Y366915D01*
X-6728554Y269368D01*
X-6530534Y209300D01*
X-6530530Y209300D01*
X-6530528Y209299D01*
X-6324603Y189017D01*
X-6324600Y189017D01*
X-6324597Y189017D01*
X-6118673Y209299D01*
X-6118672Y209300D01*
X-6118666Y209300D01*
X-5920646Y269368D01*
X-5738150Y366915D01*
X-5578190Y498190D01*
X-5446915Y658150D01*
X-5349368Y840646D01*
X-5289300Y1038666D01*
X-5269017Y1244600D01*
X-5269017Y1244604D01*
X-5289299Y1450528D01*
X-5289300Y1450530D01*
X-5289300Y1450534D01*
X-5349368Y1648554D01*
X-5410182Y1762329D01*
X-5425060Y1821725D01*
X-5425060Y2709852D01*
X-5425060Y2709853D01*
X-5447242Y2792638D01*
X-5447244Y2792641D01*
X-5447244Y2792643D01*
X-5490093Y2866859D01*
X-5490097Y2866864D01*
X-5517720Y2894487D01*
X-5550698Y2927465D01*
X-6129818Y3506585D01*
X-6129820Y3506586D01*
X-6129822Y3506588D01*
X-6204037Y3549436D01*
X-6204039Y3549437D01*
X-6204041Y3549438D01*
X-6286827Y3571620D01*
X-6286829Y3571620D01*
X-6536444Y3571620D01*
X-6555842Y3574174D01*
X-6555929Y3573512D01*
X-6564117Y3574590D01*
X-11781827Y3574590D01*
X-11867533Y3574590D01*
X-11950319Y3552408D01*
X-11950321Y3552407D01*
X-11950324Y3552406D01*
X-12024539Y3509558D01*
X-12024549Y3509550D01*
X-13603509Y1930590D01*
X-13603517Y1930580D01*
X-13646367Y1856361D01*
X-13646369Y1856356D01*
X-13653149Y1831048D01*
X-13654086Y1827551D01*
X-13668549Y1773574D01*
X-16247742Y1773574D01*
X-16264835Y1892457D01*
X-16324623Y2023373D01*
X-16418872Y2132143D01*
X-16418873Y2132144D01*
X-16418874Y2132145D01*
X-16539947Y2209953D01*
X-16678039Y2250500D01*
X-16821961Y2250500D01*
X-16960054Y2209953D01*
X-17081127Y2132145D01*
X-17175377Y2023374D01*
X-17190157Y1991010D01*
X-17235165Y1892457D01*
X-17255647Y1750000D01*
X-19924500Y1750000D01*
X-19924500Y1996461D01*
X-19924302Y2003526D01*
X-19922064Y2043374D01*
X-19906508Y2320380D01*
X-19904926Y2334415D01*
X-19881281Y2473580D01*
X-19852361Y2643795D01*
X-19849222Y2657549D01*
X-19762344Y2959112D01*
X-19757683Y2972432D01*
X-19637584Y3262374D01*
X-19631470Y3275070D01*
X-19479665Y3549742D01*
X-19472155Y3561693D01*
X-19465111Y3571620D01*
X-19290554Y3817635D01*
X-19281756Y3828667D01*
X-19072649Y4062659D01*
X-19062658Y4072649D01*
X-18828667Y4281756D01*
X-18817635Y4290554D01*
X-18561687Y4472159D01*
X-18549742Y4479665D01*
X-18275070Y4631470D01*
X-18262374Y4637584D01*
X-17972432Y4757683D01*
X-17959112Y4762344D01*
X-17657549Y4849222D01*
X-17643795Y4852361D01*
X-17334414Y4904927D01*
X-17320380Y4906508D01*
X-17003526Y4924303D01*
X-16996461Y4924500D01*
X-16975469Y4924500D01*
X-1266084Y4924500D01*
X-1197963Y4904498D01*
G37*
G04 #@! TD.AperFunction*
M02*
