G04 #@! TF.GenerationSoftware,KiCad,Pcbnew,8.0.4*
G04 #@! TF.CreationDate,2025-02-25T17:16:13+05:30*
G04 #@! TF.ProjectId,P-1000101_Cicada WiSun,502d3130-3030-4313-9031-5f4369636164,0.1*
G04 #@! TF.SameCoordinates,PX7cee6c0PY3dfd240*
G04 #@! TF.FileFunction,Other,User*
%FSLAX46Y46*%
G04 Gerber Fmt 4.6, Leading zero omitted, Abs format (unit mm)*
G04 Created by KiCad (PCBNEW 8.0.4) date 2025-02-25 17:16:13*
%MOMM*%
%LPD*%
G01*
G04 APERTURE LIST*
%ADD10C,0.050000*%
G04 APERTURE END LIST*
D10*
X-12104988Y-3730000D02*
X-9144988Y-3730000D01*
X-12104988Y-5190000D02*
X-12104988Y-3730000D01*
X-9144988Y-3730000D02*
X-9144988Y-5190000D01*
X-9144988Y-5190000D02*
X-12104988Y-5190000D01*
X-13204600Y3044600D02*
X13195400Y3044600D01*
X-13204600Y-3055400D02*
X-13204600Y3044600D01*
X13195400Y3044600D02*
X13195400Y-3055400D01*
X13195400Y-3055400D02*
X-13204600Y-3055400D01*
X10600000Y-8870000D02*
G75*
G02*
X8600000Y-8870000I-1000000J0D01*
G01*
X8600000Y-8870000D02*
G75*
G02*
X10600000Y-8870000I1000000J0D01*
G01*
X-12125000Y-5340000D02*
X-9165000Y-5340000D01*
X-12125000Y-6800000D02*
X-12125000Y-5340000D01*
X-9165000Y-5340000D02*
X-9165000Y-6800000D01*
X-9165000Y-6800000D02*
X-12125000Y-6800000D01*
X15490000Y-17470000D02*
G75*
G02*
X13490000Y-17470000I-1000000J0D01*
G01*
X13490000Y-17470000D02*
G75*
G02*
X15490000Y-17470000I1000000J0D01*
G01*
X-100000Y-30155000D02*
X840000Y-30155000D01*
X-100000Y-32015000D02*
X-100000Y-30155000D01*
X840000Y-30155000D02*
X840000Y-32015000D01*
X840000Y-32015000D02*
X-100000Y-32015000D01*
X-8950000Y-31730000D02*
X-8010000Y-31730000D01*
X-8950000Y-33590000D02*
X-8950000Y-31730000D01*
X-8010000Y-31730000D02*
X-8010000Y-33590000D01*
X-8010000Y-33590000D02*
X-8950000Y-33590000D01*
X-220000Y-33570000D02*
X720000Y-33570000D01*
X-220000Y-35430000D02*
X-220000Y-33570000D01*
X720000Y-33570000D02*
X720000Y-35430000D01*
X720000Y-35430000D02*
X-220000Y-35430000D01*
X-900000Y-12970000D02*
X40000Y-12970000D01*
X-900000Y-14830000D02*
X-900000Y-12970000D01*
X40000Y-12970000D02*
X40000Y-14830000D01*
X40000Y-14830000D02*
X-900000Y-14830000D01*
X-1140000Y-35920000D02*
X720000Y-35920000D01*
X-1140000Y-36860000D02*
X-1140000Y-35920000D01*
X720000Y-35920000D02*
X720000Y-36860000D01*
X720000Y-36860000D02*
X-1140000Y-36860000D01*
X-16000000Y1750000D02*
G75*
G02*
X-17500000Y1750000I-750000J0D01*
G01*
X-17500000Y1750000D02*
G75*
G02*
X-16000000Y1750000I750000J0D01*
G01*
X310000Y-11150000D02*
G75*
G02*
X-1690000Y-11150000I-1000000J0D01*
G01*
X-1690000Y-11150000D02*
G75*
G02*
X310000Y-11150000I1000000J0D01*
G01*
X-120000Y-28210000D02*
X820000Y-28210000D01*
X-120000Y-30070000D02*
X-120000Y-28210000D01*
X820000Y-28210000D02*
X820000Y-30070000D01*
X820000Y-30070000D02*
X-120000Y-30070000D01*
X18430000Y-15680000D02*
G75*
G02*
X16430000Y-15680000I-1000000J0D01*
G01*
X16430000Y-15680000D02*
G75*
G02*
X18430000Y-15680000I1000000J0D01*
G01*
X16300000Y1770000D02*
G75*
G02*
X14800000Y1770000I-750000J0D01*
G01*
X14800000Y1770000D02*
G75*
G02*
X16300000Y1770000I750000J0D01*
G01*
X5500000Y-16750000D02*
G75*
G02*
X3500000Y-16750000I-1000000J0D01*
G01*
X3500000Y-16750000D02*
G75*
G02*
X5500000Y-16750000I1000000J0D01*
G01*
X-8670000Y-27880000D02*
X-6810000Y-27880000D01*
X-8670000Y-28820000D02*
X-8670000Y-27880000D01*
X-6810000Y-27880000D02*
X-6810000Y-28820000D01*
X-6810000Y-28820000D02*
X-8670000Y-28820000D01*
X-8900000Y-21370000D02*
X-5540000Y-21370000D01*
X-8900000Y-23270000D02*
X-8900000Y-21370000D01*
X-5540000Y-21370000D02*
X-5540000Y-23270000D01*
X-5540000Y-23270000D02*
X-8900000Y-23270000D01*
X13760000Y-57090000D02*
G75*
G02*
X12260000Y-57090000I-750000J0D01*
G01*
X12260000Y-57090000D02*
G75*
G02*
X13760000Y-57090000I750000J0D01*
G01*
X-8715000Y-26080000D02*
X-6855000Y-26080000D01*
X-8715000Y-27020000D02*
X-8715000Y-26080000D01*
X-6855000Y-26080000D02*
X-6855000Y-27020000D01*
X-6855000Y-27020000D02*
X-8715000Y-27020000D01*
X-6620000Y-27410000D02*
X-3660000Y-27410000D01*
X-6620000Y-28870000D02*
X-6620000Y-27410000D01*
X-3660000Y-27410000D02*
X-3660000Y-28870000D01*
X-3660000Y-28870000D02*
X-6620000Y-28870000D01*
X-8950000Y-34160000D02*
X-8010000Y-34160000D01*
X-8950000Y-36020000D02*
X-8950000Y-34160000D01*
X-8010000Y-34160000D02*
X-8010000Y-36020000D01*
X-8010000Y-36020000D02*
X-8950000Y-36020000D01*
X-11380000Y-33075000D02*
X-10440000Y-33075000D01*
X-11380000Y-34935000D02*
X-11380000Y-33075000D01*
X-10440000Y-33075000D02*
X-10440000Y-34935000D01*
X-10440000Y-34935000D02*
X-11380000Y-34935000D01*
X9250000Y-14750000D02*
G75*
G02*
X7250000Y-14750000I-1000000J0D01*
G01*
X7250000Y-14750000D02*
G75*
G02*
X9250000Y-14750000I1000000J0D01*
G01*
X9450000Y-11420000D02*
G75*
G02*
X7450000Y-11420000I-1000000J0D01*
G01*
X7450000Y-11420000D02*
G75*
G02*
X9450000Y-11420000I1000000J0D01*
G01*
X-11450000Y-55900000D02*
G75*
G02*
X-12950000Y-55900000I-750000J0D01*
G01*
X-12950000Y-55900000D02*
G75*
G02*
X-11450000Y-55900000I750000J0D01*
G01*
X-12680000Y-33060000D02*
X-11740000Y-33060000D01*
X-12680000Y-34920000D02*
X-12680000Y-33060000D01*
X-11740000Y-33060000D02*
X-11740000Y-34920000D01*
X-11740000Y-34920000D02*
X-12680000Y-34920000D01*
X-10480000Y-23420000D02*
X-7520000Y-23420000D01*
X-10480000Y-24880000D02*
X-10480000Y-23420000D01*
X-7520000Y-23420000D02*
X-7520000Y-24880000D01*
X-7520000Y-24880000D02*
X-10480000Y-24880000D01*
X-9970000Y-30980000D02*
X-9030000Y-30980000D01*
X-9970000Y-32840000D02*
X-9970000Y-30980000D01*
X-9030000Y-30980000D02*
X-9030000Y-32840000D01*
X-9030000Y-32840000D02*
X-9970000Y-32840000D01*
X-3080000Y-35820000D02*
X-3080000Y-38420000D01*
X-3080000Y-38420000D02*
X-1280000Y-38420000D01*
X-1280000Y-35820000D02*
X-3080000Y-35820000D01*
X-1280000Y-38420000D02*
X-1280000Y-35820000D01*
X-10660000Y-26090000D02*
X-8800000Y-26090000D01*
X-10660000Y-27030000D02*
X-10660000Y-26090000D01*
X-8800000Y-26090000D02*
X-8800000Y-27030000D01*
X-8800000Y-27030000D02*
X-10660000Y-27030000D01*
X-1140000Y-37320000D02*
X720000Y-37320000D01*
X-1140000Y-38260000D02*
X-1140000Y-37320000D01*
X720000Y-37320000D02*
X720000Y-38260000D01*
X720000Y-38260000D02*
X-1140000Y-38260000D01*
X-1970000Y-12985000D02*
X-1030000Y-12985000D01*
X-1970000Y-14845000D02*
X-1970000Y-12985000D01*
X-1030000Y-12985000D02*
X-1030000Y-14845000D01*
X-1030000Y-14845000D02*
X-1970000Y-14845000D01*
M02*
