G04 #@! TF.GenerationSoftware,KiCad,Pcbnew,8.0.4*
G04 #@! TF.CreationDate,2025-02-25T17:16:13+05:30*
G04 #@! TF.ProjectId,P-1000101_Cicada WiSun,502d3130-3030-4313-9031-5f4369636164,0.1*
G04 #@! TF.SameCoordinates,PX7cee6c0PY3dfd240*
G04 #@! TF.FileFunction,Soldermask,Bot*
G04 #@! TF.FilePolarity,Negative*
%FSLAX46Y46*%
G04 Gerber Fmt 4.6, Leading zero omitted, Abs format (unit mm)*
G04 Created by KiCad (PCBNEW 8.0.4) date 2025-02-25 17:16:13*
%MOMM*%
%LPD*%
G01*
G04 APERTURE LIST*
G04 APERTURE END LIST*
G36*
X-16527535Y-54242538D02*
G01*
X-16210701Y-54317629D01*
X-15904727Y-54428995D01*
X-15613750Y-54575129D01*
X-15341706Y-54754055D01*
X-15092273Y-54963354D01*
X-14868826Y-55200195D01*
X-14674384Y-55461375D01*
X-14511579Y-55743362D01*
X-14382611Y-56042344D01*
X-14289224Y-56354276D01*
X-14232683Y-56674940D01*
X-14213750Y-57000000D01*
X-14232683Y-57325060D01*
X-14289224Y-57645724D01*
X-14382611Y-57957656D01*
X-14511579Y-58256638D01*
X-14674384Y-58538625D01*
X-14868826Y-58799805D01*
X-15092273Y-59036646D01*
X-15341706Y-59245945D01*
X-15613750Y-59424871D01*
X-15904727Y-59571005D01*
X-16210701Y-59682371D01*
X-16527535Y-59757462D01*
X-16850944Y-59795263D01*
X-17176556Y-59795263D01*
X-17499965Y-59757462D01*
X-17816799Y-59682371D01*
X-18122773Y-59571005D01*
X-18413750Y-59424871D01*
X-18685794Y-59245945D01*
X-18935227Y-59036646D01*
X-19158674Y-58799805D01*
X-19353116Y-58538625D01*
X-19515921Y-58256638D01*
X-19644889Y-57957656D01*
X-19738276Y-57645724D01*
X-19794817Y-57325060D01*
X-19813750Y-57000000D01*
X-19794817Y-56674940D01*
X-19738276Y-56354276D01*
X-19644889Y-56042344D01*
X-19515921Y-55743362D01*
X-19353116Y-55461375D01*
X-19158674Y-55200195D01*
X-18935227Y-54963354D01*
X-18685794Y-54754055D01*
X-18413750Y-54575129D01*
X-18122773Y-54428995D01*
X-17816799Y-54317629D01*
X-17499965Y-54242538D01*
X-17176556Y-54204737D01*
X-16850944Y-54204737D01*
X-16527535Y-54242538D01*
G37*
G36*
X17516215Y-54242538D02*
G01*
X17833049Y-54317629D01*
X18139023Y-54428995D01*
X18430000Y-54575129D01*
X18702044Y-54754055D01*
X18951477Y-54963354D01*
X19174924Y-55200195D01*
X19369366Y-55461375D01*
X19532171Y-55743362D01*
X19661139Y-56042344D01*
X19754526Y-56354276D01*
X19811067Y-56674940D01*
X19830000Y-57000000D01*
X19811067Y-57325060D01*
X19754526Y-57645724D01*
X19661139Y-57957656D01*
X19532171Y-58256638D01*
X19369366Y-58538625D01*
X19174924Y-58799805D01*
X18951477Y-59036646D01*
X18702044Y-59245945D01*
X18430000Y-59424871D01*
X18139023Y-59571005D01*
X17833049Y-59682371D01*
X17516215Y-59757462D01*
X17192806Y-59795263D01*
X16867194Y-59795263D01*
X16543785Y-59757462D01*
X16226951Y-59682371D01*
X15920977Y-59571005D01*
X15630000Y-59424871D01*
X15357956Y-59245945D01*
X15108523Y-59036646D01*
X14885076Y-58799805D01*
X14690634Y-58538625D01*
X14527829Y-58256638D01*
X14398861Y-57957656D01*
X14305474Y-57645724D01*
X14248933Y-57325060D01*
X14230000Y-57000000D01*
X14248933Y-56674940D01*
X14305474Y-56354276D01*
X14398861Y-56042344D01*
X14527829Y-55743362D01*
X14690634Y-55461375D01*
X14885076Y-55200195D01*
X15108523Y-54963354D01*
X15357956Y-54754055D01*
X15630000Y-54575129D01*
X15920977Y-54428995D01*
X16226951Y-54317629D01*
X16543785Y-54242538D01*
X16867194Y-54204737D01*
X17192806Y-54204737D01*
X17516215Y-54242538D01*
G37*
G36*
X13045381Y-56595089D02*
G01*
X13081157Y-56595089D01*
X13110235Y-56603627D01*
X13139296Y-56607453D01*
X13178332Y-56623622D01*
X13217708Y-56635184D01*
X13238491Y-56648540D01*
X13259783Y-56657360D01*
X13298798Y-56687297D01*
X13337430Y-56712125D01*
X13349883Y-56726497D01*
X13363249Y-56736753D01*
X13397899Y-56781910D01*
X13430627Y-56819680D01*
X13436134Y-56831738D01*
X13442638Y-56840215D01*
X13468322Y-56902222D01*
X13489746Y-56949134D01*
X13490805Y-56956500D01*
X13492546Y-56960703D01*
X13504880Y-57054390D01*
X13510000Y-57090000D01*
X13504879Y-57125612D01*
X13492546Y-57219296D01*
X13490805Y-57223498D01*
X13489746Y-57230866D01*
X13468321Y-57277780D01*
X13442639Y-57339783D01*
X13436134Y-57348259D01*
X13430627Y-57360320D01*
X13397887Y-57398103D01*
X13363247Y-57443247D01*
X13349887Y-57453498D01*
X13337430Y-57467875D01*
X13298788Y-57492708D01*
X13259783Y-57522639D01*
X13238496Y-57531456D01*
X13217708Y-57544816D01*
X13178323Y-57556380D01*
X13139296Y-57572546D01*
X13110241Y-57576371D01*
X13081157Y-57584911D01*
X13045374Y-57584911D01*
X13010000Y-57589568D01*
X12974626Y-57584911D01*
X12938843Y-57584911D01*
X12909759Y-57576371D01*
X12880703Y-57572546D01*
X12841672Y-57556379D01*
X12802292Y-57544816D01*
X12781505Y-57531457D01*
X12760216Y-57522639D01*
X12721204Y-57492704D01*
X12682570Y-57467875D01*
X12670114Y-57453500D01*
X12656752Y-57443247D01*
X12622103Y-57398093D01*
X12589373Y-57360320D01*
X12583866Y-57348262D01*
X12577360Y-57339783D01*
X12551668Y-57277757D01*
X12530254Y-57230866D01*
X12529195Y-57223502D01*
X12527453Y-57219296D01*
X12515108Y-57125529D01*
X12510000Y-57090000D01*
X12515108Y-57054473D01*
X12527453Y-56960703D01*
X12529195Y-56956496D01*
X12530254Y-56949134D01*
X12551666Y-56902245D01*
X12577361Y-56840215D01*
X12583867Y-56831735D01*
X12589373Y-56819680D01*
X12622089Y-56781923D01*
X12656751Y-56736751D01*
X12670120Y-56726491D01*
X12682570Y-56712125D01*
X12721192Y-56687303D01*
X12760215Y-56657361D01*
X12781508Y-56648541D01*
X12802292Y-56635184D01*
X12841665Y-56623622D01*
X12880703Y-56607453D01*
X12909765Y-56603626D01*
X12938843Y-56595089D01*
X12974618Y-56595089D01*
X13010000Y-56590431D01*
X13045381Y-56595089D01*
G37*
G36*
X-12164619Y-55405089D02*
G01*
X-12128843Y-55405089D01*
X-12099765Y-55413627D01*
X-12070704Y-55417453D01*
X-12031668Y-55433622D01*
X-11992292Y-55445184D01*
X-11971509Y-55458540D01*
X-11950217Y-55467360D01*
X-11911202Y-55497297D01*
X-11872570Y-55522125D01*
X-11860117Y-55536497D01*
X-11846751Y-55546753D01*
X-11812101Y-55591910D01*
X-11779373Y-55629680D01*
X-11773866Y-55641738D01*
X-11767362Y-55650215D01*
X-11741678Y-55712222D01*
X-11720254Y-55759134D01*
X-11719195Y-55766500D01*
X-11717454Y-55770703D01*
X-11705120Y-55864390D01*
X-11700000Y-55900000D01*
X-11705121Y-55935612D01*
X-11717454Y-56029296D01*
X-11719195Y-56033498D01*
X-11720254Y-56040866D01*
X-11741679Y-56087780D01*
X-11767361Y-56149783D01*
X-11773866Y-56158259D01*
X-11779373Y-56170320D01*
X-11812113Y-56208103D01*
X-11846753Y-56253247D01*
X-11860113Y-56263498D01*
X-11872570Y-56277875D01*
X-11911212Y-56302708D01*
X-11950217Y-56332639D01*
X-11971504Y-56341456D01*
X-11992292Y-56354816D01*
X-12031677Y-56366380D01*
X-12070704Y-56382546D01*
X-12099759Y-56386371D01*
X-12128843Y-56394911D01*
X-12164626Y-56394911D01*
X-12200000Y-56399568D01*
X-12235374Y-56394911D01*
X-12271157Y-56394911D01*
X-12300241Y-56386371D01*
X-12329297Y-56382546D01*
X-12368328Y-56366379D01*
X-12407708Y-56354816D01*
X-12428495Y-56341457D01*
X-12449784Y-56332639D01*
X-12488796Y-56302704D01*
X-12527430Y-56277875D01*
X-12539886Y-56263500D01*
X-12553248Y-56253247D01*
X-12587897Y-56208093D01*
X-12620627Y-56170320D01*
X-12626134Y-56158262D01*
X-12632640Y-56149783D01*
X-12658332Y-56087757D01*
X-12679746Y-56040866D01*
X-12680805Y-56033502D01*
X-12682547Y-56029296D01*
X-12694892Y-55935529D01*
X-12700000Y-55900000D01*
X-12694892Y-55864473D01*
X-12682547Y-55770703D01*
X-12680805Y-55766496D01*
X-12679746Y-55759134D01*
X-12658334Y-55712245D01*
X-12632639Y-55650215D01*
X-12626133Y-55641735D01*
X-12620627Y-55629680D01*
X-12587911Y-55591923D01*
X-12553249Y-55546751D01*
X-12539880Y-55536491D01*
X-12527430Y-55522125D01*
X-12488808Y-55497303D01*
X-12449785Y-55467361D01*
X-12428492Y-55458541D01*
X-12407708Y-55445184D01*
X-12368335Y-55433622D01*
X-12329297Y-55417453D01*
X-12300235Y-55413626D01*
X-12271157Y-55405089D01*
X-12235382Y-55405089D01*
X-12200000Y-55400431D01*
X-12164619Y-55405089D01*
G37*
G36*
X5634974Y-38269806D02*
G01*
X5651195Y-38280645D01*
X5662034Y-38296866D01*
X5665840Y-38316000D01*
X5665840Y-39916000D01*
X5662034Y-39935134D01*
X5651195Y-39951355D01*
X5634974Y-39962194D01*
X5615840Y-39966000D01*
X4015840Y-39966000D01*
X3996706Y-39962194D01*
X3980485Y-39951355D01*
X3969646Y-39935134D01*
X3965840Y-39916000D01*
X3965840Y-38316000D01*
X3969646Y-38296866D01*
X3980485Y-38280645D01*
X3996706Y-38269806D01*
X4015840Y-38266000D01*
X5615840Y-38266000D01*
X5634974Y-38269806D01*
G37*
G36*
X8578504Y-38307602D02*
G01*
X8740840Y-38379878D01*
X8884601Y-38484327D01*
X9003504Y-38616383D01*
X9092354Y-38770274D01*
X9147265Y-38939275D01*
X9165840Y-39116000D01*
X9147265Y-39292725D01*
X9092354Y-39461726D01*
X9003504Y-39615617D01*
X8884601Y-39747673D01*
X8740840Y-39852122D01*
X8578504Y-39924398D01*
X8404689Y-39961344D01*
X8226991Y-39961344D01*
X8053176Y-39924398D01*
X7890840Y-39852122D01*
X7747079Y-39747673D01*
X7628176Y-39615617D01*
X7539326Y-39461726D01*
X7484415Y-39292725D01*
X7465840Y-39116000D01*
X7484415Y-38939275D01*
X7539326Y-38770274D01*
X7628176Y-38616383D01*
X7747079Y-38484327D01*
X7890840Y-38379878D01*
X8053176Y-38307602D01*
X8226991Y-38270656D01*
X8404689Y-38270656D01*
X8578504Y-38307602D01*
G37*
G36*
X-1610866Y-37473806D02*
G01*
X-1594645Y-37484645D01*
X-1583806Y-37500866D01*
X-1580000Y-37520000D01*
X-1580000Y-38120000D01*
X-1583806Y-38139134D01*
X-1594645Y-38155355D01*
X-1610866Y-38166194D01*
X-1630000Y-38170000D01*
X-2730000Y-38170000D01*
X-2749134Y-38166194D01*
X-2765355Y-38155355D01*
X-2776194Y-38139134D01*
X-2780000Y-38120000D01*
X-2780000Y-37520000D01*
X-2776194Y-37500866D01*
X-2765355Y-37484645D01*
X-2749134Y-37473806D01*
X-2730000Y-37470000D01*
X-1630000Y-37470000D01*
X-1610866Y-37473806D01*
G37*
G36*
X-471920Y-37435034D02*
G01*
X-407846Y-37477846D01*
X-365034Y-37541920D01*
X-350000Y-37617500D01*
X-350000Y-37962500D01*
X-365034Y-38038080D01*
X-407846Y-38102154D01*
X-471920Y-38144966D01*
X-547500Y-38160000D01*
X-842500Y-38160000D01*
X-918080Y-38144966D01*
X-982154Y-38102154D01*
X-1024966Y-38038080D01*
X-1040000Y-37962500D01*
X-1040000Y-37617500D01*
X-1024966Y-37541920D01*
X-982154Y-37477846D01*
X-918080Y-37435034D01*
X-842500Y-37420000D01*
X-547500Y-37420000D01*
X-471920Y-37435034D01*
G37*
G36*
X498080Y-37435034D02*
G01*
X562154Y-37477846D01*
X604966Y-37541920D01*
X620000Y-37617500D01*
X620000Y-37962500D01*
X604966Y-38038080D01*
X562154Y-38102154D01*
X498080Y-38144966D01*
X422500Y-38160000D01*
X127500Y-38160000D01*
X51920Y-38144966D01*
X-12154Y-38102154D01*
X-54966Y-38038080D01*
X-70000Y-37962500D01*
X-70000Y-37617500D01*
X-54966Y-37541920D01*
X-12154Y-37477846D01*
X51920Y-37435034D01*
X127500Y-37420000D01*
X422500Y-37420000D01*
X498080Y-37435034D01*
G37*
G36*
X-1610866Y-36073806D02*
G01*
X-1594645Y-36084645D01*
X-1583806Y-36100866D01*
X-1580000Y-36120000D01*
X-1580000Y-36720000D01*
X-1583806Y-36739134D01*
X-1594645Y-36755355D01*
X-1610866Y-36766194D01*
X-1630000Y-36770000D01*
X-2730000Y-36770000D01*
X-2749134Y-36766194D01*
X-2765355Y-36755355D01*
X-2776194Y-36739134D01*
X-2780000Y-36720000D01*
X-2780000Y-36120000D01*
X-2776194Y-36100866D01*
X-2765355Y-36084645D01*
X-2749134Y-36073806D01*
X-2730000Y-36070000D01*
X-1630000Y-36070000D01*
X-1610866Y-36073806D01*
G37*
G36*
X-471920Y-36035034D02*
G01*
X-407846Y-36077846D01*
X-365034Y-36141920D01*
X-350000Y-36217500D01*
X-350000Y-36562500D01*
X-365034Y-36638080D01*
X-407846Y-36702154D01*
X-471920Y-36744966D01*
X-547500Y-36760000D01*
X-842500Y-36760000D01*
X-918080Y-36744966D01*
X-982154Y-36702154D01*
X-1024966Y-36638080D01*
X-1040000Y-36562500D01*
X-1040000Y-36217500D01*
X-1024966Y-36141920D01*
X-982154Y-36077846D01*
X-918080Y-36035034D01*
X-842500Y-36020000D01*
X-547500Y-36020000D01*
X-471920Y-36035034D01*
G37*
G36*
X498080Y-36035034D02*
G01*
X562154Y-36077846D01*
X604966Y-36141920D01*
X620000Y-36217500D01*
X620000Y-36562500D01*
X604966Y-36638080D01*
X562154Y-36702154D01*
X498080Y-36744966D01*
X422500Y-36760000D01*
X127500Y-36760000D01*
X51920Y-36744966D01*
X-12154Y-36702154D01*
X-54966Y-36638080D01*
X-70000Y-36562500D01*
X-70000Y-36217500D01*
X-54966Y-36141920D01*
X-12154Y-36077846D01*
X51920Y-36035034D01*
X127500Y-36020000D01*
X422500Y-36020000D01*
X498080Y-36035034D01*
G37*
G36*
X-8231920Y-35245034D02*
G01*
X-8167846Y-35287846D01*
X-8125034Y-35351920D01*
X-8110000Y-35427500D01*
X-8110000Y-35722500D01*
X-8125034Y-35798080D01*
X-8167846Y-35862154D01*
X-8231920Y-35904966D01*
X-8307500Y-35920000D01*
X-8652500Y-35920000D01*
X-8728080Y-35904966D01*
X-8792154Y-35862154D01*
X-8834966Y-35798080D01*
X-8850000Y-35722500D01*
X-8850000Y-35427500D01*
X-8834966Y-35351920D01*
X-8792154Y-35287846D01*
X-8728080Y-35245034D01*
X-8652500Y-35230000D01*
X-8307500Y-35230000D01*
X-8231920Y-35245034D01*
G37*
G36*
X498080Y-34655034D02*
G01*
X562154Y-34697846D01*
X604966Y-34761920D01*
X620000Y-34837500D01*
X620000Y-35132500D01*
X604966Y-35208080D01*
X562154Y-35272154D01*
X498080Y-35314966D01*
X422500Y-35330000D01*
X77500Y-35330000D01*
X1920Y-35314966D01*
X-62154Y-35272154D01*
X-104966Y-35208080D01*
X-120000Y-35132500D01*
X-120000Y-34837500D01*
X-104966Y-34761920D01*
X-62154Y-34697846D01*
X1920Y-34655034D01*
X77500Y-34640000D01*
X422500Y-34640000D01*
X498080Y-34655034D01*
G37*
G36*
X-8231920Y-34275034D02*
G01*
X-8167846Y-34317846D01*
X-8125034Y-34381920D01*
X-8110000Y-34457500D01*
X-8110000Y-34752500D01*
X-8125034Y-34828080D01*
X-8167846Y-34892154D01*
X-8231920Y-34934966D01*
X-8307500Y-34950000D01*
X-8652500Y-34950000D01*
X-8728080Y-34934966D01*
X-8792154Y-34892154D01*
X-8834966Y-34828080D01*
X-8850000Y-34752500D01*
X-8850000Y-34457500D01*
X-8834966Y-34381920D01*
X-8792154Y-34317846D01*
X-8728080Y-34275034D01*
X-8652500Y-34260000D01*
X-8307500Y-34260000D01*
X-8231920Y-34275034D01*
G37*
G36*
X-10661920Y-34160034D02*
G01*
X-10597846Y-34202846D01*
X-10555034Y-34266920D01*
X-10540000Y-34342500D01*
X-10540000Y-34637500D01*
X-10555034Y-34713080D01*
X-10597846Y-34777154D01*
X-10661920Y-34819966D01*
X-10737500Y-34835000D01*
X-11082500Y-34835000D01*
X-11158080Y-34819966D01*
X-11222154Y-34777154D01*
X-11264966Y-34713080D01*
X-11280000Y-34637500D01*
X-11280000Y-34342500D01*
X-11264966Y-34266920D01*
X-11222154Y-34202846D01*
X-11158080Y-34160034D01*
X-11082500Y-34145000D01*
X-10737500Y-34145000D01*
X-10661920Y-34160034D01*
G37*
G36*
X-11961920Y-34145034D02*
G01*
X-11897846Y-34187846D01*
X-11855034Y-34251920D01*
X-11840000Y-34327500D01*
X-11840000Y-34622500D01*
X-11855034Y-34698080D01*
X-11897846Y-34762154D01*
X-11961920Y-34804966D01*
X-12037500Y-34820000D01*
X-12382500Y-34820000D01*
X-12458080Y-34804966D01*
X-12522154Y-34762154D01*
X-12564966Y-34698080D01*
X-12580000Y-34622500D01*
X-12580000Y-34327500D01*
X-12564966Y-34251920D01*
X-12522154Y-34187846D01*
X-12458080Y-34145034D01*
X-12382500Y-34130000D01*
X-12037500Y-34130000D01*
X-11961920Y-34145034D01*
G37*
G36*
X17041994Y-33116146D02*
G01*
X17058215Y-33126985D01*
X17069054Y-33143206D01*
X17072860Y-33162340D01*
X17072860Y-34762340D01*
X17069054Y-34781474D01*
X17058215Y-34797695D01*
X17041994Y-34808534D01*
X17022860Y-34812340D01*
X15422860Y-34812340D01*
X15403726Y-34808534D01*
X15387505Y-34797695D01*
X15376666Y-34781474D01*
X15372860Y-34762340D01*
X15372860Y-33162340D01*
X15376666Y-33143206D01*
X15387505Y-33126985D01*
X15403726Y-33116146D01*
X15422860Y-33112340D01*
X17022860Y-33112340D01*
X17041994Y-33116146D01*
G37*
G36*
X12985524Y-33153942D02*
G01*
X13147860Y-33226218D01*
X13291621Y-33330667D01*
X13410524Y-33462723D01*
X13499374Y-33616614D01*
X13554285Y-33785615D01*
X13572860Y-33962340D01*
X13554285Y-34139065D01*
X13499374Y-34308066D01*
X13410524Y-34461957D01*
X13291621Y-34594013D01*
X13147860Y-34698462D01*
X12985524Y-34770738D01*
X12811709Y-34807684D01*
X12634011Y-34807684D01*
X12460196Y-34770738D01*
X12297860Y-34698462D01*
X12154099Y-34594013D01*
X12035196Y-34461957D01*
X11946346Y-34308066D01*
X11891435Y-34139065D01*
X11872860Y-33962340D01*
X11891435Y-33785615D01*
X11946346Y-33616614D01*
X12035196Y-33462723D01*
X12154099Y-33330667D01*
X12297860Y-33226218D01*
X12460196Y-33153942D01*
X12634011Y-33116996D01*
X12811709Y-33116996D01*
X12985524Y-33153942D01*
G37*
G36*
X-6285150Y-33929558D02*
G01*
X-6257906Y-33929558D01*
X-6236915Y-33937197D01*
X-6217488Y-33940275D01*
X-6190053Y-33954253D01*
X-6160000Y-33965192D01*
X-6146727Y-33976329D01*
X-6134034Y-33982797D01*
X-6108033Y-34008798D01*
X-6080187Y-34032164D01*
X-6074068Y-34042763D01*
X-6067798Y-34049033D01*
X-6047896Y-34088093D01*
X-6028092Y-34122394D01*
X-6026861Y-34129376D01*
X-6025276Y-34132487D01*
X-6016125Y-34190266D01*
X-6010000Y-34225000D01*
X-6016126Y-34259737D01*
X-6025276Y-34317512D01*
X-6026861Y-34320621D01*
X-6028092Y-34327606D01*
X-6047900Y-34361913D01*
X-6067798Y-34400966D01*
X-6074066Y-34407233D01*
X-6080187Y-34417836D01*
X-6108039Y-34441206D01*
X-6134034Y-34467202D01*
X-6146724Y-34473667D01*
X-6160000Y-34484808D01*
X-6190060Y-34495748D01*
X-6217488Y-34509724D01*
X-6236910Y-34512800D01*
X-6257906Y-34520442D01*
X-6285156Y-34520442D01*
X-6310000Y-34524377D01*
X-6334844Y-34520442D01*
X-6362094Y-34520442D01*
X-6383090Y-34512800D01*
X-6402513Y-34509724D01*
X-6429944Y-34495747D01*
X-6460000Y-34484808D01*
X-6473275Y-34473669D01*
X-6485967Y-34467202D01*
X-6511968Y-34441201D01*
X-6539813Y-34417836D01*
X-6545933Y-34407236D01*
X-6552203Y-34400966D01*
X-6572109Y-34361899D01*
X-6591908Y-34327606D01*
X-6593139Y-34320624D01*
X-6594725Y-34317512D01*
X-6603885Y-34259681D01*
X-6610000Y-34225000D01*
X-6603886Y-34190321D01*
X-6594725Y-34132487D01*
X-6593139Y-34129373D01*
X-6591908Y-34122394D01*
X-6572113Y-34088108D01*
X-6552203Y-34049033D01*
X-6545932Y-34042761D01*
X-6539813Y-34032164D01*
X-6511974Y-34008803D01*
X-6485967Y-33982797D01*
X-6473272Y-33976328D01*
X-6460000Y-33965192D01*
X-6429951Y-33954255D01*
X-6402513Y-33940275D01*
X-6383085Y-33937197D01*
X-6362094Y-33929558D01*
X-6334850Y-33929558D01*
X-6310000Y-33925622D01*
X-6285150Y-33929558D01*
G37*
G36*
X-5025150Y-33929558D02*
G01*
X-4997906Y-33929558D01*
X-4976915Y-33937197D01*
X-4957488Y-33940275D01*
X-4930053Y-33954253D01*
X-4900000Y-33965192D01*
X-4886727Y-33976329D01*
X-4874034Y-33982797D01*
X-4848033Y-34008798D01*
X-4820187Y-34032164D01*
X-4814068Y-34042763D01*
X-4807798Y-34049033D01*
X-4787896Y-34088093D01*
X-4768092Y-34122394D01*
X-4766861Y-34129376D01*
X-4765276Y-34132487D01*
X-4756125Y-34190266D01*
X-4750000Y-34225000D01*
X-4756126Y-34259737D01*
X-4765276Y-34317512D01*
X-4766861Y-34320621D01*
X-4768092Y-34327606D01*
X-4787900Y-34361913D01*
X-4807798Y-34400966D01*
X-4814066Y-34407233D01*
X-4820187Y-34417836D01*
X-4848039Y-34441206D01*
X-4874034Y-34467202D01*
X-4886724Y-34473667D01*
X-4900000Y-34484808D01*
X-4930060Y-34495748D01*
X-4957488Y-34509724D01*
X-4976910Y-34512800D01*
X-4997906Y-34520442D01*
X-5025156Y-34520442D01*
X-5050000Y-34524377D01*
X-5074844Y-34520442D01*
X-5102094Y-34520442D01*
X-5123090Y-34512800D01*
X-5142513Y-34509724D01*
X-5169944Y-34495747D01*
X-5200000Y-34484808D01*
X-5213275Y-34473669D01*
X-5225967Y-34467202D01*
X-5251968Y-34441201D01*
X-5279813Y-34417836D01*
X-5285933Y-34407236D01*
X-5292203Y-34400966D01*
X-5312109Y-34361899D01*
X-5331908Y-34327606D01*
X-5333139Y-34320624D01*
X-5334725Y-34317512D01*
X-5343885Y-34259681D01*
X-5350000Y-34225000D01*
X-5343886Y-34190321D01*
X-5334725Y-34132487D01*
X-5333139Y-34129373D01*
X-5331908Y-34122394D01*
X-5312113Y-34088108D01*
X-5292203Y-34049033D01*
X-5285932Y-34042761D01*
X-5279813Y-34032164D01*
X-5251974Y-34008803D01*
X-5225967Y-33982797D01*
X-5213272Y-33976328D01*
X-5200000Y-33965192D01*
X-5169951Y-33954255D01*
X-5142513Y-33940275D01*
X-5123085Y-33937197D01*
X-5102094Y-33929558D01*
X-5074850Y-33929558D01*
X-5050000Y-33925622D01*
X-5025150Y-33929558D01*
G37*
G36*
X-3765150Y-33929558D02*
G01*
X-3737906Y-33929558D01*
X-3716915Y-33937197D01*
X-3697488Y-33940275D01*
X-3670053Y-33954253D01*
X-3640000Y-33965192D01*
X-3626727Y-33976329D01*
X-3614034Y-33982797D01*
X-3588033Y-34008798D01*
X-3560187Y-34032164D01*
X-3554068Y-34042763D01*
X-3547798Y-34049033D01*
X-3527896Y-34088093D01*
X-3508092Y-34122394D01*
X-3506861Y-34129376D01*
X-3505276Y-34132487D01*
X-3496125Y-34190266D01*
X-3490000Y-34225000D01*
X-3496126Y-34259737D01*
X-3505276Y-34317512D01*
X-3506861Y-34320621D01*
X-3508092Y-34327606D01*
X-3527900Y-34361913D01*
X-3547798Y-34400966D01*
X-3554066Y-34407233D01*
X-3560187Y-34417836D01*
X-3588039Y-34441206D01*
X-3614034Y-34467202D01*
X-3626724Y-34473667D01*
X-3640000Y-34484808D01*
X-3670060Y-34495748D01*
X-3697488Y-34509724D01*
X-3716910Y-34512800D01*
X-3737906Y-34520442D01*
X-3765156Y-34520442D01*
X-3790000Y-34524377D01*
X-3814844Y-34520442D01*
X-3842094Y-34520442D01*
X-3863090Y-34512800D01*
X-3882513Y-34509724D01*
X-3909944Y-34495747D01*
X-3940000Y-34484808D01*
X-3953275Y-34473669D01*
X-3965967Y-34467202D01*
X-3991968Y-34441201D01*
X-4019813Y-34417836D01*
X-4025933Y-34407236D01*
X-4032203Y-34400966D01*
X-4052109Y-34361899D01*
X-4071908Y-34327606D01*
X-4073139Y-34320624D01*
X-4074725Y-34317512D01*
X-4083885Y-34259681D01*
X-4090000Y-34225000D01*
X-4083886Y-34190321D01*
X-4074725Y-34132487D01*
X-4073139Y-34129373D01*
X-4071908Y-34122394D01*
X-4052113Y-34088108D01*
X-4032203Y-34049033D01*
X-4025932Y-34042761D01*
X-4019813Y-34032164D01*
X-3991974Y-34008803D01*
X-3965967Y-33982797D01*
X-3953272Y-33976328D01*
X-3940000Y-33965192D01*
X-3909951Y-33954255D01*
X-3882513Y-33940275D01*
X-3863085Y-33937197D01*
X-3842094Y-33929558D01*
X-3814850Y-33929558D01*
X-3790000Y-33925622D01*
X-3765150Y-33929558D01*
G37*
G36*
X498080Y-33685034D02*
G01*
X562154Y-33727846D01*
X604966Y-33791920D01*
X620000Y-33867500D01*
X620000Y-34162500D01*
X604966Y-34238080D01*
X562154Y-34302154D01*
X498080Y-34344966D01*
X422500Y-34360000D01*
X77500Y-34360000D01*
X1920Y-34344966D01*
X-62154Y-34302154D01*
X-104966Y-34238080D01*
X-120000Y-34162500D01*
X-120000Y-33867500D01*
X-104966Y-33791920D01*
X-62154Y-33727846D01*
X1920Y-33685034D01*
X77500Y-33670000D01*
X422500Y-33670000D01*
X498080Y-33685034D01*
G37*
G36*
X-10661920Y-33190034D02*
G01*
X-10597846Y-33232846D01*
X-10555034Y-33296920D01*
X-10540000Y-33372500D01*
X-10540000Y-33667500D01*
X-10555034Y-33743080D01*
X-10597846Y-33807154D01*
X-10661920Y-33849966D01*
X-10737500Y-33865000D01*
X-11082500Y-33865000D01*
X-11158080Y-33849966D01*
X-11222154Y-33807154D01*
X-11264966Y-33743080D01*
X-11280000Y-33667500D01*
X-11280000Y-33372500D01*
X-11264966Y-33296920D01*
X-11222154Y-33232846D01*
X-11158080Y-33190034D01*
X-11082500Y-33175000D01*
X-10737500Y-33175000D01*
X-10661920Y-33190034D01*
G37*
G36*
X-11961920Y-33175034D02*
G01*
X-11897846Y-33217846D01*
X-11855034Y-33281920D01*
X-11840000Y-33357500D01*
X-11840000Y-33652500D01*
X-11855034Y-33728080D01*
X-11897846Y-33792154D01*
X-11961920Y-33834966D01*
X-12037500Y-33850000D01*
X-12382500Y-33850000D01*
X-12458080Y-33834966D01*
X-12522154Y-33792154D01*
X-12564966Y-33728080D01*
X-12580000Y-33652500D01*
X-12580000Y-33357500D01*
X-12564966Y-33281920D01*
X-12522154Y-33217846D01*
X-12458080Y-33175034D01*
X-12382500Y-33160000D01*
X-12037500Y-33160000D01*
X-11961920Y-33175034D01*
G37*
G36*
X-8231920Y-32815034D02*
G01*
X-8167846Y-32857846D01*
X-8125034Y-32921920D01*
X-8110000Y-32997500D01*
X-8110000Y-33292500D01*
X-8125034Y-33368080D01*
X-8167846Y-33432154D01*
X-8231920Y-33474966D01*
X-8307500Y-33490000D01*
X-8652500Y-33490000D01*
X-8728080Y-33474966D01*
X-8792154Y-33432154D01*
X-8834966Y-33368080D01*
X-8850000Y-33292500D01*
X-8850000Y-32997500D01*
X-8834966Y-32921920D01*
X-8792154Y-32857846D01*
X-8728080Y-32815034D01*
X-8652500Y-32800000D01*
X-8307500Y-32800000D01*
X-8231920Y-32815034D01*
G37*
G36*
X-7325150Y-32864558D02*
G01*
X-7297906Y-32864558D01*
X-7276915Y-32872197D01*
X-7257488Y-32875275D01*
X-7230053Y-32889253D01*
X-7200000Y-32900192D01*
X-7186727Y-32911329D01*
X-7174034Y-32917797D01*
X-7148033Y-32943798D01*
X-7120187Y-32967164D01*
X-7114068Y-32977763D01*
X-7107798Y-32984033D01*
X-7087896Y-33023093D01*
X-7068092Y-33057394D01*
X-7066861Y-33064376D01*
X-7065276Y-33067487D01*
X-7056125Y-33125266D01*
X-7050000Y-33160000D01*
X-7056126Y-33194737D01*
X-7065276Y-33252512D01*
X-7066861Y-33255621D01*
X-7068092Y-33262606D01*
X-7087900Y-33296913D01*
X-7107798Y-33335966D01*
X-7114066Y-33342233D01*
X-7120187Y-33352836D01*
X-7148039Y-33376206D01*
X-7174034Y-33402202D01*
X-7186724Y-33408667D01*
X-7200000Y-33419808D01*
X-7230060Y-33430748D01*
X-7257488Y-33444724D01*
X-7276910Y-33447800D01*
X-7297906Y-33455442D01*
X-7325156Y-33455442D01*
X-7350000Y-33459377D01*
X-7374844Y-33455442D01*
X-7402094Y-33455442D01*
X-7423090Y-33447800D01*
X-7442513Y-33444724D01*
X-7469944Y-33430747D01*
X-7500000Y-33419808D01*
X-7513275Y-33408669D01*
X-7525967Y-33402202D01*
X-7551968Y-33376201D01*
X-7579813Y-33352836D01*
X-7585933Y-33342236D01*
X-7592203Y-33335966D01*
X-7612109Y-33296899D01*
X-7631908Y-33262606D01*
X-7633139Y-33255624D01*
X-7634725Y-33252512D01*
X-7643885Y-33194681D01*
X-7650000Y-33160000D01*
X-7643886Y-33125321D01*
X-7634725Y-33067487D01*
X-7633139Y-33064373D01*
X-7631908Y-33057394D01*
X-7612113Y-33023108D01*
X-7592203Y-32984033D01*
X-7585932Y-32977761D01*
X-7579813Y-32967164D01*
X-7551974Y-32943803D01*
X-7525967Y-32917797D01*
X-7513272Y-32911328D01*
X-7500000Y-32900192D01*
X-7469951Y-32889255D01*
X-7442513Y-32875275D01*
X-7423085Y-32872197D01*
X-7402094Y-32864558D01*
X-7374850Y-32864558D01*
X-7350000Y-32860622D01*
X-7325150Y-32864558D01*
G37*
G36*
X-6285150Y-32864558D02*
G01*
X-6257906Y-32864558D01*
X-6236915Y-32872197D01*
X-6217488Y-32875275D01*
X-6190053Y-32889253D01*
X-6160000Y-32900192D01*
X-6146727Y-32911329D01*
X-6134034Y-32917797D01*
X-6108033Y-32943798D01*
X-6080187Y-32967164D01*
X-6074068Y-32977763D01*
X-6067798Y-32984033D01*
X-6047896Y-33023093D01*
X-6028092Y-33057394D01*
X-6026861Y-33064376D01*
X-6025276Y-33067487D01*
X-6016125Y-33125266D01*
X-6010000Y-33160000D01*
X-6016126Y-33194737D01*
X-6025276Y-33252512D01*
X-6026861Y-33255621D01*
X-6028092Y-33262606D01*
X-6047900Y-33296913D01*
X-6067798Y-33335966D01*
X-6074066Y-33342233D01*
X-6080187Y-33352836D01*
X-6108039Y-33376206D01*
X-6134034Y-33402202D01*
X-6146724Y-33408667D01*
X-6160000Y-33419808D01*
X-6190060Y-33430748D01*
X-6217488Y-33444724D01*
X-6236910Y-33447800D01*
X-6257906Y-33455442D01*
X-6285156Y-33455442D01*
X-6310000Y-33459377D01*
X-6334844Y-33455442D01*
X-6362094Y-33455442D01*
X-6383090Y-33447800D01*
X-6402513Y-33444724D01*
X-6429944Y-33430747D01*
X-6460000Y-33419808D01*
X-6473275Y-33408669D01*
X-6485967Y-33402202D01*
X-6511968Y-33376201D01*
X-6539813Y-33352836D01*
X-6545933Y-33342236D01*
X-6552203Y-33335966D01*
X-6572109Y-33296899D01*
X-6591908Y-33262606D01*
X-6593139Y-33255624D01*
X-6594725Y-33252512D01*
X-6603885Y-33194681D01*
X-6610000Y-33160000D01*
X-6603886Y-33125321D01*
X-6594725Y-33067487D01*
X-6593139Y-33064373D01*
X-6591908Y-33057394D01*
X-6572113Y-33023108D01*
X-6552203Y-32984033D01*
X-6545932Y-32977761D01*
X-6539813Y-32967164D01*
X-6511974Y-32943803D01*
X-6485967Y-32917797D01*
X-6473272Y-32911328D01*
X-6460000Y-32900192D01*
X-6429951Y-32889255D01*
X-6402513Y-32875275D01*
X-6383085Y-32872197D01*
X-6362094Y-32864558D01*
X-6334850Y-32864558D01*
X-6310000Y-32860622D01*
X-6285150Y-32864558D01*
G37*
G36*
X-5025150Y-32864558D02*
G01*
X-4997906Y-32864558D01*
X-4976915Y-32872197D01*
X-4957488Y-32875275D01*
X-4930053Y-32889253D01*
X-4900000Y-32900192D01*
X-4886727Y-32911329D01*
X-4874034Y-32917797D01*
X-4848033Y-32943798D01*
X-4820187Y-32967164D01*
X-4814068Y-32977763D01*
X-4807798Y-32984033D01*
X-4787896Y-33023093D01*
X-4768092Y-33057394D01*
X-4766861Y-33064376D01*
X-4765276Y-33067487D01*
X-4756125Y-33125266D01*
X-4750000Y-33160000D01*
X-4756126Y-33194737D01*
X-4765276Y-33252512D01*
X-4766861Y-33255621D01*
X-4768092Y-33262606D01*
X-4787900Y-33296913D01*
X-4807798Y-33335966D01*
X-4814066Y-33342233D01*
X-4820187Y-33352836D01*
X-4848039Y-33376206D01*
X-4874034Y-33402202D01*
X-4886724Y-33408667D01*
X-4900000Y-33419808D01*
X-4930060Y-33430748D01*
X-4957488Y-33444724D01*
X-4976910Y-33447800D01*
X-4997906Y-33455442D01*
X-5025156Y-33455442D01*
X-5050000Y-33459377D01*
X-5074844Y-33455442D01*
X-5102094Y-33455442D01*
X-5123090Y-33447800D01*
X-5142513Y-33444724D01*
X-5169944Y-33430747D01*
X-5200000Y-33419808D01*
X-5213275Y-33408669D01*
X-5225967Y-33402202D01*
X-5251968Y-33376201D01*
X-5279813Y-33352836D01*
X-5285933Y-33342236D01*
X-5292203Y-33335966D01*
X-5312109Y-33296899D01*
X-5331908Y-33262606D01*
X-5333139Y-33255624D01*
X-5334725Y-33252512D01*
X-5343885Y-33194681D01*
X-5350000Y-33160000D01*
X-5343886Y-33125321D01*
X-5334725Y-33067487D01*
X-5333139Y-33064373D01*
X-5331908Y-33057394D01*
X-5312113Y-33023108D01*
X-5292203Y-32984033D01*
X-5285932Y-32977761D01*
X-5279813Y-32967164D01*
X-5251974Y-32943803D01*
X-5225967Y-32917797D01*
X-5213272Y-32911328D01*
X-5200000Y-32900192D01*
X-5169951Y-32889255D01*
X-5142513Y-32875275D01*
X-5123085Y-32872197D01*
X-5102094Y-32864558D01*
X-5074850Y-32864558D01*
X-5050000Y-32860622D01*
X-5025150Y-32864558D01*
G37*
G36*
X-3765150Y-32864558D02*
G01*
X-3737906Y-32864558D01*
X-3716915Y-32872197D01*
X-3697488Y-32875275D01*
X-3670053Y-32889253D01*
X-3640000Y-32900192D01*
X-3626727Y-32911329D01*
X-3614034Y-32917797D01*
X-3588033Y-32943798D01*
X-3560187Y-32967164D01*
X-3554068Y-32977763D01*
X-3547798Y-32984033D01*
X-3527896Y-33023093D01*
X-3508092Y-33057394D01*
X-3506861Y-33064376D01*
X-3505276Y-33067487D01*
X-3496125Y-33125266D01*
X-3490000Y-33160000D01*
X-3496126Y-33194737D01*
X-3505276Y-33252512D01*
X-3506861Y-33255621D01*
X-3508092Y-33262606D01*
X-3527900Y-33296913D01*
X-3547798Y-33335966D01*
X-3554066Y-33342233D01*
X-3560187Y-33352836D01*
X-3588039Y-33376206D01*
X-3614034Y-33402202D01*
X-3626724Y-33408667D01*
X-3640000Y-33419808D01*
X-3670060Y-33430748D01*
X-3697488Y-33444724D01*
X-3716910Y-33447800D01*
X-3737906Y-33455442D01*
X-3765156Y-33455442D01*
X-3790000Y-33459377D01*
X-3814844Y-33455442D01*
X-3842094Y-33455442D01*
X-3863090Y-33447800D01*
X-3882513Y-33444724D01*
X-3909944Y-33430747D01*
X-3940000Y-33419808D01*
X-3953275Y-33408669D01*
X-3965967Y-33402202D01*
X-3991968Y-33376201D01*
X-4019813Y-33352836D01*
X-4025933Y-33342236D01*
X-4032203Y-33335966D01*
X-4052109Y-33296899D01*
X-4071908Y-33262606D01*
X-4073139Y-33255624D01*
X-4074725Y-33252512D01*
X-4083885Y-33194681D01*
X-4090000Y-33160000D01*
X-4083886Y-33125321D01*
X-4074725Y-33067487D01*
X-4073139Y-33064373D01*
X-4071908Y-33057394D01*
X-4052113Y-33023108D01*
X-4032203Y-32984033D01*
X-4025932Y-32977761D01*
X-4019813Y-32967164D01*
X-3991974Y-32943803D01*
X-3965967Y-32917797D01*
X-3953272Y-32911328D01*
X-3940000Y-32900192D01*
X-3909951Y-32889255D01*
X-3882513Y-32875275D01*
X-3863085Y-32872197D01*
X-3842094Y-32864558D01*
X-3814850Y-32864558D01*
X-3790000Y-32860622D01*
X-3765150Y-32864558D01*
G37*
G36*
X-2700150Y-32864558D02*
G01*
X-2672906Y-32864558D01*
X-2651915Y-32872197D01*
X-2632488Y-32875275D01*
X-2605053Y-32889253D01*
X-2575000Y-32900192D01*
X-2561727Y-32911329D01*
X-2549034Y-32917797D01*
X-2523033Y-32943798D01*
X-2495187Y-32967164D01*
X-2489068Y-32977763D01*
X-2482798Y-32984033D01*
X-2462896Y-33023093D01*
X-2443092Y-33057394D01*
X-2441861Y-33064376D01*
X-2440276Y-33067487D01*
X-2431125Y-33125266D01*
X-2425000Y-33160000D01*
X-2431126Y-33194737D01*
X-2440276Y-33252512D01*
X-2441861Y-33255621D01*
X-2443092Y-33262606D01*
X-2462900Y-33296913D01*
X-2482798Y-33335966D01*
X-2489066Y-33342233D01*
X-2495187Y-33352836D01*
X-2523039Y-33376206D01*
X-2549034Y-33402202D01*
X-2561724Y-33408667D01*
X-2575000Y-33419808D01*
X-2605060Y-33430748D01*
X-2632488Y-33444724D01*
X-2651910Y-33447800D01*
X-2672906Y-33455442D01*
X-2700156Y-33455442D01*
X-2725000Y-33459377D01*
X-2749844Y-33455442D01*
X-2777094Y-33455442D01*
X-2798090Y-33447800D01*
X-2817513Y-33444724D01*
X-2844944Y-33430747D01*
X-2875000Y-33419808D01*
X-2888275Y-33408669D01*
X-2900967Y-33402202D01*
X-2926968Y-33376201D01*
X-2954813Y-33352836D01*
X-2960933Y-33342236D01*
X-2967203Y-33335966D01*
X-2987109Y-33296899D01*
X-3006908Y-33262606D01*
X-3008139Y-33255624D01*
X-3009725Y-33252512D01*
X-3018885Y-33194681D01*
X-3025000Y-33160000D01*
X-3018886Y-33125321D01*
X-3009725Y-33067487D01*
X-3008139Y-33064373D01*
X-3006908Y-33057394D01*
X-2987113Y-33023108D01*
X-2967203Y-32984033D01*
X-2960932Y-32977761D01*
X-2954813Y-32967164D01*
X-2926974Y-32943803D01*
X-2900967Y-32917797D01*
X-2888272Y-32911328D01*
X-2875000Y-32900192D01*
X-2844951Y-32889255D01*
X-2817513Y-32875275D01*
X-2798085Y-32872197D01*
X-2777094Y-32864558D01*
X-2749850Y-32864558D01*
X-2725000Y-32860622D01*
X-2700150Y-32864558D01*
G37*
G36*
X-9251920Y-32065034D02*
G01*
X-9187846Y-32107846D01*
X-9145034Y-32171920D01*
X-9130000Y-32247500D01*
X-9130000Y-32542500D01*
X-9145034Y-32618080D01*
X-9187846Y-32682154D01*
X-9251920Y-32724966D01*
X-9327500Y-32740000D01*
X-9672500Y-32740000D01*
X-9748080Y-32724966D01*
X-9812154Y-32682154D01*
X-9854966Y-32618080D01*
X-9870000Y-32542500D01*
X-9870000Y-32247500D01*
X-9854966Y-32171920D01*
X-9812154Y-32107846D01*
X-9748080Y-32065034D01*
X-9672500Y-32050000D01*
X-9327500Y-32050000D01*
X-9251920Y-32065034D01*
G37*
G36*
X-8231920Y-31845034D02*
G01*
X-8167846Y-31887846D01*
X-8125034Y-31951920D01*
X-8110000Y-32027500D01*
X-8110000Y-32322500D01*
X-8125034Y-32398080D01*
X-8167846Y-32462154D01*
X-8231920Y-32504966D01*
X-8307500Y-32520000D01*
X-8652500Y-32520000D01*
X-8728080Y-32504966D01*
X-8792154Y-32462154D01*
X-8834966Y-32398080D01*
X-8850000Y-32322500D01*
X-8850000Y-32027500D01*
X-8834966Y-31951920D01*
X-8792154Y-31887846D01*
X-8728080Y-31845034D01*
X-8652500Y-31830000D01*
X-8307500Y-31830000D01*
X-8231920Y-31845034D01*
G37*
G36*
X-7325150Y-31604558D02*
G01*
X-7297906Y-31604558D01*
X-7276915Y-31612197D01*
X-7257488Y-31615275D01*
X-7230053Y-31629253D01*
X-7200000Y-31640192D01*
X-7186727Y-31651329D01*
X-7174034Y-31657797D01*
X-7148033Y-31683798D01*
X-7120187Y-31707164D01*
X-7114068Y-31717763D01*
X-7107798Y-31724033D01*
X-7087896Y-31763093D01*
X-7068092Y-31797394D01*
X-7066861Y-31804376D01*
X-7065276Y-31807487D01*
X-7056125Y-31865266D01*
X-7050000Y-31900000D01*
X-7056126Y-31934737D01*
X-7065276Y-31992512D01*
X-7066861Y-31995621D01*
X-7068092Y-32002606D01*
X-7087900Y-32036913D01*
X-7107798Y-32075966D01*
X-7114066Y-32082233D01*
X-7120187Y-32092836D01*
X-7148039Y-32116206D01*
X-7174034Y-32142202D01*
X-7186724Y-32148667D01*
X-7200000Y-32159808D01*
X-7230060Y-32170748D01*
X-7257488Y-32184724D01*
X-7276910Y-32187800D01*
X-7297906Y-32195442D01*
X-7325156Y-32195442D01*
X-7350000Y-32199377D01*
X-7374844Y-32195442D01*
X-7402094Y-32195442D01*
X-7423090Y-32187800D01*
X-7442513Y-32184724D01*
X-7469944Y-32170747D01*
X-7500000Y-32159808D01*
X-7513275Y-32148669D01*
X-7525967Y-32142202D01*
X-7551968Y-32116201D01*
X-7579813Y-32092836D01*
X-7585933Y-32082236D01*
X-7592203Y-32075966D01*
X-7612109Y-32036899D01*
X-7631908Y-32002606D01*
X-7633139Y-31995624D01*
X-7634725Y-31992512D01*
X-7643885Y-31934681D01*
X-7650000Y-31900000D01*
X-7643886Y-31865321D01*
X-7634725Y-31807487D01*
X-7633139Y-31804373D01*
X-7631908Y-31797394D01*
X-7612113Y-31763108D01*
X-7592203Y-31724033D01*
X-7585932Y-31717761D01*
X-7579813Y-31707164D01*
X-7551974Y-31683803D01*
X-7525967Y-31657797D01*
X-7513272Y-31651328D01*
X-7500000Y-31640192D01*
X-7469951Y-31629255D01*
X-7442513Y-31615275D01*
X-7423085Y-31612197D01*
X-7402094Y-31604558D01*
X-7374850Y-31604558D01*
X-7350000Y-31600622D01*
X-7325150Y-31604558D01*
G37*
G36*
X-6285150Y-31604558D02*
G01*
X-6257906Y-31604558D01*
X-6236915Y-31612197D01*
X-6217488Y-31615275D01*
X-6190053Y-31629253D01*
X-6160000Y-31640192D01*
X-6146727Y-31651329D01*
X-6134034Y-31657797D01*
X-6108033Y-31683798D01*
X-6080187Y-31707164D01*
X-6074068Y-31717763D01*
X-6067798Y-31724033D01*
X-6047896Y-31763093D01*
X-6028092Y-31797394D01*
X-6026861Y-31804376D01*
X-6025276Y-31807487D01*
X-6016125Y-31865266D01*
X-6010000Y-31900000D01*
X-6016126Y-31934737D01*
X-6025276Y-31992512D01*
X-6026861Y-31995621D01*
X-6028092Y-32002606D01*
X-6047900Y-32036913D01*
X-6067798Y-32075966D01*
X-6074066Y-32082233D01*
X-6080187Y-32092836D01*
X-6108039Y-32116206D01*
X-6134034Y-32142202D01*
X-6146724Y-32148667D01*
X-6160000Y-32159808D01*
X-6190060Y-32170748D01*
X-6217488Y-32184724D01*
X-6236910Y-32187800D01*
X-6257906Y-32195442D01*
X-6285156Y-32195442D01*
X-6310000Y-32199377D01*
X-6334844Y-32195442D01*
X-6362094Y-32195442D01*
X-6383090Y-32187800D01*
X-6402513Y-32184724D01*
X-6429944Y-32170747D01*
X-6460000Y-32159808D01*
X-6473275Y-32148669D01*
X-6485967Y-32142202D01*
X-6511968Y-32116201D01*
X-6539813Y-32092836D01*
X-6545933Y-32082236D01*
X-6552203Y-32075966D01*
X-6572109Y-32036899D01*
X-6591908Y-32002606D01*
X-6593139Y-31995624D01*
X-6594725Y-31992512D01*
X-6603885Y-31934681D01*
X-6610000Y-31900000D01*
X-6603886Y-31865321D01*
X-6594725Y-31807487D01*
X-6593139Y-31804373D01*
X-6591908Y-31797394D01*
X-6572113Y-31763108D01*
X-6552203Y-31724033D01*
X-6545932Y-31717761D01*
X-6539813Y-31707164D01*
X-6511974Y-31683803D01*
X-6485967Y-31657797D01*
X-6473272Y-31651328D01*
X-6460000Y-31640192D01*
X-6429951Y-31629255D01*
X-6402513Y-31615275D01*
X-6383085Y-31612197D01*
X-6362094Y-31604558D01*
X-6334850Y-31604558D01*
X-6310000Y-31600622D01*
X-6285150Y-31604558D01*
G37*
G36*
X-5025150Y-31604558D02*
G01*
X-4997906Y-31604558D01*
X-4976915Y-31612197D01*
X-4957488Y-31615275D01*
X-4930053Y-31629253D01*
X-4900000Y-31640192D01*
X-4886727Y-31651329D01*
X-4874034Y-31657797D01*
X-4848033Y-31683798D01*
X-4820187Y-31707164D01*
X-4814068Y-31717763D01*
X-4807798Y-31724033D01*
X-4787896Y-31763093D01*
X-4768092Y-31797394D01*
X-4766861Y-31804376D01*
X-4765276Y-31807487D01*
X-4756125Y-31865266D01*
X-4750000Y-31900000D01*
X-4756126Y-31934737D01*
X-4765276Y-31992512D01*
X-4766861Y-31995621D01*
X-4768092Y-32002606D01*
X-4787900Y-32036913D01*
X-4807798Y-32075966D01*
X-4814066Y-32082233D01*
X-4820187Y-32092836D01*
X-4848039Y-32116206D01*
X-4874034Y-32142202D01*
X-4886724Y-32148667D01*
X-4900000Y-32159808D01*
X-4930060Y-32170748D01*
X-4957488Y-32184724D01*
X-4976910Y-32187800D01*
X-4997906Y-32195442D01*
X-5025156Y-32195442D01*
X-5050000Y-32199377D01*
X-5074844Y-32195442D01*
X-5102094Y-32195442D01*
X-5123090Y-32187800D01*
X-5142513Y-32184724D01*
X-5169944Y-32170747D01*
X-5200000Y-32159808D01*
X-5213275Y-32148669D01*
X-5225967Y-32142202D01*
X-5251968Y-32116201D01*
X-5279813Y-32092836D01*
X-5285933Y-32082236D01*
X-5292203Y-32075966D01*
X-5312109Y-32036899D01*
X-5331908Y-32002606D01*
X-5333139Y-31995624D01*
X-5334725Y-31992512D01*
X-5343885Y-31934681D01*
X-5350000Y-31900000D01*
X-5343886Y-31865321D01*
X-5334725Y-31807487D01*
X-5333139Y-31804373D01*
X-5331908Y-31797394D01*
X-5312113Y-31763108D01*
X-5292203Y-31724033D01*
X-5285932Y-31717761D01*
X-5279813Y-31707164D01*
X-5251974Y-31683803D01*
X-5225967Y-31657797D01*
X-5213272Y-31651328D01*
X-5200000Y-31640192D01*
X-5169951Y-31629255D01*
X-5142513Y-31615275D01*
X-5123085Y-31612197D01*
X-5102094Y-31604558D01*
X-5074850Y-31604558D01*
X-5050000Y-31600622D01*
X-5025150Y-31604558D01*
G37*
G36*
X-3765150Y-31604558D02*
G01*
X-3737906Y-31604558D01*
X-3716915Y-31612197D01*
X-3697488Y-31615275D01*
X-3670053Y-31629253D01*
X-3640000Y-31640192D01*
X-3626727Y-31651329D01*
X-3614034Y-31657797D01*
X-3588033Y-31683798D01*
X-3560187Y-31707164D01*
X-3554068Y-31717763D01*
X-3547798Y-31724033D01*
X-3527896Y-31763093D01*
X-3508092Y-31797394D01*
X-3506861Y-31804376D01*
X-3505276Y-31807487D01*
X-3496125Y-31865266D01*
X-3490000Y-31900000D01*
X-3496126Y-31934737D01*
X-3505276Y-31992512D01*
X-3506861Y-31995621D01*
X-3508092Y-32002606D01*
X-3527900Y-32036913D01*
X-3547798Y-32075966D01*
X-3554066Y-32082233D01*
X-3560187Y-32092836D01*
X-3588039Y-32116206D01*
X-3614034Y-32142202D01*
X-3626724Y-32148667D01*
X-3640000Y-32159808D01*
X-3670060Y-32170748D01*
X-3697488Y-32184724D01*
X-3716910Y-32187800D01*
X-3737906Y-32195442D01*
X-3765156Y-32195442D01*
X-3790000Y-32199377D01*
X-3814844Y-32195442D01*
X-3842094Y-32195442D01*
X-3863090Y-32187800D01*
X-3882513Y-32184724D01*
X-3909944Y-32170747D01*
X-3940000Y-32159808D01*
X-3953275Y-32148669D01*
X-3965967Y-32142202D01*
X-3991968Y-32116201D01*
X-4019813Y-32092836D01*
X-4025933Y-32082236D01*
X-4032203Y-32075966D01*
X-4052109Y-32036899D01*
X-4071908Y-32002606D01*
X-4073139Y-31995624D01*
X-4074725Y-31992512D01*
X-4083885Y-31934681D01*
X-4090000Y-31900000D01*
X-4083886Y-31865321D01*
X-4074725Y-31807487D01*
X-4073139Y-31804373D01*
X-4071908Y-31797394D01*
X-4052113Y-31763108D01*
X-4032203Y-31724033D01*
X-4025932Y-31717761D01*
X-4019813Y-31707164D01*
X-3991974Y-31683803D01*
X-3965967Y-31657797D01*
X-3953272Y-31651328D01*
X-3940000Y-31640192D01*
X-3909951Y-31629255D01*
X-3882513Y-31615275D01*
X-3863085Y-31612197D01*
X-3842094Y-31604558D01*
X-3814850Y-31604558D01*
X-3790000Y-31600622D01*
X-3765150Y-31604558D01*
G37*
G36*
X-2700150Y-31604558D02*
G01*
X-2672906Y-31604558D01*
X-2651915Y-31612197D01*
X-2632488Y-31615275D01*
X-2605053Y-31629253D01*
X-2575000Y-31640192D01*
X-2561727Y-31651329D01*
X-2549034Y-31657797D01*
X-2523033Y-31683798D01*
X-2495187Y-31707164D01*
X-2489068Y-31717763D01*
X-2482798Y-31724033D01*
X-2462896Y-31763093D01*
X-2443092Y-31797394D01*
X-2441861Y-31804376D01*
X-2440276Y-31807487D01*
X-2431125Y-31865266D01*
X-2425000Y-31900000D01*
X-2431126Y-31934737D01*
X-2440276Y-31992512D01*
X-2441861Y-31995621D01*
X-2443092Y-32002606D01*
X-2462900Y-32036913D01*
X-2482798Y-32075966D01*
X-2489066Y-32082233D01*
X-2495187Y-32092836D01*
X-2523039Y-32116206D01*
X-2549034Y-32142202D01*
X-2561724Y-32148667D01*
X-2575000Y-32159808D01*
X-2605060Y-32170748D01*
X-2632488Y-32184724D01*
X-2651910Y-32187800D01*
X-2672906Y-32195442D01*
X-2700156Y-32195442D01*
X-2725000Y-32199377D01*
X-2749844Y-32195442D01*
X-2777094Y-32195442D01*
X-2798090Y-32187800D01*
X-2817513Y-32184724D01*
X-2844944Y-32170747D01*
X-2875000Y-32159808D01*
X-2888275Y-32148669D01*
X-2900967Y-32142202D01*
X-2926968Y-32116201D01*
X-2954813Y-32092836D01*
X-2960933Y-32082236D01*
X-2967203Y-32075966D01*
X-2987109Y-32036899D01*
X-3006908Y-32002606D01*
X-3008139Y-31995624D01*
X-3009725Y-31992512D01*
X-3018885Y-31934681D01*
X-3025000Y-31900000D01*
X-3018886Y-31865321D01*
X-3009725Y-31807487D01*
X-3008139Y-31804373D01*
X-3006908Y-31797394D01*
X-2987113Y-31763108D01*
X-2967203Y-31724033D01*
X-2960932Y-31717761D01*
X-2954813Y-31707164D01*
X-2926974Y-31683803D01*
X-2900967Y-31657797D01*
X-2888272Y-31651328D01*
X-2875000Y-31640192D01*
X-2844951Y-31629255D01*
X-2817513Y-31615275D01*
X-2798085Y-31612197D01*
X-2777094Y-31604558D01*
X-2749850Y-31604558D01*
X-2725000Y-31600622D01*
X-2700150Y-31604558D01*
G37*
G36*
X618080Y-31240034D02*
G01*
X682154Y-31282846D01*
X724966Y-31346920D01*
X740000Y-31422500D01*
X740000Y-31717500D01*
X724966Y-31793080D01*
X682154Y-31857154D01*
X618080Y-31899966D01*
X542500Y-31915000D01*
X197500Y-31915000D01*
X121920Y-31899966D01*
X57846Y-31857154D01*
X15034Y-31793080D01*
X0Y-31717500D01*
X0Y-31422500D01*
X15034Y-31346920D01*
X57846Y-31282846D01*
X121920Y-31240034D01*
X197500Y-31225000D01*
X542500Y-31225000D01*
X618080Y-31240034D01*
G37*
G36*
X-9251920Y-31095034D02*
G01*
X-9187846Y-31137846D01*
X-9145034Y-31201920D01*
X-9130000Y-31277500D01*
X-9130000Y-31572500D01*
X-9145034Y-31648080D01*
X-9187846Y-31712154D01*
X-9251920Y-31754966D01*
X-9327500Y-31770000D01*
X-9672500Y-31770000D01*
X-9748080Y-31754966D01*
X-9812154Y-31712154D01*
X-9854966Y-31648080D01*
X-9870000Y-31572500D01*
X-9870000Y-31277500D01*
X-9854966Y-31201920D01*
X-9812154Y-31137846D01*
X-9748080Y-31095034D01*
X-9672500Y-31080000D01*
X-9327500Y-31080000D01*
X-9251920Y-31095034D01*
G37*
G36*
X5599534Y-29610946D02*
G01*
X5615755Y-29621785D01*
X5626594Y-29638006D01*
X5630400Y-29657140D01*
X5630400Y-31257140D01*
X5626594Y-31276274D01*
X5615755Y-31292495D01*
X5599534Y-31303334D01*
X5580400Y-31307140D01*
X3980400Y-31307140D01*
X3961266Y-31303334D01*
X3945045Y-31292495D01*
X3934206Y-31276274D01*
X3930400Y-31257140D01*
X3930400Y-29657140D01*
X3934206Y-29638006D01*
X3945045Y-29621785D01*
X3961266Y-29610946D01*
X3980400Y-29607140D01*
X5580400Y-29607140D01*
X5599534Y-29610946D01*
G37*
G36*
X8543064Y-29648742D02*
G01*
X8705400Y-29721018D01*
X8849161Y-29825467D01*
X8968064Y-29957523D01*
X9056914Y-30111414D01*
X9111825Y-30280415D01*
X9130400Y-30457140D01*
X9111825Y-30633865D01*
X9056914Y-30802866D01*
X8968064Y-30956757D01*
X8849161Y-31088813D01*
X8705400Y-31193262D01*
X8543064Y-31265538D01*
X8369249Y-31302484D01*
X8191551Y-31302484D01*
X8017736Y-31265538D01*
X7855400Y-31193262D01*
X7711639Y-31088813D01*
X7592736Y-30956757D01*
X7503886Y-30802866D01*
X7448975Y-30633865D01*
X7430400Y-30457140D01*
X7448975Y-30280415D01*
X7503886Y-30111414D01*
X7592736Y-29957523D01*
X7711639Y-29825467D01*
X7855400Y-29721018D01*
X8017736Y-29648742D01*
X8191551Y-29611796D01*
X8369249Y-29611796D01*
X8543064Y-29648742D01*
G37*
G36*
X618080Y-30270034D02*
G01*
X682154Y-30312846D01*
X724966Y-30376920D01*
X740000Y-30452500D01*
X740000Y-30747500D01*
X724966Y-30823080D01*
X682154Y-30887154D01*
X618080Y-30929966D01*
X542500Y-30945000D01*
X197500Y-30945000D01*
X121920Y-30929966D01*
X57846Y-30887154D01*
X15034Y-30823080D01*
X0Y-30747500D01*
X0Y-30452500D01*
X15034Y-30376920D01*
X57846Y-30312846D01*
X121920Y-30270034D01*
X197500Y-30255000D01*
X542500Y-30255000D01*
X618080Y-30270034D01*
G37*
G36*
X-7350150Y-30344558D02*
G01*
X-7322906Y-30344558D01*
X-7301915Y-30352197D01*
X-7282488Y-30355275D01*
X-7255053Y-30369253D01*
X-7225000Y-30380192D01*
X-7211727Y-30391329D01*
X-7199034Y-30397797D01*
X-7173033Y-30423798D01*
X-7145187Y-30447164D01*
X-7139068Y-30457763D01*
X-7132798Y-30464033D01*
X-7112896Y-30503093D01*
X-7093092Y-30537394D01*
X-7091861Y-30544376D01*
X-7090276Y-30547487D01*
X-7081125Y-30605266D01*
X-7075000Y-30640000D01*
X-7081126Y-30674737D01*
X-7090276Y-30732512D01*
X-7091861Y-30735621D01*
X-7093092Y-30742606D01*
X-7112900Y-30776913D01*
X-7132798Y-30815966D01*
X-7139066Y-30822233D01*
X-7145187Y-30832836D01*
X-7173039Y-30856206D01*
X-7199034Y-30882202D01*
X-7211724Y-30888667D01*
X-7225000Y-30899808D01*
X-7255060Y-30910748D01*
X-7282488Y-30924724D01*
X-7301910Y-30927800D01*
X-7322906Y-30935442D01*
X-7350156Y-30935442D01*
X-7375000Y-30939377D01*
X-7399844Y-30935442D01*
X-7427094Y-30935442D01*
X-7448090Y-30927800D01*
X-7467513Y-30924724D01*
X-7494944Y-30910747D01*
X-7525000Y-30899808D01*
X-7538275Y-30888669D01*
X-7550967Y-30882202D01*
X-7576968Y-30856201D01*
X-7604813Y-30832836D01*
X-7610933Y-30822236D01*
X-7617203Y-30815966D01*
X-7637109Y-30776899D01*
X-7656908Y-30742606D01*
X-7658139Y-30735624D01*
X-7659725Y-30732512D01*
X-7668885Y-30674681D01*
X-7675000Y-30640000D01*
X-7668886Y-30605321D01*
X-7659725Y-30547487D01*
X-7658139Y-30544373D01*
X-7656908Y-30537394D01*
X-7637113Y-30503108D01*
X-7617203Y-30464033D01*
X-7610932Y-30457761D01*
X-7604813Y-30447164D01*
X-7576974Y-30423803D01*
X-7550967Y-30397797D01*
X-7538272Y-30391328D01*
X-7525000Y-30380192D01*
X-7494951Y-30369255D01*
X-7467513Y-30355275D01*
X-7448085Y-30352197D01*
X-7427094Y-30344558D01*
X-7399850Y-30344558D01*
X-7375000Y-30340622D01*
X-7350150Y-30344558D01*
G37*
G36*
X-6285150Y-30344558D02*
G01*
X-6257906Y-30344558D01*
X-6236915Y-30352197D01*
X-6217488Y-30355275D01*
X-6190053Y-30369253D01*
X-6160000Y-30380192D01*
X-6146727Y-30391329D01*
X-6134034Y-30397797D01*
X-6108033Y-30423798D01*
X-6080187Y-30447164D01*
X-6074068Y-30457763D01*
X-6067798Y-30464033D01*
X-6047896Y-30503093D01*
X-6028092Y-30537394D01*
X-6026861Y-30544376D01*
X-6025276Y-30547487D01*
X-6016125Y-30605266D01*
X-6010000Y-30640000D01*
X-6016126Y-30674737D01*
X-6025276Y-30732512D01*
X-6026861Y-30735621D01*
X-6028092Y-30742606D01*
X-6047900Y-30776913D01*
X-6067798Y-30815966D01*
X-6074066Y-30822233D01*
X-6080187Y-30832836D01*
X-6108039Y-30856206D01*
X-6134034Y-30882202D01*
X-6146724Y-30888667D01*
X-6160000Y-30899808D01*
X-6190060Y-30910748D01*
X-6217488Y-30924724D01*
X-6236910Y-30927800D01*
X-6257906Y-30935442D01*
X-6285156Y-30935442D01*
X-6310000Y-30939377D01*
X-6334844Y-30935442D01*
X-6362094Y-30935442D01*
X-6383090Y-30927800D01*
X-6402513Y-30924724D01*
X-6429944Y-30910747D01*
X-6460000Y-30899808D01*
X-6473275Y-30888669D01*
X-6485967Y-30882202D01*
X-6511968Y-30856201D01*
X-6539813Y-30832836D01*
X-6545933Y-30822236D01*
X-6552203Y-30815966D01*
X-6572109Y-30776899D01*
X-6591908Y-30742606D01*
X-6593139Y-30735624D01*
X-6594725Y-30732512D01*
X-6603885Y-30674681D01*
X-6610000Y-30640000D01*
X-6603886Y-30605321D01*
X-6594725Y-30547487D01*
X-6593139Y-30544373D01*
X-6591908Y-30537394D01*
X-6572113Y-30503108D01*
X-6552203Y-30464033D01*
X-6545932Y-30457761D01*
X-6539813Y-30447164D01*
X-6511974Y-30423803D01*
X-6485967Y-30397797D01*
X-6473272Y-30391328D01*
X-6460000Y-30380192D01*
X-6429951Y-30369255D01*
X-6402513Y-30355275D01*
X-6383085Y-30352197D01*
X-6362094Y-30344558D01*
X-6334850Y-30344558D01*
X-6310000Y-30340622D01*
X-6285150Y-30344558D01*
G37*
G36*
X-5025150Y-30344558D02*
G01*
X-4997906Y-30344558D01*
X-4976915Y-30352197D01*
X-4957488Y-30355275D01*
X-4930053Y-30369253D01*
X-4900000Y-30380192D01*
X-4886727Y-30391329D01*
X-4874034Y-30397797D01*
X-4848033Y-30423798D01*
X-4820187Y-30447164D01*
X-4814068Y-30457763D01*
X-4807798Y-30464033D01*
X-4787896Y-30503093D01*
X-4768092Y-30537394D01*
X-4766861Y-30544376D01*
X-4765276Y-30547487D01*
X-4756125Y-30605266D01*
X-4750000Y-30640000D01*
X-4756126Y-30674737D01*
X-4765276Y-30732512D01*
X-4766861Y-30735621D01*
X-4768092Y-30742606D01*
X-4787900Y-30776913D01*
X-4807798Y-30815966D01*
X-4814066Y-30822233D01*
X-4820187Y-30832836D01*
X-4848039Y-30856206D01*
X-4874034Y-30882202D01*
X-4886724Y-30888667D01*
X-4900000Y-30899808D01*
X-4930060Y-30910748D01*
X-4957488Y-30924724D01*
X-4976910Y-30927800D01*
X-4997906Y-30935442D01*
X-5025156Y-30935442D01*
X-5050000Y-30939377D01*
X-5074844Y-30935442D01*
X-5102094Y-30935442D01*
X-5123090Y-30927800D01*
X-5142513Y-30924724D01*
X-5169944Y-30910747D01*
X-5200000Y-30899808D01*
X-5213275Y-30888669D01*
X-5225967Y-30882202D01*
X-5251968Y-30856201D01*
X-5279813Y-30832836D01*
X-5285933Y-30822236D01*
X-5292203Y-30815966D01*
X-5312109Y-30776899D01*
X-5331908Y-30742606D01*
X-5333139Y-30735624D01*
X-5334725Y-30732512D01*
X-5343885Y-30674681D01*
X-5350000Y-30640000D01*
X-5343886Y-30605321D01*
X-5334725Y-30547487D01*
X-5333139Y-30544373D01*
X-5331908Y-30537394D01*
X-5312113Y-30503108D01*
X-5292203Y-30464033D01*
X-5285932Y-30457761D01*
X-5279813Y-30447164D01*
X-5251974Y-30423803D01*
X-5225967Y-30397797D01*
X-5213272Y-30391328D01*
X-5200000Y-30380192D01*
X-5169951Y-30369255D01*
X-5142513Y-30355275D01*
X-5123085Y-30352197D01*
X-5102094Y-30344558D01*
X-5074850Y-30344558D01*
X-5050000Y-30340622D01*
X-5025150Y-30344558D01*
G37*
G36*
X-3765150Y-30344558D02*
G01*
X-3737906Y-30344558D01*
X-3716915Y-30352197D01*
X-3697488Y-30355275D01*
X-3670053Y-30369253D01*
X-3640000Y-30380192D01*
X-3626727Y-30391329D01*
X-3614034Y-30397797D01*
X-3588033Y-30423798D01*
X-3560187Y-30447164D01*
X-3554068Y-30457763D01*
X-3547798Y-30464033D01*
X-3527896Y-30503093D01*
X-3508092Y-30537394D01*
X-3506861Y-30544376D01*
X-3505276Y-30547487D01*
X-3496125Y-30605266D01*
X-3490000Y-30640000D01*
X-3496126Y-30674737D01*
X-3505276Y-30732512D01*
X-3506861Y-30735621D01*
X-3508092Y-30742606D01*
X-3527900Y-30776913D01*
X-3547798Y-30815966D01*
X-3554066Y-30822233D01*
X-3560187Y-30832836D01*
X-3588039Y-30856206D01*
X-3614034Y-30882202D01*
X-3626724Y-30888667D01*
X-3640000Y-30899808D01*
X-3670060Y-30910748D01*
X-3697488Y-30924724D01*
X-3716910Y-30927800D01*
X-3737906Y-30935442D01*
X-3765156Y-30935442D01*
X-3790000Y-30939377D01*
X-3814844Y-30935442D01*
X-3842094Y-30935442D01*
X-3863090Y-30927800D01*
X-3882513Y-30924724D01*
X-3909944Y-30910747D01*
X-3940000Y-30899808D01*
X-3953275Y-30888669D01*
X-3965967Y-30882202D01*
X-3991968Y-30856201D01*
X-4019813Y-30832836D01*
X-4025933Y-30822236D01*
X-4032203Y-30815966D01*
X-4052109Y-30776899D01*
X-4071908Y-30742606D01*
X-4073139Y-30735624D01*
X-4074725Y-30732512D01*
X-4083885Y-30674681D01*
X-4090000Y-30640000D01*
X-4083886Y-30605321D01*
X-4074725Y-30547487D01*
X-4073139Y-30544373D01*
X-4071908Y-30537394D01*
X-4052113Y-30503108D01*
X-4032203Y-30464033D01*
X-4025932Y-30457761D01*
X-4019813Y-30447164D01*
X-3991974Y-30423803D01*
X-3965967Y-30397797D01*
X-3953272Y-30391328D01*
X-3940000Y-30380192D01*
X-3909951Y-30369255D01*
X-3882513Y-30355275D01*
X-3863085Y-30352197D01*
X-3842094Y-30344558D01*
X-3814850Y-30344558D01*
X-3790000Y-30340622D01*
X-3765150Y-30344558D01*
G37*
G36*
X-2700150Y-30344558D02*
G01*
X-2672906Y-30344558D01*
X-2651915Y-30352197D01*
X-2632488Y-30355275D01*
X-2605053Y-30369253D01*
X-2575000Y-30380192D01*
X-2561727Y-30391329D01*
X-2549034Y-30397797D01*
X-2523033Y-30423798D01*
X-2495187Y-30447164D01*
X-2489068Y-30457763D01*
X-2482798Y-30464033D01*
X-2462896Y-30503093D01*
X-2443092Y-30537394D01*
X-2441861Y-30544376D01*
X-2440276Y-30547487D01*
X-2431125Y-30605266D01*
X-2425000Y-30640000D01*
X-2431126Y-30674737D01*
X-2440276Y-30732512D01*
X-2441861Y-30735621D01*
X-2443092Y-30742606D01*
X-2462900Y-30776913D01*
X-2482798Y-30815966D01*
X-2489066Y-30822233D01*
X-2495187Y-30832836D01*
X-2523039Y-30856206D01*
X-2549034Y-30882202D01*
X-2561724Y-30888667D01*
X-2575000Y-30899808D01*
X-2605060Y-30910748D01*
X-2632488Y-30924724D01*
X-2651910Y-30927800D01*
X-2672906Y-30935442D01*
X-2700156Y-30935442D01*
X-2725000Y-30939377D01*
X-2749844Y-30935442D01*
X-2777094Y-30935442D01*
X-2798090Y-30927800D01*
X-2817513Y-30924724D01*
X-2844944Y-30910747D01*
X-2875000Y-30899808D01*
X-2888275Y-30888669D01*
X-2900967Y-30882202D01*
X-2926968Y-30856201D01*
X-2954813Y-30832836D01*
X-2960933Y-30822236D01*
X-2967203Y-30815966D01*
X-2987109Y-30776899D01*
X-3006908Y-30742606D01*
X-3008139Y-30735624D01*
X-3009725Y-30732512D01*
X-3018885Y-30674681D01*
X-3025000Y-30640000D01*
X-3018886Y-30605321D01*
X-3009725Y-30547487D01*
X-3008139Y-30544373D01*
X-3006908Y-30537394D01*
X-2987113Y-30503108D01*
X-2967203Y-30464033D01*
X-2960932Y-30457761D01*
X-2954813Y-30447164D01*
X-2926974Y-30423803D01*
X-2900967Y-30397797D01*
X-2888272Y-30391328D01*
X-2875000Y-30380192D01*
X-2844951Y-30369255D01*
X-2817513Y-30355275D01*
X-2798085Y-30352197D01*
X-2777094Y-30344558D01*
X-2749850Y-30344558D01*
X-2725000Y-30340622D01*
X-2700150Y-30344558D01*
G37*
G36*
X598080Y-29295034D02*
G01*
X662154Y-29337846D01*
X704966Y-29401920D01*
X720000Y-29477500D01*
X720000Y-29772500D01*
X704966Y-29848080D01*
X662154Y-29912154D01*
X598080Y-29954966D01*
X522500Y-29970000D01*
X177500Y-29970000D01*
X101920Y-29954966D01*
X37846Y-29912154D01*
X-4966Y-29848080D01*
X-20000Y-29772500D01*
X-20000Y-29477500D01*
X-4966Y-29401920D01*
X37846Y-29337846D01*
X101920Y-29295034D01*
X177500Y-29280000D01*
X522500Y-29280000D01*
X598080Y-29295034D01*
G37*
G36*
X-6285150Y-29279558D02*
G01*
X-6257906Y-29279558D01*
X-6236915Y-29287197D01*
X-6217488Y-29290275D01*
X-6190053Y-29304253D01*
X-6160000Y-29315192D01*
X-6146727Y-29326329D01*
X-6134034Y-29332797D01*
X-6108033Y-29358798D01*
X-6080187Y-29382164D01*
X-6074068Y-29392763D01*
X-6067798Y-29399033D01*
X-6047896Y-29438093D01*
X-6028092Y-29472394D01*
X-6026861Y-29479376D01*
X-6025276Y-29482487D01*
X-6016125Y-29540266D01*
X-6010000Y-29575000D01*
X-6016126Y-29609737D01*
X-6025276Y-29667512D01*
X-6026861Y-29670621D01*
X-6028092Y-29677606D01*
X-6047900Y-29711913D01*
X-6067798Y-29750966D01*
X-6074066Y-29757233D01*
X-6080187Y-29767836D01*
X-6108039Y-29791206D01*
X-6134034Y-29817202D01*
X-6146724Y-29823667D01*
X-6160000Y-29834808D01*
X-6190060Y-29845748D01*
X-6217488Y-29859724D01*
X-6236910Y-29862800D01*
X-6257906Y-29870442D01*
X-6285156Y-29870442D01*
X-6310000Y-29874377D01*
X-6334844Y-29870442D01*
X-6362094Y-29870442D01*
X-6383090Y-29862800D01*
X-6402513Y-29859724D01*
X-6429944Y-29845747D01*
X-6460000Y-29834808D01*
X-6473275Y-29823669D01*
X-6485967Y-29817202D01*
X-6511968Y-29791201D01*
X-6539813Y-29767836D01*
X-6545933Y-29757236D01*
X-6552203Y-29750966D01*
X-6572109Y-29711899D01*
X-6591908Y-29677606D01*
X-6593139Y-29670624D01*
X-6594725Y-29667512D01*
X-6603885Y-29609681D01*
X-6610000Y-29575000D01*
X-6603886Y-29540321D01*
X-6594725Y-29482487D01*
X-6593139Y-29479373D01*
X-6591908Y-29472394D01*
X-6572113Y-29438108D01*
X-6552203Y-29399033D01*
X-6545932Y-29392761D01*
X-6539813Y-29382164D01*
X-6511974Y-29358803D01*
X-6485967Y-29332797D01*
X-6473272Y-29326328D01*
X-6460000Y-29315192D01*
X-6429951Y-29304255D01*
X-6402513Y-29290275D01*
X-6383085Y-29287197D01*
X-6362094Y-29279558D01*
X-6334850Y-29279558D01*
X-6310000Y-29275622D01*
X-6285150Y-29279558D01*
G37*
G36*
X-5025150Y-29279558D02*
G01*
X-4997906Y-29279558D01*
X-4976915Y-29287197D01*
X-4957488Y-29290275D01*
X-4930053Y-29304253D01*
X-4900000Y-29315192D01*
X-4886727Y-29326329D01*
X-4874034Y-29332797D01*
X-4848033Y-29358798D01*
X-4820187Y-29382164D01*
X-4814068Y-29392763D01*
X-4807798Y-29399033D01*
X-4787896Y-29438093D01*
X-4768092Y-29472394D01*
X-4766861Y-29479376D01*
X-4765276Y-29482487D01*
X-4756125Y-29540266D01*
X-4750000Y-29575000D01*
X-4756126Y-29609737D01*
X-4765276Y-29667512D01*
X-4766861Y-29670621D01*
X-4768092Y-29677606D01*
X-4787900Y-29711913D01*
X-4807798Y-29750966D01*
X-4814066Y-29757233D01*
X-4820187Y-29767836D01*
X-4848039Y-29791206D01*
X-4874034Y-29817202D01*
X-4886724Y-29823667D01*
X-4900000Y-29834808D01*
X-4930060Y-29845748D01*
X-4957488Y-29859724D01*
X-4976910Y-29862800D01*
X-4997906Y-29870442D01*
X-5025156Y-29870442D01*
X-5050000Y-29874377D01*
X-5074844Y-29870442D01*
X-5102094Y-29870442D01*
X-5123090Y-29862800D01*
X-5142513Y-29859724D01*
X-5169944Y-29845747D01*
X-5200000Y-29834808D01*
X-5213275Y-29823669D01*
X-5225967Y-29817202D01*
X-5251968Y-29791201D01*
X-5279813Y-29767836D01*
X-5285933Y-29757236D01*
X-5292203Y-29750966D01*
X-5312109Y-29711899D01*
X-5331908Y-29677606D01*
X-5333139Y-29670624D01*
X-5334725Y-29667512D01*
X-5343885Y-29609681D01*
X-5350000Y-29575000D01*
X-5343886Y-29540321D01*
X-5334725Y-29482487D01*
X-5333139Y-29479373D01*
X-5331908Y-29472394D01*
X-5312113Y-29438108D01*
X-5292203Y-29399033D01*
X-5285932Y-29392761D01*
X-5279813Y-29382164D01*
X-5251974Y-29358803D01*
X-5225967Y-29332797D01*
X-5213272Y-29326328D01*
X-5200000Y-29315192D01*
X-5169951Y-29304255D01*
X-5142513Y-29290275D01*
X-5123085Y-29287197D01*
X-5102094Y-29279558D01*
X-5074850Y-29279558D01*
X-5050000Y-29275622D01*
X-5025150Y-29279558D01*
G37*
G36*
X-3765150Y-29279558D02*
G01*
X-3737906Y-29279558D01*
X-3716915Y-29287197D01*
X-3697488Y-29290275D01*
X-3670053Y-29304253D01*
X-3640000Y-29315192D01*
X-3626727Y-29326329D01*
X-3614034Y-29332797D01*
X-3588033Y-29358798D01*
X-3560187Y-29382164D01*
X-3554068Y-29392763D01*
X-3547798Y-29399033D01*
X-3527896Y-29438093D01*
X-3508092Y-29472394D01*
X-3506861Y-29479376D01*
X-3505276Y-29482487D01*
X-3496125Y-29540266D01*
X-3490000Y-29575000D01*
X-3496126Y-29609737D01*
X-3505276Y-29667512D01*
X-3506861Y-29670621D01*
X-3508092Y-29677606D01*
X-3527900Y-29711913D01*
X-3547798Y-29750966D01*
X-3554066Y-29757233D01*
X-3560187Y-29767836D01*
X-3588039Y-29791206D01*
X-3614034Y-29817202D01*
X-3626724Y-29823667D01*
X-3640000Y-29834808D01*
X-3670060Y-29845748D01*
X-3697488Y-29859724D01*
X-3716910Y-29862800D01*
X-3737906Y-29870442D01*
X-3765156Y-29870442D01*
X-3790000Y-29874377D01*
X-3814844Y-29870442D01*
X-3842094Y-29870442D01*
X-3863090Y-29862800D01*
X-3882513Y-29859724D01*
X-3909944Y-29845747D01*
X-3940000Y-29834808D01*
X-3953275Y-29823669D01*
X-3965967Y-29817202D01*
X-3991968Y-29791201D01*
X-4019813Y-29767836D01*
X-4025933Y-29757236D01*
X-4032203Y-29750966D01*
X-4052109Y-29711899D01*
X-4071908Y-29677606D01*
X-4073139Y-29670624D01*
X-4074725Y-29667512D01*
X-4083885Y-29609681D01*
X-4090000Y-29575000D01*
X-4083886Y-29540321D01*
X-4074725Y-29482487D01*
X-4073139Y-29479373D01*
X-4071908Y-29472394D01*
X-4052113Y-29438108D01*
X-4032203Y-29399033D01*
X-4025932Y-29392761D01*
X-4019813Y-29382164D01*
X-3991974Y-29358803D01*
X-3965967Y-29332797D01*
X-3953272Y-29326328D01*
X-3940000Y-29315192D01*
X-3909951Y-29304255D01*
X-3882513Y-29290275D01*
X-3863085Y-29287197D01*
X-3842094Y-29279558D01*
X-3814850Y-29279558D01*
X-3790000Y-29275622D01*
X-3765150Y-29279558D01*
G37*
G36*
X598080Y-28325034D02*
G01*
X662154Y-28367846D01*
X704966Y-28431920D01*
X720000Y-28507500D01*
X720000Y-28802500D01*
X704966Y-28878080D01*
X662154Y-28942154D01*
X598080Y-28984966D01*
X522500Y-29000000D01*
X177500Y-29000000D01*
X101920Y-28984966D01*
X37846Y-28942154D01*
X-4966Y-28878080D01*
X-20000Y-28802500D01*
X-20000Y-28507500D01*
X-4966Y-28431920D01*
X37846Y-28367846D01*
X101920Y-28325034D01*
X177500Y-28310000D01*
X522500Y-28310000D01*
X598080Y-28325034D01*
G37*
G36*
X-8001920Y-27995034D02*
G01*
X-7937846Y-28037846D01*
X-7895034Y-28101920D01*
X-7880000Y-28177500D01*
X-7880000Y-28522500D01*
X-7895034Y-28598080D01*
X-7937846Y-28662154D01*
X-8001920Y-28704966D01*
X-8077500Y-28720000D01*
X-8372500Y-28720000D01*
X-8448080Y-28704966D01*
X-8512154Y-28662154D01*
X-8554966Y-28598080D01*
X-8570000Y-28522500D01*
X-8570000Y-28177500D01*
X-8554966Y-28101920D01*
X-8512154Y-28037846D01*
X-8448080Y-27995034D01*
X-8372500Y-27980000D01*
X-8077500Y-27980000D01*
X-8001920Y-27995034D01*
G37*
G36*
X-7031920Y-27995034D02*
G01*
X-6967846Y-28037846D01*
X-6925034Y-28101920D01*
X-6910000Y-28177500D01*
X-6910000Y-28522500D01*
X-6925034Y-28598080D01*
X-6967846Y-28662154D01*
X-7031920Y-28704966D01*
X-7107500Y-28720000D01*
X-7402500Y-28720000D01*
X-7478080Y-28704966D01*
X-7542154Y-28662154D01*
X-7584966Y-28598080D01*
X-7600000Y-28522500D01*
X-7600000Y-28177500D01*
X-7584966Y-28101920D01*
X-7542154Y-28037846D01*
X-7478080Y-27995034D01*
X-7402500Y-27980000D01*
X-7107500Y-27980000D01*
X-7031920Y-27995034D01*
G37*
G36*
X-5702340Y-27616275D02*
G01*
X-5640410Y-27624428D01*
X-5624833Y-27631692D01*
X-5605904Y-27635457D01*
X-5580833Y-27652208D01*
X-5555045Y-27664234D01*
X-5539356Y-27679923D01*
X-5518715Y-27693715D01*
X-5504924Y-27714355D01*
X-5489235Y-27730044D01*
X-5477211Y-27755830D01*
X-5460457Y-27780904D01*
X-5456692Y-27799834D01*
X-5449429Y-27815409D01*
X-5441278Y-27877326D01*
X-5440000Y-27883750D01*
X-5440000Y-28396250D01*
X-5441278Y-28402674D01*
X-5449429Y-28464590D01*
X-5456692Y-28480164D01*
X-5460457Y-28499096D01*
X-5477213Y-28524171D01*
X-5489235Y-28549955D01*
X-5504922Y-28565641D01*
X-5518715Y-28586285D01*
X-5539359Y-28600078D01*
X-5555045Y-28615765D01*
X-5580829Y-28627787D01*
X-5605904Y-28644543D01*
X-5624836Y-28648308D01*
X-5640410Y-28655571D01*
X-5702326Y-28663722D01*
X-5708750Y-28665000D01*
X-6146250Y-28665000D01*
X-6152674Y-28663722D01*
X-6214591Y-28655571D01*
X-6230166Y-28648308D01*
X-6249096Y-28644543D01*
X-6274170Y-28627789D01*
X-6299956Y-28615765D01*
X-6315645Y-28600076D01*
X-6336285Y-28586285D01*
X-6350077Y-28565644D01*
X-6365766Y-28549955D01*
X-6377792Y-28524167D01*
X-6394543Y-28499096D01*
X-6398308Y-28480167D01*
X-6405572Y-28464590D01*
X-6413725Y-28402660D01*
X-6415000Y-28396250D01*
X-6415000Y-27883750D01*
X-6413726Y-27877341D01*
X-6405572Y-27815409D01*
X-6398308Y-27799830D01*
X-6394543Y-27780904D01*
X-6377793Y-27755835D01*
X-6365766Y-27730044D01*
X-6350075Y-27714352D01*
X-6336285Y-27693715D01*
X-6315648Y-27679925D01*
X-6299956Y-27664234D01*
X-6274165Y-27652207D01*
X-6249096Y-27635457D01*
X-6230170Y-27631692D01*
X-6214591Y-27624428D01*
X-6152659Y-27616274D01*
X-6146250Y-27615000D01*
X-5708750Y-27615000D01*
X-5702340Y-27616275D01*
G37*
G36*
X-4127340Y-27616275D02*
G01*
X-4065410Y-27624428D01*
X-4049833Y-27631692D01*
X-4030904Y-27635457D01*
X-4005833Y-27652208D01*
X-3980045Y-27664234D01*
X-3964356Y-27679923D01*
X-3943715Y-27693715D01*
X-3929924Y-27714355D01*
X-3914235Y-27730044D01*
X-3902211Y-27755830D01*
X-3885457Y-27780904D01*
X-3881692Y-27799834D01*
X-3874429Y-27815409D01*
X-3866278Y-27877326D01*
X-3865000Y-27883750D01*
X-3865000Y-28396250D01*
X-3866278Y-28402674D01*
X-3874429Y-28464590D01*
X-3881692Y-28480164D01*
X-3885457Y-28499096D01*
X-3902213Y-28524171D01*
X-3914235Y-28549955D01*
X-3929922Y-28565641D01*
X-3943715Y-28586285D01*
X-3964359Y-28600078D01*
X-3980045Y-28615765D01*
X-4005829Y-28627787D01*
X-4030904Y-28644543D01*
X-4049836Y-28648308D01*
X-4065410Y-28655571D01*
X-4127326Y-28663722D01*
X-4133750Y-28665000D01*
X-4571250Y-28665000D01*
X-4577674Y-28663722D01*
X-4639591Y-28655571D01*
X-4655166Y-28648308D01*
X-4674096Y-28644543D01*
X-4699170Y-28627789D01*
X-4724956Y-28615765D01*
X-4740645Y-28600076D01*
X-4761285Y-28586285D01*
X-4775077Y-28565644D01*
X-4790766Y-28549955D01*
X-4802792Y-28524167D01*
X-4819543Y-28499096D01*
X-4823308Y-28480167D01*
X-4830572Y-28464590D01*
X-4838725Y-28402660D01*
X-4840000Y-28396250D01*
X-4840000Y-27883750D01*
X-4838726Y-27877341D01*
X-4830572Y-27815409D01*
X-4823308Y-27799830D01*
X-4819543Y-27780904D01*
X-4802793Y-27755835D01*
X-4790766Y-27730044D01*
X-4775075Y-27714352D01*
X-4761285Y-27693715D01*
X-4740648Y-27679925D01*
X-4724956Y-27664234D01*
X-4699165Y-27652207D01*
X-4674096Y-27635457D01*
X-4655170Y-27631692D01*
X-4639591Y-27624428D01*
X-4577659Y-27616274D01*
X-4571250Y-27615000D01*
X-4133750Y-27615000D01*
X-4127340Y-27616275D01*
G37*
G36*
X-9991920Y-26205034D02*
G01*
X-9927846Y-26247846D01*
X-9885034Y-26311920D01*
X-9870000Y-26387500D01*
X-9870000Y-26732500D01*
X-9885034Y-26808080D01*
X-9927846Y-26872154D01*
X-9991920Y-26914966D01*
X-10067500Y-26930000D01*
X-10362500Y-26930000D01*
X-10438080Y-26914966D01*
X-10502154Y-26872154D01*
X-10544966Y-26808080D01*
X-10560000Y-26732500D01*
X-10560000Y-26387500D01*
X-10544966Y-26311920D01*
X-10502154Y-26247846D01*
X-10438080Y-26205034D01*
X-10362500Y-26190000D01*
X-10067500Y-26190000D01*
X-9991920Y-26205034D01*
G37*
G36*
X-9021920Y-26205034D02*
G01*
X-8957846Y-26247846D01*
X-8915034Y-26311920D01*
X-8900000Y-26387500D01*
X-8900000Y-26732500D01*
X-8915034Y-26808080D01*
X-8957846Y-26872154D01*
X-9021920Y-26914966D01*
X-9097500Y-26930000D01*
X-9392500Y-26930000D01*
X-9468080Y-26914966D01*
X-9532154Y-26872154D01*
X-9574966Y-26808080D01*
X-9590000Y-26732500D01*
X-9590000Y-26387500D01*
X-9574966Y-26311920D01*
X-9532154Y-26247846D01*
X-9468080Y-26205034D01*
X-9392500Y-26190000D01*
X-9097500Y-26190000D01*
X-9021920Y-26205034D01*
G37*
G36*
X-8046920Y-26195034D02*
G01*
X-7982846Y-26237846D01*
X-7940034Y-26301920D01*
X-7925000Y-26377500D01*
X-7925000Y-26722500D01*
X-7940034Y-26798080D01*
X-7982846Y-26862154D01*
X-8046920Y-26904966D01*
X-8122500Y-26920000D01*
X-8417500Y-26920000D01*
X-8493080Y-26904966D01*
X-8557154Y-26862154D01*
X-8599966Y-26798080D01*
X-8615000Y-26722500D01*
X-8615000Y-26377500D01*
X-8599966Y-26301920D01*
X-8557154Y-26237846D01*
X-8493080Y-26195034D01*
X-8417500Y-26180000D01*
X-8122500Y-26180000D01*
X-8046920Y-26195034D01*
G37*
G36*
X-7076920Y-26195034D02*
G01*
X-7012846Y-26237846D01*
X-6970034Y-26301920D01*
X-6955000Y-26377500D01*
X-6955000Y-26722500D01*
X-6970034Y-26798080D01*
X-7012846Y-26862154D01*
X-7076920Y-26904966D01*
X-7152500Y-26920000D01*
X-7447500Y-26920000D01*
X-7523080Y-26904966D01*
X-7587154Y-26862154D01*
X-7629966Y-26798080D01*
X-7645000Y-26722500D01*
X-7645000Y-26377500D01*
X-7629966Y-26301920D01*
X-7587154Y-26237846D01*
X-7523080Y-26195034D01*
X-7447500Y-26180000D01*
X-7152500Y-26180000D01*
X-7076920Y-26195034D01*
G37*
G36*
X17021674Y-24472526D02*
G01*
X17037895Y-24483365D01*
X17048734Y-24499586D01*
X17052540Y-24518720D01*
X17052540Y-26118720D01*
X17048734Y-26137854D01*
X17037895Y-26154075D01*
X17021674Y-26164914D01*
X17002540Y-26168720D01*
X15402540Y-26168720D01*
X15383406Y-26164914D01*
X15367185Y-26154075D01*
X15356346Y-26137854D01*
X15352540Y-26118720D01*
X15352540Y-24518720D01*
X15356346Y-24499586D01*
X15367185Y-24483365D01*
X15383406Y-24472526D01*
X15402540Y-24468720D01*
X17002540Y-24468720D01*
X17021674Y-24472526D01*
G37*
G36*
X12965204Y-24510322D02*
G01*
X13127540Y-24582598D01*
X13271301Y-24687047D01*
X13390204Y-24819103D01*
X13479054Y-24972994D01*
X13533965Y-25141995D01*
X13552540Y-25318720D01*
X13533965Y-25495445D01*
X13479054Y-25664446D01*
X13390204Y-25818337D01*
X13271301Y-25950393D01*
X13127540Y-26054842D01*
X12965204Y-26127118D01*
X12791389Y-26164064D01*
X12613691Y-26164064D01*
X12439876Y-26127118D01*
X12277540Y-26054842D01*
X12133779Y-25950393D01*
X12014876Y-25818337D01*
X11926026Y-25664446D01*
X11871115Y-25495445D01*
X11852540Y-25318720D01*
X11871115Y-25141995D01*
X11926026Y-24972994D01*
X12014876Y-24819103D01*
X12133779Y-24687047D01*
X12277540Y-24582598D01*
X12439876Y-24510322D01*
X12613691Y-24473376D01*
X12791389Y-24473376D01*
X12965204Y-24510322D01*
G37*
G36*
X-9562340Y-23626275D02*
G01*
X-9500410Y-23634428D01*
X-9484833Y-23641692D01*
X-9465904Y-23645457D01*
X-9440833Y-23662208D01*
X-9415045Y-23674234D01*
X-9399356Y-23689923D01*
X-9378715Y-23703715D01*
X-9364924Y-23724355D01*
X-9349235Y-23740044D01*
X-9337211Y-23765830D01*
X-9320457Y-23790904D01*
X-9316692Y-23809834D01*
X-9309429Y-23825409D01*
X-9301278Y-23887326D01*
X-9300000Y-23893750D01*
X-9300000Y-24406250D01*
X-9301278Y-24412674D01*
X-9309429Y-24474590D01*
X-9316692Y-24490164D01*
X-9320457Y-24509096D01*
X-9337213Y-24534171D01*
X-9349235Y-24559955D01*
X-9364922Y-24575641D01*
X-9378715Y-24596285D01*
X-9399359Y-24610078D01*
X-9415045Y-24625765D01*
X-9440829Y-24637787D01*
X-9465904Y-24654543D01*
X-9484836Y-24658308D01*
X-9500410Y-24665571D01*
X-9562326Y-24673722D01*
X-9568750Y-24675000D01*
X-10006250Y-24675000D01*
X-10012674Y-24673722D01*
X-10074591Y-24665571D01*
X-10090166Y-24658308D01*
X-10109096Y-24654543D01*
X-10134170Y-24637789D01*
X-10159956Y-24625765D01*
X-10175645Y-24610076D01*
X-10196285Y-24596285D01*
X-10210077Y-24575644D01*
X-10225766Y-24559955D01*
X-10237792Y-24534167D01*
X-10254543Y-24509096D01*
X-10258308Y-24490167D01*
X-10265572Y-24474590D01*
X-10273725Y-24412660D01*
X-10275000Y-24406250D01*
X-10275000Y-23893750D01*
X-10273726Y-23887341D01*
X-10265572Y-23825409D01*
X-10258308Y-23809830D01*
X-10254543Y-23790904D01*
X-10237793Y-23765835D01*
X-10225766Y-23740044D01*
X-10210075Y-23724352D01*
X-10196285Y-23703715D01*
X-10175648Y-23689925D01*
X-10159956Y-23674234D01*
X-10134165Y-23662207D01*
X-10109096Y-23645457D01*
X-10090170Y-23641692D01*
X-10074591Y-23634428D01*
X-10012659Y-23626274D01*
X-10006250Y-23625000D01*
X-9568750Y-23625000D01*
X-9562340Y-23626275D01*
G37*
G36*
X-7987340Y-23626275D02*
G01*
X-7925410Y-23634428D01*
X-7909833Y-23641692D01*
X-7890904Y-23645457D01*
X-7865833Y-23662208D01*
X-7840045Y-23674234D01*
X-7824356Y-23689923D01*
X-7803715Y-23703715D01*
X-7789924Y-23724355D01*
X-7774235Y-23740044D01*
X-7762211Y-23765830D01*
X-7745457Y-23790904D01*
X-7741692Y-23809834D01*
X-7734429Y-23825409D01*
X-7726278Y-23887326D01*
X-7725000Y-23893750D01*
X-7725000Y-24406250D01*
X-7726278Y-24412674D01*
X-7734429Y-24474590D01*
X-7741692Y-24490164D01*
X-7745457Y-24509096D01*
X-7762213Y-24534171D01*
X-7774235Y-24559955D01*
X-7789922Y-24575641D01*
X-7803715Y-24596285D01*
X-7824359Y-24610078D01*
X-7840045Y-24625765D01*
X-7865829Y-24637787D01*
X-7890904Y-24654543D01*
X-7909836Y-24658308D01*
X-7925410Y-24665571D01*
X-7987326Y-24673722D01*
X-7993750Y-24675000D01*
X-8431250Y-24675000D01*
X-8437674Y-24673722D01*
X-8499591Y-24665571D01*
X-8515166Y-24658308D01*
X-8534096Y-24654543D01*
X-8559170Y-24637789D01*
X-8584956Y-24625765D01*
X-8600645Y-24610076D01*
X-8621285Y-24596285D01*
X-8635077Y-24575644D01*
X-8650766Y-24559955D01*
X-8662792Y-24534167D01*
X-8679543Y-24509096D01*
X-8683308Y-24490167D01*
X-8690572Y-24474590D01*
X-8698725Y-24412660D01*
X-8700000Y-24406250D01*
X-8700000Y-23893750D01*
X-8698726Y-23887341D01*
X-8690572Y-23825409D01*
X-8683308Y-23809830D01*
X-8679543Y-23790904D01*
X-8662793Y-23765835D01*
X-8650766Y-23740044D01*
X-8635075Y-23724352D01*
X-8621285Y-23703715D01*
X-8600648Y-23689925D01*
X-8584956Y-23674234D01*
X-8559165Y-23662207D01*
X-8534096Y-23645457D01*
X-8515170Y-23641692D01*
X-8499591Y-23634428D01*
X-8437659Y-23626274D01*
X-8431250Y-23625000D01*
X-7993750Y-23625000D01*
X-7987340Y-23626275D01*
G37*
G36*
X-7846496Y-21577803D02*
G01*
X-7841715Y-21579914D01*
X-7838936Y-21580280D01*
X-7804178Y-21596488D01*
X-7747741Y-21621407D01*
X-7671407Y-21697741D01*
X-7646479Y-21754198D01*
X-7630281Y-21788935D01*
X-7629916Y-21791711D01*
X-7627803Y-21796496D01*
X-7620000Y-21863750D01*
X-7620000Y-22776250D01*
X-7627803Y-22843504D01*
X-7629916Y-22848288D01*
X-7630281Y-22851064D01*
X-7646471Y-22885782D01*
X-7671407Y-22942259D01*
X-7747741Y-23018593D01*
X-7804218Y-23043529D01*
X-7838936Y-23059719D01*
X-7841712Y-23060084D01*
X-7846496Y-23062197D01*
X-7913750Y-23070000D01*
X-8401250Y-23070000D01*
X-8468504Y-23062197D01*
X-8473289Y-23060084D01*
X-8476065Y-23059719D01*
X-8510802Y-23043521D01*
X-8567259Y-23018593D01*
X-8643593Y-22942259D01*
X-8668512Y-22885822D01*
X-8684720Y-22851064D01*
X-8685086Y-22848285D01*
X-8687197Y-22843504D01*
X-8695000Y-22776250D01*
X-8695000Y-21863750D01*
X-8687197Y-21796496D01*
X-8685086Y-21791714D01*
X-8684720Y-21788935D01*
X-8668504Y-21754158D01*
X-8643593Y-21697741D01*
X-8567259Y-21621407D01*
X-8510842Y-21596496D01*
X-8476065Y-21580280D01*
X-8473286Y-21579914D01*
X-8468504Y-21577803D01*
X-8401250Y-21570000D01*
X-7913750Y-21570000D01*
X-7846496Y-21577803D01*
G37*
G36*
X-5971496Y-21577803D02*
G01*
X-5966715Y-21579914D01*
X-5963936Y-21580280D01*
X-5929178Y-21596488D01*
X-5872741Y-21621407D01*
X-5796407Y-21697741D01*
X-5771479Y-21754198D01*
X-5755281Y-21788935D01*
X-5754916Y-21791711D01*
X-5752803Y-21796496D01*
X-5745000Y-21863750D01*
X-5745000Y-22776250D01*
X-5752803Y-22843504D01*
X-5754916Y-22848288D01*
X-5755281Y-22851064D01*
X-5771471Y-22885782D01*
X-5796407Y-22942259D01*
X-5872741Y-23018593D01*
X-5929218Y-23043529D01*
X-5963936Y-23059719D01*
X-5966712Y-23060084D01*
X-5971496Y-23062197D01*
X-6038750Y-23070000D01*
X-6526250Y-23070000D01*
X-6593504Y-23062197D01*
X-6598289Y-23060084D01*
X-6601065Y-23059719D01*
X-6635802Y-23043521D01*
X-6692259Y-23018593D01*
X-6768593Y-22942259D01*
X-6793512Y-22885822D01*
X-6809720Y-22851064D01*
X-6810086Y-22848285D01*
X-6812197Y-22843504D01*
X-6820000Y-22776250D01*
X-6820000Y-21863750D01*
X-6812197Y-21796496D01*
X-6810086Y-21791714D01*
X-6809720Y-21788935D01*
X-6793504Y-21754158D01*
X-6768593Y-21697741D01*
X-6692259Y-21621407D01*
X-6635842Y-21596496D01*
X-6601065Y-21580280D01*
X-6598286Y-21579914D01*
X-6593504Y-21577803D01*
X-6526250Y-21570000D01*
X-6038750Y-21570000D01*
X-5971496Y-21577803D01*
G37*
G36*
X5558894Y-20952086D02*
G01*
X5575115Y-20962925D01*
X5585954Y-20979146D01*
X5589760Y-20998280D01*
X5589760Y-22598280D01*
X5585954Y-22617414D01*
X5575115Y-22633635D01*
X5558894Y-22644474D01*
X5539760Y-22648280D01*
X3939760Y-22648280D01*
X3920626Y-22644474D01*
X3904405Y-22633635D01*
X3893566Y-22617414D01*
X3889760Y-22598280D01*
X3889760Y-20998280D01*
X3893566Y-20979146D01*
X3904405Y-20962925D01*
X3920626Y-20952086D01*
X3939760Y-20948280D01*
X5539760Y-20948280D01*
X5558894Y-20952086D01*
G37*
G36*
X8502424Y-20989882D02*
G01*
X8664760Y-21062158D01*
X8808521Y-21166607D01*
X8927424Y-21298663D01*
X9016274Y-21452554D01*
X9071185Y-21621555D01*
X9089760Y-21798280D01*
X9071185Y-21975005D01*
X9016274Y-22144006D01*
X8927424Y-22297897D01*
X8808521Y-22429953D01*
X8664760Y-22534402D01*
X8502424Y-22606678D01*
X8328609Y-22643624D01*
X8150911Y-22643624D01*
X7977096Y-22606678D01*
X7814760Y-22534402D01*
X7670999Y-22429953D01*
X7552096Y-22297897D01*
X7463246Y-22144006D01*
X7408335Y-21975005D01*
X7389760Y-21798280D01*
X7408335Y-21621555D01*
X7463246Y-21452554D01*
X7552096Y-21298663D01*
X7670999Y-21166607D01*
X7814760Y-21062158D01*
X7977096Y-20989882D01*
X8150911Y-20952936D01*
X8328609Y-20952936D01*
X8502424Y-20989882D01*
G37*
G36*
X14531323Y-16674656D02*
G01*
X14573595Y-16674656D01*
X14621282Y-16684792D01*
X14668017Y-16690058D01*
X14702000Y-16701949D01*
X14737129Y-16709416D01*
X14787754Y-16731955D01*
X14837107Y-16749225D01*
X14862795Y-16765366D01*
X14889860Y-16777416D01*
X14940322Y-16814079D01*
X14988792Y-16844535D01*
X15006199Y-16861942D01*
X15025121Y-16875690D01*
X15071901Y-16927644D01*
X15115465Y-16971208D01*
X15125484Y-16987153D01*
X15136992Y-16999934D01*
X15176365Y-17068130D01*
X15210775Y-17122893D01*
X15215070Y-17135170D01*
X15220584Y-17144719D01*
X15248809Y-17231590D01*
X15269942Y-17291983D01*
X15270743Y-17299096D01*
X15272248Y-17303727D01*
X15285892Y-17433542D01*
X15290000Y-17470000D01*
X15285891Y-17506460D01*
X15272248Y-17636272D01*
X15270743Y-17640901D01*
X15269942Y-17648017D01*
X15248805Y-17708422D01*
X15220584Y-17795280D01*
X15215071Y-17804827D01*
X15210775Y-17817107D01*
X15176358Y-17871881D01*
X15136992Y-17940065D01*
X15125486Y-17952843D01*
X15115465Y-17968792D01*
X15071892Y-18012364D01*
X15025121Y-18064309D01*
X15006203Y-18078053D01*
X14988792Y-18095465D01*
X14940312Y-18125926D01*
X14889860Y-18162583D01*
X14862800Y-18174630D01*
X14837107Y-18190775D01*
X14787744Y-18208047D01*
X14737129Y-18230583D01*
X14702005Y-18238048D01*
X14668017Y-18249942D01*
X14621279Y-18255208D01*
X14573595Y-18265344D01*
X14531323Y-18265344D01*
X14490000Y-18270000D01*
X14448677Y-18265344D01*
X14406405Y-18265344D01*
X14358719Y-18255208D01*
X14311983Y-18249942D01*
X14277995Y-18238049D01*
X14242870Y-18230583D01*
X14192251Y-18208046D01*
X14142893Y-18190775D01*
X14117201Y-18174631D01*
X14090139Y-18162583D01*
X14039680Y-18125922D01*
X13991208Y-18095465D01*
X13973799Y-18078056D01*
X13954878Y-18064309D01*
X13908097Y-18012354D01*
X13864535Y-17968792D01*
X13854516Y-17952847D01*
X13843007Y-17940065D01*
X13803629Y-17871861D01*
X13769225Y-17817107D01*
X13764929Y-17804831D01*
X13759415Y-17795280D01*
X13731180Y-17708382D01*
X13710058Y-17648017D01*
X13709256Y-17640906D01*
X13707751Y-17636272D01*
X13694093Y-17506328D01*
X13690000Y-17470000D01*
X13694092Y-17433674D01*
X13707751Y-17303727D01*
X13709257Y-17299091D01*
X13710058Y-17291983D01*
X13731176Y-17231630D01*
X13759415Y-17144719D01*
X13764930Y-17135165D01*
X13769225Y-17122893D01*
X13803622Y-17068149D01*
X13843007Y-16999934D01*
X13854518Y-16987149D01*
X13864535Y-16971208D01*
X13908088Y-16927654D01*
X13954878Y-16875690D01*
X13973802Y-16861940D01*
X13991208Y-16844535D01*
X14039674Y-16814081D01*
X14090140Y-16777416D01*
X14117204Y-16765365D01*
X14142893Y-16749225D01*
X14192242Y-16731956D01*
X14242870Y-16709416D01*
X14278001Y-16701948D01*
X14311983Y-16690058D01*
X14358717Y-16684792D01*
X14406405Y-16674656D01*
X14448677Y-16674656D01*
X14490000Y-16670000D01*
X14531323Y-16674656D01*
G37*
G36*
X4541323Y-15954656D02*
G01*
X4583595Y-15954656D01*
X4631282Y-15964792D01*
X4678017Y-15970058D01*
X4712000Y-15981949D01*
X4747129Y-15989416D01*
X4797754Y-16011955D01*
X4847107Y-16029225D01*
X4872795Y-16045366D01*
X4899860Y-16057416D01*
X4950322Y-16094079D01*
X4998792Y-16124535D01*
X5016199Y-16141942D01*
X5035121Y-16155690D01*
X5081901Y-16207644D01*
X5125465Y-16251208D01*
X5135484Y-16267153D01*
X5146992Y-16279934D01*
X5186365Y-16348130D01*
X5220775Y-16402893D01*
X5225070Y-16415170D01*
X5230584Y-16424719D01*
X5258809Y-16511590D01*
X5279942Y-16571983D01*
X5280743Y-16579096D01*
X5282248Y-16583727D01*
X5295892Y-16713542D01*
X5300000Y-16750000D01*
X5295891Y-16786460D01*
X5282248Y-16916272D01*
X5280743Y-16920901D01*
X5279942Y-16928017D01*
X5258805Y-16988422D01*
X5230584Y-17075280D01*
X5225071Y-17084827D01*
X5220775Y-17097107D01*
X5186358Y-17151881D01*
X5146992Y-17220065D01*
X5135486Y-17232843D01*
X5125465Y-17248792D01*
X5081892Y-17292364D01*
X5035121Y-17344309D01*
X5016203Y-17358053D01*
X4998792Y-17375465D01*
X4950312Y-17405926D01*
X4899860Y-17442583D01*
X4872800Y-17454630D01*
X4847107Y-17470775D01*
X4797744Y-17488047D01*
X4747129Y-17510583D01*
X4712005Y-17518048D01*
X4678017Y-17529942D01*
X4631279Y-17535208D01*
X4583595Y-17545344D01*
X4541323Y-17545344D01*
X4500000Y-17550000D01*
X4458677Y-17545344D01*
X4416405Y-17545344D01*
X4368719Y-17535208D01*
X4321983Y-17529942D01*
X4287995Y-17518049D01*
X4252870Y-17510583D01*
X4202251Y-17488046D01*
X4152893Y-17470775D01*
X4127201Y-17454631D01*
X4100139Y-17442583D01*
X4049680Y-17405922D01*
X4001208Y-17375465D01*
X3983799Y-17358056D01*
X3964878Y-17344309D01*
X3918097Y-17292354D01*
X3874535Y-17248792D01*
X3864516Y-17232847D01*
X3853007Y-17220065D01*
X3813629Y-17151861D01*
X3779225Y-17097107D01*
X3774929Y-17084831D01*
X3769415Y-17075280D01*
X3741180Y-16988382D01*
X3720058Y-16928017D01*
X3719256Y-16920906D01*
X3717751Y-16916272D01*
X3704093Y-16786328D01*
X3700000Y-16750000D01*
X3704092Y-16713674D01*
X3717751Y-16583727D01*
X3719257Y-16579091D01*
X3720058Y-16571983D01*
X3741176Y-16511630D01*
X3769415Y-16424719D01*
X3774930Y-16415165D01*
X3779225Y-16402893D01*
X3813622Y-16348149D01*
X3853007Y-16279934D01*
X3864518Y-16267149D01*
X3874535Y-16251208D01*
X3918088Y-16207654D01*
X3964878Y-16155690D01*
X3983802Y-16141940D01*
X4001208Y-16124535D01*
X4049674Y-16094081D01*
X4100140Y-16057416D01*
X4127204Y-16045365D01*
X4152893Y-16029225D01*
X4202242Y-16011956D01*
X4252870Y-15989416D01*
X4288001Y-15981948D01*
X4321983Y-15970058D01*
X4368717Y-15964792D01*
X4416405Y-15954656D01*
X4458677Y-15954656D01*
X4500000Y-15950000D01*
X4541323Y-15954656D01*
G37*
G36*
X17471323Y-14884656D02*
G01*
X17513595Y-14884656D01*
X17561282Y-14894792D01*
X17608017Y-14900058D01*
X17642000Y-14911949D01*
X17677129Y-14919416D01*
X17727754Y-14941955D01*
X17777107Y-14959225D01*
X17802795Y-14975366D01*
X17829860Y-14987416D01*
X17880322Y-15024079D01*
X17928792Y-15054535D01*
X17946199Y-15071942D01*
X17965121Y-15085690D01*
X18011901Y-15137644D01*
X18055465Y-15181208D01*
X18065484Y-15197153D01*
X18076992Y-15209934D01*
X18116365Y-15278130D01*
X18150775Y-15332893D01*
X18155070Y-15345170D01*
X18160584Y-15354719D01*
X18188809Y-15441590D01*
X18209942Y-15501983D01*
X18210743Y-15509096D01*
X18212248Y-15513727D01*
X18225892Y-15643542D01*
X18230000Y-15680000D01*
X18225891Y-15716460D01*
X18212248Y-15846272D01*
X18210743Y-15850901D01*
X18209942Y-15858017D01*
X18188805Y-15918422D01*
X18160584Y-16005280D01*
X18155071Y-16014827D01*
X18150775Y-16027107D01*
X18116358Y-16081881D01*
X18076992Y-16150065D01*
X18065486Y-16162843D01*
X18055465Y-16178792D01*
X18011892Y-16222364D01*
X17965121Y-16274309D01*
X17946203Y-16288053D01*
X17928792Y-16305465D01*
X17880312Y-16335926D01*
X17829860Y-16372583D01*
X17802800Y-16384630D01*
X17777107Y-16400775D01*
X17727744Y-16418047D01*
X17677129Y-16440583D01*
X17642005Y-16448048D01*
X17608017Y-16459942D01*
X17561279Y-16465208D01*
X17513595Y-16475344D01*
X17471323Y-16475344D01*
X17430000Y-16480000D01*
X17388677Y-16475344D01*
X17346405Y-16475344D01*
X17298719Y-16465208D01*
X17251983Y-16459942D01*
X17217995Y-16448049D01*
X17182870Y-16440583D01*
X17132251Y-16418046D01*
X17082893Y-16400775D01*
X17057201Y-16384631D01*
X17030139Y-16372583D01*
X16979680Y-16335922D01*
X16931208Y-16305465D01*
X16913799Y-16288056D01*
X16894878Y-16274309D01*
X16848097Y-16222354D01*
X16804535Y-16178792D01*
X16794516Y-16162847D01*
X16783007Y-16150065D01*
X16743629Y-16081861D01*
X16709225Y-16027107D01*
X16704929Y-16014831D01*
X16699415Y-16005280D01*
X16671180Y-15918382D01*
X16650058Y-15858017D01*
X16649256Y-15850906D01*
X16647751Y-15846272D01*
X16634093Y-15716328D01*
X16630000Y-15680000D01*
X16634092Y-15643674D01*
X16647751Y-15513727D01*
X16649257Y-15509091D01*
X16650058Y-15501983D01*
X16671176Y-15441630D01*
X16699415Y-15354719D01*
X16704930Y-15345165D01*
X16709225Y-15332893D01*
X16743622Y-15278149D01*
X16783007Y-15209934D01*
X16794518Y-15197149D01*
X16804535Y-15181208D01*
X16848088Y-15137654D01*
X16894878Y-15085690D01*
X16913802Y-15071940D01*
X16931208Y-15054535D01*
X16979674Y-15024081D01*
X17030140Y-14987416D01*
X17057204Y-14975365D01*
X17082893Y-14959225D01*
X17132242Y-14941956D01*
X17182870Y-14919416D01*
X17218001Y-14911948D01*
X17251983Y-14900058D01*
X17298717Y-14894792D01*
X17346405Y-14884656D01*
X17388677Y-14884656D01*
X17430000Y-14880000D01*
X17471323Y-14884656D01*
G37*
G36*
X8291323Y-13954656D02*
G01*
X8333595Y-13954656D01*
X8381282Y-13964792D01*
X8428017Y-13970058D01*
X8462000Y-13981949D01*
X8497129Y-13989416D01*
X8547754Y-14011955D01*
X8597107Y-14029225D01*
X8622795Y-14045366D01*
X8649860Y-14057416D01*
X8700322Y-14094079D01*
X8748792Y-14124535D01*
X8766199Y-14141942D01*
X8785121Y-14155690D01*
X8831901Y-14207644D01*
X8875465Y-14251208D01*
X8885484Y-14267153D01*
X8896992Y-14279934D01*
X8936365Y-14348130D01*
X8970775Y-14402893D01*
X8975070Y-14415170D01*
X8980584Y-14424719D01*
X9008809Y-14511590D01*
X9029942Y-14571983D01*
X9030743Y-14579096D01*
X9032248Y-14583727D01*
X9045892Y-14713542D01*
X9050000Y-14750000D01*
X9045891Y-14786460D01*
X9032248Y-14916272D01*
X9030743Y-14920901D01*
X9029942Y-14928017D01*
X9008805Y-14988422D01*
X8980584Y-15075280D01*
X8975071Y-15084827D01*
X8970775Y-15097107D01*
X8936358Y-15151881D01*
X8896992Y-15220065D01*
X8885486Y-15232843D01*
X8875465Y-15248792D01*
X8831892Y-15292364D01*
X8785121Y-15344309D01*
X8766203Y-15358053D01*
X8748792Y-15375465D01*
X8700312Y-15405926D01*
X8649860Y-15442583D01*
X8622800Y-15454630D01*
X8597107Y-15470775D01*
X8547744Y-15488047D01*
X8497129Y-15510583D01*
X8462005Y-15518048D01*
X8428017Y-15529942D01*
X8381279Y-15535208D01*
X8333595Y-15545344D01*
X8291323Y-15545344D01*
X8250000Y-15550000D01*
X8208677Y-15545344D01*
X8166405Y-15545344D01*
X8118719Y-15535208D01*
X8071983Y-15529942D01*
X8037995Y-15518049D01*
X8002870Y-15510583D01*
X7952251Y-15488046D01*
X7902893Y-15470775D01*
X7877201Y-15454631D01*
X7850139Y-15442583D01*
X7799680Y-15405922D01*
X7751208Y-15375465D01*
X7733799Y-15358056D01*
X7714878Y-15344309D01*
X7668097Y-15292354D01*
X7624535Y-15248792D01*
X7614516Y-15232847D01*
X7603007Y-15220065D01*
X7563629Y-15151861D01*
X7529225Y-15097107D01*
X7524929Y-15084831D01*
X7519415Y-15075280D01*
X7491180Y-14988382D01*
X7470058Y-14928017D01*
X7469256Y-14920906D01*
X7467751Y-14916272D01*
X7454093Y-14786328D01*
X7450000Y-14750000D01*
X7454092Y-14713674D01*
X7467751Y-14583727D01*
X7469257Y-14579091D01*
X7470058Y-14571983D01*
X7491176Y-14511630D01*
X7519415Y-14424719D01*
X7524930Y-14415165D01*
X7529225Y-14402893D01*
X7563622Y-14348149D01*
X7603007Y-14279934D01*
X7614518Y-14267149D01*
X7624535Y-14251208D01*
X7668088Y-14207654D01*
X7714878Y-14155690D01*
X7733802Y-14141940D01*
X7751208Y-14124535D01*
X7799674Y-14094081D01*
X7850140Y-14057416D01*
X7877204Y-14045365D01*
X7902893Y-14029225D01*
X7952242Y-14011956D01*
X8002870Y-13989416D01*
X8038001Y-13981948D01*
X8071983Y-13970058D01*
X8118717Y-13964792D01*
X8166405Y-13954656D01*
X8208677Y-13954656D01*
X8250000Y-13950000D01*
X8291323Y-13954656D01*
G37*
G36*
X-1251920Y-14070034D02*
G01*
X-1187846Y-14112846D01*
X-1145034Y-14176920D01*
X-1130000Y-14252500D01*
X-1130000Y-14547500D01*
X-1145034Y-14623080D01*
X-1187846Y-14687154D01*
X-1251920Y-14729966D01*
X-1327500Y-14745000D01*
X-1672500Y-14745000D01*
X-1748080Y-14729966D01*
X-1812154Y-14687154D01*
X-1854966Y-14623080D01*
X-1870000Y-14547500D01*
X-1870000Y-14252500D01*
X-1854966Y-14176920D01*
X-1812154Y-14112846D01*
X-1748080Y-14070034D01*
X-1672500Y-14055000D01*
X-1327500Y-14055000D01*
X-1251920Y-14070034D01*
G37*
G36*
X-181920Y-14055034D02*
G01*
X-117846Y-14097846D01*
X-75034Y-14161920D01*
X-60000Y-14237500D01*
X-60000Y-14532500D01*
X-75034Y-14608080D01*
X-117846Y-14672154D01*
X-181920Y-14714966D01*
X-257500Y-14730000D01*
X-602500Y-14730000D01*
X-678080Y-14714966D01*
X-742154Y-14672154D01*
X-784966Y-14608080D01*
X-800000Y-14532500D01*
X-800000Y-14237500D01*
X-784966Y-14161920D01*
X-742154Y-14097846D01*
X-678080Y-14055034D01*
X-602500Y-14040000D01*
X-257500Y-14040000D01*
X-181920Y-14055034D01*
G37*
G36*
X-1251920Y-13100034D02*
G01*
X-1187846Y-13142846D01*
X-1145034Y-13206920D01*
X-1130000Y-13282500D01*
X-1130000Y-13577500D01*
X-1145034Y-13653080D01*
X-1187846Y-13717154D01*
X-1251920Y-13759966D01*
X-1327500Y-13775000D01*
X-1672500Y-13775000D01*
X-1748080Y-13759966D01*
X-1812154Y-13717154D01*
X-1854966Y-13653080D01*
X-1870000Y-13577500D01*
X-1870000Y-13282500D01*
X-1854966Y-13206920D01*
X-1812154Y-13142846D01*
X-1748080Y-13100034D01*
X-1672500Y-13085000D01*
X-1327500Y-13085000D01*
X-1251920Y-13100034D01*
G37*
G36*
X-181920Y-13085034D02*
G01*
X-117846Y-13127846D01*
X-75034Y-13191920D01*
X-60000Y-13267500D01*
X-60000Y-13562500D01*
X-75034Y-13638080D01*
X-117846Y-13702154D01*
X-181920Y-13744966D01*
X-257500Y-13760000D01*
X-602500Y-13760000D01*
X-678080Y-13744966D01*
X-742154Y-13702154D01*
X-784966Y-13638080D01*
X-800000Y-13562500D01*
X-800000Y-13267500D01*
X-784966Y-13191920D01*
X-742154Y-13127846D01*
X-678080Y-13085034D01*
X-602500Y-13070000D01*
X-257500Y-13070000D01*
X-181920Y-13085034D01*
G37*
G36*
X8491323Y-10624656D02*
G01*
X8533595Y-10624656D01*
X8581282Y-10634792D01*
X8628017Y-10640058D01*
X8662000Y-10651949D01*
X8697129Y-10659416D01*
X8747754Y-10681955D01*
X8797107Y-10699225D01*
X8822795Y-10715366D01*
X8849860Y-10727416D01*
X8900322Y-10764079D01*
X8948792Y-10794535D01*
X8966199Y-10811942D01*
X8985121Y-10825690D01*
X9031901Y-10877644D01*
X9075465Y-10921208D01*
X9085484Y-10937153D01*
X9096992Y-10949934D01*
X9136365Y-11018130D01*
X9170775Y-11072893D01*
X9175070Y-11085170D01*
X9180584Y-11094719D01*
X9208809Y-11181590D01*
X9229942Y-11241983D01*
X9230743Y-11249096D01*
X9232248Y-11253727D01*
X9245892Y-11383542D01*
X9250000Y-11420000D01*
X9245891Y-11456460D01*
X9232248Y-11586272D01*
X9230743Y-11590901D01*
X9229942Y-11598017D01*
X9208805Y-11658422D01*
X9180584Y-11745280D01*
X9175071Y-11754827D01*
X9170775Y-11767107D01*
X9136358Y-11821881D01*
X9096992Y-11890065D01*
X9085486Y-11902843D01*
X9075465Y-11918792D01*
X9031892Y-11962364D01*
X8985121Y-12014309D01*
X8966203Y-12028053D01*
X8948792Y-12045465D01*
X8900312Y-12075926D01*
X8849860Y-12112583D01*
X8822800Y-12124630D01*
X8797107Y-12140775D01*
X8747744Y-12158047D01*
X8697129Y-12180583D01*
X8662005Y-12188048D01*
X8628017Y-12199942D01*
X8581279Y-12205208D01*
X8533595Y-12215344D01*
X8491323Y-12215344D01*
X8450000Y-12220000D01*
X8408677Y-12215344D01*
X8366405Y-12215344D01*
X8318719Y-12205208D01*
X8271983Y-12199942D01*
X8237995Y-12188049D01*
X8202870Y-12180583D01*
X8152251Y-12158046D01*
X8102893Y-12140775D01*
X8077201Y-12124631D01*
X8050139Y-12112583D01*
X7999680Y-12075922D01*
X7951208Y-12045465D01*
X7933799Y-12028056D01*
X7914878Y-12014309D01*
X7868097Y-11962354D01*
X7824535Y-11918792D01*
X7814516Y-11902847D01*
X7803007Y-11890065D01*
X7763629Y-11821861D01*
X7729225Y-11767107D01*
X7724929Y-11754831D01*
X7719415Y-11745280D01*
X7691180Y-11658382D01*
X7670058Y-11598017D01*
X7669256Y-11590906D01*
X7667751Y-11586272D01*
X7654093Y-11456328D01*
X7650000Y-11420000D01*
X7654092Y-11383674D01*
X7667751Y-11253727D01*
X7669257Y-11249091D01*
X7670058Y-11241983D01*
X7691176Y-11181630D01*
X7719415Y-11094719D01*
X7724930Y-11085165D01*
X7729225Y-11072893D01*
X7763622Y-11018149D01*
X7803007Y-10949934D01*
X7814518Y-10937149D01*
X7824535Y-10921208D01*
X7868088Y-10877654D01*
X7914878Y-10825690D01*
X7933802Y-10811940D01*
X7951208Y-10794535D01*
X7999674Y-10764081D01*
X8050140Y-10727416D01*
X8077204Y-10715365D01*
X8102893Y-10699225D01*
X8152242Y-10681956D01*
X8202870Y-10659416D01*
X8238001Y-10651948D01*
X8271983Y-10640058D01*
X8318717Y-10634792D01*
X8366405Y-10624656D01*
X8408677Y-10624656D01*
X8450000Y-10620000D01*
X8491323Y-10624656D01*
G37*
G36*
X-648677Y-10354656D02*
G01*
X-606405Y-10354656D01*
X-558718Y-10364792D01*
X-511983Y-10370058D01*
X-478000Y-10381949D01*
X-442871Y-10389416D01*
X-392246Y-10411955D01*
X-342893Y-10429225D01*
X-317205Y-10445366D01*
X-290140Y-10457416D01*
X-239678Y-10494079D01*
X-191208Y-10524535D01*
X-173801Y-10541942D01*
X-154879Y-10555690D01*
X-108099Y-10607644D01*
X-64535Y-10651208D01*
X-54516Y-10667153D01*
X-43008Y-10679934D01*
X-3635Y-10748130D01*
X30775Y-10802893D01*
X35070Y-10815170D01*
X40584Y-10824719D01*
X68809Y-10911590D01*
X89942Y-10971983D01*
X90743Y-10979096D01*
X92248Y-10983727D01*
X105892Y-11113542D01*
X110000Y-11150000D01*
X105891Y-11186460D01*
X92248Y-11316272D01*
X90743Y-11320901D01*
X89942Y-11328017D01*
X68805Y-11388422D01*
X40584Y-11475280D01*
X35071Y-11484827D01*
X30775Y-11497107D01*
X-3642Y-11551881D01*
X-43008Y-11620065D01*
X-54514Y-11632843D01*
X-64535Y-11648792D01*
X-108108Y-11692364D01*
X-154879Y-11744309D01*
X-173797Y-11758053D01*
X-191208Y-11775465D01*
X-239688Y-11805926D01*
X-290140Y-11842583D01*
X-317200Y-11854630D01*
X-342893Y-11870775D01*
X-392256Y-11888047D01*
X-442871Y-11910583D01*
X-477995Y-11918048D01*
X-511983Y-11929942D01*
X-558721Y-11935208D01*
X-606405Y-11945344D01*
X-648677Y-11945344D01*
X-690000Y-11950000D01*
X-731323Y-11945344D01*
X-773595Y-11945344D01*
X-821281Y-11935208D01*
X-868017Y-11929942D01*
X-902005Y-11918049D01*
X-937130Y-11910583D01*
X-987749Y-11888046D01*
X-1037107Y-11870775D01*
X-1062799Y-11854631D01*
X-1089861Y-11842583D01*
X-1140320Y-11805922D01*
X-1188792Y-11775465D01*
X-1206201Y-11758056D01*
X-1225122Y-11744309D01*
X-1271903Y-11692354D01*
X-1315465Y-11648792D01*
X-1325484Y-11632847D01*
X-1336993Y-11620065D01*
X-1376371Y-11551861D01*
X-1410775Y-11497107D01*
X-1415071Y-11484831D01*
X-1420585Y-11475280D01*
X-1448820Y-11388382D01*
X-1469942Y-11328017D01*
X-1470744Y-11320906D01*
X-1472249Y-11316272D01*
X-1485907Y-11186328D01*
X-1490000Y-11150000D01*
X-1485908Y-11113674D01*
X-1472249Y-10983727D01*
X-1470743Y-10979091D01*
X-1469942Y-10971983D01*
X-1448824Y-10911630D01*
X-1420585Y-10824719D01*
X-1415070Y-10815165D01*
X-1410775Y-10802893D01*
X-1376378Y-10748149D01*
X-1336993Y-10679934D01*
X-1325482Y-10667149D01*
X-1315465Y-10651208D01*
X-1271912Y-10607654D01*
X-1225122Y-10555690D01*
X-1206198Y-10541940D01*
X-1188792Y-10524535D01*
X-1140326Y-10494081D01*
X-1089860Y-10457416D01*
X-1062796Y-10445365D01*
X-1037107Y-10429225D01*
X-987758Y-10411956D01*
X-937130Y-10389416D01*
X-901999Y-10381948D01*
X-868017Y-10370058D01*
X-821283Y-10364792D01*
X-773595Y-10354656D01*
X-731323Y-10354656D01*
X-690000Y-10350000D01*
X-648677Y-10354656D01*
G37*
G36*
X9641323Y-8074656D02*
G01*
X9683595Y-8074656D01*
X9731282Y-8084792D01*
X9778017Y-8090058D01*
X9812000Y-8101949D01*
X9847129Y-8109416D01*
X9897754Y-8131955D01*
X9947107Y-8149225D01*
X9972795Y-8165366D01*
X9999860Y-8177416D01*
X10050322Y-8214079D01*
X10098792Y-8244535D01*
X10116199Y-8261942D01*
X10135121Y-8275690D01*
X10181901Y-8327644D01*
X10225465Y-8371208D01*
X10235484Y-8387153D01*
X10246992Y-8399934D01*
X10286365Y-8468130D01*
X10320775Y-8522893D01*
X10325070Y-8535170D01*
X10330584Y-8544719D01*
X10358809Y-8631590D01*
X10379942Y-8691983D01*
X10380743Y-8699096D01*
X10382248Y-8703727D01*
X10395892Y-8833542D01*
X10400000Y-8870000D01*
X10395891Y-8906460D01*
X10382248Y-9036272D01*
X10380743Y-9040901D01*
X10379942Y-9048017D01*
X10358805Y-9108422D01*
X10330584Y-9195280D01*
X10325071Y-9204827D01*
X10320775Y-9217107D01*
X10286358Y-9271881D01*
X10246992Y-9340065D01*
X10235486Y-9352843D01*
X10225465Y-9368792D01*
X10181892Y-9412364D01*
X10135121Y-9464309D01*
X10116203Y-9478053D01*
X10098792Y-9495465D01*
X10050312Y-9525926D01*
X9999860Y-9562583D01*
X9972800Y-9574630D01*
X9947107Y-9590775D01*
X9897744Y-9608047D01*
X9847129Y-9630583D01*
X9812005Y-9638048D01*
X9778017Y-9649942D01*
X9731279Y-9655208D01*
X9683595Y-9665344D01*
X9641323Y-9665344D01*
X9600000Y-9670000D01*
X9558677Y-9665344D01*
X9516405Y-9665344D01*
X9468719Y-9655208D01*
X9421983Y-9649942D01*
X9387995Y-9638049D01*
X9352870Y-9630583D01*
X9302251Y-9608046D01*
X9252893Y-9590775D01*
X9227201Y-9574631D01*
X9200139Y-9562583D01*
X9149680Y-9525922D01*
X9101208Y-9495465D01*
X9083799Y-9478056D01*
X9064878Y-9464309D01*
X9018097Y-9412354D01*
X8974535Y-9368792D01*
X8964516Y-9352847D01*
X8953007Y-9340065D01*
X8913629Y-9271861D01*
X8879225Y-9217107D01*
X8874929Y-9204831D01*
X8869415Y-9195280D01*
X8841180Y-9108382D01*
X8820058Y-9048017D01*
X8819256Y-9040906D01*
X8817751Y-9036272D01*
X8804093Y-8906328D01*
X8800000Y-8870000D01*
X8804092Y-8833674D01*
X8817751Y-8703727D01*
X8819257Y-8699091D01*
X8820058Y-8691983D01*
X8841176Y-8631630D01*
X8869415Y-8544719D01*
X8874930Y-8535165D01*
X8879225Y-8522893D01*
X8913622Y-8468149D01*
X8953007Y-8399934D01*
X8964518Y-8387149D01*
X8974535Y-8371208D01*
X9018088Y-8327654D01*
X9064878Y-8275690D01*
X9083802Y-8261940D01*
X9101208Y-8244535D01*
X9149674Y-8214081D01*
X9200140Y-8177416D01*
X9227204Y-8165365D01*
X9252893Y-8149225D01*
X9302242Y-8131956D01*
X9352870Y-8109416D01*
X9388001Y-8101948D01*
X9421983Y-8090058D01*
X9468717Y-8084792D01*
X9516405Y-8074656D01*
X9558677Y-8074656D01*
X9600000Y-8070000D01*
X9641323Y-8074656D01*
G37*
G36*
X-11207340Y-5546275D02*
G01*
X-11145410Y-5554428D01*
X-11129833Y-5561692D01*
X-11110904Y-5565457D01*
X-11085833Y-5582208D01*
X-11060045Y-5594234D01*
X-11044356Y-5609923D01*
X-11023715Y-5623715D01*
X-11009924Y-5644355D01*
X-10994235Y-5660044D01*
X-10982211Y-5685830D01*
X-10965457Y-5710904D01*
X-10961692Y-5729834D01*
X-10954429Y-5745409D01*
X-10946278Y-5807326D01*
X-10945000Y-5813750D01*
X-10945000Y-6326250D01*
X-10946278Y-6332674D01*
X-10954429Y-6394590D01*
X-10961692Y-6410164D01*
X-10965457Y-6429096D01*
X-10982213Y-6454171D01*
X-10994235Y-6479955D01*
X-11009922Y-6495641D01*
X-11023715Y-6516285D01*
X-11044359Y-6530078D01*
X-11060045Y-6545765D01*
X-11085829Y-6557787D01*
X-11110904Y-6574543D01*
X-11129836Y-6578308D01*
X-11145410Y-6585571D01*
X-11207326Y-6593722D01*
X-11213750Y-6595000D01*
X-11651250Y-6595000D01*
X-11657674Y-6593722D01*
X-11719591Y-6585571D01*
X-11735166Y-6578308D01*
X-11754096Y-6574543D01*
X-11779170Y-6557789D01*
X-11804956Y-6545765D01*
X-11820645Y-6530076D01*
X-11841285Y-6516285D01*
X-11855077Y-6495644D01*
X-11870766Y-6479955D01*
X-11882792Y-6454167D01*
X-11899543Y-6429096D01*
X-11903308Y-6410167D01*
X-11910572Y-6394590D01*
X-11918725Y-6332660D01*
X-11920000Y-6326250D01*
X-11920000Y-5813750D01*
X-11918726Y-5807341D01*
X-11910572Y-5745409D01*
X-11903308Y-5729830D01*
X-11899543Y-5710904D01*
X-11882793Y-5685835D01*
X-11870766Y-5660044D01*
X-11855075Y-5644352D01*
X-11841285Y-5623715D01*
X-11820648Y-5609925D01*
X-11804956Y-5594234D01*
X-11779165Y-5582207D01*
X-11754096Y-5565457D01*
X-11735170Y-5561692D01*
X-11719591Y-5554428D01*
X-11657659Y-5546274D01*
X-11651250Y-5545000D01*
X-11213750Y-5545000D01*
X-11207340Y-5546275D01*
G37*
G36*
X-9632340Y-5546275D02*
G01*
X-9570410Y-5554428D01*
X-9554833Y-5561692D01*
X-9535904Y-5565457D01*
X-9510833Y-5582208D01*
X-9485045Y-5594234D01*
X-9469356Y-5609923D01*
X-9448715Y-5623715D01*
X-9434924Y-5644355D01*
X-9419235Y-5660044D01*
X-9407211Y-5685830D01*
X-9390457Y-5710904D01*
X-9386692Y-5729834D01*
X-9379429Y-5745409D01*
X-9371278Y-5807326D01*
X-9370000Y-5813750D01*
X-9370000Y-6326250D01*
X-9371278Y-6332674D01*
X-9379429Y-6394590D01*
X-9386692Y-6410164D01*
X-9390457Y-6429096D01*
X-9407213Y-6454171D01*
X-9419235Y-6479955D01*
X-9434922Y-6495641D01*
X-9448715Y-6516285D01*
X-9469359Y-6530078D01*
X-9485045Y-6545765D01*
X-9510829Y-6557787D01*
X-9535904Y-6574543D01*
X-9554836Y-6578308D01*
X-9570410Y-6585571D01*
X-9632326Y-6593722D01*
X-9638750Y-6595000D01*
X-10076250Y-6595000D01*
X-10082674Y-6593722D01*
X-10144591Y-6585571D01*
X-10160166Y-6578308D01*
X-10179096Y-6574543D01*
X-10204170Y-6557789D01*
X-10229956Y-6545765D01*
X-10245645Y-6530076D01*
X-10266285Y-6516285D01*
X-10280077Y-6495644D01*
X-10295766Y-6479955D01*
X-10307792Y-6454167D01*
X-10324543Y-6429096D01*
X-10328308Y-6410167D01*
X-10335572Y-6394590D01*
X-10343725Y-6332660D01*
X-10345000Y-6326250D01*
X-10345000Y-5813750D01*
X-10343726Y-5807341D01*
X-10335572Y-5745409D01*
X-10328308Y-5729830D01*
X-10324543Y-5710904D01*
X-10307793Y-5685835D01*
X-10295766Y-5660044D01*
X-10280075Y-5644352D01*
X-10266285Y-5623715D01*
X-10245648Y-5609925D01*
X-10229956Y-5594234D01*
X-10204165Y-5582207D01*
X-10179096Y-5565457D01*
X-10160170Y-5561692D01*
X-10144591Y-5554428D01*
X-10082659Y-5546274D01*
X-10076250Y-5545000D01*
X-9638750Y-5545000D01*
X-9632340Y-5546275D01*
G37*
G36*
X-11187328Y-3936275D02*
G01*
X-11125398Y-3944428D01*
X-11109821Y-3951692D01*
X-11090892Y-3955457D01*
X-11065821Y-3972208D01*
X-11040033Y-3984234D01*
X-11024344Y-3999923D01*
X-11003703Y-4013715D01*
X-10989912Y-4034355D01*
X-10974223Y-4050044D01*
X-10962199Y-4075830D01*
X-10945445Y-4100904D01*
X-10941680Y-4119834D01*
X-10934417Y-4135409D01*
X-10926266Y-4197326D01*
X-10924988Y-4203750D01*
X-10924988Y-4716250D01*
X-10926266Y-4722674D01*
X-10934417Y-4784590D01*
X-10941680Y-4800164D01*
X-10945445Y-4819096D01*
X-10962201Y-4844171D01*
X-10974223Y-4869955D01*
X-10989910Y-4885641D01*
X-11003703Y-4906285D01*
X-11024347Y-4920078D01*
X-11040033Y-4935765D01*
X-11065817Y-4947787D01*
X-11090892Y-4964543D01*
X-11109824Y-4968308D01*
X-11125398Y-4975571D01*
X-11187314Y-4983722D01*
X-11193738Y-4985000D01*
X-11631238Y-4985000D01*
X-11637662Y-4983722D01*
X-11699579Y-4975571D01*
X-11715154Y-4968308D01*
X-11734084Y-4964543D01*
X-11759158Y-4947789D01*
X-11784944Y-4935765D01*
X-11800633Y-4920076D01*
X-11821273Y-4906285D01*
X-11835065Y-4885644D01*
X-11850754Y-4869955D01*
X-11862780Y-4844167D01*
X-11879531Y-4819096D01*
X-11883296Y-4800167D01*
X-11890560Y-4784590D01*
X-11898713Y-4722660D01*
X-11899988Y-4716250D01*
X-11899988Y-4203750D01*
X-11898714Y-4197341D01*
X-11890560Y-4135409D01*
X-11883296Y-4119830D01*
X-11879531Y-4100904D01*
X-11862781Y-4075835D01*
X-11850754Y-4050044D01*
X-11835063Y-4034352D01*
X-11821273Y-4013715D01*
X-11800636Y-3999925D01*
X-11784944Y-3984234D01*
X-11759153Y-3972207D01*
X-11734084Y-3955457D01*
X-11715158Y-3951692D01*
X-11699579Y-3944428D01*
X-11637647Y-3936274D01*
X-11631238Y-3935000D01*
X-11193738Y-3935000D01*
X-11187328Y-3936275D01*
G37*
G36*
X-9612328Y-3936275D02*
G01*
X-9550398Y-3944428D01*
X-9534821Y-3951692D01*
X-9515892Y-3955457D01*
X-9490821Y-3972208D01*
X-9465033Y-3984234D01*
X-9449344Y-3999923D01*
X-9428703Y-4013715D01*
X-9414912Y-4034355D01*
X-9399223Y-4050044D01*
X-9387199Y-4075830D01*
X-9370445Y-4100904D01*
X-9366680Y-4119834D01*
X-9359417Y-4135409D01*
X-9351266Y-4197326D01*
X-9349988Y-4203750D01*
X-9349988Y-4716250D01*
X-9351266Y-4722674D01*
X-9359417Y-4784590D01*
X-9366680Y-4800164D01*
X-9370445Y-4819096D01*
X-9387201Y-4844171D01*
X-9399223Y-4869955D01*
X-9414910Y-4885641D01*
X-9428703Y-4906285D01*
X-9449347Y-4920078D01*
X-9465033Y-4935765D01*
X-9490817Y-4947787D01*
X-9515892Y-4964543D01*
X-9534824Y-4968308D01*
X-9550398Y-4975571D01*
X-9612314Y-4983722D01*
X-9618738Y-4985000D01*
X-10056238Y-4985000D01*
X-10062662Y-4983722D01*
X-10124579Y-4975571D01*
X-10140154Y-4968308D01*
X-10159084Y-4964543D01*
X-10184158Y-4947789D01*
X-10209944Y-4935765D01*
X-10225633Y-4920076D01*
X-10246273Y-4906285D01*
X-10260065Y-4885644D01*
X-10275754Y-4869955D01*
X-10287780Y-4844167D01*
X-10304531Y-4819096D01*
X-10308296Y-4800167D01*
X-10315560Y-4784590D01*
X-10323713Y-4722660D01*
X-10324988Y-4716250D01*
X-10324988Y-4203750D01*
X-10323714Y-4197341D01*
X-10315560Y-4135409D01*
X-10308296Y-4119830D01*
X-10304531Y-4100904D01*
X-10287781Y-4075835D01*
X-10275754Y-4050044D01*
X-10260063Y-4034352D01*
X-10246273Y-4013715D01*
X-10225636Y-3999925D01*
X-10209944Y-3984234D01*
X-10184153Y-3972207D01*
X-10159084Y-3955457D01*
X-10140158Y-3951692D01*
X-10124579Y-3944428D01*
X-10062647Y-3936274D01*
X-10056238Y-3935000D01*
X-9618738Y-3935000D01*
X-9612328Y-3936275D01*
G37*
G36*
X-10535466Y-399206D02*
G01*
X-10519245Y-410045D01*
X-10508406Y-426266D01*
X-10504600Y-445400D01*
X-10504600Y-2145400D01*
X-10508406Y-2164534D01*
X-10519245Y-2180755D01*
X-10535466Y-2191594D01*
X-10554600Y-2195400D01*
X-12254600Y-2195400D01*
X-12273734Y-2191594D01*
X-12289955Y-2180755D01*
X-12300794Y-2164534D01*
X-12304600Y-2145400D01*
X-12304600Y-445400D01*
X-12300794Y-426266D01*
X-12289955Y-410045D01*
X-12273734Y-399206D01*
X-12254600Y-395400D01*
X-10554600Y-395400D01*
X-10535466Y-399206D01*
G37*
G36*
X-8816993Y-400330D02*
G01*
X-8770524Y-400330D01*
X-8730398Y-408859D01*
X-8689067Y-412930D01*
X-8637140Y-428682D01*
X-8586485Y-439449D01*
X-8554073Y-453879D01*
X-8520279Y-464131D01*
X-8466577Y-492835D01*
X-8414600Y-515977D01*
X-8390435Y-533534D01*
X-8364722Y-547278D01*
X-8312267Y-590327D01*
X-8262382Y-626570D01*
X-8246188Y-644555D01*
X-8228375Y-659174D01*
X-8180511Y-717497D01*
X-8136485Y-766393D01*
X-8127235Y-782415D01*
X-8116479Y-795521D01*
X-8076692Y-869957D01*
X-8042409Y-929337D01*
X-8038466Y-941474D01*
X-8033332Y-951078D01*
X-8005032Y-1044371D01*
X-7984267Y-1108279D01*
X-7983536Y-1115234D01*
X-7982131Y-1119866D01*
X-7968449Y-1258785D01*
X-7964600Y-1295400D01*
X-7968449Y-1332017D01*
X-7982131Y-1470933D01*
X-7983536Y-1475564D01*
X-7984267Y-1482521D01*
X-8005037Y-1546442D01*
X-8033332Y-1639721D01*
X-8038465Y-1649323D01*
X-8042409Y-1661463D01*
X-8076699Y-1720854D01*
X-8116479Y-1795278D01*
X-8127233Y-1808381D01*
X-8136485Y-1824407D01*
X-8180520Y-1873312D01*
X-8228375Y-1931625D01*
X-8246185Y-1946240D01*
X-8262382Y-1964230D01*
X-8312277Y-2000480D01*
X-8364722Y-2043521D01*
X-8390429Y-2057261D01*
X-8414600Y-2074823D01*
X-8466588Y-2097969D01*
X-8520279Y-2126668D01*
X-8554066Y-2136917D01*
X-8586485Y-2151351D01*
X-8637151Y-2162120D01*
X-8689067Y-2177869D01*
X-8730390Y-2181938D01*
X-8770524Y-2190470D01*
X-8817003Y-2190470D01*
X-8864600Y-2195158D01*
X-8912197Y-2190470D01*
X-8958676Y-2190470D01*
X-8998811Y-2181939D01*
X-9040134Y-2177869D01*
X-9092054Y-2162119D01*
X-9142715Y-2151351D01*
X-9175133Y-2136917D01*
X-9208922Y-2126668D01*
X-9262619Y-2097966D01*
X-9314600Y-2074823D01*
X-9338769Y-2057263D01*
X-9364479Y-2043521D01*
X-9416933Y-2000474D01*
X-9466818Y-1964230D01*
X-9483013Y-1946243D01*
X-9500826Y-1931625D01*
X-9548692Y-1873299D01*
X-9592715Y-1824407D01*
X-9601966Y-1808385D01*
X-9612722Y-1795278D01*
X-9652515Y-1720831D01*
X-9686791Y-1661463D01*
X-9690734Y-1649328D01*
X-9695869Y-1639721D01*
X-9724179Y-1546396D01*
X-9744933Y-1482521D01*
X-9745664Y-1475569D01*
X-9747070Y-1470933D01*
X-9760768Y-1331866D01*
X-9764600Y-1295400D01*
X-9760768Y-1258936D01*
X-9747070Y-1119866D01*
X-9745664Y-1115229D01*
X-9744933Y-1108279D01*
X-9724184Y-1044417D01*
X-9695869Y-951078D01*
X-9690734Y-941469D01*
X-9686791Y-929337D01*
X-9652522Y-869981D01*
X-9612722Y-795521D01*
X-9601964Y-782411D01*
X-9592715Y-766393D01*
X-9548702Y-717510D01*
X-9500826Y-659174D01*
X-9483010Y-644552D01*
X-9466818Y-626570D01*
X-9416943Y-590333D01*
X-9364479Y-547278D01*
X-9338764Y-533532D01*
X-9314600Y-515977D01*
X-9262630Y-492838D01*
X-9208922Y-464131D01*
X-9175126Y-453878D01*
X-9142715Y-439449D01*
X-9092065Y-428682D01*
X-9040134Y-412930D01*
X-8998802Y-408859D01*
X-8958676Y-400330D01*
X-8912207Y-400330D01*
X-8864600Y-395641D01*
X-8816993Y-400330D01*
G37*
G36*
X-6276993Y-400330D02*
G01*
X-6230524Y-400330D01*
X-6190398Y-408859D01*
X-6149067Y-412930D01*
X-6097140Y-428682D01*
X-6046485Y-439449D01*
X-6014073Y-453879D01*
X-5980279Y-464131D01*
X-5926577Y-492835D01*
X-5874600Y-515977D01*
X-5850435Y-533534D01*
X-5824722Y-547278D01*
X-5772267Y-590327D01*
X-5722382Y-626570D01*
X-5706188Y-644555D01*
X-5688375Y-659174D01*
X-5640511Y-717497D01*
X-5596485Y-766393D01*
X-5587235Y-782415D01*
X-5576479Y-795521D01*
X-5536692Y-869957D01*
X-5502409Y-929337D01*
X-5498466Y-941474D01*
X-5493332Y-951078D01*
X-5465032Y-1044371D01*
X-5444267Y-1108279D01*
X-5443536Y-1115234D01*
X-5442131Y-1119866D01*
X-5428449Y-1258785D01*
X-5424600Y-1295400D01*
X-5428449Y-1332017D01*
X-5442131Y-1470933D01*
X-5443536Y-1475564D01*
X-5444267Y-1482521D01*
X-5465037Y-1546442D01*
X-5493332Y-1639721D01*
X-5498465Y-1649323D01*
X-5502409Y-1661463D01*
X-5536699Y-1720854D01*
X-5576479Y-1795278D01*
X-5587233Y-1808381D01*
X-5596485Y-1824407D01*
X-5640520Y-1873312D01*
X-5688375Y-1931625D01*
X-5706185Y-1946240D01*
X-5722382Y-1964230D01*
X-5772277Y-2000480D01*
X-5824722Y-2043521D01*
X-5850429Y-2057261D01*
X-5874600Y-2074823D01*
X-5926588Y-2097969D01*
X-5980279Y-2126668D01*
X-6014066Y-2136917D01*
X-6046485Y-2151351D01*
X-6097151Y-2162120D01*
X-6149067Y-2177869D01*
X-6190390Y-2181938D01*
X-6230524Y-2190470D01*
X-6277003Y-2190470D01*
X-6324600Y-2195158D01*
X-6372197Y-2190470D01*
X-6418676Y-2190470D01*
X-6458811Y-2181939D01*
X-6500134Y-2177869D01*
X-6552054Y-2162119D01*
X-6602715Y-2151351D01*
X-6635133Y-2136917D01*
X-6668922Y-2126668D01*
X-6722619Y-2097966D01*
X-6774600Y-2074823D01*
X-6798769Y-2057263D01*
X-6824479Y-2043521D01*
X-6876933Y-2000474D01*
X-6926818Y-1964230D01*
X-6943013Y-1946243D01*
X-6960826Y-1931625D01*
X-7008692Y-1873299D01*
X-7052715Y-1824407D01*
X-7061966Y-1808385D01*
X-7072722Y-1795278D01*
X-7112515Y-1720831D01*
X-7146791Y-1661463D01*
X-7150734Y-1649328D01*
X-7155869Y-1639721D01*
X-7184179Y-1546396D01*
X-7204933Y-1482521D01*
X-7205664Y-1475569D01*
X-7207070Y-1470933D01*
X-7220768Y-1331866D01*
X-7224600Y-1295400D01*
X-7220768Y-1258936D01*
X-7207070Y-1119866D01*
X-7205664Y-1115229D01*
X-7204933Y-1108279D01*
X-7184184Y-1044417D01*
X-7155869Y-951078D01*
X-7150734Y-941469D01*
X-7146791Y-929337D01*
X-7112522Y-869981D01*
X-7072722Y-795521D01*
X-7061964Y-782411D01*
X-7052715Y-766393D01*
X-7008702Y-717510D01*
X-6960826Y-659174D01*
X-6943010Y-644552D01*
X-6926818Y-626570D01*
X-6876943Y-590333D01*
X-6824479Y-547278D01*
X-6798764Y-533532D01*
X-6774600Y-515977D01*
X-6722630Y-492838D01*
X-6668922Y-464131D01*
X-6635126Y-453878D01*
X-6602715Y-439449D01*
X-6552065Y-428682D01*
X-6500134Y-412930D01*
X-6458802Y-408859D01*
X-6418676Y-400330D01*
X-6372207Y-400330D01*
X-6324600Y-395641D01*
X-6276993Y-400330D01*
G37*
G36*
X-3736993Y-400330D02*
G01*
X-3690524Y-400330D01*
X-3650398Y-408859D01*
X-3609067Y-412930D01*
X-3557140Y-428682D01*
X-3506485Y-439449D01*
X-3474073Y-453879D01*
X-3440279Y-464131D01*
X-3386577Y-492835D01*
X-3334600Y-515977D01*
X-3310435Y-533534D01*
X-3284722Y-547278D01*
X-3232267Y-590327D01*
X-3182382Y-626570D01*
X-3166188Y-644555D01*
X-3148375Y-659174D01*
X-3100511Y-717497D01*
X-3056485Y-766393D01*
X-3047235Y-782415D01*
X-3036479Y-795521D01*
X-2996692Y-869957D01*
X-2962409Y-929337D01*
X-2958466Y-941474D01*
X-2953332Y-951078D01*
X-2925032Y-1044371D01*
X-2904267Y-1108279D01*
X-2903536Y-1115234D01*
X-2902131Y-1119866D01*
X-2888449Y-1258785D01*
X-2884600Y-1295400D01*
X-2888449Y-1332017D01*
X-2902131Y-1470933D01*
X-2903536Y-1475564D01*
X-2904267Y-1482521D01*
X-2925037Y-1546442D01*
X-2953332Y-1639721D01*
X-2958465Y-1649323D01*
X-2962409Y-1661463D01*
X-2996699Y-1720854D01*
X-3036479Y-1795278D01*
X-3047233Y-1808381D01*
X-3056485Y-1824407D01*
X-3100520Y-1873312D01*
X-3148375Y-1931625D01*
X-3166185Y-1946240D01*
X-3182382Y-1964230D01*
X-3232277Y-2000480D01*
X-3284722Y-2043521D01*
X-3310429Y-2057261D01*
X-3334600Y-2074823D01*
X-3386588Y-2097969D01*
X-3440279Y-2126668D01*
X-3474066Y-2136917D01*
X-3506485Y-2151351D01*
X-3557151Y-2162120D01*
X-3609067Y-2177869D01*
X-3650390Y-2181938D01*
X-3690524Y-2190470D01*
X-3737003Y-2190470D01*
X-3784600Y-2195158D01*
X-3832197Y-2190470D01*
X-3878676Y-2190470D01*
X-3918811Y-2181939D01*
X-3960134Y-2177869D01*
X-4012054Y-2162119D01*
X-4062715Y-2151351D01*
X-4095133Y-2136917D01*
X-4128922Y-2126668D01*
X-4182619Y-2097966D01*
X-4234600Y-2074823D01*
X-4258769Y-2057263D01*
X-4284479Y-2043521D01*
X-4336933Y-2000474D01*
X-4386818Y-1964230D01*
X-4403013Y-1946243D01*
X-4420826Y-1931625D01*
X-4468692Y-1873299D01*
X-4512715Y-1824407D01*
X-4521966Y-1808385D01*
X-4532722Y-1795278D01*
X-4572515Y-1720831D01*
X-4606791Y-1661463D01*
X-4610734Y-1649328D01*
X-4615869Y-1639721D01*
X-4644179Y-1546396D01*
X-4664933Y-1482521D01*
X-4665664Y-1475569D01*
X-4667070Y-1470933D01*
X-4680768Y-1331866D01*
X-4684600Y-1295400D01*
X-4680768Y-1258936D01*
X-4667070Y-1119866D01*
X-4665664Y-1115229D01*
X-4664933Y-1108279D01*
X-4644184Y-1044417D01*
X-4615869Y-951078D01*
X-4610734Y-941469D01*
X-4606791Y-929337D01*
X-4572522Y-869981D01*
X-4532722Y-795521D01*
X-4521964Y-782411D01*
X-4512715Y-766393D01*
X-4468702Y-717510D01*
X-4420826Y-659174D01*
X-4403010Y-644552D01*
X-4386818Y-626570D01*
X-4336943Y-590333D01*
X-4284479Y-547278D01*
X-4258764Y-533532D01*
X-4234600Y-515977D01*
X-4182630Y-492838D01*
X-4128922Y-464131D01*
X-4095126Y-453878D01*
X-4062715Y-439449D01*
X-4012065Y-428682D01*
X-3960134Y-412930D01*
X-3918802Y-408859D01*
X-3878676Y-400330D01*
X-3832207Y-400330D01*
X-3784600Y-395641D01*
X-3736993Y-400330D01*
G37*
G36*
X-1196993Y-400330D02*
G01*
X-1150524Y-400330D01*
X-1110398Y-408859D01*
X-1069067Y-412930D01*
X-1017140Y-428682D01*
X-966485Y-439449D01*
X-934073Y-453879D01*
X-900279Y-464131D01*
X-846577Y-492835D01*
X-794600Y-515977D01*
X-770435Y-533534D01*
X-744722Y-547278D01*
X-692267Y-590327D01*
X-642382Y-626570D01*
X-626188Y-644555D01*
X-608375Y-659174D01*
X-560511Y-717497D01*
X-516485Y-766393D01*
X-507235Y-782415D01*
X-496479Y-795521D01*
X-456692Y-869957D01*
X-422409Y-929337D01*
X-418466Y-941474D01*
X-413332Y-951078D01*
X-385032Y-1044371D01*
X-364267Y-1108279D01*
X-363536Y-1115234D01*
X-362131Y-1119866D01*
X-348449Y-1258785D01*
X-344600Y-1295400D01*
X-348449Y-1332017D01*
X-362131Y-1470933D01*
X-363536Y-1475564D01*
X-364267Y-1482521D01*
X-385037Y-1546442D01*
X-413332Y-1639721D01*
X-418465Y-1649323D01*
X-422409Y-1661463D01*
X-456699Y-1720854D01*
X-496479Y-1795278D01*
X-507233Y-1808381D01*
X-516485Y-1824407D01*
X-560520Y-1873312D01*
X-608375Y-1931625D01*
X-626185Y-1946240D01*
X-642382Y-1964230D01*
X-692277Y-2000480D01*
X-744722Y-2043521D01*
X-770429Y-2057261D01*
X-794600Y-2074823D01*
X-846588Y-2097969D01*
X-900279Y-2126668D01*
X-934066Y-2136917D01*
X-966485Y-2151351D01*
X-1017151Y-2162120D01*
X-1069067Y-2177869D01*
X-1110390Y-2181938D01*
X-1150524Y-2190470D01*
X-1197003Y-2190470D01*
X-1244600Y-2195158D01*
X-1292197Y-2190470D01*
X-1338676Y-2190470D01*
X-1378811Y-2181939D01*
X-1420134Y-2177869D01*
X-1472054Y-2162119D01*
X-1522715Y-2151351D01*
X-1555133Y-2136917D01*
X-1588922Y-2126668D01*
X-1642619Y-2097966D01*
X-1694600Y-2074823D01*
X-1718769Y-2057263D01*
X-1744479Y-2043521D01*
X-1796933Y-2000474D01*
X-1846818Y-1964230D01*
X-1863013Y-1946243D01*
X-1880826Y-1931625D01*
X-1928692Y-1873299D01*
X-1972715Y-1824407D01*
X-1981966Y-1808385D01*
X-1992722Y-1795278D01*
X-2032515Y-1720831D01*
X-2066791Y-1661463D01*
X-2070734Y-1649328D01*
X-2075869Y-1639721D01*
X-2104179Y-1546396D01*
X-2124933Y-1482521D01*
X-2125664Y-1475569D01*
X-2127070Y-1470933D01*
X-2140768Y-1331866D01*
X-2144600Y-1295400D01*
X-2140768Y-1258936D01*
X-2127070Y-1119866D01*
X-2125664Y-1115229D01*
X-2124933Y-1108279D01*
X-2104184Y-1044417D01*
X-2075869Y-951078D01*
X-2070734Y-941469D01*
X-2066791Y-929337D01*
X-2032522Y-869981D01*
X-1992722Y-795521D01*
X-1981964Y-782411D01*
X-1972715Y-766393D01*
X-1928702Y-717510D01*
X-1880826Y-659174D01*
X-1863010Y-644552D01*
X-1846818Y-626570D01*
X-1796943Y-590333D01*
X-1744479Y-547278D01*
X-1718764Y-533532D01*
X-1694600Y-515977D01*
X-1642630Y-492838D01*
X-1588922Y-464131D01*
X-1555126Y-453878D01*
X-1522715Y-439449D01*
X-1472065Y-428682D01*
X-1420134Y-412930D01*
X-1378802Y-408859D01*
X-1338676Y-400330D01*
X-1292207Y-400330D01*
X-1244600Y-395641D01*
X-1196993Y-400330D01*
G37*
G36*
X1343007Y-400330D02*
G01*
X1389476Y-400330D01*
X1429602Y-408859D01*
X1470933Y-412930D01*
X1522860Y-428682D01*
X1573515Y-439449D01*
X1605927Y-453879D01*
X1639721Y-464131D01*
X1693423Y-492835D01*
X1745400Y-515977D01*
X1769565Y-533534D01*
X1795278Y-547278D01*
X1847733Y-590327D01*
X1897618Y-626570D01*
X1913812Y-644555D01*
X1931625Y-659174D01*
X1979489Y-717497D01*
X2023515Y-766393D01*
X2032765Y-782415D01*
X2043521Y-795521D01*
X2083308Y-869957D01*
X2117591Y-929337D01*
X2121534Y-941474D01*
X2126668Y-951078D01*
X2154968Y-1044371D01*
X2175733Y-1108279D01*
X2176464Y-1115234D01*
X2177869Y-1119866D01*
X2191551Y-1258785D01*
X2195400Y-1295400D01*
X2191551Y-1332017D01*
X2177869Y-1470933D01*
X2176464Y-1475564D01*
X2175733Y-1482521D01*
X2154963Y-1546442D01*
X2126668Y-1639721D01*
X2121535Y-1649323D01*
X2117591Y-1661463D01*
X2083301Y-1720854D01*
X2043521Y-1795278D01*
X2032767Y-1808381D01*
X2023515Y-1824407D01*
X1979480Y-1873312D01*
X1931625Y-1931625D01*
X1913815Y-1946240D01*
X1897618Y-1964230D01*
X1847723Y-2000480D01*
X1795278Y-2043521D01*
X1769571Y-2057261D01*
X1745400Y-2074823D01*
X1693412Y-2097969D01*
X1639721Y-2126668D01*
X1605934Y-2136917D01*
X1573515Y-2151351D01*
X1522849Y-2162120D01*
X1470933Y-2177869D01*
X1429610Y-2181938D01*
X1389476Y-2190470D01*
X1342997Y-2190470D01*
X1295400Y-2195158D01*
X1247803Y-2190470D01*
X1201324Y-2190470D01*
X1161189Y-2181939D01*
X1119866Y-2177869D01*
X1067946Y-2162119D01*
X1017285Y-2151351D01*
X984867Y-2136917D01*
X951078Y-2126668D01*
X897381Y-2097966D01*
X845400Y-2074823D01*
X821231Y-2057263D01*
X795521Y-2043521D01*
X743067Y-2000474D01*
X693182Y-1964230D01*
X676987Y-1946243D01*
X659174Y-1931625D01*
X611308Y-1873299D01*
X567285Y-1824407D01*
X558034Y-1808385D01*
X547278Y-1795278D01*
X507485Y-1720831D01*
X473209Y-1661463D01*
X469266Y-1649328D01*
X464131Y-1639721D01*
X435821Y-1546396D01*
X415067Y-1482521D01*
X414336Y-1475569D01*
X412930Y-1470933D01*
X399232Y-1331866D01*
X395400Y-1295400D01*
X399232Y-1258936D01*
X412930Y-1119866D01*
X414336Y-1115229D01*
X415067Y-1108279D01*
X435816Y-1044417D01*
X464131Y-951078D01*
X469266Y-941469D01*
X473209Y-929337D01*
X507478Y-869981D01*
X547278Y-795521D01*
X558036Y-782411D01*
X567285Y-766393D01*
X611298Y-717510D01*
X659174Y-659174D01*
X676990Y-644552D01*
X693182Y-626570D01*
X743057Y-590333D01*
X795521Y-547278D01*
X821236Y-533532D01*
X845400Y-515977D01*
X897370Y-492838D01*
X951078Y-464131D01*
X984874Y-453878D01*
X1017285Y-439449D01*
X1067935Y-428682D01*
X1119866Y-412930D01*
X1161198Y-408859D01*
X1201324Y-400330D01*
X1247793Y-400330D01*
X1295400Y-395641D01*
X1343007Y-400330D01*
G37*
G36*
X3883007Y-400330D02*
G01*
X3929476Y-400330D01*
X3969602Y-408859D01*
X4010933Y-412930D01*
X4062860Y-428682D01*
X4113515Y-439449D01*
X4145927Y-453879D01*
X4179721Y-464131D01*
X4233423Y-492835D01*
X4285400Y-515977D01*
X4309565Y-533534D01*
X4335278Y-547278D01*
X4387733Y-590327D01*
X4437618Y-626570D01*
X4453812Y-644555D01*
X4471625Y-659174D01*
X4519489Y-717497D01*
X4563515Y-766393D01*
X4572765Y-782415D01*
X4583521Y-795521D01*
X4623308Y-869957D01*
X4657591Y-929337D01*
X4661534Y-941474D01*
X4666668Y-951078D01*
X4694968Y-1044371D01*
X4715733Y-1108279D01*
X4716464Y-1115234D01*
X4717869Y-1119866D01*
X4731551Y-1258785D01*
X4735400Y-1295400D01*
X4731551Y-1332017D01*
X4717869Y-1470933D01*
X4716464Y-1475564D01*
X4715733Y-1482521D01*
X4694963Y-1546442D01*
X4666668Y-1639721D01*
X4661535Y-1649323D01*
X4657591Y-1661463D01*
X4623301Y-1720854D01*
X4583521Y-1795278D01*
X4572767Y-1808381D01*
X4563515Y-1824407D01*
X4519480Y-1873312D01*
X4471625Y-1931625D01*
X4453815Y-1946240D01*
X4437618Y-1964230D01*
X4387723Y-2000480D01*
X4335278Y-2043521D01*
X4309571Y-2057261D01*
X4285400Y-2074823D01*
X4233412Y-2097969D01*
X4179721Y-2126668D01*
X4145934Y-2136917D01*
X4113515Y-2151351D01*
X4062849Y-2162120D01*
X4010933Y-2177869D01*
X3969610Y-2181938D01*
X3929476Y-2190470D01*
X3882997Y-2190470D01*
X3835400Y-2195158D01*
X3787803Y-2190470D01*
X3741324Y-2190470D01*
X3701189Y-2181939D01*
X3659866Y-2177869D01*
X3607946Y-2162119D01*
X3557285Y-2151351D01*
X3524867Y-2136917D01*
X3491078Y-2126668D01*
X3437381Y-2097966D01*
X3385400Y-2074823D01*
X3361231Y-2057263D01*
X3335521Y-2043521D01*
X3283067Y-2000474D01*
X3233182Y-1964230D01*
X3216987Y-1946243D01*
X3199174Y-1931625D01*
X3151308Y-1873299D01*
X3107285Y-1824407D01*
X3098034Y-1808385D01*
X3087278Y-1795278D01*
X3047485Y-1720831D01*
X3013209Y-1661463D01*
X3009266Y-1649328D01*
X3004131Y-1639721D01*
X2975821Y-1546396D01*
X2955067Y-1482521D01*
X2954336Y-1475569D01*
X2952930Y-1470933D01*
X2939232Y-1331866D01*
X2935400Y-1295400D01*
X2939232Y-1258936D01*
X2952930Y-1119866D01*
X2954336Y-1115229D01*
X2955067Y-1108279D01*
X2975816Y-1044417D01*
X3004131Y-951078D01*
X3009266Y-941469D01*
X3013209Y-929337D01*
X3047478Y-869981D01*
X3087278Y-795521D01*
X3098036Y-782411D01*
X3107285Y-766393D01*
X3151298Y-717510D01*
X3199174Y-659174D01*
X3216990Y-644552D01*
X3233182Y-626570D01*
X3283057Y-590333D01*
X3335521Y-547278D01*
X3361236Y-533532D01*
X3385400Y-515977D01*
X3437370Y-492838D01*
X3491078Y-464131D01*
X3524874Y-453878D01*
X3557285Y-439449D01*
X3607935Y-428682D01*
X3659866Y-412930D01*
X3701198Y-408859D01*
X3741324Y-400330D01*
X3787793Y-400330D01*
X3835400Y-395641D01*
X3883007Y-400330D01*
G37*
G36*
X6423007Y-400330D02*
G01*
X6469476Y-400330D01*
X6509602Y-408859D01*
X6550933Y-412930D01*
X6602860Y-428682D01*
X6653515Y-439449D01*
X6685927Y-453879D01*
X6719721Y-464131D01*
X6773423Y-492835D01*
X6825400Y-515977D01*
X6849565Y-533534D01*
X6875278Y-547278D01*
X6927733Y-590327D01*
X6977618Y-626570D01*
X6993812Y-644555D01*
X7011625Y-659174D01*
X7059489Y-717497D01*
X7103515Y-766393D01*
X7112765Y-782415D01*
X7123521Y-795521D01*
X7163308Y-869957D01*
X7197591Y-929337D01*
X7201534Y-941474D01*
X7206668Y-951078D01*
X7234968Y-1044371D01*
X7255733Y-1108279D01*
X7256464Y-1115234D01*
X7257869Y-1119866D01*
X7271551Y-1258785D01*
X7275400Y-1295400D01*
X7271551Y-1332017D01*
X7257869Y-1470933D01*
X7256464Y-1475564D01*
X7255733Y-1482521D01*
X7234963Y-1546442D01*
X7206668Y-1639721D01*
X7201535Y-1649323D01*
X7197591Y-1661463D01*
X7163301Y-1720854D01*
X7123521Y-1795278D01*
X7112767Y-1808381D01*
X7103515Y-1824407D01*
X7059480Y-1873312D01*
X7011625Y-1931625D01*
X6993815Y-1946240D01*
X6977618Y-1964230D01*
X6927723Y-2000480D01*
X6875278Y-2043521D01*
X6849571Y-2057261D01*
X6825400Y-2074823D01*
X6773412Y-2097969D01*
X6719721Y-2126668D01*
X6685934Y-2136917D01*
X6653515Y-2151351D01*
X6602849Y-2162120D01*
X6550933Y-2177869D01*
X6509610Y-2181938D01*
X6469476Y-2190470D01*
X6422997Y-2190470D01*
X6375400Y-2195158D01*
X6327803Y-2190470D01*
X6281324Y-2190470D01*
X6241189Y-2181939D01*
X6199866Y-2177869D01*
X6147946Y-2162119D01*
X6097285Y-2151351D01*
X6064867Y-2136917D01*
X6031078Y-2126668D01*
X5977381Y-2097966D01*
X5925400Y-2074823D01*
X5901231Y-2057263D01*
X5875521Y-2043521D01*
X5823067Y-2000474D01*
X5773182Y-1964230D01*
X5756987Y-1946243D01*
X5739174Y-1931625D01*
X5691308Y-1873299D01*
X5647285Y-1824407D01*
X5638034Y-1808385D01*
X5627278Y-1795278D01*
X5587485Y-1720831D01*
X5553209Y-1661463D01*
X5549266Y-1649328D01*
X5544131Y-1639721D01*
X5515821Y-1546396D01*
X5495067Y-1482521D01*
X5494336Y-1475569D01*
X5492930Y-1470933D01*
X5479232Y-1331866D01*
X5475400Y-1295400D01*
X5479232Y-1258936D01*
X5492930Y-1119866D01*
X5494336Y-1115229D01*
X5495067Y-1108279D01*
X5515816Y-1044417D01*
X5544131Y-951078D01*
X5549266Y-941469D01*
X5553209Y-929337D01*
X5587478Y-869981D01*
X5627278Y-795521D01*
X5638036Y-782411D01*
X5647285Y-766393D01*
X5691298Y-717510D01*
X5739174Y-659174D01*
X5756990Y-644552D01*
X5773182Y-626570D01*
X5823057Y-590333D01*
X5875521Y-547278D01*
X5901236Y-533532D01*
X5925400Y-515977D01*
X5977370Y-492838D01*
X6031078Y-464131D01*
X6064874Y-453878D01*
X6097285Y-439449D01*
X6147935Y-428682D01*
X6199866Y-412930D01*
X6241198Y-408859D01*
X6281324Y-400330D01*
X6327793Y-400330D01*
X6375400Y-395641D01*
X6423007Y-400330D01*
G37*
G36*
X8963007Y-400330D02*
G01*
X9009476Y-400330D01*
X9049602Y-408859D01*
X9090933Y-412930D01*
X9142860Y-428682D01*
X9193515Y-439449D01*
X9225927Y-453879D01*
X9259721Y-464131D01*
X9313423Y-492835D01*
X9365400Y-515977D01*
X9389565Y-533534D01*
X9415278Y-547278D01*
X9467733Y-590327D01*
X9517618Y-626570D01*
X9533812Y-644555D01*
X9551625Y-659174D01*
X9599489Y-717497D01*
X9643515Y-766393D01*
X9652765Y-782415D01*
X9663521Y-795521D01*
X9703308Y-869957D01*
X9737591Y-929337D01*
X9741534Y-941474D01*
X9746668Y-951078D01*
X9774968Y-1044371D01*
X9795733Y-1108279D01*
X9796464Y-1115234D01*
X9797869Y-1119866D01*
X9811551Y-1258785D01*
X9815400Y-1295400D01*
X9811551Y-1332017D01*
X9797869Y-1470933D01*
X9796464Y-1475564D01*
X9795733Y-1482521D01*
X9774963Y-1546442D01*
X9746668Y-1639721D01*
X9741535Y-1649323D01*
X9737591Y-1661463D01*
X9703301Y-1720854D01*
X9663521Y-1795278D01*
X9652767Y-1808381D01*
X9643515Y-1824407D01*
X9599480Y-1873312D01*
X9551625Y-1931625D01*
X9533815Y-1946240D01*
X9517618Y-1964230D01*
X9467723Y-2000480D01*
X9415278Y-2043521D01*
X9389571Y-2057261D01*
X9365400Y-2074823D01*
X9313412Y-2097969D01*
X9259721Y-2126668D01*
X9225934Y-2136917D01*
X9193515Y-2151351D01*
X9142849Y-2162120D01*
X9090933Y-2177869D01*
X9049610Y-2181938D01*
X9009476Y-2190470D01*
X8962997Y-2190470D01*
X8915400Y-2195158D01*
X8867803Y-2190470D01*
X8821324Y-2190470D01*
X8781189Y-2181939D01*
X8739866Y-2177869D01*
X8687946Y-2162119D01*
X8637285Y-2151351D01*
X8604867Y-2136917D01*
X8571078Y-2126668D01*
X8517381Y-2097966D01*
X8465400Y-2074823D01*
X8441231Y-2057263D01*
X8415521Y-2043521D01*
X8363067Y-2000474D01*
X8313182Y-1964230D01*
X8296987Y-1946243D01*
X8279174Y-1931625D01*
X8231308Y-1873299D01*
X8187285Y-1824407D01*
X8178034Y-1808385D01*
X8167278Y-1795278D01*
X8127485Y-1720831D01*
X8093209Y-1661463D01*
X8089266Y-1649328D01*
X8084131Y-1639721D01*
X8055821Y-1546396D01*
X8035067Y-1482521D01*
X8034336Y-1475569D01*
X8032930Y-1470933D01*
X8019232Y-1331866D01*
X8015400Y-1295400D01*
X8019232Y-1258936D01*
X8032930Y-1119866D01*
X8034336Y-1115229D01*
X8035067Y-1108279D01*
X8055816Y-1044417D01*
X8084131Y-951078D01*
X8089266Y-941469D01*
X8093209Y-929337D01*
X8127478Y-869981D01*
X8167278Y-795521D01*
X8178036Y-782411D01*
X8187285Y-766393D01*
X8231298Y-717510D01*
X8279174Y-659174D01*
X8296990Y-644552D01*
X8313182Y-626570D01*
X8363057Y-590333D01*
X8415521Y-547278D01*
X8441236Y-533532D01*
X8465400Y-515977D01*
X8517370Y-492838D01*
X8571078Y-464131D01*
X8604874Y-453878D01*
X8637285Y-439449D01*
X8687935Y-428682D01*
X8739866Y-412930D01*
X8781198Y-408859D01*
X8821324Y-400330D01*
X8867793Y-400330D01*
X8915400Y-395641D01*
X8963007Y-400330D01*
G37*
G36*
X11503007Y-400330D02*
G01*
X11549476Y-400330D01*
X11589602Y-408859D01*
X11630933Y-412930D01*
X11682860Y-428682D01*
X11733515Y-439449D01*
X11765927Y-453879D01*
X11799721Y-464131D01*
X11853423Y-492835D01*
X11905400Y-515977D01*
X11929565Y-533534D01*
X11955278Y-547278D01*
X12007733Y-590327D01*
X12057618Y-626570D01*
X12073812Y-644555D01*
X12091625Y-659174D01*
X12139489Y-717497D01*
X12183515Y-766393D01*
X12192765Y-782415D01*
X12203521Y-795521D01*
X12243308Y-869957D01*
X12277591Y-929337D01*
X12281534Y-941474D01*
X12286668Y-951078D01*
X12314968Y-1044371D01*
X12335733Y-1108279D01*
X12336464Y-1115234D01*
X12337869Y-1119866D01*
X12351551Y-1258785D01*
X12355400Y-1295400D01*
X12351551Y-1332017D01*
X12337869Y-1470933D01*
X12336464Y-1475564D01*
X12335733Y-1482521D01*
X12314963Y-1546442D01*
X12286668Y-1639721D01*
X12281535Y-1649323D01*
X12277591Y-1661463D01*
X12243301Y-1720854D01*
X12203521Y-1795278D01*
X12192767Y-1808381D01*
X12183515Y-1824407D01*
X12139480Y-1873312D01*
X12091625Y-1931625D01*
X12073815Y-1946240D01*
X12057618Y-1964230D01*
X12007723Y-2000480D01*
X11955278Y-2043521D01*
X11929571Y-2057261D01*
X11905400Y-2074823D01*
X11853412Y-2097969D01*
X11799721Y-2126668D01*
X11765934Y-2136917D01*
X11733515Y-2151351D01*
X11682849Y-2162120D01*
X11630933Y-2177869D01*
X11589610Y-2181938D01*
X11549476Y-2190470D01*
X11502997Y-2190470D01*
X11455400Y-2195158D01*
X11407803Y-2190470D01*
X11361324Y-2190470D01*
X11321189Y-2181939D01*
X11279866Y-2177869D01*
X11227946Y-2162119D01*
X11177285Y-2151351D01*
X11144867Y-2136917D01*
X11111078Y-2126668D01*
X11057381Y-2097966D01*
X11005400Y-2074823D01*
X10981231Y-2057263D01*
X10955521Y-2043521D01*
X10903067Y-2000474D01*
X10853182Y-1964230D01*
X10836987Y-1946243D01*
X10819174Y-1931625D01*
X10771308Y-1873299D01*
X10727285Y-1824407D01*
X10718034Y-1808385D01*
X10707278Y-1795278D01*
X10667485Y-1720831D01*
X10633209Y-1661463D01*
X10629266Y-1649328D01*
X10624131Y-1639721D01*
X10595821Y-1546396D01*
X10575067Y-1482521D01*
X10574336Y-1475569D01*
X10572930Y-1470933D01*
X10559232Y-1331866D01*
X10555400Y-1295400D01*
X10559232Y-1258936D01*
X10572930Y-1119866D01*
X10574336Y-1115229D01*
X10575067Y-1108279D01*
X10595816Y-1044417D01*
X10624131Y-951078D01*
X10629266Y-941469D01*
X10633209Y-929337D01*
X10667478Y-869981D01*
X10707278Y-795521D01*
X10718036Y-782411D01*
X10727285Y-766393D01*
X10771298Y-717510D01*
X10819174Y-659174D01*
X10836990Y-644552D01*
X10853182Y-626570D01*
X10903057Y-590333D01*
X10955521Y-547278D01*
X10981236Y-533532D01*
X11005400Y-515977D01*
X11057370Y-492838D01*
X11111078Y-464131D01*
X11144874Y-453878D01*
X11177285Y-439449D01*
X11227935Y-428682D01*
X11279866Y-412930D01*
X11321198Y-408859D01*
X11361324Y-400330D01*
X11407793Y-400330D01*
X11455400Y-395641D01*
X11503007Y-400330D01*
G37*
G36*
X-11356993Y2139670D02*
G01*
X-11310524Y2139670D01*
X-11270398Y2131141D01*
X-11229067Y2127070D01*
X-11177140Y2111318D01*
X-11126485Y2100551D01*
X-11094073Y2086121D01*
X-11060279Y2075869D01*
X-11006577Y2047165D01*
X-10954600Y2024023D01*
X-10930435Y2006466D01*
X-10904722Y1992722D01*
X-10852267Y1949673D01*
X-10802382Y1913430D01*
X-10786188Y1895445D01*
X-10768375Y1880826D01*
X-10720511Y1822503D01*
X-10676485Y1773607D01*
X-10667235Y1757585D01*
X-10656479Y1744479D01*
X-10616692Y1670043D01*
X-10582409Y1610663D01*
X-10578466Y1598526D01*
X-10573332Y1588922D01*
X-10545032Y1495629D01*
X-10524267Y1431721D01*
X-10523536Y1424766D01*
X-10522131Y1420134D01*
X-10508449Y1281215D01*
X-10504600Y1244600D01*
X-10508449Y1207983D01*
X-10522131Y1069067D01*
X-10523536Y1064436D01*
X-10524267Y1057479D01*
X-10545037Y993558D01*
X-10573332Y900279D01*
X-10578465Y890677D01*
X-10582409Y878537D01*
X-10616699Y819146D01*
X-10656479Y744722D01*
X-10667233Y731619D01*
X-10676485Y715593D01*
X-10720520Y666688D01*
X-10768375Y608375D01*
X-10786185Y593760D01*
X-10802382Y575770D01*
X-10852277Y539520D01*
X-10904722Y496479D01*
X-10930429Y482739D01*
X-10954600Y465177D01*
X-11006588Y442031D01*
X-11060279Y413332D01*
X-11094066Y403083D01*
X-11126485Y388649D01*
X-11177151Y377880D01*
X-11229067Y362131D01*
X-11270390Y358062D01*
X-11310524Y349530D01*
X-11357003Y349530D01*
X-11404600Y344842D01*
X-11452197Y349530D01*
X-11498676Y349530D01*
X-11538811Y358061D01*
X-11580134Y362131D01*
X-11632054Y377881D01*
X-11682715Y388649D01*
X-11715133Y403083D01*
X-11748922Y413332D01*
X-11802619Y442034D01*
X-11854600Y465177D01*
X-11878769Y482737D01*
X-11904479Y496479D01*
X-11956933Y539526D01*
X-12006818Y575770D01*
X-12023013Y593757D01*
X-12040826Y608375D01*
X-12088692Y666701D01*
X-12132715Y715593D01*
X-12141966Y731615D01*
X-12152722Y744722D01*
X-12192515Y819169D01*
X-12226791Y878537D01*
X-12230734Y890672D01*
X-12235869Y900279D01*
X-12264179Y993604D01*
X-12284933Y1057479D01*
X-12285664Y1064431D01*
X-12287070Y1069067D01*
X-12300768Y1208134D01*
X-12304600Y1244600D01*
X-12300768Y1281064D01*
X-12287070Y1420134D01*
X-12285664Y1424771D01*
X-12284933Y1431721D01*
X-12264184Y1495583D01*
X-12235869Y1588922D01*
X-12230734Y1598531D01*
X-12226791Y1610663D01*
X-12192522Y1670019D01*
X-12152722Y1744479D01*
X-12141964Y1757589D01*
X-12132715Y1773607D01*
X-12088702Y1822490D01*
X-12040826Y1880826D01*
X-12023010Y1895448D01*
X-12006818Y1913430D01*
X-11956943Y1949667D01*
X-11904479Y1992722D01*
X-11878764Y2006468D01*
X-11854600Y2024023D01*
X-11802630Y2047162D01*
X-11748922Y2075869D01*
X-11715126Y2086122D01*
X-11682715Y2100551D01*
X-11632065Y2111318D01*
X-11580134Y2127070D01*
X-11538802Y2131141D01*
X-11498676Y2139670D01*
X-11452207Y2139670D01*
X-11404600Y2144359D01*
X-11356993Y2139670D01*
G37*
G36*
X-8816993Y2139670D02*
G01*
X-8770524Y2139670D01*
X-8730398Y2131141D01*
X-8689067Y2127070D01*
X-8637140Y2111318D01*
X-8586485Y2100551D01*
X-8554073Y2086121D01*
X-8520279Y2075869D01*
X-8466577Y2047165D01*
X-8414600Y2024023D01*
X-8390435Y2006466D01*
X-8364722Y1992722D01*
X-8312267Y1949673D01*
X-8262382Y1913430D01*
X-8246188Y1895445D01*
X-8228375Y1880826D01*
X-8180511Y1822503D01*
X-8136485Y1773607D01*
X-8127235Y1757585D01*
X-8116479Y1744479D01*
X-8076692Y1670043D01*
X-8042409Y1610663D01*
X-8038466Y1598526D01*
X-8033332Y1588922D01*
X-8005032Y1495629D01*
X-7984267Y1431721D01*
X-7983536Y1424766D01*
X-7982131Y1420134D01*
X-7968449Y1281215D01*
X-7964600Y1244600D01*
X-7968449Y1207983D01*
X-7982131Y1069067D01*
X-7983536Y1064436D01*
X-7984267Y1057479D01*
X-8005037Y993558D01*
X-8033332Y900279D01*
X-8038465Y890677D01*
X-8042409Y878537D01*
X-8076699Y819146D01*
X-8116479Y744722D01*
X-8127233Y731619D01*
X-8136485Y715593D01*
X-8180520Y666688D01*
X-8228375Y608375D01*
X-8246185Y593760D01*
X-8262382Y575770D01*
X-8312277Y539520D01*
X-8364722Y496479D01*
X-8390429Y482739D01*
X-8414600Y465177D01*
X-8466588Y442031D01*
X-8520279Y413332D01*
X-8554066Y403083D01*
X-8586485Y388649D01*
X-8637151Y377880D01*
X-8689067Y362131D01*
X-8730390Y358062D01*
X-8770524Y349530D01*
X-8817003Y349530D01*
X-8864600Y344842D01*
X-8912197Y349530D01*
X-8958676Y349530D01*
X-8998811Y358061D01*
X-9040134Y362131D01*
X-9092054Y377881D01*
X-9142715Y388649D01*
X-9175133Y403083D01*
X-9208922Y413332D01*
X-9262619Y442034D01*
X-9314600Y465177D01*
X-9338769Y482737D01*
X-9364479Y496479D01*
X-9416933Y539526D01*
X-9466818Y575770D01*
X-9483013Y593757D01*
X-9500826Y608375D01*
X-9548692Y666701D01*
X-9592715Y715593D01*
X-9601966Y731615D01*
X-9612722Y744722D01*
X-9652515Y819169D01*
X-9686791Y878537D01*
X-9690734Y890672D01*
X-9695869Y900279D01*
X-9724179Y993604D01*
X-9744933Y1057479D01*
X-9745664Y1064431D01*
X-9747070Y1069067D01*
X-9760768Y1208134D01*
X-9764600Y1244600D01*
X-9760768Y1281064D01*
X-9747070Y1420134D01*
X-9745664Y1424771D01*
X-9744933Y1431721D01*
X-9724184Y1495583D01*
X-9695869Y1588922D01*
X-9690734Y1598531D01*
X-9686791Y1610663D01*
X-9652522Y1670019D01*
X-9612722Y1744479D01*
X-9601964Y1757589D01*
X-9592715Y1773607D01*
X-9548702Y1822490D01*
X-9500826Y1880826D01*
X-9483010Y1895448D01*
X-9466818Y1913430D01*
X-9416943Y1949667D01*
X-9364479Y1992722D01*
X-9338764Y2006468D01*
X-9314600Y2024023D01*
X-9262630Y2047162D01*
X-9208922Y2075869D01*
X-9175126Y2086122D01*
X-9142715Y2100551D01*
X-9092065Y2111318D01*
X-9040134Y2127070D01*
X-8998802Y2131141D01*
X-8958676Y2139670D01*
X-8912207Y2139670D01*
X-8864600Y2144359D01*
X-8816993Y2139670D01*
G37*
G36*
X-6276993Y2139670D02*
G01*
X-6230524Y2139670D01*
X-6190398Y2131141D01*
X-6149067Y2127070D01*
X-6097140Y2111318D01*
X-6046485Y2100551D01*
X-6014073Y2086121D01*
X-5980279Y2075869D01*
X-5926577Y2047165D01*
X-5874600Y2024023D01*
X-5850435Y2006466D01*
X-5824722Y1992722D01*
X-5772267Y1949673D01*
X-5722382Y1913430D01*
X-5706188Y1895445D01*
X-5688375Y1880826D01*
X-5640511Y1822503D01*
X-5596485Y1773607D01*
X-5587235Y1757585D01*
X-5576479Y1744479D01*
X-5536692Y1670043D01*
X-5502409Y1610663D01*
X-5498466Y1598526D01*
X-5493332Y1588922D01*
X-5465032Y1495629D01*
X-5444267Y1431721D01*
X-5443536Y1424766D01*
X-5442131Y1420134D01*
X-5428449Y1281215D01*
X-5424600Y1244600D01*
X-5428449Y1207983D01*
X-5442131Y1069067D01*
X-5443536Y1064436D01*
X-5444267Y1057479D01*
X-5465037Y993558D01*
X-5493332Y900279D01*
X-5498465Y890677D01*
X-5502409Y878537D01*
X-5536699Y819146D01*
X-5576479Y744722D01*
X-5587233Y731619D01*
X-5596485Y715593D01*
X-5640520Y666688D01*
X-5688375Y608375D01*
X-5706185Y593760D01*
X-5722382Y575770D01*
X-5772277Y539520D01*
X-5824722Y496479D01*
X-5850429Y482739D01*
X-5874600Y465177D01*
X-5926588Y442031D01*
X-5980279Y413332D01*
X-6014066Y403083D01*
X-6046485Y388649D01*
X-6097151Y377880D01*
X-6149067Y362131D01*
X-6190390Y358062D01*
X-6230524Y349530D01*
X-6277003Y349530D01*
X-6324600Y344842D01*
X-6372197Y349530D01*
X-6418676Y349530D01*
X-6458811Y358061D01*
X-6500134Y362131D01*
X-6552054Y377881D01*
X-6602715Y388649D01*
X-6635133Y403083D01*
X-6668922Y413332D01*
X-6722619Y442034D01*
X-6774600Y465177D01*
X-6798769Y482737D01*
X-6824479Y496479D01*
X-6876933Y539526D01*
X-6926818Y575770D01*
X-6943013Y593757D01*
X-6960826Y608375D01*
X-7008692Y666701D01*
X-7052715Y715593D01*
X-7061966Y731615D01*
X-7072722Y744722D01*
X-7112515Y819169D01*
X-7146791Y878537D01*
X-7150734Y890672D01*
X-7155869Y900279D01*
X-7184179Y993604D01*
X-7204933Y1057479D01*
X-7205664Y1064431D01*
X-7207070Y1069067D01*
X-7220768Y1208134D01*
X-7224600Y1244600D01*
X-7220768Y1281064D01*
X-7207070Y1420134D01*
X-7205664Y1424771D01*
X-7204933Y1431721D01*
X-7184184Y1495583D01*
X-7155869Y1588922D01*
X-7150734Y1598531D01*
X-7146791Y1610663D01*
X-7112522Y1670019D01*
X-7072722Y1744479D01*
X-7061964Y1757589D01*
X-7052715Y1773607D01*
X-7008702Y1822490D01*
X-6960826Y1880826D01*
X-6943010Y1895448D01*
X-6926818Y1913430D01*
X-6876943Y1949667D01*
X-6824479Y1992722D01*
X-6798764Y2006468D01*
X-6774600Y2024023D01*
X-6722630Y2047162D01*
X-6668922Y2075869D01*
X-6635126Y2086122D01*
X-6602715Y2100551D01*
X-6552065Y2111318D01*
X-6500134Y2127070D01*
X-6458802Y2131141D01*
X-6418676Y2139670D01*
X-6372207Y2139670D01*
X-6324600Y2144359D01*
X-6276993Y2139670D01*
G37*
G36*
X-3736993Y2139670D02*
G01*
X-3690524Y2139670D01*
X-3650398Y2131141D01*
X-3609067Y2127070D01*
X-3557140Y2111318D01*
X-3506485Y2100551D01*
X-3474073Y2086121D01*
X-3440279Y2075869D01*
X-3386577Y2047165D01*
X-3334600Y2024023D01*
X-3310435Y2006466D01*
X-3284722Y1992722D01*
X-3232267Y1949673D01*
X-3182382Y1913430D01*
X-3166188Y1895445D01*
X-3148375Y1880826D01*
X-3100511Y1822503D01*
X-3056485Y1773607D01*
X-3047235Y1757585D01*
X-3036479Y1744479D01*
X-2996692Y1670043D01*
X-2962409Y1610663D01*
X-2958466Y1598526D01*
X-2953332Y1588922D01*
X-2925032Y1495629D01*
X-2904267Y1431721D01*
X-2903536Y1424766D01*
X-2902131Y1420134D01*
X-2888449Y1281215D01*
X-2884600Y1244600D01*
X-2888449Y1207983D01*
X-2902131Y1069067D01*
X-2903536Y1064436D01*
X-2904267Y1057479D01*
X-2925037Y993558D01*
X-2953332Y900279D01*
X-2958465Y890677D01*
X-2962409Y878537D01*
X-2996699Y819146D01*
X-3036479Y744722D01*
X-3047233Y731619D01*
X-3056485Y715593D01*
X-3100520Y666688D01*
X-3148375Y608375D01*
X-3166185Y593760D01*
X-3182382Y575770D01*
X-3232277Y539520D01*
X-3284722Y496479D01*
X-3310429Y482739D01*
X-3334600Y465177D01*
X-3386588Y442031D01*
X-3440279Y413332D01*
X-3474066Y403083D01*
X-3506485Y388649D01*
X-3557151Y377880D01*
X-3609067Y362131D01*
X-3650390Y358062D01*
X-3690524Y349530D01*
X-3737003Y349530D01*
X-3784600Y344842D01*
X-3832197Y349530D01*
X-3878676Y349530D01*
X-3918811Y358061D01*
X-3960134Y362131D01*
X-4012054Y377881D01*
X-4062715Y388649D01*
X-4095133Y403083D01*
X-4128922Y413332D01*
X-4182619Y442034D01*
X-4234600Y465177D01*
X-4258769Y482737D01*
X-4284479Y496479D01*
X-4336933Y539526D01*
X-4386818Y575770D01*
X-4403013Y593757D01*
X-4420826Y608375D01*
X-4468692Y666701D01*
X-4512715Y715593D01*
X-4521966Y731615D01*
X-4532722Y744722D01*
X-4572515Y819169D01*
X-4606791Y878537D01*
X-4610734Y890672D01*
X-4615869Y900279D01*
X-4644179Y993604D01*
X-4664933Y1057479D01*
X-4665664Y1064431D01*
X-4667070Y1069067D01*
X-4680768Y1208134D01*
X-4684600Y1244600D01*
X-4680768Y1281064D01*
X-4667070Y1420134D01*
X-4665664Y1424771D01*
X-4664933Y1431721D01*
X-4644184Y1495583D01*
X-4615869Y1588922D01*
X-4610734Y1598531D01*
X-4606791Y1610663D01*
X-4572522Y1670019D01*
X-4532722Y1744479D01*
X-4521964Y1757589D01*
X-4512715Y1773607D01*
X-4468702Y1822490D01*
X-4420826Y1880826D01*
X-4403010Y1895448D01*
X-4386818Y1913430D01*
X-4336943Y1949667D01*
X-4284479Y1992722D01*
X-4258764Y2006468D01*
X-4234600Y2024023D01*
X-4182630Y2047162D01*
X-4128922Y2075869D01*
X-4095126Y2086122D01*
X-4062715Y2100551D01*
X-4012065Y2111318D01*
X-3960134Y2127070D01*
X-3918802Y2131141D01*
X-3878676Y2139670D01*
X-3832207Y2139670D01*
X-3784600Y2144359D01*
X-3736993Y2139670D01*
G37*
G36*
X-1196993Y2139670D02*
G01*
X-1150524Y2139670D01*
X-1110398Y2131141D01*
X-1069067Y2127070D01*
X-1017140Y2111318D01*
X-966485Y2100551D01*
X-934073Y2086121D01*
X-900279Y2075869D01*
X-846577Y2047165D01*
X-794600Y2024023D01*
X-770435Y2006466D01*
X-744722Y1992722D01*
X-692267Y1949673D01*
X-642382Y1913430D01*
X-626188Y1895445D01*
X-608375Y1880826D01*
X-560511Y1822503D01*
X-516485Y1773607D01*
X-507235Y1757585D01*
X-496479Y1744479D01*
X-456692Y1670043D01*
X-422409Y1610663D01*
X-418466Y1598526D01*
X-413332Y1588922D01*
X-385032Y1495629D01*
X-364267Y1431721D01*
X-363536Y1424766D01*
X-362131Y1420134D01*
X-348449Y1281215D01*
X-344600Y1244600D01*
X-348449Y1207983D01*
X-362131Y1069067D01*
X-363536Y1064436D01*
X-364267Y1057479D01*
X-385037Y993558D01*
X-413332Y900279D01*
X-418465Y890677D01*
X-422409Y878537D01*
X-456699Y819146D01*
X-496479Y744722D01*
X-507233Y731619D01*
X-516485Y715593D01*
X-560520Y666688D01*
X-608375Y608375D01*
X-626185Y593760D01*
X-642382Y575770D01*
X-692277Y539520D01*
X-744722Y496479D01*
X-770429Y482739D01*
X-794600Y465177D01*
X-846588Y442031D01*
X-900279Y413332D01*
X-934066Y403083D01*
X-966485Y388649D01*
X-1017151Y377880D01*
X-1069067Y362131D01*
X-1110390Y358062D01*
X-1150524Y349530D01*
X-1197003Y349530D01*
X-1244600Y344842D01*
X-1292197Y349530D01*
X-1338676Y349530D01*
X-1378811Y358061D01*
X-1420134Y362131D01*
X-1472054Y377881D01*
X-1522715Y388649D01*
X-1555133Y403083D01*
X-1588922Y413332D01*
X-1642619Y442034D01*
X-1694600Y465177D01*
X-1718769Y482737D01*
X-1744479Y496479D01*
X-1796933Y539526D01*
X-1846818Y575770D01*
X-1863013Y593757D01*
X-1880826Y608375D01*
X-1928692Y666701D01*
X-1972715Y715593D01*
X-1981966Y731615D01*
X-1992722Y744722D01*
X-2032515Y819169D01*
X-2066791Y878537D01*
X-2070734Y890672D01*
X-2075869Y900279D01*
X-2104179Y993604D01*
X-2124933Y1057479D01*
X-2125664Y1064431D01*
X-2127070Y1069067D01*
X-2140768Y1208134D01*
X-2144600Y1244600D01*
X-2140768Y1281064D01*
X-2127070Y1420134D01*
X-2125664Y1424771D01*
X-2124933Y1431721D01*
X-2104184Y1495583D01*
X-2075869Y1588922D01*
X-2070734Y1598531D01*
X-2066791Y1610663D01*
X-2032522Y1670019D01*
X-1992722Y1744479D01*
X-1981964Y1757589D01*
X-1972715Y1773607D01*
X-1928702Y1822490D01*
X-1880826Y1880826D01*
X-1863010Y1895448D01*
X-1846818Y1913430D01*
X-1796943Y1949667D01*
X-1744479Y1992722D01*
X-1718764Y2006468D01*
X-1694600Y2024023D01*
X-1642630Y2047162D01*
X-1588922Y2075869D01*
X-1555126Y2086122D01*
X-1522715Y2100551D01*
X-1472065Y2111318D01*
X-1420134Y2127070D01*
X-1378802Y2131141D01*
X-1338676Y2139670D01*
X-1292207Y2139670D01*
X-1244600Y2144359D01*
X-1196993Y2139670D01*
G37*
G36*
X1343007Y2139670D02*
G01*
X1389476Y2139670D01*
X1429602Y2131141D01*
X1470933Y2127070D01*
X1522860Y2111318D01*
X1573515Y2100551D01*
X1605927Y2086121D01*
X1639721Y2075869D01*
X1693423Y2047165D01*
X1745400Y2024023D01*
X1769565Y2006466D01*
X1795278Y1992722D01*
X1847733Y1949673D01*
X1897618Y1913430D01*
X1913812Y1895445D01*
X1931625Y1880826D01*
X1979489Y1822503D01*
X2023515Y1773607D01*
X2032765Y1757585D01*
X2043521Y1744479D01*
X2083308Y1670043D01*
X2117591Y1610663D01*
X2121534Y1598526D01*
X2126668Y1588922D01*
X2154968Y1495629D01*
X2175733Y1431721D01*
X2176464Y1424766D01*
X2177869Y1420134D01*
X2191551Y1281215D01*
X2195400Y1244600D01*
X2191551Y1207983D01*
X2177869Y1069067D01*
X2176464Y1064436D01*
X2175733Y1057479D01*
X2154963Y993558D01*
X2126668Y900279D01*
X2121535Y890677D01*
X2117591Y878537D01*
X2083301Y819146D01*
X2043521Y744722D01*
X2032767Y731619D01*
X2023515Y715593D01*
X1979480Y666688D01*
X1931625Y608375D01*
X1913815Y593760D01*
X1897618Y575770D01*
X1847723Y539520D01*
X1795278Y496479D01*
X1769571Y482739D01*
X1745400Y465177D01*
X1693412Y442031D01*
X1639721Y413332D01*
X1605934Y403083D01*
X1573515Y388649D01*
X1522849Y377880D01*
X1470933Y362131D01*
X1429610Y358062D01*
X1389476Y349530D01*
X1342997Y349530D01*
X1295400Y344842D01*
X1247803Y349530D01*
X1201324Y349530D01*
X1161189Y358061D01*
X1119866Y362131D01*
X1067946Y377881D01*
X1017285Y388649D01*
X984867Y403083D01*
X951078Y413332D01*
X897381Y442034D01*
X845400Y465177D01*
X821231Y482737D01*
X795521Y496479D01*
X743067Y539526D01*
X693182Y575770D01*
X676987Y593757D01*
X659174Y608375D01*
X611308Y666701D01*
X567285Y715593D01*
X558034Y731615D01*
X547278Y744722D01*
X507485Y819169D01*
X473209Y878537D01*
X469266Y890672D01*
X464131Y900279D01*
X435821Y993604D01*
X415067Y1057479D01*
X414336Y1064431D01*
X412930Y1069067D01*
X399232Y1208134D01*
X395400Y1244600D01*
X399232Y1281064D01*
X412930Y1420134D01*
X414336Y1424771D01*
X415067Y1431721D01*
X435816Y1495583D01*
X464131Y1588922D01*
X469266Y1598531D01*
X473209Y1610663D01*
X507478Y1670019D01*
X547278Y1744479D01*
X558036Y1757589D01*
X567285Y1773607D01*
X611298Y1822490D01*
X659174Y1880826D01*
X676990Y1895448D01*
X693182Y1913430D01*
X743057Y1949667D01*
X795521Y1992722D01*
X821236Y2006468D01*
X845400Y2024023D01*
X897370Y2047162D01*
X951078Y2075869D01*
X984874Y2086122D01*
X1017285Y2100551D01*
X1067935Y2111318D01*
X1119866Y2127070D01*
X1161198Y2131141D01*
X1201324Y2139670D01*
X1247793Y2139670D01*
X1295400Y2144359D01*
X1343007Y2139670D01*
G37*
G36*
X3883007Y2139670D02*
G01*
X3929476Y2139670D01*
X3969602Y2131141D01*
X4010933Y2127070D01*
X4062860Y2111318D01*
X4113515Y2100551D01*
X4145927Y2086121D01*
X4179721Y2075869D01*
X4233423Y2047165D01*
X4285400Y2024023D01*
X4309565Y2006466D01*
X4335278Y1992722D01*
X4387733Y1949673D01*
X4437618Y1913430D01*
X4453812Y1895445D01*
X4471625Y1880826D01*
X4519489Y1822503D01*
X4563515Y1773607D01*
X4572765Y1757585D01*
X4583521Y1744479D01*
X4623308Y1670043D01*
X4657591Y1610663D01*
X4661534Y1598526D01*
X4666668Y1588922D01*
X4694968Y1495629D01*
X4715733Y1431721D01*
X4716464Y1424766D01*
X4717869Y1420134D01*
X4731551Y1281215D01*
X4735400Y1244600D01*
X4731551Y1207983D01*
X4717869Y1069067D01*
X4716464Y1064436D01*
X4715733Y1057479D01*
X4694963Y993558D01*
X4666668Y900279D01*
X4661535Y890677D01*
X4657591Y878537D01*
X4623301Y819146D01*
X4583521Y744722D01*
X4572767Y731619D01*
X4563515Y715593D01*
X4519480Y666688D01*
X4471625Y608375D01*
X4453815Y593760D01*
X4437618Y575770D01*
X4387723Y539520D01*
X4335278Y496479D01*
X4309571Y482739D01*
X4285400Y465177D01*
X4233412Y442031D01*
X4179721Y413332D01*
X4145934Y403083D01*
X4113515Y388649D01*
X4062849Y377880D01*
X4010933Y362131D01*
X3969610Y358062D01*
X3929476Y349530D01*
X3882997Y349530D01*
X3835400Y344842D01*
X3787803Y349530D01*
X3741324Y349530D01*
X3701189Y358061D01*
X3659866Y362131D01*
X3607946Y377881D01*
X3557285Y388649D01*
X3524867Y403083D01*
X3491078Y413332D01*
X3437381Y442034D01*
X3385400Y465177D01*
X3361231Y482737D01*
X3335521Y496479D01*
X3283067Y539526D01*
X3233182Y575770D01*
X3216987Y593757D01*
X3199174Y608375D01*
X3151308Y666701D01*
X3107285Y715593D01*
X3098034Y731615D01*
X3087278Y744722D01*
X3047485Y819169D01*
X3013209Y878537D01*
X3009266Y890672D01*
X3004131Y900279D01*
X2975821Y993604D01*
X2955067Y1057479D01*
X2954336Y1064431D01*
X2952930Y1069067D01*
X2939232Y1208134D01*
X2935400Y1244600D01*
X2939232Y1281064D01*
X2952930Y1420134D01*
X2954336Y1424771D01*
X2955067Y1431721D01*
X2975816Y1495583D01*
X3004131Y1588922D01*
X3009266Y1598531D01*
X3013209Y1610663D01*
X3047478Y1670019D01*
X3087278Y1744479D01*
X3098036Y1757589D01*
X3107285Y1773607D01*
X3151298Y1822490D01*
X3199174Y1880826D01*
X3216990Y1895448D01*
X3233182Y1913430D01*
X3283057Y1949667D01*
X3335521Y1992722D01*
X3361236Y2006468D01*
X3385400Y2024023D01*
X3437370Y2047162D01*
X3491078Y2075869D01*
X3524874Y2086122D01*
X3557285Y2100551D01*
X3607935Y2111318D01*
X3659866Y2127070D01*
X3701198Y2131141D01*
X3741324Y2139670D01*
X3787793Y2139670D01*
X3835400Y2144359D01*
X3883007Y2139670D01*
G37*
G36*
X6423007Y2139670D02*
G01*
X6469476Y2139670D01*
X6509602Y2131141D01*
X6550933Y2127070D01*
X6602860Y2111318D01*
X6653515Y2100551D01*
X6685927Y2086121D01*
X6719721Y2075869D01*
X6773423Y2047165D01*
X6825400Y2024023D01*
X6849565Y2006466D01*
X6875278Y1992722D01*
X6927733Y1949673D01*
X6977618Y1913430D01*
X6993812Y1895445D01*
X7011625Y1880826D01*
X7059489Y1822503D01*
X7103515Y1773607D01*
X7112765Y1757585D01*
X7123521Y1744479D01*
X7163308Y1670043D01*
X7197591Y1610663D01*
X7201534Y1598526D01*
X7206668Y1588922D01*
X7234968Y1495629D01*
X7255733Y1431721D01*
X7256464Y1424766D01*
X7257869Y1420134D01*
X7271551Y1281215D01*
X7275400Y1244600D01*
X7271551Y1207983D01*
X7257869Y1069067D01*
X7256464Y1064436D01*
X7255733Y1057479D01*
X7234963Y993558D01*
X7206668Y900279D01*
X7201535Y890677D01*
X7197591Y878537D01*
X7163301Y819146D01*
X7123521Y744722D01*
X7112767Y731619D01*
X7103515Y715593D01*
X7059480Y666688D01*
X7011625Y608375D01*
X6993815Y593760D01*
X6977618Y575770D01*
X6927723Y539520D01*
X6875278Y496479D01*
X6849571Y482739D01*
X6825400Y465177D01*
X6773412Y442031D01*
X6719721Y413332D01*
X6685934Y403083D01*
X6653515Y388649D01*
X6602849Y377880D01*
X6550933Y362131D01*
X6509610Y358062D01*
X6469476Y349530D01*
X6422997Y349530D01*
X6375400Y344842D01*
X6327803Y349530D01*
X6281324Y349530D01*
X6241189Y358061D01*
X6199866Y362131D01*
X6147946Y377881D01*
X6097285Y388649D01*
X6064867Y403083D01*
X6031078Y413332D01*
X5977381Y442034D01*
X5925400Y465177D01*
X5901231Y482737D01*
X5875521Y496479D01*
X5823067Y539526D01*
X5773182Y575770D01*
X5756987Y593757D01*
X5739174Y608375D01*
X5691308Y666701D01*
X5647285Y715593D01*
X5638034Y731615D01*
X5627278Y744722D01*
X5587485Y819169D01*
X5553209Y878537D01*
X5549266Y890672D01*
X5544131Y900279D01*
X5515821Y993604D01*
X5495067Y1057479D01*
X5494336Y1064431D01*
X5492930Y1069067D01*
X5479232Y1208134D01*
X5475400Y1244600D01*
X5479232Y1281064D01*
X5492930Y1420134D01*
X5494336Y1424771D01*
X5495067Y1431721D01*
X5515816Y1495583D01*
X5544131Y1588922D01*
X5549266Y1598531D01*
X5553209Y1610663D01*
X5587478Y1670019D01*
X5627278Y1744479D01*
X5638036Y1757589D01*
X5647285Y1773607D01*
X5691298Y1822490D01*
X5739174Y1880826D01*
X5756990Y1895448D01*
X5773182Y1913430D01*
X5823057Y1949667D01*
X5875521Y1992722D01*
X5901236Y2006468D01*
X5925400Y2024023D01*
X5977370Y2047162D01*
X6031078Y2075869D01*
X6064874Y2086122D01*
X6097285Y2100551D01*
X6147935Y2111318D01*
X6199866Y2127070D01*
X6241198Y2131141D01*
X6281324Y2139670D01*
X6327793Y2139670D01*
X6375400Y2144359D01*
X6423007Y2139670D01*
G37*
G36*
X8963007Y2139670D02*
G01*
X9009476Y2139670D01*
X9049602Y2131141D01*
X9090933Y2127070D01*
X9142860Y2111318D01*
X9193515Y2100551D01*
X9225927Y2086121D01*
X9259721Y2075869D01*
X9313423Y2047165D01*
X9365400Y2024023D01*
X9389565Y2006466D01*
X9415278Y1992722D01*
X9467733Y1949673D01*
X9517618Y1913430D01*
X9533812Y1895445D01*
X9551625Y1880826D01*
X9599489Y1822503D01*
X9643515Y1773607D01*
X9652765Y1757585D01*
X9663521Y1744479D01*
X9703308Y1670043D01*
X9737591Y1610663D01*
X9741534Y1598526D01*
X9746668Y1588922D01*
X9774968Y1495629D01*
X9795733Y1431721D01*
X9796464Y1424766D01*
X9797869Y1420134D01*
X9811551Y1281215D01*
X9815400Y1244600D01*
X9811551Y1207983D01*
X9797869Y1069067D01*
X9796464Y1064436D01*
X9795733Y1057479D01*
X9774963Y993558D01*
X9746668Y900279D01*
X9741535Y890677D01*
X9737591Y878537D01*
X9703301Y819146D01*
X9663521Y744722D01*
X9652767Y731619D01*
X9643515Y715593D01*
X9599480Y666688D01*
X9551625Y608375D01*
X9533815Y593760D01*
X9517618Y575770D01*
X9467723Y539520D01*
X9415278Y496479D01*
X9389571Y482739D01*
X9365400Y465177D01*
X9313412Y442031D01*
X9259721Y413332D01*
X9225934Y403083D01*
X9193515Y388649D01*
X9142849Y377880D01*
X9090933Y362131D01*
X9049610Y358062D01*
X9009476Y349530D01*
X8962997Y349530D01*
X8915400Y344842D01*
X8867803Y349530D01*
X8821324Y349530D01*
X8781189Y358061D01*
X8739866Y362131D01*
X8687946Y377881D01*
X8637285Y388649D01*
X8604867Y403083D01*
X8571078Y413332D01*
X8517381Y442034D01*
X8465400Y465177D01*
X8441231Y482737D01*
X8415521Y496479D01*
X8363067Y539526D01*
X8313182Y575770D01*
X8296987Y593757D01*
X8279174Y608375D01*
X8231308Y666701D01*
X8187285Y715593D01*
X8178034Y731615D01*
X8167278Y744722D01*
X8127485Y819169D01*
X8093209Y878537D01*
X8089266Y890672D01*
X8084131Y900279D01*
X8055821Y993604D01*
X8035067Y1057479D01*
X8034336Y1064431D01*
X8032930Y1069067D01*
X8019232Y1208134D01*
X8015400Y1244600D01*
X8019232Y1281064D01*
X8032930Y1420134D01*
X8034336Y1424771D01*
X8035067Y1431721D01*
X8055816Y1495583D01*
X8084131Y1588922D01*
X8089266Y1598531D01*
X8093209Y1610663D01*
X8127478Y1670019D01*
X8167278Y1744479D01*
X8178036Y1757589D01*
X8187285Y1773607D01*
X8231298Y1822490D01*
X8279174Y1880826D01*
X8296990Y1895448D01*
X8313182Y1913430D01*
X8363057Y1949667D01*
X8415521Y1992722D01*
X8441236Y2006468D01*
X8465400Y2024023D01*
X8517370Y2047162D01*
X8571078Y2075869D01*
X8604874Y2086122D01*
X8637285Y2100551D01*
X8687935Y2111318D01*
X8739866Y2127070D01*
X8781198Y2131141D01*
X8821324Y2139670D01*
X8867793Y2139670D01*
X8915400Y2144359D01*
X8963007Y2139670D01*
G37*
G36*
X11503007Y2139670D02*
G01*
X11549476Y2139670D01*
X11589602Y2131141D01*
X11630933Y2127070D01*
X11682860Y2111318D01*
X11733515Y2100551D01*
X11765927Y2086121D01*
X11799721Y2075869D01*
X11853423Y2047165D01*
X11905400Y2024023D01*
X11929565Y2006466D01*
X11955278Y1992722D01*
X12007733Y1949673D01*
X12057618Y1913430D01*
X12073812Y1895445D01*
X12091625Y1880826D01*
X12139489Y1822503D01*
X12183515Y1773607D01*
X12192765Y1757585D01*
X12203521Y1744479D01*
X12243308Y1670043D01*
X12277591Y1610663D01*
X12281534Y1598526D01*
X12286668Y1588922D01*
X12314968Y1495629D01*
X12335733Y1431721D01*
X12336464Y1424766D01*
X12337869Y1420134D01*
X12351551Y1281215D01*
X12355400Y1244600D01*
X12351551Y1207983D01*
X12337869Y1069067D01*
X12336464Y1064436D01*
X12335733Y1057479D01*
X12314963Y993558D01*
X12286668Y900279D01*
X12281535Y890677D01*
X12277591Y878537D01*
X12243301Y819146D01*
X12203521Y744722D01*
X12192767Y731619D01*
X12183515Y715593D01*
X12139480Y666688D01*
X12091625Y608375D01*
X12073815Y593760D01*
X12057618Y575770D01*
X12007723Y539520D01*
X11955278Y496479D01*
X11929571Y482739D01*
X11905400Y465177D01*
X11853412Y442031D01*
X11799721Y413332D01*
X11765934Y403083D01*
X11733515Y388649D01*
X11682849Y377880D01*
X11630933Y362131D01*
X11589610Y358062D01*
X11549476Y349530D01*
X11502997Y349530D01*
X11455400Y344842D01*
X11407803Y349530D01*
X11361324Y349530D01*
X11321189Y358061D01*
X11279866Y362131D01*
X11227946Y377881D01*
X11177285Y388649D01*
X11144867Y403083D01*
X11111078Y413332D01*
X11057381Y442034D01*
X11005400Y465177D01*
X10981231Y482737D01*
X10955521Y496479D01*
X10903067Y539526D01*
X10853182Y575770D01*
X10836987Y593757D01*
X10819174Y608375D01*
X10771308Y666701D01*
X10727285Y715593D01*
X10718034Y731615D01*
X10707278Y744722D01*
X10667485Y819169D01*
X10633209Y878537D01*
X10629266Y890672D01*
X10624131Y900279D01*
X10595821Y993604D01*
X10575067Y1057479D01*
X10574336Y1064431D01*
X10572930Y1069067D01*
X10559232Y1208134D01*
X10555400Y1244600D01*
X10559232Y1281064D01*
X10572930Y1420134D01*
X10574336Y1424771D01*
X10575067Y1431721D01*
X10595816Y1495583D01*
X10624131Y1588922D01*
X10629266Y1598531D01*
X10633209Y1610663D01*
X10667478Y1670019D01*
X10707278Y1744479D01*
X10718036Y1757589D01*
X10727285Y1773607D01*
X10771298Y1822490D01*
X10819174Y1880826D01*
X10836990Y1895448D01*
X10853182Y1913430D01*
X10903057Y1949667D01*
X10955521Y1992722D01*
X10981236Y2006468D01*
X11005400Y2024023D01*
X11057370Y2047162D01*
X11111078Y2075869D01*
X11144874Y2086122D01*
X11177285Y2100551D01*
X11227935Y2111318D01*
X11279866Y2127070D01*
X11321198Y2131141D01*
X11361324Y2139670D01*
X11407793Y2139670D01*
X11455400Y2144359D01*
X11503007Y2139670D01*
G37*
G36*
X-16714619Y2244911D02*
G01*
X-16678843Y2244911D01*
X-16649765Y2236373D01*
X-16620704Y2232547D01*
X-16581668Y2216378D01*
X-16542292Y2204816D01*
X-16521509Y2191460D01*
X-16500217Y2182640D01*
X-16461202Y2152703D01*
X-16422570Y2127875D01*
X-16410117Y2113503D01*
X-16396751Y2103247D01*
X-16362101Y2058090D01*
X-16329373Y2020320D01*
X-16323866Y2008262D01*
X-16317362Y1999785D01*
X-16291678Y1937778D01*
X-16270254Y1890866D01*
X-16269195Y1883500D01*
X-16267454Y1879297D01*
X-16255120Y1785610D01*
X-16250000Y1750000D01*
X-16255121Y1714388D01*
X-16267454Y1620704D01*
X-16269195Y1616502D01*
X-16270254Y1609134D01*
X-16291679Y1562220D01*
X-16317361Y1500217D01*
X-16323866Y1491741D01*
X-16329373Y1479680D01*
X-16362113Y1441897D01*
X-16396753Y1396753D01*
X-16410113Y1386502D01*
X-16422570Y1372125D01*
X-16461212Y1347292D01*
X-16500217Y1317361D01*
X-16521504Y1308544D01*
X-16542292Y1295184D01*
X-16581677Y1283620D01*
X-16620704Y1267454D01*
X-16649759Y1263629D01*
X-16678843Y1255089D01*
X-16714626Y1255089D01*
X-16750000Y1250432D01*
X-16785374Y1255089D01*
X-16821157Y1255089D01*
X-16850241Y1263629D01*
X-16879297Y1267454D01*
X-16918328Y1283621D01*
X-16957708Y1295184D01*
X-16978495Y1308543D01*
X-16999784Y1317361D01*
X-17038796Y1347296D01*
X-17077430Y1372125D01*
X-17089886Y1386500D01*
X-17103248Y1396753D01*
X-17137897Y1441907D01*
X-17170627Y1479680D01*
X-17176134Y1491738D01*
X-17182640Y1500217D01*
X-17208332Y1562243D01*
X-17229746Y1609134D01*
X-17230805Y1616498D01*
X-17232547Y1620704D01*
X-17244892Y1714471D01*
X-17250000Y1750000D01*
X-17244892Y1785527D01*
X-17232547Y1879297D01*
X-17230805Y1883504D01*
X-17229746Y1890866D01*
X-17208334Y1937755D01*
X-17182639Y1999785D01*
X-17176133Y2008265D01*
X-17170627Y2020320D01*
X-17137911Y2058077D01*
X-17103249Y2103249D01*
X-17089880Y2113509D01*
X-17077430Y2127875D01*
X-17038808Y2152697D01*
X-16999785Y2182639D01*
X-16978492Y2191459D01*
X-16957708Y2204816D01*
X-16918335Y2216378D01*
X-16879297Y2232547D01*
X-16850235Y2236374D01*
X-16821157Y2244911D01*
X-16785382Y2244911D01*
X-16750000Y2249569D01*
X-16714619Y2244911D01*
G37*
G36*
X15585381Y2264911D02*
G01*
X15621157Y2264911D01*
X15650235Y2256373D01*
X15679296Y2252547D01*
X15718332Y2236378D01*
X15757708Y2224816D01*
X15778491Y2211460D01*
X15799783Y2202640D01*
X15838798Y2172703D01*
X15877430Y2147875D01*
X15889883Y2133503D01*
X15903249Y2123247D01*
X15937899Y2078090D01*
X15970627Y2040320D01*
X15976134Y2028262D01*
X15982638Y2019785D01*
X16008322Y1957778D01*
X16029746Y1910866D01*
X16030805Y1903500D01*
X16032546Y1899297D01*
X16044880Y1805610D01*
X16050000Y1770000D01*
X16044879Y1734388D01*
X16032546Y1640704D01*
X16030805Y1636502D01*
X16029746Y1629134D01*
X16008321Y1582220D01*
X15982639Y1520217D01*
X15976134Y1511741D01*
X15970627Y1499680D01*
X15937887Y1461897D01*
X15903247Y1416753D01*
X15889887Y1406502D01*
X15877430Y1392125D01*
X15838788Y1367292D01*
X15799783Y1337361D01*
X15778496Y1328544D01*
X15757708Y1315184D01*
X15718323Y1303620D01*
X15679296Y1287454D01*
X15650241Y1283629D01*
X15621157Y1275089D01*
X15585374Y1275089D01*
X15550000Y1270432D01*
X15514626Y1275089D01*
X15478843Y1275089D01*
X15449759Y1283629D01*
X15420703Y1287454D01*
X15381672Y1303621D01*
X15342292Y1315184D01*
X15321505Y1328543D01*
X15300216Y1337361D01*
X15261204Y1367296D01*
X15222570Y1392125D01*
X15210114Y1406500D01*
X15196752Y1416753D01*
X15162103Y1461907D01*
X15129373Y1499680D01*
X15123866Y1511738D01*
X15117360Y1520217D01*
X15091668Y1582243D01*
X15070254Y1629134D01*
X15069195Y1636498D01*
X15067453Y1640704D01*
X15055108Y1734471D01*
X15050000Y1770000D01*
X15055108Y1805527D01*
X15067453Y1899297D01*
X15069195Y1903504D01*
X15070254Y1910866D01*
X15091666Y1957755D01*
X15117361Y2019785D01*
X15123867Y2028265D01*
X15129373Y2040320D01*
X15162089Y2078077D01*
X15196751Y2123249D01*
X15210120Y2133509D01*
X15222570Y2147875D01*
X15261192Y2172697D01*
X15300215Y2202639D01*
X15321508Y2211459D01*
X15342292Y2224816D01*
X15381665Y2236378D01*
X15420703Y2252547D01*
X15449765Y2256374D01*
X15478843Y2264911D01*
X15514618Y2264911D01*
X15550000Y2269569D01*
X15585381Y2264911D01*
G37*
M02*
