G04 #@! TF.GenerationSoftware,KiCad,Pcbnew,8.0.4*
G04 #@! TF.CreationDate,2025-02-25T17:16:13+05:30*
G04 #@! TF.ProjectId,P-1000101_Cicada WiSun,502d3130-3030-4313-9031-5f4369636164,0.1*
G04 #@! TF.SameCoordinates,PX7cee6c0PY3dfd240*
G04 #@! TF.FileFunction,Legend,Bot*
G04 #@! TF.FilePolarity,Positive*
%FSLAX46Y46*%
G04 Gerber Fmt 4.6, Leading zero omitted, Abs format (unit mm)*
G04 Created by KiCad (PCBNEW 8.0.4) date 2025-02-25 17:16:13*
%MOMM*%
%LPD*%
G01*
G04 APERTURE LIST*
%ADD10C,0.300000*%
%ADD11C,0.100000*%
%ADD12C,0.150000*%
%ADD13C,0.125000*%
%ADD14C,0.120000*%
G04 APERTURE END LIST*
D10*
X-9468329Y-2871427D02*
X-9468329Y-3728570D01*
X-9468329Y-3299999D02*
X-7968329Y-3299999D01*
X-7968329Y-3299999D02*
X-8182615Y-3442856D01*
X-8182615Y-3442856D02*
X-8325472Y-3585713D01*
X-8325472Y-3585713D02*
X-8396900Y-3728570D01*
D11*
X-13528572Y-4824895D02*
X-13361906Y-4443942D01*
X-13242858Y-4824895D02*
X-13242858Y-4024895D01*
X-13242858Y-4024895D02*
X-13433334Y-4024895D01*
X-13433334Y-4024895D02*
X-13480953Y-4062990D01*
X-13480953Y-4062990D02*
X-13504763Y-4101085D01*
X-13504763Y-4101085D02*
X-13528572Y-4177276D01*
X-13528572Y-4177276D02*
X-13528572Y-4291561D01*
X-13528572Y-4291561D02*
X-13504763Y-4367752D01*
X-13504763Y-4367752D02*
X-13480953Y-4405847D01*
X-13480953Y-4405847D02*
X-13433334Y-4443942D01*
X-13433334Y-4443942D02*
X-13242858Y-4443942D01*
X-14004763Y-4824895D02*
X-13719049Y-4824895D01*
X-13861906Y-4824895D02*
X-13861906Y-4024895D01*
X-13861906Y-4024895D02*
X-13814287Y-4139180D01*
X-13814287Y-4139180D02*
X-13766668Y-4215371D01*
X-13766668Y-4215371D02*
X-13719049Y-4253466D01*
X-14433334Y-4291561D02*
X-14433334Y-4824895D01*
X-14314286Y-3986800D02*
X-14195239Y-4558228D01*
X-14195239Y-4558228D02*
X-14504762Y-4558228D01*
D12*
X-14719781Y307934D02*
X-14005496Y307934D01*
X-14005496Y307934D02*
X-13862639Y355553D01*
X-13862639Y355553D02*
X-13767400Y450791D01*
X-13767400Y450791D02*
X-13719781Y593648D01*
X-13719781Y593648D02*
X-13719781Y688886D01*
X-14719781Y-73019D02*
X-14719781Y-692066D01*
X-14719781Y-692066D02*
X-14338829Y-358733D01*
X-14338829Y-358733D02*
X-14338829Y-501590D01*
X-14338829Y-501590D02*
X-14291210Y-596828D01*
X-14291210Y-596828D02*
X-14243591Y-644447D01*
X-14243591Y-644447D02*
X-14148353Y-692066D01*
X-14148353Y-692066D02*
X-13910258Y-692066D01*
X-13910258Y-692066D02*
X-13815020Y-644447D01*
X-13815020Y-644447D02*
X-13767400Y-596828D01*
X-13767400Y-596828D02*
X-13719781Y-501590D01*
X-13719781Y-501590D02*
X-13719781Y-215876D01*
X-13719781Y-215876D02*
X-13767400Y-120638D01*
X-13767400Y-120638D02*
X-13815020Y-73019D01*
D13*
X9909523Y-6983595D02*
X10147618Y-6983595D01*
X10147618Y-6983595D02*
X10171427Y-7364547D01*
X10171427Y-7364547D02*
X10147618Y-7326452D01*
X10147618Y-7326452D02*
X10099999Y-7288357D01*
X10099999Y-7288357D02*
X9980951Y-7288357D01*
X9980951Y-7288357D02*
X9933332Y-7326452D01*
X9933332Y-7326452D02*
X9909523Y-7364547D01*
X9909523Y-7364547D02*
X9885713Y-7440738D01*
X9885713Y-7440738D02*
X9885713Y-7631214D01*
X9885713Y-7631214D02*
X9909523Y-7707404D01*
X9909523Y-7707404D02*
X9933332Y-7745500D01*
X9933332Y-7745500D02*
X9980951Y-7783595D01*
X9980951Y-7783595D02*
X10099999Y-7783595D01*
X10099999Y-7783595D02*
X10147618Y-7745500D01*
X10147618Y-7745500D02*
X10171427Y-7707404D01*
X9719047Y-7250261D02*
X9599999Y-7783595D01*
X9599999Y-7783595D02*
X9480952Y-7250261D01*
X9195238Y-6983595D02*
X9147619Y-6983595D01*
X9147619Y-6983595D02*
X9100000Y-7021690D01*
X9100000Y-7021690D02*
X9076190Y-7059785D01*
X9076190Y-7059785D02*
X9052381Y-7135976D01*
X9052381Y-7135976D02*
X9028571Y-7288357D01*
X9028571Y-7288357D02*
X9028571Y-7478833D01*
X9028571Y-7478833D02*
X9052381Y-7631214D01*
X9052381Y-7631214D02*
X9076190Y-7707404D01*
X9076190Y-7707404D02*
X9100000Y-7745500D01*
X9100000Y-7745500D02*
X9147619Y-7783595D01*
X9147619Y-7783595D02*
X9195238Y-7783595D01*
X9195238Y-7783595D02*
X9242857Y-7745500D01*
X9242857Y-7745500D02*
X9266666Y-7707404D01*
X9266666Y-7707404D02*
X9290476Y-7631214D01*
X9290476Y-7631214D02*
X9314285Y-7478833D01*
X9314285Y-7478833D02*
X9314285Y-7288357D01*
X9314285Y-7288357D02*
X9290476Y-7135976D01*
X9290476Y-7135976D02*
X9266666Y-7059785D01*
X9266666Y-7059785D02*
X9242857Y-7021690D01*
X9242857Y-7021690D02*
X9195238Y-6983595D01*
D11*
X-13548572Y-6384895D02*
X-13381906Y-6003942D01*
X-13262858Y-6384895D02*
X-13262858Y-5584895D01*
X-13262858Y-5584895D02*
X-13453334Y-5584895D01*
X-13453334Y-5584895D02*
X-13500953Y-5622990D01*
X-13500953Y-5622990D02*
X-13524763Y-5661085D01*
X-13524763Y-5661085D02*
X-13548572Y-5737276D01*
X-13548572Y-5737276D02*
X-13548572Y-5851561D01*
X-13548572Y-5851561D02*
X-13524763Y-5927752D01*
X-13524763Y-5927752D02*
X-13500953Y-5965847D01*
X-13500953Y-5965847D02*
X-13453334Y-6003942D01*
X-13453334Y-6003942D02*
X-13262858Y-6003942D01*
X-14024763Y-6384895D02*
X-13739049Y-6384895D01*
X-13881906Y-6384895D02*
X-13881906Y-5584895D01*
X-13881906Y-5584895D02*
X-13834287Y-5699180D01*
X-13834287Y-5699180D02*
X-13786668Y-5775371D01*
X-13786668Y-5775371D02*
X-13739049Y-5813466D01*
X-14310477Y-5927752D02*
X-14262858Y-5889657D01*
X-14262858Y-5889657D02*
X-14239048Y-5851561D01*
X-14239048Y-5851561D02*
X-14215239Y-5775371D01*
X-14215239Y-5775371D02*
X-14215239Y-5737276D01*
X-14215239Y-5737276D02*
X-14239048Y-5661085D01*
X-14239048Y-5661085D02*
X-14262858Y-5622990D01*
X-14262858Y-5622990D02*
X-14310477Y-5584895D01*
X-14310477Y-5584895D02*
X-14405715Y-5584895D01*
X-14405715Y-5584895D02*
X-14453334Y-5622990D01*
X-14453334Y-5622990D02*
X-14477143Y-5661085D01*
X-14477143Y-5661085D02*
X-14500953Y-5737276D01*
X-14500953Y-5737276D02*
X-14500953Y-5775371D01*
X-14500953Y-5775371D02*
X-14477143Y-5851561D01*
X-14477143Y-5851561D02*
X-14453334Y-5889657D01*
X-14453334Y-5889657D02*
X-14405715Y-5927752D01*
X-14405715Y-5927752D02*
X-14310477Y-5927752D01*
X-14310477Y-5927752D02*
X-14262858Y-5965847D01*
X-14262858Y-5965847D02*
X-14239048Y-6003942D01*
X-14239048Y-6003942D02*
X-14215239Y-6080133D01*
X-14215239Y-6080133D02*
X-14215239Y-6232514D01*
X-14215239Y-6232514D02*
X-14239048Y-6308704D01*
X-14239048Y-6308704D02*
X-14262858Y-6346800D01*
X-14262858Y-6346800D02*
X-14310477Y-6384895D01*
X-14310477Y-6384895D02*
X-14405715Y-6384895D01*
X-14405715Y-6384895D02*
X-14453334Y-6346800D01*
X-14453334Y-6346800D02*
X-14477143Y-6308704D01*
X-14477143Y-6308704D02*
X-14500953Y-6232514D01*
X-14500953Y-6232514D02*
X-14500953Y-6080133D01*
X-14500953Y-6080133D02*
X-14477143Y-6003942D01*
X-14477143Y-6003942D02*
X-14453334Y-5965847D01*
X-14453334Y-5965847D02*
X-14405715Y-5927752D01*
X14799523Y-15284895D02*
X15037618Y-15284895D01*
X15037618Y-15284895D02*
X15061427Y-15665847D01*
X15061427Y-15665847D02*
X15037618Y-15627752D01*
X15037618Y-15627752D02*
X14989999Y-15589657D01*
X14989999Y-15589657D02*
X14870951Y-15589657D01*
X14870951Y-15589657D02*
X14823332Y-15627752D01*
X14823332Y-15627752D02*
X14799523Y-15665847D01*
X14799523Y-15665847D02*
X14775713Y-15742038D01*
X14775713Y-15742038D02*
X14775713Y-15932514D01*
X14775713Y-15932514D02*
X14799523Y-16008704D01*
X14799523Y-16008704D02*
X14823332Y-16046800D01*
X14823332Y-16046800D02*
X14870951Y-16084895D01*
X14870951Y-16084895D02*
X14989999Y-16084895D01*
X14989999Y-16084895D02*
X15037618Y-16046800D01*
X15037618Y-16046800D02*
X15061427Y-16008704D01*
X14609047Y-15551561D02*
X14489999Y-16084895D01*
X14489999Y-16084895D02*
X14370952Y-15551561D01*
X14085238Y-15284895D02*
X14037619Y-15284895D01*
X14037619Y-15284895D02*
X13990000Y-15322990D01*
X13990000Y-15322990D02*
X13966190Y-15361085D01*
X13966190Y-15361085D02*
X13942381Y-15437276D01*
X13942381Y-15437276D02*
X13918571Y-15589657D01*
X13918571Y-15589657D02*
X13918571Y-15780133D01*
X13918571Y-15780133D02*
X13942381Y-15932514D01*
X13942381Y-15932514D02*
X13966190Y-16008704D01*
X13966190Y-16008704D02*
X13990000Y-16046800D01*
X13990000Y-16046800D02*
X14037619Y-16084895D01*
X14037619Y-16084895D02*
X14085238Y-16084895D01*
X14085238Y-16084895D02*
X14132857Y-16046800D01*
X14132857Y-16046800D02*
X14156666Y-16008704D01*
X14156666Y-16008704D02*
X14180476Y-15932514D01*
X14180476Y-15932514D02*
X14204285Y-15780133D01*
X14204285Y-15780133D02*
X14204285Y-15589657D01*
X14204285Y-15589657D02*
X14180476Y-15437276D01*
X14180476Y-15437276D02*
X14156666Y-15361085D01*
X14156666Y-15361085D02*
X14132857Y-15322990D01*
X14132857Y-15322990D02*
X14085238Y-15284895D01*
X1968704Y-30986666D02*
X2006800Y-30962857D01*
X2006800Y-30962857D02*
X2044895Y-30891428D01*
X2044895Y-30891428D02*
X2044895Y-30843809D01*
X2044895Y-30843809D02*
X2006800Y-30772381D01*
X2006800Y-30772381D02*
X1930609Y-30724762D01*
X1930609Y-30724762D02*
X1854419Y-30700952D01*
X1854419Y-30700952D02*
X1702038Y-30677143D01*
X1702038Y-30677143D02*
X1587752Y-30677143D01*
X1587752Y-30677143D02*
X1435371Y-30700952D01*
X1435371Y-30700952D02*
X1359180Y-30724762D01*
X1359180Y-30724762D02*
X1282990Y-30772381D01*
X1282990Y-30772381D02*
X1244895Y-30843809D01*
X1244895Y-30843809D02*
X1244895Y-30891428D01*
X1244895Y-30891428D02*
X1282990Y-30962857D01*
X1282990Y-30962857D02*
X1321085Y-30986666D01*
X1244895Y-31439047D02*
X1244895Y-31200952D01*
X1244895Y-31200952D02*
X1625847Y-31177143D01*
X1625847Y-31177143D02*
X1587752Y-31200952D01*
X1587752Y-31200952D02*
X1549657Y-31248571D01*
X1549657Y-31248571D02*
X1549657Y-31367619D01*
X1549657Y-31367619D02*
X1587752Y-31415238D01*
X1587752Y-31415238D02*
X1625847Y-31439047D01*
X1625847Y-31439047D02*
X1702038Y-31462857D01*
X1702038Y-31462857D02*
X1892514Y-31462857D01*
X1892514Y-31462857D02*
X1968704Y-31439047D01*
X1968704Y-31439047D02*
X2006800Y-31415238D01*
X2006800Y-31415238D02*
X2044895Y-31367619D01*
X2044895Y-31367619D02*
X2044895Y-31248571D01*
X2044895Y-31248571D02*
X2006800Y-31200952D01*
X2006800Y-31200952D02*
X1968704Y-31177143D01*
X-8201296Y-30448571D02*
X-8163200Y-30424762D01*
X-8163200Y-30424762D02*
X-8125105Y-30353333D01*
X-8125105Y-30353333D02*
X-8125105Y-30305714D01*
X-8125105Y-30305714D02*
X-8163200Y-30234286D01*
X-8163200Y-30234286D02*
X-8239391Y-30186667D01*
X-8239391Y-30186667D02*
X-8315581Y-30162857D01*
X-8315581Y-30162857D02*
X-8467962Y-30139048D01*
X-8467962Y-30139048D02*
X-8582248Y-30139048D01*
X-8582248Y-30139048D02*
X-8734629Y-30162857D01*
X-8734629Y-30162857D02*
X-8810820Y-30186667D01*
X-8810820Y-30186667D02*
X-8887010Y-30234286D01*
X-8887010Y-30234286D02*
X-8925105Y-30305714D01*
X-8925105Y-30305714D02*
X-8925105Y-30353333D01*
X-8925105Y-30353333D02*
X-8887010Y-30424762D01*
X-8887010Y-30424762D02*
X-8848915Y-30448571D01*
X-8125105Y-30924762D02*
X-8125105Y-30639048D01*
X-8125105Y-30781905D02*
X-8925105Y-30781905D01*
X-8925105Y-30781905D02*
X-8810820Y-30734286D01*
X-8810820Y-30734286D02*
X-8734629Y-30686667D01*
X-8734629Y-30686667D02*
X-8696534Y-30639048D01*
X-8125105Y-31162857D02*
X-8125105Y-31258095D01*
X-8125105Y-31258095D02*
X-8163200Y-31305714D01*
X-8163200Y-31305714D02*
X-8201296Y-31329523D01*
X-8201296Y-31329523D02*
X-8315581Y-31377142D01*
X-8315581Y-31377142D02*
X-8467962Y-31400952D01*
X-8467962Y-31400952D02*
X-8772724Y-31400952D01*
X-8772724Y-31400952D02*
X-8848915Y-31377142D01*
X-8848915Y-31377142D02*
X-8887010Y-31353333D01*
X-8887010Y-31353333D02*
X-8925105Y-31305714D01*
X-8925105Y-31305714D02*
X-8925105Y-31210476D01*
X-8925105Y-31210476D02*
X-8887010Y-31162857D01*
X-8887010Y-31162857D02*
X-8848915Y-31139047D01*
X-8848915Y-31139047D02*
X-8772724Y-31115238D01*
X-8772724Y-31115238D02*
X-8582248Y-31115238D01*
X-8582248Y-31115238D02*
X-8506058Y-31139047D01*
X-8506058Y-31139047D02*
X-8467962Y-31162857D01*
X-8467962Y-31162857D02*
X-8429867Y-31210476D01*
X-8429867Y-31210476D02*
X-8429867Y-31305714D01*
X-8429867Y-31305714D02*
X-8467962Y-31353333D01*
X-8467962Y-31353333D02*
X-8506058Y-31377142D01*
X-8506058Y-31377142D02*
X-8582248Y-31400952D01*
X1708704Y-34416666D02*
X1746800Y-34392857D01*
X1746800Y-34392857D02*
X1784895Y-34321428D01*
X1784895Y-34321428D02*
X1784895Y-34273809D01*
X1784895Y-34273809D02*
X1746800Y-34202381D01*
X1746800Y-34202381D02*
X1670609Y-34154762D01*
X1670609Y-34154762D02*
X1594419Y-34130952D01*
X1594419Y-34130952D02*
X1442038Y-34107143D01*
X1442038Y-34107143D02*
X1327752Y-34107143D01*
X1327752Y-34107143D02*
X1175371Y-34130952D01*
X1175371Y-34130952D02*
X1099180Y-34154762D01*
X1099180Y-34154762D02*
X1022990Y-34202381D01*
X1022990Y-34202381D02*
X984895Y-34273809D01*
X984895Y-34273809D02*
X984895Y-34321428D01*
X984895Y-34321428D02*
X1022990Y-34392857D01*
X1022990Y-34392857D02*
X1061085Y-34416666D01*
X1061085Y-34607143D02*
X1022990Y-34630952D01*
X1022990Y-34630952D02*
X984895Y-34678571D01*
X984895Y-34678571D02*
X984895Y-34797619D01*
X984895Y-34797619D02*
X1022990Y-34845238D01*
X1022990Y-34845238D02*
X1061085Y-34869047D01*
X1061085Y-34869047D02*
X1137276Y-34892857D01*
X1137276Y-34892857D02*
X1213466Y-34892857D01*
X1213466Y-34892857D02*
X1327752Y-34869047D01*
X1327752Y-34869047D02*
X1784895Y-34583333D01*
X1784895Y-34583333D02*
X1784895Y-34892857D01*
X884895Y-13896666D02*
X503942Y-13730000D01*
X884895Y-13610952D02*
X84895Y-13610952D01*
X84895Y-13610952D02*
X84895Y-13801428D01*
X84895Y-13801428D02*
X122990Y-13849047D01*
X122990Y-13849047D02*
X161085Y-13872857D01*
X161085Y-13872857D02*
X237276Y-13896666D01*
X237276Y-13896666D02*
X351561Y-13896666D01*
X351561Y-13896666D02*
X427752Y-13872857D01*
X427752Y-13872857D02*
X465847Y-13849047D01*
X465847Y-13849047D02*
X503942Y-13801428D01*
X503942Y-13801428D02*
X503942Y-13610952D01*
X84895Y-14349047D02*
X84895Y-14110952D01*
X84895Y-14110952D02*
X465847Y-14087143D01*
X465847Y-14087143D02*
X427752Y-14110952D01*
X427752Y-14110952D02*
X389657Y-14158571D01*
X389657Y-14158571D02*
X389657Y-14277619D01*
X389657Y-14277619D02*
X427752Y-14325238D01*
X427752Y-14325238D02*
X465847Y-14349047D01*
X465847Y-14349047D02*
X542038Y-14372857D01*
X542038Y-14372857D02*
X732514Y-14372857D01*
X732514Y-14372857D02*
X808704Y-14349047D01*
X808704Y-14349047D02*
X846800Y-14325238D01*
X846800Y-14325238D02*
X884895Y-14277619D01*
X884895Y-14277619D02*
X884895Y-14158571D01*
X884895Y-14158571D02*
X846800Y-14110952D01*
X846800Y-14110952D02*
X808704Y-14087143D01*
X1921428Y-36758704D02*
X1945237Y-36796800D01*
X1945237Y-36796800D02*
X2016666Y-36834895D01*
X2016666Y-36834895D02*
X2064285Y-36834895D01*
X2064285Y-36834895D02*
X2135713Y-36796800D01*
X2135713Y-36796800D02*
X2183332Y-36720609D01*
X2183332Y-36720609D02*
X2207142Y-36644419D01*
X2207142Y-36644419D02*
X2230951Y-36492038D01*
X2230951Y-36492038D02*
X2230951Y-36377752D01*
X2230951Y-36377752D02*
X2207142Y-36225371D01*
X2207142Y-36225371D02*
X2183332Y-36149180D01*
X2183332Y-36149180D02*
X2135713Y-36072990D01*
X2135713Y-36072990D02*
X2064285Y-36034895D01*
X2064285Y-36034895D02*
X2016666Y-36034895D01*
X2016666Y-36034895D02*
X1945237Y-36072990D01*
X1945237Y-36072990D02*
X1921428Y-36111085D01*
X1730951Y-36111085D02*
X1707142Y-36072990D01*
X1707142Y-36072990D02*
X1659523Y-36034895D01*
X1659523Y-36034895D02*
X1540475Y-36034895D01*
X1540475Y-36034895D02*
X1492856Y-36072990D01*
X1492856Y-36072990D02*
X1469047Y-36111085D01*
X1469047Y-36111085D02*
X1445237Y-36187276D01*
X1445237Y-36187276D02*
X1445237Y-36263466D01*
X1445237Y-36263466D02*
X1469047Y-36377752D01*
X1469047Y-36377752D02*
X1754761Y-36834895D01*
X1754761Y-36834895D02*
X1445237Y-36834895D01*
X1254761Y-36111085D02*
X1230952Y-36072990D01*
X1230952Y-36072990D02*
X1183333Y-36034895D01*
X1183333Y-36034895D02*
X1064285Y-36034895D01*
X1064285Y-36034895D02*
X1016666Y-36072990D01*
X1016666Y-36072990D02*
X992857Y-36111085D01*
X992857Y-36111085D02*
X969047Y-36187276D01*
X969047Y-36187276D02*
X969047Y-36263466D01*
X969047Y-36263466D02*
X992857Y-36377752D01*
X992857Y-36377752D02*
X1278571Y-36834895D01*
X1278571Y-36834895D02*
X969047Y-36834895D01*
X3129523Y-11384895D02*
X3129523Y-10584895D01*
X3129523Y-10584895D02*
X3010475Y-10584895D01*
X3010475Y-10584895D02*
X2939047Y-10622990D01*
X2939047Y-10622990D02*
X2891428Y-10699180D01*
X2891428Y-10699180D02*
X2867618Y-10775371D01*
X2867618Y-10775371D02*
X2843809Y-10927752D01*
X2843809Y-10927752D02*
X2843809Y-11042038D01*
X2843809Y-11042038D02*
X2867618Y-11194419D01*
X2867618Y-11194419D02*
X2891428Y-11270609D01*
X2891428Y-11270609D02*
X2939047Y-11346800D01*
X2939047Y-11346800D02*
X3010475Y-11384895D01*
X3010475Y-11384895D02*
X3129523Y-11384895D01*
X2415237Y-11384895D02*
X2415237Y-10965847D01*
X2415237Y-10965847D02*
X2439047Y-10889657D01*
X2439047Y-10889657D02*
X2486666Y-10851561D01*
X2486666Y-10851561D02*
X2581904Y-10851561D01*
X2581904Y-10851561D02*
X2629523Y-10889657D01*
X2415237Y-11346800D02*
X2462856Y-11384895D01*
X2462856Y-11384895D02*
X2581904Y-11384895D01*
X2581904Y-11384895D02*
X2629523Y-11346800D01*
X2629523Y-11346800D02*
X2653332Y-11270609D01*
X2653332Y-11270609D02*
X2653332Y-11194419D01*
X2653332Y-11194419D02*
X2629523Y-11118228D01*
X2629523Y-11118228D02*
X2581904Y-11080133D01*
X2581904Y-11080133D02*
X2462856Y-11080133D01*
X2462856Y-11080133D02*
X2415237Y-11042038D01*
X2248570Y-10851561D02*
X2058094Y-10851561D01*
X2177142Y-10584895D02*
X2177142Y-11270609D01*
X2177142Y-11270609D02*
X2153332Y-11346800D01*
X2153332Y-11346800D02*
X2105713Y-11384895D01*
X2105713Y-11384895D02*
X2058094Y-11384895D01*
X1677142Y-11384895D02*
X1677142Y-10965847D01*
X1677142Y-10965847D02*
X1700952Y-10889657D01*
X1700952Y-10889657D02*
X1748571Y-10851561D01*
X1748571Y-10851561D02*
X1843809Y-10851561D01*
X1843809Y-10851561D02*
X1891428Y-10889657D01*
X1677142Y-11346800D02*
X1724761Y-11384895D01*
X1724761Y-11384895D02*
X1843809Y-11384895D01*
X1843809Y-11384895D02*
X1891428Y-11346800D01*
X1891428Y-11346800D02*
X1915237Y-11270609D01*
X1915237Y-11270609D02*
X1915237Y-11194419D01*
X1915237Y-11194419D02*
X1891428Y-11118228D01*
X1891428Y-11118228D02*
X1843809Y-11080133D01*
X1843809Y-11080133D02*
X1724761Y-11080133D01*
X1724761Y-11080133D02*
X1677142Y-11042038D01*
X1558095Y-11461085D02*
X1177142Y-11461085D01*
X1129523Y-10584895D02*
X843809Y-10584895D01*
X986666Y-11384895D02*
X986666Y-10584895D01*
X724762Y-11384895D02*
X462857Y-10851561D01*
X724762Y-10851561D02*
X462857Y-11384895D01*
X1808704Y-29056666D02*
X1846800Y-29032857D01*
X1846800Y-29032857D02*
X1884895Y-28961428D01*
X1884895Y-28961428D02*
X1884895Y-28913809D01*
X1884895Y-28913809D02*
X1846800Y-28842381D01*
X1846800Y-28842381D02*
X1770609Y-28794762D01*
X1770609Y-28794762D02*
X1694419Y-28770952D01*
X1694419Y-28770952D02*
X1542038Y-28747143D01*
X1542038Y-28747143D02*
X1427752Y-28747143D01*
X1427752Y-28747143D02*
X1275371Y-28770952D01*
X1275371Y-28770952D02*
X1199180Y-28794762D01*
X1199180Y-28794762D02*
X1122990Y-28842381D01*
X1122990Y-28842381D02*
X1084895Y-28913809D01*
X1084895Y-28913809D02*
X1084895Y-28961428D01*
X1084895Y-28961428D02*
X1122990Y-29032857D01*
X1122990Y-29032857D02*
X1161085Y-29056666D01*
X1084895Y-29223333D02*
X1084895Y-29556666D01*
X1084895Y-29556666D02*
X1884895Y-29342381D01*
D13*
X18475238Y-17635595D02*
X18475238Y-16835595D01*
X18475238Y-16835595D02*
X18284762Y-16835595D01*
X18284762Y-16835595D02*
X18237143Y-16873690D01*
X18237143Y-16873690D02*
X18213333Y-16911785D01*
X18213333Y-16911785D02*
X18189524Y-16987976D01*
X18189524Y-16987976D02*
X18189524Y-17102261D01*
X18189524Y-17102261D02*
X18213333Y-17178452D01*
X18213333Y-17178452D02*
X18237143Y-17216547D01*
X18237143Y-17216547D02*
X18284762Y-17254642D01*
X18284762Y-17254642D02*
X18475238Y-17254642D01*
X18022857Y-16835595D02*
X17903809Y-17635595D01*
X17903809Y-17635595D02*
X17808571Y-17064166D01*
X17808571Y-17064166D02*
X17713333Y-17635595D01*
X17713333Y-17635595D02*
X17594286Y-16835595D01*
X17522857Y-17711785D02*
X17141904Y-17711785D01*
X17022857Y-17216547D02*
X16856190Y-17216547D01*
X16784762Y-17635595D02*
X17022857Y-17635595D01*
X17022857Y-17635595D02*
X17022857Y-16835595D01*
X17022857Y-16835595D02*
X16784762Y-16835595D01*
X16570476Y-17635595D02*
X16570476Y-16835595D01*
X16570476Y-16835595D02*
X16284762Y-17635595D01*
X16284762Y-17635595D02*
X16284762Y-16835595D01*
D11*
X5095237Y-18064895D02*
X4785713Y-18064895D01*
X4785713Y-18064895D02*
X4952380Y-18369657D01*
X4952380Y-18369657D02*
X4880951Y-18369657D01*
X4880951Y-18369657D02*
X4833332Y-18407752D01*
X4833332Y-18407752D02*
X4809523Y-18445847D01*
X4809523Y-18445847D02*
X4785713Y-18522038D01*
X4785713Y-18522038D02*
X4785713Y-18712514D01*
X4785713Y-18712514D02*
X4809523Y-18788704D01*
X4809523Y-18788704D02*
X4833332Y-18826800D01*
X4833332Y-18826800D02*
X4880951Y-18864895D01*
X4880951Y-18864895D02*
X5023808Y-18864895D01*
X5023808Y-18864895D02*
X5071427Y-18826800D01*
X5071427Y-18826800D02*
X5095237Y-18788704D01*
X4619047Y-18331561D02*
X4499999Y-18864895D01*
X4499999Y-18864895D02*
X4380952Y-18331561D01*
X4238095Y-18064895D02*
X3928571Y-18064895D01*
X3928571Y-18064895D02*
X4095238Y-18369657D01*
X4095238Y-18369657D02*
X4023809Y-18369657D01*
X4023809Y-18369657D02*
X3976190Y-18407752D01*
X3976190Y-18407752D02*
X3952381Y-18445847D01*
X3952381Y-18445847D02*
X3928571Y-18522038D01*
X3928571Y-18522038D02*
X3928571Y-18712514D01*
X3928571Y-18712514D02*
X3952381Y-18788704D01*
X3952381Y-18788704D02*
X3976190Y-18826800D01*
X3976190Y-18826800D02*
X4023809Y-18864895D01*
X4023809Y-18864895D02*
X4166666Y-18864895D01*
X4166666Y-18864895D02*
X4214285Y-18826800D01*
X4214285Y-18826800D02*
X4238095Y-18788704D01*
X-9226667Y-28628704D02*
X-9202858Y-28666800D01*
X-9202858Y-28666800D02*
X-9131429Y-28704895D01*
X-9131429Y-28704895D02*
X-9083810Y-28704895D01*
X-9083810Y-28704895D02*
X-9012382Y-28666800D01*
X-9012382Y-28666800D02*
X-8964763Y-28590609D01*
X-8964763Y-28590609D02*
X-8940953Y-28514419D01*
X-8940953Y-28514419D02*
X-8917144Y-28362038D01*
X-8917144Y-28362038D02*
X-8917144Y-28247752D01*
X-8917144Y-28247752D02*
X-8940953Y-28095371D01*
X-8940953Y-28095371D02*
X-8964763Y-28019180D01*
X-8964763Y-28019180D02*
X-9012382Y-27942990D01*
X-9012382Y-27942990D02*
X-9083810Y-27904895D01*
X-9083810Y-27904895D02*
X-9131429Y-27904895D01*
X-9131429Y-27904895D02*
X-9202858Y-27942990D01*
X-9202858Y-27942990D02*
X-9226667Y-27981085D01*
X-9464763Y-28704895D02*
X-9560001Y-28704895D01*
X-9560001Y-28704895D02*
X-9607620Y-28666800D01*
X-9607620Y-28666800D02*
X-9631429Y-28628704D01*
X-9631429Y-28628704D02*
X-9679048Y-28514419D01*
X-9679048Y-28514419D02*
X-9702858Y-28362038D01*
X-9702858Y-28362038D02*
X-9702858Y-28057276D01*
X-9702858Y-28057276D02*
X-9679048Y-27981085D01*
X-9679048Y-27981085D02*
X-9655239Y-27942990D01*
X-9655239Y-27942990D02*
X-9607620Y-27904895D01*
X-9607620Y-27904895D02*
X-9512382Y-27904895D01*
X-9512382Y-27904895D02*
X-9464763Y-27942990D01*
X-9464763Y-27942990D02*
X-9440953Y-27981085D01*
X-9440953Y-27981085D02*
X-9417144Y-28057276D01*
X-9417144Y-28057276D02*
X-9417144Y-28247752D01*
X-9417144Y-28247752D02*
X-9440953Y-28323942D01*
X-9440953Y-28323942D02*
X-9464763Y-28362038D01*
X-9464763Y-28362038D02*
X-9512382Y-28400133D01*
X-9512382Y-28400133D02*
X-9607620Y-28400133D01*
X-9607620Y-28400133D02*
X-9655239Y-28362038D01*
X-9655239Y-28362038D02*
X-9679048Y-28323942D01*
X-9679048Y-28323942D02*
X-9702858Y-28247752D01*
X-9296667Y-22714895D02*
X-9058572Y-22714895D01*
X-9058572Y-22714895D02*
X-9058572Y-21914895D01*
X-9439525Y-21991085D02*
X-9463334Y-21952990D01*
X-9463334Y-21952990D02*
X-9510953Y-21914895D01*
X-9510953Y-21914895D02*
X-9630001Y-21914895D01*
X-9630001Y-21914895D02*
X-9677620Y-21952990D01*
X-9677620Y-21952990D02*
X-9701429Y-21991085D01*
X-9701429Y-21991085D02*
X-9725239Y-22067276D01*
X-9725239Y-22067276D02*
X-9725239Y-22143466D01*
X-9725239Y-22143466D02*
X-9701429Y-22257752D01*
X-9701429Y-22257752D02*
X-9415715Y-22714895D01*
X-9415715Y-22714895D02*
X-9725239Y-22714895D01*
X-7388572Y-25978704D02*
X-7364763Y-26016800D01*
X-7364763Y-26016800D02*
X-7293334Y-26054895D01*
X-7293334Y-26054895D02*
X-7245715Y-26054895D01*
X-7245715Y-26054895D02*
X-7174287Y-26016800D01*
X-7174287Y-26016800D02*
X-7126668Y-25940609D01*
X-7126668Y-25940609D02*
X-7102858Y-25864419D01*
X-7102858Y-25864419D02*
X-7079049Y-25712038D01*
X-7079049Y-25712038D02*
X-7079049Y-25597752D01*
X-7079049Y-25597752D02*
X-7102858Y-25445371D01*
X-7102858Y-25445371D02*
X-7126668Y-25369180D01*
X-7126668Y-25369180D02*
X-7174287Y-25292990D01*
X-7174287Y-25292990D02*
X-7245715Y-25254895D01*
X-7245715Y-25254895D02*
X-7293334Y-25254895D01*
X-7293334Y-25254895D02*
X-7364763Y-25292990D01*
X-7364763Y-25292990D02*
X-7388572Y-25331085D01*
X-7864763Y-26054895D02*
X-7579049Y-26054895D01*
X-7721906Y-26054895D02*
X-7721906Y-25254895D01*
X-7721906Y-25254895D02*
X-7674287Y-25369180D01*
X-7674287Y-25369180D02*
X-7626668Y-25445371D01*
X-7626668Y-25445371D02*
X-7579049Y-25483466D01*
X-8031429Y-25254895D02*
X-8340953Y-25254895D01*
X-8340953Y-25254895D02*
X-8174286Y-25559657D01*
X-8174286Y-25559657D02*
X-8245715Y-25559657D01*
X-8245715Y-25559657D02*
X-8293334Y-25597752D01*
X-8293334Y-25597752D02*
X-8317143Y-25635847D01*
X-8317143Y-25635847D02*
X-8340953Y-25712038D01*
X-8340953Y-25712038D02*
X-8340953Y-25902514D01*
X-8340953Y-25902514D02*
X-8317143Y-25978704D01*
X-8317143Y-25978704D02*
X-8293334Y-26016800D01*
X-8293334Y-26016800D02*
X-8245715Y-26054895D01*
X-8245715Y-26054895D02*
X-8102858Y-26054895D01*
X-8102858Y-26054895D02*
X-8055239Y-26016800D01*
X-8055239Y-26016800D02*
X-8031429Y-25978704D01*
X-5158572Y-27358704D02*
X-5134763Y-27396800D01*
X-5134763Y-27396800D02*
X-5063334Y-27434895D01*
X-5063334Y-27434895D02*
X-5015715Y-27434895D01*
X-5015715Y-27434895D02*
X-4944287Y-27396800D01*
X-4944287Y-27396800D02*
X-4896668Y-27320609D01*
X-4896668Y-27320609D02*
X-4872858Y-27244419D01*
X-4872858Y-27244419D02*
X-4849049Y-27092038D01*
X-4849049Y-27092038D02*
X-4849049Y-26977752D01*
X-4849049Y-26977752D02*
X-4872858Y-26825371D01*
X-4872858Y-26825371D02*
X-4896668Y-26749180D01*
X-4896668Y-26749180D02*
X-4944287Y-26672990D01*
X-4944287Y-26672990D02*
X-5015715Y-26634895D01*
X-5015715Y-26634895D02*
X-5063334Y-26634895D01*
X-5063334Y-26634895D02*
X-5134763Y-26672990D01*
X-5134763Y-26672990D02*
X-5158572Y-26711085D01*
X-5634763Y-27434895D02*
X-5349049Y-27434895D01*
X-5491906Y-27434895D02*
X-5491906Y-26634895D01*
X-5491906Y-26634895D02*
X-5444287Y-26749180D01*
X-5444287Y-26749180D02*
X-5396668Y-26825371D01*
X-5396668Y-26825371D02*
X-5349049Y-26863466D01*
X-5944286Y-26634895D02*
X-5991905Y-26634895D01*
X-5991905Y-26634895D02*
X-6039524Y-26672990D01*
X-6039524Y-26672990D02*
X-6063334Y-26711085D01*
X-6063334Y-26711085D02*
X-6087143Y-26787276D01*
X-6087143Y-26787276D02*
X-6110953Y-26939657D01*
X-6110953Y-26939657D02*
X-6110953Y-27130133D01*
X-6110953Y-27130133D02*
X-6087143Y-27282514D01*
X-6087143Y-27282514D02*
X-6063334Y-27358704D01*
X-6063334Y-27358704D02*
X-6039524Y-27396800D01*
X-6039524Y-27396800D02*
X-5991905Y-27434895D01*
X-5991905Y-27434895D02*
X-5944286Y-27434895D01*
X-5944286Y-27434895D02*
X-5896667Y-27396800D01*
X-5896667Y-27396800D02*
X-5872858Y-27358704D01*
X-5872858Y-27358704D02*
X-5849048Y-27282514D01*
X-5849048Y-27282514D02*
X-5825239Y-27130133D01*
X-5825239Y-27130133D02*
X-5825239Y-26939657D01*
X-5825239Y-26939657D02*
X-5849048Y-26787276D01*
X-5849048Y-26787276D02*
X-5872858Y-26711085D01*
X-5872858Y-26711085D02*
X-5896667Y-26672990D01*
X-5896667Y-26672990D02*
X-5944286Y-26634895D01*
X-8201296Y-36458571D02*
X-8163200Y-36434762D01*
X-8163200Y-36434762D02*
X-8125105Y-36363333D01*
X-8125105Y-36363333D02*
X-8125105Y-36315714D01*
X-8125105Y-36315714D02*
X-8163200Y-36244286D01*
X-8163200Y-36244286D02*
X-8239391Y-36196667D01*
X-8239391Y-36196667D02*
X-8315581Y-36172857D01*
X-8315581Y-36172857D02*
X-8467962Y-36149048D01*
X-8467962Y-36149048D02*
X-8582248Y-36149048D01*
X-8582248Y-36149048D02*
X-8734629Y-36172857D01*
X-8734629Y-36172857D02*
X-8810820Y-36196667D01*
X-8810820Y-36196667D02*
X-8887010Y-36244286D01*
X-8887010Y-36244286D02*
X-8925105Y-36315714D01*
X-8925105Y-36315714D02*
X-8925105Y-36363333D01*
X-8925105Y-36363333D02*
X-8887010Y-36434762D01*
X-8887010Y-36434762D02*
X-8848915Y-36458571D01*
X-8125105Y-36934762D02*
X-8125105Y-36649048D01*
X-8125105Y-36791905D02*
X-8925105Y-36791905D01*
X-8925105Y-36791905D02*
X-8810820Y-36744286D01*
X-8810820Y-36744286D02*
X-8734629Y-36696667D01*
X-8734629Y-36696667D02*
X-8696534Y-36649048D01*
X-8582248Y-37220476D02*
X-8620343Y-37172857D01*
X-8620343Y-37172857D02*
X-8658439Y-37149047D01*
X-8658439Y-37149047D02*
X-8734629Y-37125238D01*
X-8734629Y-37125238D02*
X-8772724Y-37125238D01*
X-8772724Y-37125238D02*
X-8848915Y-37149047D01*
X-8848915Y-37149047D02*
X-8887010Y-37172857D01*
X-8887010Y-37172857D02*
X-8925105Y-37220476D01*
X-8925105Y-37220476D02*
X-8925105Y-37315714D01*
X-8925105Y-37315714D02*
X-8887010Y-37363333D01*
X-8887010Y-37363333D02*
X-8848915Y-37387142D01*
X-8848915Y-37387142D02*
X-8772724Y-37410952D01*
X-8772724Y-37410952D02*
X-8734629Y-37410952D01*
X-8734629Y-37410952D02*
X-8658439Y-37387142D01*
X-8658439Y-37387142D02*
X-8620343Y-37363333D01*
X-8620343Y-37363333D02*
X-8582248Y-37315714D01*
X-8582248Y-37315714D02*
X-8582248Y-37220476D01*
X-8582248Y-37220476D02*
X-8544153Y-37172857D01*
X-8544153Y-37172857D02*
X-8506058Y-37149047D01*
X-8506058Y-37149047D02*
X-8429867Y-37125238D01*
X-8429867Y-37125238D02*
X-8277486Y-37125238D01*
X-8277486Y-37125238D02*
X-8201296Y-37149047D01*
X-8201296Y-37149047D02*
X-8163200Y-37172857D01*
X-8163200Y-37172857D02*
X-8125105Y-37220476D01*
X-8125105Y-37220476D02*
X-8125105Y-37315714D01*
X-8125105Y-37315714D02*
X-8163200Y-37363333D01*
X-8163200Y-37363333D02*
X-8201296Y-37387142D01*
X-8201296Y-37387142D02*
X-8277486Y-37410952D01*
X-8277486Y-37410952D02*
X-8429867Y-37410952D01*
X-8429867Y-37410952D02*
X-8506058Y-37387142D01*
X-8506058Y-37387142D02*
X-8544153Y-37363333D01*
X-8544153Y-37363333D02*
X-8582248Y-37315714D01*
X-10633296Y-31428571D02*
X-10595200Y-31404762D01*
X-10595200Y-31404762D02*
X-10557105Y-31333333D01*
X-10557105Y-31333333D02*
X-10557105Y-31285714D01*
X-10557105Y-31285714D02*
X-10595200Y-31214286D01*
X-10595200Y-31214286D02*
X-10671391Y-31166667D01*
X-10671391Y-31166667D02*
X-10747581Y-31142857D01*
X-10747581Y-31142857D02*
X-10899962Y-31119048D01*
X-10899962Y-31119048D02*
X-11014248Y-31119048D01*
X-11014248Y-31119048D02*
X-11166629Y-31142857D01*
X-11166629Y-31142857D02*
X-11242820Y-31166667D01*
X-11242820Y-31166667D02*
X-11319010Y-31214286D01*
X-11319010Y-31214286D02*
X-11357105Y-31285714D01*
X-11357105Y-31285714D02*
X-11357105Y-31333333D01*
X-11357105Y-31333333D02*
X-11319010Y-31404762D01*
X-11319010Y-31404762D02*
X-11280915Y-31428571D01*
X-11280915Y-31619048D02*
X-11319010Y-31642857D01*
X-11319010Y-31642857D02*
X-11357105Y-31690476D01*
X-11357105Y-31690476D02*
X-11357105Y-31809524D01*
X-11357105Y-31809524D02*
X-11319010Y-31857143D01*
X-11319010Y-31857143D02*
X-11280915Y-31880952D01*
X-11280915Y-31880952D02*
X-11204724Y-31904762D01*
X-11204724Y-31904762D02*
X-11128534Y-31904762D01*
X-11128534Y-31904762D02*
X-11014248Y-31880952D01*
X-11014248Y-31880952D02*
X-10557105Y-31595238D01*
X-10557105Y-31595238D02*
X-10557105Y-31904762D01*
X-11014248Y-32190476D02*
X-11052343Y-32142857D01*
X-11052343Y-32142857D02*
X-11090439Y-32119047D01*
X-11090439Y-32119047D02*
X-11166629Y-32095238D01*
X-11166629Y-32095238D02*
X-11204724Y-32095238D01*
X-11204724Y-32095238D02*
X-11280915Y-32119047D01*
X-11280915Y-32119047D02*
X-11319010Y-32142857D01*
X-11319010Y-32142857D02*
X-11357105Y-32190476D01*
X-11357105Y-32190476D02*
X-11357105Y-32285714D01*
X-11357105Y-32285714D02*
X-11319010Y-32333333D01*
X-11319010Y-32333333D02*
X-11280915Y-32357142D01*
X-11280915Y-32357142D02*
X-11204724Y-32380952D01*
X-11204724Y-32380952D02*
X-11166629Y-32380952D01*
X-11166629Y-32380952D02*
X-11090439Y-32357142D01*
X-11090439Y-32357142D02*
X-11052343Y-32333333D01*
X-11052343Y-32333333D02*
X-11014248Y-32285714D01*
X-11014248Y-32285714D02*
X-11014248Y-32190476D01*
X-11014248Y-32190476D02*
X-10976153Y-32142857D01*
X-10976153Y-32142857D02*
X-10938058Y-32119047D01*
X-10938058Y-32119047D02*
X-10861867Y-32095238D01*
X-10861867Y-32095238D02*
X-10709486Y-32095238D01*
X-10709486Y-32095238D02*
X-10633296Y-32119047D01*
X-10633296Y-32119047D02*
X-10595200Y-32142857D01*
X-10595200Y-32142857D02*
X-10557105Y-32190476D01*
X-10557105Y-32190476D02*
X-10557105Y-32285714D01*
X-10557105Y-32285714D02*
X-10595200Y-32333333D01*
X-10595200Y-32333333D02*
X-10633296Y-32357142D01*
X-10633296Y-32357142D02*
X-10709486Y-32380952D01*
X-10709486Y-32380952D02*
X-10861867Y-32380952D01*
X-10861867Y-32380952D02*
X-10938058Y-32357142D01*
X-10938058Y-32357142D02*
X-10976153Y-32333333D01*
X-10976153Y-32333333D02*
X-11014248Y-32285714D01*
D13*
X8935237Y-16073595D02*
X8625713Y-16073595D01*
X8625713Y-16073595D02*
X8792380Y-16378357D01*
X8792380Y-16378357D02*
X8720951Y-16378357D01*
X8720951Y-16378357D02*
X8673332Y-16416452D01*
X8673332Y-16416452D02*
X8649523Y-16454547D01*
X8649523Y-16454547D02*
X8625713Y-16530738D01*
X8625713Y-16530738D02*
X8625713Y-16721214D01*
X8625713Y-16721214D02*
X8649523Y-16797404D01*
X8649523Y-16797404D02*
X8673332Y-16835500D01*
X8673332Y-16835500D02*
X8720951Y-16873595D01*
X8720951Y-16873595D02*
X8863808Y-16873595D01*
X8863808Y-16873595D02*
X8911427Y-16835500D01*
X8911427Y-16835500D02*
X8935237Y-16797404D01*
X8459047Y-16340261D02*
X8339999Y-16873595D01*
X8339999Y-16873595D02*
X8220952Y-16340261D01*
X8078095Y-16073595D02*
X7768571Y-16073595D01*
X7768571Y-16073595D02*
X7935238Y-16378357D01*
X7935238Y-16378357D02*
X7863809Y-16378357D01*
X7863809Y-16378357D02*
X7816190Y-16416452D01*
X7816190Y-16416452D02*
X7792381Y-16454547D01*
X7792381Y-16454547D02*
X7768571Y-16530738D01*
X7768571Y-16530738D02*
X7768571Y-16721214D01*
X7768571Y-16721214D02*
X7792381Y-16797404D01*
X7792381Y-16797404D02*
X7816190Y-16835500D01*
X7816190Y-16835500D02*
X7863809Y-16873595D01*
X7863809Y-16873595D02*
X8006666Y-16873595D01*
X8006666Y-16873595D02*
X8054285Y-16835500D01*
X8054285Y-16835500D02*
X8078095Y-16797404D01*
D11*
X9799047Y-13318895D02*
X9799047Y-12518895D01*
X9799047Y-12518895D02*
X9679999Y-12518895D01*
X9679999Y-12518895D02*
X9608571Y-12556990D01*
X9608571Y-12556990D02*
X9560952Y-12633180D01*
X9560952Y-12633180D02*
X9537142Y-12709371D01*
X9537142Y-12709371D02*
X9513333Y-12861752D01*
X9513333Y-12861752D02*
X9513333Y-12976038D01*
X9513333Y-12976038D02*
X9537142Y-13128419D01*
X9537142Y-13128419D02*
X9560952Y-13204609D01*
X9560952Y-13204609D02*
X9608571Y-13280800D01*
X9608571Y-13280800D02*
X9679999Y-13318895D01*
X9679999Y-13318895D02*
X9799047Y-13318895D01*
X9084761Y-13318895D02*
X9084761Y-12899847D01*
X9084761Y-12899847D02*
X9108571Y-12823657D01*
X9108571Y-12823657D02*
X9156190Y-12785561D01*
X9156190Y-12785561D02*
X9251428Y-12785561D01*
X9251428Y-12785561D02*
X9299047Y-12823657D01*
X9084761Y-13280800D02*
X9132380Y-13318895D01*
X9132380Y-13318895D02*
X9251428Y-13318895D01*
X9251428Y-13318895D02*
X9299047Y-13280800D01*
X9299047Y-13280800D02*
X9322856Y-13204609D01*
X9322856Y-13204609D02*
X9322856Y-13128419D01*
X9322856Y-13128419D02*
X9299047Y-13052228D01*
X9299047Y-13052228D02*
X9251428Y-13014133D01*
X9251428Y-13014133D02*
X9132380Y-13014133D01*
X9132380Y-13014133D02*
X9084761Y-12976038D01*
X8918094Y-12785561D02*
X8727618Y-12785561D01*
X8846666Y-12518895D02*
X8846666Y-13204609D01*
X8846666Y-13204609D02*
X8822856Y-13280800D01*
X8822856Y-13280800D02*
X8775237Y-13318895D01*
X8775237Y-13318895D02*
X8727618Y-13318895D01*
X8346666Y-13318895D02*
X8346666Y-12899847D01*
X8346666Y-12899847D02*
X8370476Y-12823657D01*
X8370476Y-12823657D02*
X8418095Y-12785561D01*
X8418095Y-12785561D02*
X8513333Y-12785561D01*
X8513333Y-12785561D02*
X8560952Y-12823657D01*
X8346666Y-13280800D02*
X8394285Y-13318895D01*
X8394285Y-13318895D02*
X8513333Y-13318895D01*
X8513333Y-13318895D02*
X8560952Y-13280800D01*
X8560952Y-13280800D02*
X8584761Y-13204609D01*
X8584761Y-13204609D02*
X8584761Y-13128419D01*
X8584761Y-13128419D02*
X8560952Y-13052228D01*
X8560952Y-13052228D02*
X8513333Y-13014133D01*
X8513333Y-13014133D02*
X8394285Y-13014133D01*
X8394285Y-13014133D02*
X8346666Y-12976038D01*
X8227619Y-13395085D02*
X7846666Y-13395085D01*
X7441905Y-13318895D02*
X7608571Y-12937942D01*
X7727619Y-13318895D02*
X7727619Y-12518895D01*
X7727619Y-12518895D02*
X7537143Y-12518895D01*
X7537143Y-12518895D02*
X7489524Y-12556990D01*
X7489524Y-12556990D02*
X7465714Y-12595085D01*
X7465714Y-12595085D02*
X7441905Y-12671276D01*
X7441905Y-12671276D02*
X7441905Y-12785561D01*
X7441905Y-12785561D02*
X7465714Y-12861752D01*
X7465714Y-12861752D02*
X7489524Y-12899847D01*
X7489524Y-12899847D02*
X7537143Y-12937942D01*
X7537143Y-12937942D02*
X7727619Y-12937942D01*
X7275238Y-13318895D02*
X7013333Y-12785561D01*
X7275238Y-12785561D02*
X7013333Y-13318895D01*
X-11903296Y-32190571D02*
X-11865200Y-32166762D01*
X-11865200Y-32166762D02*
X-11827105Y-32095333D01*
X-11827105Y-32095333D02*
X-11827105Y-32047714D01*
X-11827105Y-32047714D02*
X-11865200Y-31976286D01*
X-11865200Y-31976286D02*
X-11941391Y-31928667D01*
X-11941391Y-31928667D02*
X-12017581Y-31904857D01*
X-12017581Y-31904857D02*
X-12169962Y-31881048D01*
X-12169962Y-31881048D02*
X-12284248Y-31881048D01*
X-12284248Y-31881048D02*
X-12436629Y-31904857D01*
X-12436629Y-31904857D02*
X-12512820Y-31928667D01*
X-12512820Y-31928667D02*
X-12589010Y-31976286D01*
X-12589010Y-31976286D02*
X-12627105Y-32047714D01*
X-12627105Y-32047714D02*
X-12627105Y-32095333D01*
X-12627105Y-32095333D02*
X-12589010Y-32166762D01*
X-12589010Y-32166762D02*
X-12550915Y-32190571D01*
X-12627105Y-32357238D02*
X-12627105Y-32666762D01*
X-12627105Y-32666762D02*
X-12322343Y-32500095D01*
X-12322343Y-32500095D02*
X-12322343Y-32571524D01*
X-12322343Y-32571524D02*
X-12284248Y-32619143D01*
X-12284248Y-32619143D02*
X-12246153Y-32642952D01*
X-12246153Y-32642952D02*
X-12169962Y-32666762D01*
X-12169962Y-32666762D02*
X-11979486Y-32666762D01*
X-11979486Y-32666762D02*
X-11903296Y-32642952D01*
X-11903296Y-32642952D02*
X-11865200Y-32619143D01*
X-11865200Y-32619143D02*
X-11827105Y-32571524D01*
X-11827105Y-32571524D02*
X-11827105Y-32428667D01*
X-11827105Y-32428667D02*
X-11865200Y-32381048D01*
X-11865200Y-32381048D02*
X-11903296Y-32357238D01*
X-11827105Y-33142952D02*
X-11827105Y-32857238D01*
X-11827105Y-33000095D02*
X-12627105Y-33000095D01*
X-12627105Y-33000095D02*
X-12512820Y-32952476D01*
X-12512820Y-32952476D02*
X-12436629Y-32904857D01*
X-12436629Y-32904857D02*
X-12398534Y-32857238D01*
X-6418572Y-24448704D02*
X-6394763Y-24486800D01*
X-6394763Y-24486800D02*
X-6323334Y-24524895D01*
X-6323334Y-24524895D02*
X-6275715Y-24524895D01*
X-6275715Y-24524895D02*
X-6204287Y-24486800D01*
X-6204287Y-24486800D02*
X-6156668Y-24410609D01*
X-6156668Y-24410609D02*
X-6132858Y-24334419D01*
X-6132858Y-24334419D02*
X-6109049Y-24182038D01*
X-6109049Y-24182038D02*
X-6109049Y-24067752D01*
X-6109049Y-24067752D02*
X-6132858Y-23915371D01*
X-6132858Y-23915371D02*
X-6156668Y-23839180D01*
X-6156668Y-23839180D02*
X-6204287Y-23762990D01*
X-6204287Y-23762990D02*
X-6275715Y-23724895D01*
X-6275715Y-23724895D02*
X-6323334Y-23724895D01*
X-6323334Y-23724895D02*
X-6394763Y-23762990D01*
X-6394763Y-23762990D02*
X-6418572Y-23801085D01*
X-6609049Y-23801085D02*
X-6632858Y-23762990D01*
X-6632858Y-23762990D02*
X-6680477Y-23724895D01*
X-6680477Y-23724895D02*
X-6799525Y-23724895D01*
X-6799525Y-23724895D02*
X-6847144Y-23762990D01*
X-6847144Y-23762990D02*
X-6870953Y-23801085D01*
X-6870953Y-23801085D02*
X-6894763Y-23877276D01*
X-6894763Y-23877276D02*
X-6894763Y-23953466D01*
X-6894763Y-23953466D02*
X-6870953Y-24067752D01*
X-6870953Y-24067752D02*
X-6585239Y-24524895D01*
X-6585239Y-24524895D02*
X-6894763Y-24524895D01*
X-7204286Y-23724895D02*
X-7251905Y-23724895D01*
X-7251905Y-23724895D02*
X-7299524Y-23762990D01*
X-7299524Y-23762990D02*
X-7323334Y-23801085D01*
X-7323334Y-23801085D02*
X-7347143Y-23877276D01*
X-7347143Y-23877276D02*
X-7370953Y-24029657D01*
X-7370953Y-24029657D02*
X-7370953Y-24220133D01*
X-7370953Y-24220133D02*
X-7347143Y-24372514D01*
X-7347143Y-24372514D02*
X-7323334Y-24448704D01*
X-7323334Y-24448704D02*
X-7299524Y-24486800D01*
X-7299524Y-24486800D02*
X-7251905Y-24524895D01*
X-7251905Y-24524895D02*
X-7204286Y-24524895D01*
X-7204286Y-24524895D02*
X-7156667Y-24486800D01*
X-7156667Y-24486800D02*
X-7132858Y-24448704D01*
X-7132858Y-24448704D02*
X-7109048Y-24372514D01*
X-7109048Y-24372514D02*
X-7085239Y-24220133D01*
X-7085239Y-24220133D02*
X-7085239Y-24029657D01*
X-7085239Y-24029657D02*
X-7109048Y-23877276D01*
X-7109048Y-23877276D02*
X-7132858Y-23801085D01*
X-7132858Y-23801085D02*
X-7156667Y-23762990D01*
X-7156667Y-23762990D02*
X-7204286Y-23724895D01*
X-9221296Y-29878571D02*
X-9183200Y-29854762D01*
X-9183200Y-29854762D02*
X-9145105Y-29783333D01*
X-9145105Y-29783333D02*
X-9145105Y-29735714D01*
X-9145105Y-29735714D02*
X-9183200Y-29664286D01*
X-9183200Y-29664286D02*
X-9259391Y-29616667D01*
X-9259391Y-29616667D02*
X-9335581Y-29592857D01*
X-9335581Y-29592857D02*
X-9487962Y-29569048D01*
X-9487962Y-29569048D02*
X-9602248Y-29569048D01*
X-9602248Y-29569048D02*
X-9754629Y-29592857D01*
X-9754629Y-29592857D02*
X-9830820Y-29616667D01*
X-9830820Y-29616667D02*
X-9907010Y-29664286D01*
X-9907010Y-29664286D02*
X-9945105Y-29735714D01*
X-9945105Y-29735714D02*
X-9945105Y-29783333D01*
X-9945105Y-29783333D02*
X-9907010Y-29854762D01*
X-9907010Y-29854762D02*
X-9868915Y-29878571D01*
X-9145105Y-30354762D02*
X-9145105Y-30069048D01*
X-9145105Y-30211905D02*
X-9945105Y-30211905D01*
X-9945105Y-30211905D02*
X-9830820Y-30164286D01*
X-9830820Y-30164286D02*
X-9754629Y-30116667D01*
X-9754629Y-30116667D02*
X-9716534Y-30069048D01*
X-9945105Y-30783333D02*
X-9945105Y-30688095D01*
X-9945105Y-30688095D02*
X-9907010Y-30640476D01*
X-9907010Y-30640476D02*
X-9868915Y-30616666D01*
X-9868915Y-30616666D02*
X-9754629Y-30569047D01*
X-9754629Y-30569047D02*
X-9602248Y-30545238D01*
X-9602248Y-30545238D02*
X-9297486Y-30545238D01*
X-9297486Y-30545238D02*
X-9221296Y-30569047D01*
X-9221296Y-30569047D02*
X-9183200Y-30592857D01*
X-9183200Y-30592857D02*
X-9145105Y-30640476D01*
X-9145105Y-30640476D02*
X-9145105Y-30735714D01*
X-9145105Y-30735714D02*
X-9183200Y-30783333D01*
X-9183200Y-30783333D02*
X-9221296Y-30807142D01*
X-9221296Y-30807142D02*
X-9297486Y-30830952D01*
X-9297486Y-30830952D02*
X-9487962Y-30830952D01*
X-9487962Y-30830952D02*
X-9564153Y-30807142D01*
X-9564153Y-30807142D02*
X-9602248Y-30783333D01*
X-9602248Y-30783333D02*
X-9640343Y-30735714D01*
X-9640343Y-30735714D02*
X-9640343Y-30640476D01*
X-9640343Y-30640476D02*
X-9602248Y-30592857D01*
X-9602248Y-30592857D02*
X-9564153Y-30569047D01*
X-9564153Y-30569047D02*
X-9487962Y-30545238D01*
X-2328095Y-38816057D02*
X-2328095Y-38435104D01*
X-2494761Y-39235104D02*
X-2328095Y-38816057D01*
X-2328095Y-38816057D02*
X-2161428Y-39235104D01*
X-1732857Y-38435104D02*
X-2018571Y-38435104D01*
X-1875714Y-38435104D02*
X-1875714Y-39235104D01*
X-1875714Y-39235104D02*
X-1923333Y-39120819D01*
X-1923333Y-39120819D02*
X-1970952Y-39044628D01*
X-1970952Y-39044628D02*
X-2018571Y-39006533D01*
D13*
X-2342858Y-35654809D02*
X-2057144Y-35654809D01*
X-2200001Y-35654809D02*
X-2200001Y-35154809D01*
X-2200001Y-35154809D02*
X-2152382Y-35226238D01*
X-2152382Y-35226238D02*
X-2104763Y-35273857D01*
X-2104763Y-35273857D02*
X-2057144Y-35297666D01*
D11*
X-9696667Y-26074895D02*
X-9530001Y-25693942D01*
X-9410953Y-26074895D02*
X-9410953Y-25274895D01*
X-9410953Y-25274895D02*
X-9601429Y-25274895D01*
X-9601429Y-25274895D02*
X-9649048Y-25312990D01*
X-9649048Y-25312990D02*
X-9672858Y-25351085D01*
X-9672858Y-25351085D02*
X-9696667Y-25427276D01*
X-9696667Y-25427276D02*
X-9696667Y-25541561D01*
X-9696667Y-25541561D02*
X-9672858Y-25617752D01*
X-9672858Y-25617752D02*
X-9649048Y-25655847D01*
X-9649048Y-25655847D02*
X-9601429Y-25693942D01*
X-9601429Y-25693942D02*
X-9410953Y-25693942D01*
X-9982382Y-25617752D02*
X-9934763Y-25579657D01*
X-9934763Y-25579657D02*
X-9910953Y-25541561D01*
X-9910953Y-25541561D02*
X-9887144Y-25465371D01*
X-9887144Y-25465371D02*
X-9887144Y-25427276D01*
X-9887144Y-25427276D02*
X-9910953Y-25351085D01*
X-9910953Y-25351085D02*
X-9934763Y-25312990D01*
X-9934763Y-25312990D02*
X-9982382Y-25274895D01*
X-9982382Y-25274895D02*
X-10077620Y-25274895D01*
X-10077620Y-25274895D02*
X-10125239Y-25312990D01*
X-10125239Y-25312990D02*
X-10149048Y-25351085D01*
X-10149048Y-25351085D02*
X-10172858Y-25427276D01*
X-10172858Y-25427276D02*
X-10172858Y-25465371D01*
X-10172858Y-25465371D02*
X-10149048Y-25541561D01*
X-10149048Y-25541561D02*
X-10125239Y-25579657D01*
X-10125239Y-25579657D02*
X-10077620Y-25617752D01*
X-10077620Y-25617752D02*
X-9982382Y-25617752D01*
X-9982382Y-25617752D02*
X-9934763Y-25655847D01*
X-9934763Y-25655847D02*
X-9910953Y-25693942D01*
X-9910953Y-25693942D02*
X-9887144Y-25770133D01*
X-9887144Y-25770133D02*
X-9887144Y-25922514D01*
X-9887144Y-25922514D02*
X-9910953Y-25998704D01*
X-9910953Y-25998704D02*
X-9934763Y-26036800D01*
X-9934763Y-26036800D02*
X-9982382Y-26074895D01*
X-9982382Y-26074895D02*
X-10077620Y-26074895D01*
X-10077620Y-26074895D02*
X-10125239Y-26036800D01*
X-10125239Y-26036800D02*
X-10149048Y-25998704D01*
X-10149048Y-25998704D02*
X-10172858Y-25922514D01*
X-10172858Y-25922514D02*
X-10172858Y-25770133D01*
X-10172858Y-25770133D02*
X-10149048Y-25693942D01*
X-10149048Y-25693942D02*
X-10125239Y-25655847D01*
X-10125239Y-25655847D02*
X-10077620Y-25617752D01*
X1951428Y-38068704D02*
X1975237Y-38106800D01*
X1975237Y-38106800D02*
X2046666Y-38144895D01*
X2046666Y-38144895D02*
X2094285Y-38144895D01*
X2094285Y-38144895D02*
X2165713Y-38106800D01*
X2165713Y-38106800D02*
X2213332Y-38030609D01*
X2213332Y-38030609D02*
X2237142Y-37954419D01*
X2237142Y-37954419D02*
X2260951Y-37802038D01*
X2260951Y-37802038D02*
X2260951Y-37687752D01*
X2260951Y-37687752D02*
X2237142Y-37535371D01*
X2237142Y-37535371D02*
X2213332Y-37459180D01*
X2213332Y-37459180D02*
X2165713Y-37382990D01*
X2165713Y-37382990D02*
X2094285Y-37344895D01*
X2094285Y-37344895D02*
X2046666Y-37344895D01*
X2046666Y-37344895D02*
X1975237Y-37382990D01*
X1975237Y-37382990D02*
X1951428Y-37421085D01*
X1760951Y-37421085D02*
X1737142Y-37382990D01*
X1737142Y-37382990D02*
X1689523Y-37344895D01*
X1689523Y-37344895D02*
X1570475Y-37344895D01*
X1570475Y-37344895D02*
X1522856Y-37382990D01*
X1522856Y-37382990D02*
X1499047Y-37421085D01*
X1499047Y-37421085D02*
X1475237Y-37497276D01*
X1475237Y-37497276D02*
X1475237Y-37573466D01*
X1475237Y-37573466D02*
X1499047Y-37687752D01*
X1499047Y-37687752D02*
X1784761Y-38144895D01*
X1784761Y-38144895D02*
X1475237Y-38144895D01*
X999047Y-38144895D02*
X1284761Y-38144895D01*
X1141904Y-38144895D02*
X1141904Y-37344895D01*
X1141904Y-37344895D02*
X1189523Y-37459180D01*
X1189523Y-37459180D02*
X1237142Y-37535371D01*
X1237142Y-37535371D02*
X1284761Y-37573466D01*
X-2015105Y-13806666D02*
X-2396058Y-13640000D01*
X-2015105Y-13520952D02*
X-2815105Y-13520952D01*
X-2815105Y-13520952D02*
X-2815105Y-13711428D01*
X-2815105Y-13711428D02*
X-2777010Y-13759047D01*
X-2777010Y-13759047D02*
X-2738915Y-13782857D01*
X-2738915Y-13782857D02*
X-2662724Y-13806666D01*
X-2662724Y-13806666D02*
X-2548439Y-13806666D01*
X-2548439Y-13806666D02*
X-2472248Y-13782857D01*
X-2472248Y-13782857D02*
X-2434153Y-13759047D01*
X-2434153Y-13759047D02*
X-2396058Y-13711428D01*
X-2396058Y-13711428D02*
X-2396058Y-13520952D01*
X-2548439Y-14235238D02*
X-2015105Y-14235238D01*
X-2853200Y-14116190D02*
X-2281772Y-13997143D01*
X-2281772Y-13997143D02*
X-2281772Y-14306666D01*
D14*
X-10787767Y-3950000D02*
X-10462209Y-3950000D01*
X-10787767Y-4970000D02*
X-10462209Y-4970000D01*
X-12734600Y-25400D02*
X-12734600Y2574600D01*
X-12734600Y-2625400D02*
X-12734600Y-1295400D01*
X-11404600Y-2625400D02*
X-12734600Y-2625400D01*
X-10134600Y-25400D02*
X-12734600Y-25400D01*
X-10134600Y-2625400D02*
X-10134600Y-25400D01*
X12785400Y2574600D02*
X-12734600Y2574600D01*
X12785400Y-2625400D02*
X-10134600Y-2625400D01*
X12785400Y-2625400D02*
X12785400Y2574600D01*
X10550000Y-8870000D02*
G75*
G02*
X8650000Y-8870000I-950000J0D01*
G01*
X8650000Y-8870000D02*
G75*
G02*
X10550000Y-8870000I950000J0D01*
G01*
X-10807779Y-5560000D02*
X-10482221Y-5560000D01*
X-10807779Y-6580000D02*
X-10482221Y-6580000D01*
X15440000Y-17470000D02*
G75*
G02*
X13540000Y-17470000I-950000J0D01*
G01*
X13540000Y-17470000D02*
G75*
G02*
X15440000Y-17470000I950000J0D01*
G01*
X260000Y-11150000D02*
G75*
G02*
X-1640000Y-11150000I-950000J0D01*
G01*
X-1640000Y-11150000D02*
G75*
G02*
X260000Y-11150000I950000J0D01*
G01*
X18380000Y-15680000D02*
G75*
G02*
X16480000Y-15680000I-950000J0D01*
G01*
X16480000Y-15680000D02*
G75*
G02*
X18380000Y-15680000I950000J0D01*
G01*
X5450000Y-16750000D02*
G75*
G02*
X3550000Y-16750000I-950000J0D01*
G01*
X3550000Y-16750000D02*
G75*
G02*
X5450000Y-16750000I950000J0D01*
G01*
X-7478578Y-21610000D02*
X-6961422Y-21610000D01*
X-7478578Y-23030000D02*
X-6961422Y-23030000D01*
X-4977221Y-27630000D02*
X-5302779Y-27630000D01*
X-4977221Y-28650000D02*
X-5302779Y-28650000D01*
X9200000Y-14750000D02*
G75*
G02*
X7300000Y-14750000I-950000J0D01*
G01*
X7300000Y-14750000D02*
G75*
G02*
X9200000Y-14750000I950000J0D01*
G01*
X9400000Y-11420000D02*
G75*
G02*
X7500000Y-11420000I-950000J0D01*
G01*
X7500000Y-11420000D02*
G75*
G02*
X9400000Y-11420000I950000J0D01*
G01*
X-9162779Y-23640000D02*
X-8837221Y-23640000D01*
X-9162779Y-24660000D02*
X-8837221Y-24660000D01*
X-2980000Y-35920000D02*
X-2980000Y-38320000D01*
X-1380000Y-35920000D02*
X-2980000Y-35920000D01*
X-1380000Y-38320000D02*
X-1380000Y-35920000D01*
M02*
