G04 #@! TF.GenerationSoftware,KiCad,Pcbnew,8.0.4*
G04 #@! TF.CreationDate,2025-02-25T17:16:13+05:30*
G04 #@! TF.ProjectId,P-1000101_Cicada WiSun,502d3130-3030-4313-9031-5f4369636164,0.1*
G04 #@! TF.SameCoordinates,PX7cee6c0PY3dfd240*
G04 #@! TF.FileFunction,OtherDrawing,Comment*
%FSLAX46Y46*%
G04 Gerber Fmt 4.6, Leading zero omitted, Abs format (unit mm)*
G04 Created by KiCad (PCBNEW 8.0.4) date 2025-02-25 17:16:13*
%MOMM*%
%LPD*%
G01*
G04 APERTURE LIST*
%ADD10C,0.150000*%
%ADD11C,0.100000*%
%ADD12C,0.010000*%
G04 APERTURE END LIST*
D10*
X19253200Y-54127400D02*
X19253199Y-54203601D01*
X-1828800Y-45000000D02*
X19253200Y-45000000D01*
X-780000Y-12410000D02*
X-966600Y-12410000D01*
X38646400Y-37762400D02*
X37300200Y-37762400D01*
X37300200Y-36467000D02*
X38646400Y-36467000D01*
X19253200Y-44958000D02*
X19253200Y-54127400D01*
X26100000Y-37120000D02*
X10250000Y-51610000D01*
X13587397Y-57628266D02*
G75*
G02*
X19253199Y-54203601I3456003J681466D01*
G01*
X-1828800Y-59385200D02*
X14478000Y-59385200D01*
D11*
X-14200000Y-27840000D02*
X-200000Y-27840000D01*
X-200000Y-52840000D01*
X-14200000Y-52840000D01*
X-14200000Y-27840000D01*
D10*
X25880000Y-32850000D02*
X13810000Y-13110000D01*
X38646400Y-36467000D02*
X38646400Y-37762400D01*
D11*
X36020000Y-33640000D02*
X34673800Y-33640000D01*
X34673800Y-32293800D01*
X36020000Y-32293800D01*
X36020000Y-33640000D01*
G36*
X36020000Y-33640000D02*
G01*
X34673800Y-33640000D01*
X34673800Y-32293800D01*
X36020000Y-32293800D01*
X36020000Y-33640000D01*
G37*
D10*
X-8890000Y5080000D02*
X-8890000Y6350000D01*
X-1828800Y-59385200D02*
X-1828800Y-45000000D01*
X37300200Y-37762400D02*
X37300200Y-36492400D01*
X14487813Y-59362990D02*
G75*
G02*
X13589001Y-57607199I2555587J2416190D01*
G01*
D11*
X15286304Y-3119312D02*
X15286304Y-20467512D01*
X-15434996Y-20442112D01*
X-15460396Y-3068512D01*
X15286304Y-3119312D01*
G36*
X15286304Y-3119312D02*
G01*
X15286304Y-20467512D01*
X-15434996Y-20442112D01*
X-15460396Y-3068512D01*
X15286304Y-3119312D01*
G37*
D10*
X26326185Y-34993866D02*
X27088090Y-34993866D01*
X28326185Y-35374819D02*
X28326185Y-34374819D01*
X28326185Y-34374819D02*
X28564280Y-34374819D01*
X28564280Y-34374819D02*
X28707137Y-34422438D01*
X28707137Y-34422438D02*
X28802375Y-34517676D01*
X28802375Y-34517676D02*
X28849994Y-34612914D01*
X28849994Y-34612914D02*
X28897613Y-34803390D01*
X28897613Y-34803390D02*
X28897613Y-34946247D01*
X28897613Y-34946247D02*
X28849994Y-35136723D01*
X28849994Y-35136723D02*
X28802375Y-35231961D01*
X28802375Y-35231961D02*
X28707137Y-35327200D01*
X28707137Y-35327200D02*
X28564280Y-35374819D01*
X28564280Y-35374819D02*
X28326185Y-35374819D01*
X29469042Y-35374819D02*
X29373804Y-35327200D01*
X29373804Y-35327200D02*
X29326185Y-35279580D01*
X29326185Y-35279580D02*
X29278566Y-35184342D01*
X29278566Y-35184342D02*
X29278566Y-34898628D01*
X29278566Y-34898628D02*
X29326185Y-34803390D01*
X29326185Y-34803390D02*
X29373804Y-34755771D01*
X29373804Y-34755771D02*
X29469042Y-34708152D01*
X29469042Y-34708152D02*
X29611899Y-34708152D01*
X29611899Y-34708152D02*
X29707137Y-34755771D01*
X29707137Y-34755771D02*
X29754756Y-34803390D01*
X29754756Y-34803390D02*
X29802375Y-34898628D01*
X29802375Y-34898628D02*
X29802375Y-35184342D01*
X29802375Y-35184342D02*
X29754756Y-35279580D01*
X29754756Y-35279580D02*
X29707137Y-35327200D01*
X29707137Y-35327200D02*
X29611899Y-35374819D01*
X29611899Y-35374819D02*
X29469042Y-35374819D01*
X30992852Y-34708152D02*
X30992852Y-35374819D01*
X30992852Y-34803390D02*
X31040471Y-34755771D01*
X31040471Y-34755771D02*
X31135709Y-34708152D01*
X31135709Y-34708152D02*
X31278566Y-34708152D01*
X31278566Y-34708152D02*
X31373804Y-34755771D01*
X31373804Y-34755771D02*
X31421423Y-34851009D01*
X31421423Y-34851009D02*
X31421423Y-35374819D01*
X32040471Y-35374819D02*
X31945233Y-35327200D01*
X31945233Y-35327200D02*
X31897614Y-35279580D01*
X31897614Y-35279580D02*
X31849995Y-35184342D01*
X31849995Y-35184342D02*
X31849995Y-34898628D01*
X31849995Y-34898628D02*
X31897614Y-34803390D01*
X31897614Y-34803390D02*
X31945233Y-34755771D01*
X31945233Y-34755771D02*
X32040471Y-34708152D01*
X32040471Y-34708152D02*
X32183328Y-34708152D01*
X32183328Y-34708152D02*
X32278566Y-34755771D01*
X32278566Y-34755771D02*
X32326185Y-34803390D01*
X32326185Y-34803390D02*
X32373804Y-34898628D01*
X32373804Y-34898628D02*
X32373804Y-35184342D01*
X32373804Y-35184342D02*
X32326185Y-35279580D01*
X32326185Y-35279580D02*
X32278566Y-35327200D01*
X32278566Y-35327200D02*
X32183328Y-35374819D01*
X32183328Y-35374819D02*
X32040471Y-35374819D01*
X32659519Y-34708152D02*
X33040471Y-34708152D01*
X32802376Y-34374819D02*
X32802376Y-35231961D01*
X32802376Y-35231961D02*
X32849995Y-35327200D01*
X32849995Y-35327200D02*
X32945233Y-35374819D01*
X32945233Y-35374819D02*
X33040471Y-35374819D01*
X34135710Y-34708152D02*
X34135710Y-35708152D01*
X34135710Y-34755771D02*
X34230948Y-34708152D01*
X34230948Y-34708152D02*
X34421424Y-34708152D01*
X34421424Y-34708152D02*
X34516662Y-34755771D01*
X34516662Y-34755771D02*
X34564281Y-34803390D01*
X34564281Y-34803390D02*
X34611900Y-34898628D01*
X34611900Y-34898628D02*
X34611900Y-35184342D01*
X34611900Y-35184342D02*
X34564281Y-35279580D01*
X34564281Y-35279580D02*
X34516662Y-35327200D01*
X34516662Y-35327200D02*
X34421424Y-35374819D01*
X34421424Y-35374819D02*
X34230948Y-35374819D01*
X34230948Y-35374819D02*
X34135710Y-35327200D01*
X35183329Y-35374819D02*
X35088091Y-35327200D01*
X35088091Y-35327200D02*
X35040472Y-35231961D01*
X35040472Y-35231961D02*
X35040472Y-34374819D01*
X35992853Y-35374819D02*
X35992853Y-34851009D01*
X35992853Y-34851009D02*
X35945234Y-34755771D01*
X35945234Y-34755771D02*
X35849996Y-34708152D01*
X35849996Y-34708152D02*
X35659520Y-34708152D01*
X35659520Y-34708152D02*
X35564282Y-34755771D01*
X35992853Y-35327200D02*
X35897615Y-35374819D01*
X35897615Y-35374819D02*
X35659520Y-35374819D01*
X35659520Y-35374819D02*
X35564282Y-35327200D01*
X35564282Y-35327200D02*
X35516663Y-35231961D01*
X35516663Y-35231961D02*
X35516663Y-35136723D01*
X35516663Y-35136723D02*
X35564282Y-35041485D01*
X35564282Y-35041485D02*
X35659520Y-34993866D01*
X35659520Y-34993866D02*
X35897615Y-34993866D01*
X35897615Y-34993866D02*
X35992853Y-34946247D01*
X36897615Y-35327200D02*
X36802377Y-35374819D01*
X36802377Y-35374819D02*
X36611901Y-35374819D01*
X36611901Y-35374819D02*
X36516663Y-35327200D01*
X36516663Y-35327200D02*
X36469044Y-35279580D01*
X36469044Y-35279580D02*
X36421425Y-35184342D01*
X36421425Y-35184342D02*
X36421425Y-34898628D01*
X36421425Y-34898628D02*
X36469044Y-34803390D01*
X36469044Y-34803390D02*
X36516663Y-34755771D01*
X36516663Y-34755771D02*
X36611901Y-34708152D01*
X36611901Y-34708152D02*
X36802377Y-34708152D01*
X36802377Y-34708152D02*
X36897615Y-34755771D01*
X37707139Y-35327200D02*
X37611901Y-35374819D01*
X37611901Y-35374819D02*
X37421425Y-35374819D01*
X37421425Y-35374819D02*
X37326187Y-35327200D01*
X37326187Y-35327200D02*
X37278568Y-35231961D01*
X37278568Y-35231961D02*
X37278568Y-34851009D01*
X37278568Y-34851009D02*
X37326187Y-34755771D01*
X37326187Y-34755771D02*
X37421425Y-34708152D01*
X37421425Y-34708152D02*
X37611901Y-34708152D01*
X37611901Y-34708152D02*
X37707139Y-34755771D01*
X37707139Y-34755771D02*
X37754758Y-34851009D01*
X37754758Y-34851009D02*
X37754758Y-34946247D01*
X37754758Y-34946247D02*
X37278568Y-35041485D01*
X39516663Y-35279580D02*
X39469044Y-35327200D01*
X39469044Y-35327200D02*
X39326187Y-35374819D01*
X39326187Y-35374819D02*
X39230949Y-35374819D01*
X39230949Y-35374819D02*
X39088092Y-35327200D01*
X39088092Y-35327200D02*
X38992854Y-35231961D01*
X38992854Y-35231961D02*
X38945235Y-35136723D01*
X38945235Y-35136723D02*
X38897616Y-34946247D01*
X38897616Y-34946247D02*
X38897616Y-34803390D01*
X38897616Y-34803390D02*
X38945235Y-34612914D01*
X38945235Y-34612914D02*
X38992854Y-34517676D01*
X38992854Y-34517676D02*
X39088092Y-34422438D01*
X39088092Y-34422438D02*
X39230949Y-34374819D01*
X39230949Y-34374819D02*
X39326187Y-34374819D01*
X39326187Y-34374819D02*
X39469044Y-34422438D01*
X39469044Y-34422438D02*
X39516663Y-34470057D01*
X40088092Y-35374819D02*
X39992854Y-35327200D01*
X39992854Y-35327200D02*
X39945235Y-35279580D01*
X39945235Y-35279580D02*
X39897616Y-35184342D01*
X39897616Y-35184342D02*
X39897616Y-34898628D01*
X39897616Y-34898628D02*
X39945235Y-34803390D01*
X39945235Y-34803390D02*
X39992854Y-34755771D01*
X39992854Y-34755771D02*
X40088092Y-34708152D01*
X40088092Y-34708152D02*
X40230949Y-34708152D01*
X40230949Y-34708152D02*
X40326187Y-34755771D01*
X40326187Y-34755771D02*
X40373806Y-34803390D01*
X40373806Y-34803390D02*
X40421425Y-34898628D01*
X40421425Y-34898628D02*
X40421425Y-35184342D01*
X40421425Y-35184342D02*
X40373806Y-35279580D01*
X40373806Y-35279580D02*
X40326187Y-35327200D01*
X40326187Y-35327200D02*
X40230949Y-35374819D01*
X40230949Y-35374819D02*
X40088092Y-35374819D01*
X40849997Y-35374819D02*
X40849997Y-34708152D01*
X40849997Y-34803390D02*
X40897616Y-34755771D01*
X40897616Y-34755771D02*
X40992854Y-34708152D01*
X40992854Y-34708152D02*
X41135711Y-34708152D01*
X41135711Y-34708152D02*
X41230949Y-34755771D01*
X41230949Y-34755771D02*
X41278568Y-34851009D01*
X41278568Y-34851009D02*
X41278568Y-35374819D01*
X41278568Y-34851009D02*
X41326187Y-34755771D01*
X41326187Y-34755771D02*
X41421425Y-34708152D01*
X41421425Y-34708152D02*
X41564282Y-34708152D01*
X41564282Y-34708152D02*
X41659521Y-34755771D01*
X41659521Y-34755771D02*
X41707140Y-34851009D01*
X41707140Y-34851009D02*
X41707140Y-35374819D01*
X42183330Y-34708152D02*
X42183330Y-35708152D01*
X42183330Y-34755771D02*
X42278568Y-34708152D01*
X42278568Y-34708152D02*
X42469044Y-34708152D01*
X42469044Y-34708152D02*
X42564282Y-34755771D01*
X42564282Y-34755771D02*
X42611901Y-34803390D01*
X42611901Y-34803390D02*
X42659520Y-34898628D01*
X42659520Y-34898628D02*
X42659520Y-35184342D01*
X42659520Y-35184342D02*
X42611901Y-35279580D01*
X42611901Y-35279580D02*
X42564282Y-35327200D01*
X42564282Y-35327200D02*
X42469044Y-35374819D01*
X42469044Y-35374819D02*
X42278568Y-35374819D01*
X42278568Y-35374819D02*
X42183330Y-35327200D01*
X43230949Y-35374819D02*
X43135711Y-35327200D01*
X43135711Y-35327200D02*
X43088092Y-35279580D01*
X43088092Y-35279580D02*
X43040473Y-35184342D01*
X43040473Y-35184342D02*
X43040473Y-34898628D01*
X43040473Y-34898628D02*
X43088092Y-34803390D01*
X43088092Y-34803390D02*
X43135711Y-34755771D01*
X43135711Y-34755771D02*
X43230949Y-34708152D01*
X43230949Y-34708152D02*
X43373806Y-34708152D01*
X43373806Y-34708152D02*
X43469044Y-34755771D01*
X43469044Y-34755771D02*
X43516663Y-34803390D01*
X43516663Y-34803390D02*
X43564282Y-34898628D01*
X43564282Y-34898628D02*
X43564282Y-35184342D01*
X43564282Y-35184342D02*
X43516663Y-35279580D01*
X43516663Y-35279580D02*
X43469044Y-35327200D01*
X43469044Y-35327200D02*
X43373806Y-35374819D01*
X43373806Y-35374819D02*
X43230949Y-35374819D01*
X43992854Y-34708152D02*
X43992854Y-35374819D01*
X43992854Y-34803390D02*
X44040473Y-34755771D01*
X44040473Y-34755771D02*
X44135711Y-34708152D01*
X44135711Y-34708152D02*
X44278568Y-34708152D01*
X44278568Y-34708152D02*
X44373806Y-34755771D01*
X44373806Y-34755771D02*
X44421425Y-34851009D01*
X44421425Y-34851009D02*
X44421425Y-35374819D01*
X45278568Y-35327200D02*
X45183330Y-35374819D01*
X45183330Y-35374819D02*
X44992854Y-35374819D01*
X44992854Y-35374819D02*
X44897616Y-35327200D01*
X44897616Y-35327200D02*
X44849997Y-35231961D01*
X44849997Y-35231961D02*
X44849997Y-34851009D01*
X44849997Y-34851009D02*
X44897616Y-34755771D01*
X44897616Y-34755771D02*
X44992854Y-34708152D01*
X44992854Y-34708152D02*
X45183330Y-34708152D01*
X45183330Y-34708152D02*
X45278568Y-34755771D01*
X45278568Y-34755771D02*
X45326187Y-34851009D01*
X45326187Y-34851009D02*
X45326187Y-34946247D01*
X45326187Y-34946247D02*
X44849997Y-35041485D01*
X45611902Y-34708152D02*
X45992854Y-34708152D01*
X45754759Y-34374819D02*
X45754759Y-35231961D01*
X45754759Y-35231961D02*
X45802378Y-35327200D01*
X45802378Y-35327200D02*
X45897616Y-35374819D01*
X45897616Y-35374819D02*
X45992854Y-35374819D01*
X46278569Y-35327200D02*
X46373807Y-35374819D01*
X46373807Y-35374819D02*
X46564283Y-35374819D01*
X46564283Y-35374819D02*
X46659521Y-35327200D01*
X46659521Y-35327200D02*
X46707140Y-35231961D01*
X46707140Y-35231961D02*
X46707140Y-35184342D01*
X46707140Y-35184342D02*
X46659521Y-35089104D01*
X46659521Y-35089104D02*
X46564283Y-35041485D01*
X46564283Y-35041485D02*
X46421426Y-35041485D01*
X46421426Y-35041485D02*
X46326188Y-34993866D01*
X46326188Y-34993866D02*
X46278569Y-34898628D01*
X46278569Y-34898628D02*
X46278569Y-34851009D01*
X46278569Y-34851009D02*
X46326188Y-34755771D01*
X46326188Y-34755771D02*
X46421426Y-34708152D01*
X46421426Y-34708152D02*
X46564283Y-34708152D01*
X46564283Y-34708152D02*
X46659521Y-34755771D01*
X47802379Y-34708152D02*
X47992855Y-35374819D01*
X47992855Y-35374819D02*
X48183331Y-34898628D01*
X48183331Y-34898628D02*
X48373807Y-35374819D01*
X48373807Y-35374819D02*
X48564283Y-34708152D01*
X48945236Y-35374819D02*
X48945236Y-34708152D01*
X48945236Y-34374819D02*
X48897617Y-34422438D01*
X48897617Y-34422438D02*
X48945236Y-34470057D01*
X48945236Y-34470057D02*
X48992855Y-34422438D01*
X48992855Y-34422438D02*
X48945236Y-34374819D01*
X48945236Y-34374819D02*
X48945236Y-34470057D01*
X49278569Y-34708152D02*
X49659521Y-34708152D01*
X49421426Y-34374819D02*
X49421426Y-35231961D01*
X49421426Y-35231961D02*
X49469045Y-35327200D01*
X49469045Y-35327200D02*
X49564283Y-35374819D01*
X49564283Y-35374819D02*
X49659521Y-35374819D01*
X49992855Y-35374819D02*
X49992855Y-34374819D01*
X50421426Y-35374819D02*
X50421426Y-34851009D01*
X50421426Y-34851009D02*
X50373807Y-34755771D01*
X50373807Y-34755771D02*
X50278569Y-34708152D01*
X50278569Y-34708152D02*
X50135712Y-34708152D01*
X50135712Y-34708152D02*
X50040474Y-34755771D01*
X50040474Y-34755771D02*
X49992855Y-34803390D01*
X51659522Y-35374819D02*
X51659522Y-34374819D01*
X52088093Y-35374819D02*
X52088093Y-34851009D01*
X52088093Y-34851009D02*
X52040474Y-34755771D01*
X52040474Y-34755771D02*
X51945236Y-34708152D01*
X51945236Y-34708152D02*
X51802379Y-34708152D01*
X51802379Y-34708152D02*
X51707141Y-34755771D01*
X51707141Y-34755771D02*
X51659522Y-34803390D01*
X52564284Y-35374819D02*
X52564284Y-34708152D01*
X52564284Y-34374819D02*
X52516665Y-34422438D01*
X52516665Y-34422438D02*
X52564284Y-34470057D01*
X52564284Y-34470057D02*
X52611903Y-34422438D01*
X52611903Y-34422438D02*
X52564284Y-34374819D01*
X52564284Y-34374819D02*
X52564284Y-34470057D01*
X53469045Y-34708152D02*
X53469045Y-35517676D01*
X53469045Y-35517676D02*
X53421426Y-35612914D01*
X53421426Y-35612914D02*
X53373807Y-35660533D01*
X53373807Y-35660533D02*
X53278569Y-35708152D01*
X53278569Y-35708152D02*
X53135712Y-35708152D01*
X53135712Y-35708152D02*
X53040474Y-35660533D01*
X53469045Y-35327200D02*
X53373807Y-35374819D01*
X53373807Y-35374819D02*
X53183331Y-35374819D01*
X53183331Y-35374819D02*
X53088093Y-35327200D01*
X53088093Y-35327200D02*
X53040474Y-35279580D01*
X53040474Y-35279580D02*
X52992855Y-35184342D01*
X52992855Y-35184342D02*
X52992855Y-34898628D01*
X52992855Y-34898628D02*
X53040474Y-34803390D01*
X53040474Y-34803390D02*
X53088093Y-34755771D01*
X53088093Y-34755771D02*
X53183331Y-34708152D01*
X53183331Y-34708152D02*
X53373807Y-34708152D01*
X53373807Y-34708152D02*
X53469045Y-34755771D01*
X53945236Y-35374819D02*
X53945236Y-34374819D01*
X54373807Y-35374819D02*
X54373807Y-34851009D01*
X54373807Y-34851009D02*
X54326188Y-34755771D01*
X54326188Y-34755771D02*
X54230950Y-34708152D01*
X54230950Y-34708152D02*
X54088093Y-34708152D01*
X54088093Y-34708152D02*
X53992855Y-34755771D01*
X53992855Y-34755771D02*
X53945236Y-34803390D01*
X54707141Y-34708152D02*
X55088093Y-34708152D01*
X54849998Y-34374819D02*
X54849998Y-35231961D01*
X54849998Y-35231961D02*
X54897617Y-35327200D01*
X54897617Y-35327200D02*
X54992855Y-35374819D01*
X54992855Y-35374819D02*
X55088093Y-35374819D01*
X56611903Y-35374819D02*
X56611903Y-34851009D01*
X56611903Y-34851009D02*
X56564284Y-34755771D01*
X56564284Y-34755771D02*
X56469046Y-34708152D01*
X56469046Y-34708152D02*
X56278570Y-34708152D01*
X56278570Y-34708152D02*
X56183332Y-34755771D01*
X56611903Y-35327200D02*
X56516665Y-35374819D01*
X56516665Y-35374819D02*
X56278570Y-35374819D01*
X56278570Y-35374819D02*
X56183332Y-35327200D01*
X56183332Y-35327200D02*
X56135713Y-35231961D01*
X56135713Y-35231961D02*
X56135713Y-35136723D01*
X56135713Y-35136723D02*
X56183332Y-35041485D01*
X56183332Y-35041485D02*
X56278570Y-34993866D01*
X56278570Y-34993866D02*
X56516665Y-34993866D01*
X56516665Y-34993866D02*
X56611903Y-34946247D01*
X57088094Y-35374819D02*
X57088094Y-34374819D01*
X57088094Y-34755771D02*
X57183332Y-34708152D01*
X57183332Y-34708152D02*
X57373808Y-34708152D01*
X57373808Y-34708152D02*
X57469046Y-34755771D01*
X57469046Y-34755771D02*
X57516665Y-34803390D01*
X57516665Y-34803390D02*
X57564284Y-34898628D01*
X57564284Y-34898628D02*
X57564284Y-35184342D01*
X57564284Y-35184342D02*
X57516665Y-35279580D01*
X57516665Y-35279580D02*
X57469046Y-35327200D01*
X57469046Y-35327200D02*
X57373808Y-35374819D01*
X57373808Y-35374819D02*
X57183332Y-35374819D01*
X57183332Y-35374819D02*
X57088094Y-35327200D01*
X58135713Y-35374819D02*
X58040475Y-35327200D01*
X58040475Y-35327200D02*
X57992856Y-35279580D01*
X57992856Y-35279580D02*
X57945237Y-35184342D01*
X57945237Y-35184342D02*
X57945237Y-34898628D01*
X57945237Y-34898628D02*
X57992856Y-34803390D01*
X57992856Y-34803390D02*
X58040475Y-34755771D01*
X58040475Y-34755771D02*
X58135713Y-34708152D01*
X58135713Y-34708152D02*
X58278570Y-34708152D01*
X58278570Y-34708152D02*
X58373808Y-34755771D01*
X58373808Y-34755771D02*
X58421427Y-34803390D01*
X58421427Y-34803390D02*
X58469046Y-34898628D01*
X58469046Y-34898628D02*
X58469046Y-35184342D01*
X58469046Y-35184342D02*
X58421427Y-35279580D01*
X58421427Y-35279580D02*
X58373808Y-35327200D01*
X58373808Y-35327200D02*
X58278570Y-35374819D01*
X58278570Y-35374819D02*
X58135713Y-35374819D01*
X58802380Y-34708152D02*
X59040475Y-35374819D01*
X59040475Y-35374819D02*
X59278570Y-34708152D01*
X60040475Y-35327200D02*
X59945237Y-35374819D01*
X59945237Y-35374819D02*
X59754761Y-35374819D01*
X59754761Y-35374819D02*
X59659523Y-35327200D01*
X59659523Y-35327200D02*
X59611904Y-35231961D01*
X59611904Y-35231961D02*
X59611904Y-34851009D01*
X59611904Y-34851009D02*
X59659523Y-34755771D01*
X59659523Y-34755771D02*
X59754761Y-34708152D01*
X59754761Y-34708152D02*
X59945237Y-34708152D01*
X59945237Y-34708152D02*
X60040475Y-34755771D01*
X60040475Y-34755771D02*
X60088094Y-34851009D01*
X60088094Y-34851009D02*
X60088094Y-34946247D01*
X60088094Y-34946247D02*
X59611904Y-35041485D01*
X61754761Y-34374819D02*
X61278571Y-34374819D01*
X61278571Y-34374819D02*
X61230952Y-34851009D01*
X61230952Y-34851009D02*
X61278571Y-34803390D01*
X61278571Y-34803390D02*
X61373809Y-34755771D01*
X61373809Y-34755771D02*
X61611904Y-34755771D01*
X61611904Y-34755771D02*
X61707142Y-34803390D01*
X61707142Y-34803390D02*
X61754761Y-34851009D01*
X61754761Y-34851009D02*
X61802380Y-34946247D01*
X61802380Y-34946247D02*
X61802380Y-35184342D01*
X61802380Y-35184342D02*
X61754761Y-35279580D01*
X61754761Y-35279580D02*
X61707142Y-35327200D01*
X61707142Y-35327200D02*
X61611904Y-35374819D01*
X61611904Y-35374819D02*
X61373809Y-35374819D01*
X61373809Y-35374819D02*
X61278571Y-35327200D01*
X61278571Y-35327200D02*
X61230952Y-35279580D01*
X62421428Y-34374819D02*
X62516666Y-34374819D01*
X62516666Y-34374819D02*
X62611904Y-34422438D01*
X62611904Y-34422438D02*
X62659523Y-34470057D01*
X62659523Y-34470057D02*
X62707142Y-34565295D01*
X62707142Y-34565295D02*
X62754761Y-34755771D01*
X62754761Y-34755771D02*
X62754761Y-34993866D01*
X62754761Y-34993866D02*
X62707142Y-35184342D01*
X62707142Y-35184342D02*
X62659523Y-35279580D01*
X62659523Y-35279580D02*
X62611904Y-35327200D01*
X62611904Y-35327200D02*
X62516666Y-35374819D01*
X62516666Y-35374819D02*
X62421428Y-35374819D01*
X62421428Y-35374819D02*
X62326190Y-35327200D01*
X62326190Y-35327200D02*
X62278571Y-35279580D01*
X62278571Y-35279580D02*
X62230952Y-35184342D01*
X62230952Y-35184342D02*
X62183333Y-34993866D01*
X62183333Y-34993866D02*
X62183333Y-34755771D01*
X62183333Y-34755771D02*
X62230952Y-34565295D01*
X62230952Y-34565295D02*
X62278571Y-34470057D01*
X62278571Y-34470057D02*
X62326190Y-34422438D01*
X62326190Y-34422438D02*
X62421428Y-34374819D01*
X63183333Y-35374819D02*
X63183333Y-34708152D01*
X63183333Y-34803390D02*
X63230952Y-34755771D01*
X63230952Y-34755771D02*
X63326190Y-34708152D01*
X63326190Y-34708152D02*
X63469047Y-34708152D01*
X63469047Y-34708152D02*
X63564285Y-34755771D01*
X63564285Y-34755771D02*
X63611904Y-34851009D01*
X63611904Y-34851009D02*
X63611904Y-35374819D01*
X63611904Y-34851009D02*
X63659523Y-34755771D01*
X63659523Y-34755771D02*
X63754761Y-34708152D01*
X63754761Y-34708152D02*
X63897618Y-34708152D01*
X63897618Y-34708152D02*
X63992857Y-34755771D01*
X63992857Y-34755771D02*
X64040476Y-34851009D01*
X64040476Y-34851009D02*
X64040476Y-35374819D01*
X64516666Y-35374819D02*
X64516666Y-34708152D01*
X64516666Y-34803390D02*
X64564285Y-34755771D01*
X64564285Y-34755771D02*
X64659523Y-34708152D01*
X64659523Y-34708152D02*
X64802380Y-34708152D01*
X64802380Y-34708152D02*
X64897618Y-34755771D01*
X64897618Y-34755771D02*
X64945237Y-34851009D01*
X64945237Y-34851009D02*
X64945237Y-35374819D01*
X64945237Y-34851009D02*
X64992856Y-34755771D01*
X64992856Y-34755771D02*
X65088094Y-34708152D01*
X65088094Y-34708152D02*
X65230951Y-34708152D01*
X65230951Y-34708152D02*
X65326190Y-34755771D01*
X65326190Y-34755771D02*
X65373809Y-34851009D01*
X65373809Y-34851009D02*
X65373809Y-35374819D01*
X66611904Y-35374819D02*
X66611904Y-34374819D01*
X66611904Y-34755771D02*
X66707142Y-34708152D01*
X66707142Y-34708152D02*
X66897618Y-34708152D01*
X66897618Y-34708152D02*
X66992856Y-34755771D01*
X66992856Y-34755771D02*
X67040475Y-34803390D01*
X67040475Y-34803390D02*
X67088094Y-34898628D01*
X67088094Y-34898628D02*
X67088094Y-35184342D01*
X67088094Y-35184342D02*
X67040475Y-35279580D01*
X67040475Y-35279580D02*
X66992856Y-35327200D01*
X66992856Y-35327200D02*
X66897618Y-35374819D01*
X66897618Y-35374819D02*
X66707142Y-35374819D01*
X66707142Y-35374819D02*
X66611904Y-35327200D01*
X67421428Y-34708152D02*
X67659523Y-35374819D01*
X67897618Y-34708152D02*
X67659523Y-35374819D01*
X67659523Y-35374819D02*
X67564285Y-35612914D01*
X67564285Y-35612914D02*
X67516666Y-35660533D01*
X67516666Y-35660533D02*
X67421428Y-35708152D01*
X68421428Y-35374819D02*
X68326190Y-35327200D01*
X68326190Y-35327200D02*
X68278571Y-35279580D01*
X68278571Y-35279580D02*
X68230952Y-35184342D01*
X68230952Y-35184342D02*
X68230952Y-34898628D01*
X68230952Y-34898628D02*
X68278571Y-34803390D01*
X68278571Y-34803390D02*
X68326190Y-34755771D01*
X68326190Y-34755771D02*
X68421428Y-34708152D01*
X68421428Y-34708152D02*
X68564285Y-34708152D01*
X68564285Y-34708152D02*
X68659523Y-34755771D01*
X68659523Y-34755771D02*
X68707142Y-34803390D01*
X68707142Y-34803390D02*
X68754761Y-34898628D01*
X68754761Y-34898628D02*
X68754761Y-35184342D01*
X68754761Y-35184342D02*
X68707142Y-35279580D01*
X68707142Y-35279580D02*
X68659523Y-35327200D01*
X68659523Y-35327200D02*
X68564285Y-35374819D01*
X68564285Y-35374819D02*
X68421428Y-35374819D01*
X69183333Y-34708152D02*
X69183333Y-35374819D01*
X69183333Y-34803390D02*
X69230952Y-34755771D01*
X69230952Y-34755771D02*
X69326190Y-34708152D01*
X69326190Y-34708152D02*
X69469047Y-34708152D01*
X69469047Y-34708152D02*
X69564285Y-34755771D01*
X69564285Y-34755771D02*
X69611904Y-34851009D01*
X69611904Y-34851009D02*
X69611904Y-35374819D01*
X70516666Y-35374819D02*
X70516666Y-34374819D01*
X70516666Y-35327200D02*
X70421428Y-35374819D01*
X70421428Y-35374819D02*
X70230952Y-35374819D01*
X70230952Y-35374819D02*
X70135714Y-35327200D01*
X70135714Y-35327200D02*
X70088095Y-35279580D01*
X70088095Y-35279580D02*
X70040476Y-35184342D01*
X70040476Y-35184342D02*
X70040476Y-34898628D01*
X70040476Y-34898628D02*
X70088095Y-34803390D01*
X70088095Y-34803390D02*
X70135714Y-34755771D01*
X70135714Y-34755771D02*
X70230952Y-34708152D01*
X70230952Y-34708152D02*
X70421428Y-34708152D01*
X70421428Y-34708152D02*
X70516666Y-34755771D01*
X71611905Y-34708152D02*
X71992857Y-34708152D01*
X71754762Y-34374819D02*
X71754762Y-35231961D01*
X71754762Y-35231961D02*
X71802381Y-35327200D01*
X71802381Y-35327200D02*
X71897619Y-35374819D01*
X71897619Y-35374819D02*
X71992857Y-35374819D01*
X72326191Y-35374819D02*
X72326191Y-34374819D01*
X72754762Y-35374819D02*
X72754762Y-34851009D01*
X72754762Y-34851009D02*
X72707143Y-34755771D01*
X72707143Y-34755771D02*
X72611905Y-34708152D01*
X72611905Y-34708152D02*
X72469048Y-34708152D01*
X72469048Y-34708152D02*
X72373810Y-34755771D01*
X72373810Y-34755771D02*
X72326191Y-34803390D01*
X73230953Y-35374819D02*
X73230953Y-34708152D01*
X73230953Y-34374819D02*
X73183334Y-34422438D01*
X73183334Y-34422438D02*
X73230953Y-34470057D01*
X73230953Y-34470057D02*
X73278572Y-34422438D01*
X73278572Y-34422438D02*
X73230953Y-34374819D01*
X73230953Y-34374819D02*
X73230953Y-34470057D01*
X73659524Y-35327200D02*
X73754762Y-35374819D01*
X73754762Y-35374819D02*
X73945238Y-35374819D01*
X73945238Y-35374819D02*
X74040476Y-35327200D01*
X74040476Y-35327200D02*
X74088095Y-35231961D01*
X74088095Y-35231961D02*
X74088095Y-35184342D01*
X74088095Y-35184342D02*
X74040476Y-35089104D01*
X74040476Y-35089104D02*
X73945238Y-35041485D01*
X73945238Y-35041485D02*
X73802381Y-35041485D01*
X73802381Y-35041485D02*
X73707143Y-34993866D01*
X73707143Y-34993866D02*
X73659524Y-34898628D01*
X73659524Y-34898628D02*
X73659524Y-34851009D01*
X73659524Y-34851009D02*
X73707143Y-34755771D01*
X73707143Y-34755771D02*
X73802381Y-34708152D01*
X73802381Y-34708152D02*
X73945238Y-34708152D01*
X73945238Y-34708152D02*
X74040476Y-34755771D01*
X75278572Y-35374819D02*
X75278572Y-34708152D01*
X75278572Y-34898628D02*
X75326191Y-34803390D01*
X75326191Y-34803390D02*
X75373810Y-34755771D01*
X75373810Y-34755771D02*
X75469048Y-34708152D01*
X75469048Y-34708152D02*
X75564286Y-34708152D01*
X76278572Y-35327200D02*
X76183334Y-35374819D01*
X76183334Y-35374819D02*
X75992858Y-35374819D01*
X75992858Y-35374819D02*
X75897620Y-35327200D01*
X75897620Y-35327200D02*
X75850001Y-35231961D01*
X75850001Y-35231961D02*
X75850001Y-34851009D01*
X75850001Y-34851009D02*
X75897620Y-34755771D01*
X75897620Y-34755771D02*
X75992858Y-34708152D01*
X75992858Y-34708152D02*
X76183334Y-34708152D01*
X76183334Y-34708152D02*
X76278572Y-34755771D01*
X76278572Y-34755771D02*
X76326191Y-34851009D01*
X76326191Y-34851009D02*
X76326191Y-34946247D01*
X76326191Y-34946247D02*
X75850001Y-35041485D01*
X77183334Y-34708152D02*
X77183334Y-35517676D01*
X77183334Y-35517676D02*
X77135715Y-35612914D01*
X77135715Y-35612914D02*
X77088096Y-35660533D01*
X77088096Y-35660533D02*
X76992858Y-35708152D01*
X76992858Y-35708152D02*
X76850001Y-35708152D01*
X76850001Y-35708152D02*
X76754763Y-35660533D01*
X77183334Y-35327200D02*
X77088096Y-35374819D01*
X77088096Y-35374819D02*
X76897620Y-35374819D01*
X76897620Y-35374819D02*
X76802382Y-35327200D01*
X76802382Y-35327200D02*
X76754763Y-35279580D01*
X76754763Y-35279580D02*
X76707144Y-35184342D01*
X76707144Y-35184342D02*
X76707144Y-34898628D01*
X76707144Y-34898628D02*
X76754763Y-34803390D01*
X76754763Y-34803390D02*
X76802382Y-34755771D01*
X76802382Y-34755771D02*
X76897620Y-34708152D01*
X76897620Y-34708152D02*
X77088096Y-34708152D01*
X77088096Y-34708152D02*
X77183334Y-34755771D01*
X77659525Y-35374819D02*
X77659525Y-34708152D01*
X77659525Y-34374819D02*
X77611906Y-34422438D01*
X77611906Y-34422438D02*
X77659525Y-34470057D01*
X77659525Y-34470057D02*
X77707144Y-34422438D01*
X77707144Y-34422438D02*
X77659525Y-34374819D01*
X77659525Y-34374819D02*
X77659525Y-34470057D01*
X78278572Y-35374819D02*
X78183334Y-35327200D01*
X78183334Y-35327200D02*
X78135715Y-35279580D01*
X78135715Y-35279580D02*
X78088096Y-35184342D01*
X78088096Y-35184342D02*
X78088096Y-34898628D01*
X78088096Y-34898628D02*
X78135715Y-34803390D01*
X78135715Y-34803390D02*
X78183334Y-34755771D01*
X78183334Y-34755771D02*
X78278572Y-34708152D01*
X78278572Y-34708152D02*
X78421429Y-34708152D01*
X78421429Y-34708152D02*
X78516667Y-34755771D01*
X78516667Y-34755771D02*
X78564286Y-34803390D01*
X78564286Y-34803390D02*
X78611905Y-34898628D01*
X78611905Y-34898628D02*
X78611905Y-35184342D01*
X78611905Y-35184342D02*
X78564286Y-35279580D01*
X78564286Y-35279580D02*
X78516667Y-35327200D01*
X78516667Y-35327200D02*
X78421429Y-35374819D01*
X78421429Y-35374819D02*
X78278572Y-35374819D01*
X79040477Y-34708152D02*
X79040477Y-35374819D01*
X79040477Y-34803390D02*
X79088096Y-34755771D01*
X79088096Y-34755771D02*
X79183334Y-34708152D01*
X79183334Y-34708152D02*
X79326191Y-34708152D01*
X79326191Y-34708152D02*
X79421429Y-34755771D01*
X79421429Y-34755771D02*
X79469048Y-34851009D01*
X79469048Y-34851009D02*
X79469048Y-35374819D01*
X80850001Y-35374819D02*
X80754763Y-35327200D01*
X80754763Y-35327200D02*
X80707144Y-35279580D01*
X80707144Y-35279580D02*
X80659525Y-35184342D01*
X80659525Y-35184342D02*
X80659525Y-34898628D01*
X80659525Y-34898628D02*
X80707144Y-34803390D01*
X80707144Y-34803390D02*
X80754763Y-34755771D01*
X80754763Y-34755771D02*
X80850001Y-34708152D01*
X80850001Y-34708152D02*
X80992858Y-34708152D01*
X80992858Y-34708152D02*
X81088096Y-34755771D01*
X81088096Y-34755771D02*
X81135715Y-34803390D01*
X81135715Y-34803390D02*
X81183334Y-34898628D01*
X81183334Y-34898628D02*
X81183334Y-35184342D01*
X81183334Y-35184342D02*
X81135715Y-35279580D01*
X81135715Y-35279580D02*
X81088096Y-35327200D01*
X81088096Y-35327200D02*
X80992858Y-35374819D01*
X80992858Y-35374819D02*
X80850001Y-35374819D01*
X81469049Y-34708152D02*
X81850001Y-34708152D01*
X81611906Y-35374819D02*
X81611906Y-34517676D01*
X81611906Y-34517676D02*
X81659525Y-34422438D01*
X81659525Y-34422438D02*
X81754763Y-34374819D01*
X81754763Y-34374819D02*
X81850001Y-34374819D01*
X82802383Y-34708152D02*
X83183335Y-34708152D01*
X82945240Y-34374819D02*
X82945240Y-35231961D01*
X82945240Y-35231961D02*
X82992859Y-35327200D01*
X82992859Y-35327200D02*
X83088097Y-35374819D01*
X83088097Y-35374819D02*
X83183335Y-35374819D01*
X83516669Y-35374819D02*
X83516669Y-34374819D01*
X83945240Y-35374819D02*
X83945240Y-34851009D01*
X83945240Y-34851009D02*
X83897621Y-34755771D01*
X83897621Y-34755771D02*
X83802383Y-34708152D01*
X83802383Y-34708152D02*
X83659526Y-34708152D01*
X83659526Y-34708152D02*
X83564288Y-34755771D01*
X83564288Y-34755771D02*
X83516669Y-34803390D01*
X84802383Y-35327200D02*
X84707145Y-35374819D01*
X84707145Y-35374819D02*
X84516669Y-35374819D01*
X84516669Y-35374819D02*
X84421431Y-35327200D01*
X84421431Y-35327200D02*
X84373812Y-35231961D01*
X84373812Y-35231961D02*
X84373812Y-34851009D01*
X84373812Y-34851009D02*
X84421431Y-34755771D01*
X84421431Y-34755771D02*
X84516669Y-34708152D01*
X84516669Y-34708152D02*
X84707145Y-34708152D01*
X84707145Y-34708152D02*
X84802383Y-34755771D01*
X84802383Y-34755771D02*
X84850002Y-34851009D01*
X84850002Y-34851009D02*
X84850002Y-34946247D01*
X84850002Y-34946247D02*
X84373812Y-35041485D01*
X85897622Y-34708152D02*
X86278574Y-34708152D01*
X86040479Y-34374819D02*
X86040479Y-35231961D01*
X86040479Y-35231961D02*
X86088098Y-35327200D01*
X86088098Y-35327200D02*
X86183336Y-35374819D01*
X86183336Y-35374819D02*
X86278574Y-35374819D01*
X86754765Y-35374819D02*
X86659527Y-35327200D01*
X86659527Y-35327200D02*
X86611908Y-35279580D01*
X86611908Y-35279580D02*
X86564289Y-35184342D01*
X86564289Y-35184342D02*
X86564289Y-34898628D01*
X86564289Y-34898628D02*
X86611908Y-34803390D01*
X86611908Y-34803390D02*
X86659527Y-34755771D01*
X86659527Y-34755771D02*
X86754765Y-34708152D01*
X86754765Y-34708152D02*
X86897622Y-34708152D01*
X86897622Y-34708152D02*
X86992860Y-34755771D01*
X86992860Y-34755771D02*
X87040479Y-34803390D01*
X87040479Y-34803390D02*
X87088098Y-34898628D01*
X87088098Y-34898628D02*
X87088098Y-35184342D01*
X87088098Y-35184342D02*
X87040479Y-35279580D01*
X87040479Y-35279580D02*
X86992860Y-35327200D01*
X86992860Y-35327200D02*
X86897622Y-35374819D01*
X86897622Y-35374819D02*
X86754765Y-35374819D01*
X87516670Y-34708152D02*
X87516670Y-35708152D01*
X87516670Y-34755771D02*
X87611908Y-34708152D01*
X87611908Y-34708152D02*
X87802384Y-34708152D01*
X87802384Y-34708152D02*
X87897622Y-34755771D01*
X87897622Y-34755771D02*
X87945241Y-34803390D01*
X87945241Y-34803390D02*
X87992860Y-34898628D01*
X87992860Y-34898628D02*
X87992860Y-35184342D01*
X87992860Y-35184342D02*
X87945241Y-35279580D01*
X87945241Y-35279580D02*
X87897622Y-35327200D01*
X87897622Y-35327200D02*
X87802384Y-35374819D01*
X87802384Y-35374819D02*
X87611908Y-35374819D01*
X87611908Y-35374819D02*
X87516670Y-35327200D01*
X89326194Y-35374819D02*
X89230956Y-35327200D01*
X89230956Y-35327200D02*
X89183337Y-35231961D01*
X89183337Y-35231961D02*
X89183337Y-34374819D01*
X90135718Y-35374819D02*
X90135718Y-34851009D01*
X90135718Y-34851009D02*
X90088099Y-34755771D01*
X90088099Y-34755771D02*
X89992861Y-34708152D01*
X89992861Y-34708152D02*
X89802385Y-34708152D01*
X89802385Y-34708152D02*
X89707147Y-34755771D01*
X90135718Y-35327200D02*
X90040480Y-35374819D01*
X90040480Y-35374819D02*
X89802385Y-35374819D01*
X89802385Y-35374819D02*
X89707147Y-35327200D01*
X89707147Y-35327200D02*
X89659528Y-35231961D01*
X89659528Y-35231961D02*
X89659528Y-35136723D01*
X89659528Y-35136723D02*
X89707147Y-35041485D01*
X89707147Y-35041485D02*
X89802385Y-34993866D01*
X89802385Y-34993866D02*
X90040480Y-34993866D01*
X90040480Y-34993866D02*
X90135718Y-34946247D01*
X90516671Y-34708152D02*
X90754766Y-35374819D01*
X90992861Y-34708152D02*
X90754766Y-35374819D01*
X90754766Y-35374819D02*
X90659528Y-35612914D01*
X90659528Y-35612914D02*
X90611909Y-35660533D01*
X90611909Y-35660533D02*
X90516671Y-35708152D01*
X91754766Y-35327200D02*
X91659528Y-35374819D01*
X91659528Y-35374819D02*
X91469052Y-35374819D01*
X91469052Y-35374819D02*
X91373814Y-35327200D01*
X91373814Y-35327200D02*
X91326195Y-35231961D01*
X91326195Y-35231961D02*
X91326195Y-34851009D01*
X91326195Y-34851009D02*
X91373814Y-34755771D01*
X91373814Y-34755771D02*
X91469052Y-34708152D01*
X91469052Y-34708152D02*
X91659528Y-34708152D01*
X91659528Y-34708152D02*
X91754766Y-34755771D01*
X91754766Y-34755771D02*
X91802385Y-34851009D01*
X91802385Y-34851009D02*
X91802385Y-34946247D01*
X91802385Y-34946247D02*
X91326195Y-35041485D01*
X92230957Y-35374819D02*
X92230957Y-34708152D01*
X92230957Y-34898628D02*
X92278576Y-34803390D01*
X92278576Y-34803390D02*
X92326195Y-34755771D01*
X92326195Y-34755771D02*
X92421433Y-34708152D01*
X92421433Y-34708152D02*
X92516671Y-34708152D01*
X27156189Y-37001009D02*
X27299046Y-37048628D01*
X27299046Y-37048628D02*
X27346665Y-37096247D01*
X27346665Y-37096247D02*
X27394284Y-37191485D01*
X27394284Y-37191485D02*
X27394284Y-37334342D01*
X27394284Y-37334342D02*
X27346665Y-37429580D01*
X27346665Y-37429580D02*
X27299046Y-37477200D01*
X27299046Y-37477200D02*
X27203808Y-37524819D01*
X27203808Y-37524819D02*
X26822856Y-37524819D01*
X26822856Y-37524819D02*
X26822856Y-36524819D01*
X26822856Y-36524819D02*
X27156189Y-36524819D01*
X27156189Y-36524819D02*
X27251427Y-36572438D01*
X27251427Y-36572438D02*
X27299046Y-36620057D01*
X27299046Y-36620057D02*
X27346665Y-36715295D01*
X27346665Y-36715295D02*
X27346665Y-36810533D01*
X27346665Y-36810533D02*
X27299046Y-36905771D01*
X27299046Y-36905771D02*
X27251427Y-36953390D01*
X27251427Y-36953390D02*
X27156189Y-37001009D01*
X27156189Y-37001009D02*
X26822856Y-37001009D01*
X28013332Y-36524819D02*
X28203808Y-36524819D01*
X28203808Y-36524819D02*
X28299046Y-36572438D01*
X28299046Y-36572438D02*
X28394284Y-36667676D01*
X28394284Y-36667676D02*
X28441903Y-36858152D01*
X28441903Y-36858152D02*
X28441903Y-37191485D01*
X28441903Y-37191485D02*
X28394284Y-37381961D01*
X28394284Y-37381961D02*
X28299046Y-37477200D01*
X28299046Y-37477200D02*
X28203808Y-37524819D01*
X28203808Y-37524819D02*
X28013332Y-37524819D01*
X28013332Y-37524819D02*
X27918094Y-37477200D01*
X27918094Y-37477200D02*
X27822856Y-37381961D01*
X27822856Y-37381961D02*
X27775237Y-37191485D01*
X27775237Y-37191485D02*
X27775237Y-36858152D01*
X27775237Y-36858152D02*
X27822856Y-36667676D01*
X27822856Y-36667676D02*
X27918094Y-36572438D01*
X27918094Y-36572438D02*
X28013332Y-36524819D01*
X28727618Y-36524819D02*
X29299046Y-36524819D01*
X29013332Y-37524819D02*
X29013332Y-36524819D01*
X29489523Y-36524819D02*
X30060951Y-36524819D01*
X29775237Y-37524819D02*
X29775237Y-36524819D01*
X30584761Y-36524819D02*
X30775237Y-36524819D01*
X30775237Y-36524819D02*
X30870475Y-36572438D01*
X30870475Y-36572438D02*
X30965713Y-36667676D01*
X30965713Y-36667676D02*
X31013332Y-36858152D01*
X31013332Y-36858152D02*
X31013332Y-37191485D01*
X31013332Y-37191485D02*
X30965713Y-37381961D01*
X30965713Y-37381961D02*
X30870475Y-37477200D01*
X30870475Y-37477200D02*
X30775237Y-37524819D01*
X30775237Y-37524819D02*
X30584761Y-37524819D01*
X30584761Y-37524819D02*
X30489523Y-37477200D01*
X30489523Y-37477200D02*
X30394285Y-37381961D01*
X30394285Y-37381961D02*
X30346666Y-37191485D01*
X30346666Y-37191485D02*
X30346666Y-36858152D01*
X30346666Y-36858152D02*
X30394285Y-36667676D01*
X30394285Y-36667676D02*
X30489523Y-36572438D01*
X30489523Y-36572438D02*
X30584761Y-36524819D01*
X31441904Y-37524819D02*
X31441904Y-36524819D01*
X31441904Y-36524819D02*
X31775237Y-37239104D01*
X31775237Y-37239104D02*
X32108570Y-36524819D01*
X32108570Y-36524819D02*
X32108570Y-37524819D01*
X33489523Y-37524819D02*
X33394285Y-37477200D01*
X33394285Y-37477200D02*
X33346666Y-37381961D01*
X33346666Y-37381961D02*
X33346666Y-36524819D01*
X34299047Y-37524819D02*
X34299047Y-37001009D01*
X34299047Y-37001009D02*
X34251428Y-36905771D01*
X34251428Y-36905771D02*
X34156190Y-36858152D01*
X34156190Y-36858152D02*
X33965714Y-36858152D01*
X33965714Y-36858152D02*
X33870476Y-36905771D01*
X34299047Y-37477200D02*
X34203809Y-37524819D01*
X34203809Y-37524819D02*
X33965714Y-37524819D01*
X33965714Y-37524819D02*
X33870476Y-37477200D01*
X33870476Y-37477200D02*
X33822857Y-37381961D01*
X33822857Y-37381961D02*
X33822857Y-37286723D01*
X33822857Y-37286723D02*
X33870476Y-37191485D01*
X33870476Y-37191485D02*
X33965714Y-37143866D01*
X33965714Y-37143866D02*
X34203809Y-37143866D01*
X34203809Y-37143866D02*
X34299047Y-37096247D01*
X34680000Y-36858152D02*
X34918095Y-37524819D01*
X35156190Y-36858152D02*
X34918095Y-37524819D01*
X34918095Y-37524819D02*
X34822857Y-37762914D01*
X34822857Y-37762914D02*
X34775238Y-37810533D01*
X34775238Y-37810533D02*
X34680000Y-37858152D01*
X35918095Y-37477200D02*
X35822857Y-37524819D01*
X35822857Y-37524819D02*
X35632381Y-37524819D01*
X35632381Y-37524819D02*
X35537143Y-37477200D01*
X35537143Y-37477200D02*
X35489524Y-37381961D01*
X35489524Y-37381961D02*
X35489524Y-37001009D01*
X35489524Y-37001009D02*
X35537143Y-36905771D01*
X35537143Y-36905771D02*
X35632381Y-36858152D01*
X35632381Y-36858152D02*
X35822857Y-36858152D01*
X35822857Y-36858152D02*
X35918095Y-36905771D01*
X35918095Y-36905771D02*
X35965714Y-37001009D01*
X35965714Y-37001009D02*
X35965714Y-37096247D01*
X35965714Y-37096247D02*
X35489524Y-37191485D01*
X36394286Y-37524819D02*
X36394286Y-36858152D01*
X36394286Y-37048628D02*
X36441905Y-36953390D01*
X36441905Y-36953390D02*
X36489524Y-36905771D01*
X36489524Y-36905771D02*
X36584762Y-36858152D01*
X36584762Y-36858152D02*
X36680000Y-36858152D01*
X26616190Y-32244819D02*
X27187618Y-32244819D01*
X26901904Y-33244819D02*
X26901904Y-32244819D01*
X27711428Y-32244819D02*
X27901904Y-32244819D01*
X27901904Y-32244819D02*
X27997142Y-32292438D01*
X27997142Y-32292438D02*
X28092380Y-32387676D01*
X28092380Y-32387676D02*
X28139999Y-32578152D01*
X28139999Y-32578152D02*
X28139999Y-32911485D01*
X28139999Y-32911485D02*
X28092380Y-33101961D01*
X28092380Y-33101961D02*
X27997142Y-33197200D01*
X27997142Y-33197200D02*
X27901904Y-33244819D01*
X27901904Y-33244819D02*
X27711428Y-33244819D01*
X27711428Y-33244819D02*
X27616190Y-33197200D01*
X27616190Y-33197200D02*
X27520952Y-33101961D01*
X27520952Y-33101961D02*
X27473333Y-32911485D01*
X27473333Y-32911485D02*
X27473333Y-32578152D01*
X27473333Y-32578152D02*
X27520952Y-32387676D01*
X27520952Y-32387676D02*
X27616190Y-32292438D01*
X27616190Y-32292438D02*
X27711428Y-32244819D01*
X28568571Y-33244819D02*
X28568571Y-32244819D01*
X28568571Y-32244819D02*
X28949523Y-32244819D01*
X28949523Y-32244819D02*
X29044761Y-32292438D01*
X29044761Y-32292438D02*
X29092380Y-32340057D01*
X29092380Y-32340057D02*
X29139999Y-32435295D01*
X29139999Y-32435295D02*
X29139999Y-32578152D01*
X29139999Y-32578152D02*
X29092380Y-32673390D01*
X29092380Y-32673390D02*
X29044761Y-32721009D01*
X29044761Y-32721009D02*
X28949523Y-32768628D01*
X28949523Y-32768628D02*
X28568571Y-32768628D01*
X30473333Y-33244819D02*
X30378095Y-33197200D01*
X30378095Y-33197200D02*
X30330476Y-33101961D01*
X30330476Y-33101961D02*
X30330476Y-32244819D01*
X31282857Y-33244819D02*
X31282857Y-32721009D01*
X31282857Y-32721009D02*
X31235238Y-32625771D01*
X31235238Y-32625771D02*
X31140000Y-32578152D01*
X31140000Y-32578152D02*
X30949524Y-32578152D01*
X30949524Y-32578152D02*
X30854286Y-32625771D01*
X31282857Y-33197200D02*
X31187619Y-33244819D01*
X31187619Y-33244819D02*
X30949524Y-33244819D01*
X30949524Y-33244819D02*
X30854286Y-33197200D01*
X30854286Y-33197200D02*
X30806667Y-33101961D01*
X30806667Y-33101961D02*
X30806667Y-33006723D01*
X30806667Y-33006723D02*
X30854286Y-32911485D01*
X30854286Y-32911485D02*
X30949524Y-32863866D01*
X30949524Y-32863866D02*
X31187619Y-32863866D01*
X31187619Y-32863866D02*
X31282857Y-32816247D01*
X31663810Y-32578152D02*
X31901905Y-33244819D01*
X32140000Y-32578152D02*
X31901905Y-33244819D01*
X31901905Y-33244819D02*
X31806667Y-33482914D01*
X31806667Y-33482914D02*
X31759048Y-33530533D01*
X31759048Y-33530533D02*
X31663810Y-33578152D01*
X32901905Y-33197200D02*
X32806667Y-33244819D01*
X32806667Y-33244819D02*
X32616191Y-33244819D01*
X32616191Y-33244819D02*
X32520953Y-33197200D01*
X32520953Y-33197200D02*
X32473334Y-33101961D01*
X32473334Y-33101961D02*
X32473334Y-32721009D01*
X32473334Y-32721009D02*
X32520953Y-32625771D01*
X32520953Y-32625771D02*
X32616191Y-32578152D01*
X32616191Y-32578152D02*
X32806667Y-32578152D01*
X32806667Y-32578152D02*
X32901905Y-32625771D01*
X32901905Y-32625771D02*
X32949524Y-32721009D01*
X32949524Y-32721009D02*
X32949524Y-32816247D01*
X32949524Y-32816247D02*
X32473334Y-32911485D01*
X33378096Y-33244819D02*
X33378096Y-32578152D01*
X33378096Y-32768628D02*
X33425715Y-32673390D01*
X33425715Y-32673390D02*
X33473334Y-32625771D01*
X33473334Y-32625771D02*
X33568572Y-32578152D01*
X33568572Y-32578152D02*
X33663810Y-32578152D01*
X27638386Y-40790066D02*
X28400291Y-40790066D01*
X29638386Y-41171019D02*
X29638386Y-40171019D01*
X29638386Y-40171019D02*
X29876481Y-40171019D01*
X29876481Y-40171019D02*
X30019338Y-40218638D01*
X30019338Y-40218638D02*
X30114576Y-40313876D01*
X30114576Y-40313876D02*
X30162195Y-40409114D01*
X30162195Y-40409114D02*
X30209814Y-40599590D01*
X30209814Y-40599590D02*
X30209814Y-40742447D01*
X30209814Y-40742447D02*
X30162195Y-40932923D01*
X30162195Y-40932923D02*
X30114576Y-41028161D01*
X30114576Y-41028161D02*
X30019338Y-41123400D01*
X30019338Y-41123400D02*
X29876481Y-41171019D01*
X29876481Y-41171019D02*
X29638386Y-41171019D01*
X30781243Y-41171019D02*
X30686005Y-41123400D01*
X30686005Y-41123400D02*
X30638386Y-41075780D01*
X30638386Y-41075780D02*
X30590767Y-40980542D01*
X30590767Y-40980542D02*
X30590767Y-40694828D01*
X30590767Y-40694828D02*
X30638386Y-40599590D01*
X30638386Y-40599590D02*
X30686005Y-40551971D01*
X30686005Y-40551971D02*
X30781243Y-40504352D01*
X30781243Y-40504352D02*
X30924100Y-40504352D01*
X30924100Y-40504352D02*
X31019338Y-40551971D01*
X31019338Y-40551971D02*
X31066957Y-40599590D01*
X31066957Y-40599590D02*
X31114576Y-40694828D01*
X31114576Y-40694828D02*
X31114576Y-40980542D01*
X31114576Y-40980542D02*
X31066957Y-41075780D01*
X31066957Y-41075780D02*
X31019338Y-41123400D01*
X31019338Y-41123400D02*
X30924100Y-41171019D01*
X30924100Y-41171019D02*
X30781243Y-41171019D01*
X32305053Y-40504352D02*
X32305053Y-41171019D01*
X32305053Y-40599590D02*
X32352672Y-40551971D01*
X32352672Y-40551971D02*
X32447910Y-40504352D01*
X32447910Y-40504352D02*
X32590767Y-40504352D01*
X32590767Y-40504352D02*
X32686005Y-40551971D01*
X32686005Y-40551971D02*
X32733624Y-40647209D01*
X32733624Y-40647209D02*
X32733624Y-41171019D01*
X33352672Y-41171019D02*
X33257434Y-41123400D01*
X33257434Y-41123400D02*
X33209815Y-41075780D01*
X33209815Y-41075780D02*
X33162196Y-40980542D01*
X33162196Y-40980542D02*
X33162196Y-40694828D01*
X33162196Y-40694828D02*
X33209815Y-40599590D01*
X33209815Y-40599590D02*
X33257434Y-40551971D01*
X33257434Y-40551971D02*
X33352672Y-40504352D01*
X33352672Y-40504352D02*
X33495529Y-40504352D01*
X33495529Y-40504352D02*
X33590767Y-40551971D01*
X33590767Y-40551971D02*
X33638386Y-40599590D01*
X33638386Y-40599590D02*
X33686005Y-40694828D01*
X33686005Y-40694828D02*
X33686005Y-40980542D01*
X33686005Y-40980542D02*
X33638386Y-41075780D01*
X33638386Y-41075780D02*
X33590767Y-41123400D01*
X33590767Y-41123400D02*
X33495529Y-41171019D01*
X33495529Y-41171019D02*
X33352672Y-41171019D01*
X33971720Y-40504352D02*
X34352672Y-40504352D01*
X34114577Y-40171019D02*
X34114577Y-41028161D01*
X34114577Y-41028161D02*
X34162196Y-41123400D01*
X34162196Y-41123400D02*
X34257434Y-41171019D01*
X34257434Y-41171019D02*
X34352672Y-41171019D01*
X35447911Y-40504352D02*
X35447911Y-41504352D01*
X35447911Y-40551971D02*
X35543149Y-40504352D01*
X35543149Y-40504352D02*
X35733625Y-40504352D01*
X35733625Y-40504352D02*
X35828863Y-40551971D01*
X35828863Y-40551971D02*
X35876482Y-40599590D01*
X35876482Y-40599590D02*
X35924101Y-40694828D01*
X35924101Y-40694828D02*
X35924101Y-40980542D01*
X35924101Y-40980542D02*
X35876482Y-41075780D01*
X35876482Y-41075780D02*
X35828863Y-41123400D01*
X35828863Y-41123400D02*
X35733625Y-41171019D01*
X35733625Y-41171019D02*
X35543149Y-41171019D01*
X35543149Y-41171019D02*
X35447911Y-41123400D01*
X36495530Y-41171019D02*
X36400292Y-41123400D01*
X36400292Y-41123400D02*
X36352673Y-41028161D01*
X36352673Y-41028161D02*
X36352673Y-40171019D01*
X37305054Y-41171019D02*
X37305054Y-40647209D01*
X37305054Y-40647209D02*
X37257435Y-40551971D01*
X37257435Y-40551971D02*
X37162197Y-40504352D01*
X37162197Y-40504352D02*
X36971721Y-40504352D01*
X36971721Y-40504352D02*
X36876483Y-40551971D01*
X37305054Y-41123400D02*
X37209816Y-41171019D01*
X37209816Y-41171019D02*
X36971721Y-41171019D01*
X36971721Y-41171019D02*
X36876483Y-41123400D01*
X36876483Y-41123400D02*
X36828864Y-41028161D01*
X36828864Y-41028161D02*
X36828864Y-40932923D01*
X36828864Y-40932923D02*
X36876483Y-40837685D01*
X36876483Y-40837685D02*
X36971721Y-40790066D01*
X36971721Y-40790066D02*
X37209816Y-40790066D01*
X37209816Y-40790066D02*
X37305054Y-40742447D01*
X38209816Y-41123400D02*
X38114578Y-41171019D01*
X38114578Y-41171019D02*
X37924102Y-41171019D01*
X37924102Y-41171019D02*
X37828864Y-41123400D01*
X37828864Y-41123400D02*
X37781245Y-41075780D01*
X37781245Y-41075780D02*
X37733626Y-40980542D01*
X37733626Y-40980542D02*
X37733626Y-40694828D01*
X37733626Y-40694828D02*
X37781245Y-40599590D01*
X37781245Y-40599590D02*
X37828864Y-40551971D01*
X37828864Y-40551971D02*
X37924102Y-40504352D01*
X37924102Y-40504352D02*
X38114578Y-40504352D01*
X38114578Y-40504352D02*
X38209816Y-40551971D01*
X39019340Y-41123400D02*
X38924102Y-41171019D01*
X38924102Y-41171019D02*
X38733626Y-41171019D01*
X38733626Y-41171019D02*
X38638388Y-41123400D01*
X38638388Y-41123400D02*
X38590769Y-41028161D01*
X38590769Y-41028161D02*
X38590769Y-40647209D01*
X38590769Y-40647209D02*
X38638388Y-40551971D01*
X38638388Y-40551971D02*
X38733626Y-40504352D01*
X38733626Y-40504352D02*
X38924102Y-40504352D01*
X38924102Y-40504352D02*
X39019340Y-40551971D01*
X39019340Y-40551971D02*
X39066959Y-40647209D01*
X39066959Y-40647209D02*
X39066959Y-40742447D01*
X39066959Y-40742447D02*
X38590769Y-40837685D01*
X40686007Y-41123400D02*
X40590769Y-41171019D01*
X40590769Y-41171019D02*
X40400293Y-41171019D01*
X40400293Y-41171019D02*
X40305055Y-41123400D01*
X40305055Y-41123400D02*
X40257436Y-41075780D01*
X40257436Y-41075780D02*
X40209817Y-40980542D01*
X40209817Y-40980542D02*
X40209817Y-40694828D01*
X40209817Y-40694828D02*
X40257436Y-40599590D01*
X40257436Y-40599590D02*
X40305055Y-40551971D01*
X40305055Y-40551971D02*
X40400293Y-40504352D01*
X40400293Y-40504352D02*
X40590769Y-40504352D01*
X40590769Y-40504352D02*
X40686007Y-40551971D01*
X41257436Y-41171019D02*
X41162198Y-41123400D01*
X41162198Y-41123400D02*
X41114579Y-41075780D01*
X41114579Y-41075780D02*
X41066960Y-40980542D01*
X41066960Y-40980542D02*
X41066960Y-40694828D01*
X41066960Y-40694828D02*
X41114579Y-40599590D01*
X41114579Y-40599590D02*
X41162198Y-40551971D01*
X41162198Y-40551971D02*
X41257436Y-40504352D01*
X41257436Y-40504352D02*
X41400293Y-40504352D01*
X41400293Y-40504352D02*
X41495531Y-40551971D01*
X41495531Y-40551971D02*
X41543150Y-40599590D01*
X41543150Y-40599590D02*
X41590769Y-40694828D01*
X41590769Y-40694828D02*
X41590769Y-40980542D01*
X41590769Y-40980542D02*
X41543150Y-41075780D01*
X41543150Y-41075780D02*
X41495531Y-41123400D01*
X41495531Y-41123400D02*
X41400293Y-41171019D01*
X41400293Y-41171019D02*
X41257436Y-41171019D01*
X42019341Y-41171019D02*
X42019341Y-40504352D01*
X42019341Y-40599590D02*
X42066960Y-40551971D01*
X42066960Y-40551971D02*
X42162198Y-40504352D01*
X42162198Y-40504352D02*
X42305055Y-40504352D01*
X42305055Y-40504352D02*
X42400293Y-40551971D01*
X42400293Y-40551971D02*
X42447912Y-40647209D01*
X42447912Y-40647209D02*
X42447912Y-41171019D01*
X42447912Y-40647209D02*
X42495531Y-40551971D01*
X42495531Y-40551971D02*
X42590769Y-40504352D01*
X42590769Y-40504352D02*
X42733626Y-40504352D01*
X42733626Y-40504352D02*
X42828865Y-40551971D01*
X42828865Y-40551971D02*
X42876484Y-40647209D01*
X42876484Y-40647209D02*
X42876484Y-41171019D01*
X43352674Y-40504352D02*
X43352674Y-41504352D01*
X43352674Y-40551971D02*
X43447912Y-40504352D01*
X43447912Y-40504352D02*
X43638388Y-40504352D01*
X43638388Y-40504352D02*
X43733626Y-40551971D01*
X43733626Y-40551971D02*
X43781245Y-40599590D01*
X43781245Y-40599590D02*
X43828864Y-40694828D01*
X43828864Y-40694828D02*
X43828864Y-40980542D01*
X43828864Y-40980542D02*
X43781245Y-41075780D01*
X43781245Y-41075780D02*
X43733626Y-41123400D01*
X43733626Y-41123400D02*
X43638388Y-41171019D01*
X43638388Y-41171019D02*
X43447912Y-41171019D01*
X43447912Y-41171019D02*
X43352674Y-41123400D01*
X44400293Y-41171019D02*
X44305055Y-41123400D01*
X44305055Y-41123400D02*
X44257436Y-41075780D01*
X44257436Y-41075780D02*
X44209817Y-40980542D01*
X44209817Y-40980542D02*
X44209817Y-40694828D01*
X44209817Y-40694828D02*
X44257436Y-40599590D01*
X44257436Y-40599590D02*
X44305055Y-40551971D01*
X44305055Y-40551971D02*
X44400293Y-40504352D01*
X44400293Y-40504352D02*
X44543150Y-40504352D01*
X44543150Y-40504352D02*
X44638388Y-40551971D01*
X44638388Y-40551971D02*
X44686007Y-40599590D01*
X44686007Y-40599590D02*
X44733626Y-40694828D01*
X44733626Y-40694828D02*
X44733626Y-40980542D01*
X44733626Y-40980542D02*
X44686007Y-41075780D01*
X44686007Y-41075780D02*
X44638388Y-41123400D01*
X44638388Y-41123400D02*
X44543150Y-41171019D01*
X44543150Y-41171019D02*
X44400293Y-41171019D01*
X45162198Y-40504352D02*
X45162198Y-41171019D01*
X45162198Y-40599590D02*
X45209817Y-40551971D01*
X45209817Y-40551971D02*
X45305055Y-40504352D01*
X45305055Y-40504352D02*
X45447912Y-40504352D01*
X45447912Y-40504352D02*
X45543150Y-40551971D01*
X45543150Y-40551971D02*
X45590769Y-40647209D01*
X45590769Y-40647209D02*
X45590769Y-41171019D01*
X46447912Y-41123400D02*
X46352674Y-41171019D01*
X46352674Y-41171019D02*
X46162198Y-41171019D01*
X46162198Y-41171019D02*
X46066960Y-41123400D01*
X46066960Y-41123400D02*
X46019341Y-41028161D01*
X46019341Y-41028161D02*
X46019341Y-40647209D01*
X46019341Y-40647209D02*
X46066960Y-40551971D01*
X46066960Y-40551971D02*
X46162198Y-40504352D01*
X46162198Y-40504352D02*
X46352674Y-40504352D01*
X46352674Y-40504352D02*
X46447912Y-40551971D01*
X46447912Y-40551971D02*
X46495531Y-40647209D01*
X46495531Y-40647209D02*
X46495531Y-40742447D01*
X46495531Y-40742447D02*
X46019341Y-40837685D01*
X46924103Y-40504352D02*
X46924103Y-41171019D01*
X46924103Y-40599590D02*
X46971722Y-40551971D01*
X46971722Y-40551971D02*
X47066960Y-40504352D01*
X47066960Y-40504352D02*
X47209817Y-40504352D01*
X47209817Y-40504352D02*
X47305055Y-40551971D01*
X47305055Y-40551971D02*
X47352674Y-40647209D01*
X47352674Y-40647209D02*
X47352674Y-41171019D01*
X47686008Y-40504352D02*
X48066960Y-40504352D01*
X47828865Y-40171019D02*
X47828865Y-41028161D01*
X47828865Y-41028161D02*
X47876484Y-41123400D01*
X47876484Y-41123400D02*
X47971722Y-41171019D01*
X47971722Y-41171019D02*
X48066960Y-41171019D01*
X49305056Y-41171019D02*
X49209818Y-41123400D01*
X49209818Y-41123400D02*
X49162199Y-41075780D01*
X49162199Y-41075780D02*
X49114580Y-40980542D01*
X49114580Y-40980542D02*
X49114580Y-40694828D01*
X49114580Y-40694828D02*
X49162199Y-40599590D01*
X49162199Y-40599590D02*
X49209818Y-40551971D01*
X49209818Y-40551971D02*
X49305056Y-40504352D01*
X49305056Y-40504352D02*
X49447913Y-40504352D01*
X49447913Y-40504352D02*
X49543151Y-40551971D01*
X49543151Y-40551971D02*
X49590770Y-40599590D01*
X49590770Y-40599590D02*
X49638389Y-40694828D01*
X49638389Y-40694828D02*
X49638389Y-40980542D01*
X49638389Y-40980542D02*
X49590770Y-41075780D01*
X49590770Y-41075780D02*
X49543151Y-41123400D01*
X49543151Y-41123400D02*
X49447913Y-41171019D01*
X49447913Y-41171019D02*
X49305056Y-41171019D01*
X49924104Y-40504352D02*
X50305056Y-40504352D01*
X50066961Y-41171019D02*
X50066961Y-40313876D01*
X50066961Y-40313876D02*
X50114580Y-40218638D01*
X50114580Y-40218638D02*
X50209818Y-40171019D01*
X50209818Y-40171019D02*
X50305056Y-40171019D01*
X51400295Y-41171019D02*
X51400295Y-40171019D01*
X51828866Y-41171019D02*
X51828866Y-40647209D01*
X51828866Y-40647209D02*
X51781247Y-40551971D01*
X51781247Y-40551971D02*
X51686009Y-40504352D01*
X51686009Y-40504352D02*
X51543152Y-40504352D01*
X51543152Y-40504352D02*
X51447914Y-40551971D01*
X51447914Y-40551971D02*
X51400295Y-40599590D01*
X52305057Y-41171019D02*
X52305057Y-40504352D01*
X52305057Y-40171019D02*
X52257438Y-40218638D01*
X52257438Y-40218638D02*
X52305057Y-40266257D01*
X52305057Y-40266257D02*
X52352676Y-40218638D01*
X52352676Y-40218638D02*
X52305057Y-40171019D01*
X52305057Y-40171019D02*
X52305057Y-40266257D01*
X53209818Y-40504352D02*
X53209818Y-41313876D01*
X53209818Y-41313876D02*
X53162199Y-41409114D01*
X53162199Y-41409114D02*
X53114580Y-41456733D01*
X53114580Y-41456733D02*
X53019342Y-41504352D01*
X53019342Y-41504352D02*
X52876485Y-41504352D01*
X52876485Y-41504352D02*
X52781247Y-41456733D01*
X53209818Y-41123400D02*
X53114580Y-41171019D01*
X53114580Y-41171019D02*
X52924104Y-41171019D01*
X52924104Y-41171019D02*
X52828866Y-41123400D01*
X52828866Y-41123400D02*
X52781247Y-41075780D01*
X52781247Y-41075780D02*
X52733628Y-40980542D01*
X52733628Y-40980542D02*
X52733628Y-40694828D01*
X52733628Y-40694828D02*
X52781247Y-40599590D01*
X52781247Y-40599590D02*
X52828866Y-40551971D01*
X52828866Y-40551971D02*
X52924104Y-40504352D01*
X52924104Y-40504352D02*
X53114580Y-40504352D01*
X53114580Y-40504352D02*
X53209818Y-40551971D01*
X53686009Y-41171019D02*
X53686009Y-40171019D01*
X54114580Y-41171019D02*
X54114580Y-40647209D01*
X54114580Y-40647209D02*
X54066961Y-40551971D01*
X54066961Y-40551971D02*
X53971723Y-40504352D01*
X53971723Y-40504352D02*
X53828866Y-40504352D01*
X53828866Y-40504352D02*
X53733628Y-40551971D01*
X53733628Y-40551971D02*
X53686009Y-40599590D01*
X54447914Y-40504352D02*
X54828866Y-40504352D01*
X54590771Y-40171019D02*
X54590771Y-41028161D01*
X54590771Y-41028161D02*
X54638390Y-41123400D01*
X54638390Y-41123400D02*
X54733628Y-41171019D01*
X54733628Y-41171019D02*
X54828866Y-41171019D01*
X56352676Y-41171019D02*
X56352676Y-40647209D01*
X56352676Y-40647209D02*
X56305057Y-40551971D01*
X56305057Y-40551971D02*
X56209819Y-40504352D01*
X56209819Y-40504352D02*
X56019343Y-40504352D01*
X56019343Y-40504352D02*
X55924105Y-40551971D01*
X56352676Y-41123400D02*
X56257438Y-41171019D01*
X56257438Y-41171019D02*
X56019343Y-41171019D01*
X56019343Y-41171019D02*
X55924105Y-41123400D01*
X55924105Y-41123400D02*
X55876486Y-41028161D01*
X55876486Y-41028161D02*
X55876486Y-40932923D01*
X55876486Y-40932923D02*
X55924105Y-40837685D01*
X55924105Y-40837685D02*
X56019343Y-40790066D01*
X56019343Y-40790066D02*
X56257438Y-40790066D01*
X56257438Y-40790066D02*
X56352676Y-40742447D01*
X56828867Y-41171019D02*
X56828867Y-40171019D01*
X56828867Y-40551971D02*
X56924105Y-40504352D01*
X56924105Y-40504352D02*
X57114581Y-40504352D01*
X57114581Y-40504352D02*
X57209819Y-40551971D01*
X57209819Y-40551971D02*
X57257438Y-40599590D01*
X57257438Y-40599590D02*
X57305057Y-40694828D01*
X57305057Y-40694828D02*
X57305057Y-40980542D01*
X57305057Y-40980542D02*
X57257438Y-41075780D01*
X57257438Y-41075780D02*
X57209819Y-41123400D01*
X57209819Y-41123400D02*
X57114581Y-41171019D01*
X57114581Y-41171019D02*
X56924105Y-41171019D01*
X56924105Y-41171019D02*
X56828867Y-41123400D01*
X57876486Y-41171019D02*
X57781248Y-41123400D01*
X57781248Y-41123400D02*
X57733629Y-41075780D01*
X57733629Y-41075780D02*
X57686010Y-40980542D01*
X57686010Y-40980542D02*
X57686010Y-40694828D01*
X57686010Y-40694828D02*
X57733629Y-40599590D01*
X57733629Y-40599590D02*
X57781248Y-40551971D01*
X57781248Y-40551971D02*
X57876486Y-40504352D01*
X57876486Y-40504352D02*
X58019343Y-40504352D01*
X58019343Y-40504352D02*
X58114581Y-40551971D01*
X58114581Y-40551971D02*
X58162200Y-40599590D01*
X58162200Y-40599590D02*
X58209819Y-40694828D01*
X58209819Y-40694828D02*
X58209819Y-40980542D01*
X58209819Y-40980542D02*
X58162200Y-41075780D01*
X58162200Y-41075780D02*
X58114581Y-41123400D01*
X58114581Y-41123400D02*
X58019343Y-41171019D01*
X58019343Y-41171019D02*
X57876486Y-41171019D01*
X58543153Y-40504352D02*
X58781248Y-41171019D01*
X58781248Y-41171019D02*
X59019343Y-40504352D01*
X59781248Y-41123400D02*
X59686010Y-41171019D01*
X59686010Y-41171019D02*
X59495534Y-41171019D01*
X59495534Y-41171019D02*
X59400296Y-41123400D01*
X59400296Y-41123400D02*
X59352677Y-41028161D01*
X59352677Y-41028161D02*
X59352677Y-40647209D01*
X59352677Y-40647209D02*
X59400296Y-40551971D01*
X59400296Y-40551971D02*
X59495534Y-40504352D01*
X59495534Y-40504352D02*
X59686010Y-40504352D01*
X59686010Y-40504352D02*
X59781248Y-40551971D01*
X59781248Y-40551971D02*
X59828867Y-40647209D01*
X59828867Y-40647209D02*
X59828867Y-40742447D01*
X59828867Y-40742447D02*
X59352677Y-40837685D01*
X61447915Y-40504352D02*
X61447915Y-41171019D01*
X61209820Y-40123400D02*
X60971725Y-40837685D01*
X60971725Y-40837685D02*
X61590772Y-40837685D01*
X62162201Y-40171019D02*
X62257439Y-40171019D01*
X62257439Y-40171019D02*
X62352677Y-40218638D01*
X62352677Y-40218638D02*
X62400296Y-40266257D01*
X62400296Y-40266257D02*
X62447915Y-40361495D01*
X62447915Y-40361495D02*
X62495534Y-40551971D01*
X62495534Y-40551971D02*
X62495534Y-40790066D01*
X62495534Y-40790066D02*
X62447915Y-40980542D01*
X62447915Y-40980542D02*
X62400296Y-41075780D01*
X62400296Y-41075780D02*
X62352677Y-41123400D01*
X62352677Y-41123400D02*
X62257439Y-41171019D01*
X62257439Y-41171019D02*
X62162201Y-41171019D01*
X62162201Y-41171019D02*
X62066963Y-41123400D01*
X62066963Y-41123400D02*
X62019344Y-41075780D01*
X62019344Y-41075780D02*
X61971725Y-40980542D01*
X61971725Y-40980542D02*
X61924106Y-40790066D01*
X61924106Y-40790066D02*
X61924106Y-40551971D01*
X61924106Y-40551971D02*
X61971725Y-40361495D01*
X61971725Y-40361495D02*
X62019344Y-40266257D01*
X62019344Y-40266257D02*
X62066963Y-40218638D01*
X62066963Y-40218638D02*
X62162201Y-40171019D01*
X62924106Y-41171019D02*
X62924106Y-40504352D01*
X62924106Y-40599590D02*
X62971725Y-40551971D01*
X62971725Y-40551971D02*
X63066963Y-40504352D01*
X63066963Y-40504352D02*
X63209820Y-40504352D01*
X63209820Y-40504352D02*
X63305058Y-40551971D01*
X63305058Y-40551971D02*
X63352677Y-40647209D01*
X63352677Y-40647209D02*
X63352677Y-41171019D01*
X63352677Y-40647209D02*
X63400296Y-40551971D01*
X63400296Y-40551971D02*
X63495534Y-40504352D01*
X63495534Y-40504352D02*
X63638391Y-40504352D01*
X63638391Y-40504352D02*
X63733630Y-40551971D01*
X63733630Y-40551971D02*
X63781249Y-40647209D01*
X63781249Y-40647209D02*
X63781249Y-41171019D01*
X64257439Y-41171019D02*
X64257439Y-40504352D01*
X64257439Y-40599590D02*
X64305058Y-40551971D01*
X64305058Y-40551971D02*
X64400296Y-40504352D01*
X64400296Y-40504352D02*
X64543153Y-40504352D01*
X64543153Y-40504352D02*
X64638391Y-40551971D01*
X64638391Y-40551971D02*
X64686010Y-40647209D01*
X64686010Y-40647209D02*
X64686010Y-41171019D01*
X64686010Y-40647209D02*
X64733629Y-40551971D01*
X64733629Y-40551971D02*
X64828867Y-40504352D01*
X64828867Y-40504352D02*
X64971724Y-40504352D01*
X64971724Y-40504352D02*
X65066963Y-40551971D01*
X65066963Y-40551971D02*
X65114582Y-40647209D01*
X65114582Y-40647209D02*
X65114582Y-41171019D01*
X66352677Y-41171019D02*
X66352677Y-40504352D01*
X66352677Y-40171019D02*
X66305058Y-40218638D01*
X66305058Y-40218638D02*
X66352677Y-40266257D01*
X66352677Y-40266257D02*
X66400296Y-40218638D01*
X66400296Y-40218638D02*
X66352677Y-40171019D01*
X66352677Y-40171019D02*
X66352677Y-40266257D01*
X66828867Y-40504352D02*
X66828867Y-41171019D01*
X66828867Y-40599590D02*
X66876486Y-40551971D01*
X66876486Y-40551971D02*
X66971724Y-40504352D01*
X66971724Y-40504352D02*
X67114581Y-40504352D01*
X67114581Y-40504352D02*
X67209819Y-40551971D01*
X67209819Y-40551971D02*
X67257438Y-40647209D01*
X67257438Y-40647209D02*
X67257438Y-41171019D01*
X68352677Y-40504352D02*
X68733629Y-40504352D01*
X68495534Y-40171019D02*
X68495534Y-41028161D01*
X68495534Y-41028161D02*
X68543153Y-41123400D01*
X68543153Y-41123400D02*
X68638391Y-41171019D01*
X68638391Y-41171019D02*
X68733629Y-41171019D01*
X69066963Y-41171019D02*
X69066963Y-40171019D01*
X69495534Y-41171019D02*
X69495534Y-40647209D01*
X69495534Y-40647209D02*
X69447915Y-40551971D01*
X69447915Y-40551971D02*
X69352677Y-40504352D01*
X69352677Y-40504352D02*
X69209820Y-40504352D01*
X69209820Y-40504352D02*
X69114582Y-40551971D01*
X69114582Y-40551971D02*
X69066963Y-40599590D01*
X70352677Y-41123400D02*
X70257439Y-41171019D01*
X70257439Y-41171019D02*
X70066963Y-41171019D01*
X70066963Y-41171019D02*
X69971725Y-41123400D01*
X69971725Y-41123400D02*
X69924106Y-41028161D01*
X69924106Y-41028161D02*
X69924106Y-40647209D01*
X69924106Y-40647209D02*
X69971725Y-40551971D01*
X69971725Y-40551971D02*
X70066963Y-40504352D01*
X70066963Y-40504352D02*
X70257439Y-40504352D01*
X70257439Y-40504352D02*
X70352677Y-40551971D01*
X70352677Y-40551971D02*
X70400296Y-40647209D01*
X70400296Y-40647209D02*
X70400296Y-40742447D01*
X70400296Y-40742447D02*
X69924106Y-40837685D01*
X71447916Y-40504352D02*
X71828868Y-40504352D01*
X71590773Y-40171019D02*
X71590773Y-41028161D01*
X71590773Y-41028161D02*
X71638392Y-41123400D01*
X71638392Y-41123400D02*
X71733630Y-41171019D01*
X71733630Y-41171019D02*
X71828868Y-41171019D01*
X72305059Y-41171019D02*
X72209821Y-41123400D01*
X72209821Y-41123400D02*
X72162202Y-41075780D01*
X72162202Y-41075780D02*
X72114583Y-40980542D01*
X72114583Y-40980542D02*
X72114583Y-40694828D01*
X72114583Y-40694828D02*
X72162202Y-40599590D01*
X72162202Y-40599590D02*
X72209821Y-40551971D01*
X72209821Y-40551971D02*
X72305059Y-40504352D01*
X72305059Y-40504352D02*
X72447916Y-40504352D01*
X72447916Y-40504352D02*
X72543154Y-40551971D01*
X72543154Y-40551971D02*
X72590773Y-40599590D01*
X72590773Y-40599590D02*
X72638392Y-40694828D01*
X72638392Y-40694828D02*
X72638392Y-40980542D01*
X72638392Y-40980542D02*
X72590773Y-41075780D01*
X72590773Y-41075780D02*
X72543154Y-41123400D01*
X72543154Y-41123400D02*
X72447916Y-41171019D01*
X72447916Y-41171019D02*
X72305059Y-41171019D01*
X73066964Y-40504352D02*
X73066964Y-41504352D01*
X73066964Y-40551971D02*
X73162202Y-40504352D01*
X73162202Y-40504352D02*
X73352678Y-40504352D01*
X73352678Y-40504352D02*
X73447916Y-40551971D01*
X73447916Y-40551971D02*
X73495535Y-40599590D01*
X73495535Y-40599590D02*
X73543154Y-40694828D01*
X73543154Y-40694828D02*
X73543154Y-40980542D01*
X73543154Y-40980542D02*
X73495535Y-41075780D01*
X73495535Y-41075780D02*
X73447916Y-41123400D01*
X73447916Y-41123400D02*
X73352678Y-41171019D01*
X73352678Y-41171019D02*
X73162202Y-41171019D01*
X73162202Y-41171019D02*
X73066964Y-41123400D01*
X74876488Y-41171019D02*
X74781250Y-41123400D01*
X74781250Y-41123400D02*
X74733631Y-41028161D01*
X74733631Y-41028161D02*
X74733631Y-40171019D01*
X75686012Y-41171019D02*
X75686012Y-40647209D01*
X75686012Y-40647209D02*
X75638393Y-40551971D01*
X75638393Y-40551971D02*
X75543155Y-40504352D01*
X75543155Y-40504352D02*
X75352679Y-40504352D01*
X75352679Y-40504352D02*
X75257441Y-40551971D01*
X75686012Y-41123400D02*
X75590774Y-41171019D01*
X75590774Y-41171019D02*
X75352679Y-41171019D01*
X75352679Y-41171019D02*
X75257441Y-41123400D01*
X75257441Y-41123400D02*
X75209822Y-41028161D01*
X75209822Y-41028161D02*
X75209822Y-40932923D01*
X75209822Y-40932923D02*
X75257441Y-40837685D01*
X75257441Y-40837685D02*
X75352679Y-40790066D01*
X75352679Y-40790066D02*
X75590774Y-40790066D01*
X75590774Y-40790066D02*
X75686012Y-40742447D01*
X76066965Y-40504352D02*
X76305060Y-41171019D01*
X76543155Y-40504352D02*
X76305060Y-41171019D01*
X76305060Y-41171019D02*
X76209822Y-41409114D01*
X76209822Y-41409114D02*
X76162203Y-41456733D01*
X76162203Y-41456733D02*
X76066965Y-41504352D01*
X77305060Y-41123400D02*
X77209822Y-41171019D01*
X77209822Y-41171019D02*
X77019346Y-41171019D01*
X77019346Y-41171019D02*
X76924108Y-41123400D01*
X76924108Y-41123400D02*
X76876489Y-41028161D01*
X76876489Y-41028161D02*
X76876489Y-40647209D01*
X76876489Y-40647209D02*
X76924108Y-40551971D01*
X76924108Y-40551971D02*
X77019346Y-40504352D01*
X77019346Y-40504352D02*
X77209822Y-40504352D01*
X77209822Y-40504352D02*
X77305060Y-40551971D01*
X77305060Y-40551971D02*
X77352679Y-40647209D01*
X77352679Y-40647209D02*
X77352679Y-40742447D01*
X77352679Y-40742447D02*
X76876489Y-40837685D01*
X77781251Y-41171019D02*
X77781251Y-40504352D01*
X77781251Y-40694828D02*
X77828870Y-40599590D01*
X77828870Y-40599590D02*
X77876489Y-40551971D01*
X77876489Y-40551971D02*
X77971727Y-40504352D01*
X77971727Y-40504352D02*
X78066965Y-40504352D01*
X26312224Y-38885066D02*
X27074129Y-38885066D01*
X28312224Y-39266019D02*
X28312224Y-38266019D01*
X28312224Y-38266019D02*
X28550319Y-38266019D01*
X28550319Y-38266019D02*
X28693176Y-38313638D01*
X28693176Y-38313638D02*
X28788414Y-38408876D01*
X28788414Y-38408876D02*
X28836033Y-38504114D01*
X28836033Y-38504114D02*
X28883652Y-38694590D01*
X28883652Y-38694590D02*
X28883652Y-38837447D01*
X28883652Y-38837447D02*
X28836033Y-39027923D01*
X28836033Y-39027923D02*
X28788414Y-39123161D01*
X28788414Y-39123161D02*
X28693176Y-39218400D01*
X28693176Y-39218400D02*
X28550319Y-39266019D01*
X28550319Y-39266019D02*
X28312224Y-39266019D01*
X29455081Y-39266019D02*
X29359843Y-39218400D01*
X29359843Y-39218400D02*
X29312224Y-39170780D01*
X29312224Y-39170780D02*
X29264605Y-39075542D01*
X29264605Y-39075542D02*
X29264605Y-38789828D01*
X29264605Y-38789828D02*
X29312224Y-38694590D01*
X29312224Y-38694590D02*
X29359843Y-38646971D01*
X29359843Y-38646971D02*
X29455081Y-38599352D01*
X29455081Y-38599352D02*
X29597938Y-38599352D01*
X29597938Y-38599352D02*
X29693176Y-38646971D01*
X29693176Y-38646971D02*
X29740795Y-38694590D01*
X29740795Y-38694590D02*
X29788414Y-38789828D01*
X29788414Y-38789828D02*
X29788414Y-39075542D01*
X29788414Y-39075542D02*
X29740795Y-39170780D01*
X29740795Y-39170780D02*
X29693176Y-39218400D01*
X29693176Y-39218400D02*
X29597938Y-39266019D01*
X29597938Y-39266019D02*
X29455081Y-39266019D01*
X30978891Y-38599352D02*
X30978891Y-39266019D01*
X30978891Y-38694590D02*
X31026510Y-38646971D01*
X31026510Y-38646971D02*
X31121748Y-38599352D01*
X31121748Y-38599352D02*
X31264605Y-38599352D01*
X31264605Y-38599352D02*
X31359843Y-38646971D01*
X31359843Y-38646971D02*
X31407462Y-38742209D01*
X31407462Y-38742209D02*
X31407462Y-39266019D01*
X32026510Y-39266019D02*
X31931272Y-39218400D01*
X31931272Y-39218400D02*
X31883653Y-39170780D01*
X31883653Y-39170780D02*
X31836034Y-39075542D01*
X31836034Y-39075542D02*
X31836034Y-38789828D01*
X31836034Y-38789828D02*
X31883653Y-38694590D01*
X31883653Y-38694590D02*
X31931272Y-38646971D01*
X31931272Y-38646971D02*
X32026510Y-38599352D01*
X32026510Y-38599352D02*
X32169367Y-38599352D01*
X32169367Y-38599352D02*
X32264605Y-38646971D01*
X32264605Y-38646971D02*
X32312224Y-38694590D01*
X32312224Y-38694590D02*
X32359843Y-38789828D01*
X32359843Y-38789828D02*
X32359843Y-39075542D01*
X32359843Y-39075542D02*
X32312224Y-39170780D01*
X32312224Y-39170780D02*
X32264605Y-39218400D01*
X32264605Y-39218400D02*
X32169367Y-39266019D01*
X32169367Y-39266019D02*
X32026510Y-39266019D01*
X32645558Y-38599352D02*
X33026510Y-38599352D01*
X32788415Y-38266019D02*
X32788415Y-39123161D01*
X32788415Y-39123161D02*
X32836034Y-39218400D01*
X32836034Y-39218400D02*
X32931272Y-39266019D01*
X32931272Y-39266019D02*
X33026510Y-39266019D01*
X34121749Y-38599352D02*
X34121749Y-39599352D01*
X34121749Y-38646971D02*
X34216987Y-38599352D01*
X34216987Y-38599352D02*
X34407463Y-38599352D01*
X34407463Y-38599352D02*
X34502701Y-38646971D01*
X34502701Y-38646971D02*
X34550320Y-38694590D01*
X34550320Y-38694590D02*
X34597939Y-38789828D01*
X34597939Y-38789828D02*
X34597939Y-39075542D01*
X34597939Y-39075542D02*
X34550320Y-39170780D01*
X34550320Y-39170780D02*
X34502701Y-39218400D01*
X34502701Y-39218400D02*
X34407463Y-39266019D01*
X34407463Y-39266019D02*
X34216987Y-39266019D01*
X34216987Y-39266019D02*
X34121749Y-39218400D01*
X35455082Y-39266019D02*
X35455082Y-38742209D01*
X35455082Y-38742209D02*
X35407463Y-38646971D01*
X35407463Y-38646971D02*
X35312225Y-38599352D01*
X35312225Y-38599352D02*
X35121749Y-38599352D01*
X35121749Y-38599352D02*
X35026511Y-38646971D01*
X35455082Y-39218400D02*
X35359844Y-39266019D01*
X35359844Y-39266019D02*
X35121749Y-39266019D01*
X35121749Y-39266019D02*
X35026511Y-39218400D01*
X35026511Y-39218400D02*
X34978892Y-39123161D01*
X34978892Y-39123161D02*
X34978892Y-39027923D01*
X34978892Y-39027923D02*
X35026511Y-38932685D01*
X35026511Y-38932685D02*
X35121749Y-38885066D01*
X35121749Y-38885066D02*
X35359844Y-38885066D01*
X35359844Y-38885066D02*
X35455082Y-38837447D01*
X36359844Y-39218400D02*
X36264606Y-39266019D01*
X36264606Y-39266019D02*
X36074130Y-39266019D01*
X36074130Y-39266019D02*
X35978892Y-39218400D01*
X35978892Y-39218400D02*
X35931273Y-39170780D01*
X35931273Y-39170780D02*
X35883654Y-39075542D01*
X35883654Y-39075542D02*
X35883654Y-38789828D01*
X35883654Y-38789828D02*
X35931273Y-38694590D01*
X35931273Y-38694590D02*
X35978892Y-38646971D01*
X35978892Y-38646971D02*
X36074130Y-38599352D01*
X36074130Y-38599352D02*
X36264606Y-38599352D01*
X36264606Y-38599352D02*
X36359844Y-38646971D01*
X37169368Y-39218400D02*
X37074130Y-39266019D01*
X37074130Y-39266019D02*
X36883654Y-39266019D01*
X36883654Y-39266019D02*
X36788416Y-39218400D01*
X36788416Y-39218400D02*
X36740797Y-39123161D01*
X36740797Y-39123161D02*
X36740797Y-38742209D01*
X36740797Y-38742209D02*
X36788416Y-38646971D01*
X36788416Y-38646971D02*
X36883654Y-38599352D01*
X36883654Y-38599352D02*
X37074130Y-38599352D01*
X37074130Y-38599352D02*
X37169368Y-38646971D01*
X37169368Y-38646971D02*
X37216987Y-38742209D01*
X37216987Y-38742209D02*
X37216987Y-38837447D01*
X37216987Y-38837447D02*
X36740797Y-38932685D01*
X38836035Y-39218400D02*
X38740797Y-39266019D01*
X38740797Y-39266019D02*
X38550321Y-39266019D01*
X38550321Y-39266019D02*
X38455083Y-39218400D01*
X38455083Y-39218400D02*
X38407464Y-39170780D01*
X38407464Y-39170780D02*
X38359845Y-39075542D01*
X38359845Y-39075542D02*
X38359845Y-38789828D01*
X38359845Y-38789828D02*
X38407464Y-38694590D01*
X38407464Y-38694590D02*
X38455083Y-38646971D01*
X38455083Y-38646971D02*
X38550321Y-38599352D01*
X38550321Y-38599352D02*
X38740797Y-38599352D01*
X38740797Y-38599352D02*
X38836035Y-38646971D01*
X39407464Y-39266019D02*
X39312226Y-39218400D01*
X39312226Y-39218400D02*
X39264607Y-39170780D01*
X39264607Y-39170780D02*
X39216988Y-39075542D01*
X39216988Y-39075542D02*
X39216988Y-38789828D01*
X39216988Y-38789828D02*
X39264607Y-38694590D01*
X39264607Y-38694590D02*
X39312226Y-38646971D01*
X39312226Y-38646971D02*
X39407464Y-38599352D01*
X39407464Y-38599352D02*
X39550321Y-38599352D01*
X39550321Y-38599352D02*
X39645559Y-38646971D01*
X39645559Y-38646971D02*
X39693178Y-38694590D01*
X39693178Y-38694590D02*
X39740797Y-38789828D01*
X39740797Y-38789828D02*
X39740797Y-39075542D01*
X39740797Y-39075542D02*
X39693178Y-39170780D01*
X39693178Y-39170780D02*
X39645559Y-39218400D01*
X39645559Y-39218400D02*
X39550321Y-39266019D01*
X39550321Y-39266019D02*
X39407464Y-39266019D01*
X40169369Y-39266019D02*
X40169369Y-38599352D01*
X40169369Y-38694590D02*
X40216988Y-38646971D01*
X40216988Y-38646971D02*
X40312226Y-38599352D01*
X40312226Y-38599352D02*
X40455083Y-38599352D01*
X40455083Y-38599352D02*
X40550321Y-38646971D01*
X40550321Y-38646971D02*
X40597940Y-38742209D01*
X40597940Y-38742209D02*
X40597940Y-39266019D01*
X40597940Y-38742209D02*
X40645559Y-38646971D01*
X40645559Y-38646971D02*
X40740797Y-38599352D01*
X40740797Y-38599352D02*
X40883654Y-38599352D01*
X40883654Y-38599352D02*
X40978893Y-38646971D01*
X40978893Y-38646971D02*
X41026512Y-38742209D01*
X41026512Y-38742209D02*
X41026512Y-39266019D01*
X41502702Y-38599352D02*
X41502702Y-39599352D01*
X41502702Y-38646971D02*
X41597940Y-38599352D01*
X41597940Y-38599352D02*
X41788416Y-38599352D01*
X41788416Y-38599352D02*
X41883654Y-38646971D01*
X41883654Y-38646971D02*
X41931273Y-38694590D01*
X41931273Y-38694590D02*
X41978892Y-38789828D01*
X41978892Y-38789828D02*
X41978892Y-39075542D01*
X41978892Y-39075542D02*
X41931273Y-39170780D01*
X41931273Y-39170780D02*
X41883654Y-39218400D01*
X41883654Y-39218400D02*
X41788416Y-39266019D01*
X41788416Y-39266019D02*
X41597940Y-39266019D01*
X41597940Y-39266019D02*
X41502702Y-39218400D01*
X42550321Y-39266019D02*
X42455083Y-39218400D01*
X42455083Y-39218400D02*
X42407464Y-39170780D01*
X42407464Y-39170780D02*
X42359845Y-39075542D01*
X42359845Y-39075542D02*
X42359845Y-38789828D01*
X42359845Y-38789828D02*
X42407464Y-38694590D01*
X42407464Y-38694590D02*
X42455083Y-38646971D01*
X42455083Y-38646971D02*
X42550321Y-38599352D01*
X42550321Y-38599352D02*
X42693178Y-38599352D01*
X42693178Y-38599352D02*
X42788416Y-38646971D01*
X42788416Y-38646971D02*
X42836035Y-38694590D01*
X42836035Y-38694590D02*
X42883654Y-38789828D01*
X42883654Y-38789828D02*
X42883654Y-39075542D01*
X42883654Y-39075542D02*
X42836035Y-39170780D01*
X42836035Y-39170780D02*
X42788416Y-39218400D01*
X42788416Y-39218400D02*
X42693178Y-39266019D01*
X42693178Y-39266019D02*
X42550321Y-39266019D01*
X43312226Y-38599352D02*
X43312226Y-39266019D01*
X43312226Y-38694590D02*
X43359845Y-38646971D01*
X43359845Y-38646971D02*
X43455083Y-38599352D01*
X43455083Y-38599352D02*
X43597940Y-38599352D01*
X43597940Y-38599352D02*
X43693178Y-38646971D01*
X43693178Y-38646971D02*
X43740797Y-38742209D01*
X43740797Y-38742209D02*
X43740797Y-39266019D01*
X44597940Y-39218400D02*
X44502702Y-39266019D01*
X44502702Y-39266019D02*
X44312226Y-39266019D01*
X44312226Y-39266019D02*
X44216988Y-39218400D01*
X44216988Y-39218400D02*
X44169369Y-39123161D01*
X44169369Y-39123161D02*
X44169369Y-38742209D01*
X44169369Y-38742209D02*
X44216988Y-38646971D01*
X44216988Y-38646971D02*
X44312226Y-38599352D01*
X44312226Y-38599352D02*
X44502702Y-38599352D01*
X44502702Y-38599352D02*
X44597940Y-38646971D01*
X44597940Y-38646971D02*
X44645559Y-38742209D01*
X44645559Y-38742209D02*
X44645559Y-38837447D01*
X44645559Y-38837447D02*
X44169369Y-38932685D01*
X45074131Y-38599352D02*
X45074131Y-39266019D01*
X45074131Y-38694590D02*
X45121750Y-38646971D01*
X45121750Y-38646971D02*
X45216988Y-38599352D01*
X45216988Y-38599352D02*
X45359845Y-38599352D01*
X45359845Y-38599352D02*
X45455083Y-38646971D01*
X45455083Y-38646971D02*
X45502702Y-38742209D01*
X45502702Y-38742209D02*
X45502702Y-39266019D01*
X45836036Y-38599352D02*
X46216988Y-38599352D01*
X45978893Y-38266019D02*
X45978893Y-39123161D01*
X45978893Y-39123161D02*
X46026512Y-39218400D01*
X46026512Y-39218400D02*
X46121750Y-39266019D01*
X46121750Y-39266019D02*
X46216988Y-39266019D01*
X46502703Y-39218400D02*
X46597941Y-39266019D01*
X46597941Y-39266019D02*
X46788417Y-39266019D01*
X46788417Y-39266019D02*
X46883655Y-39218400D01*
X46883655Y-39218400D02*
X46931274Y-39123161D01*
X46931274Y-39123161D02*
X46931274Y-39075542D01*
X46931274Y-39075542D02*
X46883655Y-38980304D01*
X46883655Y-38980304D02*
X46788417Y-38932685D01*
X46788417Y-38932685D02*
X46645560Y-38932685D01*
X46645560Y-38932685D02*
X46550322Y-38885066D01*
X46550322Y-38885066D02*
X46502703Y-38789828D01*
X46502703Y-38789828D02*
X46502703Y-38742209D01*
X46502703Y-38742209D02*
X46550322Y-38646971D01*
X46550322Y-38646971D02*
X46645560Y-38599352D01*
X46645560Y-38599352D02*
X46788417Y-38599352D01*
X46788417Y-38599352D02*
X46883655Y-38646971D01*
X48026513Y-38599352D02*
X48216989Y-39266019D01*
X48216989Y-39266019D02*
X48407465Y-38789828D01*
X48407465Y-38789828D02*
X48597941Y-39266019D01*
X48597941Y-39266019D02*
X48788417Y-38599352D01*
X49169370Y-39266019D02*
X49169370Y-38599352D01*
X49169370Y-38266019D02*
X49121751Y-38313638D01*
X49121751Y-38313638D02*
X49169370Y-38361257D01*
X49169370Y-38361257D02*
X49216989Y-38313638D01*
X49216989Y-38313638D02*
X49169370Y-38266019D01*
X49169370Y-38266019D02*
X49169370Y-38361257D01*
X49502703Y-38599352D02*
X49883655Y-38599352D01*
X49645560Y-38266019D02*
X49645560Y-39123161D01*
X49645560Y-39123161D02*
X49693179Y-39218400D01*
X49693179Y-39218400D02*
X49788417Y-39266019D01*
X49788417Y-39266019D02*
X49883655Y-39266019D01*
X50216989Y-39266019D02*
X50216989Y-38266019D01*
X50645560Y-39266019D02*
X50645560Y-38742209D01*
X50645560Y-38742209D02*
X50597941Y-38646971D01*
X50597941Y-38646971D02*
X50502703Y-38599352D01*
X50502703Y-38599352D02*
X50359846Y-38599352D01*
X50359846Y-38599352D02*
X50264608Y-38646971D01*
X50264608Y-38646971D02*
X50216989Y-38694590D01*
X51883656Y-39266019D02*
X51883656Y-38266019D01*
X52312227Y-39266019D02*
X52312227Y-38742209D01*
X52312227Y-38742209D02*
X52264608Y-38646971D01*
X52264608Y-38646971D02*
X52169370Y-38599352D01*
X52169370Y-38599352D02*
X52026513Y-38599352D01*
X52026513Y-38599352D02*
X51931275Y-38646971D01*
X51931275Y-38646971D02*
X51883656Y-38694590D01*
X52788418Y-39266019D02*
X52788418Y-38599352D01*
X52788418Y-38266019D02*
X52740799Y-38313638D01*
X52740799Y-38313638D02*
X52788418Y-38361257D01*
X52788418Y-38361257D02*
X52836037Y-38313638D01*
X52836037Y-38313638D02*
X52788418Y-38266019D01*
X52788418Y-38266019D02*
X52788418Y-38361257D01*
X53693179Y-38599352D02*
X53693179Y-39408876D01*
X53693179Y-39408876D02*
X53645560Y-39504114D01*
X53645560Y-39504114D02*
X53597941Y-39551733D01*
X53597941Y-39551733D02*
X53502703Y-39599352D01*
X53502703Y-39599352D02*
X53359846Y-39599352D01*
X53359846Y-39599352D02*
X53264608Y-39551733D01*
X53693179Y-39218400D02*
X53597941Y-39266019D01*
X53597941Y-39266019D02*
X53407465Y-39266019D01*
X53407465Y-39266019D02*
X53312227Y-39218400D01*
X53312227Y-39218400D02*
X53264608Y-39170780D01*
X53264608Y-39170780D02*
X53216989Y-39075542D01*
X53216989Y-39075542D02*
X53216989Y-38789828D01*
X53216989Y-38789828D02*
X53264608Y-38694590D01*
X53264608Y-38694590D02*
X53312227Y-38646971D01*
X53312227Y-38646971D02*
X53407465Y-38599352D01*
X53407465Y-38599352D02*
X53597941Y-38599352D01*
X53597941Y-38599352D02*
X53693179Y-38646971D01*
X54169370Y-39266019D02*
X54169370Y-38266019D01*
X54597941Y-39266019D02*
X54597941Y-38742209D01*
X54597941Y-38742209D02*
X54550322Y-38646971D01*
X54550322Y-38646971D02*
X54455084Y-38599352D01*
X54455084Y-38599352D02*
X54312227Y-38599352D01*
X54312227Y-38599352D02*
X54216989Y-38646971D01*
X54216989Y-38646971D02*
X54169370Y-38694590D01*
X54931275Y-38599352D02*
X55312227Y-38599352D01*
X55074132Y-38266019D02*
X55074132Y-39123161D01*
X55074132Y-39123161D02*
X55121751Y-39218400D01*
X55121751Y-39218400D02*
X55216989Y-39266019D01*
X55216989Y-39266019D02*
X55312227Y-39266019D01*
X56836037Y-39266019D02*
X56836037Y-38742209D01*
X56836037Y-38742209D02*
X56788418Y-38646971D01*
X56788418Y-38646971D02*
X56693180Y-38599352D01*
X56693180Y-38599352D02*
X56502704Y-38599352D01*
X56502704Y-38599352D02*
X56407466Y-38646971D01*
X56836037Y-39218400D02*
X56740799Y-39266019D01*
X56740799Y-39266019D02*
X56502704Y-39266019D01*
X56502704Y-39266019D02*
X56407466Y-39218400D01*
X56407466Y-39218400D02*
X56359847Y-39123161D01*
X56359847Y-39123161D02*
X56359847Y-39027923D01*
X56359847Y-39027923D02*
X56407466Y-38932685D01*
X56407466Y-38932685D02*
X56502704Y-38885066D01*
X56502704Y-38885066D02*
X56740799Y-38885066D01*
X56740799Y-38885066D02*
X56836037Y-38837447D01*
X57312228Y-39266019D02*
X57312228Y-38266019D01*
X57312228Y-38646971D02*
X57407466Y-38599352D01*
X57407466Y-38599352D02*
X57597942Y-38599352D01*
X57597942Y-38599352D02*
X57693180Y-38646971D01*
X57693180Y-38646971D02*
X57740799Y-38694590D01*
X57740799Y-38694590D02*
X57788418Y-38789828D01*
X57788418Y-38789828D02*
X57788418Y-39075542D01*
X57788418Y-39075542D02*
X57740799Y-39170780D01*
X57740799Y-39170780D02*
X57693180Y-39218400D01*
X57693180Y-39218400D02*
X57597942Y-39266019D01*
X57597942Y-39266019D02*
X57407466Y-39266019D01*
X57407466Y-39266019D02*
X57312228Y-39218400D01*
X58359847Y-39266019D02*
X58264609Y-39218400D01*
X58264609Y-39218400D02*
X58216990Y-39170780D01*
X58216990Y-39170780D02*
X58169371Y-39075542D01*
X58169371Y-39075542D02*
X58169371Y-38789828D01*
X58169371Y-38789828D02*
X58216990Y-38694590D01*
X58216990Y-38694590D02*
X58264609Y-38646971D01*
X58264609Y-38646971D02*
X58359847Y-38599352D01*
X58359847Y-38599352D02*
X58502704Y-38599352D01*
X58502704Y-38599352D02*
X58597942Y-38646971D01*
X58597942Y-38646971D02*
X58645561Y-38694590D01*
X58645561Y-38694590D02*
X58693180Y-38789828D01*
X58693180Y-38789828D02*
X58693180Y-39075542D01*
X58693180Y-39075542D02*
X58645561Y-39170780D01*
X58645561Y-39170780D02*
X58597942Y-39218400D01*
X58597942Y-39218400D02*
X58502704Y-39266019D01*
X58502704Y-39266019D02*
X58359847Y-39266019D01*
X59026514Y-38599352D02*
X59264609Y-39266019D01*
X59264609Y-39266019D02*
X59502704Y-38599352D01*
X60264609Y-39218400D02*
X60169371Y-39266019D01*
X60169371Y-39266019D02*
X59978895Y-39266019D01*
X59978895Y-39266019D02*
X59883657Y-39218400D01*
X59883657Y-39218400D02*
X59836038Y-39123161D01*
X59836038Y-39123161D02*
X59836038Y-38742209D01*
X59836038Y-38742209D02*
X59883657Y-38646971D01*
X59883657Y-38646971D02*
X59978895Y-38599352D01*
X59978895Y-38599352D02*
X60169371Y-38599352D01*
X60169371Y-38599352D02*
X60264609Y-38646971D01*
X60264609Y-38646971D02*
X60312228Y-38742209D01*
X60312228Y-38742209D02*
X60312228Y-38837447D01*
X60312228Y-38837447D02*
X59836038Y-38932685D01*
X62026514Y-39266019D02*
X61455086Y-39266019D01*
X61740800Y-39266019D02*
X61740800Y-38266019D01*
X61740800Y-38266019D02*
X61645562Y-38408876D01*
X61645562Y-38408876D02*
X61550324Y-38504114D01*
X61550324Y-38504114D02*
X61455086Y-38551733D01*
X62645562Y-38266019D02*
X62740800Y-38266019D01*
X62740800Y-38266019D02*
X62836038Y-38313638D01*
X62836038Y-38313638D02*
X62883657Y-38361257D01*
X62883657Y-38361257D02*
X62931276Y-38456495D01*
X62931276Y-38456495D02*
X62978895Y-38646971D01*
X62978895Y-38646971D02*
X62978895Y-38885066D01*
X62978895Y-38885066D02*
X62931276Y-39075542D01*
X62931276Y-39075542D02*
X62883657Y-39170780D01*
X62883657Y-39170780D02*
X62836038Y-39218400D01*
X62836038Y-39218400D02*
X62740800Y-39266019D01*
X62740800Y-39266019D02*
X62645562Y-39266019D01*
X62645562Y-39266019D02*
X62550324Y-39218400D01*
X62550324Y-39218400D02*
X62502705Y-39170780D01*
X62502705Y-39170780D02*
X62455086Y-39075542D01*
X62455086Y-39075542D02*
X62407467Y-38885066D01*
X62407467Y-38885066D02*
X62407467Y-38646971D01*
X62407467Y-38646971D02*
X62455086Y-38456495D01*
X62455086Y-38456495D02*
X62502705Y-38361257D01*
X62502705Y-38361257D02*
X62550324Y-38313638D01*
X62550324Y-38313638D02*
X62645562Y-38266019D01*
X63407467Y-39266019D02*
X63407467Y-38599352D01*
X63407467Y-38694590D02*
X63455086Y-38646971D01*
X63455086Y-38646971D02*
X63550324Y-38599352D01*
X63550324Y-38599352D02*
X63693181Y-38599352D01*
X63693181Y-38599352D02*
X63788419Y-38646971D01*
X63788419Y-38646971D02*
X63836038Y-38742209D01*
X63836038Y-38742209D02*
X63836038Y-39266019D01*
X63836038Y-38742209D02*
X63883657Y-38646971D01*
X63883657Y-38646971D02*
X63978895Y-38599352D01*
X63978895Y-38599352D02*
X64121752Y-38599352D01*
X64121752Y-38599352D02*
X64216991Y-38646971D01*
X64216991Y-38646971D02*
X64264610Y-38742209D01*
X64264610Y-38742209D02*
X64264610Y-39266019D01*
X64740800Y-39266019D02*
X64740800Y-38599352D01*
X64740800Y-38694590D02*
X64788419Y-38646971D01*
X64788419Y-38646971D02*
X64883657Y-38599352D01*
X64883657Y-38599352D02*
X65026514Y-38599352D01*
X65026514Y-38599352D02*
X65121752Y-38646971D01*
X65121752Y-38646971D02*
X65169371Y-38742209D01*
X65169371Y-38742209D02*
X65169371Y-39266019D01*
X65169371Y-38742209D02*
X65216990Y-38646971D01*
X65216990Y-38646971D02*
X65312228Y-38599352D01*
X65312228Y-38599352D02*
X65455085Y-38599352D01*
X65455085Y-38599352D02*
X65550324Y-38646971D01*
X65550324Y-38646971D02*
X65597943Y-38742209D01*
X65597943Y-38742209D02*
X65597943Y-39266019D01*
X66836038Y-39266019D02*
X66836038Y-38599352D01*
X66836038Y-38266019D02*
X66788419Y-38313638D01*
X66788419Y-38313638D02*
X66836038Y-38361257D01*
X66836038Y-38361257D02*
X66883657Y-38313638D01*
X66883657Y-38313638D02*
X66836038Y-38266019D01*
X66836038Y-38266019D02*
X66836038Y-38361257D01*
X67312228Y-38599352D02*
X67312228Y-39266019D01*
X67312228Y-38694590D02*
X67359847Y-38646971D01*
X67359847Y-38646971D02*
X67455085Y-38599352D01*
X67455085Y-38599352D02*
X67597942Y-38599352D01*
X67597942Y-38599352D02*
X67693180Y-38646971D01*
X67693180Y-38646971D02*
X67740799Y-38742209D01*
X67740799Y-38742209D02*
X67740799Y-39266019D01*
X68836038Y-38599352D02*
X69216990Y-38599352D01*
X68978895Y-38266019D02*
X68978895Y-39123161D01*
X68978895Y-39123161D02*
X69026514Y-39218400D01*
X69026514Y-39218400D02*
X69121752Y-39266019D01*
X69121752Y-39266019D02*
X69216990Y-39266019D01*
X69550324Y-39266019D02*
X69550324Y-38266019D01*
X69978895Y-39266019D02*
X69978895Y-38742209D01*
X69978895Y-38742209D02*
X69931276Y-38646971D01*
X69931276Y-38646971D02*
X69836038Y-38599352D01*
X69836038Y-38599352D02*
X69693181Y-38599352D01*
X69693181Y-38599352D02*
X69597943Y-38646971D01*
X69597943Y-38646971D02*
X69550324Y-38694590D01*
X70455086Y-39266019D02*
X70455086Y-38599352D01*
X70455086Y-38266019D02*
X70407467Y-38313638D01*
X70407467Y-38313638D02*
X70455086Y-38361257D01*
X70455086Y-38361257D02*
X70502705Y-38313638D01*
X70502705Y-38313638D02*
X70455086Y-38266019D01*
X70455086Y-38266019D02*
X70455086Y-38361257D01*
X70883657Y-39218400D02*
X70978895Y-39266019D01*
X70978895Y-39266019D02*
X71169371Y-39266019D01*
X71169371Y-39266019D02*
X71264609Y-39218400D01*
X71264609Y-39218400D02*
X71312228Y-39123161D01*
X71312228Y-39123161D02*
X71312228Y-39075542D01*
X71312228Y-39075542D02*
X71264609Y-38980304D01*
X71264609Y-38980304D02*
X71169371Y-38932685D01*
X71169371Y-38932685D02*
X71026514Y-38932685D01*
X71026514Y-38932685D02*
X70931276Y-38885066D01*
X70931276Y-38885066D02*
X70883657Y-38789828D01*
X70883657Y-38789828D02*
X70883657Y-38742209D01*
X70883657Y-38742209D02*
X70931276Y-38646971D01*
X70931276Y-38646971D02*
X71026514Y-38599352D01*
X71026514Y-38599352D02*
X71169371Y-38599352D01*
X71169371Y-38599352D02*
X71264609Y-38646971D01*
X72502705Y-39266019D02*
X72502705Y-38599352D01*
X72502705Y-38789828D02*
X72550324Y-38694590D01*
X72550324Y-38694590D02*
X72597943Y-38646971D01*
X72597943Y-38646971D02*
X72693181Y-38599352D01*
X72693181Y-38599352D02*
X72788419Y-38599352D01*
X73502705Y-39218400D02*
X73407467Y-39266019D01*
X73407467Y-39266019D02*
X73216991Y-39266019D01*
X73216991Y-39266019D02*
X73121753Y-39218400D01*
X73121753Y-39218400D02*
X73074134Y-39123161D01*
X73074134Y-39123161D02*
X73074134Y-38742209D01*
X73074134Y-38742209D02*
X73121753Y-38646971D01*
X73121753Y-38646971D02*
X73216991Y-38599352D01*
X73216991Y-38599352D02*
X73407467Y-38599352D01*
X73407467Y-38599352D02*
X73502705Y-38646971D01*
X73502705Y-38646971D02*
X73550324Y-38742209D01*
X73550324Y-38742209D02*
X73550324Y-38837447D01*
X73550324Y-38837447D02*
X73074134Y-38932685D01*
X74407467Y-38599352D02*
X74407467Y-39408876D01*
X74407467Y-39408876D02*
X74359848Y-39504114D01*
X74359848Y-39504114D02*
X74312229Y-39551733D01*
X74312229Y-39551733D02*
X74216991Y-39599352D01*
X74216991Y-39599352D02*
X74074134Y-39599352D01*
X74074134Y-39599352D02*
X73978896Y-39551733D01*
X74407467Y-39218400D02*
X74312229Y-39266019D01*
X74312229Y-39266019D02*
X74121753Y-39266019D01*
X74121753Y-39266019D02*
X74026515Y-39218400D01*
X74026515Y-39218400D02*
X73978896Y-39170780D01*
X73978896Y-39170780D02*
X73931277Y-39075542D01*
X73931277Y-39075542D02*
X73931277Y-38789828D01*
X73931277Y-38789828D02*
X73978896Y-38694590D01*
X73978896Y-38694590D02*
X74026515Y-38646971D01*
X74026515Y-38646971D02*
X74121753Y-38599352D01*
X74121753Y-38599352D02*
X74312229Y-38599352D01*
X74312229Y-38599352D02*
X74407467Y-38646971D01*
X74883658Y-39266019D02*
X74883658Y-38599352D01*
X74883658Y-38266019D02*
X74836039Y-38313638D01*
X74836039Y-38313638D02*
X74883658Y-38361257D01*
X74883658Y-38361257D02*
X74931277Y-38313638D01*
X74931277Y-38313638D02*
X74883658Y-38266019D01*
X74883658Y-38266019D02*
X74883658Y-38361257D01*
X75502705Y-39266019D02*
X75407467Y-39218400D01*
X75407467Y-39218400D02*
X75359848Y-39170780D01*
X75359848Y-39170780D02*
X75312229Y-39075542D01*
X75312229Y-39075542D02*
X75312229Y-38789828D01*
X75312229Y-38789828D02*
X75359848Y-38694590D01*
X75359848Y-38694590D02*
X75407467Y-38646971D01*
X75407467Y-38646971D02*
X75502705Y-38599352D01*
X75502705Y-38599352D02*
X75645562Y-38599352D01*
X75645562Y-38599352D02*
X75740800Y-38646971D01*
X75740800Y-38646971D02*
X75788419Y-38694590D01*
X75788419Y-38694590D02*
X75836038Y-38789828D01*
X75836038Y-38789828D02*
X75836038Y-39075542D01*
X75836038Y-39075542D02*
X75788419Y-39170780D01*
X75788419Y-39170780D02*
X75740800Y-39218400D01*
X75740800Y-39218400D02*
X75645562Y-39266019D01*
X75645562Y-39266019D02*
X75502705Y-39266019D01*
X76264610Y-38599352D02*
X76264610Y-39266019D01*
X76264610Y-38694590D02*
X76312229Y-38646971D01*
X76312229Y-38646971D02*
X76407467Y-38599352D01*
X76407467Y-38599352D02*
X76550324Y-38599352D01*
X76550324Y-38599352D02*
X76645562Y-38646971D01*
X76645562Y-38646971D02*
X76693181Y-38742209D01*
X76693181Y-38742209D02*
X76693181Y-39266019D01*
X78074134Y-39266019D02*
X77978896Y-39218400D01*
X77978896Y-39218400D02*
X77931277Y-39170780D01*
X77931277Y-39170780D02*
X77883658Y-39075542D01*
X77883658Y-39075542D02*
X77883658Y-38789828D01*
X77883658Y-38789828D02*
X77931277Y-38694590D01*
X77931277Y-38694590D02*
X77978896Y-38646971D01*
X77978896Y-38646971D02*
X78074134Y-38599352D01*
X78074134Y-38599352D02*
X78216991Y-38599352D01*
X78216991Y-38599352D02*
X78312229Y-38646971D01*
X78312229Y-38646971D02*
X78359848Y-38694590D01*
X78359848Y-38694590D02*
X78407467Y-38789828D01*
X78407467Y-38789828D02*
X78407467Y-39075542D01*
X78407467Y-39075542D02*
X78359848Y-39170780D01*
X78359848Y-39170780D02*
X78312229Y-39218400D01*
X78312229Y-39218400D02*
X78216991Y-39266019D01*
X78216991Y-39266019D02*
X78074134Y-39266019D01*
X78693182Y-38599352D02*
X79074134Y-38599352D01*
X78836039Y-39266019D02*
X78836039Y-38408876D01*
X78836039Y-38408876D02*
X78883658Y-38313638D01*
X78883658Y-38313638D02*
X78978896Y-38266019D01*
X78978896Y-38266019D02*
X79074134Y-38266019D01*
X80026516Y-38599352D02*
X80407468Y-38599352D01*
X80169373Y-38266019D02*
X80169373Y-39123161D01*
X80169373Y-39123161D02*
X80216992Y-39218400D01*
X80216992Y-39218400D02*
X80312230Y-39266019D01*
X80312230Y-39266019D02*
X80407468Y-39266019D01*
X80740802Y-39266019D02*
X80740802Y-38266019D01*
X81169373Y-39266019D02*
X81169373Y-38742209D01*
X81169373Y-38742209D02*
X81121754Y-38646971D01*
X81121754Y-38646971D02*
X81026516Y-38599352D01*
X81026516Y-38599352D02*
X80883659Y-38599352D01*
X80883659Y-38599352D02*
X80788421Y-38646971D01*
X80788421Y-38646971D02*
X80740802Y-38694590D01*
X82026516Y-39218400D02*
X81931278Y-39266019D01*
X81931278Y-39266019D02*
X81740802Y-39266019D01*
X81740802Y-39266019D02*
X81645564Y-39218400D01*
X81645564Y-39218400D02*
X81597945Y-39123161D01*
X81597945Y-39123161D02*
X81597945Y-38742209D01*
X81597945Y-38742209D02*
X81645564Y-38646971D01*
X81645564Y-38646971D02*
X81740802Y-38599352D01*
X81740802Y-38599352D02*
X81931278Y-38599352D01*
X81931278Y-38599352D02*
X82026516Y-38646971D01*
X82026516Y-38646971D02*
X82074135Y-38742209D01*
X82074135Y-38742209D02*
X82074135Y-38837447D01*
X82074135Y-38837447D02*
X81597945Y-38932685D01*
X83264612Y-39266019D02*
X83264612Y-38266019D01*
X83264612Y-38646971D02*
X83359850Y-38599352D01*
X83359850Y-38599352D02*
X83550326Y-38599352D01*
X83550326Y-38599352D02*
X83645564Y-38646971D01*
X83645564Y-38646971D02*
X83693183Y-38694590D01*
X83693183Y-38694590D02*
X83740802Y-38789828D01*
X83740802Y-38789828D02*
X83740802Y-39075542D01*
X83740802Y-39075542D02*
X83693183Y-39170780D01*
X83693183Y-39170780D02*
X83645564Y-39218400D01*
X83645564Y-39218400D02*
X83550326Y-39266019D01*
X83550326Y-39266019D02*
X83359850Y-39266019D01*
X83359850Y-39266019D02*
X83264612Y-39218400D01*
X84312231Y-39266019D02*
X84216993Y-39218400D01*
X84216993Y-39218400D02*
X84169374Y-39170780D01*
X84169374Y-39170780D02*
X84121755Y-39075542D01*
X84121755Y-39075542D02*
X84121755Y-38789828D01*
X84121755Y-38789828D02*
X84169374Y-38694590D01*
X84169374Y-38694590D02*
X84216993Y-38646971D01*
X84216993Y-38646971D02*
X84312231Y-38599352D01*
X84312231Y-38599352D02*
X84455088Y-38599352D01*
X84455088Y-38599352D02*
X84550326Y-38646971D01*
X84550326Y-38646971D02*
X84597945Y-38694590D01*
X84597945Y-38694590D02*
X84645564Y-38789828D01*
X84645564Y-38789828D02*
X84645564Y-39075542D01*
X84645564Y-39075542D02*
X84597945Y-39170780D01*
X84597945Y-39170780D02*
X84550326Y-39218400D01*
X84550326Y-39218400D02*
X84455088Y-39266019D01*
X84455088Y-39266019D02*
X84312231Y-39266019D01*
X84931279Y-38599352D02*
X85312231Y-38599352D01*
X85074136Y-38266019D02*
X85074136Y-39123161D01*
X85074136Y-39123161D02*
X85121755Y-39218400D01*
X85121755Y-39218400D02*
X85216993Y-39266019D01*
X85216993Y-39266019D02*
X85312231Y-39266019D01*
X85502708Y-38599352D02*
X85883660Y-38599352D01*
X85645565Y-38266019D02*
X85645565Y-39123161D01*
X85645565Y-39123161D02*
X85693184Y-39218400D01*
X85693184Y-39218400D02*
X85788422Y-39266019D01*
X85788422Y-39266019D02*
X85883660Y-39266019D01*
X86359851Y-39266019D02*
X86264613Y-39218400D01*
X86264613Y-39218400D02*
X86216994Y-39170780D01*
X86216994Y-39170780D02*
X86169375Y-39075542D01*
X86169375Y-39075542D02*
X86169375Y-38789828D01*
X86169375Y-38789828D02*
X86216994Y-38694590D01*
X86216994Y-38694590D02*
X86264613Y-38646971D01*
X86264613Y-38646971D02*
X86359851Y-38599352D01*
X86359851Y-38599352D02*
X86502708Y-38599352D01*
X86502708Y-38599352D02*
X86597946Y-38646971D01*
X86597946Y-38646971D02*
X86645565Y-38694590D01*
X86645565Y-38694590D02*
X86693184Y-38789828D01*
X86693184Y-38789828D02*
X86693184Y-39075542D01*
X86693184Y-39075542D02*
X86645565Y-39170780D01*
X86645565Y-39170780D02*
X86597946Y-39218400D01*
X86597946Y-39218400D02*
X86502708Y-39266019D01*
X86502708Y-39266019D02*
X86359851Y-39266019D01*
X87121756Y-39266019D02*
X87121756Y-38599352D01*
X87121756Y-38694590D02*
X87169375Y-38646971D01*
X87169375Y-38646971D02*
X87264613Y-38599352D01*
X87264613Y-38599352D02*
X87407470Y-38599352D01*
X87407470Y-38599352D02*
X87502708Y-38646971D01*
X87502708Y-38646971D02*
X87550327Y-38742209D01*
X87550327Y-38742209D02*
X87550327Y-39266019D01*
X87550327Y-38742209D02*
X87597946Y-38646971D01*
X87597946Y-38646971D02*
X87693184Y-38599352D01*
X87693184Y-38599352D02*
X87836041Y-38599352D01*
X87836041Y-38599352D02*
X87931280Y-38646971D01*
X87931280Y-38646971D02*
X87978899Y-38742209D01*
X87978899Y-38742209D02*
X87978899Y-39266019D01*
X89359851Y-39266019D02*
X89264613Y-39218400D01*
X89264613Y-39218400D02*
X89216994Y-39123161D01*
X89216994Y-39123161D02*
X89216994Y-38266019D01*
X90169375Y-39266019D02*
X90169375Y-38742209D01*
X90169375Y-38742209D02*
X90121756Y-38646971D01*
X90121756Y-38646971D02*
X90026518Y-38599352D01*
X90026518Y-38599352D02*
X89836042Y-38599352D01*
X89836042Y-38599352D02*
X89740804Y-38646971D01*
X90169375Y-39218400D02*
X90074137Y-39266019D01*
X90074137Y-39266019D02*
X89836042Y-39266019D01*
X89836042Y-39266019D02*
X89740804Y-39218400D01*
X89740804Y-39218400D02*
X89693185Y-39123161D01*
X89693185Y-39123161D02*
X89693185Y-39027923D01*
X89693185Y-39027923D02*
X89740804Y-38932685D01*
X89740804Y-38932685D02*
X89836042Y-38885066D01*
X89836042Y-38885066D02*
X90074137Y-38885066D01*
X90074137Y-38885066D02*
X90169375Y-38837447D01*
X90550328Y-38599352D02*
X90788423Y-39266019D01*
X91026518Y-38599352D02*
X90788423Y-39266019D01*
X90788423Y-39266019D02*
X90693185Y-39504114D01*
X90693185Y-39504114D02*
X90645566Y-39551733D01*
X90645566Y-39551733D02*
X90550328Y-39599352D01*
X91788423Y-39218400D02*
X91693185Y-39266019D01*
X91693185Y-39266019D02*
X91502709Y-39266019D01*
X91502709Y-39266019D02*
X91407471Y-39218400D01*
X91407471Y-39218400D02*
X91359852Y-39123161D01*
X91359852Y-39123161D02*
X91359852Y-38742209D01*
X91359852Y-38742209D02*
X91407471Y-38646971D01*
X91407471Y-38646971D02*
X91502709Y-38599352D01*
X91502709Y-38599352D02*
X91693185Y-38599352D01*
X91693185Y-38599352D02*
X91788423Y-38646971D01*
X91788423Y-38646971D02*
X91836042Y-38742209D01*
X91836042Y-38742209D02*
X91836042Y-38837447D01*
X91836042Y-38837447D02*
X91359852Y-38932685D01*
X92264614Y-39266019D02*
X92264614Y-38599352D01*
X92264614Y-38789828D02*
X92312233Y-38694590D01*
X92312233Y-38694590D02*
X92359852Y-38646971D01*
X92359852Y-38646971D02*
X92455090Y-38599352D01*
X92455090Y-38599352D02*
X92550328Y-38599352D01*
D12*
X-17960000Y-32350000D02*
X-18460000Y-32350000D01*
X-18460000Y-33150000D01*
X-17960000Y-33150000D01*
X-17960000Y-32350000D01*
G36*
X-17960000Y-32350000D02*
G01*
X-18460000Y-32350000D01*
X-18460000Y-33150000D01*
X-17960000Y-33150000D01*
X-17960000Y-32350000D01*
G37*
M02*
