G04 #@! TF.GenerationSoftware,KiCad,Pcbnew,8.0.4*
G04 #@! TF.CreationDate,2025-02-25T17:16:13+05:30*
G04 #@! TF.ProjectId,P-1000101_Cicada WiSun,502d3130-3030-4313-9031-5f4369636164,0.1*
G04 #@! TF.SameCoordinates,PX7cee6c0PY3dfd240*
G04 #@! TF.FileFunction,AssemblyDrawing,Bot*
%FSLAX46Y46*%
G04 Gerber Fmt 4.6, Leading zero omitted, Abs format (unit mm)*
G04 Created by KiCad (PCBNEW 8.0.4) date 2025-02-25 17:16:13*
%MOMM*%
%LPD*%
G01*
G04 APERTURE LIST*
%ADD10C,0.150000*%
%ADD11C,0.062500*%
%ADD12C,0.060000*%
%ADD13C,0.075000*%
%ADD14C,0.040000*%
%ADD15C,0.080000*%
%ADD16C,0.100000*%
G04 APERTURE END LIST*
D10*
X10494434Y-8870000D02*
G75*
G02*
X8685566Y-8870000I-904434J0D01*
G01*
X8685566Y-8870000D02*
G75*
G02*
X10494434Y-8870000I904434J0D01*
G01*
D11*
X-9147382Y-4582404D02*
X-9004525Y-4582404D01*
X-9075953Y-4582404D02*
X-9075953Y-4332404D01*
X-9075953Y-4332404D02*
X-9052144Y-4368119D01*
X-9052144Y-4368119D02*
X-9028334Y-4391928D01*
X-9028334Y-4391928D02*
X-9004525Y-4403833D01*
X-9361667Y-4415738D02*
X-9361667Y-4582404D01*
X-9302143Y-4320500D02*
X-9242620Y-4499071D01*
X-9242620Y-4499071D02*
X-9397381Y-4499071D01*
X-9492619Y-4582404D02*
X-9492619Y-4332404D01*
X-9635476Y-4582404D02*
X-9528334Y-4439547D01*
X-9635476Y-4332404D02*
X-9492619Y-4475261D01*
D12*
X-10367846Y-4641927D02*
X-10234513Y-4451451D01*
X-10139275Y-4641927D02*
X-10139275Y-4241927D01*
X-10139275Y-4241927D02*
X-10291656Y-4241927D01*
X-10291656Y-4241927D02*
X-10329751Y-4260975D01*
X-10329751Y-4260975D02*
X-10348798Y-4280022D01*
X-10348798Y-4280022D02*
X-10367846Y-4318118D01*
X-10367846Y-4318118D02*
X-10367846Y-4375260D01*
X-10367846Y-4375260D02*
X-10348798Y-4413356D01*
X-10348798Y-4413356D02*
X-10329751Y-4432403D01*
X-10329751Y-4432403D02*
X-10291656Y-4451451D01*
X-10291656Y-4451451D02*
X-10139275Y-4451451D01*
X-10748798Y-4641927D02*
X-10520227Y-4641927D01*
X-10634513Y-4641927D02*
X-10634513Y-4241927D01*
X-10634513Y-4241927D02*
X-10596417Y-4299070D01*
X-10596417Y-4299070D02*
X-10558322Y-4337165D01*
X-10558322Y-4337165D02*
X-10520227Y-4356213D01*
X-11091655Y-4375260D02*
X-11091655Y-4641927D01*
X-10996417Y-4222880D02*
X-10901179Y-4508594D01*
X-10901179Y-4508594D02*
X-11148798Y-4508594D01*
D11*
X-11277596Y-132857D02*
X-11527596Y-132857D01*
X-11408548Y-132857D02*
X-11408548Y-275714D01*
X-11277596Y-275714D02*
X-11527596Y-275714D01*
X-11277596Y-430477D02*
X-11289500Y-406667D01*
X-11289500Y-406667D02*
X-11301405Y-394762D01*
X-11301405Y-394762D02*
X-11325215Y-382858D01*
X-11325215Y-382858D02*
X-11396643Y-382858D01*
X-11396643Y-382858D02*
X-11420453Y-394762D01*
X-11420453Y-394762D02*
X-11432358Y-406667D01*
X-11432358Y-406667D02*
X-11444262Y-430477D01*
X-11444262Y-430477D02*
X-11444262Y-466191D01*
X-11444262Y-466191D02*
X-11432358Y-490000D01*
X-11432358Y-490000D02*
X-11420453Y-501905D01*
X-11420453Y-501905D02*
X-11396643Y-513810D01*
X-11396643Y-513810D02*
X-11325215Y-513810D01*
X-11325215Y-513810D02*
X-11301405Y-501905D01*
X-11301405Y-501905D02*
X-11289500Y-490000D01*
X-11289500Y-490000D02*
X-11277596Y-466191D01*
X-11277596Y-466191D02*
X-11277596Y-430477D01*
X-11289500Y-609048D02*
X-11277596Y-632857D01*
X-11277596Y-632857D02*
X-11277596Y-680476D01*
X-11277596Y-680476D02*
X-11289500Y-704286D01*
X-11289500Y-704286D02*
X-11313310Y-716190D01*
X-11313310Y-716190D02*
X-11325215Y-716190D01*
X-11325215Y-716190D02*
X-11349024Y-704286D01*
X-11349024Y-704286D02*
X-11360929Y-680476D01*
X-11360929Y-680476D02*
X-11360929Y-644762D01*
X-11360929Y-644762D02*
X-11372834Y-620952D01*
X-11372834Y-620952D02*
X-11396643Y-609048D01*
X-11396643Y-609048D02*
X-11408548Y-609048D01*
X-11408548Y-609048D02*
X-11432358Y-620952D01*
X-11432358Y-620952D02*
X-11444262Y-644762D01*
X-11444262Y-644762D02*
X-11444262Y-680476D01*
X-11444262Y-680476D02*
X-11432358Y-704286D01*
X-11444262Y-787619D02*
X-11444262Y-882857D01*
X-11527596Y-823333D02*
X-11313310Y-823333D01*
X-11313310Y-823333D02*
X-11289500Y-835238D01*
X-11289500Y-835238D02*
X-11277596Y-859048D01*
X-11277596Y-859048D02*
X-11277596Y-882857D01*
D10*
X358733Y519781D02*
X358733Y-194504D01*
X358733Y-194504D02*
X406352Y-337361D01*
X406352Y-337361D02*
X501590Y-432600D01*
X501590Y-432600D02*
X644447Y-480219D01*
X644447Y-480219D02*
X739685Y-480219D01*
X-22220Y519781D02*
X-641267Y519781D01*
X-641267Y519781D02*
X-307934Y138829D01*
X-307934Y138829D02*
X-450791Y138829D01*
X-450791Y138829D02*
X-546029Y91210D01*
X-546029Y91210D02*
X-593648Y43591D01*
X-593648Y43591D02*
X-641267Y-51647D01*
X-641267Y-51647D02*
X-641267Y-289742D01*
X-641267Y-289742D02*
X-593648Y-384980D01*
X-593648Y-384980D02*
X-546029Y-432600D01*
X-546029Y-432600D02*
X-450791Y-480219D01*
X-450791Y-480219D02*
X-165077Y-480219D01*
X-165077Y-480219D02*
X-69839Y-432600D01*
X-69839Y-432600D02*
X-22220Y-384980D01*
D11*
X10210951Y-8678059D02*
X9925237Y-8678059D01*
X10068094Y-9178059D02*
X10068094Y-8678059D01*
X9758571Y-9178059D02*
X9758571Y-8678059D01*
X9758571Y-8678059D02*
X9568095Y-8678059D01*
X9568095Y-8678059D02*
X9520476Y-8701869D01*
X9520476Y-8701869D02*
X9496666Y-8725678D01*
X9496666Y-8725678D02*
X9472857Y-8773297D01*
X9472857Y-8773297D02*
X9472857Y-8844726D01*
X9472857Y-8844726D02*
X9496666Y-8892345D01*
X9496666Y-8892345D02*
X9520476Y-8916154D01*
X9520476Y-8916154D02*
X9568095Y-8939964D01*
X9568095Y-8939964D02*
X9758571Y-8939964D01*
X8996666Y-9178059D02*
X9282380Y-9178059D01*
X9139523Y-9178059D02*
X9139523Y-8678059D01*
X9139523Y-8678059D02*
X9187142Y-8749488D01*
X9187142Y-8749488D02*
X9234761Y-8797107D01*
X9234761Y-8797107D02*
X9282380Y-8820916D01*
X-9078335Y-6182404D02*
X-8935478Y-6182404D01*
X-9006906Y-6182404D02*
X-9006906Y-5932404D01*
X-9006906Y-5932404D02*
X-8983097Y-5968119D01*
X-8983097Y-5968119D02*
X-8959287Y-5991928D01*
X-8959287Y-5991928D02*
X-8935478Y-6003833D01*
X-9304525Y-5932404D02*
X-9185477Y-5932404D01*
X-9185477Y-5932404D02*
X-9173573Y-6051452D01*
X-9173573Y-6051452D02*
X-9185477Y-6039547D01*
X-9185477Y-6039547D02*
X-9209287Y-6027642D01*
X-9209287Y-6027642D02*
X-9268811Y-6027642D01*
X-9268811Y-6027642D02*
X-9292620Y-6039547D01*
X-9292620Y-6039547D02*
X-9304525Y-6051452D01*
X-9304525Y-6051452D02*
X-9316430Y-6075261D01*
X-9316430Y-6075261D02*
X-9316430Y-6134785D01*
X-9316430Y-6134785D02*
X-9304525Y-6158595D01*
X-9304525Y-6158595D02*
X-9292620Y-6170500D01*
X-9292620Y-6170500D02*
X-9268811Y-6182404D01*
X-9268811Y-6182404D02*
X-9209287Y-6182404D01*
X-9209287Y-6182404D02*
X-9185477Y-6170500D01*
X-9185477Y-6170500D02*
X-9173573Y-6158595D01*
X-9471191Y-5932404D02*
X-9495001Y-5932404D01*
X-9495001Y-5932404D02*
X-9518810Y-5944309D01*
X-9518810Y-5944309D02*
X-9530715Y-5956214D01*
X-9530715Y-5956214D02*
X-9542620Y-5980023D01*
X-9542620Y-5980023D02*
X-9554525Y-6027642D01*
X-9554525Y-6027642D02*
X-9554525Y-6087166D01*
X-9554525Y-6087166D02*
X-9542620Y-6134785D01*
X-9542620Y-6134785D02*
X-9530715Y-6158595D01*
X-9530715Y-6158595D02*
X-9518810Y-6170500D01*
X-9518810Y-6170500D02*
X-9495001Y-6182404D01*
X-9495001Y-6182404D02*
X-9471191Y-6182404D01*
X-9471191Y-6182404D02*
X-9447382Y-6170500D01*
X-9447382Y-6170500D02*
X-9435477Y-6158595D01*
X-9435477Y-6158595D02*
X-9423572Y-6134785D01*
X-9423572Y-6134785D02*
X-9411668Y-6087166D01*
X-9411668Y-6087166D02*
X-9411668Y-6027642D01*
X-9411668Y-6027642D02*
X-9423572Y-5980023D01*
X-9423572Y-5980023D02*
X-9435477Y-5956214D01*
X-9435477Y-5956214D02*
X-9447382Y-5944309D01*
X-9447382Y-5944309D02*
X-9471191Y-5932404D01*
X-9661667Y-6182404D02*
X-9661667Y-5932404D01*
X-9804524Y-6182404D02*
X-9697382Y-6039547D01*
X-9804524Y-5932404D02*
X-9661667Y-6075261D01*
D12*
X-10387858Y-6251927D02*
X-10254525Y-6061451D01*
X-10159287Y-6251927D02*
X-10159287Y-5851927D01*
X-10159287Y-5851927D02*
X-10311668Y-5851927D01*
X-10311668Y-5851927D02*
X-10349763Y-5870975D01*
X-10349763Y-5870975D02*
X-10368810Y-5890022D01*
X-10368810Y-5890022D02*
X-10387858Y-5928118D01*
X-10387858Y-5928118D02*
X-10387858Y-5985260D01*
X-10387858Y-5985260D02*
X-10368810Y-6023356D01*
X-10368810Y-6023356D02*
X-10349763Y-6042403D01*
X-10349763Y-6042403D02*
X-10311668Y-6061451D01*
X-10311668Y-6061451D02*
X-10159287Y-6061451D01*
X-10768810Y-6251927D02*
X-10540239Y-6251927D01*
X-10654525Y-6251927D02*
X-10654525Y-5851927D01*
X-10654525Y-5851927D02*
X-10616429Y-5909070D01*
X-10616429Y-5909070D02*
X-10578334Y-5947165D01*
X-10578334Y-5947165D02*
X-10540239Y-5966213D01*
X-10997381Y-6023356D02*
X-10959286Y-6004308D01*
X-10959286Y-6004308D02*
X-10940239Y-5985260D01*
X-10940239Y-5985260D02*
X-10921191Y-5947165D01*
X-10921191Y-5947165D02*
X-10921191Y-5928118D01*
X-10921191Y-5928118D02*
X-10940239Y-5890022D01*
X-10940239Y-5890022D02*
X-10959286Y-5870975D01*
X-10959286Y-5870975D02*
X-10997381Y-5851927D01*
X-10997381Y-5851927D02*
X-11073572Y-5851927D01*
X-11073572Y-5851927D02*
X-11111667Y-5870975D01*
X-11111667Y-5870975D02*
X-11130715Y-5890022D01*
X-11130715Y-5890022D02*
X-11149762Y-5928118D01*
X-11149762Y-5928118D02*
X-11149762Y-5947165D01*
X-11149762Y-5947165D02*
X-11130715Y-5985260D01*
X-11130715Y-5985260D02*
X-11111667Y-6004308D01*
X-11111667Y-6004308D02*
X-11073572Y-6023356D01*
X-11073572Y-6023356D02*
X-10997381Y-6023356D01*
X-10997381Y-6023356D02*
X-10959286Y-6042403D01*
X-10959286Y-6042403D02*
X-10940239Y-6061451D01*
X-10940239Y-6061451D02*
X-10921191Y-6099546D01*
X-10921191Y-6099546D02*
X-10921191Y-6175737D01*
X-10921191Y-6175737D02*
X-10940239Y-6213832D01*
X-10940239Y-6213832D02*
X-10959286Y-6232880D01*
X-10959286Y-6232880D02*
X-10997381Y-6251927D01*
X-10997381Y-6251927D02*
X-11073572Y-6251927D01*
X-11073572Y-6251927D02*
X-11111667Y-6232880D01*
X-11111667Y-6232880D02*
X-11130715Y-6213832D01*
X-11130715Y-6213832D02*
X-11149762Y-6175737D01*
X-11149762Y-6175737D02*
X-11149762Y-6099546D01*
X-11149762Y-6099546D02*
X-11130715Y-6061451D01*
X-11130715Y-6061451D02*
X-11111667Y-6042403D01*
X-11111667Y-6042403D02*
X-11073572Y-6023356D01*
D13*
X14968570Y-17254885D02*
X14797142Y-17254885D01*
X14882856Y-17554885D02*
X14882856Y-17254885D01*
X14697142Y-17554885D02*
X14697142Y-17254885D01*
X14697142Y-17254885D02*
X14582856Y-17254885D01*
X14582856Y-17254885D02*
X14554285Y-17269171D01*
X14554285Y-17269171D02*
X14539999Y-17283457D01*
X14539999Y-17283457D02*
X14525713Y-17312028D01*
X14525713Y-17312028D02*
X14525713Y-17354885D01*
X14525713Y-17354885D02*
X14539999Y-17383457D01*
X14539999Y-17383457D02*
X14554285Y-17397742D01*
X14554285Y-17397742D02*
X14582856Y-17412028D01*
X14582856Y-17412028D02*
X14697142Y-17412028D01*
X14411428Y-17283457D02*
X14397142Y-17269171D01*
X14397142Y-17269171D02*
X14368571Y-17254885D01*
X14368571Y-17254885D02*
X14297142Y-17254885D01*
X14297142Y-17254885D02*
X14268571Y-17269171D01*
X14268571Y-17269171D02*
X14254285Y-17283457D01*
X14254285Y-17283457D02*
X14239999Y-17312028D01*
X14239999Y-17312028D02*
X14239999Y-17340600D01*
X14239999Y-17340600D02*
X14254285Y-17383457D01*
X14254285Y-17383457D02*
X14425713Y-17554885D01*
X14425713Y-17554885D02*
X14239999Y-17554885D01*
D11*
X1022404Y-30683096D02*
X1022404Y-30540239D01*
X1022404Y-30611667D02*
X772404Y-30611667D01*
X772404Y-30611667D02*
X808119Y-30587858D01*
X808119Y-30587858D02*
X831928Y-30564048D01*
X831928Y-30564048D02*
X843833Y-30540239D01*
X772404Y-30837857D02*
X772404Y-30861667D01*
X772404Y-30861667D02*
X784309Y-30885476D01*
X784309Y-30885476D02*
X796214Y-30897381D01*
X796214Y-30897381D02*
X820023Y-30909286D01*
X820023Y-30909286D02*
X867642Y-30921191D01*
X867642Y-30921191D02*
X927166Y-30921191D01*
X927166Y-30921191D02*
X974785Y-30909286D01*
X974785Y-30909286D02*
X998595Y-30897381D01*
X998595Y-30897381D02*
X1010500Y-30885476D01*
X1010500Y-30885476D02*
X1022404Y-30861667D01*
X1022404Y-30861667D02*
X1022404Y-30837857D01*
X1022404Y-30837857D02*
X1010500Y-30814048D01*
X1010500Y-30814048D02*
X998595Y-30802143D01*
X998595Y-30802143D02*
X974785Y-30790238D01*
X974785Y-30790238D02*
X927166Y-30778334D01*
X927166Y-30778334D02*
X867642Y-30778334D01*
X867642Y-30778334D02*
X820023Y-30790238D01*
X820023Y-30790238D02*
X796214Y-30802143D01*
X796214Y-30802143D02*
X784309Y-30814048D01*
X784309Y-30814048D02*
X772404Y-30837857D01*
X772404Y-31075952D02*
X772404Y-31099762D01*
X772404Y-31099762D02*
X784309Y-31123571D01*
X784309Y-31123571D02*
X796214Y-31135476D01*
X796214Y-31135476D02*
X820023Y-31147381D01*
X820023Y-31147381D02*
X867642Y-31159286D01*
X867642Y-31159286D02*
X927166Y-31159286D01*
X927166Y-31159286D02*
X974785Y-31147381D01*
X974785Y-31147381D02*
X998595Y-31135476D01*
X998595Y-31135476D02*
X1010500Y-31123571D01*
X1010500Y-31123571D02*
X1022404Y-31099762D01*
X1022404Y-31099762D02*
X1022404Y-31075952D01*
X1022404Y-31075952D02*
X1010500Y-31052143D01*
X1010500Y-31052143D02*
X998595Y-31040238D01*
X998595Y-31040238D02*
X974785Y-31028333D01*
X974785Y-31028333D02*
X927166Y-31016429D01*
X927166Y-31016429D02*
X867642Y-31016429D01*
X867642Y-31016429D02*
X820023Y-31028333D01*
X820023Y-31028333D02*
X796214Y-31040238D01*
X796214Y-31040238D02*
X784309Y-31052143D01*
X784309Y-31052143D02*
X772404Y-31075952D01*
X855738Y-31266428D02*
X1022404Y-31266428D01*
X879547Y-31266428D02*
X867642Y-31278333D01*
X867642Y-31278333D02*
X855738Y-31302143D01*
X855738Y-31302143D02*
X855738Y-31337857D01*
X855738Y-31337857D02*
X867642Y-31361666D01*
X867642Y-31361666D02*
X891452Y-31373571D01*
X891452Y-31373571D02*
X1022404Y-31373571D01*
X891452Y-31575952D02*
X891452Y-31492618D01*
X1022404Y-31492618D02*
X772404Y-31492618D01*
X772404Y-31492618D02*
X772404Y-31611666D01*
D14*
X459765Y-31043333D02*
X471670Y-31031429D01*
X471670Y-31031429D02*
X483574Y-30995714D01*
X483574Y-30995714D02*
X483574Y-30971905D01*
X483574Y-30971905D02*
X471670Y-30936191D01*
X471670Y-30936191D02*
X447860Y-30912381D01*
X447860Y-30912381D02*
X424050Y-30900476D01*
X424050Y-30900476D02*
X376431Y-30888572D01*
X376431Y-30888572D02*
X340717Y-30888572D01*
X340717Y-30888572D02*
X293098Y-30900476D01*
X293098Y-30900476D02*
X269289Y-30912381D01*
X269289Y-30912381D02*
X245479Y-30936191D01*
X245479Y-30936191D02*
X233574Y-30971905D01*
X233574Y-30971905D02*
X233574Y-30995714D01*
X233574Y-30995714D02*
X245479Y-31031429D01*
X245479Y-31031429D02*
X257384Y-31043333D01*
X233574Y-31269524D02*
X233574Y-31150476D01*
X233574Y-31150476D02*
X352622Y-31138572D01*
X352622Y-31138572D02*
X340717Y-31150476D01*
X340717Y-31150476D02*
X328812Y-31174286D01*
X328812Y-31174286D02*
X328812Y-31233810D01*
X328812Y-31233810D02*
X340717Y-31257619D01*
X340717Y-31257619D02*
X352622Y-31269524D01*
X352622Y-31269524D02*
X376431Y-31281429D01*
X376431Y-31281429D02*
X435955Y-31281429D01*
X435955Y-31281429D02*
X459765Y-31269524D01*
X459765Y-31269524D02*
X471670Y-31257619D01*
X471670Y-31257619D02*
X483574Y-31233810D01*
X483574Y-31233810D02*
X483574Y-31174286D01*
X483574Y-31174286D02*
X471670Y-31150476D01*
X471670Y-31150476D02*
X459765Y-31138572D01*
D11*
X-7807596Y-32273096D02*
X-7807596Y-32130239D01*
X-7807596Y-32201667D02*
X-8057596Y-32201667D01*
X-8057596Y-32201667D02*
X-8021881Y-32177858D01*
X-8021881Y-32177858D02*
X-7998072Y-32154048D01*
X-7998072Y-32154048D02*
X-7986167Y-32130239D01*
X-8057596Y-32427857D02*
X-8057596Y-32451667D01*
X-8057596Y-32451667D02*
X-8045691Y-32475476D01*
X-8045691Y-32475476D02*
X-8033786Y-32487381D01*
X-8033786Y-32487381D02*
X-8009977Y-32499286D01*
X-8009977Y-32499286D02*
X-7962358Y-32511191D01*
X-7962358Y-32511191D02*
X-7902834Y-32511191D01*
X-7902834Y-32511191D02*
X-7855215Y-32499286D01*
X-7855215Y-32499286D02*
X-7831405Y-32487381D01*
X-7831405Y-32487381D02*
X-7819500Y-32475476D01*
X-7819500Y-32475476D02*
X-7807596Y-32451667D01*
X-7807596Y-32451667D02*
X-7807596Y-32427857D01*
X-7807596Y-32427857D02*
X-7819500Y-32404048D01*
X-7819500Y-32404048D02*
X-7831405Y-32392143D01*
X-7831405Y-32392143D02*
X-7855215Y-32380238D01*
X-7855215Y-32380238D02*
X-7902834Y-32368334D01*
X-7902834Y-32368334D02*
X-7962358Y-32368334D01*
X-7962358Y-32368334D02*
X-8009977Y-32380238D01*
X-8009977Y-32380238D02*
X-8033786Y-32392143D01*
X-8033786Y-32392143D02*
X-8045691Y-32404048D01*
X-8045691Y-32404048D02*
X-8057596Y-32427857D01*
X-8057596Y-32665952D02*
X-8057596Y-32689762D01*
X-8057596Y-32689762D02*
X-8045691Y-32713571D01*
X-8045691Y-32713571D02*
X-8033786Y-32725476D01*
X-8033786Y-32725476D02*
X-8009977Y-32737381D01*
X-8009977Y-32737381D02*
X-7962358Y-32749286D01*
X-7962358Y-32749286D02*
X-7902834Y-32749286D01*
X-7902834Y-32749286D02*
X-7855215Y-32737381D01*
X-7855215Y-32737381D02*
X-7831405Y-32725476D01*
X-7831405Y-32725476D02*
X-7819500Y-32713571D01*
X-7819500Y-32713571D02*
X-7807596Y-32689762D01*
X-7807596Y-32689762D02*
X-7807596Y-32665952D01*
X-7807596Y-32665952D02*
X-7819500Y-32642143D01*
X-7819500Y-32642143D02*
X-7831405Y-32630238D01*
X-7831405Y-32630238D02*
X-7855215Y-32618333D01*
X-7855215Y-32618333D02*
X-7902834Y-32606429D01*
X-7902834Y-32606429D02*
X-7962358Y-32606429D01*
X-7962358Y-32606429D02*
X-8009977Y-32618333D01*
X-8009977Y-32618333D02*
X-8033786Y-32630238D01*
X-8033786Y-32630238D02*
X-8045691Y-32642143D01*
X-8045691Y-32642143D02*
X-8057596Y-32665952D01*
X-7974262Y-32856428D02*
X-7807596Y-32856428D01*
X-7950453Y-32856428D02*
X-7962358Y-32868333D01*
X-7962358Y-32868333D02*
X-7974262Y-32892143D01*
X-7974262Y-32892143D02*
X-7974262Y-32927857D01*
X-7974262Y-32927857D02*
X-7962358Y-32951666D01*
X-7962358Y-32951666D02*
X-7938548Y-32963571D01*
X-7938548Y-32963571D02*
X-7807596Y-32963571D01*
X-7938548Y-33165952D02*
X-7938548Y-33082618D01*
X-7807596Y-33082618D02*
X-8057596Y-33082618D01*
X-8057596Y-33082618D02*
X-8057596Y-33201666D01*
D14*
X-8390235Y-32499285D02*
X-8378330Y-32487381D01*
X-8378330Y-32487381D02*
X-8366426Y-32451666D01*
X-8366426Y-32451666D02*
X-8366426Y-32427857D01*
X-8366426Y-32427857D02*
X-8378330Y-32392143D01*
X-8378330Y-32392143D02*
X-8402140Y-32368333D01*
X-8402140Y-32368333D02*
X-8425950Y-32356428D01*
X-8425950Y-32356428D02*
X-8473569Y-32344524D01*
X-8473569Y-32344524D02*
X-8509283Y-32344524D01*
X-8509283Y-32344524D02*
X-8556902Y-32356428D01*
X-8556902Y-32356428D02*
X-8580711Y-32368333D01*
X-8580711Y-32368333D02*
X-8604521Y-32392143D01*
X-8604521Y-32392143D02*
X-8616426Y-32427857D01*
X-8616426Y-32427857D02*
X-8616426Y-32451666D01*
X-8616426Y-32451666D02*
X-8604521Y-32487381D01*
X-8604521Y-32487381D02*
X-8592616Y-32499285D01*
X-8366426Y-32737381D02*
X-8366426Y-32594524D01*
X-8366426Y-32665952D02*
X-8616426Y-32665952D01*
X-8616426Y-32665952D02*
X-8580711Y-32642143D01*
X-8580711Y-32642143D02*
X-8556902Y-32618333D01*
X-8556902Y-32618333D02*
X-8544997Y-32594524D01*
X-8366426Y-32856428D02*
X-8366426Y-32904047D01*
X-8366426Y-32904047D02*
X-8378330Y-32927857D01*
X-8378330Y-32927857D02*
X-8390235Y-32939761D01*
X-8390235Y-32939761D02*
X-8425950Y-32963571D01*
X-8425950Y-32963571D02*
X-8473569Y-32975476D01*
X-8473569Y-32975476D02*
X-8568807Y-32975476D01*
X-8568807Y-32975476D02*
X-8592616Y-32963571D01*
X-8592616Y-32963571D02*
X-8604521Y-32951666D01*
X-8604521Y-32951666D02*
X-8616426Y-32927857D01*
X-8616426Y-32927857D02*
X-8616426Y-32880238D01*
X-8616426Y-32880238D02*
X-8604521Y-32856428D01*
X-8604521Y-32856428D02*
X-8592616Y-32844523D01*
X-8592616Y-32844523D02*
X-8568807Y-32832619D01*
X-8568807Y-32832619D02*
X-8509283Y-32832619D01*
X-8509283Y-32832619D02*
X-8485473Y-32844523D01*
X-8485473Y-32844523D02*
X-8473569Y-32856428D01*
X-8473569Y-32856428D02*
X-8461664Y-32880238D01*
X-8461664Y-32880238D02*
X-8461664Y-32927857D01*
X-8461664Y-32927857D02*
X-8473569Y-32951666D01*
X-8473569Y-32951666D02*
X-8485473Y-32963571D01*
X-8485473Y-32963571D02*
X-8509283Y-32975476D01*
D11*
X912404Y-34093096D02*
X912404Y-33950239D01*
X912404Y-34021667D02*
X662404Y-34021667D01*
X662404Y-34021667D02*
X698119Y-33997858D01*
X698119Y-33997858D02*
X721928Y-33974048D01*
X721928Y-33974048D02*
X733833Y-33950239D01*
X662404Y-34247857D02*
X662404Y-34271667D01*
X662404Y-34271667D02*
X674309Y-34295476D01*
X674309Y-34295476D02*
X686214Y-34307381D01*
X686214Y-34307381D02*
X710023Y-34319286D01*
X710023Y-34319286D02*
X757642Y-34331191D01*
X757642Y-34331191D02*
X817166Y-34331191D01*
X817166Y-34331191D02*
X864785Y-34319286D01*
X864785Y-34319286D02*
X888595Y-34307381D01*
X888595Y-34307381D02*
X900500Y-34295476D01*
X900500Y-34295476D02*
X912404Y-34271667D01*
X912404Y-34271667D02*
X912404Y-34247857D01*
X912404Y-34247857D02*
X900500Y-34224048D01*
X900500Y-34224048D02*
X888595Y-34212143D01*
X888595Y-34212143D02*
X864785Y-34200238D01*
X864785Y-34200238D02*
X817166Y-34188334D01*
X817166Y-34188334D02*
X757642Y-34188334D01*
X757642Y-34188334D02*
X710023Y-34200238D01*
X710023Y-34200238D02*
X686214Y-34212143D01*
X686214Y-34212143D02*
X674309Y-34224048D01*
X674309Y-34224048D02*
X662404Y-34247857D01*
X662404Y-34485952D02*
X662404Y-34509762D01*
X662404Y-34509762D02*
X674309Y-34533571D01*
X674309Y-34533571D02*
X686214Y-34545476D01*
X686214Y-34545476D02*
X710023Y-34557381D01*
X710023Y-34557381D02*
X757642Y-34569286D01*
X757642Y-34569286D02*
X817166Y-34569286D01*
X817166Y-34569286D02*
X864785Y-34557381D01*
X864785Y-34557381D02*
X888595Y-34545476D01*
X888595Y-34545476D02*
X900500Y-34533571D01*
X900500Y-34533571D02*
X912404Y-34509762D01*
X912404Y-34509762D02*
X912404Y-34485952D01*
X912404Y-34485952D02*
X900500Y-34462143D01*
X900500Y-34462143D02*
X888595Y-34450238D01*
X888595Y-34450238D02*
X864785Y-34438333D01*
X864785Y-34438333D02*
X817166Y-34426429D01*
X817166Y-34426429D02*
X757642Y-34426429D01*
X757642Y-34426429D02*
X710023Y-34438333D01*
X710023Y-34438333D02*
X686214Y-34450238D01*
X686214Y-34450238D02*
X674309Y-34462143D01*
X674309Y-34462143D02*
X662404Y-34485952D01*
X745738Y-34676428D02*
X912404Y-34676428D01*
X769547Y-34676428D02*
X757642Y-34688333D01*
X757642Y-34688333D02*
X745738Y-34712143D01*
X745738Y-34712143D02*
X745738Y-34747857D01*
X745738Y-34747857D02*
X757642Y-34771666D01*
X757642Y-34771666D02*
X781452Y-34783571D01*
X781452Y-34783571D02*
X912404Y-34783571D01*
X781452Y-34985952D02*
X781452Y-34902618D01*
X912404Y-34902618D02*
X662404Y-34902618D01*
X662404Y-34902618D02*
X662404Y-35021666D01*
D14*
X339765Y-34458333D02*
X351670Y-34446429D01*
X351670Y-34446429D02*
X363574Y-34410714D01*
X363574Y-34410714D02*
X363574Y-34386905D01*
X363574Y-34386905D02*
X351670Y-34351191D01*
X351670Y-34351191D02*
X327860Y-34327381D01*
X327860Y-34327381D02*
X304050Y-34315476D01*
X304050Y-34315476D02*
X256431Y-34303572D01*
X256431Y-34303572D02*
X220717Y-34303572D01*
X220717Y-34303572D02*
X173098Y-34315476D01*
X173098Y-34315476D02*
X149289Y-34327381D01*
X149289Y-34327381D02*
X125479Y-34351191D01*
X125479Y-34351191D02*
X113574Y-34386905D01*
X113574Y-34386905D02*
X113574Y-34410714D01*
X113574Y-34410714D02*
X125479Y-34446429D01*
X125479Y-34446429D02*
X137384Y-34458333D01*
X137384Y-34553572D02*
X125479Y-34565476D01*
X125479Y-34565476D02*
X113574Y-34589286D01*
X113574Y-34589286D02*
X113574Y-34648810D01*
X113574Y-34648810D02*
X125479Y-34672619D01*
X125479Y-34672619D02*
X137384Y-34684524D01*
X137384Y-34684524D02*
X161193Y-34696429D01*
X161193Y-34696429D02*
X185003Y-34696429D01*
X185003Y-34696429D02*
X220717Y-34684524D01*
X220717Y-34684524D02*
X363574Y-34541667D01*
X363574Y-34541667D02*
X363574Y-34696429D01*
D11*
X222404Y-13628334D02*
X222404Y-13485477D01*
X222404Y-13556905D02*
X-27596Y-13556905D01*
X-27596Y-13556905D02*
X8119Y-13533096D01*
X8119Y-13533096D02*
X31928Y-13509286D01*
X31928Y-13509286D02*
X43833Y-13485477D01*
X-27596Y-13783095D02*
X-27596Y-13806905D01*
X-27596Y-13806905D02*
X-15691Y-13830714D01*
X-15691Y-13830714D02*
X-3786Y-13842619D01*
X-3786Y-13842619D02*
X20023Y-13854524D01*
X20023Y-13854524D02*
X67642Y-13866429D01*
X67642Y-13866429D02*
X127166Y-13866429D01*
X127166Y-13866429D02*
X174785Y-13854524D01*
X174785Y-13854524D02*
X198595Y-13842619D01*
X198595Y-13842619D02*
X210500Y-13830714D01*
X210500Y-13830714D02*
X222404Y-13806905D01*
X222404Y-13806905D02*
X222404Y-13783095D01*
X222404Y-13783095D02*
X210500Y-13759286D01*
X210500Y-13759286D02*
X198595Y-13747381D01*
X198595Y-13747381D02*
X174785Y-13735476D01*
X174785Y-13735476D02*
X127166Y-13723572D01*
X127166Y-13723572D02*
X67642Y-13723572D01*
X67642Y-13723572D02*
X20023Y-13735476D01*
X20023Y-13735476D02*
X-3786Y-13747381D01*
X-3786Y-13747381D02*
X-15691Y-13759286D01*
X-15691Y-13759286D02*
X-27596Y-13783095D01*
X-27596Y-14021190D02*
X-27596Y-14045000D01*
X-27596Y-14045000D02*
X-15691Y-14068809D01*
X-15691Y-14068809D02*
X-3786Y-14080714D01*
X-3786Y-14080714D02*
X20023Y-14092619D01*
X20023Y-14092619D02*
X67642Y-14104524D01*
X67642Y-14104524D02*
X127166Y-14104524D01*
X127166Y-14104524D02*
X174785Y-14092619D01*
X174785Y-14092619D02*
X198595Y-14080714D01*
X198595Y-14080714D02*
X210500Y-14068809D01*
X210500Y-14068809D02*
X222404Y-14045000D01*
X222404Y-14045000D02*
X222404Y-14021190D01*
X222404Y-14021190D02*
X210500Y-13997381D01*
X210500Y-13997381D02*
X198595Y-13985476D01*
X198595Y-13985476D02*
X174785Y-13973571D01*
X174785Y-13973571D02*
X127166Y-13961667D01*
X127166Y-13961667D02*
X67642Y-13961667D01*
X67642Y-13961667D02*
X20023Y-13973571D01*
X20023Y-13973571D02*
X-3786Y-13985476D01*
X-3786Y-13985476D02*
X-15691Y-13997381D01*
X-15691Y-13997381D02*
X-27596Y-14021190D01*
X222404Y-14354523D02*
X103357Y-14271190D01*
X222404Y-14211666D02*
X-27596Y-14211666D01*
X-27596Y-14211666D02*
X-27596Y-14306904D01*
X-27596Y-14306904D02*
X-15691Y-14330714D01*
X-15691Y-14330714D02*
X-3786Y-14342619D01*
X-3786Y-14342619D02*
X20023Y-14354523D01*
X20023Y-14354523D02*
X55738Y-14354523D01*
X55738Y-14354523D02*
X79547Y-14342619D01*
X79547Y-14342619D02*
X91452Y-14330714D01*
X91452Y-14330714D02*
X103357Y-14306904D01*
X103357Y-14306904D02*
X103357Y-14211666D01*
D14*
X-316426Y-13858333D02*
X-435473Y-13775000D01*
X-316426Y-13715476D02*
X-566426Y-13715476D01*
X-566426Y-13715476D02*
X-566426Y-13810714D01*
X-566426Y-13810714D02*
X-554521Y-13834524D01*
X-554521Y-13834524D02*
X-542616Y-13846429D01*
X-542616Y-13846429D02*
X-518807Y-13858333D01*
X-518807Y-13858333D02*
X-483092Y-13858333D01*
X-483092Y-13858333D02*
X-459283Y-13846429D01*
X-459283Y-13846429D02*
X-447378Y-13834524D01*
X-447378Y-13834524D02*
X-435473Y-13810714D01*
X-435473Y-13810714D02*
X-435473Y-13715476D01*
X-566426Y-14084524D02*
X-566426Y-13965476D01*
X-566426Y-13965476D02*
X-447378Y-13953572D01*
X-447378Y-13953572D02*
X-459283Y-13965476D01*
X-459283Y-13965476D02*
X-471188Y-13989286D01*
X-471188Y-13989286D02*
X-471188Y-14048810D01*
X-471188Y-14048810D02*
X-459283Y-14072619D01*
X-459283Y-14072619D02*
X-447378Y-14084524D01*
X-447378Y-14084524D02*
X-423569Y-14096429D01*
X-423569Y-14096429D02*
X-364045Y-14096429D01*
X-364045Y-14096429D02*
X-340235Y-14084524D01*
X-340235Y-14084524D02*
X-328330Y-14072619D01*
X-328330Y-14072619D02*
X-316426Y-14048810D01*
X-316426Y-14048810D02*
X-316426Y-13989286D01*
X-316426Y-13989286D02*
X-328330Y-13965476D01*
X-328330Y-13965476D02*
X-340235Y-13953572D01*
D11*
X107856Y-37082404D02*
X250713Y-37082404D01*
X179285Y-37082404D02*
X179285Y-36832404D01*
X179285Y-36832404D02*
X203094Y-36868119D01*
X203094Y-36868119D02*
X226904Y-36891928D01*
X226904Y-36891928D02*
X250713Y-36903833D01*
X-118334Y-36832404D02*
X714Y-36832404D01*
X714Y-36832404D02*
X12618Y-36951452D01*
X12618Y-36951452D02*
X714Y-36939547D01*
X714Y-36939547D02*
X-23096Y-36927642D01*
X-23096Y-36927642D02*
X-82620Y-36927642D01*
X-82620Y-36927642D02*
X-106429Y-36939547D01*
X-106429Y-36939547D02*
X-118334Y-36951452D01*
X-118334Y-36951452D02*
X-130239Y-36975261D01*
X-130239Y-36975261D02*
X-130239Y-37034785D01*
X-130239Y-37034785D02*
X-118334Y-37058595D01*
X-118334Y-37058595D02*
X-106429Y-37070500D01*
X-106429Y-37070500D02*
X-82620Y-37082404D01*
X-82620Y-37082404D02*
X-23096Y-37082404D01*
X-23096Y-37082404D02*
X714Y-37070500D01*
X714Y-37070500D02*
X12618Y-37058595D01*
X-237381Y-36915738D02*
X-237381Y-37165738D01*
X-237381Y-36927642D02*
X-261191Y-36915738D01*
X-261191Y-36915738D02*
X-308810Y-36915738D01*
X-308810Y-36915738D02*
X-332619Y-36927642D01*
X-332619Y-36927642D02*
X-344524Y-36939547D01*
X-344524Y-36939547D02*
X-356429Y-36963357D01*
X-356429Y-36963357D02*
X-356429Y-37034785D01*
X-356429Y-37034785D02*
X-344524Y-37058595D01*
X-344524Y-37058595D02*
X-332619Y-37070500D01*
X-332619Y-37070500D02*
X-308810Y-37082404D01*
X-308810Y-37082404D02*
X-261191Y-37082404D01*
X-261191Y-37082404D02*
X-237381Y-37070500D01*
X-546905Y-36951452D02*
X-463571Y-36951452D01*
X-463571Y-37082404D02*
X-463571Y-36832404D01*
X-463571Y-36832404D02*
X-582619Y-36832404D01*
D14*
X-49286Y-36479765D02*
X-37382Y-36491670D01*
X-37382Y-36491670D02*
X-1667Y-36503574D01*
X-1667Y-36503574D02*
X22142Y-36503574D01*
X22142Y-36503574D02*
X57856Y-36491670D01*
X57856Y-36491670D02*
X81666Y-36467860D01*
X81666Y-36467860D02*
X93571Y-36444050D01*
X93571Y-36444050D02*
X105475Y-36396431D01*
X105475Y-36396431D02*
X105475Y-36360717D01*
X105475Y-36360717D02*
X93571Y-36313098D01*
X93571Y-36313098D02*
X81666Y-36289289D01*
X81666Y-36289289D02*
X57856Y-36265479D01*
X57856Y-36265479D02*
X22142Y-36253574D01*
X22142Y-36253574D02*
X-1667Y-36253574D01*
X-1667Y-36253574D02*
X-37382Y-36265479D01*
X-37382Y-36265479D02*
X-49286Y-36277384D01*
X-144525Y-36277384D02*
X-156429Y-36265479D01*
X-156429Y-36265479D02*
X-180239Y-36253574D01*
X-180239Y-36253574D02*
X-239763Y-36253574D01*
X-239763Y-36253574D02*
X-263572Y-36265479D01*
X-263572Y-36265479D02*
X-275477Y-36277384D01*
X-275477Y-36277384D02*
X-287382Y-36301193D01*
X-287382Y-36301193D02*
X-287382Y-36325003D01*
X-287382Y-36325003D02*
X-275477Y-36360717D01*
X-275477Y-36360717D02*
X-132620Y-36503574D01*
X-132620Y-36503574D02*
X-287382Y-36503574D01*
X-382620Y-36277384D02*
X-394524Y-36265479D01*
X-394524Y-36265479D02*
X-418334Y-36253574D01*
X-418334Y-36253574D02*
X-477858Y-36253574D01*
X-477858Y-36253574D02*
X-501667Y-36265479D01*
X-501667Y-36265479D02*
X-513572Y-36277384D01*
X-513572Y-36277384D02*
X-525477Y-36301193D01*
X-525477Y-36301193D02*
X-525477Y-36325003D01*
X-525477Y-36325003D02*
X-513572Y-36360717D01*
X-513572Y-36360717D02*
X-370715Y-36503574D01*
X-370715Y-36503574D02*
X-525477Y-36503574D01*
D11*
X-17568548Y2305238D02*
X-17568548Y2388572D01*
X-17437596Y2388572D02*
X-17687596Y2388572D01*
X-17687596Y2388572D02*
X-17687596Y2269524D01*
X-17437596Y2174286D02*
X-17604262Y2174286D01*
X-17687596Y2174286D02*
X-17675691Y2186190D01*
X-17675691Y2186190D02*
X-17663786Y2174286D01*
X-17663786Y2174286D02*
X-17675691Y2162381D01*
X-17675691Y2162381D02*
X-17687596Y2174286D01*
X-17687596Y2174286D02*
X-17663786Y2174286D01*
X-17437596Y1948095D02*
X-17687596Y1948095D01*
X-17449500Y1948095D02*
X-17437596Y1971904D01*
X-17437596Y1971904D02*
X-17437596Y2019523D01*
X-17437596Y2019523D02*
X-17449500Y2043333D01*
X-17449500Y2043333D02*
X-17461405Y2055238D01*
X-17461405Y2055238D02*
X-17485215Y2067142D01*
X-17485215Y2067142D02*
X-17556643Y2067142D01*
X-17556643Y2067142D02*
X-17580453Y2055238D01*
X-17580453Y2055238D02*
X-17592358Y2043333D01*
X-17592358Y2043333D02*
X-17604262Y2019523D01*
X-17604262Y2019523D02*
X-17604262Y1971904D01*
X-17604262Y1971904D02*
X-17592358Y1948095D01*
X-17604262Y1721905D02*
X-17437596Y1721905D01*
X-17604262Y1829048D02*
X-17473310Y1829048D01*
X-17473310Y1829048D02*
X-17449500Y1817143D01*
X-17449500Y1817143D02*
X-17437596Y1793333D01*
X-17437596Y1793333D02*
X-17437596Y1757619D01*
X-17437596Y1757619D02*
X-17449500Y1733810D01*
X-17449500Y1733810D02*
X-17461405Y1721905D01*
X-17449500Y1495715D02*
X-17437596Y1519524D01*
X-17437596Y1519524D02*
X-17437596Y1567143D01*
X-17437596Y1567143D02*
X-17449500Y1590953D01*
X-17449500Y1590953D02*
X-17461405Y1602858D01*
X-17461405Y1602858D02*
X-17485215Y1614762D01*
X-17485215Y1614762D02*
X-17556643Y1614762D01*
X-17556643Y1614762D02*
X-17580453Y1602858D01*
X-17580453Y1602858D02*
X-17592358Y1590953D01*
X-17592358Y1590953D02*
X-17604262Y1567143D01*
X-17604262Y1567143D02*
X-17604262Y1519524D01*
X-17604262Y1519524D02*
X-17592358Y1495715D01*
X-17437596Y1388572D02*
X-17604262Y1388572D01*
X-17687596Y1388572D02*
X-17675691Y1400476D01*
X-17675691Y1400476D02*
X-17663786Y1388572D01*
X-17663786Y1388572D02*
X-17675691Y1376667D01*
X-17675691Y1376667D02*
X-17687596Y1388572D01*
X-17687596Y1388572D02*
X-17663786Y1388572D01*
X-17437596Y1162381D02*
X-17568548Y1162381D01*
X-17568548Y1162381D02*
X-17592358Y1174286D01*
X-17592358Y1174286D02*
X-17604262Y1198095D01*
X-17604262Y1198095D02*
X-17604262Y1245714D01*
X-17604262Y1245714D02*
X-17592358Y1269524D01*
X-17449500Y1162381D02*
X-17437596Y1186190D01*
X-17437596Y1186190D02*
X-17437596Y1245714D01*
X-17437596Y1245714D02*
X-17449500Y1269524D01*
X-17449500Y1269524D02*
X-17473310Y1281428D01*
X-17473310Y1281428D02*
X-17497120Y1281428D01*
X-17497120Y1281428D02*
X-17520929Y1269524D01*
X-17520929Y1269524D02*
X-17532834Y1245714D01*
X-17532834Y1245714D02*
X-17532834Y1186190D01*
X-17532834Y1186190D02*
X-17544739Y1162381D01*
X-17437596Y1007619D02*
X-17449500Y1031429D01*
X-17449500Y1031429D02*
X-17473310Y1043334D01*
X-17473310Y1043334D02*
X-17687596Y1043334D01*
D14*
X-16764319Y1964286D02*
X-16764319Y2030952D01*
X-16659557Y2030952D02*
X-16859557Y2030952D01*
X-16859557Y2030952D02*
X-16859557Y1935714D01*
X-16659557Y1859523D02*
X-16859557Y1859523D01*
X-16659557Y1764285D02*
X-16859557Y1764285D01*
X-16859557Y1764285D02*
X-16859557Y1716666D01*
X-16859557Y1716666D02*
X-16850033Y1688095D01*
X-16850033Y1688095D02*
X-16830985Y1669047D01*
X-16830985Y1669047D02*
X-16811938Y1659524D01*
X-16811938Y1659524D02*
X-16773842Y1650000D01*
X-16773842Y1650000D02*
X-16745271Y1650000D01*
X-16745271Y1650000D02*
X-16707176Y1659524D01*
X-16707176Y1659524D02*
X-16688128Y1669047D01*
X-16688128Y1669047D02*
X-16669080Y1688095D01*
X-16669080Y1688095D02*
X-16659557Y1716666D01*
X-16659557Y1716666D02*
X-16659557Y1764285D01*
X-16659557Y1459524D02*
X-16659557Y1573809D01*
X-16659557Y1516666D02*
X-16859557Y1516666D01*
X-16859557Y1516666D02*
X-16830985Y1535714D01*
X-16830985Y1535714D02*
X-16811938Y1554762D01*
X-16811938Y1554762D02*
X-16802414Y1573809D01*
D13*
X-411430Y-11034885D02*
X-582858Y-11034885D01*
X-497144Y-11334885D02*
X-497144Y-11034885D01*
X-682858Y-11334885D02*
X-682858Y-11034885D01*
X-682858Y-11034885D02*
X-797144Y-11034885D01*
X-797144Y-11034885D02*
X-825715Y-11049171D01*
X-825715Y-11049171D02*
X-840001Y-11063457D01*
X-840001Y-11063457D02*
X-854287Y-11092028D01*
X-854287Y-11092028D02*
X-854287Y-11134885D01*
X-854287Y-11134885D02*
X-840001Y-11163457D01*
X-840001Y-11163457D02*
X-825715Y-11177742D01*
X-825715Y-11177742D02*
X-797144Y-11192028D01*
X-797144Y-11192028D02*
X-682858Y-11192028D01*
X-1025715Y-11163457D02*
X-997144Y-11149171D01*
X-997144Y-11149171D02*
X-982858Y-11134885D01*
X-982858Y-11134885D02*
X-968572Y-11106314D01*
X-968572Y-11106314D02*
X-968572Y-11092028D01*
X-968572Y-11092028D02*
X-982858Y-11063457D01*
X-982858Y-11063457D02*
X-997144Y-11049171D01*
X-997144Y-11049171D02*
X-1025715Y-11034885D01*
X-1025715Y-11034885D02*
X-1082858Y-11034885D01*
X-1082858Y-11034885D02*
X-1111429Y-11049171D01*
X-1111429Y-11049171D02*
X-1125715Y-11063457D01*
X-1125715Y-11063457D02*
X-1140001Y-11092028D01*
X-1140001Y-11092028D02*
X-1140001Y-11106314D01*
X-1140001Y-11106314D02*
X-1125715Y-11134885D01*
X-1125715Y-11134885D02*
X-1111429Y-11149171D01*
X-1111429Y-11149171D02*
X-1082858Y-11163457D01*
X-1082858Y-11163457D02*
X-1025715Y-11163457D01*
X-1025715Y-11163457D02*
X-997144Y-11177742D01*
X-997144Y-11177742D02*
X-982858Y-11192028D01*
X-982858Y-11192028D02*
X-968572Y-11220600D01*
X-968572Y-11220600D02*
X-968572Y-11277742D01*
X-968572Y-11277742D02*
X-982858Y-11306314D01*
X-982858Y-11306314D02*
X-997144Y-11320600D01*
X-997144Y-11320600D02*
X-1025715Y-11334885D01*
X-1025715Y-11334885D02*
X-1082858Y-11334885D01*
X-1082858Y-11334885D02*
X-1111429Y-11320600D01*
X-1111429Y-11320600D02*
X-1125715Y-11306314D01*
X-1125715Y-11306314D02*
X-1140001Y-11277742D01*
X-1140001Y-11277742D02*
X-1140001Y-11220600D01*
X-1140001Y-11220600D02*
X-1125715Y-11192028D01*
X-1125715Y-11192028D02*
X-1111429Y-11177742D01*
X-1111429Y-11177742D02*
X-1082858Y-11163457D01*
D11*
X-87596Y-29111191D02*
X-87596Y-28968334D01*
X-87596Y-29039762D02*
X-337596Y-29039762D01*
X-337596Y-29039762D02*
X-301881Y-29015953D01*
X-301881Y-29015953D02*
X-278072Y-28992143D01*
X-278072Y-28992143D02*
X-266167Y-28968334D01*
X-254262Y-29325476D02*
X-87596Y-29325476D01*
X-254262Y-29218333D02*
X-123310Y-29218333D01*
X-123310Y-29218333D02*
X-99500Y-29230238D01*
X-99500Y-29230238D02*
X-87596Y-29254048D01*
X-87596Y-29254048D02*
X-87596Y-29289762D01*
X-87596Y-29289762D02*
X-99500Y-29313571D01*
X-99500Y-29313571D02*
X-111405Y-29325476D01*
X-218548Y-29527857D02*
X-218548Y-29444523D01*
X-87596Y-29444523D02*
X-337596Y-29444523D01*
X-337596Y-29444523D02*
X-337596Y-29563571D01*
D14*
X439765Y-29098333D02*
X451670Y-29086429D01*
X451670Y-29086429D02*
X463574Y-29050714D01*
X463574Y-29050714D02*
X463574Y-29026905D01*
X463574Y-29026905D02*
X451670Y-28991191D01*
X451670Y-28991191D02*
X427860Y-28967381D01*
X427860Y-28967381D02*
X404050Y-28955476D01*
X404050Y-28955476D02*
X356431Y-28943572D01*
X356431Y-28943572D02*
X320717Y-28943572D01*
X320717Y-28943572D02*
X273098Y-28955476D01*
X273098Y-28955476D02*
X249289Y-28967381D01*
X249289Y-28967381D02*
X225479Y-28991191D01*
X225479Y-28991191D02*
X213574Y-29026905D01*
X213574Y-29026905D02*
X213574Y-29050714D01*
X213574Y-29050714D02*
X225479Y-29086429D01*
X225479Y-29086429D02*
X237384Y-29098333D01*
X213574Y-29181667D02*
X213574Y-29348333D01*
X213574Y-29348333D02*
X463574Y-29241191D01*
D13*
X17851427Y-15564885D02*
X17679999Y-15564885D01*
X17765713Y-15864885D02*
X17765713Y-15564885D01*
X17579999Y-15864885D02*
X17579999Y-15564885D01*
X17579999Y-15564885D02*
X17465713Y-15564885D01*
X17465713Y-15564885D02*
X17437142Y-15579171D01*
X17437142Y-15579171D02*
X17422856Y-15593457D01*
X17422856Y-15593457D02*
X17408570Y-15622028D01*
X17408570Y-15622028D02*
X17408570Y-15664885D01*
X17408570Y-15664885D02*
X17422856Y-15693457D01*
X17422856Y-15693457D02*
X17437142Y-15707742D01*
X17437142Y-15707742D02*
X17465713Y-15722028D01*
X17465713Y-15722028D02*
X17579999Y-15722028D01*
X17122856Y-15864885D02*
X17294285Y-15864885D01*
X17208570Y-15864885D02*
X17208570Y-15564885D01*
X17208570Y-15564885D02*
X17237142Y-15607742D01*
X17237142Y-15607742D02*
X17265713Y-15636314D01*
X17265713Y-15636314D02*
X17294285Y-15650600D01*
X16865714Y-15664885D02*
X16865714Y-15864885D01*
X16937142Y-15550600D02*
X17008571Y-15764885D01*
X17008571Y-15764885D02*
X16822856Y-15764885D01*
D11*
X16155237Y988548D02*
X16238571Y988548D01*
X16238571Y857596D02*
X16238571Y1107596D01*
X16238571Y1107596D02*
X16119523Y1107596D01*
X16024285Y857596D02*
X16024285Y1024262D01*
X16024285Y1107596D02*
X16036189Y1095691D01*
X16036189Y1095691D02*
X16024285Y1083786D01*
X16024285Y1083786D02*
X16012380Y1095691D01*
X16012380Y1095691D02*
X16024285Y1107596D01*
X16024285Y1107596D02*
X16024285Y1083786D01*
X15798094Y857596D02*
X15798094Y1107596D01*
X15798094Y869500D02*
X15821903Y857596D01*
X15821903Y857596D02*
X15869522Y857596D01*
X15869522Y857596D02*
X15893332Y869500D01*
X15893332Y869500D02*
X15905237Y881405D01*
X15905237Y881405D02*
X15917141Y905215D01*
X15917141Y905215D02*
X15917141Y976643D01*
X15917141Y976643D02*
X15905237Y1000453D01*
X15905237Y1000453D02*
X15893332Y1012358D01*
X15893332Y1012358D02*
X15869522Y1024262D01*
X15869522Y1024262D02*
X15821903Y1024262D01*
X15821903Y1024262D02*
X15798094Y1012358D01*
X15571904Y1024262D02*
X15571904Y857596D01*
X15679047Y1024262D02*
X15679047Y893310D01*
X15679047Y893310D02*
X15667142Y869500D01*
X15667142Y869500D02*
X15643332Y857596D01*
X15643332Y857596D02*
X15607618Y857596D01*
X15607618Y857596D02*
X15583809Y869500D01*
X15583809Y869500D02*
X15571904Y881405D01*
X15345714Y869500D02*
X15369523Y857596D01*
X15369523Y857596D02*
X15417142Y857596D01*
X15417142Y857596D02*
X15440952Y869500D01*
X15440952Y869500D02*
X15452857Y881405D01*
X15452857Y881405D02*
X15464761Y905215D01*
X15464761Y905215D02*
X15464761Y976643D01*
X15464761Y976643D02*
X15452857Y1000453D01*
X15452857Y1000453D02*
X15440952Y1012358D01*
X15440952Y1012358D02*
X15417142Y1024262D01*
X15417142Y1024262D02*
X15369523Y1024262D01*
X15369523Y1024262D02*
X15345714Y1012358D01*
X15238571Y857596D02*
X15238571Y1024262D01*
X15238571Y1107596D02*
X15250475Y1095691D01*
X15250475Y1095691D02*
X15238571Y1083786D01*
X15238571Y1083786D02*
X15226666Y1095691D01*
X15226666Y1095691D02*
X15238571Y1107596D01*
X15238571Y1107596D02*
X15238571Y1083786D01*
X15012380Y857596D02*
X15012380Y988548D01*
X15012380Y988548D02*
X15024285Y1012358D01*
X15024285Y1012358D02*
X15048094Y1024262D01*
X15048094Y1024262D02*
X15095713Y1024262D01*
X15095713Y1024262D02*
X15119523Y1012358D01*
X15012380Y869500D02*
X15036189Y857596D01*
X15036189Y857596D02*
X15095713Y857596D01*
X15095713Y857596D02*
X15119523Y869500D01*
X15119523Y869500D02*
X15131427Y893310D01*
X15131427Y893310D02*
X15131427Y917120D01*
X15131427Y917120D02*
X15119523Y940929D01*
X15119523Y940929D02*
X15095713Y952834D01*
X15095713Y952834D02*
X15036189Y952834D01*
X15036189Y952834D02*
X15012380Y964739D01*
X14857618Y857596D02*
X14881428Y869500D01*
X14881428Y869500D02*
X14893333Y893310D01*
X14893333Y893310D02*
X14893333Y1107596D01*
D14*
X15764285Y1784319D02*
X15830951Y1784319D01*
X15830951Y1679557D02*
X15830951Y1879557D01*
X15830951Y1879557D02*
X15735713Y1879557D01*
X15659522Y1679557D02*
X15659522Y1879557D01*
X15564284Y1679557D02*
X15564284Y1879557D01*
X15564284Y1879557D02*
X15516665Y1879557D01*
X15516665Y1879557D02*
X15488094Y1870033D01*
X15488094Y1870033D02*
X15469046Y1850985D01*
X15469046Y1850985D02*
X15459523Y1831938D01*
X15459523Y1831938D02*
X15449999Y1793842D01*
X15449999Y1793842D02*
X15449999Y1765271D01*
X15449999Y1765271D02*
X15459523Y1727176D01*
X15459523Y1727176D02*
X15469046Y1708128D01*
X15469046Y1708128D02*
X15488094Y1689080D01*
X15488094Y1689080D02*
X15516665Y1679557D01*
X15516665Y1679557D02*
X15564284Y1679557D01*
X15383332Y1879557D02*
X15249999Y1879557D01*
X15249999Y1879557D02*
X15335713Y1679557D01*
D13*
X4778570Y-16634885D02*
X4607142Y-16634885D01*
X4692856Y-16934885D02*
X4692856Y-16634885D01*
X4507142Y-16934885D02*
X4507142Y-16634885D01*
X4507142Y-16634885D02*
X4392856Y-16634885D01*
X4392856Y-16634885D02*
X4364285Y-16649171D01*
X4364285Y-16649171D02*
X4349999Y-16663457D01*
X4349999Y-16663457D02*
X4335713Y-16692028D01*
X4335713Y-16692028D02*
X4335713Y-16734885D01*
X4335713Y-16734885D02*
X4349999Y-16763457D01*
X4349999Y-16763457D02*
X4364285Y-16777742D01*
X4364285Y-16777742D02*
X4392856Y-16792028D01*
X4392856Y-16792028D02*
X4507142Y-16792028D01*
X4064285Y-16634885D02*
X4207142Y-16634885D01*
X4207142Y-16634885D02*
X4221428Y-16777742D01*
X4221428Y-16777742D02*
X4207142Y-16763457D01*
X4207142Y-16763457D02*
X4178571Y-16749171D01*
X4178571Y-16749171D02*
X4107142Y-16749171D01*
X4107142Y-16749171D02*
X4078571Y-16763457D01*
X4078571Y-16763457D02*
X4064285Y-16777742D01*
X4064285Y-16777742D02*
X4049999Y-16806314D01*
X4049999Y-16806314D02*
X4049999Y-16877742D01*
X4049999Y-16877742D02*
X4064285Y-16906314D01*
X4064285Y-16906314D02*
X4078571Y-16920600D01*
X4078571Y-16920600D02*
X4107142Y-16934885D01*
X4107142Y-16934885D02*
X4178571Y-16934885D01*
X4178571Y-16934885D02*
X4207142Y-16920600D01*
X4207142Y-16920600D02*
X4221428Y-16906314D01*
D11*
X-7383097Y-28992404D02*
X-7240240Y-28992404D01*
X-7311668Y-28992404D02*
X-7311668Y-28742404D01*
X-7311668Y-28742404D02*
X-7287859Y-28778119D01*
X-7287859Y-28778119D02*
X-7264049Y-28801928D01*
X-7264049Y-28801928D02*
X-7240240Y-28813833D01*
X-7537858Y-28742404D02*
X-7561668Y-28742404D01*
X-7561668Y-28742404D02*
X-7585477Y-28754309D01*
X-7585477Y-28754309D02*
X-7597382Y-28766214D01*
X-7597382Y-28766214D02*
X-7609287Y-28790023D01*
X-7609287Y-28790023D02*
X-7621192Y-28837642D01*
X-7621192Y-28837642D02*
X-7621192Y-28897166D01*
X-7621192Y-28897166D02*
X-7609287Y-28944785D01*
X-7609287Y-28944785D02*
X-7597382Y-28968595D01*
X-7597382Y-28968595D02*
X-7585477Y-28980500D01*
X-7585477Y-28980500D02*
X-7561668Y-28992404D01*
X-7561668Y-28992404D02*
X-7537858Y-28992404D01*
X-7537858Y-28992404D02*
X-7514049Y-28980500D01*
X-7514049Y-28980500D02*
X-7502144Y-28968595D01*
X-7502144Y-28968595D02*
X-7490239Y-28944785D01*
X-7490239Y-28944785D02*
X-7478335Y-28897166D01*
X-7478335Y-28897166D02*
X-7478335Y-28837642D01*
X-7478335Y-28837642D02*
X-7490239Y-28790023D01*
X-7490239Y-28790023D02*
X-7502144Y-28766214D01*
X-7502144Y-28766214D02*
X-7514049Y-28754309D01*
X-7514049Y-28754309D02*
X-7537858Y-28742404D01*
X-7775953Y-28742404D02*
X-7799763Y-28742404D01*
X-7799763Y-28742404D02*
X-7823572Y-28754309D01*
X-7823572Y-28754309D02*
X-7835477Y-28766214D01*
X-7835477Y-28766214D02*
X-7847382Y-28790023D01*
X-7847382Y-28790023D02*
X-7859287Y-28837642D01*
X-7859287Y-28837642D02*
X-7859287Y-28897166D01*
X-7859287Y-28897166D02*
X-7847382Y-28944785D01*
X-7847382Y-28944785D02*
X-7835477Y-28968595D01*
X-7835477Y-28968595D02*
X-7823572Y-28980500D01*
X-7823572Y-28980500D02*
X-7799763Y-28992404D01*
X-7799763Y-28992404D02*
X-7775953Y-28992404D01*
X-7775953Y-28992404D02*
X-7752144Y-28980500D01*
X-7752144Y-28980500D02*
X-7740239Y-28968595D01*
X-7740239Y-28968595D02*
X-7728334Y-28944785D01*
X-7728334Y-28944785D02*
X-7716430Y-28897166D01*
X-7716430Y-28897166D02*
X-7716430Y-28837642D01*
X-7716430Y-28837642D02*
X-7728334Y-28790023D01*
X-7728334Y-28790023D02*
X-7740239Y-28766214D01*
X-7740239Y-28766214D02*
X-7752144Y-28754309D01*
X-7752144Y-28754309D02*
X-7775953Y-28742404D01*
X-7966429Y-28825738D02*
X-7966429Y-28992404D01*
X-7966429Y-28849547D02*
X-7978334Y-28837642D01*
X-7978334Y-28837642D02*
X-8002144Y-28825738D01*
X-8002144Y-28825738D02*
X-8037858Y-28825738D01*
X-8037858Y-28825738D02*
X-8061667Y-28837642D01*
X-8061667Y-28837642D02*
X-8073572Y-28861452D01*
X-8073572Y-28861452D02*
X-8073572Y-28992404D01*
X-8275953Y-28861452D02*
X-8192619Y-28861452D01*
X-8192619Y-28992404D02*
X-8192619Y-28742404D01*
X-8192619Y-28742404D02*
X-8311667Y-28742404D01*
D14*
X-7698334Y-28439765D02*
X-7686430Y-28451670D01*
X-7686430Y-28451670D02*
X-7650715Y-28463574D01*
X-7650715Y-28463574D02*
X-7626906Y-28463574D01*
X-7626906Y-28463574D02*
X-7591192Y-28451670D01*
X-7591192Y-28451670D02*
X-7567382Y-28427860D01*
X-7567382Y-28427860D02*
X-7555477Y-28404050D01*
X-7555477Y-28404050D02*
X-7543573Y-28356431D01*
X-7543573Y-28356431D02*
X-7543573Y-28320717D01*
X-7543573Y-28320717D02*
X-7555477Y-28273098D01*
X-7555477Y-28273098D02*
X-7567382Y-28249289D01*
X-7567382Y-28249289D02*
X-7591192Y-28225479D01*
X-7591192Y-28225479D02*
X-7626906Y-28213574D01*
X-7626906Y-28213574D02*
X-7650715Y-28213574D01*
X-7650715Y-28213574D02*
X-7686430Y-28225479D01*
X-7686430Y-28225479D02*
X-7698334Y-28237384D01*
X-7817382Y-28463574D02*
X-7865001Y-28463574D01*
X-7865001Y-28463574D02*
X-7888811Y-28451670D01*
X-7888811Y-28451670D02*
X-7900715Y-28439765D01*
X-7900715Y-28439765D02*
X-7924525Y-28404050D01*
X-7924525Y-28404050D02*
X-7936430Y-28356431D01*
X-7936430Y-28356431D02*
X-7936430Y-28261193D01*
X-7936430Y-28261193D02*
X-7924525Y-28237384D01*
X-7924525Y-28237384D02*
X-7912620Y-28225479D01*
X-7912620Y-28225479D02*
X-7888811Y-28213574D01*
X-7888811Y-28213574D02*
X-7841192Y-28213574D01*
X-7841192Y-28213574D02*
X-7817382Y-28225479D01*
X-7817382Y-28225479D02*
X-7805477Y-28237384D01*
X-7805477Y-28237384D02*
X-7793573Y-28261193D01*
X-7793573Y-28261193D02*
X-7793573Y-28320717D01*
X-7793573Y-28320717D02*
X-7805477Y-28344527D01*
X-7805477Y-28344527D02*
X-7817382Y-28356431D01*
X-7817382Y-28356431D02*
X-7841192Y-28368336D01*
X-7841192Y-28368336D02*
X-7888811Y-28368336D01*
X-7888811Y-28368336D02*
X-7912620Y-28356431D01*
X-7912620Y-28356431D02*
X-7924525Y-28344527D01*
X-7924525Y-28344527D02*
X-7936430Y-28320717D01*
D11*
X-6845001Y-23062404D02*
X-6797382Y-23062404D01*
X-6797382Y-23062404D02*
X-6773573Y-23074309D01*
X-6773573Y-23074309D02*
X-6761668Y-23086214D01*
X-6761668Y-23086214D02*
X-6737858Y-23121928D01*
X-6737858Y-23121928D02*
X-6725954Y-23169547D01*
X-6725954Y-23169547D02*
X-6725954Y-23264785D01*
X-6725954Y-23264785D02*
X-6737858Y-23288595D01*
X-6737858Y-23288595D02*
X-6749763Y-23300500D01*
X-6749763Y-23300500D02*
X-6773573Y-23312404D01*
X-6773573Y-23312404D02*
X-6821192Y-23312404D01*
X-6821192Y-23312404D02*
X-6845001Y-23300500D01*
X-6845001Y-23300500D02*
X-6856906Y-23288595D01*
X-6856906Y-23288595D02*
X-6868811Y-23264785D01*
X-6868811Y-23264785D02*
X-6868811Y-23205261D01*
X-6868811Y-23205261D02*
X-6856906Y-23181452D01*
X-6856906Y-23181452D02*
X-6845001Y-23169547D01*
X-6845001Y-23169547D02*
X-6821192Y-23157642D01*
X-6821192Y-23157642D02*
X-6773573Y-23157642D01*
X-6773573Y-23157642D02*
X-6749763Y-23169547D01*
X-6749763Y-23169547D02*
X-6737858Y-23181452D01*
X-6737858Y-23181452D02*
X-6725954Y-23205261D01*
X-6975953Y-23288595D02*
X-6987858Y-23300500D01*
X-6987858Y-23300500D02*
X-6975953Y-23312404D01*
X-6975953Y-23312404D02*
X-6964049Y-23300500D01*
X-6964049Y-23300500D02*
X-6975953Y-23288595D01*
X-6975953Y-23288595D02*
X-6975953Y-23312404D01*
X-7130716Y-23169547D02*
X-7106906Y-23157642D01*
X-7106906Y-23157642D02*
X-7095001Y-23145738D01*
X-7095001Y-23145738D02*
X-7083097Y-23121928D01*
X-7083097Y-23121928D02*
X-7083097Y-23110023D01*
X-7083097Y-23110023D02*
X-7095001Y-23086214D01*
X-7095001Y-23086214D02*
X-7106906Y-23074309D01*
X-7106906Y-23074309D02*
X-7130716Y-23062404D01*
X-7130716Y-23062404D02*
X-7178335Y-23062404D01*
X-7178335Y-23062404D02*
X-7202144Y-23074309D01*
X-7202144Y-23074309D02*
X-7214049Y-23086214D01*
X-7214049Y-23086214D02*
X-7225954Y-23110023D01*
X-7225954Y-23110023D02*
X-7225954Y-23121928D01*
X-7225954Y-23121928D02*
X-7214049Y-23145738D01*
X-7214049Y-23145738D02*
X-7202144Y-23157642D01*
X-7202144Y-23157642D02*
X-7178335Y-23169547D01*
X-7178335Y-23169547D02*
X-7130716Y-23169547D01*
X-7130716Y-23169547D02*
X-7106906Y-23181452D01*
X-7106906Y-23181452D02*
X-7095001Y-23193357D01*
X-7095001Y-23193357D02*
X-7083097Y-23217166D01*
X-7083097Y-23217166D02*
X-7083097Y-23264785D01*
X-7083097Y-23264785D02*
X-7095001Y-23288595D01*
X-7095001Y-23288595D02*
X-7106906Y-23300500D01*
X-7106906Y-23300500D02*
X-7130716Y-23312404D01*
X-7130716Y-23312404D02*
X-7178335Y-23312404D01*
X-7178335Y-23312404D02*
X-7202144Y-23300500D01*
X-7202144Y-23300500D02*
X-7214049Y-23288595D01*
X-7214049Y-23288595D02*
X-7225954Y-23264785D01*
X-7225954Y-23264785D02*
X-7225954Y-23217166D01*
X-7225954Y-23217166D02*
X-7214049Y-23193357D01*
X-7214049Y-23193357D02*
X-7202144Y-23181452D01*
X-7202144Y-23181452D02*
X-7178335Y-23169547D01*
X-7440239Y-23145738D02*
X-7440239Y-23312404D01*
X-7333096Y-23145738D02*
X-7333096Y-23276690D01*
X-7333096Y-23276690D02*
X-7345001Y-23300500D01*
X-7345001Y-23300500D02*
X-7368811Y-23312404D01*
X-7368811Y-23312404D02*
X-7404525Y-23312404D01*
X-7404525Y-23312404D02*
X-7428334Y-23300500D01*
X-7428334Y-23300500D02*
X-7440239Y-23288595D01*
X-7559286Y-23312404D02*
X-7559286Y-23062404D01*
X-7559286Y-23181452D02*
X-7702143Y-23181452D01*
X-7702143Y-23312404D02*
X-7702143Y-23062404D01*
D15*
X-7136667Y-22547149D02*
X-6898572Y-22547149D01*
X-6898572Y-22547149D02*
X-6898572Y-22047149D01*
X-7279525Y-22094768D02*
X-7303334Y-22070959D01*
X-7303334Y-22070959D02*
X-7350953Y-22047149D01*
X-7350953Y-22047149D02*
X-7470001Y-22047149D01*
X-7470001Y-22047149D02*
X-7517620Y-22070959D01*
X-7517620Y-22070959D02*
X-7541429Y-22094768D01*
X-7541429Y-22094768D02*
X-7565239Y-22142387D01*
X-7565239Y-22142387D02*
X-7565239Y-22190006D01*
X-7565239Y-22190006D02*
X-7541429Y-22261435D01*
X-7541429Y-22261435D02*
X-7255715Y-22547149D01*
X-7255715Y-22547149D02*
X-7565239Y-22547149D01*
D11*
X13605237Y-57861452D02*
X13688571Y-57861452D01*
X13688571Y-57992404D02*
X13688571Y-57742404D01*
X13688571Y-57742404D02*
X13569523Y-57742404D01*
X13474285Y-57992404D02*
X13474285Y-57825738D01*
X13474285Y-57742404D02*
X13486189Y-57754309D01*
X13486189Y-57754309D02*
X13474285Y-57766214D01*
X13474285Y-57766214D02*
X13462380Y-57754309D01*
X13462380Y-57754309D02*
X13474285Y-57742404D01*
X13474285Y-57742404D02*
X13474285Y-57766214D01*
X13248094Y-57992404D02*
X13248094Y-57742404D01*
X13248094Y-57980500D02*
X13271903Y-57992404D01*
X13271903Y-57992404D02*
X13319522Y-57992404D01*
X13319522Y-57992404D02*
X13343332Y-57980500D01*
X13343332Y-57980500D02*
X13355237Y-57968595D01*
X13355237Y-57968595D02*
X13367141Y-57944785D01*
X13367141Y-57944785D02*
X13367141Y-57873357D01*
X13367141Y-57873357D02*
X13355237Y-57849547D01*
X13355237Y-57849547D02*
X13343332Y-57837642D01*
X13343332Y-57837642D02*
X13319522Y-57825738D01*
X13319522Y-57825738D02*
X13271903Y-57825738D01*
X13271903Y-57825738D02*
X13248094Y-57837642D01*
X13021904Y-57825738D02*
X13021904Y-57992404D01*
X13129047Y-57825738D02*
X13129047Y-57956690D01*
X13129047Y-57956690D02*
X13117142Y-57980500D01*
X13117142Y-57980500D02*
X13093332Y-57992404D01*
X13093332Y-57992404D02*
X13057618Y-57992404D01*
X13057618Y-57992404D02*
X13033809Y-57980500D01*
X13033809Y-57980500D02*
X13021904Y-57968595D01*
X12795714Y-57980500D02*
X12819523Y-57992404D01*
X12819523Y-57992404D02*
X12867142Y-57992404D01*
X12867142Y-57992404D02*
X12890952Y-57980500D01*
X12890952Y-57980500D02*
X12902857Y-57968595D01*
X12902857Y-57968595D02*
X12914761Y-57944785D01*
X12914761Y-57944785D02*
X12914761Y-57873357D01*
X12914761Y-57873357D02*
X12902857Y-57849547D01*
X12902857Y-57849547D02*
X12890952Y-57837642D01*
X12890952Y-57837642D02*
X12867142Y-57825738D01*
X12867142Y-57825738D02*
X12819523Y-57825738D01*
X12819523Y-57825738D02*
X12795714Y-57837642D01*
X12688571Y-57992404D02*
X12688571Y-57825738D01*
X12688571Y-57742404D02*
X12700475Y-57754309D01*
X12700475Y-57754309D02*
X12688571Y-57766214D01*
X12688571Y-57766214D02*
X12676666Y-57754309D01*
X12676666Y-57754309D02*
X12688571Y-57742404D01*
X12688571Y-57742404D02*
X12688571Y-57766214D01*
X12462380Y-57992404D02*
X12462380Y-57861452D01*
X12462380Y-57861452D02*
X12474285Y-57837642D01*
X12474285Y-57837642D02*
X12498094Y-57825738D01*
X12498094Y-57825738D02*
X12545713Y-57825738D01*
X12545713Y-57825738D02*
X12569523Y-57837642D01*
X12462380Y-57980500D02*
X12486189Y-57992404D01*
X12486189Y-57992404D02*
X12545713Y-57992404D01*
X12545713Y-57992404D02*
X12569523Y-57980500D01*
X12569523Y-57980500D02*
X12581427Y-57956690D01*
X12581427Y-57956690D02*
X12581427Y-57932880D01*
X12581427Y-57932880D02*
X12569523Y-57909071D01*
X12569523Y-57909071D02*
X12545713Y-57897166D01*
X12545713Y-57897166D02*
X12486189Y-57897166D01*
X12486189Y-57897166D02*
X12462380Y-57885261D01*
X12307618Y-57992404D02*
X12331428Y-57980500D01*
X12331428Y-57980500D02*
X12343333Y-57956690D01*
X12343333Y-57956690D02*
X12343333Y-57742404D01*
D14*
X13224285Y-57075681D02*
X13290951Y-57075681D01*
X13290951Y-57180443D02*
X13290951Y-56980443D01*
X13290951Y-56980443D02*
X13195713Y-56980443D01*
X13119522Y-57180443D02*
X13119522Y-56980443D01*
X13024284Y-57180443D02*
X13024284Y-56980443D01*
X13024284Y-56980443D02*
X12976665Y-56980443D01*
X12976665Y-56980443D02*
X12948094Y-56989967D01*
X12948094Y-56989967D02*
X12929046Y-57009015D01*
X12929046Y-57009015D02*
X12919523Y-57028062D01*
X12919523Y-57028062D02*
X12909999Y-57066158D01*
X12909999Y-57066158D02*
X12909999Y-57094729D01*
X12909999Y-57094729D02*
X12919523Y-57132824D01*
X12919523Y-57132824D02*
X12929046Y-57151872D01*
X12929046Y-57151872D02*
X12948094Y-57170920D01*
X12948094Y-57170920D02*
X12976665Y-57180443D01*
X12976665Y-57180443D02*
X13024284Y-57180443D01*
X12738570Y-56980443D02*
X12776665Y-56980443D01*
X12776665Y-56980443D02*
X12795713Y-56989967D01*
X12795713Y-56989967D02*
X12805237Y-56999491D01*
X12805237Y-56999491D02*
X12824284Y-57028062D01*
X12824284Y-57028062D02*
X12833808Y-57066158D01*
X12833808Y-57066158D02*
X12833808Y-57142348D01*
X12833808Y-57142348D02*
X12824284Y-57161396D01*
X12824284Y-57161396D02*
X12814761Y-57170920D01*
X12814761Y-57170920D02*
X12795713Y-57180443D01*
X12795713Y-57180443D02*
X12757618Y-57180443D01*
X12757618Y-57180443D02*
X12738570Y-57170920D01*
X12738570Y-57170920D02*
X12729046Y-57161396D01*
X12729046Y-57161396D02*
X12719523Y-57142348D01*
X12719523Y-57142348D02*
X12719523Y-57094729D01*
X12719523Y-57094729D02*
X12729046Y-57075681D01*
X12729046Y-57075681D02*
X12738570Y-57066158D01*
X12738570Y-57066158D02*
X12757618Y-57056634D01*
X12757618Y-57056634D02*
X12795713Y-57056634D01*
X12795713Y-57056634D02*
X12814761Y-57066158D01*
X12814761Y-57066158D02*
X12824284Y-57075681D01*
X12824284Y-57075681D02*
X12833808Y-57094729D01*
D11*
X-7413097Y-27262404D02*
X-7270240Y-27262404D01*
X-7341668Y-27262404D02*
X-7341668Y-27012404D01*
X-7341668Y-27012404D02*
X-7317859Y-27048119D01*
X-7317859Y-27048119D02*
X-7294049Y-27071928D01*
X-7294049Y-27071928D02*
X-7270240Y-27083833D01*
X-7567858Y-27012404D02*
X-7591668Y-27012404D01*
X-7591668Y-27012404D02*
X-7615477Y-27024309D01*
X-7615477Y-27024309D02*
X-7627382Y-27036214D01*
X-7627382Y-27036214D02*
X-7639287Y-27060023D01*
X-7639287Y-27060023D02*
X-7651192Y-27107642D01*
X-7651192Y-27107642D02*
X-7651192Y-27167166D01*
X-7651192Y-27167166D02*
X-7639287Y-27214785D01*
X-7639287Y-27214785D02*
X-7627382Y-27238595D01*
X-7627382Y-27238595D02*
X-7615477Y-27250500D01*
X-7615477Y-27250500D02*
X-7591668Y-27262404D01*
X-7591668Y-27262404D02*
X-7567858Y-27262404D01*
X-7567858Y-27262404D02*
X-7544049Y-27250500D01*
X-7544049Y-27250500D02*
X-7532144Y-27238595D01*
X-7532144Y-27238595D02*
X-7520239Y-27214785D01*
X-7520239Y-27214785D02*
X-7508335Y-27167166D01*
X-7508335Y-27167166D02*
X-7508335Y-27107642D01*
X-7508335Y-27107642D02*
X-7520239Y-27060023D01*
X-7520239Y-27060023D02*
X-7532144Y-27036214D01*
X-7532144Y-27036214D02*
X-7544049Y-27024309D01*
X-7544049Y-27024309D02*
X-7567858Y-27012404D01*
X-7805953Y-27012404D02*
X-7829763Y-27012404D01*
X-7829763Y-27012404D02*
X-7853572Y-27024309D01*
X-7853572Y-27024309D02*
X-7865477Y-27036214D01*
X-7865477Y-27036214D02*
X-7877382Y-27060023D01*
X-7877382Y-27060023D02*
X-7889287Y-27107642D01*
X-7889287Y-27107642D02*
X-7889287Y-27167166D01*
X-7889287Y-27167166D02*
X-7877382Y-27214785D01*
X-7877382Y-27214785D02*
X-7865477Y-27238595D01*
X-7865477Y-27238595D02*
X-7853572Y-27250500D01*
X-7853572Y-27250500D02*
X-7829763Y-27262404D01*
X-7829763Y-27262404D02*
X-7805953Y-27262404D01*
X-7805953Y-27262404D02*
X-7782144Y-27250500D01*
X-7782144Y-27250500D02*
X-7770239Y-27238595D01*
X-7770239Y-27238595D02*
X-7758334Y-27214785D01*
X-7758334Y-27214785D02*
X-7746430Y-27167166D01*
X-7746430Y-27167166D02*
X-7746430Y-27107642D01*
X-7746430Y-27107642D02*
X-7758334Y-27060023D01*
X-7758334Y-27060023D02*
X-7770239Y-27036214D01*
X-7770239Y-27036214D02*
X-7782144Y-27024309D01*
X-7782144Y-27024309D02*
X-7805953Y-27012404D01*
X-7996429Y-27095738D02*
X-7996429Y-27262404D01*
X-7996429Y-27119547D02*
X-8008334Y-27107642D01*
X-8008334Y-27107642D02*
X-8032144Y-27095738D01*
X-8032144Y-27095738D02*
X-8067858Y-27095738D01*
X-8067858Y-27095738D02*
X-8091667Y-27107642D01*
X-8091667Y-27107642D02*
X-8103572Y-27131452D01*
X-8103572Y-27131452D02*
X-8103572Y-27262404D01*
X-8305953Y-27131452D02*
X-8222619Y-27131452D01*
X-8222619Y-27262404D02*
X-8222619Y-27012404D01*
X-8222619Y-27012404D02*
X-8341667Y-27012404D01*
D14*
X-7624286Y-26639765D02*
X-7612382Y-26651670D01*
X-7612382Y-26651670D02*
X-7576667Y-26663574D01*
X-7576667Y-26663574D02*
X-7552858Y-26663574D01*
X-7552858Y-26663574D02*
X-7517144Y-26651670D01*
X-7517144Y-26651670D02*
X-7493334Y-26627860D01*
X-7493334Y-26627860D02*
X-7481429Y-26604050D01*
X-7481429Y-26604050D02*
X-7469525Y-26556431D01*
X-7469525Y-26556431D02*
X-7469525Y-26520717D01*
X-7469525Y-26520717D02*
X-7481429Y-26473098D01*
X-7481429Y-26473098D02*
X-7493334Y-26449289D01*
X-7493334Y-26449289D02*
X-7517144Y-26425479D01*
X-7517144Y-26425479D02*
X-7552858Y-26413574D01*
X-7552858Y-26413574D02*
X-7576667Y-26413574D01*
X-7576667Y-26413574D02*
X-7612382Y-26425479D01*
X-7612382Y-26425479D02*
X-7624286Y-26437384D01*
X-7862382Y-26663574D02*
X-7719525Y-26663574D01*
X-7790953Y-26663574D02*
X-7790953Y-26413574D01*
X-7790953Y-26413574D02*
X-7767144Y-26449289D01*
X-7767144Y-26449289D02*
X-7743334Y-26473098D01*
X-7743334Y-26473098D02*
X-7719525Y-26485003D01*
X-7945715Y-26413574D02*
X-8100477Y-26413574D01*
X-8100477Y-26413574D02*
X-8017143Y-26508812D01*
X-8017143Y-26508812D02*
X-8052858Y-26508812D01*
X-8052858Y-26508812D02*
X-8076667Y-26520717D01*
X-8076667Y-26520717D02*
X-8088572Y-26532622D01*
X-8088572Y-26532622D02*
X-8100477Y-26556431D01*
X-8100477Y-26556431D02*
X-8100477Y-26615955D01*
X-8100477Y-26615955D02*
X-8088572Y-26639765D01*
X-8088572Y-26639765D02*
X-8076667Y-26651670D01*
X-8076667Y-26651670D02*
X-8052858Y-26663574D01*
X-8052858Y-26663574D02*
X-7981429Y-26663574D01*
X-7981429Y-26663574D02*
X-7957620Y-26651670D01*
X-7957620Y-26651670D02*
X-7945715Y-26639765D01*
D11*
X-4729287Y-27316214D02*
X-4741191Y-27304309D01*
X-4741191Y-27304309D02*
X-4765001Y-27292404D01*
X-4765001Y-27292404D02*
X-4824525Y-27292404D01*
X-4824525Y-27292404D02*
X-4848334Y-27304309D01*
X-4848334Y-27304309D02*
X-4860239Y-27316214D01*
X-4860239Y-27316214D02*
X-4872144Y-27340023D01*
X-4872144Y-27340023D02*
X-4872144Y-27363833D01*
X-4872144Y-27363833D02*
X-4860239Y-27399547D01*
X-4860239Y-27399547D02*
X-4717382Y-27542404D01*
X-4717382Y-27542404D02*
X-4872144Y-27542404D01*
X-4967382Y-27316214D02*
X-4979286Y-27304309D01*
X-4979286Y-27304309D02*
X-5003096Y-27292404D01*
X-5003096Y-27292404D02*
X-5062620Y-27292404D01*
X-5062620Y-27292404D02*
X-5086429Y-27304309D01*
X-5086429Y-27304309D02*
X-5098334Y-27316214D01*
X-5098334Y-27316214D02*
X-5110239Y-27340023D01*
X-5110239Y-27340023D02*
X-5110239Y-27363833D01*
X-5110239Y-27363833D02*
X-5098334Y-27399547D01*
X-5098334Y-27399547D02*
X-4955477Y-27542404D01*
X-4955477Y-27542404D02*
X-5110239Y-27542404D01*
X-5324524Y-27375738D02*
X-5324524Y-27542404D01*
X-5217381Y-27375738D02*
X-5217381Y-27506690D01*
X-5217381Y-27506690D02*
X-5229286Y-27530500D01*
X-5229286Y-27530500D02*
X-5253096Y-27542404D01*
X-5253096Y-27542404D02*
X-5288810Y-27542404D01*
X-5288810Y-27542404D02*
X-5312619Y-27530500D01*
X-5312619Y-27530500D02*
X-5324524Y-27518595D01*
X-5526905Y-27411452D02*
X-5443571Y-27411452D01*
X-5443571Y-27542404D02*
X-5443571Y-27292404D01*
X-5443571Y-27292404D02*
X-5562619Y-27292404D01*
D12*
X-4882858Y-28283832D02*
X-4863810Y-28302880D01*
X-4863810Y-28302880D02*
X-4806668Y-28321927D01*
X-4806668Y-28321927D02*
X-4768572Y-28321927D01*
X-4768572Y-28321927D02*
X-4711429Y-28302880D01*
X-4711429Y-28302880D02*
X-4673334Y-28264784D01*
X-4673334Y-28264784D02*
X-4654287Y-28226689D01*
X-4654287Y-28226689D02*
X-4635239Y-28150499D01*
X-4635239Y-28150499D02*
X-4635239Y-28093356D01*
X-4635239Y-28093356D02*
X-4654287Y-28017165D01*
X-4654287Y-28017165D02*
X-4673334Y-27979070D01*
X-4673334Y-27979070D02*
X-4711429Y-27940975D01*
X-4711429Y-27940975D02*
X-4768572Y-27921927D01*
X-4768572Y-27921927D02*
X-4806668Y-27921927D01*
X-4806668Y-27921927D02*
X-4863810Y-27940975D01*
X-4863810Y-27940975D02*
X-4882858Y-27960022D01*
X-5263810Y-28321927D02*
X-5035239Y-28321927D01*
X-5149525Y-28321927D02*
X-5149525Y-27921927D01*
X-5149525Y-27921927D02*
X-5111429Y-27979070D01*
X-5111429Y-27979070D02*
X-5073334Y-28017165D01*
X-5073334Y-28017165D02*
X-5035239Y-28036213D01*
X-5511429Y-27921927D02*
X-5549524Y-27921927D01*
X-5549524Y-27921927D02*
X-5587620Y-27940975D01*
X-5587620Y-27940975D02*
X-5606667Y-27960022D01*
X-5606667Y-27960022D02*
X-5625715Y-27998118D01*
X-5625715Y-27998118D02*
X-5644762Y-28074308D01*
X-5644762Y-28074308D02*
X-5644762Y-28169546D01*
X-5644762Y-28169546D02*
X-5625715Y-28245737D01*
X-5625715Y-28245737D02*
X-5606667Y-28283832D01*
X-5606667Y-28283832D02*
X-5587620Y-28302880D01*
X-5587620Y-28302880D02*
X-5549524Y-28321927D01*
X-5549524Y-28321927D02*
X-5511429Y-28321927D01*
X-5511429Y-28321927D02*
X-5473334Y-28302880D01*
X-5473334Y-28302880D02*
X-5454286Y-28283832D01*
X-5454286Y-28283832D02*
X-5435239Y-28245737D01*
X-5435239Y-28245737D02*
X-5416191Y-28169546D01*
X-5416191Y-28169546D02*
X-5416191Y-28074308D01*
X-5416191Y-28074308D02*
X-5435239Y-27998118D01*
X-5435239Y-27998118D02*
X-5454286Y-27960022D01*
X-5454286Y-27960022D02*
X-5473334Y-27940975D01*
X-5473334Y-27940975D02*
X-5511429Y-27921927D01*
D11*
X-7847596Y-34723096D02*
X-7847596Y-34580239D01*
X-7847596Y-34651667D02*
X-8097596Y-34651667D01*
X-8097596Y-34651667D02*
X-8061881Y-34627858D01*
X-8061881Y-34627858D02*
X-8038072Y-34604048D01*
X-8038072Y-34604048D02*
X-8026167Y-34580239D01*
X-8097596Y-34877857D02*
X-8097596Y-34901667D01*
X-8097596Y-34901667D02*
X-8085691Y-34925476D01*
X-8085691Y-34925476D02*
X-8073786Y-34937381D01*
X-8073786Y-34937381D02*
X-8049977Y-34949286D01*
X-8049977Y-34949286D02*
X-8002358Y-34961191D01*
X-8002358Y-34961191D02*
X-7942834Y-34961191D01*
X-7942834Y-34961191D02*
X-7895215Y-34949286D01*
X-7895215Y-34949286D02*
X-7871405Y-34937381D01*
X-7871405Y-34937381D02*
X-7859500Y-34925476D01*
X-7859500Y-34925476D02*
X-7847596Y-34901667D01*
X-7847596Y-34901667D02*
X-7847596Y-34877857D01*
X-7847596Y-34877857D02*
X-7859500Y-34854048D01*
X-7859500Y-34854048D02*
X-7871405Y-34842143D01*
X-7871405Y-34842143D02*
X-7895215Y-34830238D01*
X-7895215Y-34830238D02*
X-7942834Y-34818334D01*
X-7942834Y-34818334D02*
X-8002358Y-34818334D01*
X-8002358Y-34818334D02*
X-8049977Y-34830238D01*
X-8049977Y-34830238D02*
X-8073786Y-34842143D01*
X-8073786Y-34842143D02*
X-8085691Y-34854048D01*
X-8085691Y-34854048D02*
X-8097596Y-34877857D01*
X-8097596Y-35115952D02*
X-8097596Y-35139762D01*
X-8097596Y-35139762D02*
X-8085691Y-35163571D01*
X-8085691Y-35163571D02*
X-8073786Y-35175476D01*
X-8073786Y-35175476D02*
X-8049977Y-35187381D01*
X-8049977Y-35187381D02*
X-8002358Y-35199286D01*
X-8002358Y-35199286D02*
X-7942834Y-35199286D01*
X-7942834Y-35199286D02*
X-7895215Y-35187381D01*
X-7895215Y-35187381D02*
X-7871405Y-35175476D01*
X-7871405Y-35175476D02*
X-7859500Y-35163571D01*
X-7859500Y-35163571D02*
X-7847596Y-35139762D01*
X-7847596Y-35139762D02*
X-7847596Y-35115952D01*
X-7847596Y-35115952D02*
X-7859500Y-35092143D01*
X-7859500Y-35092143D02*
X-7871405Y-35080238D01*
X-7871405Y-35080238D02*
X-7895215Y-35068333D01*
X-7895215Y-35068333D02*
X-7942834Y-35056429D01*
X-7942834Y-35056429D02*
X-8002358Y-35056429D01*
X-8002358Y-35056429D02*
X-8049977Y-35068333D01*
X-8049977Y-35068333D02*
X-8073786Y-35080238D01*
X-8073786Y-35080238D02*
X-8085691Y-35092143D01*
X-8085691Y-35092143D02*
X-8097596Y-35115952D01*
X-8014262Y-35306428D02*
X-7847596Y-35306428D01*
X-7990453Y-35306428D02*
X-8002358Y-35318333D01*
X-8002358Y-35318333D02*
X-8014262Y-35342143D01*
X-8014262Y-35342143D02*
X-8014262Y-35377857D01*
X-8014262Y-35377857D02*
X-8002358Y-35401666D01*
X-8002358Y-35401666D02*
X-7978548Y-35413571D01*
X-7978548Y-35413571D02*
X-7847596Y-35413571D01*
X-7978548Y-35615952D02*
X-7978548Y-35532618D01*
X-7847596Y-35532618D02*
X-8097596Y-35532618D01*
X-8097596Y-35532618D02*
X-8097596Y-35651666D01*
D14*
X-8390235Y-34929285D02*
X-8378330Y-34917381D01*
X-8378330Y-34917381D02*
X-8366426Y-34881666D01*
X-8366426Y-34881666D02*
X-8366426Y-34857857D01*
X-8366426Y-34857857D02*
X-8378330Y-34822143D01*
X-8378330Y-34822143D02*
X-8402140Y-34798333D01*
X-8402140Y-34798333D02*
X-8425950Y-34786428D01*
X-8425950Y-34786428D02*
X-8473569Y-34774524D01*
X-8473569Y-34774524D02*
X-8509283Y-34774524D01*
X-8509283Y-34774524D02*
X-8556902Y-34786428D01*
X-8556902Y-34786428D02*
X-8580711Y-34798333D01*
X-8580711Y-34798333D02*
X-8604521Y-34822143D01*
X-8604521Y-34822143D02*
X-8616426Y-34857857D01*
X-8616426Y-34857857D02*
X-8616426Y-34881666D01*
X-8616426Y-34881666D02*
X-8604521Y-34917381D01*
X-8604521Y-34917381D02*
X-8592616Y-34929285D01*
X-8366426Y-35167381D02*
X-8366426Y-35024524D01*
X-8366426Y-35095952D02*
X-8616426Y-35095952D01*
X-8616426Y-35095952D02*
X-8580711Y-35072143D01*
X-8580711Y-35072143D02*
X-8556902Y-35048333D01*
X-8556902Y-35048333D02*
X-8544997Y-35024524D01*
X-8509283Y-35310238D02*
X-8521188Y-35286428D01*
X-8521188Y-35286428D02*
X-8533092Y-35274523D01*
X-8533092Y-35274523D02*
X-8556902Y-35262619D01*
X-8556902Y-35262619D02*
X-8568807Y-35262619D01*
X-8568807Y-35262619D02*
X-8592616Y-35274523D01*
X-8592616Y-35274523D02*
X-8604521Y-35286428D01*
X-8604521Y-35286428D02*
X-8616426Y-35310238D01*
X-8616426Y-35310238D02*
X-8616426Y-35357857D01*
X-8616426Y-35357857D02*
X-8604521Y-35381666D01*
X-8604521Y-35381666D02*
X-8592616Y-35393571D01*
X-8592616Y-35393571D02*
X-8568807Y-35405476D01*
X-8568807Y-35405476D02*
X-8556902Y-35405476D01*
X-8556902Y-35405476D02*
X-8533092Y-35393571D01*
X-8533092Y-35393571D02*
X-8521188Y-35381666D01*
X-8521188Y-35381666D02*
X-8509283Y-35357857D01*
X-8509283Y-35357857D02*
X-8509283Y-35310238D01*
X-8509283Y-35310238D02*
X-8497378Y-35286428D01*
X-8497378Y-35286428D02*
X-8485473Y-35274523D01*
X-8485473Y-35274523D02*
X-8461664Y-35262619D01*
X-8461664Y-35262619D02*
X-8414045Y-35262619D01*
X-8414045Y-35262619D02*
X-8390235Y-35274523D01*
X-8390235Y-35274523D02*
X-8378330Y-35286428D01*
X-8378330Y-35286428D02*
X-8366426Y-35310238D01*
X-8366426Y-35310238D02*
X-8366426Y-35357857D01*
X-8366426Y-35357857D02*
X-8378330Y-35381666D01*
X-8378330Y-35381666D02*
X-8390235Y-35393571D01*
X-8390235Y-35393571D02*
X-8414045Y-35405476D01*
X-8414045Y-35405476D02*
X-8461664Y-35405476D01*
X-8461664Y-35405476D02*
X-8485473Y-35393571D01*
X-8485473Y-35393571D02*
X-8497378Y-35381666D01*
X-8497378Y-35381666D02*
X-8509283Y-35357857D01*
D11*
X-11587596Y-33597857D02*
X-11587596Y-33764523D01*
X-11587596Y-33764523D02*
X-11337596Y-33657381D01*
X-11361405Y-33859761D02*
X-11349500Y-33871666D01*
X-11349500Y-33871666D02*
X-11337596Y-33859761D01*
X-11337596Y-33859761D02*
X-11349500Y-33847857D01*
X-11349500Y-33847857D02*
X-11361405Y-33859761D01*
X-11361405Y-33859761D02*
X-11337596Y-33859761D01*
X-11587596Y-34097857D02*
X-11587596Y-33978809D01*
X-11587596Y-33978809D02*
X-11468548Y-33966905D01*
X-11468548Y-33966905D02*
X-11480453Y-33978809D01*
X-11480453Y-33978809D02*
X-11492358Y-34002619D01*
X-11492358Y-34002619D02*
X-11492358Y-34062143D01*
X-11492358Y-34062143D02*
X-11480453Y-34085952D01*
X-11480453Y-34085952D02*
X-11468548Y-34097857D01*
X-11468548Y-34097857D02*
X-11444739Y-34109762D01*
X-11444739Y-34109762D02*
X-11385215Y-34109762D01*
X-11385215Y-34109762D02*
X-11361405Y-34097857D01*
X-11361405Y-34097857D02*
X-11349500Y-34085952D01*
X-11349500Y-34085952D02*
X-11337596Y-34062143D01*
X-11337596Y-34062143D02*
X-11337596Y-34002619D01*
X-11337596Y-34002619D02*
X-11349500Y-33978809D01*
X-11349500Y-33978809D02*
X-11361405Y-33966905D01*
X-11504262Y-34216904D02*
X-11254262Y-34216904D01*
X-11492358Y-34216904D02*
X-11504262Y-34240714D01*
X-11504262Y-34240714D02*
X-11504262Y-34288333D01*
X-11504262Y-34288333D02*
X-11492358Y-34312142D01*
X-11492358Y-34312142D02*
X-11480453Y-34324047D01*
X-11480453Y-34324047D02*
X-11456643Y-34335952D01*
X-11456643Y-34335952D02*
X-11385215Y-34335952D01*
X-11385215Y-34335952D02*
X-11361405Y-34324047D01*
X-11361405Y-34324047D02*
X-11349500Y-34312142D01*
X-11349500Y-34312142D02*
X-11337596Y-34288333D01*
X-11337596Y-34288333D02*
X-11337596Y-34240714D01*
X-11337596Y-34240714D02*
X-11349500Y-34216904D01*
X-11468548Y-34526428D02*
X-11468548Y-34443094D01*
X-11337596Y-34443094D02*
X-11587596Y-34443094D01*
X-11587596Y-34443094D02*
X-11587596Y-34562142D01*
D14*
X-10820235Y-33844285D02*
X-10808330Y-33832381D01*
X-10808330Y-33832381D02*
X-10796426Y-33796666D01*
X-10796426Y-33796666D02*
X-10796426Y-33772857D01*
X-10796426Y-33772857D02*
X-10808330Y-33737143D01*
X-10808330Y-33737143D02*
X-10832140Y-33713333D01*
X-10832140Y-33713333D02*
X-10855950Y-33701428D01*
X-10855950Y-33701428D02*
X-10903569Y-33689524D01*
X-10903569Y-33689524D02*
X-10939283Y-33689524D01*
X-10939283Y-33689524D02*
X-10986902Y-33701428D01*
X-10986902Y-33701428D02*
X-11010711Y-33713333D01*
X-11010711Y-33713333D02*
X-11034521Y-33737143D01*
X-11034521Y-33737143D02*
X-11046426Y-33772857D01*
X-11046426Y-33772857D02*
X-11046426Y-33796666D01*
X-11046426Y-33796666D02*
X-11034521Y-33832381D01*
X-11034521Y-33832381D02*
X-11022616Y-33844285D01*
X-11022616Y-33939524D02*
X-11034521Y-33951428D01*
X-11034521Y-33951428D02*
X-11046426Y-33975238D01*
X-11046426Y-33975238D02*
X-11046426Y-34034762D01*
X-11046426Y-34034762D02*
X-11034521Y-34058571D01*
X-11034521Y-34058571D02*
X-11022616Y-34070476D01*
X-11022616Y-34070476D02*
X-10998807Y-34082381D01*
X-10998807Y-34082381D02*
X-10974997Y-34082381D01*
X-10974997Y-34082381D02*
X-10939283Y-34070476D01*
X-10939283Y-34070476D02*
X-10796426Y-33927619D01*
X-10796426Y-33927619D02*
X-10796426Y-34082381D01*
X-10939283Y-34225238D02*
X-10951188Y-34201428D01*
X-10951188Y-34201428D02*
X-10963092Y-34189523D01*
X-10963092Y-34189523D02*
X-10986902Y-34177619D01*
X-10986902Y-34177619D02*
X-10998807Y-34177619D01*
X-10998807Y-34177619D02*
X-11022616Y-34189523D01*
X-11022616Y-34189523D02*
X-11034521Y-34201428D01*
X-11034521Y-34201428D02*
X-11046426Y-34225238D01*
X-11046426Y-34225238D02*
X-11046426Y-34272857D01*
X-11046426Y-34272857D02*
X-11034521Y-34296666D01*
X-11034521Y-34296666D02*
X-11022616Y-34308571D01*
X-11022616Y-34308571D02*
X-10998807Y-34320476D01*
X-10998807Y-34320476D02*
X-10986902Y-34320476D01*
X-10986902Y-34320476D02*
X-10963092Y-34308571D01*
X-10963092Y-34308571D02*
X-10951188Y-34296666D01*
X-10951188Y-34296666D02*
X-10939283Y-34272857D01*
X-10939283Y-34272857D02*
X-10939283Y-34225238D01*
X-10939283Y-34225238D02*
X-10927378Y-34201428D01*
X-10927378Y-34201428D02*
X-10915473Y-34189523D01*
X-10915473Y-34189523D02*
X-10891664Y-34177619D01*
X-10891664Y-34177619D02*
X-10844045Y-34177619D01*
X-10844045Y-34177619D02*
X-10820235Y-34189523D01*
X-10820235Y-34189523D02*
X-10808330Y-34201428D01*
X-10808330Y-34201428D02*
X-10796426Y-34225238D01*
X-10796426Y-34225238D02*
X-10796426Y-34272857D01*
X-10796426Y-34272857D02*
X-10808330Y-34296666D01*
X-10808330Y-34296666D02*
X-10820235Y-34308571D01*
X-10820235Y-34308571D02*
X-10844045Y-34320476D01*
X-10844045Y-34320476D02*
X-10891664Y-34320476D01*
X-10891664Y-34320476D02*
X-10915473Y-34308571D01*
X-10915473Y-34308571D02*
X-10927378Y-34296666D01*
X-10927378Y-34296666D02*
X-10939283Y-34272857D01*
D13*
X8528570Y-14634885D02*
X8357142Y-14634885D01*
X8442856Y-14934885D02*
X8442856Y-14634885D01*
X8257142Y-14934885D02*
X8257142Y-14634885D01*
X8257142Y-14634885D02*
X8142856Y-14634885D01*
X8142856Y-14634885D02*
X8114285Y-14649171D01*
X8114285Y-14649171D02*
X8099999Y-14663457D01*
X8099999Y-14663457D02*
X8085713Y-14692028D01*
X8085713Y-14692028D02*
X8085713Y-14734885D01*
X8085713Y-14734885D02*
X8099999Y-14763457D01*
X8099999Y-14763457D02*
X8114285Y-14777742D01*
X8114285Y-14777742D02*
X8142856Y-14792028D01*
X8142856Y-14792028D02*
X8257142Y-14792028D01*
X7828571Y-14634885D02*
X7885713Y-14634885D01*
X7885713Y-14634885D02*
X7914285Y-14649171D01*
X7914285Y-14649171D02*
X7928571Y-14663457D01*
X7928571Y-14663457D02*
X7957142Y-14706314D01*
X7957142Y-14706314D02*
X7971428Y-14763457D01*
X7971428Y-14763457D02*
X7971428Y-14877742D01*
X7971428Y-14877742D02*
X7957142Y-14906314D01*
X7957142Y-14906314D02*
X7942856Y-14920600D01*
X7942856Y-14920600D02*
X7914285Y-14934885D01*
X7914285Y-14934885D02*
X7857142Y-14934885D01*
X7857142Y-14934885D02*
X7828571Y-14920600D01*
X7828571Y-14920600D02*
X7814285Y-14906314D01*
X7814285Y-14906314D02*
X7799999Y-14877742D01*
X7799999Y-14877742D02*
X7799999Y-14806314D01*
X7799999Y-14806314D02*
X7814285Y-14777742D01*
X7814285Y-14777742D02*
X7828571Y-14763457D01*
X7828571Y-14763457D02*
X7857142Y-14749171D01*
X7857142Y-14749171D02*
X7914285Y-14749171D01*
X7914285Y-14749171D02*
X7942856Y-14763457D01*
X7942856Y-14763457D02*
X7957142Y-14777742D01*
X7957142Y-14777742D02*
X7971428Y-14806314D01*
X8871427Y-11304885D02*
X8699999Y-11304885D01*
X8785713Y-11604885D02*
X8785713Y-11304885D01*
X8599999Y-11604885D02*
X8599999Y-11304885D01*
X8599999Y-11304885D02*
X8485713Y-11304885D01*
X8485713Y-11304885D02*
X8457142Y-11319171D01*
X8457142Y-11319171D02*
X8442856Y-11333457D01*
X8442856Y-11333457D02*
X8428570Y-11362028D01*
X8428570Y-11362028D02*
X8428570Y-11404885D01*
X8428570Y-11404885D02*
X8442856Y-11433457D01*
X8442856Y-11433457D02*
X8457142Y-11447742D01*
X8457142Y-11447742D02*
X8485713Y-11462028D01*
X8485713Y-11462028D02*
X8599999Y-11462028D01*
X8142856Y-11604885D02*
X8314285Y-11604885D01*
X8228570Y-11604885D02*
X8228570Y-11304885D01*
X8228570Y-11304885D02*
X8257142Y-11347742D01*
X8257142Y-11347742D02*
X8285713Y-11376314D01*
X8285713Y-11376314D02*
X8314285Y-11390600D01*
X8028571Y-11333457D02*
X8014285Y-11319171D01*
X8014285Y-11319171D02*
X7985714Y-11304885D01*
X7985714Y-11304885D02*
X7914285Y-11304885D01*
X7914285Y-11304885D02*
X7885714Y-11319171D01*
X7885714Y-11319171D02*
X7871428Y-11333457D01*
X7871428Y-11333457D02*
X7857142Y-11362028D01*
X7857142Y-11362028D02*
X7857142Y-11390600D01*
X7857142Y-11390600D02*
X7871428Y-11433457D01*
X7871428Y-11433457D02*
X8042856Y-11604885D01*
X8042856Y-11604885D02*
X7857142Y-11604885D01*
D11*
X-11604763Y-56701452D02*
X-11521429Y-56701452D01*
X-11521429Y-56832404D02*
X-11521429Y-56582404D01*
X-11521429Y-56582404D02*
X-11640477Y-56582404D01*
X-11735715Y-56832404D02*
X-11735715Y-56665738D01*
X-11735715Y-56582404D02*
X-11723811Y-56594309D01*
X-11723811Y-56594309D02*
X-11735715Y-56606214D01*
X-11735715Y-56606214D02*
X-11747620Y-56594309D01*
X-11747620Y-56594309D02*
X-11735715Y-56582404D01*
X-11735715Y-56582404D02*
X-11735715Y-56606214D01*
X-11961906Y-56832404D02*
X-11961906Y-56582404D01*
X-11961906Y-56820500D02*
X-11938097Y-56832404D01*
X-11938097Y-56832404D02*
X-11890478Y-56832404D01*
X-11890478Y-56832404D02*
X-11866668Y-56820500D01*
X-11866668Y-56820500D02*
X-11854763Y-56808595D01*
X-11854763Y-56808595D02*
X-11842859Y-56784785D01*
X-11842859Y-56784785D02*
X-11842859Y-56713357D01*
X-11842859Y-56713357D02*
X-11854763Y-56689547D01*
X-11854763Y-56689547D02*
X-11866668Y-56677642D01*
X-11866668Y-56677642D02*
X-11890478Y-56665738D01*
X-11890478Y-56665738D02*
X-11938097Y-56665738D01*
X-11938097Y-56665738D02*
X-11961906Y-56677642D01*
X-12188096Y-56665738D02*
X-12188096Y-56832404D01*
X-12080953Y-56665738D02*
X-12080953Y-56796690D01*
X-12080953Y-56796690D02*
X-12092858Y-56820500D01*
X-12092858Y-56820500D02*
X-12116668Y-56832404D01*
X-12116668Y-56832404D02*
X-12152382Y-56832404D01*
X-12152382Y-56832404D02*
X-12176191Y-56820500D01*
X-12176191Y-56820500D02*
X-12188096Y-56808595D01*
X-12414286Y-56820500D02*
X-12390477Y-56832404D01*
X-12390477Y-56832404D02*
X-12342858Y-56832404D01*
X-12342858Y-56832404D02*
X-12319048Y-56820500D01*
X-12319048Y-56820500D02*
X-12307143Y-56808595D01*
X-12307143Y-56808595D02*
X-12295239Y-56784785D01*
X-12295239Y-56784785D02*
X-12295239Y-56713357D01*
X-12295239Y-56713357D02*
X-12307143Y-56689547D01*
X-12307143Y-56689547D02*
X-12319048Y-56677642D01*
X-12319048Y-56677642D02*
X-12342858Y-56665738D01*
X-12342858Y-56665738D02*
X-12390477Y-56665738D01*
X-12390477Y-56665738D02*
X-12414286Y-56677642D01*
X-12521429Y-56832404D02*
X-12521429Y-56665738D01*
X-12521429Y-56582404D02*
X-12509525Y-56594309D01*
X-12509525Y-56594309D02*
X-12521429Y-56606214D01*
X-12521429Y-56606214D02*
X-12533334Y-56594309D01*
X-12533334Y-56594309D02*
X-12521429Y-56582404D01*
X-12521429Y-56582404D02*
X-12521429Y-56606214D01*
X-12747620Y-56832404D02*
X-12747620Y-56701452D01*
X-12747620Y-56701452D02*
X-12735715Y-56677642D01*
X-12735715Y-56677642D02*
X-12711906Y-56665738D01*
X-12711906Y-56665738D02*
X-12664287Y-56665738D01*
X-12664287Y-56665738D02*
X-12640477Y-56677642D01*
X-12747620Y-56820500D02*
X-12723811Y-56832404D01*
X-12723811Y-56832404D02*
X-12664287Y-56832404D01*
X-12664287Y-56832404D02*
X-12640477Y-56820500D01*
X-12640477Y-56820500D02*
X-12628573Y-56796690D01*
X-12628573Y-56796690D02*
X-12628573Y-56772880D01*
X-12628573Y-56772880D02*
X-12640477Y-56749071D01*
X-12640477Y-56749071D02*
X-12664287Y-56737166D01*
X-12664287Y-56737166D02*
X-12723811Y-56737166D01*
X-12723811Y-56737166D02*
X-12747620Y-56725261D01*
X-12902382Y-56832404D02*
X-12878572Y-56820500D01*
X-12878572Y-56820500D02*
X-12866667Y-56796690D01*
X-12866667Y-56796690D02*
X-12866667Y-56582404D01*
D14*
X-11985715Y-55885681D02*
X-11919049Y-55885681D01*
X-11919049Y-55990443D02*
X-11919049Y-55790443D01*
X-11919049Y-55790443D02*
X-12014287Y-55790443D01*
X-12090478Y-55990443D02*
X-12090478Y-55790443D01*
X-12185716Y-55990443D02*
X-12185716Y-55790443D01*
X-12185716Y-55790443D02*
X-12233335Y-55790443D01*
X-12233335Y-55790443D02*
X-12261906Y-55799967D01*
X-12261906Y-55799967D02*
X-12280954Y-55819015D01*
X-12280954Y-55819015D02*
X-12290477Y-55838062D01*
X-12290477Y-55838062D02*
X-12300001Y-55876158D01*
X-12300001Y-55876158D02*
X-12300001Y-55904729D01*
X-12300001Y-55904729D02*
X-12290477Y-55942824D01*
X-12290477Y-55942824D02*
X-12280954Y-55961872D01*
X-12280954Y-55961872D02*
X-12261906Y-55980920D01*
X-12261906Y-55980920D02*
X-12233335Y-55990443D01*
X-12233335Y-55990443D02*
X-12185716Y-55990443D01*
X-12471430Y-55857110D02*
X-12471430Y-55990443D01*
X-12423811Y-55780920D02*
X-12376192Y-55923777D01*
X-12376192Y-55923777D02*
X-12500001Y-55923777D01*
D11*
X-12987596Y-33537857D02*
X-12987596Y-33704523D01*
X-12987596Y-33704523D02*
X-12737596Y-33597381D01*
X-12761405Y-33799761D02*
X-12749500Y-33811666D01*
X-12749500Y-33811666D02*
X-12737596Y-33799761D01*
X-12737596Y-33799761D02*
X-12749500Y-33787857D01*
X-12749500Y-33787857D02*
X-12761405Y-33799761D01*
X-12761405Y-33799761D02*
X-12737596Y-33799761D01*
X-12987596Y-34037857D02*
X-12987596Y-33918809D01*
X-12987596Y-33918809D02*
X-12868548Y-33906905D01*
X-12868548Y-33906905D02*
X-12880453Y-33918809D01*
X-12880453Y-33918809D02*
X-12892358Y-33942619D01*
X-12892358Y-33942619D02*
X-12892358Y-34002143D01*
X-12892358Y-34002143D02*
X-12880453Y-34025952D01*
X-12880453Y-34025952D02*
X-12868548Y-34037857D01*
X-12868548Y-34037857D02*
X-12844739Y-34049762D01*
X-12844739Y-34049762D02*
X-12785215Y-34049762D01*
X-12785215Y-34049762D02*
X-12761405Y-34037857D01*
X-12761405Y-34037857D02*
X-12749500Y-34025952D01*
X-12749500Y-34025952D02*
X-12737596Y-34002143D01*
X-12737596Y-34002143D02*
X-12737596Y-33942619D01*
X-12737596Y-33942619D02*
X-12749500Y-33918809D01*
X-12749500Y-33918809D02*
X-12761405Y-33906905D01*
X-12904262Y-34156904D02*
X-12654262Y-34156904D01*
X-12892358Y-34156904D02*
X-12904262Y-34180714D01*
X-12904262Y-34180714D02*
X-12904262Y-34228333D01*
X-12904262Y-34228333D02*
X-12892358Y-34252142D01*
X-12892358Y-34252142D02*
X-12880453Y-34264047D01*
X-12880453Y-34264047D02*
X-12856643Y-34275952D01*
X-12856643Y-34275952D02*
X-12785215Y-34275952D01*
X-12785215Y-34275952D02*
X-12761405Y-34264047D01*
X-12761405Y-34264047D02*
X-12749500Y-34252142D01*
X-12749500Y-34252142D02*
X-12737596Y-34228333D01*
X-12737596Y-34228333D02*
X-12737596Y-34180714D01*
X-12737596Y-34180714D02*
X-12749500Y-34156904D01*
X-12868548Y-34466428D02*
X-12868548Y-34383094D01*
X-12737596Y-34383094D02*
X-12987596Y-34383094D01*
X-12987596Y-34383094D02*
X-12987596Y-34502142D01*
D14*
X-12120235Y-33829285D02*
X-12108330Y-33817381D01*
X-12108330Y-33817381D02*
X-12096426Y-33781666D01*
X-12096426Y-33781666D02*
X-12096426Y-33757857D01*
X-12096426Y-33757857D02*
X-12108330Y-33722143D01*
X-12108330Y-33722143D02*
X-12132140Y-33698333D01*
X-12132140Y-33698333D02*
X-12155950Y-33686428D01*
X-12155950Y-33686428D02*
X-12203569Y-33674524D01*
X-12203569Y-33674524D02*
X-12239283Y-33674524D01*
X-12239283Y-33674524D02*
X-12286902Y-33686428D01*
X-12286902Y-33686428D02*
X-12310711Y-33698333D01*
X-12310711Y-33698333D02*
X-12334521Y-33722143D01*
X-12334521Y-33722143D02*
X-12346426Y-33757857D01*
X-12346426Y-33757857D02*
X-12346426Y-33781666D01*
X-12346426Y-33781666D02*
X-12334521Y-33817381D01*
X-12334521Y-33817381D02*
X-12322616Y-33829285D01*
X-12346426Y-33912619D02*
X-12346426Y-34067381D01*
X-12346426Y-34067381D02*
X-12251188Y-33984047D01*
X-12251188Y-33984047D02*
X-12251188Y-34019762D01*
X-12251188Y-34019762D02*
X-12239283Y-34043571D01*
X-12239283Y-34043571D02*
X-12227378Y-34055476D01*
X-12227378Y-34055476D02*
X-12203569Y-34067381D01*
X-12203569Y-34067381D02*
X-12144045Y-34067381D01*
X-12144045Y-34067381D02*
X-12120235Y-34055476D01*
X-12120235Y-34055476D02*
X-12108330Y-34043571D01*
X-12108330Y-34043571D02*
X-12096426Y-34019762D01*
X-12096426Y-34019762D02*
X-12096426Y-33948333D01*
X-12096426Y-33948333D02*
X-12108330Y-33924524D01*
X-12108330Y-33924524D02*
X-12120235Y-33912619D01*
X-12096426Y-34305476D02*
X-12096426Y-34162619D01*
X-12096426Y-34234047D02*
X-12346426Y-34234047D01*
X-12346426Y-34234047D02*
X-12310711Y-34210238D01*
X-12310711Y-34210238D02*
X-12286902Y-34186428D01*
X-12286902Y-34186428D02*
X-12274997Y-34162619D01*
D11*
X-8599287Y-24696214D02*
X-8611191Y-24684309D01*
X-8611191Y-24684309D02*
X-8635001Y-24672404D01*
X-8635001Y-24672404D02*
X-8694525Y-24672404D01*
X-8694525Y-24672404D02*
X-8718334Y-24684309D01*
X-8718334Y-24684309D02*
X-8730239Y-24696214D01*
X-8730239Y-24696214D02*
X-8742144Y-24720023D01*
X-8742144Y-24720023D02*
X-8742144Y-24743833D01*
X-8742144Y-24743833D02*
X-8730239Y-24779547D01*
X-8730239Y-24779547D02*
X-8587382Y-24922404D01*
X-8587382Y-24922404D02*
X-8742144Y-24922404D01*
X-8837382Y-24696214D02*
X-8849286Y-24684309D01*
X-8849286Y-24684309D02*
X-8873096Y-24672404D01*
X-8873096Y-24672404D02*
X-8932620Y-24672404D01*
X-8932620Y-24672404D02*
X-8956429Y-24684309D01*
X-8956429Y-24684309D02*
X-8968334Y-24696214D01*
X-8968334Y-24696214D02*
X-8980239Y-24720023D01*
X-8980239Y-24720023D02*
X-8980239Y-24743833D01*
X-8980239Y-24743833D02*
X-8968334Y-24779547D01*
X-8968334Y-24779547D02*
X-8825477Y-24922404D01*
X-8825477Y-24922404D02*
X-8980239Y-24922404D01*
X-9194524Y-24755738D02*
X-9194524Y-24922404D01*
X-9087381Y-24755738D02*
X-9087381Y-24886690D01*
X-9087381Y-24886690D02*
X-9099286Y-24910500D01*
X-9099286Y-24910500D02*
X-9123096Y-24922404D01*
X-9123096Y-24922404D02*
X-9158810Y-24922404D01*
X-9158810Y-24922404D02*
X-9182619Y-24910500D01*
X-9182619Y-24910500D02*
X-9194524Y-24898595D01*
X-9396905Y-24791452D02*
X-9313571Y-24791452D01*
X-9313571Y-24922404D02*
X-9313571Y-24672404D01*
X-9313571Y-24672404D02*
X-9432619Y-24672404D01*
D12*
X-8742858Y-24293832D02*
X-8723810Y-24312880D01*
X-8723810Y-24312880D02*
X-8666668Y-24331927D01*
X-8666668Y-24331927D02*
X-8628572Y-24331927D01*
X-8628572Y-24331927D02*
X-8571429Y-24312880D01*
X-8571429Y-24312880D02*
X-8533334Y-24274784D01*
X-8533334Y-24274784D02*
X-8514287Y-24236689D01*
X-8514287Y-24236689D02*
X-8495239Y-24160499D01*
X-8495239Y-24160499D02*
X-8495239Y-24103356D01*
X-8495239Y-24103356D02*
X-8514287Y-24027165D01*
X-8514287Y-24027165D02*
X-8533334Y-23989070D01*
X-8533334Y-23989070D02*
X-8571429Y-23950975D01*
X-8571429Y-23950975D02*
X-8628572Y-23931927D01*
X-8628572Y-23931927D02*
X-8666668Y-23931927D01*
X-8666668Y-23931927D02*
X-8723810Y-23950975D01*
X-8723810Y-23950975D02*
X-8742858Y-23970022D01*
X-8895239Y-23970022D02*
X-8914287Y-23950975D01*
X-8914287Y-23950975D02*
X-8952382Y-23931927D01*
X-8952382Y-23931927D02*
X-9047620Y-23931927D01*
X-9047620Y-23931927D02*
X-9085715Y-23950975D01*
X-9085715Y-23950975D02*
X-9104763Y-23970022D01*
X-9104763Y-23970022D02*
X-9123810Y-24008118D01*
X-9123810Y-24008118D02*
X-9123810Y-24046213D01*
X-9123810Y-24046213D02*
X-9104763Y-24103356D01*
X-9104763Y-24103356D02*
X-8876191Y-24331927D01*
X-8876191Y-24331927D02*
X-9123810Y-24331927D01*
X-9371429Y-23931927D02*
X-9409524Y-23931927D01*
X-9409524Y-23931927D02*
X-9447620Y-23950975D01*
X-9447620Y-23950975D02*
X-9466667Y-23970022D01*
X-9466667Y-23970022D02*
X-9485715Y-24008118D01*
X-9485715Y-24008118D02*
X-9504762Y-24084308D01*
X-9504762Y-24084308D02*
X-9504762Y-24179546D01*
X-9504762Y-24179546D02*
X-9485715Y-24255737D01*
X-9485715Y-24255737D02*
X-9466667Y-24293832D01*
X-9466667Y-24293832D02*
X-9447620Y-24312880D01*
X-9447620Y-24312880D02*
X-9409524Y-24331927D01*
X-9409524Y-24331927D02*
X-9371429Y-24331927D01*
X-9371429Y-24331927D02*
X-9333334Y-24312880D01*
X-9333334Y-24312880D02*
X-9314286Y-24293832D01*
X-9314286Y-24293832D02*
X-9295239Y-24255737D01*
X-9295239Y-24255737D02*
X-9276191Y-24179546D01*
X-9276191Y-24179546D02*
X-9276191Y-24084308D01*
X-9276191Y-24084308D02*
X-9295239Y-24008118D01*
X-9295239Y-24008118D02*
X-9314286Y-23970022D01*
X-9314286Y-23970022D02*
X-9333334Y-23950975D01*
X-9333334Y-23950975D02*
X-9371429Y-23931927D01*
D11*
X-9937596Y-31573096D02*
X-9937596Y-31430239D01*
X-9937596Y-31501667D02*
X-10187596Y-31501667D01*
X-10187596Y-31501667D02*
X-10151881Y-31477858D01*
X-10151881Y-31477858D02*
X-10128072Y-31454048D01*
X-10128072Y-31454048D02*
X-10116167Y-31430239D01*
X-10187596Y-31727857D02*
X-10187596Y-31751667D01*
X-10187596Y-31751667D02*
X-10175691Y-31775476D01*
X-10175691Y-31775476D02*
X-10163786Y-31787381D01*
X-10163786Y-31787381D02*
X-10139977Y-31799286D01*
X-10139977Y-31799286D02*
X-10092358Y-31811191D01*
X-10092358Y-31811191D02*
X-10032834Y-31811191D01*
X-10032834Y-31811191D02*
X-9985215Y-31799286D01*
X-9985215Y-31799286D02*
X-9961405Y-31787381D01*
X-9961405Y-31787381D02*
X-9949500Y-31775476D01*
X-9949500Y-31775476D02*
X-9937596Y-31751667D01*
X-9937596Y-31751667D02*
X-9937596Y-31727857D01*
X-9937596Y-31727857D02*
X-9949500Y-31704048D01*
X-9949500Y-31704048D02*
X-9961405Y-31692143D01*
X-9961405Y-31692143D02*
X-9985215Y-31680238D01*
X-9985215Y-31680238D02*
X-10032834Y-31668334D01*
X-10032834Y-31668334D02*
X-10092358Y-31668334D01*
X-10092358Y-31668334D02*
X-10139977Y-31680238D01*
X-10139977Y-31680238D02*
X-10163786Y-31692143D01*
X-10163786Y-31692143D02*
X-10175691Y-31704048D01*
X-10175691Y-31704048D02*
X-10187596Y-31727857D01*
X-10187596Y-31965952D02*
X-10187596Y-31989762D01*
X-10187596Y-31989762D02*
X-10175691Y-32013571D01*
X-10175691Y-32013571D02*
X-10163786Y-32025476D01*
X-10163786Y-32025476D02*
X-10139977Y-32037381D01*
X-10139977Y-32037381D02*
X-10092358Y-32049286D01*
X-10092358Y-32049286D02*
X-10032834Y-32049286D01*
X-10032834Y-32049286D02*
X-9985215Y-32037381D01*
X-9985215Y-32037381D02*
X-9961405Y-32025476D01*
X-9961405Y-32025476D02*
X-9949500Y-32013571D01*
X-9949500Y-32013571D02*
X-9937596Y-31989762D01*
X-9937596Y-31989762D02*
X-9937596Y-31965952D01*
X-9937596Y-31965952D02*
X-9949500Y-31942143D01*
X-9949500Y-31942143D02*
X-9961405Y-31930238D01*
X-9961405Y-31930238D02*
X-9985215Y-31918333D01*
X-9985215Y-31918333D02*
X-10032834Y-31906429D01*
X-10032834Y-31906429D02*
X-10092358Y-31906429D01*
X-10092358Y-31906429D02*
X-10139977Y-31918333D01*
X-10139977Y-31918333D02*
X-10163786Y-31930238D01*
X-10163786Y-31930238D02*
X-10175691Y-31942143D01*
X-10175691Y-31942143D02*
X-10187596Y-31965952D01*
X-10104262Y-32156428D02*
X-9937596Y-32156428D01*
X-10080453Y-32156428D02*
X-10092358Y-32168333D01*
X-10092358Y-32168333D02*
X-10104262Y-32192143D01*
X-10104262Y-32192143D02*
X-10104262Y-32227857D01*
X-10104262Y-32227857D02*
X-10092358Y-32251666D01*
X-10092358Y-32251666D02*
X-10068548Y-32263571D01*
X-10068548Y-32263571D02*
X-9937596Y-32263571D01*
X-10068548Y-32465952D02*
X-10068548Y-32382618D01*
X-9937596Y-32382618D02*
X-10187596Y-32382618D01*
X-10187596Y-32382618D02*
X-10187596Y-32501666D01*
D14*
X-9410235Y-31749285D02*
X-9398330Y-31737381D01*
X-9398330Y-31737381D02*
X-9386426Y-31701666D01*
X-9386426Y-31701666D02*
X-9386426Y-31677857D01*
X-9386426Y-31677857D02*
X-9398330Y-31642143D01*
X-9398330Y-31642143D02*
X-9422140Y-31618333D01*
X-9422140Y-31618333D02*
X-9445950Y-31606428D01*
X-9445950Y-31606428D02*
X-9493569Y-31594524D01*
X-9493569Y-31594524D02*
X-9529283Y-31594524D01*
X-9529283Y-31594524D02*
X-9576902Y-31606428D01*
X-9576902Y-31606428D02*
X-9600711Y-31618333D01*
X-9600711Y-31618333D02*
X-9624521Y-31642143D01*
X-9624521Y-31642143D02*
X-9636426Y-31677857D01*
X-9636426Y-31677857D02*
X-9636426Y-31701666D01*
X-9636426Y-31701666D02*
X-9624521Y-31737381D01*
X-9624521Y-31737381D02*
X-9612616Y-31749285D01*
X-9386426Y-31987381D02*
X-9386426Y-31844524D01*
X-9386426Y-31915952D02*
X-9636426Y-31915952D01*
X-9636426Y-31915952D02*
X-9600711Y-31892143D01*
X-9600711Y-31892143D02*
X-9576902Y-31868333D01*
X-9576902Y-31868333D02*
X-9564997Y-31844524D01*
X-9636426Y-32201666D02*
X-9636426Y-32154047D01*
X-9636426Y-32154047D02*
X-9624521Y-32130238D01*
X-9624521Y-32130238D02*
X-9612616Y-32118333D01*
X-9612616Y-32118333D02*
X-9576902Y-32094523D01*
X-9576902Y-32094523D02*
X-9529283Y-32082619D01*
X-9529283Y-32082619D02*
X-9434045Y-32082619D01*
X-9434045Y-32082619D02*
X-9410235Y-32094523D01*
X-9410235Y-32094523D02*
X-9398330Y-32106428D01*
X-9398330Y-32106428D02*
X-9386426Y-32130238D01*
X-9386426Y-32130238D02*
X-9386426Y-32177857D01*
X-9386426Y-32177857D02*
X-9398330Y-32201666D01*
X-9398330Y-32201666D02*
X-9410235Y-32213571D01*
X-9410235Y-32213571D02*
X-9434045Y-32225476D01*
X-9434045Y-32225476D02*
X-9493569Y-32225476D01*
X-9493569Y-32225476D02*
X-9517378Y-32213571D01*
X-9517378Y-32213571D02*
X-9529283Y-32201666D01*
X-9529283Y-32201666D02*
X-9541188Y-32177857D01*
X-9541188Y-32177857D02*
X-9541188Y-32130238D01*
X-9541188Y-32130238D02*
X-9529283Y-32106428D01*
X-9529283Y-32106428D02*
X-9517378Y-32094523D01*
X-9517378Y-32094523D02*
X-9493569Y-32082619D01*
D11*
X-2287596Y-38236429D02*
X-2287596Y-38391191D01*
X-2287596Y-38391191D02*
X-2192358Y-38307857D01*
X-2192358Y-38307857D02*
X-2192358Y-38343572D01*
X-2192358Y-38343572D02*
X-2180453Y-38367381D01*
X-2180453Y-38367381D02*
X-2168548Y-38379286D01*
X-2168548Y-38379286D02*
X-2144739Y-38391191D01*
X-2144739Y-38391191D02*
X-2085215Y-38391191D01*
X-2085215Y-38391191D02*
X-2061405Y-38379286D01*
X-2061405Y-38379286D02*
X-2049500Y-38367381D01*
X-2049500Y-38367381D02*
X-2037596Y-38343572D01*
X-2037596Y-38343572D02*
X-2037596Y-38272143D01*
X-2037596Y-38272143D02*
X-2049500Y-38248334D01*
X-2049500Y-38248334D02*
X-2061405Y-38236429D01*
X-2263786Y-38486429D02*
X-2275691Y-38498333D01*
X-2275691Y-38498333D02*
X-2287596Y-38522143D01*
X-2287596Y-38522143D02*
X-2287596Y-38581667D01*
X-2287596Y-38581667D02*
X-2275691Y-38605476D01*
X-2275691Y-38605476D02*
X-2263786Y-38617381D01*
X-2263786Y-38617381D02*
X-2239977Y-38629286D01*
X-2239977Y-38629286D02*
X-2216167Y-38629286D01*
X-2216167Y-38629286D02*
X-2180453Y-38617381D01*
X-2180453Y-38617381D02*
X-2037596Y-38474524D01*
X-2037596Y-38474524D02*
X-2037596Y-38629286D01*
X-2037596Y-38736428D02*
X-2287596Y-38736428D01*
X-2132834Y-38760238D02*
X-2037596Y-38831666D01*
X-2204262Y-38831666D02*
X-2109024Y-38736428D01*
X-2176643Y-37030952D02*
X-2057596Y-37030952D01*
X-2307596Y-36947619D02*
X-2176643Y-37030952D01*
X-2176643Y-37030952D02*
X-2307596Y-37114286D01*
X-2057596Y-37328572D02*
X-2057596Y-37185715D01*
X-2057596Y-37257143D02*
X-2307596Y-37257143D01*
X-2307596Y-37257143D02*
X-2271881Y-37233334D01*
X-2271881Y-37233334D02*
X-2248072Y-37209524D01*
X-2248072Y-37209524D02*
X-2236167Y-37185715D01*
X-9428335Y-27202404D02*
X-9285478Y-27202404D01*
X-9356906Y-27202404D02*
X-9356906Y-26952404D01*
X-9356906Y-26952404D02*
X-9333097Y-26988119D01*
X-9333097Y-26988119D02*
X-9309287Y-27011928D01*
X-9309287Y-27011928D02*
X-9285478Y-27023833D01*
X-9583096Y-26952404D02*
X-9606906Y-26952404D01*
X-9606906Y-26952404D02*
X-9630715Y-26964309D01*
X-9630715Y-26964309D02*
X-9642620Y-26976214D01*
X-9642620Y-26976214D02*
X-9654525Y-27000023D01*
X-9654525Y-27000023D02*
X-9666430Y-27047642D01*
X-9666430Y-27047642D02*
X-9666430Y-27107166D01*
X-9666430Y-27107166D02*
X-9654525Y-27154785D01*
X-9654525Y-27154785D02*
X-9642620Y-27178595D01*
X-9642620Y-27178595D02*
X-9630715Y-27190500D01*
X-9630715Y-27190500D02*
X-9606906Y-27202404D01*
X-9606906Y-27202404D02*
X-9583096Y-27202404D01*
X-9583096Y-27202404D02*
X-9559287Y-27190500D01*
X-9559287Y-27190500D02*
X-9547382Y-27178595D01*
X-9547382Y-27178595D02*
X-9535477Y-27154785D01*
X-9535477Y-27154785D02*
X-9523573Y-27107166D01*
X-9523573Y-27107166D02*
X-9523573Y-27047642D01*
X-9523573Y-27047642D02*
X-9535477Y-27000023D01*
X-9535477Y-27000023D02*
X-9547382Y-26976214D01*
X-9547382Y-26976214D02*
X-9559287Y-26964309D01*
X-9559287Y-26964309D02*
X-9583096Y-26952404D01*
X-9821191Y-26952404D02*
X-9845001Y-26952404D01*
X-9845001Y-26952404D02*
X-9868810Y-26964309D01*
X-9868810Y-26964309D02*
X-9880715Y-26976214D01*
X-9880715Y-26976214D02*
X-9892620Y-27000023D01*
X-9892620Y-27000023D02*
X-9904525Y-27047642D01*
X-9904525Y-27047642D02*
X-9904525Y-27107166D01*
X-9904525Y-27107166D02*
X-9892620Y-27154785D01*
X-9892620Y-27154785D02*
X-9880715Y-27178595D01*
X-9880715Y-27178595D02*
X-9868810Y-27190500D01*
X-9868810Y-27190500D02*
X-9845001Y-27202404D01*
X-9845001Y-27202404D02*
X-9821191Y-27202404D01*
X-9821191Y-27202404D02*
X-9797382Y-27190500D01*
X-9797382Y-27190500D02*
X-9785477Y-27178595D01*
X-9785477Y-27178595D02*
X-9773572Y-27154785D01*
X-9773572Y-27154785D02*
X-9761668Y-27107166D01*
X-9761668Y-27107166D02*
X-9761668Y-27047642D01*
X-9761668Y-27047642D02*
X-9773572Y-27000023D01*
X-9773572Y-27000023D02*
X-9785477Y-26976214D01*
X-9785477Y-26976214D02*
X-9797382Y-26964309D01*
X-9797382Y-26964309D02*
X-9821191Y-26952404D01*
X-10011667Y-27202404D02*
X-10011667Y-26952404D01*
X-10154524Y-27202404D02*
X-10047382Y-27059547D01*
X-10154524Y-26952404D02*
X-10011667Y-27095261D01*
D14*
X-9688334Y-26673574D02*
X-9605001Y-26554527D01*
X-9545477Y-26673574D02*
X-9545477Y-26423574D01*
X-9545477Y-26423574D02*
X-9640715Y-26423574D01*
X-9640715Y-26423574D02*
X-9664525Y-26435479D01*
X-9664525Y-26435479D02*
X-9676430Y-26447384D01*
X-9676430Y-26447384D02*
X-9688334Y-26471193D01*
X-9688334Y-26471193D02*
X-9688334Y-26506908D01*
X-9688334Y-26506908D02*
X-9676430Y-26530717D01*
X-9676430Y-26530717D02*
X-9664525Y-26542622D01*
X-9664525Y-26542622D02*
X-9640715Y-26554527D01*
X-9640715Y-26554527D02*
X-9545477Y-26554527D01*
X-9831192Y-26530717D02*
X-9807382Y-26518812D01*
X-9807382Y-26518812D02*
X-9795477Y-26506908D01*
X-9795477Y-26506908D02*
X-9783573Y-26483098D01*
X-9783573Y-26483098D02*
X-9783573Y-26471193D01*
X-9783573Y-26471193D02*
X-9795477Y-26447384D01*
X-9795477Y-26447384D02*
X-9807382Y-26435479D01*
X-9807382Y-26435479D02*
X-9831192Y-26423574D01*
X-9831192Y-26423574D02*
X-9878811Y-26423574D01*
X-9878811Y-26423574D02*
X-9902620Y-26435479D01*
X-9902620Y-26435479D02*
X-9914525Y-26447384D01*
X-9914525Y-26447384D02*
X-9926430Y-26471193D01*
X-9926430Y-26471193D02*
X-9926430Y-26483098D01*
X-9926430Y-26483098D02*
X-9914525Y-26506908D01*
X-9914525Y-26506908D02*
X-9902620Y-26518812D01*
X-9902620Y-26518812D02*
X-9878811Y-26530717D01*
X-9878811Y-26530717D02*
X-9831192Y-26530717D01*
X-9831192Y-26530717D02*
X-9807382Y-26542622D01*
X-9807382Y-26542622D02*
X-9795477Y-26554527D01*
X-9795477Y-26554527D02*
X-9783573Y-26578336D01*
X-9783573Y-26578336D02*
X-9783573Y-26625955D01*
X-9783573Y-26625955D02*
X-9795477Y-26649765D01*
X-9795477Y-26649765D02*
X-9807382Y-26661670D01*
X-9807382Y-26661670D02*
X-9831192Y-26673574D01*
X-9831192Y-26673574D02*
X-9878811Y-26673574D01*
X-9878811Y-26673574D02*
X-9902620Y-26661670D01*
X-9902620Y-26661670D02*
X-9914525Y-26649765D01*
X-9914525Y-26649765D02*
X-9926430Y-26625955D01*
X-9926430Y-26625955D02*
X-9926430Y-26578336D01*
X-9926430Y-26578336D02*
X-9914525Y-26554527D01*
X-9914525Y-26554527D02*
X-9902620Y-26542622D01*
X-9902620Y-26542622D02*
X-9878811Y-26530717D01*
D11*
X127856Y-38462404D02*
X270713Y-38462404D01*
X199285Y-38462404D02*
X199285Y-38212404D01*
X199285Y-38212404D02*
X223094Y-38248119D01*
X223094Y-38248119D02*
X246904Y-38271928D01*
X246904Y-38271928D02*
X270713Y-38283833D01*
X-98334Y-38212404D02*
X20714Y-38212404D01*
X20714Y-38212404D02*
X32618Y-38331452D01*
X32618Y-38331452D02*
X20714Y-38319547D01*
X20714Y-38319547D02*
X-3096Y-38307642D01*
X-3096Y-38307642D02*
X-62620Y-38307642D01*
X-62620Y-38307642D02*
X-86429Y-38319547D01*
X-86429Y-38319547D02*
X-98334Y-38331452D01*
X-98334Y-38331452D02*
X-110239Y-38355261D01*
X-110239Y-38355261D02*
X-110239Y-38414785D01*
X-110239Y-38414785D02*
X-98334Y-38438595D01*
X-98334Y-38438595D02*
X-86429Y-38450500D01*
X-86429Y-38450500D02*
X-62620Y-38462404D01*
X-62620Y-38462404D02*
X-3096Y-38462404D01*
X-3096Y-38462404D02*
X20714Y-38450500D01*
X20714Y-38450500D02*
X32618Y-38438595D01*
X-217381Y-38295738D02*
X-217381Y-38545738D01*
X-217381Y-38307642D02*
X-241191Y-38295738D01*
X-241191Y-38295738D02*
X-288810Y-38295738D01*
X-288810Y-38295738D02*
X-312619Y-38307642D01*
X-312619Y-38307642D02*
X-324524Y-38319547D01*
X-324524Y-38319547D02*
X-336429Y-38343357D01*
X-336429Y-38343357D02*
X-336429Y-38414785D01*
X-336429Y-38414785D02*
X-324524Y-38438595D01*
X-324524Y-38438595D02*
X-312619Y-38450500D01*
X-312619Y-38450500D02*
X-288810Y-38462404D01*
X-288810Y-38462404D02*
X-241191Y-38462404D01*
X-241191Y-38462404D02*
X-217381Y-38450500D01*
X-526905Y-38331452D02*
X-443571Y-38331452D01*
X-443571Y-38462404D02*
X-443571Y-38212404D01*
X-443571Y-38212404D02*
X-562619Y-38212404D01*
D14*
X-49286Y-37879765D02*
X-37382Y-37891670D01*
X-37382Y-37891670D02*
X-1667Y-37903574D01*
X-1667Y-37903574D02*
X22142Y-37903574D01*
X22142Y-37903574D02*
X57856Y-37891670D01*
X57856Y-37891670D02*
X81666Y-37867860D01*
X81666Y-37867860D02*
X93571Y-37844050D01*
X93571Y-37844050D02*
X105475Y-37796431D01*
X105475Y-37796431D02*
X105475Y-37760717D01*
X105475Y-37760717D02*
X93571Y-37713098D01*
X93571Y-37713098D02*
X81666Y-37689289D01*
X81666Y-37689289D02*
X57856Y-37665479D01*
X57856Y-37665479D02*
X22142Y-37653574D01*
X22142Y-37653574D02*
X-1667Y-37653574D01*
X-1667Y-37653574D02*
X-37382Y-37665479D01*
X-37382Y-37665479D02*
X-49286Y-37677384D01*
X-144525Y-37677384D02*
X-156429Y-37665479D01*
X-156429Y-37665479D02*
X-180239Y-37653574D01*
X-180239Y-37653574D02*
X-239763Y-37653574D01*
X-239763Y-37653574D02*
X-263572Y-37665479D01*
X-263572Y-37665479D02*
X-275477Y-37677384D01*
X-275477Y-37677384D02*
X-287382Y-37701193D01*
X-287382Y-37701193D02*
X-287382Y-37725003D01*
X-287382Y-37725003D02*
X-275477Y-37760717D01*
X-275477Y-37760717D02*
X-132620Y-37903574D01*
X-132620Y-37903574D02*
X-287382Y-37903574D01*
X-525477Y-37903574D02*
X-382620Y-37903574D01*
X-454048Y-37903574D02*
X-454048Y-37653574D01*
X-454048Y-37653574D02*
X-430239Y-37689289D01*
X-430239Y-37689289D02*
X-406429Y-37713098D01*
X-406429Y-37713098D02*
X-382620Y-37725003D01*
D11*
X-2047596Y-13648334D02*
X-2047596Y-13505477D01*
X-2047596Y-13576905D02*
X-2297596Y-13576905D01*
X-2297596Y-13576905D02*
X-2261881Y-13553096D01*
X-2261881Y-13553096D02*
X-2238072Y-13529286D01*
X-2238072Y-13529286D02*
X-2226167Y-13505477D01*
X-2297596Y-13803095D02*
X-2297596Y-13826905D01*
X-2297596Y-13826905D02*
X-2285691Y-13850714D01*
X-2285691Y-13850714D02*
X-2273786Y-13862619D01*
X-2273786Y-13862619D02*
X-2249977Y-13874524D01*
X-2249977Y-13874524D02*
X-2202358Y-13886429D01*
X-2202358Y-13886429D02*
X-2142834Y-13886429D01*
X-2142834Y-13886429D02*
X-2095215Y-13874524D01*
X-2095215Y-13874524D02*
X-2071405Y-13862619D01*
X-2071405Y-13862619D02*
X-2059500Y-13850714D01*
X-2059500Y-13850714D02*
X-2047596Y-13826905D01*
X-2047596Y-13826905D02*
X-2047596Y-13803095D01*
X-2047596Y-13803095D02*
X-2059500Y-13779286D01*
X-2059500Y-13779286D02*
X-2071405Y-13767381D01*
X-2071405Y-13767381D02*
X-2095215Y-13755476D01*
X-2095215Y-13755476D02*
X-2142834Y-13743572D01*
X-2142834Y-13743572D02*
X-2202358Y-13743572D01*
X-2202358Y-13743572D02*
X-2249977Y-13755476D01*
X-2249977Y-13755476D02*
X-2273786Y-13767381D01*
X-2273786Y-13767381D02*
X-2285691Y-13779286D01*
X-2285691Y-13779286D02*
X-2297596Y-13803095D01*
X-2297596Y-14041190D02*
X-2297596Y-14065000D01*
X-2297596Y-14065000D02*
X-2285691Y-14088809D01*
X-2285691Y-14088809D02*
X-2273786Y-14100714D01*
X-2273786Y-14100714D02*
X-2249977Y-14112619D01*
X-2249977Y-14112619D02*
X-2202358Y-14124524D01*
X-2202358Y-14124524D02*
X-2142834Y-14124524D01*
X-2142834Y-14124524D02*
X-2095215Y-14112619D01*
X-2095215Y-14112619D02*
X-2071405Y-14100714D01*
X-2071405Y-14100714D02*
X-2059500Y-14088809D01*
X-2059500Y-14088809D02*
X-2047596Y-14065000D01*
X-2047596Y-14065000D02*
X-2047596Y-14041190D01*
X-2047596Y-14041190D02*
X-2059500Y-14017381D01*
X-2059500Y-14017381D02*
X-2071405Y-14005476D01*
X-2071405Y-14005476D02*
X-2095215Y-13993571D01*
X-2095215Y-13993571D02*
X-2142834Y-13981667D01*
X-2142834Y-13981667D02*
X-2202358Y-13981667D01*
X-2202358Y-13981667D02*
X-2249977Y-13993571D01*
X-2249977Y-13993571D02*
X-2273786Y-14005476D01*
X-2273786Y-14005476D02*
X-2285691Y-14017381D01*
X-2285691Y-14017381D02*
X-2297596Y-14041190D01*
X-2047596Y-14374523D02*
X-2166643Y-14291190D01*
X-2047596Y-14231666D02*
X-2297596Y-14231666D01*
X-2297596Y-14231666D02*
X-2297596Y-14326904D01*
X-2297596Y-14326904D02*
X-2285691Y-14350714D01*
X-2285691Y-14350714D02*
X-2273786Y-14362619D01*
X-2273786Y-14362619D02*
X-2249977Y-14374523D01*
X-2249977Y-14374523D02*
X-2214262Y-14374523D01*
X-2214262Y-14374523D02*
X-2190453Y-14362619D01*
X-2190453Y-14362619D02*
X-2178548Y-14350714D01*
X-2178548Y-14350714D02*
X-2166643Y-14326904D01*
X-2166643Y-14326904D02*
X-2166643Y-14231666D01*
D14*
X-1386426Y-13873333D02*
X-1505473Y-13790000D01*
X-1386426Y-13730476D02*
X-1636426Y-13730476D01*
X-1636426Y-13730476D02*
X-1636426Y-13825714D01*
X-1636426Y-13825714D02*
X-1624521Y-13849524D01*
X-1624521Y-13849524D02*
X-1612616Y-13861429D01*
X-1612616Y-13861429D02*
X-1588807Y-13873333D01*
X-1588807Y-13873333D02*
X-1553092Y-13873333D01*
X-1553092Y-13873333D02*
X-1529283Y-13861429D01*
X-1529283Y-13861429D02*
X-1517378Y-13849524D01*
X-1517378Y-13849524D02*
X-1505473Y-13825714D01*
X-1505473Y-13825714D02*
X-1505473Y-13730476D01*
X-1553092Y-14087619D02*
X-1386426Y-14087619D01*
X-1648330Y-14028095D02*
X-1469759Y-13968572D01*
X-1469759Y-13968572D02*
X-1469759Y-14123333D01*
D16*
X-11424988Y-4060000D02*
X-9824988Y-4060000D01*
X-11424988Y-4860000D02*
X-11424988Y-4060000D01*
X-9824988Y-4060000D02*
X-9824988Y-4860000D01*
X-9824988Y-4860000D02*
X-11424988Y-4860000D01*
X-12674600Y2514600D02*
X12725400Y2514600D01*
X-12674600Y-1565400D02*
X-12674600Y2514600D01*
X-11674600Y-2565400D02*
X-12674600Y-1565400D01*
X12725400Y2514600D02*
X12725400Y-2565400D01*
X12725400Y-2565400D02*
X-11674600Y-2565400D01*
X10700000Y-8870000D02*
G75*
G02*
X8500000Y-8870000I-1100000J0D01*
G01*
X8500000Y-8870000D02*
G75*
G02*
X10700000Y-8870000I1100000J0D01*
G01*
X-11445000Y-5670000D02*
X-9845000Y-5670000D01*
X-11445000Y-6470000D02*
X-11445000Y-5670000D01*
X-9845000Y-5670000D02*
X-9845000Y-6470000D01*
X-9845000Y-6470000D02*
X-11445000Y-6470000D01*
X15590000Y-17470000D02*
G75*
G02*
X13390000Y-17470000I-1100000J0D01*
G01*
X13390000Y-17470000D02*
G75*
G02*
X15590000Y-17470000I1100000J0D01*
G01*
X120000Y-30585000D02*
X620000Y-30585000D01*
X120000Y-31585000D02*
X120000Y-30585000D01*
X620000Y-30585000D02*
X620000Y-31585000D01*
X620000Y-31585000D02*
X120000Y-31585000D01*
X-8730000Y-32160000D02*
X-8230000Y-32160000D01*
X-8730000Y-33160000D02*
X-8730000Y-32160000D01*
X-8230000Y-32160000D02*
X-8230000Y-33160000D01*
X-8230000Y-33160000D02*
X-8730000Y-33160000D01*
X0Y-34000000D02*
X500000Y-34000000D01*
X0Y-35000000D02*
X0Y-34000000D01*
X500000Y-34000000D02*
X500000Y-35000000D01*
X500000Y-35000000D02*
X0Y-35000000D01*
X-680000Y-13400000D02*
X-180000Y-13400000D01*
X-680000Y-14400000D02*
X-680000Y-13400000D01*
X-180000Y-13400000D02*
X-180000Y-14400000D01*
X-180000Y-14400000D02*
X-680000Y-14400000D01*
X-710000Y-36140000D02*
X290000Y-36140000D01*
X-710000Y-36640000D02*
X-710000Y-36140000D01*
X290000Y-36140000D02*
X290000Y-36640000D01*
X290000Y-36640000D02*
X-710000Y-36640000D01*
X-16250000Y1750000D02*
G75*
G02*
X-17250000Y1750000I-500000J0D01*
G01*
X-17250000Y1750000D02*
G75*
G02*
X-16250000Y1750000I500000J0D01*
G01*
X410000Y-11150000D02*
G75*
G02*
X-1790000Y-11150000I-1100000J0D01*
G01*
X-1790000Y-11150000D02*
G75*
G02*
X410000Y-11150000I1100000J0D01*
G01*
X100000Y-28640000D02*
X600000Y-28640000D01*
X100000Y-29640000D02*
X100000Y-28640000D01*
X600000Y-28640000D02*
X600000Y-29640000D01*
X600000Y-29640000D02*
X100000Y-29640000D01*
X18530000Y-15680000D02*
G75*
G02*
X16330000Y-15680000I-1100000J0D01*
G01*
X16330000Y-15680000D02*
G75*
G02*
X18530000Y-15680000I1100000J0D01*
G01*
X16050000Y1770000D02*
G75*
G02*
X15050000Y1770000I-500000J0D01*
G01*
X15050000Y1770000D02*
G75*
G02*
X16050000Y1770000I500000J0D01*
G01*
X5600000Y-16750000D02*
G75*
G02*
X3400000Y-16750000I-1100000J0D01*
G01*
X3400000Y-16750000D02*
G75*
G02*
X5600000Y-16750000I1100000J0D01*
G01*
X-8240000Y-28100000D02*
X-7240000Y-28100000D01*
X-8240000Y-28600000D02*
X-8240000Y-28100000D01*
X-7240000Y-28100000D02*
X-7240000Y-28600000D01*
X-7240000Y-28600000D02*
X-8240000Y-28600000D01*
X-8220000Y-21720000D02*
X-6220000Y-21720000D01*
X-8220000Y-22920000D02*
X-8220000Y-21720000D01*
X-6220000Y-21720000D02*
X-6220000Y-22920000D01*
X-6220000Y-22920000D02*
X-8220000Y-22920000D01*
X13510000Y-57090000D02*
G75*
G02*
X12510000Y-57090000I-500000J0D01*
G01*
X12510000Y-57090000D02*
G75*
G02*
X13510000Y-57090000I500000J0D01*
G01*
X-8285000Y-26300000D02*
X-7285000Y-26300000D01*
X-8285000Y-26800000D02*
X-8285000Y-26300000D01*
X-7285000Y-26300000D02*
X-7285000Y-26800000D01*
X-7285000Y-26800000D02*
X-8285000Y-26800000D01*
X-5940000Y-27740000D02*
X-4340000Y-27740000D01*
X-5940000Y-28540000D02*
X-5940000Y-27740000D01*
X-4340000Y-27740000D02*
X-4340000Y-28540000D01*
X-4340000Y-28540000D02*
X-5940000Y-28540000D01*
X-8730000Y-34590000D02*
X-8230000Y-34590000D01*
X-8730000Y-35590000D02*
X-8730000Y-34590000D01*
X-8230000Y-34590000D02*
X-8230000Y-35590000D01*
X-8230000Y-35590000D02*
X-8730000Y-35590000D01*
X-11160000Y-33505000D02*
X-10660000Y-33505000D01*
X-11160000Y-34505000D02*
X-11160000Y-33505000D01*
X-10660000Y-33505000D02*
X-10660000Y-34505000D01*
X-10660000Y-34505000D02*
X-11160000Y-34505000D01*
X9350000Y-14750000D02*
G75*
G02*
X7150000Y-14750000I-1100000J0D01*
G01*
X7150000Y-14750000D02*
G75*
G02*
X9350000Y-14750000I1100000J0D01*
G01*
X9550000Y-11420000D02*
G75*
G02*
X7350000Y-11420000I-1100000J0D01*
G01*
X7350000Y-11420000D02*
G75*
G02*
X9550000Y-11420000I1100000J0D01*
G01*
X-11700000Y-55900000D02*
G75*
G02*
X-12700000Y-55900000I-500000J0D01*
G01*
X-12700000Y-55900000D02*
G75*
G02*
X-11700000Y-55900000I500000J0D01*
G01*
X-12460000Y-33490000D02*
X-11960000Y-33490000D01*
X-12460000Y-34490000D02*
X-12460000Y-33490000D01*
X-11960000Y-33490000D02*
X-11960000Y-34490000D01*
X-11960000Y-34490000D02*
X-12460000Y-34490000D01*
X-9800000Y-23750000D02*
X-8200000Y-23750000D01*
X-9800000Y-24550000D02*
X-9800000Y-23750000D01*
X-8200000Y-23750000D02*
X-8200000Y-24550000D01*
X-8200000Y-24550000D02*
X-9800000Y-24550000D01*
X-9750000Y-31410000D02*
X-9250000Y-31410000D01*
X-9750000Y-32410000D02*
X-9750000Y-31410000D01*
X-9250000Y-31410000D02*
X-9250000Y-32410000D01*
X-9250000Y-32410000D02*
X-9750000Y-32410000D01*
X-2780000Y-36120000D02*
X-2780000Y-38120000D01*
X-2780000Y-38120000D02*
X-1580000Y-38120000D01*
X-1580000Y-36120000D02*
X-2780000Y-36120000D01*
X-1580000Y-36620000D02*
X-2080000Y-36120000D01*
X-1580000Y-38120000D02*
X-1580000Y-36120000D01*
X-10230000Y-26310000D02*
X-9230000Y-26310000D01*
X-10230000Y-26810000D02*
X-10230000Y-26310000D01*
X-9230000Y-26310000D02*
X-9230000Y-26810000D01*
X-9230000Y-26810000D02*
X-10230000Y-26810000D01*
X-710000Y-37540000D02*
X290000Y-37540000D01*
X-710000Y-38040000D02*
X-710000Y-37540000D01*
X290000Y-37540000D02*
X290000Y-38040000D01*
X290000Y-38040000D02*
X-710000Y-38040000D01*
X-1750000Y-13415000D02*
X-1250000Y-13415000D01*
X-1750000Y-14415000D02*
X-1750000Y-13415000D01*
X-1250000Y-13415000D02*
X-1250000Y-14415000D01*
X-1250000Y-14415000D02*
X-1750000Y-14415000D01*
M02*
