G04 #@! TF.GenerationSoftware,KiCad,Pcbnew,8.0.4*
G04 #@! TF.CreationDate,2025-02-25T17:16:13+05:30*
G04 #@! TF.ProjectId,P-1000101_Cicada WiSun,502d3130-3030-4313-9031-5f4369636164,0.1*
G04 #@! TF.SameCoordinates,PX7cee6c0PY3dfd240*
G04 #@! TF.FileFunction,Legend,Top*
G04 #@! TF.FilePolarity,Positive*
%FSLAX46Y46*%
G04 Gerber Fmt 4.6, Leading zero omitted, Abs format (unit mm)*
G04 Created by KiCad (PCBNEW 8.0.4) date 2025-02-25 17:16:13*
%MOMM*%
%LPD*%
G01*
G04 APERTURE LIST*
%ADD10C,0.100000*%
%ADD11C,0.150000*%
%ADD12C,0.300000*%
%ADD13C,0.350000*%
%ADD14C,0.125000*%
%ADD15C,0.075000*%
%ADD16C,0.025000*%
%ADD17C,0.120000*%
%ADD18C,0.240000*%
%ADD19C,0.200000*%
%ADD20C,0.010000*%
%ADD21C,0.400000*%
G04 APERTURE END LIST*
D10*
X20000Y-40050000D02*
X2120000Y-40050000D01*
X2120000Y-41570000D01*
X20000Y-41570000D01*
X20000Y-40050000D01*
X-2080000Y-41170000D02*
X10000Y-41170000D01*
X-5840000Y-39710000D02*
X-5840000Y-39240000D01*
X-9398000Y-44450000D02*
X-7112000Y-44450000D01*
X-7112000Y-46228000D01*
X-9398000Y-46228000D01*
X-9398000Y-44450000D01*
D11*
X-10150000Y-2550000D02*
X-10150000Y2600000D01*
D10*
X-8910000Y-39800000D02*
X-9040000Y-42220000D01*
X-8260000Y-43750000D02*
X-6150000Y-43770000D01*
X-2032000Y-39878000D02*
X-2032000Y-39370000D01*
X-5840000Y-39240000D02*
X-1620000Y-39250000D01*
D11*
X10150000Y2600000D02*
X10200000Y-2600000D01*
X10200000Y-2600000D02*
X-10150000Y-2600000D01*
D10*
X-6150000Y-43770000D02*
X-5840000Y-43430000D01*
D11*
X-10150000Y2600000D02*
X10150000Y2600000D01*
D10*
X-8260000Y-44450000D02*
X-8260000Y-43750000D01*
X-1620000Y-38150000D02*
X310000Y-38150000D01*
X310000Y-39250000D01*
X-1620000Y-39250000D01*
X-1620000Y-38150000D01*
D12*
X18279542Y-10584060D02*
X17079542Y-10434060D01*
X17079542Y-10434060D02*
X17079542Y-9976917D01*
X17079542Y-9976917D02*
X17136685Y-9869774D01*
X17136685Y-9869774D02*
X17193828Y-9819774D01*
X17193828Y-9819774D02*
X17308114Y-9776917D01*
X17308114Y-9776917D02*
X17479542Y-9798346D01*
X17479542Y-9798346D02*
X17593828Y-9869774D01*
X17593828Y-9869774D02*
X17650971Y-9934060D01*
X17650971Y-9934060D02*
X17708114Y-10055489D01*
X17708114Y-10055489D02*
X17708114Y-10512632D01*
X17822400Y-9326917D02*
X17822400Y-8412632D01*
X18279542Y-7269775D02*
X18279542Y-7955489D01*
X18279542Y-7612632D02*
X17079542Y-7462632D01*
X17079542Y-7462632D02*
X17250971Y-7598346D01*
X17250971Y-7598346D02*
X17365257Y-7726918D01*
X17365257Y-7726918D02*
X17422400Y-7848346D01*
X17079542Y-6376918D02*
X17079542Y-6262632D01*
X17079542Y-6262632D02*
X17136685Y-6155489D01*
X17136685Y-6155489D02*
X17193828Y-6105489D01*
X17193828Y-6105489D02*
X17308114Y-6062632D01*
X17308114Y-6062632D02*
X17536685Y-6034061D01*
X17536685Y-6034061D02*
X17822400Y-6069775D01*
X17822400Y-6069775D02*
X18050971Y-6155489D01*
X18050971Y-6155489D02*
X18165257Y-6226918D01*
X18165257Y-6226918D02*
X18222400Y-6291203D01*
X18222400Y-6291203D02*
X18279542Y-6412632D01*
X18279542Y-6412632D02*
X18279542Y-6526918D01*
X18279542Y-6526918D02*
X18222400Y-6634061D01*
X18222400Y-6634061D02*
X18165257Y-6684061D01*
X18165257Y-6684061D02*
X18050971Y-6726918D01*
X18050971Y-6726918D02*
X17822400Y-6755489D01*
X17822400Y-6755489D02*
X17536685Y-6719775D01*
X17536685Y-6719775D02*
X17308114Y-6634061D01*
X17308114Y-6634061D02*
X17193828Y-6562632D01*
X17193828Y-6562632D02*
X17136685Y-6498346D01*
X17136685Y-6498346D02*
X17079542Y-6376918D01*
X17079542Y-5234061D02*
X17079542Y-5119775D01*
X17079542Y-5119775D02*
X17136685Y-5012632D01*
X17136685Y-5012632D02*
X17193828Y-4962632D01*
X17193828Y-4962632D02*
X17308114Y-4919775D01*
X17308114Y-4919775D02*
X17536685Y-4891204D01*
X17536685Y-4891204D02*
X17822400Y-4926918D01*
X17822400Y-4926918D02*
X18050971Y-5012632D01*
X18050971Y-5012632D02*
X18165257Y-5084061D01*
X18165257Y-5084061D02*
X18222400Y-5148346D01*
X18222400Y-5148346D02*
X18279542Y-5269775D01*
X18279542Y-5269775D02*
X18279542Y-5384061D01*
X18279542Y-5384061D02*
X18222400Y-5491204D01*
X18222400Y-5491204D02*
X18165257Y-5541204D01*
X18165257Y-5541204D02*
X18050971Y-5584061D01*
X18050971Y-5584061D02*
X17822400Y-5612632D01*
X17822400Y-5612632D02*
X17536685Y-5576918D01*
X17536685Y-5576918D02*
X17308114Y-5491204D01*
X17308114Y-5491204D02*
X17193828Y-5419775D01*
X17193828Y-5419775D02*
X17136685Y-5355489D01*
X17136685Y-5355489D02*
X17079542Y-5234061D01*
X17079542Y-4091204D02*
X17079542Y-3976918D01*
X17079542Y-3976918D02*
X17136685Y-3869775D01*
X17136685Y-3869775D02*
X17193828Y-3819775D01*
X17193828Y-3819775D02*
X17308114Y-3776918D01*
X17308114Y-3776918D02*
X17536685Y-3748347D01*
X17536685Y-3748347D02*
X17822400Y-3784061D01*
X17822400Y-3784061D02*
X18050971Y-3869775D01*
X18050971Y-3869775D02*
X18165257Y-3941204D01*
X18165257Y-3941204D02*
X18222400Y-4005489D01*
X18222400Y-4005489D02*
X18279542Y-4126918D01*
X18279542Y-4126918D02*
X18279542Y-4241204D01*
X18279542Y-4241204D02*
X18222400Y-4348347D01*
X18222400Y-4348347D02*
X18165257Y-4398347D01*
X18165257Y-4398347D02*
X18050971Y-4441204D01*
X18050971Y-4441204D02*
X17822400Y-4469775D01*
X17822400Y-4469775D02*
X17536685Y-4434061D01*
X17536685Y-4434061D02*
X17308114Y-4348347D01*
X17308114Y-4348347D02*
X17193828Y-4276918D01*
X17193828Y-4276918D02*
X17136685Y-4212632D01*
X17136685Y-4212632D02*
X17079542Y-4091204D01*
X18279542Y-2698347D02*
X18279542Y-3384061D01*
X18279542Y-3041204D02*
X17079542Y-2891204D01*
X17079542Y-2891204D02*
X17250971Y-3026918D01*
X17250971Y-3026918D02*
X17365257Y-3155490D01*
X17365257Y-3155490D02*
X17422400Y-3276918D01*
X17079542Y-1805490D02*
X17079542Y-1691204D01*
X17079542Y-1691204D02*
X17136685Y-1584061D01*
X17136685Y-1584061D02*
X17193828Y-1534061D01*
X17193828Y-1534061D02*
X17308114Y-1491204D01*
X17308114Y-1491204D02*
X17536685Y-1462633D01*
X17536685Y-1462633D02*
X17822400Y-1498347D01*
X17822400Y-1498347D02*
X18050971Y-1584061D01*
X18050971Y-1584061D02*
X18165257Y-1655490D01*
X18165257Y-1655490D02*
X18222400Y-1719775D01*
X18222400Y-1719775D02*
X18279542Y-1841204D01*
X18279542Y-1841204D02*
X18279542Y-1955490D01*
X18279542Y-1955490D02*
X18222400Y-2062633D01*
X18222400Y-2062633D02*
X18165257Y-2112633D01*
X18165257Y-2112633D02*
X18050971Y-2155490D01*
X18050971Y-2155490D02*
X17822400Y-2184061D01*
X17822400Y-2184061D02*
X17536685Y-2148347D01*
X17536685Y-2148347D02*
X17308114Y-2062633D01*
X17308114Y-2062633D02*
X17193828Y-1991204D01*
X17193828Y-1991204D02*
X17136685Y-1926918D01*
X17136685Y-1926918D02*
X17079542Y-1805490D01*
X18279542Y-412633D02*
X18279542Y-1098347D01*
X18279542Y-755490D02*
X17079542Y-605490D01*
X17079542Y-605490D02*
X17250971Y-741204D01*
X17250971Y-741204D02*
X17365257Y-869776D01*
X17365257Y-869776D02*
X17422400Y-991204D01*
X17822400Y158796D02*
X17822400Y1073081D01*
X17079542Y1565938D02*
X18279542Y1815938D01*
X18279542Y1815938D02*
X17079542Y2365938D01*
X17193828Y2694509D02*
X17136685Y2758795D01*
X17136685Y2758795D02*
X17079542Y2880224D01*
X17079542Y2880224D02*
X17079542Y3165938D01*
X17079542Y3165938D02*
X17136685Y3273081D01*
X17136685Y3273081D02*
X17193828Y3323081D01*
X17193828Y3323081D02*
X17308114Y3365938D01*
X17308114Y3365938D02*
X17422400Y3351652D01*
X17422400Y3351652D02*
X17593828Y3273081D01*
X17593828Y3273081D02*
X18279542Y2501652D01*
X18279542Y2501652D02*
X18279542Y3244509D01*
X18165257Y3773081D02*
X18222400Y3823081D01*
X18222400Y3823081D02*
X18279542Y3758795D01*
X18279542Y3758795D02*
X18222400Y3708795D01*
X18222400Y3708795D02*
X18165257Y3773081D01*
X18165257Y3773081D02*
X18279542Y3758795D01*
X17193828Y4408795D02*
X17136685Y4473081D01*
X17136685Y4473081D02*
X17079542Y4594510D01*
X17079542Y4594510D02*
X17079542Y4880224D01*
X17079542Y4880224D02*
X17136685Y4987367D01*
X17136685Y4987367D02*
X17193828Y5037367D01*
X17193828Y5037367D02*
X17308114Y5080224D01*
X17308114Y5080224D02*
X17422400Y5065938D01*
X17422400Y5065938D02*
X17593828Y4987367D01*
X17593828Y4987367D02*
X18279542Y4215938D01*
X18279542Y4215938D02*
X18279542Y4958795D01*
X-8531712Y-3005507D02*
X-8531712Y-3862650D01*
X-8531712Y-3434079D02*
X-10031712Y-3434079D01*
X-10031712Y-3434079D02*
X-9817426Y-3576936D01*
X-9817426Y-3576936D02*
X-9674569Y-3719793D01*
X-9674569Y-3719793D02*
X-9603140Y-3862650D01*
D13*
X16182871Y-10436522D02*
X16254300Y-10516879D01*
X16254300Y-10516879D02*
X16325728Y-10740094D01*
X16325728Y-10740094D02*
X16325728Y-10882951D01*
X16325728Y-10882951D02*
X16254300Y-11088308D01*
X16254300Y-11088308D02*
X16111442Y-11213308D01*
X16111442Y-11213308D02*
X15968585Y-11266879D01*
X15968585Y-11266879D02*
X15682871Y-11302594D01*
X15682871Y-11302594D02*
X15468585Y-11275808D01*
X15468585Y-11275808D02*
X15182871Y-11168665D01*
X15182871Y-11168665D02*
X15040014Y-11079379D01*
X15040014Y-11079379D02*
X14897157Y-10918665D01*
X14897157Y-10918665D02*
X14825728Y-10695451D01*
X14825728Y-10695451D02*
X14825728Y-10552594D01*
X14825728Y-10552594D02*
X14897157Y-10347237D01*
X14897157Y-10347237D02*
X14968585Y-10284737D01*
X16325728Y-9811522D02*
X15325728Y-9686522D01*
X14825728Y-9624022D02*
X14897157Y-9704379D01*
X14897157Y-9704379D02*
X14968585Y-9641879D01*
X14968585Y-9641879D02*
X14897157Y-9561522D01*
X14897157Y-9561522D02*
X14825728Y-9624022D01*
X14825728Y-9624022D02*
X14968585Y-9641879D01*
X16254300Y-8445451D02*
X16325728Y-8597236D01*
X16325728Y-8597236D02*
X16325728Y-8882951D01*
X16325728Y-8882951D02*
X16254300Y-9016879D01*
X16254300Y-9016879D02*
X16182871Y-9079379D01*
X16182871Y-9079379D02*
X16040014Y-9132951D01*
X16040014Y-9132951D02*
X15611442Y-9079379D01*
X15611442Y-9079379D02*
X15468585Y-8990093D01*
X15468585Y-8990093D02*
X15397157Y-8909736D01*
X15397157Y-8909736D02*
X15325728Y-8757951D01*
X15325728Y-8757951D02*
X15325728Y-8472236D01*
X15325728Y-8472236D02*
X15397157Y-8338308D01*
X16325728Y-7168665D02*
X15540014Y-7070451D01*
X15540014Y-7070451D02*
X15397157Y-7124022D01*
X15397157Y-7124022D02*
X15325728Y-7257951D01*
X15325728Y-7257951D02*
X15325728Y-7543665D01*
X15325728Y-7543665D02*
X15397157Y-7695451D01*
X16254300Y-7159737D02*
X16325728Y-7311522D01*
X16325728Y-7311522D02*
X16325728Y-7668665D01*
X16325728Y-7668665D02*
X16254300Y-7802594D01*
X16254300Y-7802594D02*
X16111442Y-7856165D01*
X16111442Y-7856165D02*
X15968585Y-7838308D01*
X15968585Y-7838308D02*
X15825728Y-7749022D01*
X15825728Y-7749022D02*
X15754300Y-7597237D01*
X15754300Y-7597237D02*
X15754300Y-7240094D01*
X15754300Y-7240094D02*
X15682871Y-7088308D01*
X16325728Y-5811522D02*
X14825728Y-5624022D01*
X16254300Y-5802594D02*
X16325728Y-5954379D01*
X16325728Y-5954379D02*
X16325728Y-6240094D01*
X16325728Y-6240094D02*
X16254300Y-6374022D01*
X16254300Y-6374022D02*
X16182871Y-6436522D01*
X16182871Y-6436522D02*
X16040014Y-6490094D01*
X16040014Y-6490094D02*
X15611442Y-6436522D01*
X15611442Y-6436522D02*
X15468585Y-6347236D01*
X15468585Y-6347236D02*
X15397157Y-6266879D01*
X15397157Y-6266879D02*
X15325728Y-6115094D01*
X15325728Y-6115094D02*
X15325728Y-5829379D01*
X15325728Y-5829379D02*
X15397157Y-5695451D01*
X16325728Y-4454379D02*
X15540014Y-4356165D01*
X15540014Y-4356165D02*
X15397157Y-4409736D01*
X15397157Y-4409736D02*
X15325728Y-4543665D01*
X15325728Y-4543665D02*
X15325728Y-4829379D01*
X15325728Y-4829379D02*
X15397157Y-4981165D01*
X16254300Y-4445451D02*
X16325728Y-4597236D01*
X16325728Y-4597236D02*
X16325728Y-4954379D01*
X16325728Y-4954379D02*
X16254300Y-5088308D01*
X16254300Y-5088308D02*
X16111442Y-5141879D01*
X16111442Y-5141879D02*
X15968585Y-5124022D01*
X15968585Y-5124022D02*
X15825728Y-5034736D01*
X15825728Y-5034736D02*
X15754300Y-4882951D01*
X15754300Y-4882951D02*
X15754300Y-4525808D01*
X15754300Y-4525808D02*
X15682871Y-4374022D01*
X14825728Y-2552593D02*
X16325728Y-2382951D01*
X16325728Y-2382951D02*
X15254300Y-1963308D01*
X15254300Y-1963308D02*
X16325728Y-1811522D01*
X16325728Y-1811522D02*
X14825728Y-1266879D01*
X16325728Y-882950D02*
X15325728Y-757950D01*
X14825728Y-695450D02*
X14897157Y-775807D01*
X14897157Y-775807D02*
X14968585Y-713307D01*
X14968585Y-713307D02*
X14897157Y-632950D01*
X14897157Y-632950D02*
X14825728Y-695450D01*
X14825728Y-695450D02*
X14968585Y-713307D01*
X16254300Y-231164D02*
X16325728Y-25807D01*
X16325728Y-25807D02*
X16325728Y331336D01*
X16325728Y331336D02*
X16254300Y483121D01*
X16254300Y483121D02*
X16182871Y563479D01*
X16182871Y563479D02*
X16040014Y652764D01*
X16040014Y652764D02*
X15897157Y670621D01*
X15897157Y670621D02*
X15754300Y617050D01*
X15754300Y617050D02*
X15682871Y554550D01*
X15682871Y554550D02*
X15611442Y420621D01*
X15611442Y420621D02*
X15540014Y143836D01*
X15540014Y143836D02*
X15468585Y9907D01*
X15468585Y9907D02*
X15397157Y-52593D01*
X15397157Y-52593D02*
X15254300Y-106164D01*
X15254300Y-106164D02*
X15111442Y-88307D01*
X15111442Y-88307D02*
X14968585Y979D01*
X14968585Y979D02*
X14897157Y81336D01*
X14897157Y81336D02*
X14825728Y233121D01*
X14825728Y233121D02*
X14825728Y590264D01*
X14825728Y590264D02*
X14897157Y795621D01*
X14825728Y1447407D02*
X16040014Y1295621D01*
X16040014Y1295621D02*
X16182871Y1349192D01*
X16182871Y1349192D02*
X16254300Y1411692D01*
X16254300Y1411692D02*
X16325728Y1545621D01*
X16325728Y1545621D02*
X16325728Y1831335D01*
X16325728Y1831335D02*
X16254300Y1983121D01*
X16254300Y1983121D02*
X16182871Y2063478D01*
X16182871Y2063478D02*
X16040014Y2152764D01*
X16040014Y2152764D02*
X14825728Y2304550D01*
X16325728Y2831336D02*
X14825728Y3018836D01*
X14825728Y3018836D02*
X16325728Y3688479D01*
X16325728Y3688479D02*
X14825728Y3875979D01*
D14*
X18187404Y-37693333D02*
X18225500Y-37717142D01*
X18225500Y-37717142D02*
X18263595Y-37788571D01*
X18263595Y-37788571D02*
X18263595Y-37836190D01*
X18263595Y-37836190D02*
X18225500Y-37907618D01*
X18225500Y-37907618D02*
X18149309Y-37955237D01*
X18149309Y-37955237D02*
X18073119Y-37979047D01*
X18073119Y-37979047D02*
X17920738Y-38002856D01*
X17920738Y-38002856D02*
X17806452Y-38002856D01*
X17806452Y-38002856D02*
X17654071Y-37979047D01*
X17654071Y-37979047D02*
X17577880Y-37955237D01*
X17577880Y-37955237D02*
X17501690Y-37907618D01*
X17501690Y-37907618D02*
X17463595Y-37836190D01*
X17463595Y-37836190D02*
X17463595Y-37788571D01*
X17463595Y-37788571D02*
X17501690Y-37717142D01*
X17501690Y-37717142D02*
X17539785Y-37693333D01*
X17463595Y-37526666D02*
X17463595Y-37217142D01*
X17463595Y-37217142D02*
X17768357Y-37383809D01*
X17768357Y-37383809D02*
X17768357Y-37312380D01*
X17768357Y-37312380D02*
X17806452Y-37264761D01*
X17806452Y-37264761D02*
X17844547Y-37240952D01*
X17844547Y-37240952D02*
X17920738Y-37217142D01*
X17920738Y-37217142D02*
X18111214Y-37217142D01*
X18111214Y-37217142D02*
X18187404Y-37240952D01*
X18187404Y-37240952D02*
X18225500Y-37264761D01*
X18225500Y-37264761D02*
X18263595Y-37312380D01*
X18263595Y-37312380D02*
X18263595Y-37455237D01*
X18263595Y-37455237D02*
X18225500Y-37502856D01*
X18225500Y-37502856D02*
X18187404Y-37526666D01*
D10*
X13478704Y-52901428D02*
X13516800Y-52925237D01*
X13516800Y-52925237D02*
X13554895Y-52996666D01*
X13554895Y-52996666D02*
X13554895Y-53044285D01*
X13554895Y-53044285D02*
X13516800Y-53115713D01*
X13516800Y-53115713D02*
X13440609Y-53163332D01*
X13440609Y-53163332D02*
X13364419Y-53187142D01*
X13364419Y-53187142D02*
X13212038Y-53210951D01*
X13212038Y-53210951D02*
X13097752Y-53210951D01*
X13097752Y-53210951D02*
X12945371Y-53187142D01*
X12945371Y-53187142D02*
X12869180Y-53163332D01*
X12869180Y-53163332D02*
X12792990Y-53115713D01*
X12792990Y-53115713D02*
X12754895Y-53044285D01*
X12754895Y-53044285D02*
X12754895Y-52996666D01*
X12754895Y-52996666D02*
X12792990Y-52925237D01*
X12792990Y-52925237D02*
X12831085Y-52901428D01*
X13554895Y-52425237D02*
X13554895Y-52710951D01*
X13554895Y-52568094D02*
X12754895Y-52568094D01*
X12754895Y-52568094D02*
X12869180Y-52615713D01*
X12869180Y-52615713D02*
X12945371Y-52663332D01*
X12945371Y-52663332D02*
X12983466Y-52710951D01*
X12831085Y-52234761D02*
X12792990Y-52210952D01*
X12792990Y-52210952D02*
X12754895Y-52163333D01*
X12754895Y-52163333D02*
X12754895Y-52044285D01*
X12754895Y-52044285D02*
X12792990Y-51996666D01*
X12792990Y-51996666D02*
X12831085Y-51972857D01*
X12831085Y-51972857D02*
X12907276Y-51949047D01*
X12907276Y-51949047D02*
X12983466Y-51949047D01*
X12983466Y-51949047D02*
X13097752Y-51972857D01*
X13097752Y-51972857D02*
X13554895Y-52258571D01*
X13554895Y-52258571D02*
X13554895Y-51949047D01*
D14*
X3557404Y-34761428D02*
X3595500Y-34785237D01*
X3595500Y-34785237D02*
X3633595Y-34856666D01*
X3633595Y-34856666D02*
X3633595Y-34904285D01*
X3633595Y-34904285D02*
X3595500Y-34975713D01*
X3595500Y-34975713D02*
X3519309Y-35023332D01*
X3519309Y-35023332D02*
X3443119Y-35047142D01*
X3443119Y-35047142D02*
X3290738Y-35070951D01*
X3290738Y-35070951D02*
X3176452Y-35070951D01*
X3176452Y-35070951D02*
X3024071Y-35047142D01*
X3024071Y-35047142D02*
X2947880Y-35023332D01*
X2947880Y-35023332D02*
X2871690Y-34975713D01*
X2871690Y-34975713D02*
X2833595Y-34904285D01*
X2833595Y-34904285D02*
X2833595Y-34856666D01*
X2833595Y-34856666D02*
X2871690Y-34785237D01*
X2871690Y-34785237D02*
X2909785Y-34761428D01*
X3633595Y-34285237D02*
X3633595Y-34570951D01*
X3633595Y-34428094D02*
X2833595Y-34428094D01*
X2833595Y-34428094D02*
X2947880Y-34475713D01*
X2947880Y-34475713D02*
X3024071Y-34523332D01*
X3024071Y-34523332D02*
X3062166Y-34570951D01*
X2833595Y-33832857D02*
X2833595Y-34070952D01*
X2833595Y-34070952D02*
X3214547Y-34094761D01*
X3214547Y-34094761D02*
X3176452Y-34070952D01*
X3176452Y-34070952D02*
X3138357Y-34023333D01*
X3138357Y-34023333D02*
X3138357Y-33904285D01*
X3138357Y-33904285D02*
X3176452Y-33856666D01*
X3176452Y-33856666D02*
X3214547Y-33832857D01*
X3214547Y-33832857D02*
X3290738Y-33809047D01*
X3290738Y-33809047D02*
X3481214Y-33809047D01*
X3481214Y-33809047D02*
X3557404Y-33832857D01*
X3557404Y-33832857D02*
X3595500Y-33856666D01*
X3595500Y-33856666D02*
X3633595Y-33904285D01*
X3633595Y-33904285D02*
X3633595Y-34023333D01*
X3633595Y-34023333D02*
X3595500Y-34070952D01*
X3595500Y-34070952D02*
X3557404Y-34094761D01*
D10*
X11408704Y-20181428D02*
X11446800Y-20205237D01*
X11446800Y-20205237D02*
X11484895Y-20276666D01*
X11484895Y-20276666D02*
X11484895Y-20324285D01*
X11484895Y-20324285D02*
X11446800Y-20395713D01*
X11446800Y-20395713D02*
X11370609Y-20443332D01*
X11370609Y-20443332D02*
X11294419Y-20467142D01*
X11294419Y-20467142D02*
X11142038Y-20490951D01*
X11142038Y-20490951D02*
X11027752Y-20490951D01*
X11027752Y-20490951D02*
X10875371Y-20467142D01*
X10875371Y-20467142D02*
X10799180Y-20443332D01*
X10799180Y-20443332D02*
X10722990Y-20395713D01*
X10722990Y-20395713D02*
X10684895Y-20324285D01*
X10684895Y-20324285D02*
X10684895Y-20276666D01*
X10684895Y-20276666D02*
X10722990Y-20205237D01*
X10722990Y-20205237D02*
X10761085Y-20181428D01*
X11484895Y-19705237D02*
X11484895Y-19990951D01*
X11484895Y-19848094D02*
X10684895Y-19848094D01*
X10684895Y-19848094D02*
X10799180Y-19895713D01*
X10799180Y-19895713D02*
X10875371Y-19943332D01*
X10875371Y-19943332D02*
X10913466Y-19990951D01*
X10684895Y-19538571D02*
X10684895Y-19205238D01*
X10684895Y-19205238D02*
X11484895Y-19419523D01*
X15966666Y-52544895D02*
X15728571Y-52544895D01*
X15728571Y-52544895D02*
X15728571Y-51744895D01*
X16395238Y-52544895D02*
X16109524Y-52544895D01*
X16252381Y-52544895D02*
X16252381Y-51744895D01*
X16252381Y-51744895D02*
X16204762Y-51859180D01*
X16204762Y-51859180D02*
X16157143Y-51935371D01*
X16157143Y-51935371D02*
X16109524Y-51973466D01*
X12428704Y-52863928D02*
X12466800Y-52887737D01*
X12466800Y-52887737D02*
X12504895Y-52959166D01*
X12504895Y-52959166D02*
X12504895Y-53006785D01*
X12504895Y-53006785D02*
X12466800Y-53078213D01*
X12466800Y-53078213D02*
X12390609Y-53125832D01*
X12390609Y-53125832D02*
X12314419Y-53149642D01*
X12314419Y-53149642D02*
X12162038Y-53173451D01*
X12162038Y-53173451D02*
X12047752Y-53173451D01*
X12047752Y-53173451D02*
X11895371Y-53149642D01*
X11895371Y-53149642D02*
X11819180Y-53125832D01*
X11819180Y-53125832D02*
X11742990Y-53078213D01*
X11742990Y-53078213D02*
X11704895Y-53006785D01*
X11704895Y-53006785D02*
X11704895Y-52959166D01*
X11704895Y-52959166D02*
X11742990Y-52887737D01*
X11742990Y-52887737D02*
X11781085Y-52863928D01*
X12504895Y-52387737D02*
X12504895Y-52673451D01*
X12504895Y-52530594D02*
X11704895Y-52530594D01*
X11704895Y-52530594D02*
X11819180Y-52578213D01*
X11819180Y-52578213D02*
X11895371Y-52625832D01*
X11895371Y-52625832D02*
X11933466Y-52673451D01*
X12504895Y-51911547D02*
X12504895Y-52197261D01*
X12504895Y-52054404D02*
X11704895Y-52054404D01*
X11704895Y-52054404D02*
X11819180Y-52102023D01*
X11819180Y-52102023D02*
X11895371Y-52149642D01*
X11895371Y-52149642D02*
X11933466Y-52197261D01*
D14*
X3307404Y-43321428D02*
X3345500Y-43345237D01*
X3345500Y-43345237D02*
X3383595Y-43416666D01*
X3383595Y-43416666D02*
X3383595Y-43464285D01*
X3383595Y-43464285D02*
X3345500Y-43535713D01*
X3345500Y-43535713D02*
X3269309Y-43583332D01*
X3269309Y-43583332D02*
X3193119Y-43607142D01*
X3193119Y-43607142D02*
X3040738Y-43630951D01*
X3040738Y-43630951D02*
X2926452Y-43630951D01*
X2926452Y-43630951D02*
X2774071Y-43607142D01*
X2774071Y-43607142D02*
X2697880Y-43583332D01*
X2697880Y-43583332D02*
X2621690Y-43535713D01*
X2621690Y-43535713D02*
X2583595Y-43464285D01*
X2583595Y-43464285D02*
X2583595Y-43416666D01*
X2583595Y-43416666D02*
X2621690Y-43345237D01*
X2621690Y-43345237D02*
X2659785Y-43321428D01*
X3383595Y-42845237D02*
X3383595Y-43130951D01*
X3383595Y-42988094D02*
X2583595Y-42988094D01*
X2583595Y-42988094D02*
X2697880Y-43035713D01*
X2697880Y-43035713D02*
X2774071Y-43083332D01*
X2774071Y-43083332D02*
X2812166Y-43130951D01*
X2850261Y-42416666D02*
X3383595Y-42416666D01*
X2545500Y-42535714D02*
X3116928Y-42654761D01*
X3116928Y-42654761D02*
X3116928Y-42345238D01*
D10*
X8394166Y-48904895D02*
X8227500Y-48523942D01*
X8108452Y-48904895D02*
X8108452Y-48104895D01*
X8108452Y-48104895D02*
X8298928Y-48104895D01*
X8298928Y-48104895D02*
X8346547Y-48142990D01*
X8346547Y-48142990D02*
X8370357Y-48181085D01*
X8370357Y-48181085D02*
X8394166Y-48257276D01*
X8394166Y-48257276D02*
X8394166Y-48371561D01*
X8394166Y-48371561D02*
X8370357Y-48447752D01*
X8370357Y-48447752D02*
X8346547Y-48485847D01*
X8346547Y-48485847D02*
X8298928Y-48523942D01*
X8298928Y-48523942D02*
X8108452Y-48523942D01*
X8870357Y-48904895D02*
X8584643Y-48904895D01*
X8727500Y-48904895D02*
X8727500Y-48104895D01*
X8727500Y-48104895D02*
X8679881Y-48219180D01*
X8679881Y-48219180D02*
X8632262Y-48295371D01*
X8632262Y-48295371D02*
X8584643Y-48333466D01*
X13464895Y-40523333D02*
X13083942Y-40689999D01*
X13464895Y-40809047D02*
X12664895Y-40809047D01*
X12664895Y-40809047D02*
X12664895Y-40618571D01*
X12664895Y-40618571D02*
X12702990Y-40570952D01*
X12702990Y-40570952D02*
X12741085Y-40547142D01*
X12741085Y-40547142D02*
X12817276Y-40523333D01*
X12817276Y-40523333D02*
X12931561Y-40523333D01*
X12931561Y-40523333D02*
X13007752Y-40547142D01*
X13007752Y-40547142D02*
X13045847Y-40570952D01*
X13045847Y-40570952D02*
X13083942Y-40618571D01*
X13083942Y-40618571D02*
X13083942Y-40809047D01*
X12664895Y-40356666D02*
X12664895Y-40023333D01*
X12664895Y-40023333D02*
X13464895Y-40237618D01*
X6906666Y-44724895D02*
X6740000Y-44343942D01*
X6620952Y-44724895D02*
X6620952Y-43924895D01*
X6620952Y-43924895D02*
X6811428Y-43924895D01*
X6811428Y-43924895D02*
X6859047Y-43962990D01*
X6859047Y-43962990D02*
X6882857Y-44001085D01*
X6882857Y-44001085D02*
X6906666Y-44077276D01*
X6906666Y-44077276D02*
X6906666Y-44191561D01*
X6906666Y-44191561D02*
X6882857Y-44267752D01*
X6882857Y-44267752D02*
X6859047Y-44305847D01*
X6859047Y-44305847D02*
X6811428Y-44343942D01*
X6811428Y-44343942D02*
X6620952Y-44343942D01*
X7335238Y-43924895D02*
X7240000Y-43924895D01*
X7240000Y-43924895D02*
X7192381Y-43962990D01*
X7192381Y-43962990D02*
X7168571Y-44001085D01*
X7168571Y-44001085D02*
X7120952Y-44115371D01*
X7120952Y-44115371D02*
X7097143Y-44267752D01*
X7097143Y-44267752D02*
X7097143Y-44572514D01*
X7097143Y-44572514D02*
X7120952Y-44648704D01*
X7120952Y-44648704D02*
X7144762Y-44686800D01*
X7144762Y-44686800D02*
X7192381Y-44724895D01*
X7192381Y-44724895D02*
X7287619Y-44724895D01*
X7287619Y-44724895D02*
X7335238Y-44686800D01*
X7335238Y-44686800D02*
X7359047Y-44648704D01*
X7359047Y-44648704D02*
X7382857Y-44572514D01*
X7382857Y-44572514D02*
X7382857Y-44382038D01*
X7382857Y-44382038D02*
X7359047Y-44305847D01*
X7359047Y-44305847D02*
X7335238Y-44267752D01*
X7335238Y-44267752D02*
X7287619Y-44229657D01*
X7287619Y-44229657D02*
X7192381Y-44229657D01*
X7192381Y-44229657D02*
X7144762Y-44267752D01*
X7144762Y-44267752D02*
X7120952Y-44305847D01*
X7120952Y-44305847D02*
X7097143Y-44382038D01*
D14*
X12169047Y-42063595D02*
X12169047Y-42711214D01*
X12169047Y-42711214D02*
X12192857Y-42787404D01*
X12192857Y-42787404D02*
X12216666Y-42825500D01*
X12216666Y-42825500D02*
X12264285Y-42863595D01*
X12264285Y-42863595D02*
X12359523Y-42863595D01*
X12359523Y-42863595D02*
X12407142Y-42825500D01*
X12407142Y-42825500D02*
X12430952Y-42787404D01*
X12430952Y-42787404D02*
X12454761Y-42711214D01*
X12454761Y-42711214D02*
X12454761Y-42063595D01*
X12954762Y-42863595D02*
X12669048Y-42863595D01*
X12811905Y-42863595D02*
X12811905Y-42063595D01*
X12811905Y-42063595D02*
X12764286Y-42177880D01*
X12764286Y-42177880D02*
X12716667Y-42254071D01*
X12716667Y-42254071D02*
X12669048Y-42292166D01*
D10*
X6866666Y-46148704D02*
X6842857Y-46186800D01*
X6842857Y-46186800D02*
X6771428Y-46224895D01*
X6771428Y-46224895D02*
X6723809Y-46224895D01*
X6723809Y-46224895D02*
X6652381Y-46186800D01*
X6652381Y-46186800D02*
X6604762Y-46110609D01*
X6604762Y-46110609D02*
X6580952Y-46034419D01*
X6580952Y-46034419D02*
X6557143Y-45882038D01*
X6557143Y-45882038D02*
X6557143Y-45767752D01*
X6557143Y-45767752D02*
X6580952Y-45615371D01*
X6580952Y-45615371D02*
X6604762Y-45539180D01*
X6604762Y-45539180D02*
X6652381Y-45462990D01*
X6652381Y-45462990D02*
X6723809Y-45424895D01*
X6723809Y-45424895D02*
X6771428Y-45424895D01*
X6771428Y-45424895D02*
X6842857Y-45462990D01*
X6842857Y-45462990D02*
X6866666Y-45501085D01*
X7152381Y-45767752D02*
X7104762Y-45729657D01*
X7104762Y-45729657D02*
X7080952Y-45691561D01*
X7080952Y-45691561D02*
X7057143Y-45615371D01*
X7057143Y-45615371D02*
X7057143Y-45577276D01*
X7057143Y-45577276D02*
X7080952Y-45501085D01*
X7080952Y-45501085D02*
X7104762Y-45462990D01*
X7104762Y-45462990D02*
X7152381Y-45424895D01*
X7152381Y-45424895D02*
X7247619Y-45424895D01*
X7247619Y-45424895D02*
X7295238Y-45462990D01*
X7295238Y-45462990D02*
X7319047Y-45501085D01*
X7319047Y-45501085D02*
X7342857Y-45577276D01*
X7342857Y-45577276D02*
X7342857Y-45615371D01*
X7342857Y-45615371D02*
X7319047Y-45691561D01*
X7319047Y-45691561D02*
X7295238Y-45729657D01*
X7295238Y-45729657D02*
X7247619Y-45767752D01*
X7247619Y-45767752D02*
X7152381Y-45767752D01*
X7152381Y-45767752D02*
X7104762Y-45805847D01*
X7104762Y-45805847D02*
X7080952Y-45843942D01*
X7080952Y-45843942D02*
X7057143Y-45920133D01*
X7057143Y-45920133D02*
X7057143Y-46072514D01*
X7057143Y-46072514D02*
X7080952Y-46148704D01*
X7080952Y-46148704D02*
X7104762Y-46186800D01*
X7104762Y-46186800D02*
X7152381Y-46224895D01*
X7152381Y-46224895D02*
X7247619Y-46224895D01*
X7247619Y-46224895D02*
X7295238Y-46186800D01*
X7295238Y-46186800D02*
X7319047Y-46148704D01*
X7319047Y-46148704D02*
X7342857Y-46072514D01*
X7342857Y-46072514D02*
X7342857Y-45920133D01*
X7342857Y-45920133D02*
X7319047Y-45843942D01*
X7319047Y-45843942D02*
X7295238Y-45805847D01*
X7295238Y-45805847D02*
X7247619Y-45767752D01*
X16198704Y-43883333D02*
X16236800Y-43907142D01*
X16236800Y-43907142D02*
X16274895Y-43978571D01*
X16274895Y-43978571D02*
X16274895Y-44026190D01*
X16274895Y-44026190D02*
X16236800Y-44097618D01*
X16236800Y-44097618D02*
X16160609Y-44145237D01*
X16160609Y-44145237D02*
X16084419Y-44169047D01*
X16084419Y-44169047D02*
X15932038Y-44192856D01*
X15932038Y-44192856D02*
X15817752Y-44192856D01*
X15817752Y-44192856D02*
X15665371Y-44169047D01*
X15665371Y-44169047D02*
X15589180Y-44145237D01*
X15589180Y-44145237D02*
X15512990Y-44097618D01*
X15512990Y-44097618D02*
X15474895Y-44026190D01*
X15474895Y-44026190D02*
X15474895Y-43978571D01*
X15474895Y-43978571D02*
X15512990Y-43907142D01*
X15512990Y-43907142D02*
X15551085Y-43883333D01*
X15474895Y-43454761D02*
X15474895Y-43549999D01*
X15474895Y-43549999D02*
X15512990Y-43597618D01*
X15512990Y-43597618D02*
X15551085Y-43621428D01*
X15551085Y-43621428D02*
X15665371Y-43669047D01*
X15665371Y-43669047D02*
X15817752Y-43692856D01*
X15817752Y-43692856D02*
X16122514Y-43692856D01*
X16122514Y-43692856D02*
X16198704Y-43669047D01*
X16198704Y-43669047D02*
X16236800Y-43645237D01*
X16236800Y-43645237D02*
X16274895Y-43597618D01*
X16274895Y-43597618D02*
X16274895Y-43502380D01*
X16274895Y-43502380D02*
X16236800Y-43454761D01*
X16236800Y-43454761D02*
X16198704Y-43430952D01*
X16198704Y-43430952D02*
X16122514Y-43407142D01*
X16122514Y-43407142D02*
X15932038Y-43407142D01*
X15932038Y-43407142D02*
X15855847Y-43430952D01*
X15855847Y-43430952D02*
X15817752Y-43454761D01*
X15817752Y-43454761D02*
X15779657Y-43502380D01*
X15779657Y-43502380D02*
X15779657Y-43597618D01*
X15779657Y-43597618D02*
X15817752Y-43645237D01*
X15817752Y-43645237D02*
X15855847Y-43669047D01*
X15855847Y-43669047D02*
X15932038Y-43692856D01*
D14*
X18197404Y-44003333D02*
X18235500Y-44027142D01*
X18235500Y-44027142D02*
X18273595Y-44098571D01*
X18273595Y-44098571D02*
X18273595Y-44146190D01*
X18273595Y-44146190D02*
X18235500Y-44217618D01*
X18235500Y-44217618D02*
X18159309Y-44265237D01*
X18159309Y-44265237D02*
X18083119Y-44289047D01*
X18083119Y-44289047D02*
X17930738Y-44312856D01*
X17930738Y-44312856D02*
X17816452Y-44312856D01*
X17816452Y-44312856D02*
X17664071Y-44289047D01*
X17664071Y-44289047D02*
X17587880Y-44265237D01*
X17587880Y-44265237D02*
X17511690Y-44217618D01*
X17511690Y-44217618D02*
X17473595Y-44146190D01*
X17473595Y-44146190D02*
X17473595Y-44098571D01*
X17473595Y-44098571D02*
X17511690Y-44027142D01*
X17511690Y-44027142D02*
X17549785Y-44003333D01*
X17740261Y-43574761D02*
X18273595Y-43574761D01*
X17435500Y-43693809D02*
X18006928Y-43812856D01*
X18006928Y-43812856D02*
X18006928Y-43503333D01*
X18067404Y-29243333D02*
X18105500Y-29267142D01*
X18105500Y-29267142D02*
X18143595Y-29338571D01*
X18143595Y-29338571D02*
X18143595Y-29386190D01*
X18143595Y-29386190D02*
X18105500Y-29457618D01*
X18105500Y-29457618D02*
X18029309Y-29505237D01*
X18029309Y-29505237D02*
X17953119Y-29529047D01*
X17953119Y-29529047D02*
X17800738Y-29552856D01*
X17800738Y-29552856D02*
X17686452Y-29552856D01*
X17686452Y-29552856D02*
X17534071Y-29529047D01*
X17534071Y-29529047D02*
X17457880Y-29505237D01*
X17457880Y-29505237D02*
X17381690Y-29457618D01*
X17381690Y-29457618D02*
X17343595Y-29386190D01*
X17343595Y-29386190D02*
X17343595Y-29338571D01*
X17343595Y-29338571D02*
X17381690Y-29267142D01*
X17381690Y-29267142D02*
X17419785Y-29243333D01*
X18143595Y-28767142D02*
X18143595Y-29052856D01*
X18143595Y-28909999D02*
X17343595Y-28909999D01*
X17343595Y-28909999D02*
X17457880Y-28957618D01*
X17457880Y-28957618D02*
X17534071Y-29005237D01*
X17534071Y-29005237D02*
X17572166Y-29052856D01*
D10*
X-5445105Y-46153333D02*
X-5445105Y-46391428D01*
X-5445105Y-46391428D02*
X-6245105Y-46391428D01*
X-5445105Y-45962856D02*
X-5445105Y-45867618D01*
X-5445105Y-45867618D02*
X-5483200Y-45819999D01*
X-5483200Y-45819999D02*
X-5521296Y-45796190D01*
X-5521296Y-45796190D02*
X-5635581Y-45748571D01*
X-5635581Y-45748571D02*
X-5787962Y-45724761D01*
X-5787962Y-45724761D02*
X-6092724Y-45724761D01*
X-6092724Y-45724761D02*
X-6168915Y-45748571D01*
X-6168915Y-45748571D02*
X-6207010Y-45772380D01*
X-6207010Y-45772380D02*
X-6245105Y-45819999D01*
X-6245105Y-45819999D02*
X-6245105Y-45915237D01*
X-6245105Y-45915237D02*
X-6207010Y-45962856D01*
X-6207010Y-45962856D02*
X-6168915Y-45986666D01*
X-6168915Y-45986666D02*
X-6092724Y-46010475D01*
X-6092724Y-46010475D02*
X-5902248Y-46010475D01*
X-5902248Y-46010475D02*
X-5826058Y-45986666D01*
X-5826058Y-45986666D02*
X-5787962Y-45962856D01*
X-5787962Y-45962856D02*
X-5749867Y-45915237D01*
X-5749867Y-45915237D02*
X-5749867Y-45819999D01*
X-5749867Y-45819999D02*
X-5787962Y-45772380D01*
X-5787962Y-45772380D02*
X-5826058Y-45748571D01*
X-5826058Y-45748571D02*
X-5902248Y-45724761D01*
X-2543334Y-37224895D02*
X-2781429Y-37224895D01*
X-2781429Y-37224895D02*
X-2781429Y-36424895D01*
X-2162381Y-36691561D02*
X-2162381Y-37224895D01*
X-2281429Y-36386800D02*
X-2400476Y-36958228D01*
X-2400476Y-36958228D02*
X-2090953Y-36958228D01*
X-5690953Y-48944895D02*
X-5690953Y-49592514D01*
X-5690953Y-49592514D02*
X-5667143Y-49668704D01*
X-5667143Y-49668704D02*
X-5643334Y-49706800D01*
X-5643334Y-49706800D02*
X-5595715Y-49744895D01*
X-5595715Y-49744895D02*
X-5500477Y-49744895D01*
X-5500477Y-49744895D02*
X-5452858Y-49706800D01*
X-5452858Y-49706800D02*
X-5429048Y-49668704D01*
X-5429048Y-49668704D02*
X-5405239Y-49592514D01*
X-5405239Y-49592514D02*
X-5405239Y-48944895D01*
X-4929048Y-48944895D02*
X-5167143Y-48944895D01*
X-5167143Y-48944895D02*
X-5190952Y-49325847D01*
X-5190952Y-49325847D02*
X-5167143Y-49287752D01*
X-5167143Y-49287752D02*
X-5119524Y-49249657D01*
X-5119524Y-49249657D02*
X-5000476Y-49249657D01*
X-5000476Y-49249657D02*
X-4952857Y-49287752D01*
X-4952857Y-49287752D02*
X-4929048Y-49325847D01*
X-4929048Y-49325847D02*
X-4905238Y-49402038D01*
X-4905238Y-49402038D02*
X-4905238Y-49592514D01*
X-4905238Y-49592514D02*
X-4929048Y-49668704D01*
X-4929048Y-49668704D02*
X-4952857Y-49706800D01*
X-4952857Y-49706800D02*
X-5000476Y-49744895D01*
X-5000476Y-49744895D02*
X-5119524Y-49744895D01*
X-5119524Y-49744895D02*
X-5167143Y-49706800D01*
X-5167143Y-49706800D02*
X-5190952Y-49668704D01*
D15*
X-2665715Y-49305114D02*
X-2494286Y-49305114D01*
X-2580001Y-49305114D02*
X-2580001Y-49605114D01*
X-2580001Y-49605114D02*
X-2551429Y-49562257D01*
X-2551429Y-49562257D02*
X-2522858Y-49533685D01*
X-2522858Y-49533685D02*
X-2494286Y-49519400D01*
D10*
X-10145105Y-35940952D02*
X-9497486Y-35940952D01*
X-9497486Y-35940952D02*
X-9421296Y-35917142D01*
X-9421296Y-35917142D02*
X-9383200Y-35893333D01*
X-9383200Y-35893333D02*
X-9345105Y-35845714D01*
X-9345105Y-35845714D02*
X-9345105Y-35750476D01*
X-9345105Y-35750476D02*
X-9383200Y-35702857D01*
X-9383200Y-35702857D02*
X-9421296Y-35679047D01*
X-9421296Y-35679047D02*
X-9497486Y-35655238D01*
X-9497486Y-35655238D02*
X-10145105Y-35655238D01*
X-10068915Y-35440951D02*
X-10107010Y-35417142D01*
X-10107010Y-35417142D02*
X-10145105Y-35369523D01*
X-10145105Y-35369523D02*
X-10145105Y-35250475D01*
X-10145105Y-35250475D02*
X-10107010Y-35202856D01*
X-10107010Y-35202856D02*
X-10068915Y-35179047D01*
X-10068915Y-35179047D02*
X-9992724Y-35155237D01*
X-9992724Y-35155237D02*
X-9916534Y-35155237D01*
X-9916534Y-35155237D02*
X-9802248Y-35179047D01*
X-9802248Y-35179047D02*
X-9345105Y-35464761D01*
X-9345105Y-35464761D02*
X-9345105Y-35155237D01*
D16*
X-8469991Y-36147142D02*
X-8469991Y-36432856D01*
X-8469991Y-36289999D02*
X-8969991Y-36289999D01*
X-8969991Y-36289999D02*
X-8898562Y-36337618D01*
X-8898562Y-36337618D02*
X-8850943Y-36385237D01*
X-8850943Y-36385237D02*
X-8827134Y-36432856D01*
D10*
X-9545105Y-41711428D02*
X-9545105Y-41949523D01*
X-9545105Y-41949523D02*
X-10345105Y-41949523D01*
X-9545105Y-41282856D02*
X-9545105Y-41568570D01*
X-9545105Y-41425713D02*
X-10345105Y-41425713D01*
X-10345105Y-41425713D02*
X-10230820Y-41473332D01*
X-10230820Y-41473332D02*
X-10154629Y-41520951D01*
X-10154629Y-41520951D02*
X-10116534Y-41568570D01*
X-9545105Y-40806666D02*
X-9545105Y-41092380D01*
X-9545105Y-40949523D02*
X-10345105Y-40949523D01*
X-10345105Y-40949523D02*
X-10230820Y-40997142D01*
X-10230820Y-40997142D02*
X-10154629Y-41044761D01*
X-10154629Y-41044761D02*
X-10116534Y-41092380D01*
X1624895Y-39689047D02*
X824895Y-39689047D01*
X824895Y-39689047D02*
X824895Y-39569999D01*
X824895Y-39569999D02*
X862990Y-39498571D01*
X862990Y-39498571D02*
X939180Y-39450952D01*
X939180Y-39450952D02*
X1015371Y-39427142D01*
X1015371Y-39427142D02*
X1167752Y-39403333D01*
X1167752Y-39403333D02*
X1282038Y-39403333D01*
X1282038Y-39403333D02*
X1434419Y-39427142D01*
X1434419Y-39427142D02*
X1510609Y-39450952D01*
X1510609Y-39450952D02*
X1586800Y-39498571D01*
X1586800Y-39498571D02*
X1624895Y-39569999D01*
X1624895Y-39569999D02*
X1624895Y-39689047D01*
X1624895Y-38927142D02*
X1624895Y-39212856D01*
X1624895Y-39069999D02*
X824895Y-39069999D01*
X824895Y-39069999D02*
X939180Y-39117618D01*
X939180Y-39117618D02*
X1015371Y-39165237D01*
X1015371Y-39165237D02*
X1053466Y-39212856D01*
X-8321429Y-13399895D02*
X-8488095Y-13018942D01*
X-8607143Y-13399895D02*
X-8607143Y-12599895D01*
X-8607143Y-12599895D02*
X-8416667Y-12599895D01*
X-8416667Y-12599895D02*
X-8369048Y-12637990D01*
X-8369048Y-12637990D02*
X-8345238Y-12676085D01*
X-8345238Y-12676085D02*
X-8321429Y-12752276D01*
X-8321429Y-12752276D02*
X-8321429Y-12866561D01*
X-8321429Y-12866561D02*
X-8345238Y-12942752D01*
X-8345238Y-12942752D02*
X-8369048Y-12980847D01*
X-8369048Y-12980847D02*
X-8416667Y-13018942D01*
X-8416667Y-13018942D02*
X-8607143Y-13018942D01*
X-7845238Y-13399895D02*
X-8130952Y-13399895D01*
X-7988095Y-13399895D02*
X-7988095Y-12599895D01*
X-7988095Y-12599895D02*
X-8035714Y-12714180D01*
X-8035714Y-12714180D02*
X-8083333Y-12790371D01*
X-8083333Y-12790371D02*
X-8130952Y-12828466D01*
X-7678572Y-12599895D02*
X-7345239Y-12599895D01*
X-7345239Y-12599895D02*
X-7559524Y-13399895D01*
X-8551429Y-23224895D02*
X-8718095Y-22843942D01*
X-8837143Y-23224895D02*
X-8837143Y-22424895D01*
X-8837143Y-22424895D02*
X-8646667Y-22424895D01*
X-8646667Y-22424895D02*
X-8599048Y-22462990D01*
X-8599048Y-22462990D02*
X-8575238Y-22501085D01*
X-8575238Y-22501085D02*
X-8551429Y-22577276D01*
X-8551429Y-22577276D02*
X-8551429Y-22691561D01*
X-8551429Y-22691561D02*
X-8575238Y-22767752D01*
X-8575238Y-22767752D02*
X-8599048Y-22805847D01*
X-8599048Y-22805847D02*
X-8646667Y-22843942D01*
X-8646667Y-22843942D02*
X-8837143Y-22843942D01*
X-8075238Y-23224895D02*
X-8360952Y-23224895D01*
X-8218095Y-23224895D02*
X-8218095Y-22424895D01*
X-8218095Y-22424895D02*
X-8265714Y-22539180D01*
X-8265714Y-22539180D02*
X-8313333Y-22615371D01*
X-8313333Y-22615371D02*
X-8360952Y-22653466D01*
X-7908572Y-22424895D02*
X-7599048Y-22424895D01*
X-7599048Y-22424895D02*
X-7765715Y-22729657D01*
X-7765715Y-22729657D02*
X-7694286Y-22729657D01*
X-7694286Y-22729657D02*
X-7646667Y-22767752D01*
X-7646667Y-22767752D02*
X-7622858Y-22805847D01*
X-7622858Y-22805847D02*
X-7599048Y-22882038D01*
X-7599048Y-22882038D02*
X-7599048Y-23072514D01*
X-7599048Y-23072514D02*
X-7622858Y-23148704D01*
X-7622858Y-23148704D02*
X-7646667Y-23186800D01*
X-7646667Y-23186800D02*
X-7694286Y-23224895D01*
X-7694286Y-23224895D02*
X-7837143Y-23224895D01*
X-7837143Y-23224895D02*
X-7884762Y-23186800D01*
X-7884762Y-23186800D02*
X-7908572Y-23148704D01*
X-1735105Y-45025428D02*
X-1735105Y-45263523D01*
X-1735105Y-45263523D02*
X-2535105Y-45263523D01*
X-1735105Y-44596856D02*
X-1735105Y-44882570D01*
X-1735105Y-44739713D02*
X-2535105Y-44739713D01*
X-2535105Y-44739713D02*
X-2420820Y-44787332D01*
X-2420820Y-44787332D02*
X-2344629Y-44834951D01*
X-2344629Y-44834951D02*
X-2306534Y-44882570D01*
X-2535105Y-44287333D02*
X-2535105Y-44239714D01*
X-2535105Y-44239714D02*
X-2497010Y-44192095D01*
X-2497010Y-44192095D02*
X-2458915Y-44168285D01*
X-2458915Y-44168285D02*
X-2382724Y-44144476D01*
X-2382724Y-44144476D02*
X-2230343Y-44120666D01*
X-2230343Y-44120666D02*
X-2039867Y-44120666D01*
X-2039867Y-44120666D02*
X-1887486Y-44144476D01*
X-1887486Y-44144476D02*
X-1811296Y-44168285D01*
X-1811296Y-44168285D02*
X-1773200Y-44192095D01*
X-1773200Y-44192095D02*
X-1735105Y-44239714D01*
X-1735105Y-44239714D02*
X-1735105Y-44287333D01*
X-1735105Y-44287333D02*
X-1773200Y-44334952D01*
X-1773200Y-44334952D02*
X-1811296Y-44358761D01*
X-1811296Y-44358761D02*
X-1887486Y-44382571D01*
X-1887486Y-44382571D02*
X-2039867Y-44406380D01*
X-2039867Y-44406380D02*
X-2230343Y-44406380D01*
X-2230343Y-44406380D02*
X-2382724Y-44382571D01*
X-2382724Y-44382571D02*
X-2458915Y-44358761D01*
X-2458915Y-44358761D02*
X-2497010Y-44334952D01*
X-2497010Y-44334952D02*
X-2535105Y-44287333D01*
X-13381296Y-43981428D02*
X-13343200Y-44005237D01*
X-13343200Y-44005237D02*
X-13305105Y-44076666D01*
X-13305105Y-44076666D02*
X-13305105Y-44124285D01*
X-13305105Y-44124285D02*
X-13343200Y-44195713D01*
X-13343200Y-44195713D02*
X-13419391Y-44243332D01*
X-13419391Y-44243332D02*
X-13495581Y-44267142D01*
X-13495581Y-44267142D02*
X-13647962Y-44290951D01*
X-13647962Y-44290951D02*
X-13762248Y-44290951D01*
X-13762248Y-44290951D02*
X-13914629Y-44267142D01*
X-13914629Y-44267142D02*
X-13990820Y-44243332D01*
X-13990820Y-44243332D02*
X-14067010Y-44195713D01*
X-14067010Y-44195713D02*
X-14105105Y-44124285D01*
X-14105105Y-44124285D02*
X-14105105Y-44076666D01*
X-14105105Y-44076666D02*
X-14067010Y-44005237D01*
X-14067010Y-44005237D02*
X-14028915Y-43981428D01*
X-13838439Y-43552856D02*
X-13305105Y-43552856D01*
X-14143200Y-43671904D02*
X-13571772Y-43790951D01*
X-13571772Y-43790951D02*
X-13571772Y-43481428D01*
X-14105105Y-43338571D02*
X-14105105Y-43005238D01*
X-14105105Y-43005238D02*
X-13305105Y-43219523D01*
X-51429Y-35834895D02*
X-218095Y-35453942D01*
X-337143Y-35834895D02*
X-337143Y-35034895D01*
X-337143Y-35034895D02*
X-146667Y-35034895D01*
X-146667Y-35034895D02*
X-99048Y-35072990D01*
X-99048Y-35072990D02*
X-75238Y-35111085D01*
X-75238Y-35111085D02*
X-51429Y-35187276D01*
X-51429Y-35187276D02*
X-51429Y-35301561D01*
X-51429Y-35301561D02*
X-75238Y-35377752D01*
X-75238Y-35377752D02*
X-99048Y-35415847D01*
X-99048Y-35415847D02*
X-146667Y-35453942D01*
X-146667Y-35453942D02*
X-337143Y-35453942D01*
X424762Y-35834895D02*
X139048Y-35834895D01*
X281905Y-35834895D02*
X281905Y-35034895D01*
X281905Y-35034895D02*
X234286Y-35149180D01*
X234286Y-35149180D02*
X186667Y-35225371D01*
X186667Y-35225371D02*
X139048Y-35263466D01*
X734285Y-35034895D02*
X781904Y-35034895D01*
X781904Y-35034895D02*
X829523Y-35072990D01*
X829523Y-35072990D02*
X853333Y-35111085D01*
X853333Y-35111085D02*
X877142Y-35187276D01*
X877142Y-35187276D02*
X900952Y-35339657D01*
X900952Y-35339657D02*
X900952Y-35530133D01*
X900952Y-35530133D02*
X877142Y-35682514D01*
X877142Y-35682514D02*
X853333Y-35758704D01*
X853333Y-35758704D02*
X829523Y-35796800D01*
X829523Y-35796800D02*
X781904Y-35834895D01*
X781904Y-35834895D02*
X734285Y-35834895D01*
X734285Y-35834895D02*
X686666Y-35796800D01*
X686666Y-35796800D02*
X662857Y-35758704D01*
X662857Y-35758704D02*
X639047Y-35682514D01*
X639047Y-35682514D02*
X615238Y-35530133D01*
X615238Y-35530133D02*
X615238Y-35339657D01*
X615238Y-35339657D02*
X639047Y-35187276D01*
X639047Y-35187276D02*
X662857Y-35111085D01*
X662857Y-35111085D02*
X686666Y-35072990D01*
X686666Y-35072990D02*
X734285Y-35034895D01*
X7949047Y-15902990D02*
X7901428Y-15864895D01*
X7901428Y-15864895D02*
X7829999Y-15864895D01*
X7829999Y-15864895D02*
X7758571Y-15902990D01*
X7758571Y-15902990D02*
X7710952Y-15979180D01*
X7710952Y-15979180D02*
X7687142Y-16055371D01*
X7687142Y-16055371D02*
X7663333Y-16207752D01*
X7663333Y-16207752D02*
X7663333Y-16322038D01*
X7663333Y-16322038D02*
X7687142Y-16474419D01*
X7687142Y-16474419D02*
X7710952Y-16550609D01*
X7710952Y-16550609D02*
X7758571Y-16626800D01*
X7758571Y-16626800D02*
X7829999Y-16664895D01*
X7829999Y-16664895D02*
X7877618Y-16664895D01*
X7877618Y-16664895D02*
X7949047Y-16626800D01*
X7949047Y-16626800D02*
X7972856Y-16588704D01*
X7972856Y-16588704D02*
X7972856Y-16322038D01*
X7972856Y-16322038D02*
X7877618Y-16322038D01*
X8187142Y-16664895D02*
X8187142Y-15864895D01*
X8187142Y-15864895D02*
X8472856Y-16664895D01*
X8472856Y-16664895D02*
X8472856Y-15864895D01*
X8710952Y-16664895D02*
X8710952Y-15864895D01*
X8710952Y-15864895D02*
X8830000Y-15864895D01*
X8830000Y-15864895D02*
X8901428Y-15902990D01*
X8901428Y-15902990D02*
X8949047Y-15979180D01*
X8949047Y-15979180D02*
X8972857Y-16055371D01*
X8972857Y-16055371D02*
X8996666Y-16207752D01*
X8996666Y-16207752D02*
X8996666Y-16322038D01*
X8996666Y-16322038D02*
X8972857Y-16474419D01*
X8972857Y-16474419D02*
X8949047Y-16550609D01*
X8949047Y-16550609D02*
X8901428Y-16626800D01*
X8901428Y-16626800D02*
X8830000Y-16664895D01*
X8830000Y-16664895D02*
X8710952Y-16664895D01*
X-161429Y-53388704D02*
X-185238Y-53426800D01*
X-185238Y-53426800D02*
X-256667Y-53464895D01*
X-256667Y-53464895D02*
X-304286Y-53464895D01*
X-304286Y-53464895D02*
X-375714Y-53426800D01*
X-375714Y-53426800D02*
X-423333Y-53350609D01*
X-423333Y-53350609D02*
X-447143Y-53274419D01*
X-447143Y-53274419D02*
X-470952Y-53122038D01*
X-470952Y-53122038D02*
X-470952Y-53007752D01*
X-470952Y-53007752D02*
X-447143Y-52855371D01*
X-447143Y-52855371D02*
X-423333Y-52779180D01*
X-423333Y-52779180D02*
X-375714Y-52702990D01*
X-375714Y-52702990D02*
X-304286Y-52664895D01*
X-304286Y-52664895D02*
X-256667Y-52664895D01*
X-256667Y-52664895D02*
X-185238Y-52702990D01*
X-185238Y-52702990D02*
X-161429Y-52741085D01*
X267143Y-52931561D02*
X267143Y-53464895D01*
X148095Y-52626800D02*
X29048Y-53198228D01*
X29048Y-53198228D02*
X338571Y-53198228D01*
X743333Y-52931561D02*
X743333Y-53464895D01*
X624285Y-52626800D02*
X505238Y-53198228D01*
X505238Y-53198228D02*
X814761Y-53198228D01*
X-1781296Y-47565428D02*
X-1743200Y-47589237D01*
X-1743200Y-47589237D02*
X-1705105Y-47660666D01*
X-1705105Y-47660666D02*
X-1705105Y-47708285D01*
X-1705105Y-47708285D02*
X-1743200Y-47779713D01*
X-1743200Y-47779713D02*
X-1819391Y-47827332D01*
X-1819391Y-47827332D02*
X-1895581Y-47851142D01*
X-1895581Y-47851142D02*
X-2047962Y-47874951D01*
X-2047962Y-47874951D02*
X-2162248Y-47874951D01*
X-2162248Y-47874951D02*
X-2314629Y-47851142D01*
X-2314629Y-47851142D02*
X-2390820Y-47827332D01*
X-2390820Y-47827332D02*
X-2467010Y-47779713D01*
X-2467010Y-47779713D02*
X-2505105Y-47708285D01*
X-2505105Y-47708285D02*
X-2505105Y-47660666D01*
X-2505105Y-47660666D02*
X-2467010Y-47589237D01*
X-2467010Y-47589237D02*
X-2428915Y-47565428D01*
X-2505105Y-47398761D02*
X-2505105Y-47089237D01*
X-2505105Y-47089237D02*
X-2200343Y-47255904D01*
X-2200343Y-47255904D02*
X-2200343Y-47184475D01*
X-2200343Y-47184475D02*
X-2162248Y-47136856D01*
X-2162248Y-47136856D02*
X-2124153Y-47113047D01*
X-2124153Y-47113047D02*
X-2047962Y-47089237D01*
X-2047962Y-47089237D02*
X-1857486Y-47089237D01*
X-1857486Y-47089237D02*
X-1781296Y-47113047D01*
X-1781296Y-47113047D02*
X-1743200Y-47136856D01*
X-1743200Y-47136856D02*
X-1705105Y-47184475D01*
X-1705105Y-47184475D02*
X-1705105Y-47327332D01*
X-1705105Y-47327332D02*
X-1743200Y-47374951D01*
X-1743200Y-47374951D02*
X-1781296Y-47398761D01*
X-2505105Y-46660666D02*
X-2505105Y-46755904D01*
X-2505105Y-46755904D02*
X-2467010Y-46803523D01*
X-2467010Y-46803523D02*
X-2428915Y-46827333D01*
X-2428915Y-46827333D02*
X-2314629Y-46874952D01*
X-2314629Y-46874952D02*
X-2162248Y-46898761D01*
X-2162248Y-46898761D02*
X-1857486Y-46898761D01*
X-1857486Y-46898761D02*
X-1781296Y-46874952D01*
X-1781296Y-46874952D02*
X-1743200Y-46851142D01*
X-1743200Y-46851142D02*
X-1705105Y-46803523D01*
X-1705105Y-46803523D02*
X-1705105Y-46708285D01*
X-1705105Y-46708285D02*
X-1743200Y-46660666D01*
X-1743200Y-46660666D02*
X-1781296Y-46636857D01*
X-1781296Y-46636857D02*
X-1857486Y-46613047D01*
X-1857486Y-46613047D02*
X-2047962Y-46613047D01*
X-2047962Y-46613047D02*
X-2124153Y-46636857D01*
X-2124153Y-46636857D02*
X-2162248Y-46660666D01*
X-2162248Y-46660666D02*
X-2200343Y-46708285D01*
X-2200343Y-46708285D02*
X-2200343Y-46803523D01*
X-2200343Y-46803523D02*
X-2162248Y-46851142D01*
X-2162248Y-46851142D02*
X-2124153Y-46874952D01*
X-2124153Y-46874952D02*
X-2047962Y-46898761D01*
X1764895Y-33389047D02*
X964895Y-33389047D01*
X964895Y-33389047D02*
X964895Y-33269999D01*
X964895Y-33269999D02*
X1002990Y-33198571D01*
X1002990Y-33198571D02*
X1079180Y-33150952D01*
X1079180Y-33150952D02*
X1155371Y-33127142D01*
X1155371Y-33127142D02*
X1307752Y-33103333D01*
X1307752Y-33103333D02*
X1422038Y-33103333D01*
X1422038Y-33103333D02*
X1574419Y-33127142D01*
X1574419Y-33127142D02*
X1650609Y-33150952D01*
X1650609Y-33150952D02*
X1726800Y-33198571D01*
X1726800Y-33198571D02*
X1764895Y-33269999D01*
X1764895Y-33269999D02*
X1764895Y-33389047D01*
X1041085Y-32912856D02*
X1002990Y-32889047D01*
X1002990Y-32889047D02*
X964895Y-32841428D01*
X964895Y-32841428D02*
X964895Y-32722380D01*
X964895Y-32722380D02*
X1002990Y-32674761D01*
X1002990Y-32674761D02*
X1041085Y-32650952D01*
X1041085Y-32650952D02*
X1117276Y-32627142D01*
X1117276Y-32627142D02*
X1193466Y-32627142D01*
X1193466Y-32627142D02*
X1307752Y-32650952D01*
X1307752Y-32650952D02*
X1764895Y-32936666D01*
X1764895Y-32936666D02*
X1764895Y-32627142D01*
X928704Y-41121428D02*
X966800Y-41145237D01*
X966800Y-41145237D02*
X1004895Y-41216666D01*
X1004895Y-41216666D02*
X1004895Y-41264285D01*
X1004895Y-41264285D02*
X966800Y-41335713D01*
X966800Y-41335713D02*
X890609Y-41383332D01*
X890609Y-41383332D02*
X814419Y-41407142D01*
X814419Y-41407142D02*
X662038Y-41430951D01*
X662038Y-41430951D02*
X547752Y-41430951D01*
X547752Y-41430951D02*
X395371Y-41407142D01*
X395371Y-41407142D02*
X319180Y-41383332D01*
X319180Y-41383332D02*
X242990Y-41335713D01*
X242990Y-41335713D02*
X204895Y-41264285D01*
X204895Y-41264285D02*
X204895Y-41216666D01*
X204895Y-41216666D02*
X242990Y-41145237D01*
X242990Y-41145237D02*
X281085Y-41121428D01*
X281085Y-40930951D02*
X242990Y-40907142D01*
X242990Y-40907142D02*
X204895Y-40859523D01*
X204895Y-40859523D02*
X204895Y-40740475D01*
X204895Y-40740475D02*
X242990Y-40692856D01*
X242990Y-40692856D02*
X281085Y-40669047D01*
X281085Y-40669047D02*
X357276Y-40645237D01*
X357276Y-40645237D02*
X433466Y-40645237D01*
X433466Y-40645237D02*
X547752Y-40669047D01*
X547752Y-40669047D02*
X1004895Y-40954761D01*
X1004895Y-40954761D02*
X1004895Y-40645237D01*
X204895Y-40192857D02*
X204895Y-40430952D01*
X204895Y-40430952D02*
X585847Y-40454761D01*
X585847Y-40454761D02*
X547752Y-40430952D01*
X547752Y-40430952D02*
X509657Y-40383333D01*
X509657Y-40383333D02*
X509657Y-40264285D01*
X509657Y-40264285D02*
X547752Y-40216666D01*
X547752Y-40216666D02*
X585847Y-40192857D01*
X585847Y-40192857D02*
X662038Y-40169047D01*
X662038Y-40169047D02*
X852514Y-40169047D01*
X852514Y-40169047D02*
X928704Y-40192857D01*
X928704Y-40192857D02*
X966800Y-40216666D01*
X966800Y-40216666D02*
X1004895Y-40264285D01*
X1004895Y-40264285D02*
X1004895Y-40383333D01*
X1004895Y-40383333D02*
X966800Y-40430952D01*
X966800Y-40430952D02*
X928704Y-40454761D01*
X3904762Y-14814895D02*
X4214286Y-14814895D01*
X4214286Y-14814895D02*
X4047619Y-15119657D01*
X4047619Y-15119657D02*
X4119048Y-15119657D01*
X4119048Y-15119657D02*
X4166667Y-15157752D01*
X4166667Y-15157752D02*
X4190476Y-15195847D01*
X4190476Y-15195847D02*
X4214286Y-15272038D01*
X4214286Y-15272038D02*
X4214286Y-15462514D01*
X4214286Y-15462514D02*
X4190476Y-15538704D01*
X4190476Y-15538704D02*
X4166667Y-15576800D01*
X4166667Y-15576800D02*
X4119048Y-15614895D01*
X4119048Y-15614895D02*
X3976191Y-15614895D01*
X3976191Y-15614895D02*
X3928572Y-15576800D01*
X3928572Y-15576800D02*
X3904762Y-15538704D01*
X4380952Y-15081561D02*
X4500000Y-15614895D01*
X4500000Y-15614895D02*
X4619047Y-15081561D01*
X4761904Y-14814895D02*
X5071428Y-14814895D01*
X5071428Y-14814895D02*
X4904761Y-15119657D01*
X4904761Y-15119657D02*
X4976190Y-15119657D01*
X4976190Y-15119657D02*
X5023809Y-15157752D01*
X5023809Y-15157752D02*
X5047618Y-15195847D01*
X5047618Y-15195847D02*
X5071428Y-15272038D01*
X5071428Y-15272038D02*
X5071428Y-15462514D01*
X5071428Y-15462514D02*
X5047618Y-15538704D01*
X5047618Y-15538704D02*
X5023809Y-15576800D01*
X5023809Y-15576800D02*
X4976190Y-15614895D01*
X4976190Y-15614895D02*
X4833333Y-15614895D01*
X4833333Y-15614895D02*
X4785714Y-15576800D01*
X4785714Y-15576800D02*
X4761904Y-15538704D01*
X-5553296Y-44911428D02*
X-5515200Y-44935237D01*
X-5515200Y-44935237D02*
X-5477105Y-45006666D01*
X-5477105Y-45006666D02*
X-5477105Y-45054285D01*
X-5477105Y-45054285D02*
X-5515200Y-45125713D01*
X-5515200Y-45125713D02*
X-5591391Y-45173332D01*
X-5591391Y-45173332D02*
X-5667581Y-45197142D01*
X-5667581Y-45197142D02*
X-5819962Y-45220951D01*
X-5819962Y-45220951D02*
X-5934248Y-45220951D01*
X-5934248Y-45220951D02*
X-6086629Y-45197142D01*
X-6086629Y-45197142D02*
X-6162820Y-45173332D01*
X-6162820Y-45173332D02*
X-6239010Y-45125713D01*
X-6239010Y-45125713D02*
X-6277105Y-45054285D01*
X-6277105Y-45054285D02*
X-6277105Y-45006666D01*
X-6277105Y-45006666D02*
X-6239010Y-44935237D01*
X-6239010Y-44935237D02*
X-6200915Y-44911428D01*
X-6277105Y-44744761D02*
X-6277105Y-44435237D01*
X-6277105Y-44435237D02*
X-5972343Y-44601904D01*
X-5972343Y-44601904D02*
X-5972343Y-44530475D01*
X-5972343Y-44530475D02*
X-5934248Y-44482856D01*
X-5934248Y-44482856D02*
X-5896153Y-44459047D01*
X-5896153Y-44459047D02*
X-5819962Y-44435237D01*
X-5819962Y-44435237D02*
X-5629486Y-44435237D01*
X-5629486Y-44435237D02*
X-5553296Y-44459047D01*
X-5553296Y-44459047D02*
X-5515200Y-44482856D01*
X-5515200Y-44482856D02*
X-5477105Y-44530475D01*
X-5477105Y-44530475D02*
X-5477105Y-44673332D01*
X-5477105Y-44673332D02*
X-5515200Y-44720951D01*
X-5515200Y-44720951D02*
X-5553296Y-44744761D01*
X-6277105Y-44125714D02*
X-6277105Y-44078095D01*
X-6277105Y-44078095D02*
X-6239010Y-44030476D01*
X-6239010Y-44030476D02*
X-6200915Y-44006666D01*
X-6200915Y-44006666D02*
X-6124724Y-43982857D01*
X-6124724Y-43982857D02*
X-5972343Y-43959047D01*
X-5972343Y-43959047D02*
X-5781867Y-43959047D01*
X-5781867Y-43959047D02*
X-5629486Y-43982857D01*
X-5629486Y-43982857D02*
X-5553296Y-44006666D01*
X-5553296Y-44006666D02*
X-5515200Y-44030476D01*
X-5515200Y-44030476D02*
X-5477105Y-44078095D01*
X-5477105Y-44078095D02*
X-5477105Y-44125714D01*
X-5477105Y-44125714D02*
X-5515200Y-44173333D01*
X-5515200Y-44173333D02*
X-5553296Y-44197142D01*
X-5553296Y-44197142D02*
X-5629486Y-44220952D01*
X-5629486Y-44220952D02*
X-5781867Y-44244761D01*
X-5781867Y-44244761D02*
X-5972343Y-44244761D01*
X-5972343Y-44244761D02*
X-6124724Y-44220952D01*
X-6124724Y-44220952D02*
X-6200915Y-44197142D01*
X-6200915Y-44197142D02*
X-6239010Y-44173333D01*
X-6239010Y-44173333D02*
X-6277105Y-44125714D01*
X-3359048Y-27105104D02*
X-3359048Y-26457485D01*
X-3359048Y-26457485D02*
X-3382858Y-26381295D01*
X-3382858Y-26381295D02*
X-3406667Y-26343200D01*
X-3406667Y-26343200D02*
X-3454286Y-26305104D01*
X-3454286Y-26305104D02*
X-3549524Y-26305104D01*
X-3549524Y-26305104D02*
X-3597143Y-26343200D01*
X-3597143Y-26343200D02*
X-3620953Y-26381295D01*
X-3620953Y-26381295D02*
X-3644762Y-26457485D01*
X-3644762Y-26457485D02*
X-3644762Y-27105104D01*
X-3835239Y-27105104D02*
X-4144763Y-27105104D01*
X-4144763Y-27105104D02*
X-3978096Y-26800342D01*
X-3978096Y-26800342D02*
X-4049525Y-26800342D01*
X-4049525Y-26800342D02*
X-4097144Y-26762247D01*
X-4097144Y-26762247D02*
X-4120953Y-26724152D01*
X-4120953Y-26724152D02*
X-4144763Y-26647961D01*
X-4144763Y-26647961D02*
X-4144763Y-26457485D01*
X-4144763Y-26457485D02*
X-4120953Y-26381295D01*
X-4120953Y-26381295D02*
X-4097144Y-26343200D01*
X-4097144Y-26343200D02*
X-4049525Y-26305104D01*
X-4049525Y-26305104D02*
X-3906668Y-26305104D01*
X-3906668Y-26305104D02*
X-3859049Y-26343200D01*
X-3859049Y-26343200D02*
X-3835239Y-26381295D01*
D14*
X-592858Y-26395190D02*
X-307144Y-26395190D01*
X-450001Y-26395190D02*
X-450001Y-26895190D01*
X-450001Y-26895190D02*
X-402382Y-26823761D01*
X-402382Y-26823761D02*
X-354763Y-26776142D01*
X-354763Y-26776142D02*
X-307144Y-26752333D01*
D10*
X-1283334Y-36874895D02*
X-1450000Y-36493942D01*
X-1569048Y-36874895D02*
X-1569048Y-36074895D01*
X-1569048Y-36074895D02*
X-1378572Y-36074895D01*
X-1378572Y-36074895D02*
X-1330953Y-36112990D01*
X-1330953Y-36112990D02*
X-1307143Y-36151085D01*
X-1307143Y-36151085D02*
X-1283334Y-36227276D01*
X-1283334Y-36227276D02*
X-1283334Y-36341561D01*
X-1283334Y-36341561D02*
X-1307143Y-36417752D01*
X-1307143Y-36417752D02*
X-1330953Y-36455847D01*
X-1330953Y-36455847D02*
X-1378572Y-36493942D01*
X-1378572Y-36493942D02*
X-1569048Y-36493942D01*
X-1045238Y-36874895D02*
X-950000Y-36874895D01*
X-950000Y-36874895D02*
X-902381Y-36836800D01*
X-902381Y-36836800D02*
X-878572Y-36798704D01*
X-878572Y-36798704D02*
X-830953Y-36684419D01*
X-830953Y-36684419D02*
X-807143Y-36532038D01*
X-807143Y-36532038D02*
X-807143Y-36227276D01*
X-807143Y-36227276D02*
X-830953Y-36151085D01*
X-830953Y-36151085D02*
X-854762Y-36112990D01*
X-854762Y-36112990D02*
X-902381Y-36074895D01*
X-902381Y-36074895D02*
X-997619Y-36074895D01*
X-997619Y-36074895D02*
X-1045238Y-36112990D01*
X-1045238Y-36112990D02*
X-1069048Y-36151085D01*
X-1069048Y-36151085D02*
X-1092857Y-36227276D01*
X-1092857Y-36227276D02*
X-1092857Y-36417752D01*
X-1092857Y-36417752D02*
X-1069048Y-36493942D01*
X-1069048Y-36493942D02*
X-1045238Y-36532038D01*
X-1045238Y-36532038D02*
X-997619Y-36570133D01*
X-997619Y-36570133D02*
X-902381Y-36570133D01*
X-902381Y-36570133D02*
X-854762Y-36532038D01*
X-854762Y-36532038D02*
X-830953Y-36493942D01*
X-830953Y-36493942D02*
X-807143Y-36417752D01*
X12050952Y-13324895D02*
X12050952Y-12524895D01*
X12050952Y-12524895D02*
X12170000Y-12524895D01*
X12170000Y-12524895D02*
X12241428Y-12562990D01*
X12241428Y-12562990D02*
X12289047Y-12639180D01*
X12289047Y-12639180D02*
X12312857Y-12715371D01*
X12312857Y-12715371D02*
X12336666Y-12867752D01*
X12336666Y-12867752D02*
X12336666Y-12982038D01*
X12336666Y-12982038D02*
X12312857Y-13134419D01*
X12312857Y-13134419D02*
X12289047Y-13210609D01*
X12289047Y-13210609D02*
X12241428Y-13286800D01*
X12241428Y-13286800D02*
X12170000Y-13324895D01*
X12170000Y-13324895D02*
X12050952Y-13324895D01*
X12765238Y-13324895D02*
X12765238Y-12905847D01*
X12765238Y-12905847D02*
X12741428Y-12829657D01*
X12741428Y-12829657D02*
X12693809Y-12791561D01*
X12693809Y-12791561D02*
X12598571Y-12791561D01*
X12598571Y-12791561D02*
X12550952Y-12829657D01*
X12765238Y-13286800D02*
X12717619Y-13324895D01*
X12717619Y-13324895D02*
X12598571Y-13324895D01*
X12598571Y-13324895D02*
X12550952Y-13286800D01*
X12550952Y-13286800D02*
X12527143Y-13210609D01*
X12527143Y-13210609D02*
X12527143Y-13134419D01*
X12527143Y-13134419D02*
X12550952Y-13058228D01*
X12550952Y-13058228D02*
X12598571Y-13020133D01*
X12598571Y-13020133D02*
X12717619Y-13020133D01*
X12717619Y-13020133D02*
X12765238Y-12982038D01*
X12931905Y-12791561D02*
X13122381Y-12791561D01*
X13003333Y-12524895D02*
X13003333Y-13210609D01*
X13003333Y-13210609D02*
X13027143Y-13286800D01*
X13027143Y-13286800D02*
X13074762Y-13324895D01*
X13074762Y-13324895D02*
X13122381Y-13324895D01*
X13503333Y-13324895D02*
X13503333Y-12905847D01*
X13503333Y-12905847D02*
X13479523Y-12829657D01*
X13479523Y-12829657D02*
X13431904Y-12791561D01*
X13431904Y-12791561D02*
X13336666Y-12791561D01*
X13336666Y-12791561D02*
X13289047Y-12829657D01*
X13503333Y-13286800D02*
X13455714Y-13324895D01*
X13455714Y-13324895D02*
X13336666Y-13324895D01*
X13336666Y-13324895D02*
X13289047Y-13286800D01*
X13289047Y-13286800D02*
X13265238Y-13210609D01*
X13265238Y-13210609D02*
X13265238Y-13134419D01*
X13265238Y-13134419D02*
X13289047Y-13058228D01*
X13289047Y-13058228D02*
X13336666Y-13020133D01*
X13336666Y-13020133D02*
X13455714Y-13020133D01*
X13455714Y-13020133D02*
X13503333Y-12982038D01*
X13622381Y-13401085D02*
X14003333Y-13401085D01*
X14408094Y-13324895D02*
X14241428Y-12943942D01*
X14122380Y-13324895D02*
X14122380Y-12524895D01*
X14122380Y-12524895D02*
X14312856Y-12524895D01*
X14312856Y-12524895D02*
X14360475Y-12562990D01*
X14360475Y-12562990D02*
X14384285Y-12601085D01*
X14384285Y-12601085D02*
X14408094Y-12677276D01*
X14408094Y-12677276D02*
X14408094Y-12791561D01*
X14408094Y-12791561D02*
X14384285Y-12867752D01*
X14384285Y-12867752D02*
X14360475Y-12905847D01*
X14360475Y-12905847D02*
X14312856Y-12943942D01*
X14312856Y-12943942D02*
X14122380Y-12943942D01*
X14574761Y-13324895D02*
X14836666Y-12791561D01*
X14574761Y-12791561D02*
X14836666Y-13324895D01*
X-4666667Y-13134895D02*
X-4666667Y-12334895D01*
X-4666667Y-12334895D02*
X-4547619Y-12334895D01*
X-4547619Y-12334895D02*
X-4476191Y-12372990D01*
X-4476191Y-12372990D02*
X-4428572Y-12449180D01*
X-4428572Y-12449180D02*
X-4404762Y-12525371D01*
X-4404762Y-12525371D02*
X-4380953Y-12677752D01*
X-4380953Y-12677752D02*
X-4380953Y-12792038D01*
X-4380953Y-12792038D02*
X-4404762Y-12944419D01*
X-4404762Y-12944419D02*
X-4428572Y-13020609D01*
X-4428572Y-13020609D02*
X-4476191Y-13096800D01*
X-4476191Y-13096800D02*
X-4547619Y-13134895D01*
X-4547619Y-13134895D02*
X-4666667Y-13134895D01*
X-3976191Y-13096800D02*
X-4023810Y-13134895D01*
X-4023810Y-13134895D02*
X-4119048Y-13134895D01*
X-4119048Y-13134895D02*
X-4166667Y-13096800D01*
X-4166667Y-13096800D02*
X-4190476Y-13020609D01*
X-4190476Y-13020609D02*
X-4190476Y-12715847D01*
X-4190476Y-12715847D02*
X-4166667Y-12639657D01*
X-4166667Y-12639657D02*
X-4119048Y-12601561D01*
X-4119048Y-12601561D02*
X-4023810Y-12601561D01*
X-4023810Y-12601561D02*
X-3976191Y-12639657D01*
X-3976191Y-12639657D02*
X-3952381Y-12715847D01*
X-3952381Y-12715847D02*
X-3952381Y-12792038D01*
X-3952381Y-12792038D02*
X-4190476Y-12868228D01*
X-3738096Y-13134895D02*
X-3738096Y-12334895D01*
X-3738096Y-12639657D02*
X-3690477Y-12601561D01*
X-3690477Y-12601561D02*
X-3595239Y-12601561D01*
X-3595239Y-12601561D02*
X-3547620Y-12639657D01*
X-3547620Y-12639657D02*
X-3523810Y-12677752D01*
X-3523810Y-12677752D02*
X-3500001Y-12753942D01*
X-3500001Y-12753942D02*
X-3500001Y-12982514D01*
X-3500001Y-12982514D02*
X-3523810Y-13058704D01*
X-3523810Y-13058704D02*
X-3547620Y-13096800D01*
X-3547620Y-13096800D02*
X-3595239Y-13134895D01*
X-3595239Y-13134895D02*
X-3690477Y-13134895D01*
X-3690477Y-13134895D02*
X-3738096Y-13096800D01*
X-3071429Y-12601561D02*
X-3071429Y-13134895D01*
X-3285715Y-12601561D02*
X-3285715Y-13020609D01*
X-3285715Y-13020609D02*
X-3261905Y-13096800D01*
X-3261905Y-13096800D02*
X-3214286Y-13134895D01*
X-3214286Y-13134895D02*
X-3142858Y-13134895D01*
X-3142858Y-13134895D02*
X-3095239Y-13096800D01*
X-3095239Y-13096800D02*
X-3071429Y-13058704D01*
X-2619048Y-12601561D02*
X-2619048Y-13249180D01*
X-2619048Y-13249180D02*
X-2642858Y-13325371D01*
X-2642858Y-13325371D02*
X-2666667Y-13363466D01*
X-2666667Y-13363466D02*
X-2714286Y-13401561D01*
X-2714286Y-13401561D02*
X-2785715Y-13401561D01*
X-2785715Y-13401561D02*
X-2833334Y-13363466D01*
X-2619048Y-13096800D02*
X-2666667Y-13134895D01*
X-2666667Y-13134895D02*
X-2761905Y-13134895D01*
X-2761905Y-13134895D02*
X-2809524Y-13096800D01*
X-2809524Y-13096800D02*
X-2833334Y-13058704D01*
X-2833334Y-13058704D02*
X-2857143Y-12982514D01*
X-2857143Y-12982514D02*
X-2857143Y-12753942D01*
X-2857143Y-12753942D02*
X-2833334Y-12677752D01*
X-2833334Y-12677752D02*
X-2809524Y-12639657D01*
X-2809524Y-12639657D02*
X-2761905Y-12601561D01*
X-2761905Y-12601561D02*
X-2666667Y-12601561D01*
X-2666667Y-12601561D02*
X-2619048Y-12639657D01*
X-2500000Y-13211085D02*
X-2119048Y-13211085D01*
X-1714287Y-13134895D02*
X-1880953Y-12753942D01*
X-2000001Y-13134895D02*
X-2000001Y-12334895D01*
X-2000001Y-12334895D02*
X-1809525Y-12334895D01*
X-1809525Y-12334895D02*
X-1761906Y-12372990D01*
X-1761906Y-12372990D02*
X-1738096Y-12411085D01*
X-1738096Y-12411085D02*
X-1714287Y-12487276D01*
X-1714287Y-12487276D02*
X-1714287Y-12601561D01*
X-1714287Y-12601561D02*
X-1738096Y-12677752D01*
X-1738096Y-12677752D02*
X-1761906Y-12715847D01*
X-1761906Y-12715847D02*
X-1809525Y-12753942D01*
X-1809525Y-12753942D02*
X-2000001Y-12753942D01*
X-1547620Y-13134895D02*
X-1285715Y-12601561D01*
X-1547620Y-12601561D02*
X-1285715Y-13134895D01*
X2034895Y-20791428D02*
X1653942Y-20958094D01*
X2034895Y-21077142D02*
X1234895Y-21077142D01*
X1234895Y-21077142D02*
X1234895Y-20886666D01*
X1234895Y-20886666D02*
X1272990Y-20839047D01*
X1272990Y-20839047D02*
X1311085Y-20815237D01*
X1311085Y-20815237D02*
X1387276Y-20791428D01*
X1387276Y-20791428D02*
X1501561Y-20791428D01*
X1501561Y-20791428D02*
X1577752Y-20815237D01*
X1577752Y-20815237D02*
X1615847Y-20839047D01*
X1615847Y-20839047D02*
X1653942Y-20886666D01*
X1653942Y-20886666D02*
X1653942Y-21077142D01*
X2034895Y-20315237D02*
X2034895Y-20600951D01*
X2034895Y-20458094D02*
X1234895Y-20458094D01*
X1234895Y-20458094D02*
X1349180Y-20505713D01*
X1349180Y-20505713D02*
X1425371Y-20553332D01*
X1425371Y-20553332D02*
X1463466Y-20600951D01*
X1311085Y-20124761D02*
X1272990Y-20100952D01*
X1272990Y-20100952D02*
X1234895Y-20053333D01*
X1234895Y-20053333D02*
X1234895Y-19934285D01*
X1234895Y-19934285D02*
X1272990Y-19886666D01*
X1272990Y-19886666D02*
X1311085Y-19862857D01*
X1311085Y-19862857D02*
X1387276Y-19839047D01*
X1387276Y-19839047D02*
X1463466Y-19839047D01*
X1463466Y-19839047D02*
X1577752Y-19862857D01*
X1577752Y-19862857D02*
X2034895Y-20148571D01*
X2034895Y-20148571D02*
X2034895Y-19839047D01*
D14*
X-9561429Y-43087404D02*
X-9585238Y-43125500D01*
X-9585238Y-43125500D02*
X-9656667Y-43163595D01*
X-9656667Y-43163595D02*
X-9704286Y-43163595D01*
X-9704286Y-43163595D02*
X-9775714Y-43125500D01*
X-9775714Y-43125500D02*
X-9823333Y-43049309D01*
X-9823333Y-43049309D02*
X-9847143Y-42973119D01*
X-9847143Y-42973119D02*
X-9870952Y-42820738D01*
X-9870952Y-42820738D02*
X-9870952Y-42706452D01*
X-9870952Y-42706452D02*
X-9847143Y-42554071D01*
X-9847143Y-42554071D02*
X-9823333Y-42477880D01*
X-9823333Y-42477880D02*
X-9775714Y-42401690D01*
X-9775714Y-42401690D02*
X-9704286Y-42363595D01*
X-9704286Y-42363595D02*
X-9656667Y-42363595D01*
X-9656667Y-42363595D02*
X-9585238Y-42401690D01*
X-9585238Y-42401690D02*
X-9561429Y-42439785D01*
X-9394762Y-42363595D02*
X-9085238Y-42363595D01*
X-9085238Y-42363595D02*
X-9251905Y-42668357D01*
X-9251905Y-42668357D02*
X-9180476Y-42668357D01*
X-9180476Y-42668357D02*
X-9132857Y-42706452D01*
X-9132857Y-42706452D02*
X-9109048Y-42744547D01*
X-9109048Y-42744547D02*
X-9085238Y-42820738D01*
X-9085238Y-42820738D02*
X-9085238Y-43011214D01*
X-9085238Y-43011214D02*
X-9109048Y-43087404D01*
X-9109048Y-43087404D02*
X-9132857Y-43125500D01*
X-9132857Y-43125500D02*
X-9180476Y-43163595D01*
X-9180476Y-43163595D02*
X-9323333Y-43163595D01*
X-9323333Y-43163595D02*
X-9370952Y-43125500D01*
X-9370952Y-43125500D02*
X-9394762Y-43087404D01*
X-8918572Y-42363595D02*
X-8585239Y-42363595D01*
X-8585239Y-42363595D02*
X-8799524Y-43163595D01*
D10*
X-5191429Y-37238704D02*
X-5215238Y-37276800D01*
X-5215238Y-37276800D02*
X-5286667Y-37314895D01*
X-5286667Y-37314895D02*
X-5334286Y-37314895D01*
X-5334286Y-37314895D02*
X-5405714Y-37276800D01*
X-5405714Y-37276800D02*
X-5453333Y-37200609D01*
X-5453333Y-37200609D02*
X-5477143Y-37124419D01*
X-5477143Y-37124419D02*
X-5500952Y-36972038D01*
X-5500952Y-36972038D02*
X-5500952Y-36857752D01*
X-5500952Y-36857752D02*
X-5477143Y-36705371D01*
X-5477143Y-36705371D02*
X-5453333Y-36629180D01*
X-5453333Y-36629180D02*
X-5405714Y-36552990D01*
X-5405714Y-36552990D02*
X-5334286Y-36514895D01*
X-5334286Y-36514895D02*
X-5286667Y-36514895D01*
X-5286667Y-36514895D02*
X-5215238Y-36552990D01*
X-5215238Y-36552990D02*
X-5191429Y-36591085D01*
X-5024762Y-36514895D02*
X-4715238Y-36514895D01*
X-4715238Y-36514895D02*
X-4881905Y-36819657D01*
X-4881905Y-36819657D02*
X-4810476Y-36819657D01*
X-4810476Y-36819657D02*
X-4762857Y-36857752D01*
X-4762857Y-36857752D02*
X-4739048Y-36895847D01*
X-4739048Y-36895847D02*
X-4715238Y-36972038D01*
X-4715238Y-36972038D02*
X-4715238Y-37162514D01*
X-4715238Y-37162514D02*
X-4739048Y-37238704D01*
X-4739048Y-37238704D02*
X-4762857Y-37276800D01*
X-4762857Y-37276800D02*
X-4810476Y-37314895D01*
X-4810476Y-37314895D02*
X-4953333Y-37314895D01*
X-4953333Y-37314895D02*
X-5000952Y-37276800D01*
X-5000952Y-37276800D02*
X-5024762Y-37238704D01*
X-4524762Y-36591085D02*
X-4500953Y-36552990D01*
X-4500953Y-36552990D02*
X-4453334Y-36514895D01*
X-4453334Y-36514895D02*
X-4334286Y-36514895D01*
X-4334286Y-36514895D02*
X-4286667Y-36552990D01*
X-4286667Y-36552990D02*
X-4262858Y-36591085D01*
X-4262858Y-36591085D02*
X-4239048Y-36667276D01*
X-4239048Y-36667276D02*
X-4239048Y-36743466D01*
X-4239048Y-36743466D02*
X-4262858Y-36857752D01*
X-4262858Y-36857752D02*
X-4548572Y-37314895D01*
X-4548572Y-37314895D02*
X-4239048Y-37314895D01*
X248571Y-42488704D02*
X224762Y-42526800D01*
X224762Y-42526800D02*
X153333Y-42564895D01*
X153333Y-42564895D02*
X105714Y-42564895D01*
X105714Y-42564895D02*
X34286Y-42526800D01*
X34286Y-42526800D02*
X-13333Y-42450609D01*
X-13333Y-42450609D02*
X-37143Y-42374419D01*
X-37143Y-42374419D02*
X-60952Y-42222038D01*
X-60952Y-42222038D02*
X-60952Y-42107752D01*
X-60952Y-42107752D02*
X-37143Y-41955371D01*
X-37143Y-41955371D02*
X-13333Y-41879180D01*
X-13333Y-41879180D02*
X34286Y-41802990D01*
X34286Y-41802990D02*
X105714Y-41764895D01*
X105714Y-41764895D02*
X153333Y-41764895D01*
X153333Y-41764895D02*
X224762Y-41802990D01*
X224762Y-41802990D02*
X248571Y-41841085D01*
X439048Y-41841085D02*
X462857Y-41802990D01*
X462857Y-41802990D02*
X510476Y-41764895D01*
X510476Y-41764895D02*
X629524Y-41764895D01*
X629524Y-41764895D02*
X677143Y-41802990D01*
X677143Y-41802990D02*
X700952Y-41841085D01*
X700952Y-41841085D02*
X724762Y-41917276D01*
X724762Y-41917276D02*
X724762Y-41993466D01*
X724762Y-41993466D02*
X700952Y-42107752D01*
X700952Y-42107752D02*
X415238Y-42564895D01*
X415238Y-42564895D02*
X724762Y-42564895D01*
X891428Y-41764895D02*
X1224761Y-41764895D01*
X1224761Y-41764895D02*
X1010476Y-42564895D01*
X-6351296Y-43151428D02*
X-6313200Y-43175237D01*
X-6313200Y-43175237D02*
X-6275105Y-43246666D01*
X-6275105Y-43246666D02*
X-6275105Y-43294285D01*
X-6275105Y-43294285D02*
X-6313200Y-43365713D01*
X-6313200Y-43365713D02*
X-6389391Y-43413332D01*
X-6389391Y-43413332D02*
X-6465581Y-43437142D01*
X-6465581Y-43437142D02*
X-6617962Y-43460951D01*
X-6617962Y-43460951D02*
X-6732248Y-43460951D01*
X-6732248Y-43460951D02*
X-6884629Y-43437142D01*
X-6884629Y-43437142D02*
X-6960820Y-43413332D01*
X-6960820Y-43413332D02*
X-7037010Y-43365713D01*
X-7037010Y-43365713D02*
X-7075105Y-43294285D01*
X-7075105Y-43294285D02*
X-7075105Y-43246666D01*
X-7075105Y-43246666D02*
X-7037010Y-43175237D01*
X-7037010Y-43175237D02*
X-6998915Y-43151428D01*
X-7075105Y-42984761D02*
X-7075105Y-42675237D01*
X-7075105Y-42675237D02*
X-6770343Y-42841904D01*
X-6770343Y-42841904D02*
X-6770343Y-42770475D01*
X-6770343Y-42770475D02*
X-6732248Y-42722856D01*
X-6732248Y-42722856D02*
X-6694153Y-42699047D01*
X-6694153Y-42699047D02*
X-6617962Y-42675237D01*
X-6617962Y-42675237D02*
X-6427486Y-42675237D01*
X-6427486Y-42675237D02*
X-6351296Y-42699047D01*
X-6351296Y-42699047D02*
X-6313200Y-42722856D01*
X-6313200Y-42722856D02*
X-6275105Y-42770475D01*
X-6275105Y-42770475D02*
X-6275105Y-42913332D01*
X-6275105Y-42913332D02*
X-6313200Y-42960951D01*
X-6313200Y-42960951D02*
X-6351296Y-42984761D01*
X-7075105Y-42508571D02*
X-7075105Y-42199047D01*
X-7075105Y-42199047D02*
X-6770343Y-42365714D01*
X-6770343Y-42365714D02*
X-6770343Y-42294285D01*
X-6770343Y-42294285D02*
X-6732248Y-42246666D01*
X-6732248Y-42246666D02*
X-6694153Y-42222857D01*
X-6694153Y-42222857D02*
X-6617962Y-42199047D01*
X-6617962Y-42199047D02*
X-6427486Y-42199047D01*
X-6427486Y-42199047D02*
X-6351296Y-42222857D01*
X-6351296Y-42222857D02*
X-6313200Y-42246666D01*
X-6313200Y-42246666D02*
X-6275105Y-42294285D01*
X-6275105Y-42294285D02*
X-6275105Y-42437142D01*
X-6275105Y-42437142D02*
X-6313200Y-42484761D01*
X-6313200Y-42484761D02*
X-6351296Y-42508571D01*
X-8347296Y-45621428D02*
X-8309200Y-45645237D01*
X-8309200Y-45645237D02*
X-8271105Y-45716666D01*
X-8271105Y-45716666D02*
X-8271105Y-45764285D01*
X-8271105Y-45764285D02*
X-8309200Y-45835713D01*
X-8309200Y-45835713D02*
X-8385391Y-45883332D01*
X-8385391Y-45883332D02*
X-8461581Y-45907142D01*
X-8461581Y-45907142D02*
X-8613962Y-45930951D01*
X-8613962Y-45930951D02*
X-8728248Y-45930951D01*
X-8728248Y-45930951D02*
X-8880629Y-45907142D01*
X-8880629Y-45907142D02*
X-8956820Y-45883332D01*
X-8956820Y-45883332D02*
X-9033010Y-45835713D01*
X-9033010Y-45835713D02*
X-9071105Y-45764285D01*
X-9071105Y-45764285D02*
X-9071105Y-45716666D01*
X-9071105Y-45716666D02*
X-9033010Y-45645237D01*
X-9033010Y-45645237D02*
X-8994915Y-45621428D01*
X-8994915Y-45430951D02*
X-9033010Y-45407142D01*
X-9033010Y-45407142D02*
X-9071105Y-45359523D01*
X-9071105Y-45359523D02*
X-9071105Y-45240475D01*
X-9071105Y-45240475D02*
X-9033010Y-45192856D01*
X-9033010Y-45192856D02*
X-8994915Y-45169047D01*
X-8994915Y-45169047D02*
X-8918724Y-45145237D01*
X-8918724Y-45145237D02*
X-8842534Y-45145237D01*
X-8842534Y-45145237D02*
X-8728248Y-45169047D01*
X-8728248Y-45169047D02*
X-8271105Y-45454761D01*
X-8271105Y-45454761D02*
X-8271105Y-45145237D01*
X-9071105Y-44716666D02*
X-9071105Y-44811904D01*
X-9071105Y-44811904D02*
X-9033010Y-44859523D01*
X-9033010Y-44859523D02*
X-8994915Y-44883333D01*
X-8994915Y-44883333D02*
X-8880629Y-44930952D01*
X-8880629Y-44930952D02*
X-8728248Y-44954761D01*
X-8728248Y-44954761D02*
X-8423486Y-44954761D01*
X-8423486Y-44954761D02*
X-8347296Y-44930952D01*
X-8347296Y-44930952D02*
X-8309200Y-44907142D01*
X-8309200Y-44907142D02*
X-8271105Y-44859523D01*
X-8271105Y-44859523D02*
X-8271105Y-44764285D01*
X-8271105Y-44764285D02*
X-8309200Y-44716666D01*
X-8309200Y-44716666D02*
X-8347296Y-44692857D01*
X-8347296Y-44692857D02*
X-8423486Y-44669047D01*
X-8423486Y-44669047D02*
X-8613962Y-44669047D01*
X-8613962Y-44669047D02*
X-8690153Y-44692857D01*
X-8690153Y-44692857D02*
X-8728248Y-44716666D01*
X-8728248Y-44716666D02*
X-8766343Y-44764285D01*
X-8766343Y-44764285D02*
X-8766343Y-44859523D01*
X-8766343Y-44859523D02*
X-8728248Y-44907142D01*
X-8728248Y-44907142D02*
X-8690153Y-44930952D01*
X-8690153Y-44930952D02*
X-8613962Y-44954761D01*
X-13954095Y-32495942D02*
X-13954095Y-32876895D01*
X-14120761Y-32076895D02*
X-13954095Y-32495942D01*
X-13954095Y-32495942D02*
X-13787428Y-32076895D01*
X-13644571Y-32153085D02*
X-13620762Y-32114990D01*
X-13620762Y-32114990D02*
X-13573143Y-32076895D01*
X-13573143Y-32076895D02*
X-13454095Y-32076895D01*
X-13454095Y-32076895D02*
X-13406476Y-32114990D01*
X-13406476Y-32114990D02*
X-13382667Y-32153085D01*
X-13382667Y-32153085D02*
X-13358857Y-32229276D01*
X-13358857Y-32229276D02*
X-13358857Y-32305466D01*
X-13358857Y-32305466D02*
X-13382667Y-32419752D01*
X-13382667Y-32419752D02*
X-13668381Y-32876895D01*
X-13668381Y-32876895D02*
X-13358857Y-32876895D01*
X-11541143Y-32738109D02*
X-11826857Y-32738109D01*
X-11684000Y-32738109D02*
X-11684000Y-32238109D01*
X-11684000Y-32238109D02*
X-11731619Y-32309538D01*
X-11731619Y-32309538D02*
X-11779238Y-32357157D01*
X-11779238Y-32357157D02*
X-11826857Y-32380966D01*
X-7541296Y-43091428D02*
X-7503200Y-43115237D01*
X-7503200Y-43115237D02*
X-7465105Y-43186666D01*
X-7465105Y-43186666D02*
X-7465105Y-43234285D01*
X-7465105Y-43234285D02*
X-7503200Y-43305713D01*
X-7503200Y-43305713D02*
X-7579391Y-43353332D01*
X-7579391Y-43353332D02*
X-7655581Y-43377142D01*
X-7655581Y-43377142D02*
X-7807962Y-43400951D01*
X-7807962Y-43400951D02*
X-7922248Y-43400951D01*
X-7922248Y-43400951D02*
X-8074629Y-43377142D01*
X-8074629Y-43377142D02*
X-8150820Y-43353332D01*
X-8150820Y-43353332D02*
X-8227010Y-43305713D01*
X-8227010Y-43305713D02*
X-8265105Y-43234285D01*
X-8265105Y-43234285D02*
X-8265105Y-43186666D01*
X-8265105Y-43186666D02*
X-8227010Y-43115237D01*
X-8227010Y-43115237D02*
X-8188915Y-43091428D01*
X-8265105Y-42924761D02*
X-8265105Y-42615237D01*
X-8265105Y-42615237D02*
X-7960343Y-42781904D01*
X-7960343Y-42781904D02*
X-7960343Y-42710475D01*
X-7960343Y-42710475D02*
X-7922248Y-42662856D01*
X-7922248Y-42662856D02*
X-7884153Y-42639047D01*
X-7884153Y-42639047D02*
X-7807962Y-42615237D01*
X-7807962Y-42615237D02*
X-7617486Y-42615237D01*
X-7617486Y-42615237D02*
X-7541296Y-42639047D01*
X-7541296Y-42639047D02*
X-7503200Y-42662856D01*
X-7503200Y-42662856D02*
X-7465105Y-42710475D01*
X-7465105Y-42710475D02*
X-7465105Y-42853332D01*
X-7465105Y-42853332D02*
X-7503200Y-42900951D01*
X-7503200Y-42900951D02*
X-7541296Y-42924761D01*
X-8265105Y-42162857D02*
X-8265105Y-42400952D01*
X-8265105Y-42400952D02*
X-7884153Y-42424761D01*
X-7884153Y-42424761D02*
X-7922248Y-42400952D01*
X-7922248Y-42400952D02*
X-7960343Y-42353333D01*
X-7960343Y-42353333D02*
X-7960343Y-42234285D01*
X-7960343Y-42234285D02*
X-7922248Y-42186666D01*
X-7922248Y-42186666D02*
X-7884153Y-42162857D01*
X-7884153Y-42162857D02*
X-7807962Y-42139047D01*
X-7807962Y-42139047D02*
X-7617486Y-42139047D01*
X-7617486Y-42139047D02*
X-7541296Y-42162857D01*
X-7541296Y-42162857D02*
X-7503200Y-42186666D01*
X-7503200Y-42186666D02*
X-7465105Y-42234285D01*
X-7465105Y-42234285D02*
X-7465105Y-42353333D01*
X-7465105Y-42353333D02*
X-7503200Y-42400952D01*
X-7503200Y-42400952D02*
X-7541296Y-42424761D01*
X-6713334Y-17844895D02*
X-6880000Y-17463942D01*
X-6999048Y-17844895D02*
X-6999048Y-17044895D01*
X-6999048Y-17044895D02*
X-6808572Y-17044895D01*
X-6808572Y-17044895D02*
X-6760953Y-17082990D01*
X-6760953Y-17082990D02*
X-6737143Y-17121085D01*
X-6737143Y-17121085D02*
X-6713334Y-17197276D01*
X-6713334Y-17197276D02*
X-6713334Y-17311561D01*
X-6713334Y-17311561D02*
X-6737143Y-17387752D01*
X-6737143Y-17387752D02*
X-6760953Y-17425847D01*
X-6760953Y-17425847D02*
X-6808572Y-17463942D01*
X-6808572Y-17463942D02*
X-6999048Y-17463942D01*
X-6522857Y-17121085D02*
X-6499048Y-17082990D01*
X-6499048Y-17082990D02*
X-6451429Y-17044895D01*
X-6451429Y-17044895D02*
X-6332381Y-17044895D01*
X-6332381Y-17044895D02*
X-6284762Y-17082990D01*
X-6284762Y-17082990D02*
X-6260953Y-17121085D01*
X-6260953Y-17121085D02*
X-6237143Y-17197276D01*
X-6237143Y-17197276D02*
X-6237143Y-17273466D01*
X-6237143Y-17273466D02*
X-6260953Y-17387752D01*
X-6260953Y-17387752D02*
X-6546667Y-17844895D01*
X-6546667Y-17844895D02*
X-6237143Y-17844895D01*
D14*
X-6139048Y-51263595D02*
X-6139048Y-50463595D01*
X-6139048Y-50463595D02*
X-6020000Y-50463595D01*
X-6020000Y-50463595D02*
X-5948572Y-50501690D01*
X-5948572Y-50501690D02*
X-5900953Y-50577880D01*
X-5900953Y-50577880D02*
X-5877143Y-50654071D01*
X-5877143Y-50654071D02*
X-5853334Y-50806452D01*
X-5853334Y-50806452D02*
X-5853334Y-50920738D01*
X-5853334Y-50920738D02*
X-5877143Y-51073119D01*
X-5877143Y-51073119D02*
X-5900953Y-51149309D01*
X-5900953Y-51149309D02*
X-5948572Y-51225500D01*
X-5948572Y-51225500D02*
X-6020000Y-51263595D01*
X-6020000Y-51263595D02*
X-6139048Y-51263595D01*
X-5686667Y-50463595D02*
X-5377143Y-50463595D01*
X-5377143Y-50463595D02*
X-5543810Y-50768357D01*
X-5543810Y-50768357D02*
X-5472381Y-50768357D01*
X-5472381Y-50768357D02*
X-5424762Y-50806452D01*
X-5424762Y-50806452D02*
X-5400953Y-50844547D01*
X-5400953Y-50844547D02*
X-5377143Y-50920738D01*
X-5377143Y-50920738D02*
X-5377143Y-51111214D01*
X-5377143Y-51111214D02*
X-5400953Y-51187404D01*
X-5400953Y-51187404D02*
X-5424762Y-51225500D01*
X-5424762Y-51225500D02*
X-5472381Y-51263595D01*
X-5472381Y-51263595D02*
X-5615238Y-51263595D01*
X-5615238Y-51263595D02*
X-5662857Y-51225500D01*
X-5662857Y-51225500D02*
X-5686667Y-51187404D01*
D10*
X-16184896Y-35649047D02*
X-16832515Y-35649047D01*
X-16832515Y-35649047D02*
X-16908705Y-35672857D01*
X-16908705Y-35672857D02*
X-16946800Y-35696666D01*
X-16946800Y-35696666D02*
X-16984896Y-35744285D01*
X-16984896Y-35744285D02*
X-16984896Y-35839523D01*
X-16984896Y-35839523D02*
X-16946800Y-35887142D01*
X-16946800Y-35887142D02*
X-16908705Y-35910952D01*
X-16908705Y-35910952D02*
X-16832515Y-35934761D01*
X-16832515Y-35934761D02*
X-16184896Y-35934761D01*
X-16184896Y-36387143D02*
X-16184896Y-36291905D01*
X-16184896Y-36291905D02*
X-16222991Y-36244286D01*
X-16222991Y-36244286D02*
X-16261086Y-36220476D01*
X-16261086Y-36220476D02*
X-16375372Y-36172857D01*
X-16375372Y-36172857D02*
X-16527753Y-36149048D01*
X-16527753Y-36149048D02*
X-16832515Y-36149048D01*
X-16832515Y-36149048D02*
X-16908705Y-36172857D01*
X-16908705Y-36172857D02*
X-16946800Y-36196667D01*
X-16946800Y-36196667D02*
X-16984896Y-36244286D01*
X-16984896Y-36244286D02*
X-16984896Y-36339524D01*
X-16984896Y-36339524D02*
X-16946800Y-36387143D01*
X-16946800Y-36387143D02*
X-16908705Y-36410952D01*
X-16908705Y-36410952D02*
X-16832515Y-36434762D01*
X-16832515Y-36434762D02*
X-16642039Y-36434762D01*
X-16642039Y-36434762D02*
X-16565848Y-36410952D01*
X-16565848Y-36410952D02*
X-16527753Y-36387143D01*
X-16527753Y-36387143D02*
X-16489658Y-36339524D01*
X-16489658Y-36339524D02*
X-16489658Y-36244286D01*
X-16489658Y-36244286D02*
X-16527753Y-36196667D01*
X-16527753Y-36196667D02*
X-16565848Y-36172857D01*
X-16565848Y-36172857D02*
X-16642039Y-36149048D01*
X-10501296Y-43751428D02*
X-10463200Y-43775237D01*
X-10463200Y-43775237D02*
X-10425105Y-43846666D01*
X-10425105Y-43846666D02*
X-10425105Y-43894285D01*
X-10425105Y-43894285D02*
X-10463200Y-43965713D01*
X-10463200Y-43965713D02*
X-10539391Y-44013332D01*
X-10539391Y-44013332D02*
X-10615581Y-44037142D01*
X-10615581Y-44037142D02*
X-10767962Y-44060951D01*
X-10767962Y-44060951D02*
X-10882248Y-44060951D01*
X-10882248Y-44060951D02*
X-11034629Y-44037142D01*
X-11034629Y-44037142D02*
X-11110820Y-44013332D01*
X-11110820Y-44013332D02*
X-11187010Y-43965713D01*
X-11187010Y-43965713D02*
X-11225105Y-43894285D01*
X-11225105Y-43894285D02*
X-11225105Y-43846666D01*
X-11225105Y-43846666D02*
X-11187010Y-43775237D01*
X-11187010Y-43775237D02*
X-11148915Y-43751428D01*
X-10958439Y-43322856D02*
X-10425105Y-43322856D01*
X-11263200Y-43441904D02*
X-10691772Y-43560951D01*
X-10691772Y-43560951D02*
X-10691772Y-43251428D01*
X-11225105Y-42846666D02*
X-11225105Y-42941904D01*
X-11225105Y-42941904D02*
X-11187010Y-42989523D01*
X-11187010Y-42989523D02*
X-11148915Y-43013333D01*
X-11148915Y-43013333D02*
X-11034629Y-43060952D01*
X-11034629Y-43060952D02*
X-10882248Y-43084761D01*
X-10882248Y-43084761D02*
X-10577486Y-43084761D01*
X-10577486Y-43084761D02*
X-10501296Y-43060952D01*
X-10501296Y-43060952D02*
X-10463200Y-43037142D01*
X-10463200Y-43037142D02*
X-10425105Y-42989523D01*
X-10425105Y-42989523D02*
X-10425105Y-42894285D01*
X-10425105Y-42894285D02*
X-10463200Y-42846666D01*
X-10463200Y-42846666D02*
X-10501296Y-42822857D01*
X-10501296Y-42822857D02*
X-10577486Y-42799047D01*
X-10577486Y-42799047D02*
X-10767962Y-42799047D01*
X-10767962Y-42799047D02*
X-10844153Y-42822857D01*
X-10844153Y-42822857D02*
X-10882248Y-42846666D01*
X-10882248Y-42846666D02*
X-10920343Y-42894285D01*
X-10920343Y-42894285D02*
X-10920343Y-42989523D01*
X-10920343Y-42989523D02*
X-10882248Y-43037142D01*
X-10882248Y-43037142D02*
X-10844153Y-43060952D01*
X-10844153Y-43060952D02*
X-10767962Y-43084761D01*
X-10521296Y-40791428D02*
X-10483200Y-40815237D01*
X-10483200Y-40815237D02*
X-10445105Y-40886666D01*
X-10445105Y-40886666D02*
X-10445105Y-40934285D01*
X-10445105Y-40934285D02*
X-10483200Y-41005713D01*
X-10483200Y-41005713D02*
X-10559391Y-41053332D01*
X-10559391Y-41053332D02*
X-10635581Y-41077142D01*
X-10635581Y-41077142D02*
X-10787962Y-41100951D01*
X-10787962Y-41100951D02*
X-10902248Y-41100951D01*
X-10902248Y-41100951D02*
X-11054629Y-41077142D01*
X-11054629Y-41077142D02*
X-11130820Y-41053332D01*
X-11130820Y-41053332D02*
X-11207010Y-41005713D01*
X-11207010Y-41005713D02*
X-11245105Y-40934285D01*
X-11245105Y-40934285D02*
X-11245105Y-40886666D01*
X-11245105Y-40886666D02*
X-11207010Y-40815237D01*
X-11207010Y-40815237D02*
X-11168915Y-40791428D01*
X-10978439Y-40362856D02*
X-10445105Y-40362856D01*
X-11283200Y-40481904D02*
X-10711772Y-40600951D01*
X-10711772Y-40600951D02*
X-10711772Y-40291428D01*
X-11245105Y-40005714D02*
X-11245105Y-39958095D01*
X-11245105Y-39958095D02*
X-11207010Y-39910476D01*
X-11207010Y-39910476D02*
X-11168915Y-39886666D01*
X-11168915Y-39886666D02*
X-11092724Y-39862857D01*
X-11092724Y-39862857D02*
X-10940343Y-39839047D01*
X-10940343Y-39839047D02*
X-10749867Y-39839047D01*
X-10749867Y-39839047D02*
X-10597486Y-39862857D01*
X-10597486Y-39862857D02*
X-10521296Y-39886666D01*
X-10521296Y-39886666D02*
X-10483200Y-39910476D01*
X-10483200Y-39910476D02*
X-10445105Y-39958095D01*
X-10445105Y-39958095D02*
X-10445105Y-40005714D01*
X-10445105Y-40005714D02*
X-10483200Y-40053333D01*
X-10483200Y-40053333D02*
X-10521296Y-40077142D01*
X-10521296Y-40077142D02*
X-10597486Y-40100952D01*
X-10597486Y-40100952D02*
X-10749867Y-40124761D01*
X-10749867Y-40124761D02*
X-10940343Y-40124761D01*
X-10940343Y-40124761D02*
X-11092724Y-40100952D01*
X-11092724Y-40100952D02*
X-11168915Y-40077142D01*
X-11168915Y-40077142D02*
X-11207010Y-40053333D01*
X-11207010Y-40053333D02*
X-11245105Y-40005714D01*
X-8311429Y-14374895D02*
X-8478095Y-13993942D01*
X-8597143Y-14374895D02*
X-8597143Y-13574895D01*
X-8597143Y-13574895D02*
X-8406667Y-13574895D01*
X-8406667Y-13574895D02*
X-8359048Y-13612990D01*
X-8359048Y-13612990D02*
X-8335238Y-13651085D01*
X-8335238Y-13651085D02*
X-8311429Y-13727276D01*
X-8311429Y-13727276D02*
X-8311429Y-13841561D01*
X-8311429Y-13841561D02*
X-8335238Y-13917752D01*
X-8335238Y-13917752D02*
X-8359048Y-13955847D01*
X-8359048Y-13955847D02*
X-8406667Y-13993942D01*
X-8406667Y-13993942D02*
X-8597143Y-13993942D01*
X-7835238Y-14374895D02*
X-8120952Y-14374895D01*
X-7978095Y-14374895D02*
X-7978095Y-13574895D01*
X-7978095Y-13574895D02*
X-8025714Y-13689180D01*
X-8025714Y-13689180D02*
X-8073333Y-13765371D01*
X-8073333Y-13765371D02*
X-8120952Y-13803466D01*
X-7406667Y-13574895D02*
X-7501905Y-13574895D01*
X-7501905Y-13574895D02*
X-7549524Y-13612990D01*
X-7549524Y-13612990D02*
X-7573334Y-13651085D01*
X-7573334Y-13651085D02*
X-7620953Y-13765371D01*
X-7620953Y-13765371D02*
X-7644762Y-13917752D01*
X-7644762Y-13917752D02*
X-7644762Y-14222514D01*
X-7644762Y-14222514D02*
X-7620953Y-14298704D01*
X-7620953Y-14298704D02*
X-7597143Y-14336800D01*
X-7597143Y-14336800D02*
X-7549524Y-14374895D01*
X-7549524Y-14374895D02*
X-7454286Y-14374895D01*
X-7454286Y-14374895D02*
X-7406667Y-14336800D01*
X-7406667Y-14336800D02*
X-7382858Y-14298704D01*
X-7382858Y-14298704D02*
X-7359048Y-14222514D01*
X-7359048Y-14222514D02*
X-7359048Y-14032038D01*
X-7359048Y-14032038D02*
X-7382858Y-13955847D01*
X-7382858Y-13955847D02*
X-7406667Y-13917752D01*
X-7406667Y-13917752D02*
X-7454286Y-13879657D01*
X-7454286Y-13879657D02*
X-7549524Y-13879657D01*
X-7549524Y-13879657D02*
X-7597143Y-13917752D01*
X-7597143Y-13917752D02*
X-7620953Y-13955847D01*
X-7620953Y-13955847D02*
X-7644762Y-14032038D01*
X-251296Y-40521428D02*
X-213200Y-40545237D01*
X-213200Y-40545237D02*
X-175105Y-40616666D01*
X-175105Y-40616666D02*
X-175105Y-40664285D01*
X-175105Y-40664285D02*
X-213200Y-40735713D01*
X-213200Y-40735713D02*
X-289391Y-40783332D01*
X-289391Y-40783332D02*
X-365581Y-40807142D01*
X-365581Y-40807142D02*
X-517962Y-40830951D01*
X-517962Y-40830951D02*
X-632248Y-40830951D01*
X-632248Y-40830951D02*
X-784629Y-40807142D01*
X-784629Y-40807142D02*
X-860820Y-40783332D01*
X-860820Y-40783332D02*
X-937010Y-40735713D01*
X-937010Y-40735713D02*
X-975105Y-40664285D01*
X-975105Y-40664285D02*
X-975105Y-40616666D01*
X-975105Y-40616666D02*
X-937010Y-40545237D01*
X-937010Y-40545237D02*
X-898915Y-40521428D01*
X-898915Y-40330951D02*
X-937010Y-40307142D01*
X-937010Y-40307142D02*
X-975105Y-40259523D01*
X-975105Y-40259523D02*
X-975105Y-40140475D01*
X-975105Y-40140475D02*
X-937010Y-40092856D01*
X-937010Y-40092856D02*
X-898915Y-40069047D01*
X-898915Y-40069047D02*
X-822724Y-40045237D01*
X-822724Y-40045237D02*
X-746534Y-40045237D01*
X-746534Y-40045237D02*
X-632248Y-40069047D01*
X-632248Y-40069047D02*
X-175105Y-40354761D01*
X-175105Y-40354761D02*
X-175105Y-40045237D01*
X-975105Y-39878571D02*
X-975105Y-39569047D01*
X-975105Y-39569047D02*
X-670343Y-39735714D01*
X-670343Y-39735714D02*
X-670343Y-39664285D01*
X-670343Y-39664285D02*
X-632248Y-39616666D01*
X-632248Y-39616666D02*
X-594153Y-39592857D01*
X-594153Y-39592857D02*
X-517962Y-39569047D01*
X-517962Y-39569047D02*
X-327486Y-39569047D01*
X-327486Y-39569047D02*
X-251296Y-39592857D01*
X-251296Y-39592857D02*
X-213200Y-39616666D01*
X-213200Y-39616666D02*
X-175105Y-39664285D01*
X-175105Y-39664285D02*
X-175105Y-39807142D01*
X-175105Y-39807142D02*
X-213200Y-39854761D01*
X-213200Y-39854761D02*
X-251296Y-39878571D01*
X-323334Y-39104895D02*
X-561429Y-39104895D01*
X-561429Y-39104895D02*
X-561429Y-38304895D01*
X81428Y-38304895D02*
X-156667Y-38304895D01*
X-156667Y-38304895D02*
X-180476Y-38685847D01*
X-180476Y-38685847D02*
X-156667Y-38647752D01*
X-156667Y-38647752D02*
X-109048Y-38609657D01*
X-109048Y-38609657D02*
X10000Y-38609657D01*
X10000Y-38609657D02*
X57619Y-38647752D01*
X57619Y-38647752D02*
X81428Y-38685847D01*
X81428Y-38685847D02*
X105238Y-38762038D01*
X105238Y-38762038D02*
X105238Y-38952514D01*
X105238Y-38952514D02*
X81428Y-39028704D01*
X81428Y-39028704D02*
X57619Y-39066800D01*
X57619Y-39066800D02*
X10000Y-39104895D01*
X10000Y-39104895D02*
X-109048Y-39104895D01*
X-109048Y-39104895D02*
X-156667Y-39066800D01*
X-156667Y-39066800D02*
X-180476Y-39028704D01*
X2924895Y-25451428D02*
X2543942Y-25618094D01*
X2924895Y-25737142D02*
X2124895Y-25737142D01*
X2124895Y-25737142D02*
X2124895Y-25546666D01*
X2124895Y-25546666D02*
X2162990Y-25499047D01*
X2162990Y-25499047D02*
X2201085Y-25475237D01*
X2201085Y-25475237D02*
X2277276Y-25451428D01*
X2277276Y-25451428D02*
X2391561Y-25451428D01*
X2391561Y-25451428D02*
X2467752Y-25475237D01*
X2467752Y-25475237D02*
X2505847Y-25499047D01*
X2505847Y-25499047D02*
X2543942Y-25546666D01*
X2543942Y-25546666D02*
X2543942Y-25737142D01*
X2924895Y-24975237D02*
X2924895Y-25260951D01*
X2924895Y-25118094D02*
X2124895Y-25118094D01*
X2124895Y-25118094D02*
X2239180Y-25165713D01*
X2239180Y-25165713D02*
X2315371Y-25213332D01*
X2315371Y-25213332D02*
X2353466Y-25260951D01*
X2924895Y-24499047D02*
X2924895Y-24784761D01*
X2924895Y-24641904D02*
X2124895Y-24641904D01*
X2124895Y-24641904D02*
X2239180Y-24689523D01*
X2239180Y-24689523D02*
X2315371Y-24737142D01*
X2315371Y-24737142D02*
X2353466Y-24784761D01*
X-4977143Y-10394895D02*
X-4977143Y-9594895D01*
X-4977143Y-9594895D02*
X-4858095Y-9594895D01*
X-4858095Y-9594895D02*
X-4786667Y-9632990D01*
X-4786667Y-9632990D02*
X-4739048Y-9709180D01*
X-4739048Y-9709180D02*
X-4715238Y-9785371D01*
X-4715238Y-9785371D02*
X-4691429Y-9937752D01*
X-4691429Y-9937752D02*
X-4691429Y-10052038D01*
X-4691429Y-10052038D02*
X-4715238Y-10204419D01*
X-4715238Y-10204419D02*
X-4739048Y-10280609D01*
X-4739048Y-10280609D02*
X-4786667Y-10356800D01*
X-4786667Y-10356800D02*
X-4858095Y-10394895D01*
X-4858095Y-10394895D02*
X-4977143Y-10394895D01*
X-4286667Y-10356800D02*
X-4334286Y-10394895D01*
X-4334286Y-10394895D02*
X-4429524Y-10394895D01*
X-4429524Y-10394895D02*
X-4477143Y-10356800D01*
X-4477143Y-10356800D02*
X-4500952Y-10280609D01*
X-4500952Y-10280609D02*
X-4500952Y-9975847D01*
X-4500952Y-9975847D02*
X-4477143Y-9899657D01*
X-4477143Y-9899657D02*
X-4429524Y-9861561D01*
X-4429524Y-9861561D02*
X-4334286Y-9861561D01*
X-4334286Y-9861561D02*
X-4286667Y-9899657D01*
X-4286667Y-9899657D02*
X-4262857Y-9975847D01*
X-4262857Y-9975847D02*
X-4262857Y-10052038D01*
X-4262857Y-10052038D02*
X-4500952Y-10128228D01*
X-4048572Y-10394895D02*
X-4048572Y-9594895D01*
X-4048572Y-9899657D02*
X-4000953Y-9861561D01*
X-4000953Y-9861561D02*
X-3905715Y-9861561D01*
X-3905715Y-9861561D02*
X-3858096Y-9899657D01*
X-3858096Y-9899657D02*
X-3834286Y-9937752D01*
X-3834286Y-9937752D02*
X-3810477Y-10013942D01*
X-3810477Y-10013942D02*
X-3810477Y-10242514D01*
X-3810477Y-10242514D02*
X-3834286Y-10318704D01*
X-3834286Y-10318704D02*
X-3858096Y-10356800D01*
X-3858096Y-10356800D02*
X-3905715Y-10394895D01*
X-3905715Y-10394895D02*
X-4000953Y-10394895D01*
X-4000953Y-10394895D02*
X-4048572Y-10356800D01*
X-3381905Y-9861561D02*
X-3381905Y-10394895D01*
X-3596191Y-9861561D02*
X-3596191Y-10280609D01*
X-3596191Y-10280609D02*
X-3572381Y-10356800D01*
X-3572381Y-10356800D02*
X-3524762Y-10394895D01*
X-3524762Y-10394895D02*
X-3453334Y-10394895D01*
X-3453334Y-10394895D02*
X-3405715Y-10356800D01*
X-3405715Y-10356800D02*
X-3381905Y-10318704D01*
X-2929524Y-9861561D02*
X-2929524Y-10509180D01*
X-2929524Y-10509180D02*
X-2953334Y-10585371D01*
X-2953334Y-10585371D02*
X-2977143Y-10623466D01*
X-2977143Y-10623466D02*
X-3024762Y-10661561D01*
X-3024762Y-10661561D02*
X-3096191Y-10661561D01*
X-3096191Y-10661561D02*
X-3143810Y-10623466D01*
X-2929524Y-10356800D02*
X-2977143Y-10394895D01*
X-2977143Y-10394895D02*
X-3072381Y-10394895D01*
X-3072381Y-10394895D02*
X-3120000Y-10356800D01*
X-3120000Y-10356800D02*
X-3143810Y-10318704D01*
X-3143810Y-10318704D02*
X-3167619Y-10242514D01*
X-3167619Y-10242514D02*
X-3167619Y-10013942D01*
X-3167619Y-10013942D02*
X-3143810Y-9937752D01*
X-3143810Y-9937752D02*
X-3120000Y-9899657D01*
X-3120000Y-9899657D02*
X-3072381Y-9861561D01*
X-3072381Y-9861561D02*
X-2977143Y-9861561D01*
X-2977143Y-9861561D02*
X-2929524Y-9899657D01*
X-2810476Y-10471085D02*
X-2429524Y-10471085D01*
X-2381905Y-9594895D02*
X-2096191Y-9594895D01*
X-2239048Y-10394895D02*
X-2239048Y-9594895D01*
X-1977144Y-10394895D02*
X-1715239Y-9861561D01*
X-1977144Y-9861561D02*
X-1715239Y-10394895D01*
D14*
X1963595Y-41143333D02*
X1963595Y-41381428D01*
X1963595Y-41381428D02*
X1163595Y-41381428D01*
X1163595Y-41024285D02*
X1163595Y-40690952D01*
X1163595Y-40690952D02*
X1963595Y-40905237D01*
X16344761Y-17703595D02*
X16344761Y-16903595D01*
X16344761Y-16903595D02*
X16535237Y-16903595D01*
X16535237Y-16903595D02*
X16582856Y-16941690D01*
X16582856Y-16941690D02*
X16606666Y-16979785D01*
X16606666Y-16979785D02*
X16630475Y-17055976D01*
X16630475Y-17055976D02*
X16630475Y-17170261D01*
X16630475Y-17170261D02*
X16606666Y-17246452D01*
X16606666Y-17246452D02*
X16582856Y-17284547D01*
X16582856Y-17284547D02*
X16535237Y-17322642D01*
X16535237Y-17322642D02*
X16344761Y-17322642D01*
X16797142Y-16903595D02*
X16916190Y-17703595D01*
X16916190Y-17703595D02*
X17011428Y-17132166D01*
X17011428Y-17132166D02*
X17106666Y-17703595D01*
X17106666Y-17703595D02*
X17225714Y-16903595D01*
X17297143Y-17779785D02*
X17678095Y-17779785D01*
X17797142Y-17284547D02*
X17963809Y-17284547D01*
X18035237Y-17703595D02*
X17797142Y-17703595D01*
X17797142Y-17703595D02*
X17797142Y-16903595D01*
X17797142Y-16903595D02*
X18035237Y-16903595D01*
X18249523Y-17703595D02*
X18249523Y-16903595D01*
X18249523Y-16903595D02*
X18535237Y-17703595D01*
X18535237Y-17703595D02*
X18535237Y-16903595D01*
D10*
X-321429Y-46308704D02*
X-345238Y-46346800D01*
X-345238Y-46346800D02*
X-416667Y-46384895D01*
X-416667Y-46384895D02*
X-464286Y-46384895D01*
X-464286Y-46384895D02*
X-535714Y-46346800D01*
X-535714Y-46346800D02*
X-583333Y-46270609D01*
X-583333Y-46270609D02*
X-607143Y-46194419D01*
X-607143Y-46194419D02*
X-630952Y-46042038D01*
X-630952Y-46042038D02*
X-630952Y-45927752D01*
X-630952Y-45927752D02*
X-607143Y-45775371D01*
X-607143Y-45775371D02*
X-583333Y-45699180D01*
X-583333Y-45699180D02*
X-535714Y-45622990D01*
X-535714Y-45622990D02*
X-464286Y-45584895D01*
X-464286Y-45584895D02*
X-416667Y-45584895D01*
X-416667Y-45584895D02*
X-345238Y-45622990D01*
X-345238Y-45622990D02*
X-321429Y-45661085D01*
X-154762Y-45584895D02*
X154762Y-45584895D01*
X154762Y-45584895D02*
X-11905Y-45889657D01*
X-11905Y-45889657D02*
X59524Y-45889657D01*
X59524Y-45889657D02*
X107143Y-45927752D01*
X107143Y-45927752D02*
X130952Y-45965847D01*
X130952Y-45965847D02*
X154762Y-46042038D01*
X154762Y-46042038D02*
X154762Y-46232514D01*
X154762Y-46232514D02*
X130952Y-46308704D01*
X130952Y-46308704D02*
X107143Y-46346800D01*
X107143Y-46346800D02*
X59524Y-46384895D01*
X59524Y-46384895D02*
X-83333Y-46384895D01*
X-83333Y-46384895D02*
X-130952Y-46346800D01*
X-130952Y-46346800D02*
X-154762Y-46308704D01*
X583333Y-45851561D02*
X583333Y-46384895D01*
X464285Y-45546800D02*
X345238Y-46118228D01*
X345238Y-46118228D02*
X654761Y-46118228D01*
X-17901296Y-31461428D02*
X-17863200Y-31485237D01*
X-17863200Y-31485237D02*
X-17825105Y-31556666D01*
X-17825105Y-31556666D02*
X-17825105Y-31604285D01*
X-17825105Y-31604285D02*
X-17863200Y-31675713D01*
X-17863200Y-31675713D02*
X-17939391Y-31723332D01*
X-17939391Y-31723332D02*
X-18015581Y-31747142D01*
X-18015581Y-31747142D02*
X-18167962Y-31770951D01*
X-18167962Y-31770951D02*
X-18282248Y-31770951D01*
X-18282248Y-31770951D02*
X-18434629Y-31747142D01*
X-18434629Y-31747142D02*
X-18510820Y-31723332D01*
X-18510820Y-31723332D02*
X-18587010Y-31675713D01*
X-18587010Y-31675713D02*
X-18625105Y-31604285D01*
X-18625105Y-31604285D02*
X-18625105Y-31556666D01*
X-18625105Y-31556666D02*
X-18587010Y-31485237D01*
X-18587010Y-31485237D02*
X-18548915Y-31461428D01*
X-18358439Y-31032856D02*
X-17825105Y-31032856D01*
X-18663200Y-31151904D02*
X-18091772Y-31270951D01*
X-18091772Y-31270951D02*
X-18091772Y-30961428D01*
X-18625105Y-30532857D02*
X-18625105Y-30770952D01*
X-18625105Y-30770952D02*
X-18244153Y-30794761D01*
X-18244153Y-30794761D02*
X-18282248Y-30770952D01*
X-18282248Y-30770952D02*
X-18320343Y-30723333D01*
X-18320343Y-30723333D02*
X-18320343Y-30604285D01*
X-18320343Y-30604285D02*
X-18282248Y-30556666D01*
X-18282248Y-30556666D02*
X-18244153Y-30532857D01*
X-18244153Y-30532857D02*
X-18167962Y-30509047D01*
X-18167962Y-30509047D02*
X-17977486Y-30509047D01*
X-17977486Y-30509047D02*
X-17901296Y-30532857D01*
X-17901296Y-30532857D02*
X-17863200Y-30556666D01*
X-17863200Y-30556666D02*
X-17825105Y-30604285D01*
X-17825105Y-30604285D02*
X-17825105Y-30723333D01*
X-17825105Y-30723333D02*
X-17863200Y-30770952D01*
X-17863200Y-30770952D02*
X-17901296Y-30794761D01*
X-13591296Y-38231428D02*
X-13553200Y-38255237D01*
X-13553200Y-38255237D02*
X-13515105Y-38326666D01*
X-13515105Y-38326666D02*
X-13515105Y-38374285D01*
X-13515105Y-38374285D02*
X-13553200Y-38445713D01*
X-13553200Y-38445713D02*
X-13629391Y-38493332D01*
X-13629391Y-38493332D02*
X-13705581Y-38517142D01*
X-13705581Y-38517142D02*
X-13857962Y-38540951D01*
X-13857962Y-38540951D02*
X-13972248Y-38540951D01*
X-13972248Y-38540951D02*
X-14124629Y-38517142D01*
X-14124629Y-38517142D02*
X-14200820Y-38493332D01*
X-14200820Y-38493332D02*
X-14277010Y-38445713D01*
X-14277010Y-38445713D02*
X-14315105Y-38374285D01*
X-14315105Y-38374285D02*
X-14315105Y-38326666D01*
X-14315105Y-38326666D02*
X-14277010Y-38255237D01*
X-14277010Y-38255237D02*
X-14238915Y-38231428D01*
X-14048439Y-37802856D02*
X-13515105Y-37802856D01*
X-14353200Y-37921904D02*
X-13781772Y-38040951D01*
X-13781772Y-38040951D02*
X-13781772Y-37731428D01*
X-14238915Y-37564761D02*
X-14277010Y-37540952D01*
X-14277010Y-37540952D02*
X-14315105Y-37493333D01*
X-14315105Y-37493333D02*
X-14315105Y-37374285D01*
X-14315105Y-37374285D02*
X-14277010Y-37326666D01*
X-14277010Y-37326666D02*
X-14238915Y-37302857D01*
X-14238915Y-37302857D02*
X-14162724Y-37279047D01*
X-14162724Y-37279047D02*
X-14086534Y-37279047D01*
X-14086534Y-37279047D02*
X-13972248Y-37302857D01*
X-13972248Y-37302857D02*
X-13515105Y-37588571D01*
X-13515105Y-37588571D02*
X-13515105Y-37279047D01*
X-12501429Y-46194895D02*
X-12739524Y-46194895D01*
X-12739524Y-46194895D02*
X-12739524Y-45394895D01*
X-12072857Y-46194895D02*
X-12358571Y-46194895D01*
X-12215714Y-46194895D02*
X-12215714Y-45394895D01*
X-12215714Y-45394895D02*
X-12263333Y-45509180D01*
X-12263333Y-45509180D02*
X-12310952Y-45585371D01*
X-12310952Y-45585371D02*
X-12358571Y-45623466D01*
X-11906191Y-45394895D02*
X-11596667Y-45394895D01*
X-11596667Y-45394895D02*
X-11763334Y-45699657D01*
X-11763334Y-45699657D02*
X-11691905Y-45699657D01*
X-11691905Y-45699657D02*
X-11644286Y-45737752D01*
X-11644286Y-45737752D02*
X-11620477Y-45775847D01*
X-11620477Y-45775847D02*
X-11596667Y-45852038D01*
X-11596667Y-45852038D02*
X-11596667Y-46042514D01*
X-11596667Y-46042514D02*
X-11620477Y-46118704D01*
X-11620477Y-46118704D02*
X-11644286Y-46156800D01*
X-11644286Y-46156800D02*
X-11691905Y-46194895D01*
X-11691905Y-46194895D02*
X-11834762Y-46194895D01*
X-11834762Y-46194895D02*
X-11882381Y-46156800D01*
X-11882381Y-46156800D02*
X-11906191Y-46118704D01*
X-143105Y-43771333D02*
X-143105Y-44009428D01*
X-143105Y-44009428D02*
X-943105Y-44009428D01*
X-600248Y-43533237D02*
X-638343Y-43580856D01*
X-638343Y-43580856D02*
X-676439Y-43604666D01*
X-676439Y-43604666D02*
X-752629Y-43628475D01*
X-752629Y-43628475D02*
X-790724Y-43628475D01*
X-790724Y-43628475D02*
X-866915Y-43604666D01*
X-866915Y-43604666D02*
X-905010Y-43580856D01*
X-905010Y-43580856D02*
X-943105Y-43533237D01*
X-943105Y-43533237D02*
X-943105Y-43437999D01*
X-943105Y-43437999D02*
X-905010Y-43390380D01*
X-905010Y-43390380D02*
X-866915Y-43366571D01*
X-866915Y-43366571D02*
X-790724Y-43342761D01*
X-790724Y-43342761D02*
X-752629Y-43342761D01*
X-752629Y-43342761D02*
X-676439Y-43366571D01*
X-676439Y-43366571D02*
X-638343Y-43390380D01*
X-638343Y-43390380D02*
X-600248Y-43437999D01*
X-600248Y-43437999D02*
X-600248Y-43533237D01*
X-600248Y-43533237D02*
X-562153Y-43580856D01*
X-562153Y-43580856D02*
X-524058Y-43604666D01*
X-524058Y-43604666D02*
X-447867Y-43628475D01*
X-447867Y-43628475D02*
X-295486Y-43628475D01*
X-295486Y-43628475D02*
X-219296Y-43604666D01*
X-219296Y-43604666D02*
X-181200Y-43580856D01*
X-181200Y-43580856D02*
X-143105Y-43533237D01*
X-143105Y-43533237D02*
X-143105Y-43437999D01*
X-143105Y-43437999D02*
X-181200Y-43390380D01*
X-181200Y-43390380D02*
X-219296Y-43366571D01*
X-219296Y-43366571D02*
X-295486Y-43342761D01*
X-295486Y-43342761D02*
X-447867Y-43342761D01*
X-447867Y-43342761D02*
X-524058Y-43366571D01*
X-524058Y-43366571D02*
X-562153Y-43390380D01*
X-562153Y-43390380D02*
X-600248Y-43437999D01*
X-6456429Y-52418704D02*
X-6480238Y-52456800D01*
X-6480238Y-52456800D02*
X-6551667Y-52494895D01*
X-6551667Y-52494895D02*
X-6599286Y-52494895D01*
X-6599286Y-52494895D02*
X-6670714Y-52456800D01*
X-6670714Y-52456800D02*
X-6718333Y-52380609D01*
X-6718333Y-52380609D02*
X-6742143Y-52304419D01*
X-6742143Y-52304419D02*
X-6765952Y-52152038D01*
X-6765952Y-52152038D02*
X-6765952Y-52037752D01*
X-6765952Y-52037752D02*
X-6742143Y-51885371D01*
X-6742143Y-51885371D02*
X-6718333Y-51809180D01*
X-6718333Y-51809180D02*
X-6670714Y-51732990D01*
X-6670714Y-51732990D02*
X-6599286Y-51694895D01*
X-6599286Y-51694895D02*
X-6551667Y-51694895D01*
X-6551667Y-51694895D02*
X-6480238Y-51732990D01*
X-6480238Y-51732990D02*
X-6456429Y-51771085D01*
X-6027857Y-51961561D02*
X-6027857Y-52494895D01*
X-6146905Y-51656800D02*
X-6265952Y-52228228D01*
X-6265952Y-52228228D02*
X-5956429Y-52228228D01*
X-5813572Y-51694895D02*
X-5504048Y-51694895D01*
X-5504048Y-51694895D02*
X-5670715Y-51999657D01*
X-5670715Y-51999657D02*
X-5599286Y-51999657D01*
X-5599286Y-51999657D02*
X-5551667Y-52037752D01*
X-5551667Y-52037752D02*
X-5527858Y-52075847D01*
X-5527858Y-52075847D02*
X-5504048Y-52152038D01*
X-5504048Y-52152038D02*
X-5504048Y-52342514D01*
X-5504048Y-52342514D02*
X-5527858Y-52418704D01*
X-5527858Y-52418704D02*
X-5551667Y-52456800D01*
X-5551667Y-52456800D02*
X-5599286Y-52494895D01*
X-5599286Y-52494895D02*
X-5742143Y-52494895D01*
X-5742143Y-52494895D02*
X-5789762Y-52456800D01*
X-5789762Y-52456800D02*
X-5813572Y-52418704D01*
X-7331296Y-45611428D02*
X-7293200Y-45635237D01*
X-7293200Y-45635237D02*
X-7255105Y-45706666D01*
X-7255105Y-45706666D02*
X-7255105Y-45754285D01*
X-7255105Y-45754285D02*
X-7293200Y-45825713D01*
X-7293200Y-45825713D02*
X-7369391Y-45873332D01*
X-7369391Y-45873332D02*
X-7445581Y-45897142D01*
X-7445581Y-45897142D02*
X-7597962Y-45920951D01*
X-7597962Y-45920951D02*
X-7712248Y-45920951D01*
X-7712248Y-45920951D02*
X-7864629Y-45897142D01*
X-7864629Y-45897142D02*
X-7940820Y-45873332D01*
X-7940820Y-45873332D02*
X-8017010Y-45825713D01*
X-8017010Y-45825713D02*
X-8055105Y-45754285D01*
X-8055105Y-45754285D02*
X-8055105Y-45706666D01*
X-8055105Y-45706666D02*
X-8017010Y-45635237D01*
X-8017010Y-45635237D02*
X-7978915Y-45611428D01*
X-7978915Y-45420951D02*
X-8017010Y-45397142D01*
X-8017010Y-45397142D02*
X-8055105Y-45349523D01*
X-8055105Y-45349523D02*
X-8055105Y-45230475D01*
X-8055105Y-45230475D02*
X-8017010Y-45182856D01*
X-8017010Y-45182856D02*
X-7978915Y-45159047D01*
X-7978915Y-45159047D02*
X-7902724Y-45135237D01*
X-7902724Y-45135237D02*
X-7826534Y-45135237D01*
X-7826534Y-45135237D02*
X-7712248Y-45159047D01*
X-7712248Y-45159047D02*
X-7255105Y-45444761D01*
X-7255105Y-45444761D02*
X-7255105Y-45135237D01*
X-7788439Y-44706666D02*
X-7255105Y-44706666D01*
X-8093200Y-44825714D02*
X-7521772Y-44944761D01*
X-7521772Y-44944761D02*
X-7521772Y-44635238D01*
X-2655105Y-54491428D02*
X-2655105Y-54729523D01*
X-2655105Y-54729523D02*
X-3455105Y-54729523D01*
X-2655105Y-54062856D02*
X-2655105Y-54348570D01*
X-2655105Y-54205713D02*
X-3455105Y-54205713D01*
X-3455105Y-54205713D02*
X-3340820Y-54253332D01*
X-3340820Y-54253332D02*
X-3264629Y-54300951D01*
X-3264629Y-54300951D02*
X-3226534Y-54348570D01*
X-3378915Y-53872380D02*
X-3417010Y-53848571D01*
X-3417010Y-53848571D02*
X-3455105Y-53800952D01*
X-3455105Y-53800952D02*
X-3455105Y-53681904D01*
X-3455105Y-53681904D02*
X-3417010Y-53634285D01*
X-3417010Y-53634285D02*
X-3378915Y-53610476D01*
X-3378915Y-53610476D02*
X-3302724Y-53586666D01*
X-3302724Y-53586666D02*
X-3226534Y-53586666D01*
X-3226534Y-53586666D02*
X-3112248Y-53610476D01*
X-3112248Y-53610476D02*
X-2655105Y-53896190D01*
X-2655105Y-53896190D02*
X-2655105Y-53586666D01*
X-12701429Y-40378704D02*
X-12725238Y-40416800D01*
X-12725238Y-40416800D02*
X-12796667Y-40454895D01*
X-12796667Y-40454895D02*
X-12844286Y-40454895D01*
X-12844286Y-40454895D02*
X-12915714Y-40416800D01*
X-12915714Y-40416800D02*
X-12963333Y-40340609D01*
X-12963333Y-40340609D02*
X-12987143Y-40264419D01*
X-12987143Y-40264419D02*
X-13010952Y-40112038D01*
X-13010952Y-40112038D02*
X-13010952Y-39997752D01*
X-13010952Y-39997752D02*
X-12987143Y-39845371D01*
X-12987143Y-39845371D02*
X-12963333Y-39769180D01*
X-12963333Y-39769180D02*
X-12915714Y-39692990D01*
X-12915714Y-39692990D02*
X-12844286Y-39654895D01*
X-12844286Y-39654895D02*
X-12796667Y-39654895D01*
X-12796667Y-39654895D02*
X-12725238Y-39692990D01*
X-12725238Y-39692990D02*
X-12701429Y-39731085D01*
X-12272857Y-39921561D02*
X-12272857Y-40454895D01*
X-12391905Y-39616800D02*
X-12510952Y-40188228D01*
X-12510952Y-40188228D02*
X-12201429Y-40188228D01*
X-11749048Y-40454895D02*
X-12034762Y-40454895D01*
X-11891905Y-40454895D02*
X-11891905Y-39654895D01*
X-11891905Y-39654895D02*
X-11939524Y-39769180D01*
X-11939524Y-39769180D02*
X-11987143Y-39845371D01*
X-11987143Y-39845371D02*
X-12034762Y-39883466D01*
X-6703334Y-16784895D02*
X-6870000Y-16403942D01*
X-6989048Y-16784895D02*
X-6989048Y-15984895D01*
X-6989048Y-15984895D02*
X-6798572Y-15984895D01*
X-6798572Y-15984895D02*
X-6750953Y-16022990D01*
X-6750953Y-16022990D02*
X-6727143Y-16061085D01*
X-6727143Y-16061085D02*
X-6703334Y-16137276D01*
X-6703334Y-16137276D02*
X-6703334Y-16251561D01*
X-6703334Y-16251561D02*
X-6727143Y-16327752D01*
X-6727143Y-16327752D02*
X-6750953Y-16365847D01*
X-6750953Y-16365847D02*
X-6798572Y-16403942D01*
X-6798572Y-16403942D02*
X-6989048Y-16403942D01*
X-6536667Y-15984895D02*
X-6227143Y-15984895D01*
X-6227143Y-15984895D02*
X-6393810Y-16289657D01*
X-6393810Y-16289657D02*
X-6322381Y-16289657D01*
X-6322381Y-16289657D02*
X-6274762Y-16327752D01*
X-6274762Y-16327752D02*
X-6250953Y-16365847D01*
X-6250953Y-16365847D02*
X-6227143Y-16442038D01*
X-6227143Y-16442038D02*
X-6227143Y-16632514D01*
X-6227143Y-16632514D02*
X-6250953Y-16708704D01*
X-6250953Y-16708704D02*
X-6274762Y-16746800D01*
X-6274762Y-16746800D02*
X-6322381Y-16784895D01*
X-6322381Y-16784895D02*
X-6465238Y-16784895D01*
X-6465238Y-16784895D02*
X-6512857Y-16746800D01*
X-6512857Y-16746800D02*
X-6536667Y-16708704D01*
D14*
X-9370953Y-37303595D02*
X-9370953Y-37951214D01*
X-9370953Y-37951214D02*
X-9347143Y-38027404D01*
X-9347143Y-38027404D02*
X-9323334Y-38065500D01*
X-9323334Y-38065500D02*
X-9275715Y-38103595D01*
X-9275715Y-38103595D02*
X-9180477Y-38103595D01*
X-9180477Y-38103595D02*
X-9132858Y-38065500D01*
X-9132858Y-38065500D02*
X-9109048Y-38027404D01*
X-9109048Y-38027404D02*
X-9085239Y-37951214D01*
X-9085239Y-37951214D02*
X-9085239Y-37303595D01*
X-8632857Y-37570261D02*
X-8632857Y-38103595D01*
X-8751905Y-37265500D02*
X-8870952Y-37836928D01*
X-8870952Y-37836928D02*
X-8561429Y-37836928D01*
D10*
X-1743296Y-50867428D02*
X-1705200Y-50891237D01*
X-1705200Y-50891237D02*
X-1667105Y-50962666D01*
X-1667105Y-50962666D02*
X-1667105Y-51010285D01*
X-1667105Y-51010285D02*
X-1705200Y-51081713D01*
X-1705200Y-51081713D02*
X-1781391Y-51129332D01*
X-1781391Y-51129332D02*
X-1857581Y-51153142D01*
X-1857581Y-51153142D02*
X-2009962Y-51176951D01*
X-2009962Y-51176951D02*
X-2124248Y-51176951D01*
X-2124248Y-51176951D02*
X-2276629Y-51153142D01*
X-2276629Y-51153142D02*
X-2352820Y-51129332D01*
X-2352820Y-51129332D02*
X-2429010Y-51081713D01*
X-2429010Y-51081713D02*
X-2467105Y-51010285D01*
X-2467105Y-51010285D02*
X-2467105Y-50962666D01*
X-2467105Y-50962666D02*
X-2429010Y-50891237D01*
X-2429010Y-50891237D02*
X-2390915Y-50867428D01*
X-2467105Y-50700761D02*
X-2467105Y-50391237D01*
X-2467105Y-50391237D02*
X-2162343Y-50557904D01*
X-2162343Y-50557904D02*
X-2162343Y-50486475D01*
X-2162343Y-50486475D02*
X-2124248Y-50438856D01*
X-2124248Y-50438856D02*
X-2086153Y-50415047D01*
X-2086153Y-50415047D02*
X-2009962Y-50391237D01*
X-2009962Y-50391237D02*
X-1819486Y-50391237D01*
X-1819486Y-50391237D02*
X-1743296Y-50415047D01*
X-1743296Y-50415047D02*
X-1705200Y-50438856D01*
X-1705200Y-50438856D02*
X-1667105Y-50486475D01*
X-1667105Y-50486475D02*
X-1667105Y-50629332D01*
X-1667105Y-50629332D02*
X-1705200Y-50676951D01*
X-1705200Y-50676951D02*
X-1743296Y-50700761D01*
X-1667105Y-50153142D02*
X-1667105Y-50057904D01*
X-1667105Y-50057904D02*
X-1705200Y-50010285D01*
X-1705200Y-50010285D02*
X-1743296Y-49986476D01*
X-1743296Y-49986476D02*
X-1857581Y-49938857D01*
X-1857581Y-49938857D02*
X-2009962Y-49915047D01*
X-2009962Y-49915047D02*
X-2314724Y-49915047D01*
X-2314724Y-49915047D02*
X-2390915Y-49938857D01*
X-2390915Y-49938857D02*
X-2429010Y-49962666D01*
X-2429010Y-49962666D02*
X-2467105Y-50010285D01*
X-2467105Y-50010285D02*
X-2467105Y-50105523D01*
X-2467105Y-50105523D02*
X-2429010Y-50153142D01*
X-2429010Y-50153142D02*
X-2390915Y-50176952D01*
X-2390915Y-50176952D02*
X-2314724Y-50200761D01*
X-2314724Y-50200761D02*
X-2124248Y-50200761D01*
X-2124248Y-50200761D02*
X-2048058Y-50176952D01*
X-2048058Y-50176952D02*
X-2009962Y-50153142D01*
X-2009962Y-50153142D02*
X-1971867Y-50105523D01*
X-1971867Y-50105523D02*
X-1971867Y-50010285D01*
X-1971867Y-50010285D02*
X-2009962Y-49962666D01*
X-2009962Y-49962666D02*
X-2048058Y-49938857D01*
X-2048058Y-49938857D02*
X-2124248Y-49915047D01*
X-17286667Y-47316895D02*
X-17286667Y-47888323D01*
X-17286667Y-47888323D02*
X-17310476Y-48002609D01*
X-17310476Y-48002609D02*
X-17358095Y-48078800D01*
X-17358095Y-48078800D02*
X-17429524Y-48116895D01*
X-17429524Y-48116895D02*
X-17477143Y-48116895D01*
X-17072381Y-47393085D02*
X-17048572Y-47354990D01*
X-17048572Y-47354990D02*
X-17000953Y-47316895D01*
X-17000953Y-47316895D02*
X-16881905Y-47316895D01*
X-16881905Y-47316895D02*
X-16834286Y-47354990D01*
X-16834286Y-47354990D02*
X-16810477Y-47393085D01*
X-16810477Y-47393085D02*
X-16786667Y-47469276D01*
X-16786667Y-47469276D02*
X-16786667Y-47545466D01*
X-16786667Y-47545466D02*
X-16810477Y-47659752D01*
X-16810477Y-47659752D02*
X-17096191Y-48116895D01*
X-17096191Y-48116895D02*
X-16786667Y-48116895D01*
X5190476Y-8094895D02*
X5190476Y-7294895D01*
X5190476Y-7294895D02*
X5309524Y-7294895D01*
X5309524Y-7294895D02*
X5380952Y-7332990D01*
X5380952Y-7332990D02*
X5428571Y-7409180D01*
X5428571Y-7409180D02*
X5452381Y-7485371D01*
X5452381Y-7485371D02*
X5476190Y-7637752D01*
X5476190Y-7637752D02*
X5476190Y-7752038D01*
X5476190Y-7752038D02*
X5452381Y-7904419D01*
X5452381Y-7904419D02*
X5428571Y-7980609D01*
X5428571Y-7980609D02*
X5380952Y-8056800D01*
X5380952Y-8056800D02*
X5309524Y-8094895D01*
X5309524Y-8094895D02*
X5190476Y-8094895D01*
X5904762Y-8094895D02*
X5904762Y-7675847D01*
X5904762Y-7675847D02*
X5880952Y-7599657D01*
X5880952Y-7599657D02*
X5833333Y-7561561D01*
X5833333Y-7561561D02*
X5738095Y-7561561D01*
X5738095Y-7561561D02*
X5690476Y-7599657D01*
X5904762Y-8056800D02*
X5857143Y-8094895D01*
X5857143Y-8094895D02*
X5738095Y-8094895D01*
X5738095Y-8094895D02*
X5690476Y-8056800D01*
X5690476Y-8056800D02*
X5666667Y-7980609D01*
X5666667Y-7980609D02*
X5666667Y-7904419D01*
X5666667Y-7904419D02*
X5690476Y-7828228D01*
X5690476Y-7828228D02*
X5738095Y-7790133D01*
X5738095Y-7790133D02*
X5857143Y-7790133D01*
X5857143Y-7790133D02*
X5904762Y-7752038D01*
X6071429Y-7561561D02*
X6261905Y-7561561D01*
X6142857Y-7294895D02*
X6142857Y-7980609D01*
X6142857Y-7980609D02*
X6166667Y-8056800D01*
X6166667Y-8056800D02*
X6214286Y-8094895D01*
X6214286Y-8094895D02*
X6261905Y-8094895D01*
X6642857Y-8094895D02*
X6642857Y-7675847D01*
X6642857Y-7675847D02*
X6619047Y-7599657D01*
X6619047Y-7599657D02*
X6571428Y-7561561D01*
X6571428Y-7561561D02*
X6476190Y-7561561D01*
X6476190Y-7561561D02*
X6428571Y-7599657D01*
X6642857Y-8056800D02*
X6595238Y-8094895D01*
X6595238Y-8094895D02*
X6476190Y-8094895D01*
X6476190Y-8094895D02*
X6428571Y-8056800D01*
X6428571Y-8056800D02*
X6404762Y-7980609D01*
X6404762Y-7980609D02*
X6404762Y-7904419D01*
X6404762Y-7904419D02*
X6428571Y-7828228D01*
X6428571Y-7828228D02*
X6476190Y-7790133D01*
X6476190Y-7790133D02*
X6595238Y-7790133D01*
X6595238Y-7790133D02*
X6642857Y-7752038D01*
X6761905Y-8171085D02*
X7142857Y-8171085D01*
X7190476Y-7294895D02*
X7476190Y-7294895D01*
X7333333Y-8094895D02*
X7333333Y-7294895D01*
X7595237Y-8094895D02*
X7857142Y-7561561D01*
X7595237Y-7561561D02*
X7857142Y-8094895D01*
X-3211296Y-19891428D02*
X-3173200Y-19915237D01*
X-3173200Y-19915237D02*
X-3135105Y-19986666D01*
X-3135105Y-19986666D02*
X-3135105Y-20034285D01*
X-3135105Y-20034285D02*
X-3173200Y-20105713D01*
X-3173200Y-20105713D02*
X-3249391Y-20153332D01*
X-3249391Y-20153332D02*
X-3325581Y-20177142D01*
X-3325581Y-20177142D02*
X-3477962Y-20200951D01*
X-3477962Y-20200951D02*
X-3592248Y-20200951D01*
X-3592248Y-20200951D02*
X-3744629Y-20177142D01*
X-3744629Y-20177142D02*
X-3820820Y-20153332D01*
X-3820820Y-20153332D02*
X-3897010Y-20105713D01*
X-3897010Y-20105713D02*
X-3935105Y-20034285D01*
X-3935105Y-20034285D02*
X-3935105Y-19986666D01*
X-3935105Y-19986666D02*
X-3897010Y-19915237D01*
X-3897010Y-19915237D02*
X-3858915Y-19891428D01*
X-3935105Y-19724761D02*
X-3935105Y-19415237D01*
X-3935105Y-19415237D02*
X-3630343Y-19581904D01*
X-3630343Y-19581904D02*
X-3630343Y-19510475D01*
X-3630343Y-19510475D02*
X-3592248Y-19462856D01*
X-3592248Y-19462856D02*
X-3554153Y-19439047D01*
X-3554153Y-19439047D02*
X-3477962Y-19415237D01*
X-3477962Y-19415237D02*
X-3287486Y-19415237D01*
X-3287486Y-19415237D02*
X-3211296Y-19439047D01*
X-3211296Y-19439047D02*
X-3173200Y-19462856D01*
X-3173200Y-19462856D02*
X-3135105Y-19510475D01*
X-3135105Y-19510475D02*
X-3135105Y-19653332D01*
X-3135105Y-19653332D02*
X-3173200Y-19700951D01*
X-3173200Y-19700951D02*
X-3211296Y-19724761D01*
X-3592248Y-19129523D02*
X-3630343Y-19177142D01*
X-3630343Y-19177142D02*
X-3668439Y-19200952D01*
X-3668439Y-19200952D02*
X-3744629Y-19224761D01*
X-3744629Y-19224761D02*
X-3782724Y-19224761D01*
X-3782724Y-19224761D02*
X-3858915Y-19200952D01*
X-3858915Y-19200952D02*
X-3897010Y-19177142D01*
X-3897010Y-19177142D02*
X-3935105Y-19129523D01*
X-3935105Y-19129523D02*
X-3935105Y-19034285D01*
X-3935105Y-19034285D02*
X-3897010Y-18986666D01*
X-3897010Y-18986666D02*
X-3858915Y-18962857D01*
X-3858915Y-18962857D02*
X-3782724Y-18939047D01*
X-3782724Y-18939047D02*
X-3744629Y-18939047D01*
X-3744629Y-18939047D02*
X-3668439Y-18962857D01*
X-3668439Y-18962857D02*
X-3630343Y-18986666D01*
X-3630343Y-18986666D02*
X-3592248Y-19034285D01*
X-3592248Y-19034285D02*
X-3592248Y-19129523D01*
X-3592248Y-19129523D02*
X-3554153Y-19177142D01*
X-3554153Y-19177142D02*
X-3516058Y-19200952D01*
X-3516058Y-19200952D02*
X-3439867Y-19224761D01*
X-3439867Y-19224761D02*
X-3287486Y-19224761D01*
X-3287486Y-19224761D02*
X-3211296Y-19200952D01*
X-3211296Y-19200952D02*
X-3173200Y-19177142D01*
X-3173200Y-19177142D02*
X-3135105Y-19129523D01*
X-3135105Y-19129523D02*
X-3135105Y-19034285D01*
X-3135105Y-19034285D02*
X-3173200Y-18986666D01*
X-3173200Y-18986666D02*
X-3211296Y-18962857D01*
X-3211296Y-18962857D02*
X-3287486Y-18939047D01*
X-3287486Y-18939047D02*
X-3439867Y-18939047D01*
X-3439867Y-18939047D02*
X-3516058Y-18962857D01*
X-3516058Y-18962857D02*
X-3554153Y-18986666D01*
X-3554153Y-18986666D02*
X-3592248Y-19034285D01*
X-1235296Y-43755428D02*
X-1197200Y-43779237D01*
X-1197200Y-43779237D02*
X-1159105Y-43850666D01*
X-1159105Y-43850666D02*
X-1159105Y-43898285D01*
X-1159105Y-43898285D02*
X-1197200Y-43969713D01*
X-1197200Y-43969713D02*
X-1273391Y-44017332D01*
X-1273391Y-44017332D02*
X-1349581Y-44041142D01*
X-1349581Y-44041142D02*
X-1501962Y-44064951D01*
X-1501962Y-44064951D02*
X-1616248Y-44064951D01*
X-1616248Y-44064951D02*
X-1768629Y-44041142D01*
X-1768629Y-44041142D02*
X-1844820Y-44017332D01*
X-1844820Y-44017332D02*
X-1921010Y-43969713D01*
X-1921010Y-43969713D02*
X-1959105Y-43898285D01*
X-1959105Y-43898285D02*
X-1959105Y-43850666D01*
X-1959105Y-43850666D02*
X-1921010Y-43779237D01*
X-1921010Y-43779237D02*
X-1882915Y-43755428D01*
X-1882915Y-43564951D02*
X-1921010Y-43541142D01*
X-1921010Y-43541142D02*
X-1959105Y-43493523D01*
X-1959105Y-43493523D02*
X-1959105Y-43374475D01*
X-1959105Y-43374475D02*
X-1921010Y-43326856D01*
X-1921010Y-43326856D02*
X-1882915Y-43303047D01*
X-1882915Y-43303047D02*
X-1806724Y-43279237D01*
X-1806724Y-43279237D02*
X-1730534Y-43279237D01*
X-1730534Y-43279237D02*
X-1616248Y-43303047D01*
X-1616248Y-43303047D02*
X-1159105Y-43588761D01*
X-1159105Y-43588761D02*
X-1159105Y-43279237D01*
X-1159105Y-43041142D02*
X-1159105Y-42945904D01*
X-1159105Y-42945904D02*
X-1197200Y-42898285D01*
X-1197200Y-42898285D02*
X-1235296Y-42874476D01*
X-1235296Y-42874476D02*
X-1349581Y-42826857D01*
X-1349581Y-42826857D02*
X-1501962Y-42803047D01*
X-1501962Y-42803047D02*
X-1806724Y-42803047D01*
X-1806724Y-42803047D02*
X-1882915Y-42826857D01*
X-1882915Y-42826857D02*
X-1921010Y-42850666D01*
X-1921010Y-42850666D02*
X-1959105Y-42898285D01*
X-1959105Y-42898285D02*
X-1959105Y-42993523D01*
X-1959105Y-42993523D02*
X-1921010Y-43041142D01*
X-1921010Y-43041142D02*
X-1882915Y-43064952D01*
X-1882915Y-43064952D02*
X-1806724Y-43088761D01*
X-1806724Y-43088761D02*
X-1616248Y-43088761D01*
X-1616248Y-43088761D02*
X-1540058Y-43064952D01*
X-1540058Y-43064952D02*
X-1501962Y-43041142D01*
X-1501962Y-43041142D02*
X-1463867Y-42993523D01*
X-1463867Y-42993523D02*
X-1463867Y-42898285D01*
X-1463867Y-42898285D02*
X-1501962Y-42850666D01*
X-1501962Y-42850666D02*
X-1540058Y-42826857D01*
X-1540058Y-42826857D02*
X-1616248Y-42803047D01*
X-3643334Y-37254895D02*
X-3881429Y-37254895D01*
X-3881429Y-37254895D02*
X-3881429Y-36454895D01*
X-3524286Y-36454895D02*
X-3214762Y-36454895D01*
X-3214762Y-36454895D02*
X-3381429Y-36759657D01*
X-3381429Y-36759657D02*
X-3310000Y-36759657D01*
X-3310000Y-36759657D02*
X-3262381Y-36797752D01*
X-3262381Y-36797752D02*
X-3238572Y-36835847D01*
X-3238572Y-36835847D02*
X-3214762Y-36912038D01*
X-3214762Y-36912038D02*
X-3214762Y-37102514D01*
X-3214762Y-37102514D02*
X-3238572Y-37178704D01*
X-3238572Y-37178704D02*
X-3262381Y-37216800D01*
X-3262381Y-37216800D02*
X-3310000Y-37254895D01*
X-3310000Y-37254895D02*
X-3452857Y-37254895D01*
X-3452857Y-37254895D02*
X-3500476Y-37216800D01*
X-3500476Y-37216800D02*
X-3524286Y-37178704D01*
X-420667Y-55952895D02*
X-420667Y-56524323D01*
X-420667Y-56524323D02*
X-444476Y-56638609D01*
X-444476Y-56638609D02*
X-492095Y-56714800D01*
X-492095Y-56714800D02*
X-563524Y-56752895D01*
X-563524Y-56752895D02*
X-611143Y-56752895D01*
X79333Y-56752895D02*
X-206381Y-56752895D01*
X-63524Y-56752895D02*
X-63524Y-55952895D01*
X-63524Y-55952895D02*
X-111143Y-56067180D01*
X-111143Y-56067180D02*
X-158762Y-56143371D01*
X-158762Y-56143371D02*
X-206381Y-56181466D01*
X-6701429Y-15664895D02*
X-6868095Y-15283942D01*
X-6987143Y-15664895D02*
X-6987143Y-14864895D01*
X-6987143Y-14864895D02*
X-6796667Y-14864895D01*
X-6796667Y-14864895D02*
X-6749048Y-14902990D01*
X-6749048Y-14902990D02*
X-6725238Y-14941085D01*
X-6725238Y-14941085D02*
X-6701429Y-15017276D01*
X-6701429Y-15017276D02*
X-6701429Y-15131561D01*
X-6701429Y-15131561D02*
X-6725238Y-15207752D01*
X-6725238Y-15207752D02*
X-6749048Y-15245847D01*
X-6749048Y-15245847D02*
X-6796667Y-15283942D01*
X-6796667Y-15283942D02*
X-6987143Y-15283942D01*
X-6225238Y-15664895D02*
X-6510952Y-15664895D01*
X-6368095Y-15664895D02*
X-6368095Y-14864895D01*
X-6368095Y-14864895D02*
X-6415714Y-14979180D01*
X-6415714Y-14979180D02*
X-6463333Y-15055371D01*
X-6463333Y-15055371D02*
X-6510952Y-15093466D01*
X-5772858Y-14864895D02*
X-6010953Y-14864895D01*
X-6010953Y-14864895D02*
X-6034762Y-15245847D01*
X-6034762Y-15245847D02*
X-6010953Y-15207752D01*
X-6010953Y-15207752D02*
X-5963334Y-15169657D01*
X-5963334Y-15169657D02*
X-5844286Y-15169657D01*
X-5844286Y-15169657D02*
X-5796667Y-15207752D01*
X-5796667Y-15207752D02*
X-5772858Y-15245847D01*
X-5772858Y-15245847D02*
X-5749048Y-15322038D01*
X-5749048Y-15322038D02*
X-5749048Y-15512514D01*
X-5749048Y-15512514D02*
X-5772858Y-15588704D01*
X-5772858Y-15588704D02*
X-5796667Y-15626800D01*
X-5796667Y-15626800D02*
X-5844286Y-15664895D01*
X-5844286Y-15664895D02*
X-5963334Y-15664895D01*
X-5963334Y-15664895D02*
X-6010953Y-15626800D01*
X-6010953Y-15626800D02*
X-6034762Y-15588704D01*
X-1173334Y-39094895D02*
X-1411429Y-39094895D01*
X-1411429Y-39094895D02*
X-1411429Y-38294895D01*
X-792381Y-38294895D02*
X-887619Y-38294895D01*
X-887619Y-38294895D02*
X-935238Y-38332990D01*
X-935238Y-38332990D02*
X-959048Y-38371085D01*
X-959048Y-38371085D02*
X-1006667Y-38485371D01*
X-1006667Y-38485371D02*
X-1030476Y-38637752D01*
X-1030476Y-38637752D02*
X-1030476Y-38942514D01*
X-1030476Y-38942514D02*
X-1006667Y-39018704D01*
X-1006667Y-39018704D02*
X-982857Y-39056800D01*
X-982857Y-39056800D02*
X-935238Y-39094895D01*
X-935238Y-39094895D02*
X-840000Y-39094895D01*
X-840000Y-39094895D02*
X-792381Y-39056800D01*
X-792381Y-39056800D02*
X-768572Y-39018704D01*
X-768572Y-39018704D02*
X-744762Y-38942514D01*
X-744762Y-38942514D02*
X-744762Y-38752038D01*
X-744762Y-38752038D02*
X-768572Y-38675847D01*
X-768572Y-38675847D02*
X-792381Y-38637752D01*
X-792381Y-38637752D02*
X-840000Y-38599657D01*
X-840000Y-38599657D02*
X-935238Y-38599657D01*
X-935238Y-38599657D02*
X-982857Y-38637752D01*
X-982857Y-38637752D02*
X-1006667Y-38675847D01*
X-1006667Y-38675847D02*
X-1030476Y-38752038D01*
D14*
X-15175267Y-24709595D02*
X-15175267Y-25281023D01*
X-15175267Y-25281023D02*
X-15199076Y-25395309D01*
X-15199076Y-25395309D02*
X-15246695Y-25471500D01*
X-15246695Y-25471500D02*
X-15318124Y-25509595D01*
X-15318124Y-25509595D02*
X-15365743Y-25509595D01*
X-14722886Y-24976261D02*
X-14722886Y-25509595D01*
X-14841934Y-24671500D02*
X-14960981Y-25242928D01*
X-14960981Y-25242928D02*
X-14651458Y-25242928D01*
D11*
X-18042967Y-11757982D02*
X-18042967Y-12157982D01*
X-18042967Y-11957982D02*
X-18742967Y-11957982D01*
X-18742967Y-11957982D02*
X-18642967Y-12024649D01*
X-18642967Y-12024649D02*
X-18576300Y-12091316D01*
X-18576300Y-12091316D02*
X-18542967Y-12157982D01*
X-18742967Y-11524649D02*
X-18742967Y-11091315D01*
X-18742967Y-11091315D02*
X-18476300Y-11324649D01*
X-18476300Y-11324649D02*
X-18476300Y-11224649D01*
X-18476300Y-11224649D02*
X-18442967Y-11157982D01*
X-18442967Y-11157982D02*
X-18409634Y-11124649D01*
X-18409634Y-11124649D02*
X-18342967Y-11091315D01*
X-18342967Y-11091315D02*
X-18176300Y-11091315D01*
X-18176300Y-11091315D02*
X-18109634Y-11124649D01*
X-18109634Y-11124649D02*
X-18076300Y-11157982D01*
X-18076300Y-11157982D02*
X-18042967Y-11224649D01*
X-18042967Y-11224649D02*
X-18042967Y-11424649D01*
X-18042967Y-11424649D02*
X-18076300Y-11491315D01*
X-18076300Y-11491315D02*
X-18109634Y-11524649D01*
X-12656034Y-21722017D02*
X-12656034Y-21322017D01*
X-12656034Y-21522017D02*
X-11956034Y-21522017D01*
X-11956034Y-21522017D02*
X-12056034Y-21455350D01*
X-12056034Y-21455350D02*
X-12122700Y-21388684D01*
X-12122700Y-21388684D02*
X-12156034Y-21322017D01*
X-18776300Y-21557982D02*
X-18809634Y-21524649D01*
X-18809634Y-21524649D02*
X-18842967Y-21457982D01*
X-18842967Y-21457982D02*
X-18842967Y-21291316D01*
X-18842967Y-21291316D02*
X-18809634Y-21224649D01*
X-18809634Y-21224649D02*
X-18776300Y-21191316D01*
X-18776300Y-21191316D02*
X-18709634Y-21157982D01*
X-18709634Y-21157982D02*
X-18642967Y-21157982D01*
X-18642967Y-21157982D02*
X-18542967Y-21191316D01*
X-18542967Y-21191316D02*
X-18142967Y-21591316D01*
X-18142967Y-21591316D02*
X-18142967Y-21157982D01*
X-12756034Y-11522017D02*
X-12756034Y-11122017D01*
X-12756034Y-11322017D02*
X-12056034Y-11322017D01*
X-12056034Y-11322017D02*
X-12156034Y-11255350D01*
X-12156034Y-11255350D02*
X-12222700Y-11188684D01*
X-12222700Y-11188684D02*
X-12256034Y-11122017D01*
X-12289367Y-12122017D02*
X-12756034Y-12122017D01*
X-12022700Y-11955351D02*
X-12522700Y-11788684D01*
X-12522700Y-11788684D02*
X-12522700Y-12222017D01*
D17*
X10391860Y-34495340D02*
X10391860Y-33429340D01*
X10431860Y-34730340D02*
X10431860Y-33194340D01*
X10471860Y-34910340D02*
X10471860Y-33014340D01*
X10511860Y-35060340D02*
X10511860Y-32864340D01*
X10551860Y-35191340D02*
X10551860Y-32733340D01*
X10591860Y-35308340D02*
X10591860Y-32616340D01*
X10631860Y-35415340D02*
X10631860Y-32509340D01*
X10671860Y-35514340D02*
X10671860Y-32410340D01*
X10711860Y-35607340D02*
X10711860Y-32317340D01*
X10751860Y-35693340D02*
X10751860Y-32231340D01*
X10791860Y-35775340D02*
X10791860Y-32149340D01*
X10831860Y-35852340D02*
X10831860Y-32072340D01*
X10871860Y-35926340D02*
X10871860Y-31998340D01*
X10911860Y-35996340D02*
X10911860Y-31928340D01*
X10951860Y-36064340D02*
X10951860Y-31860340D01*
X10991860Y-36128340D02*
X10991860Y-31796340D01*
X11031860Y-36190340D02*
X11031860Y-31734340D01*
X11071860Y-36249340D02*
X11071860Y-31675340D01*
X11111860Y-36307340D02*
X11111860Y-31617340D01*
X11151860Y-36362340D02*
X11151860Y-31562340D01*
X11191860Y-36416340D02*
X11191860Y-31508340D01*
X11231860Y-36467340D02*
X11231860Y-31457340D01*
X11271860Y-36518340D02*
X11271860Y-31406340D01*
X11311860Y-36566340D02*
X11311860Y-31358340D01*
X11351860Y-36613340D02*
X11351860Y-31311340D01*
X11391860Y-36659340D02*
X11391860Y-31265340D01*
X11431860Y-36703340D02*
X11431860Y-31221340D01*
X11471860Y-36746340D02*
X11471860Y-31178340D01*
X11511860Y-36788340D02*
X11511860Y-31136340D01*
X11551860Y-36829340D02*
X11551860Y-31095340D01*
X11591860Y-36869340D02*
X11591860Y-31055340D01*
X11631860Y-36907340D02*
X11631860Y-31017340D01*
X11671860Y-36945340D02*
X11671860Y-30979340D01*
X11711860Y-32922340D02*
X11711860Y-30943340D01*
X11711860Y-36981340D02*
X11711860Y-35002340D01*
X11751860Y-32922340D02*
X11751860Y-30907340D01*
X11751860Y-37017340D02*
X11751860Y-35002340D01*
X11791860Y-32922340D02*
X11791860Y-30872340D01*
X11791860Y-37052340D02*
X11791860Y-35002340D01*
X11831860Y-32922340D02*
X11831860Y-30838340D01*
X11831860Y-37086340D02*
X11831860Y-35002340D01*
X11871860Y-32922340D02*
X11871860Y-30806340D01*
X11871860Y-37118340D02*
X11871860Y-35002340D01*
X11911860Y-32922340D02*
X11911860Y-30773340D01*
X11911860Y-37151340D02*
X11911860Y-35002340D01*
X11951860Y-32922340D02*
X11951860Y-30742340D01*
X11951860Y-37182340D02*
X11951860Y-35002340D01*
X11991860Y-32922340D02*
X11991860Y-30712340D01*
X11991860Y-37212340D02*
X11991860Y-35002340D01*
X12031860Y-32922340D02*
X12031860Y-30682340D01*
X12031860Y-37242340D02*
X12031860Y-35002340D01*
X12071860Y-32922340D02*
X12071860Y-30653340D01*
X12071860Y-37271340D02*
X12071860Y-35002340D01*
X12111860Y-32922340D02*
X12111860Y-30624340D01*
X12111860Y-37300340D02*
X12111860Y-35002340D01*
X12151860Y-32922340D02*
X12151860Y-30597340D01*
X12151860Y-37327340D02*
X12151860Y-35002340D01*
X12191860Y-32922340D02*
X12191860Y-30570340D01*
X12191860Y-37354340D02*
X12191860Y-35002340D01*
X12231860Y-32922340D02*
X12231860Y-30544340D01*
X12231860Y-37380340D02*
X12231860Y-35002340D01*
X12271860Y-32922340D02*
X12271860Y-30518340D01*
X12271860Y-37406340D02*
X12271860Y-35002340D01*
X12311860Y-32922340D02*
X12311860Y-30493340D01*
X12311860Y-37431340D02*
X12311860Y-35002340D01*
X12351860Y-32922340D02*
X12351860Y-30469340D01*
X12351860Y-37455340D02*
X12351860Y-35002340D01*
X12391860Y-32922340D02*
X12391860Y-30445340D01*
X12391860Y-37479340D02*
X12391860Y-35002340D01*
X12431860Y-32922340D02*
X12431860Y-30422340D01*
X12431860Y-37502340D02*
X12431860Y-35002340D01*
X12471860Y-32922340D02*
X12471860Y-30400340D01*
X12471860Y-37524340D02*
X12471860Y-35002340D01*
X12511860Y-32922340D02*
X12511860Y-30378340D01*
X12511860Y-37546340D02*
X12511860Y-35002340D01*
X12551860Y-32922340D02*
X12551860Y-30356340D01*
X12551860Y-37568340D02*
X12551860Y-35002340D01*
X12591860Y-32922340D02*
X12591860Y-30335340D01*
X12591860Y-37589340D02*
X12591860Y-35002340D01*
X12631860Y-32922340D02*
X12631860Y-30315340D01*
X12631860Y-37609340D02*
X12631860Y-35002340D01*
X12671860Y-32922340D02*
X12671860Y-30296340D01*
X12671860Y-37628340D02*
X12671860Y-35002340D01*
X12711860Y-32922340D02*
X12711860Y-30276340D01*
X12711860Y-37648340D02*
X12711860Y-35002340D01*
X12751860Y-32922340D02*
X12751860Y-30258340D01*
X12751860Y-37666340D02*
X12751860Y-35002340D01*
X12791860Y-32922340D02*
X12791860Y-30240340D01*
X12791860Y-37684340D02*
X12791860Y-35002340D01*
X12831860Y-32922340D02*
X12831860Y-30222340D01*
X12831860Y-37702340D02*
X12831860Y-35002340D01*
X12871860Y-32922340D02*
X12871860Y-30205340D01*
X12871860Y-37719340D02*
X12871860Y-35002340D01*
X12911860Y-32922340D02*
X12911860Y-30188340D01*
X12911860Y-37736340D02*
X12911860Y-35002340D01*
X12951860Y-32922340D02*
X12951860Y-30172340D01*
X12951860Y-37752340D02*
X12951860Y-35002340D01*
X12991860Y-32922340D02*
X12991860Y-30157340D01*
X12991860Y-37767340D02*
X12991860Y-35002340D01*
X13031860Y-32922340D02*
X13031860Y-30141340D01*
X13031860Y-37783340D02*
X13031860Y-35002340D01*
X13071860Y-32922340D02*
X13071860Y-30127340D01*
X13071860Y-37797340D02*
X13071860Y-35002340D01*
X13111860Y-32922340D02*
X13111860Y-30112340D01*
X13111860Y-37812340D02*
X13111860Y-35002340D01*
X13151860Y-32922340D02*
X13151860Y-30099340D01*
X13151860Y-37825340D02*
X13151860Y-35002340D01*
X13191860Y-32922340D02*
X13191860Y-30085340D01*
X13191860Y-37839340D02*
X13191860Y-35002340D01*
X13231860Y-32922340D02*
X13231860Y-30073340D01*
X13231860Y-37851340D02*
X13231860Y-35002340D01*
X13271860Y-32922340D02*
X13271860Y-30060340D01*
X13271860Y-37864340D02*
X13271860Y-35002340D01*
X13311860Y-32922340D02*
X13311860Y-30048340D01*
X13311860Y-37876340D02*
X13311860Y-35002340D01*
X13351860Y-32922340D02*
X13351860Y-30037340D01*
X13351860Y-37887340D02*
X13351860Y-35002340D01*
X13391860Y-32922340D02*
X13391860Y-30026340D01*
X13391860Y-37898340D02*
X13391860Y-35002340D01*
X13431860Y-32922340D02*
X13431860Y-30015340D01*
X13431860Y-37909340D02*
X13431860Y-35002340D01*
X13471860Y-32922340D02*
X13471860Y-30005340D01*
X13471860Y-37919340D02*
X13471860Y-35002340D01*
X13511860Y-32922340D02*
X13511860Y-29995340D01*
X13511860Y-37929340D02*
X13511860Y-35002340D01*
X13551860Y-32922340D02*
X13551860Y-29986340D01*
X13551860Y-37938340D02*
X13551860Y-35002340D01*
X13591860Y-32922340D02*
X13591860Y-29977340D01*
X13591860Y-37947340D02*
X13591860Y-35002340D01*
X13631860Y-32922340D02*
X13631860Y-29968340D01*
X13631860Y-37956340D02*
X13631860Y-35002340D01*
X13671860Y-32922340D02*
X13671860Y-29960340D01*
X13671860Y-37964340D02*
X13671860Y-35002340D01*
X13711860Y-32922340D02*
X13711860Y-29952340D01*
X13711860Y-37972340D02*
X13711860Y-35002340D01*
X13751860Y-32922340D02*
X13751860Y-29945340D01*
X13751860Y-37979340D02*
X13751860Y-35002340D01*
X13792860Y-37986340D02*
X13792860Y-29938340D01*
X13832860Y-37992340D02*
X13832860Y-29932340D01*
X13872860Y-37999340D02*
X13872860Y-29925340D01*
X13912860Y-38004340D02*
X13912860Y-29920340D01*
X13952860Y-38010340D02*
X13952860Y-29914340D01*
X13992860Y-38014340D02*
X13992860Y-29910340D01*
X14032860Y-38019340D02*
X14032860Y-29905340D01*
X14072860Y-38023340D02*
X14072860Y-29901340D01*
X14112860Y-38027340D02*
X14112860Y-29897340D01*
X14152860Y-38030340D02*
X14152860Y-29894340D01*
X14192860Y-38033340D02*
X14192860Y-29891340D01*
X14232860Y-38036340D02*
X14232860Y-29888340D01*
X14272860Y-38038340D02*
X14272860Y-29886340D01*
X14312860Y-38039340D02*
X14312860Y-29885340D01*
X14352860Y-38041340D02*
X14352860Y-29883340D01*
X14392860Y-38042340D02*
X14392860Y-29882340D01*
X14432860Y-38042340D02*
X14432860Y-29882340D01*
X14472860Y-38042340D02*
X14472860Y-29882340D01*
X18482558Y-36677340D02*
X18482558Y-35877340D01*
X18882558Y-36277340D02*
X18082558Y-36277340D01*
X18592860Y-33962340D02*
G75*
G02*
X10352860Y-33962340I-4120000J0D01*
G01*
X10352860Y-33962340D02*
G75*
G02*
X18592860Y-33962340I4120000J0D01*
G01*
X2120702Y-28142140D02*
X2920702Y-28142140D01*
X2520702Y-27742140D02*
X2520702Y-28542140D01*
X6530400Y-26377140D02*
X6530400Y-34537140D01*
X6570400Y-26377140D02*
X6570400Y-34537140D01*
X6610400Y-26377140D02*
X6610400Y-34537140D01*
X6650400Y-26378140D02*
X6650400Y-34536140D01*
X6690400Y-26380140D02*
X6690400Y-34534140D01*
X6730400Y-26381140D02*
X6730400Y-34533140D01*
X6770400Y-26383140D02*
X6770400Y-34531140D01*
X6810400Y-26386140D02*
X6810400Y-34528140D01*
X6850400Y-26389140D02*
X6850400Y-34525140D01*
X6890400Y-26392140D02*
X6890400Y-34522140D01*
X6930400Y-26396140D02*
X6930400Y-34518140D01*
X6970400Y-26400140D02*
X6970400Y-34514140D01*
X7010400Y-26405140D02*
X7010400Y-34509140D01*
X7050400Y-26409140D02*
X7050400Y-34505140D01*
X7090400Y-26415140D02*
X7090400Y-34499140D01*
X7130400Y-26420140D02*
X7130400Y-34494140D01*
X7170400Y-26427140D02*
X7170400Y-34487140D01*
X7210400Y-26433140D02*
X7210400Y-34481140D01*
X7251400Y-26440140D02*
X7251400Y-29417140D01*
X7251400Y-31497140D02*
X7251400Y-34474140D01*
X7291400Y-26447140D02*
X7291400Y-29417140D01*
X7291400Y-31497140D02*
X7291400Y-34467140D01*
X7331400Y-26455140D02*
X7331400Y-29417140D01*
X7331400Y-31497140D02*
X7331400Y-34459140D01*
X7371400Y-26463140D02*
X7371400Y-29417140D01*
X7371400Y-31497140D02*
X7371400Y-34451140D01*
X7411400Y-26472140D02*
X7411400Y-29417140D01*
X7411400Y-31497140D02*
X7411400Y-34442140D01*
X7451400Y-26481140D02*
X7451400Y-29417140D01*
X7451400Y-31497140D02*
X7451400Y-34433140D01*
X7491400Y-26490140D02*
X7491400Y-29417140D01*
X7491400Y-31497140D02*
X7491400Y-34424140D01*
X7531400Y-26500140D02*
X7531400Y-29417140D01*
X7531400Y-31497140D02*
X7531400Y-34414140D01*
X7571400Y-26510140D02*
X7571400Y-29417140D01*
X7571400Y-31497140D02*
X7571400Y-34404140D01*
X7611400Y-26521140D02*
X7611400Y-29417140D01*
X7611400Y-31497140D02*
X7611400Y-34393140D01*
X7651400Y-26532140D02*
X7651400Y-29417140D01*
X7651400Y-31497140D02*
X7651400Y-34382140D01*
X7691400Y-26543140D02*
X7691400Y-29417140D01*
X7691400Y-31497140D02*
X7691400Y-34371140D01*
X7731400Y-26555140D02*
X7731400Y-29417140D01*
X7731400Y-31497140D02*
X7731400Y-34359140D01*
X7771400Y-26568140D02*
X7771400Y-29417140D01*
X7771400Y-31497140D02*
X7771400Y-34346140D01*
X7811400Y-26580140D02*
X7811400Y-29417140D01*
X7811400Y-31497140D02*
X7811400Y-34334140D01*
X7851400Y-26594140D02*
X7851400Y-29417140D01*
X7851400Y-31497140D02*
X7851400Y-34320140D01*
X7891400Y-26607140D02*
X7891400Y-29417140D01*
X7891400Y-31497140D02*
X7891400Y-34307140D01*
X7931400Y-26622140D02*
X7931400Y-29417140D01*
X7931400Y-31497140D02*
X7931400Y-34292140D01*
X7971400Y-26636140D02*
X7971400Y-29417140D01*
X7971400Y-31497140D02*
X7971400Y-34278140D01*
X8011400Y-26652140D02*
X8011400Y-29417140D01*
X8011400Y-31497140D02*
X8011400Y-34262140D01*
X8051400Y-26667140D02*
X8051400Y-29417140D01*
X8051400Y-31497140D02*
X8051400Y-34247140D01*
X8091400Y-26683140D02*
X8091400Y-29417140D01*
X8091400Y-31497140D02*
X8091400Y-34231140D01*
X8131400Y-26700140D02*
X8131400Y-29417140D01*
X8131400Y-31497140D02*
X8131400Y-34214140D01*
X8171400Y-26717140D02*
X8171400Y-29417140D01*
X8171400Y-31497140D02*
X8171400Y-34197140D01*
X8211400Y-26735140D02*
X8211400Y-29417140D01*
X8211400Y-31497140D02*
X8211400Y-34179140D01*
X8251400Y-26753140D02*
X8251400Y-29417140D01*
X8251400Y-31497140D02*
X8251400Y-34161140D01*
X8291400Y-26771140D02*
X8291400Y-29417140D01*
X8291400Y-31497140D02*
X8291400Y-34143140D01*
X8331400Y-26791140D02*
X8331400Y-29417140D01*
X8331400Y-31497140D02*
X8331400Y-34123140D01*
X8371400Y-26810140D02*
X8371400Y-29417140D01*
X8371400Y-31497140D02*
X8371400Y-34104140D01*
X8411400Y-26830140D02*
X8411400Y-29417140D01*
X8411400Y-31497140D02*
X8411400Y-34084140D01*
X8451400Y-26851140D02*
X8451400Y-29417140D01*
X8451400Y-31497140D02*
X8451400Y-34063140D01*
X8491400Y-26873140D02*
X8491400Y-29417140D01*
X8491400Y-31497140D02*
X8491400Y-34041140D01*
X8531400Y-26895140D02*
X8531400Y-29417140D01*
X8531400Y-31497140D02*
X8531400Y-34019140D01*
X8571400Y-26917140D02*
X8571400Y-29417140D01*
X8571400Y-31497140D02*
X8571400Y-33997140D01*
X8611400Y-26940140D02*
X8611400Y-29417140D01*
X8611400Y-31497140D02*
X8611400Y-33974140D01*
X8651400Y-26964140D02*
X8651400Y-29417140D01*
X8651400Y-31497140D02*
X8651400Y-33950140D01*
X8691400Y-26988140D02*
X8691400Y-29417140D01*
X8691400Y-31497140D02*
X8691400Y-33926140D01*
X8731400Y-27013140D02*
X8731400Y-29417140D01*
X8731400Y-31497140D02*
X8731400Y-33901140D01*
X8771400Y-27039140D02*
X8771400Y-29417140D01*
X8771400Y-31497140D02*
X8771400Y-33875140D01*
X8811400Y-27065140D02*
X8811400Y-29417140D01*
X8811400Y-31497140D02*
X8811400Y-33849140D01*
X8851400Y-27092140D02*
X8851400Y-29417140D01*
X8851400Y-31497140D02*
X8851400Y-33822140D01*
X8891400Y-27119140D02*
X8891400Y-29417140D01*
X8891400Y-31497140D02*
X8891400Y-33795140D01*
X8931400Y-27148140D02*
X8931400Y-29417140D01*
X8931400Y-31497140D02*
X8931400Y-33766140D01*
X8971400Y-27177140D02*
X8971400Y-29417140D01*
X8971400Y-31497140D02*
X8971400Y-33737140D01*
X9011400Y-27207140D02*
X9011400Y-29417140D01*
X9011400Y-31497140D02*
X9011400Y-33707140D01*
X9051400Y-27237140D02*
X9051400Y-29417140D01*
X9051400Y-31497140D02*
X9051400Y-33677140D01*
X9091400Y-27268140D02*
X9091400Y-29417140D01*
X9091400Y-31497140D02*
X9091400Y-33646140D01*
X9131400Y-27301140D02*
X9131400Y-29417140D01*
X9131400Y-31497140D02*
X9131400Y-33613140D01*
X9171400Y-27333140D02*
X9171400Y-29417140D01*
X9171400Y-31497140D02*
X9171400Y-33581140D01*
X9211400Y-27367140D02*
X9211400Y-29417140D01*
X9211400Y-31497140D02*
X9211400Y-33547140D01*
X9251400Y-27402140D02*
X9251400Y-29417140D01*
X9251400Y-31497140D02*
X9251400Y-33512140D01*
X9291400Y-27438140D02*
X9291400Y-29417140D01*
X9291400Y-31497140D02*
X9291400Y-33476140D01*
X9331400Y-27474140D02*
X9331400Y-33440140D01*
X9371400Y-27512140D02*
X9371400Y-33402140D01*
X9411400Y-27550140D02*
X9411400Y-33364140D01*
X9451400Y-27590140D02*
X9451400Y-33324140D01*
X9491400Y-27631140D02*
X9491400Y-33283140D01*
X9531400Y-27673140D02*
X9531400Y-33241140D01*
X9571400Y-27716140D02*
X9571400Y-33198140D01*
X9611400Y-27760140D02*
X9611400Y-33154140D01*
X9651400Y-27806140D02*
X9651400Y-33108140D01*
X9691400Y-27853140D02*
X9691400Y-33061140D01*
X9731400Y-27901140D02*
X9731400Y-33013140D01*
X9771400Y-27952140D02*
X9771400Y-32962140D01*
X9811400Y-28003140D02*
X9811400Y-32911140D01*
X9851400Y-28057140D02*
X9851400Y-32857140D01*
X9891400Y-28112140D02*
X9891400Y-32802140D01*
X9931400Y-28170140D02*
X9931400Y-32744140D01*
X9971400Y-28229140D02*
X9971400Y-32685140D01*
X10011400Y-28291140D02*
X10011400Y-32623140D01*
X10051400Y-28355140D02*
X10051400Y-32559140D01*
X10091400Y-28423140D02*
X10091400Y-32491140D01*
X10131400Y-28493140D02*
X10131400Y-32421140D01*
X10171400Y-28567140D02*
X10171400Y-32347140D01*
X10211400Y-28644140D02*
X10211400Y-32270140D01*
X10251400Y-28726140D02*
X10251400Y-32188140D01*
X10291400Y-28812140D02*
X10291400Y-32102140D01*
X10331400Y-28905140D02*
X10331400Y-32009140D01*
X10371400Y-29004140D02*
X10371400Y-31910140D01*
X10411400Y-29111140D02*
X10411400Y-31803140D01*
X10451400Y-29228140D02*
X10451400Y-31686140D01*
X10491400Y-29359140D02*
X10491400Y-31555140D01*
X10531400Y-29509140D02*
X10531400Y-31405140D01*
X10571400Y-29689140D02*
X10571400Y-31225140D01*
X10611400Y-29924140D02*
X10611400Y-30990140D01*
X10650400Y-30457140D02*
G75*
G02*
X2410400Y-30457140I-4120000J0D01*
G01*
X2410400Y-30457140D02*
G75*
G02*
X10650400Y-30457140I4120000J0D01*
G01*
X2080062Y-19483280D02*
X2880062Y-19483280D01*
X2480062Y-19083280D02*
X2480062Y-19883280D01*
X6489760Y-17718280D02*
X6489760Y-25878280D01*
X6529760Y-17718280D02*
X6529760Y-25878280D01*
X6569760Y-17718280D02*
X6569760Y-25878280D01*
X6609760Y-17719280D02*
X6609760Y-25877280D01*
X6649760Y-17721280D02*
X6649760Y-25875280D01*
X6689760Y-17722280D02*
X6689760Y-25874280D01*
X6729760Y-17724280D02*
X6729760Y-25872280D01*
X6769760Y-17727280D02*
X6769760Y-25869280D01*
X6809760Y-17730280D02*
X6809760Y-25866280D01*
X6849760Y-17733280D02*
X6849760Y-25863280D01*
X6889760Y-17737280D02*
X6889760Y-25859280D01*
X6929760Y-17741280D02*
X6929760Y-25855280D01*
X6969760Y-17746280D02*
X6969760Y-25850280D01*
X7009760Y-17750280D02*
X7009760Y-25846280D01*
X7049760Y-17756280D02*
X7049760Y-25840280D01*
X7089760Y-17761280D02*
X7089760Y-25835280D01*
X7129760Y-17768280D02*
X7129760Y-25828280D01*
X7169760Y-17774280D02*
X7169760Y-25822280D01*
X7210760Y-17781280D02*
X7210760Y-20758280D01*
X7210760Y-22838280D02*
X7210760Y-25815280D01*
X7250760Y-17788280D02*
X7250760Y-20758280D01*
X7250760Y-22838280D02*
X7250760Y-25808280D01*
X7290760Y-17796280D02*
X7290760Y-20758280D01*
X7290760Y-22838280D02*
X7290760Y-25800280D01*
X7330760Y-17804280D02*
X7330760Y-20758280D01*
X7330760Y-22838280D02*
X7330760Y-25792280D01*
X7370760Y-17813280D02*
X7370760Y-20758280D01*
X7370760Y-22838280D02*
X7370760Y-25783280D01*
X7410760Y-17822280D02*
X7410760Y-20758280D01*
X7410760Y-22838280D02*
X7410760Y-25774280D01*
X7450760Y-17831280D02*
X7450760Y-20758280D01*
X7450760Y-22838280D02*
X7450760Y-25765280D01*
X7490760Y-17841280D02*
X7490760Y-20758280D01*
X7490760Y-22838280D02*
X7490760Y-25755280D01*
X7530760Y-17851280D02*
X7530760Y-20758280D01*
X7530760Y-22838280D02*
X7530760Y-25745280D01*
X7570760Y-17862280D02*
X7570760Y-20758280D01*
X7570760Y-22838280D02*
X7570760Y-25734280D01*
X7610760Y-17873280D02*
X7610760Y-20758280D01*
X7610760Y-22838280D02*
X7610760Y-25723280D01*
X7650760Y-17884280D02*
X7650760Y-20758280D01*
X7650760Y-22838280D02*
X7650760Y-25712280D01*
X7690760Y-17896280D02*
X7690760Y-20758280D01*
X7690760Y-22838280D02*
X7690760Y-25700280D01*
X7730760Y-17909280D02*
X7730760Y-20758280D01*
X7730760Y-22838280D02*
X7730760Y-25687280D01*
X7770760Y-17921280D02*
X7770760Y-20758280D01*
X7770760Y-22838280D02*
X7770760Y-25675280D01*
X7810760Y-17935280D02*
X7810760Y-20758280D01*
X7810760Y-22838280D02*
X7810760Y-25661280D01*
X7850760Y-17948280D02*
X7850760Y-20758280D01*
X7850760Y-22838280D02*
X7850760Y-25648280D01*
X7890760Y-17963280D02*
X7890760Y-20758280D01*
X7890760Y-22838280D02*
X7890760Y-25633280D01*
X7930760Y-17977280D02*
X7930760Y-20758280D01*
X7930760Y-22838280D02*
X7930760Y-25619280D01*
X7970760Y-17993280D02*
X7970760Y-20758280D01*
X7970760Y-22838280D02*
X7970760Y-25603280D01*
X8010760Y-18008280D02*
X8010760Y-20758280D01*
X8010760Y-22838280D02*
X8010760Y-25588280D01*
X8050760Y-18024280D02*
X8050760Y-20758280D01*
X8050760Y-22838280D02*
X8050760Y-25572280D01*
X8090760Y-18041280D02*
X8090760Y-20758280D01*
X8090760Y-22838280D02*
X8090760Y-25555280D01*
X8130760Y-18058280D02*
X8130760Y-20758280D01*
X8130760Y-22838280D02*
X8130760Y-25538280D01*
X8170760Y-18076280D02*
X8170760Y-20758280D01*
X8170760Y-22838280D02*
X8170760Y-25520280D01*
X8210760Y-18094280D02*
X8210760Y-20758280D01*
X8210760Y-22838280D02*
X8210760Y-25502280D01*
X8250760Y-18112280D02*
X8250760Y-20758280D01*
X8250760Y-22838280D02*
X8250760Y-25484280D01*
X8290760Y-18132280D02*
X8290760Y-20758280D01*
X8290760Y-22838280D02*
X8290760Y-25464280D01*
X8330760Y-18151280D02*
X8330760Y-20758280D01*
X8330760Y-22838280D02*
X8330760Y-25445280D01*
X8370760Y-18171280D02*
X8370760Y-20758280D01*
X8370760Y-22838280D02*
X8370760Y-25425280D01*
X8410760Y-18192280D02*
X8410760Y-20758280D01*
X8410760Y-22838280D02*
X8410760Y-25404280D01*
X8450760Y-18214280D02*
X8450760Y-20758280D01*
X8450760Y-22838280D02*
X8450760Y-25382280D01*
X8490760Y-18236280D02*
X8490760Y-20758280D01*
X8490760Y-22838280D02*
X8490760Y-25360280D01*
X8530760Y-18258280D02*
X8530760Y-20758280D01*
X8530760Y-22838280D02*
X8530760Y-25338280D01*
X8570760Y-18281280D02*
X8570760Y-20758280D01*
X8570760Y-22838280D02*
X8570760Y-25315280D01*
X8610760Y-18305280D02*
X8610760Y-20758280D01*
X8610760Y-22838280D02*
X8610760Y-25291280D01*
X8650760Y-18329280D02*
X8650760Y-20758280D01*
X8650760Y-22838280D02*
X8650760Y-25267280D01*
X8690760Y-18354280D02*
X8690760Y-20758280D01*
X8690760Y-22838280D02*
X8690760Y-25242280D01*
X8730760Y-18380280D02*
X8730760Y-20758280D01*
X8730760Y-22838280D02*
X8730760Y-25216280D01*
X8770760Y-18406280D02*
X8770760Y-20758280D01*
X8770760Y-22838280D02*
X8770760Y-25190280D01*
X8810760Y-18433280D02*
X8810760Y-20758280D01*
X8810760Y-22838280D02*
X8810760Y-25163280D01*
X8850760Y-18460280D02*
X8850760Y-20758280D01*
X8850760Y-22838280D02*
X8850760Y-25136280D01*
X8890760Y-18489280D02*
X8890760Y-20758280D01*
X8890760Y-22838280D02*
X8890760Y-25107280D01*
X8930760Y-18518280D02*
X8930760Y-20758280D01*
X8930760Y-22838280D02*
X8930760Y-25078280D01*
X8970760Y-18548280D02*
X8970760Y-20758280D01*
X8970760Y-22838280D02*
X8970760Y-25048280D01*
X9010760Y-18578280D02*
X9010760Y-20758280D01*
X9010760Y-22838280D02*
X9010760Y-25018280D01*
X9050760Y-18609280D02*
X9050760Y-20758280D01*
X9050760Y-22838280D02*
X9050760Y-24987280D01*
X9090760Y-18642280D02*
X9090760Y-20758280D01*
X9090760Y-22838280D02*
X9090760Y-24954280D01*
X9130760Y-18674280D02*
X9130760Y-20758280D01*
X9130760Y-22838280D02*
X9130760Y-24922280D01*
X9170760Y-18708280D02*
X9170760Y-20758280D01*
X9170760Y-22838280D02*
X9170760Y-24888280D01*
X9210760Y-18743280D02*
X9210760Y-20758280D01*
X9210760Y-22838280D02*
X9210760Y-24853280D01*
X9250760Y-18779280D02*
X9250760Y-20758280D01*
X9250760Y-22838280D02*
X9250760Y-24817280D01*
X9290760Y-18815280D02*
X9290760Y-24781280D01*
X9330760Y-18853280D02*
X9330760Y-24743280D01*
X9370760Y-18891280D02*
X9370760Y-24705280D01*
X9410760Y-18931280D02*
X9410760Y-24665280D01*
X9450760Y-18972280D02*
X9450760Y-24624280D01*
X9490760Y-19014280D02*
X9490760Y-24582280D01*
X9530760Y-19057280D02*
X9530760Y-24539280D01*
X9570760Y-19101280D02*
X9570760Y-24495280D01*
X9610760Y-19147280D02*
X9610760Y-24449280D01*
X9650760Y-19194280D02*
X9650760Y-24402280D01*
X9690760Y-19242280D02*
X9690760Y-24354280D01*
X9730760Y-19293280D02*
X9730760Y-24303280D01*
X9770760Y-19344280D02*
X9770760Y-24252280D01*
X9810760Y-19398280D02*
X9810760Y-24198280D01*
X9850760Y-19453280D02*
X9850760Y-24143280D01*
X9890760Y-19511280D02*
X9890760Y-24085280D01*
X9930760Y-19570280D02*
X9930760Y-24026280D01*
X9970760Y-19632280D02*
X9970760Y-23964280D01*
X10010760Y-19696280D02*
X10010760Y-23900280D01*
X10050760Y-19764280D02*
X10050760Y-23832280D01*
X10090760Y-19834280D02*
X10090760Y-23762280D01*
X10130760Y-19908280D02*
X10130760Y-23688280D01*
X10170760Y-19985280D02*
X10170760Y-23611280D01*
X10210760Y-20067280D02*
X10210760Y-23529280D01*
X10250760Y-20153280D02*
X10250760Y-23443280D01*
X10290760Y-20246280D02*
X10290760Y-23350280D01*
X10330760Y-20345280D02*
X10330760Y-23251280D01*
X10370760Y-20452280D02*
X10370760Y-23144280D01*
X10410760Y-20569280D02*
X10410760Y-23027280D01*
X10450760Y-20700280D02*
X10450760Y-22896280D01*
X10490760Y-20850280D02*
X10490760Y-22746280D01*
X10530760Y-21030280D02*
X10530760Y-22566280D01*
X10570760Y-21265280D02*
X10570760Y-22331280D01*
X10609760Y-21798280D02*
G75*
G02*
X2369760Y-21798280I-4120000J0D01*
G01*
X2369760Y-21798280D02*
G75*
G02*
X10609760Y-21798280I4120000J0D01*
G01*
X14840000Y-45450000D02*
X14840000Y-51450000D01*
X19040000Y-45450000D02*
X19040000Y-51450000D01*
X2156142Y-36801000D02*
X2956142Y-36801000D01*
X2556142Y-36401000D02*
X2556142Y-37201000D01*
X6565840Y-35036000D02*
X6565840Y-43196000D01*
X6605840Y-35036000D02*
X6605840Y-43196000D01*
X6645840Y-35036000D02*
X6645840Y-43196000D01*
X6685840Y-35037000D02*
X6685840Y-43195000D01*
X6725840Y-35039000D02*
X6725840Y-43193000D01*
X6765840Y-35040000D02*
X6765840Y-43192000D01*
X6805840Y-35042000D02*
X6805840Y-43190000D01*
X6845840Y-35045000D02*
X6845840Y-43187000D01*
X6885840Y-35048000D02*
X6885840Y-43184000D01*
X6925840Y-35051000D02*
X6925840Y-43181000D01*
X6965840Y-35055000D02*
X6965840Y-43177000D01*
X7005840Y-35059000D02*
X7005840Y-43173000D01*
X7045840Y-35064000D02*
X7045840Y-43168000D01*
X7085840Y-35068000D02*
X7085840Y-43164000D01*
X7125840Y-35074000D02*
X7125840Y-43158000D01*
X7165840Y-35079000D02*
X7165840Y-43153000D01*
X7205840Y-35086000D02*
X7205840Y-43146000D01*
X7245840Y-35092000D02*
X7245840Y-43140000D01*
X7286840Y-35099000D02*
X7286840Y-38076000D01*
X7286840Y-40156000D02*
X7286840Y-43133000D01*
X7326840Y-35106000D02*
X7326840Y-38076000D01*
X7326840Y-40156000D02*
X7326840Y-43126000D01*
X7366840Y-35114000D02*
X7366840Y-38076000D01*
X7366840Y-40156000D02*
X7366840Y-43118000D01*
X7406840Y-35122000D02*
X7406840Y-38076000D01*
X7406840Y-40156000D02*
X7406840Y-43110000D01*
X7446840Y-35131000D02*
X7446840Y-38076000D01*
X7446840Y-40156000D02*
X7446840Y-43101000D01*
X7486840Y-35140000D02*
X7486840Y-38076000D01*
X7486840Y-40156000D02*
X7486840Y-43092000D01*
X7526840Y-35149000D02*
X7526840Y-38076000D01*
X7526840Y-40156000D02*
X7526840Y-43083000D01*
X7566840Y-35159000D02*
X7566840Y-38076000D01*
X7566840Y-40156000D02*
X7566840Y-43073000D01*
X7606840Y-35169000D02*
X7606840Y-38076000D01*
X7606840Y-40156000D02*
X7606840Y-43063000D01*
X7646840Y-35180000D02*
X7646840Y-38076000D01*
X7646840Y-40156000D02*
X7646840Y-43052000D01*
X7686840Y-35191000D02*
X7686840Y-38076000D01*
X7686840Y-40156000D02*
X7686840Y-43041000D01*
X7726840Y-35202000D02*
X7726840Y-38076000D01*
X7726840Y-40156000D02*
X7726840Y-43030000D01*
X7766840Y-35214000D02*
X7766840Y-38076000D01*
X7766840Y-40156000D02*
X7766840Y-43018000D01*
X7806840Y-35227000D02*
X7806840Y-38076000D01*
X7806840Y-40156000D02*
X7806840Y-43005000D01*
X7846840Y-35239000D02*
X7846840Y-38076000D01*
X7846840Y-40156000D02*
X7846840Y-42993000D01*
X7886840Y-35253000D02*
X7886840Y-38076000D01*
X7886840Y-40156000D02*
X7886840Y-42979000D01*
X7926840Y-35266000D02*
X7926840Y-38076000D01*
X7926840Y-40156000D02*
X7926840Y-42966000D01*
X7966840Y-35281000D02*
X7966840Y-38076000D01*
X7966840Y-40156000D02*
X7966840Y-42951000D01*
X8006840Y-35295000D02*
X8006840Y-38076000D01*
X8006840Y-40156000D02*
X8006840Y-42937000D01*
X8046840Y-35311000D02*
X8046840Y-38076000D01*
X8046840Y-40156000D02*
X8046840Y-42921000D01*
X8086840Y-35326000D02*
X8086840Y-38076000D01*
X8086840Y-40156000D02*
X8086840Y-42906000D01*
X8126840Y-35342000D02*
X8126840Y-38076000D01*
X8126840Y-40156000D02*
X8126840Y-42890000D01*
X8166840Y-35359000D02*
X8166840Y-38076000D01*
X8166840Y-40156000D02*
X8166840Y-42873000D01*
X8206840Y-35376000D02*
X8206840Y-38076000D01*
X8206840Y-40156000D02*
X8206840Y-42856000D01*
X8246840Y-35394000D02*
X8246840Y-38076000D01*
X8246840Y-40156000D02*
X8246840Y-42838000D01*
X8286840Y-35412000D02*
X8286840Y-38076000D01*
X8286840Y-40156000D02*
X8286840Y-42820000D01*
X8326840Y-35430000D02*
X8326840Y-38076000D01*
X8326840Y-40156000D02*
X8326840Y-42802000D01*
X8366840Y-35450000D02*
X8366840Y-38076000D01*
X8366840Y-40156000D02*
X8366840Y-42782000D01*
X8406840Y-35469000D02*
X8406840Y-38076000D01*
X8406840Y-40156000D02*
X8406840Y-42763000D01*
X8446840Y-35489000D02*
X8446840Y-38076000D01*
X8446840Y-40156000D02*
X8446840Y-42743000D01*
X8486840Y-35510000D02*
X8486840Y-38076000D01*
X8486840Y-40156000D02*
X8486840Y-42722000D01*
X8526840Y-35532000D02*
X8526840Y-38076000D01*
X8526840Y-40156000D02*
X8526840Y-42700000D01*
X8566840Y-35554000D02*
X8566840Y-38076000D01*
X8566840Y-40156000D02*
X8566840Y-42678000D01*
X8606840Y-35576000D02*
X8606840Y-38076000D01*
X8606840Y-40156000D02*
X8606840Y-42656000D01*
X8646840Y-35599000D02*
X8646840Y-38076000D01*
X8646840Y-40156000D02*
X8646840Y-42633000D01*
X8686840Y-35623000D02*
X8686840Y-38076000D01*
X8686840Y-40156000D02*
X8686840Y-42609000D01*
X8726840Y-35647000D02*
X8726840Y-38076000D01*
X8726840Y-40156000D02*
X8726840Y-42585000D01*
X8766840Y-35672000D02*
X8766840Y-38076000D01*
X8766840Y-40156000D02*
X8766840Y-42560000D01*
X8806840Y-35698000D02*
X8806840Y-38076000D01*
X8806840Y-40156000D02*
X8806840Y-42534000D01*
X8846840Y-35724000D02*
X8846840Y-38076000D01*
X8846840Y-40156000D02*
X8846840Y-42508000D01*
X8886840Y-35751000D02*
X8886840Y-38076000D01*
X8886840Y-40156000D02*
X8886840Y-42481000D01*
X8926840Y-35778000D02*
X8926840Y-38076000D01*
X8926840Y-40156000D02*
X8926840Y-42454000D01*
X8966840Y-35807000D02*
X8966840Y-38076000D01*
X8966840Y-40156000D02*
X8966840Y-42425000D01*
X9006840Y-35836000D02*
X9006840Y-38076000D01*
X9006840Y-40156000D02*
X9006840Y-42396000D01*
X9046840Y-35866000D02*
X9046840Y-38076000D01*
X9046840Y-40156000D02*
X9046840Y-42366000D01*
X9086840Y-35896000D02*
X9086840Y-38076000D01*
X9086840Y-40156000D02*
X9086840Y-42336000D01*
X9126840Y-35927000D02*
X9126840Y-38076000D01*
X9126840Y-40156000D02*
X9126840Y-42305000D01*
X9166840Y-35960000D02*
X9166840Y-38076000D01*
X9166840Y-40156000D02*
X9166840Y-42272000D01*
X9206840Y-35992000D02*
X9206840Y-38076000D01*
X9206840Y-40156000D02*
X9206840Y-42240000D01*
X9246840Y-36026000D02*
X9246840Y-38076000D01*
X9246840Y-40156000D02*
X9246840Y-42206000D01*
X9286840Y-36061000D02*
X9286840Y-38076000D01*
X9286840Y-40156000D02*
X9286840Y-42171000D01*
X9326840Y-36097000D02*
X9326840Y-38076000D01*
X9326840Y-40156000D02*
X9326840Y-42135000D01*
X9366840Y-36133000D02*
X9366840Y-42099000D01*
X9406840Y-36171000D02*
X9406840Y-42061000D01*
X9446840Y-36209000D02*
X9446840Y-42023000D01*
X9486840Y-36249000D02*
X9486840Y-41983000D01*
X9526840Y-36290000D02*
X9526840Y-41942000D01*
X9566840Y-36332000D02*
X9566840Y-41900000D01*
X9606840Y-36375000D02*
X9606840Y-41857000D01*
X9646840Y-36419000D02*
X9646840Y-41813000D01*
X9686840Y-36465000D02*
X9686840Y-41767000D01*
X9726840Y-36512000D02*
X9726840Y-41720000D01*
X9766840Y-36560000D02*
X9766840Y-41672000D01*
X9806840Y-36611000D02*
X9806840Y-41621000D01*
X9846840Y-36662000D02*
X9846840Y-41570000D01*
X9886840Y-36716000D02*
X9886840Y-41516000D01*
X9926840Y-36771000D02*
X9926840Y-41461000D01*
X9966840Y-36829000D02*
X9966840Y-41403000D01*
X10006840Y-36888000D02*
X10006840Y-41344000D01*
X10046840Y-36950000D02*
X10046840Y-41282000D01*
X10086840Y-37014000D02*
X10086840Y-41218000D01*
X10126840Y-37082000D02*
X10126840Y-41150000D01*
X10166840Y-37152000D02*
X10166840Y-41080000D01*
X10206840Y-37226000D02*
X10206840Y-41006000D01*
X10246840Y-37303000D02*
X10246840Y-40929000D01*
X10286840Y-37385000D02*
X10286840Y-40847000D01*
X10326840Y-37471000D02*
X10326840Y-40761000D01*
X10366840Y-37564000D02*
X10366840Y-40668000D01*
X10406840Y-37663000D02*
X10406840Y-40569000D01*
X10446840Y-37770000D02*
X10446840Y-40462000D01*
X10486840Y-37887000D02*
X10486840Y-40345000D01*
X10526840Y-38018000D02*
X10526840Y-40214000D01*
X10566840Y-38168000D02*
X10566840Y-40064000D01*
X10606840Y-38348000D02*
X10606840Y-39884000D01*
X10646840Y-38583000D02*
X10646840Y-39649000D01*
X10685840Y-39116000D02*
G75*
G02*
X2445840Y-39116000I-4120000J0D01*
G01*
X2445840Y-39116000D02*
G75*
G02*
X10685840Y-39116000I4120000J0D01*
G01*
X11554721Y-48000000D02*
X11880279Y-48000000D01*
X11554721Y-49020000D02*
X11880279Y-49020000D01*
X11450000Y-40587779D02*
X11450000Y-40262221D01*
X12470000Y-40587779D02*
X12470000Y-40262221D01*
X8839721Y-43750000D02*
X9165279Y-43750000D01*
X8839721Y-44770000D02*
X9165279Y-44770000D01*
X10970000Y-44160000D02*
X10970000Y-46590000D01*
X14040000Y-45920000D02*
X14040000Y-44160000D01*
D18*
X11232200Y-47625720D02*
G75*
G02*
X10832200Y-47625720I-200000J0D01*
G01*
X10832200Y-47625720D02*
G75*
G02*
X11232200Y-47625720I200000J0D01*
G01*
D17*
X8837221Y-45290000D02*
X9162779Y-45290000D01*
X8837221Y-46310000D02*
X9162779Y-46310000D01*
X17310640Y-41676101D02*
X17310640Y-42001659D01*
X18330640Y-41676101D02*
X18330640Y-42001659D01*
X10371540Y-25851720D02*
X10371540Y-24785720D01*
X10411540Y-26086720D02*
X10411540Y-24550720D01*
X10451540Y-26266720D02*
X10451540Y-24370720D01*
X10491540Y-26416720D02*
X10491540Y-24220720D01*
X10531540Y-26547720D02*
X10531540Y-24089720D01*
X10571540Y-26664720D02*
X10571540Y-23972720D01*
X10611540Y-26771720D02*
X10611540Y-23865720D01*
X10651540Y-26870720D02*
X10651540Y-23766720D01*
X10691540Y-26963720D02*
X10691540Y-23673720D01*
X10731540Y-27049720D02*
X10731540Y-23587720D01*
X10771540Y-27131720D02*
X10771540Y-23505720D01*
X10811540Y-27208720D02*
X10811540Y-23428720D01*
X10851540Y-27282720D02*
X10851540Y-23354720D01*
X10891540Y-27352720D02*
X10891540Y-23284720D01*
X10931540Y-27420720D02*
X10931540Y-23216720D01*
X10971540Y-27484720D02*
X10971540Y-23152720D01*
X11011540Y-27546720D02*
X11011540Y-23090720D01*
X11051540Y-27605720D02*
X11051540Y-23031720D01*
X11091540Y-27663720D02*
X11091540Y-22973720D01*
X11131540Y-27718720D02*
X11131540Y-22918720D01*
X11171540Y-27772720D02*
X11171540Y-22864720D01*
X11211540Y-27823720D02*
X11211540Y-22813720D01*
X11251540Y-27874720D02*
X11251540Y-22762720D01*
X11291540Y-27922720D02*
X11291540Y-22714720D01*
X11331540Y-27969720D02*
X11331540Y-22667720D01*
X11371540Y-28015720D02*
X11371540Y-22621720D01*
X11411540Y-28059720D02*
X11411540Y-22577720D01*
X11451540Y-28102720D02*
X11451540Y-22534720D01*
X11491540Y-28144720D02*
X11491540Y-22492720D01*
X11531540Y-28185720D02*
X11531540Y-22451720D01*
X11571540Y-28225720D02*
X11571540Y-22411720D01*
X11611540Y-28263720D02*
X11611540Y-22373720D01*
X11651540Y-28301720D02*
X11651540Y-22335720D01*
X11691540Y-24278720D02*
X11691540Y-22299720D01*
X11691540Y-28337720D02*
X11691540Y-26358720D01*
X11731540Y-24278720D02*
X11731540Y-22263720D01*
X11731540Y-28373720D02*
X11731540Y-26358720D01*
X11771540Y-24278720D02*
X11771540Y-22228720D01*
X11771540Y-28408720D02*
X11771540Y-26358720D01*
X11811540Y-24278720D02*
X11811540Y-22194720D01*
X11811540Y-28442720D02*
X11811540Y-26358720D01*
X11851540Y-24278720D02*
X11851540Y-22162720D01*
X11851540Y-28474720D02*
X11851540Y-26358720D01*
X11891540Y-24278720D02*
X11891540Y-22129720D01*
X11891540Y-28507720D02*
X11891540Y-26358720D01*
X11931540Y-24278720D02*
X11931540Y-22098720D01*
X11931540Y-28538720D02*
X11931540Y-26358720D01*
X11971540Y-24278720D02*
X11971540Y-22068720D01*
X11971540Y-28568720D02*
X11971540Y-26358720D01*
X12011540Y-24278720D02*
X12011540Y-22038720D01*
X12011540Y-28598720D02*
X12011540Y-26358720D01*
X12051540Y-24278720D02*
X12051540Y-22009720D01*
X12051540Y-28627720D02*
X12051540Y-26358720D01*
X12091540Y-24278720D02*
X12091540Y-21980720D01*
X12091540Y-28656720D02*
X12091540Y-26358720D01*
X12131540Y-24278720D02*
X12131540Y-21953720D01*
X12131540Y-28683720D02*
X12131540Y-26358720D01*
X12171540Y-24278720D02*
X12171540Y-21926720D01*
X12171540Y-28710720D02*
X12171540Y-26358720D01*
X12211540Y-24278720D02*
X12211540Y-21900720D01*
X12211540Y-28736720D02*
X12211540Y-26358720D01*
X12251540Y-24278720D02*
X12251540Y-21874720D01*
X12251540Y-28762720D02*
X12251540Y-26358720D01*
X12291540Y-24278720D02*
X12291540Y-21849720D01*
X12291540Y-28787720D02*
X12291540Y-26358720D01*
X12331540Y-24278720D02*
X12331540Y-21825720D01*
X12331540Y-28811720D02*
X12331540Y-26358720D01*
X12371540Y-24278720D02*
X12371540Y-21801720D01*
X12371540Y-28835720D02*
X12371540Y-26358720D01*
X12411540Y-24278720D02*
X12411540Y-21778720D01*
X12411540Y-28858720D02*
X12411540Y-26358720D01*
X12451540Y-24278720D02*
X12451540Y-21756720D01*
X12451540Y-28880720D02*
X12451540Y-26358720D01*
X12491540Y-24278720D02*
X12491540Y-21734720D01*
X12491540Y-28902720D02*
X12491540Y-26358720D01*
X12531540Y-24278720D02*
X12531540Y-21712720D01*
X12531540Y-28924720D02*
X12531540Y-26358720D01*
X12571540Y-24278720D02*
X12571540Y-21691720D01*
X12571540Y-28945720D02*
X12571540Y-26358720D01*
X12611540Y-24278720D02*
X12611540Y-21671720D01*
X12611540Y-28965720D02*
X12611540Y-26358720D01*
X12651540Y-24278720D02*
X12651540Y-21652720D01*
X12651540Y-28984720D02*
X12651540Y-26358720D01*
X12691540Y-24278720D02*
X12691540Y-21632720D01*
X12691540Y-29004720D02*
X12691540Y-26358720D01*
X12731540Y-24278720D02*
X12731540Y-21614720D01*
X12731540Y-29022720D02*
X12731540Y-26358720D01*
X12771540Y-24278720D02*
X12771540Y-21596720D01*
X12771540Y-29040720D02*
X12771540Y-26358720D01*
X12811540Y-24278720D02*
X12811540Y-21578720D01*
X12811540Y-29058720D02*
X12811540Y-26358720D01*
X12851540Y-24278720D02*
X12851540Y-21561720D01*
X12851540Y-29075720D02*
X12851540Y-26358720D01*
X12891540Y-24278720D02*
X12891540Y-21544720D01*
X12891540Y-29092720D02*
X12891540Y-26358720D01*
X12931540Y-24278720D02*
X12931540Y-21528720D01*
X12931540Y-29108720D02*
X12931540Y-26358720D01*
X12971540Y-24278720D02*
X12971540Y-21513720D01*
X12971540Y-29123720D02*
X12971540Y-26358720D01*
X13011540Y-24278720D02*
X13011540Y-21497720D01*
X13011540Y-29139720D02*
X13011540Y-26358720D01*
X13051540Y-24278720D02*
X13051540Y-21483720D01*
X13051540Y-29153720D02*
X13051540Y-26358720D01*
X13091540Y-24278720D02*
X13091540Y-21468720D01*
X13091540Y-29168720D02*
X13091540Y-26358720D01*
X13131540Y-24278720D02*
X13131540Y-21455720D01*
X13131540Y-29181720D02*
X13131540Y-26358720D01*
X13171540Y-24278720D02*
X13171540Y-21441720D01*
X13171540Y-29195720D02*
X13171540Y-26358720D01*
X13211540Y-24278720D02*
X13211540Y-21429720D01*
X13211540Y-29207720D02*
X13211540Y-26358720D01*
X13251540Y-24278720D02*
X13251540Y-21416720D01*
X13251540Y-29220720D02*
X13251540Y-26358720D01*
X13291540Y-24278720D02*
X13291540Y-21404720D01*
X13291540Y-29232720D02*
X13291540Y-26358720D01*
X13331540Y-24278720D02*
X13331540Y-21393720D01*
X13331540Y-29243720D02*
X13331540Y-26358720D01*
X13371540Y-24278720D02*
X13371540Y-21382720D01*
X13371540Y-29254720D02*
X13371540Y-26358720D01*
X13411540Y-24278720D02*
X13411540Y-21371720D01*
X13411540Y-29265720D02*
X13411540Y-26358720D01*
X13451540Y-24278720D02*
X13451540Y-21361720D01*
X13451540Y-29275720D02*
X13451540Y-26358720D01*
X13491540Y-24278720D02*
X13491540Y-21351720D01*
X13491540Y-29285720D02*
X13491540Y-26358720D01*
X13531540Y-24278720D02*
X13531540Y-21342720D01*
X13531540Y-29294720D02*
X13531540Y-26358720D01*
X13571540Y-24278720D02*
X13571540Y-21333720D01*
X13571540Y-29303720D02*
X13571540Y-26358720D01*
X13611540Y-24278720D02*
X13611540Y-21324720D01*
X13611540Y-29312720D02*
X13611540Y-26358720D01*
X13651540Y-24278720D02*
X13651540Y-21316720D01*
X13651540Y-29320720D02*
X13651540Y-26358720D01*
X13691540Y-24278720D02*
X13691540Y-21308720D01*
X13691540Y-29328720D02*
X13691540Y-26358720D01*
X13731540Y-24278720D02*
X13731540Y-21301720D01*
X13731540Y-29335720D02*
X13731540Y-26358720D01*
X13772540Y-29342720D02*
X13772540Y-21294720D01*
X13812540Y-29348720D02*
X13812540Y-21288720D01*
X13852540Y-29355720D02*
X13852540Y-21281720D01*
X13892540Y-29360720D02*
X13892540Y-21276720D01*
X13932540Y-29366720D02*
X13932540Y-21270720D01*
X13972540Y-29370720D02*
X13972540Y-21266720D01*
X14012540Y-29375720D02*
X14012540Y-21261720D01*
X14052540Y-29379720D02*
X14052540Y-21257720D01*
X14092540Y-29383720D02*
X14092540Y-21253720D01*
X14132540Y-29386720D02*
X14132540Y-21250720D01*
X14172540Y-29389720D02*
X14172540Y-21247720D01*
X14212540Y-29392720D02*
X14212540Y-21244720D01*
X14252540Y-29394720D02*
X14252540Y-21242720D01*
X14292540Y-29395720D02*
X14292540Y-21241720D01*
X14332540Y-29397720D02*
X14332540Y-21239720D01*
X14372540Y-29398720D02*
X14372540Y-21238720D01*
X14412540Y-29398720D02*
X14412540Y-21238720D01*
X14452540Y-29398720D02*
X14452540Y-21238720D01*
X18462238Y-28033720D02*
X18462238Y-27233720D01*
X18862238Y-27633720D02*
X18062238Y-27633720D01*
X18572540Y-25318720D02*
G75*
G02*
X10332540Y-25318720I-4120000J0D01*
G01*
X10332540Y-25318720D02*
G75*
G02*
X18572540Y-25318720I4120000J0D01*
G01*
X-8250000Y-35900000D02*
X-9050000Y-35100000D01*
X-9050000Y-35900000D02*
X-1050000Y-35900000D01*
X-1050000Y-27900000D01*
X-9050000Y-27900000D01*
X-9050000Y-35900000D01*
D19*
X720000Y-38755000D02*
X720000Y-38505000D01*
X1620000Y-38505000D02*
X1620000Y-38755000D01*
X1620000Y-38755000D02*
X720000Y-38755000D01*
D17*
X9200000Y-14750000D02*
G75*
G02*
X7300000Y-14750000I-950000J0D01*
G01*
X7300000Y-14750000D02*
G75*
G02*
X9200000Y-14750000I950000J0D01*
G01*
D19*
X960000Y-33790000D02*
X1860000Y-33790000D01*
X960000Y-34040000D02*
X960000Y-33790000D01*
X1860000Y-33790000D02*
X1860000Y-34040000D01*
D17*
X5450000Y-16750000D02*
G75*
G02*
X3550000Y-16750000I-950000J0D01*
G01*
X3550000Y-16750000D02*
G75*
G02*
X5450000Y-16750000I950000J0D01*
G01*
X-380000Y-26180000D02*
X-4180000Y-26180000D01*
X-4180000Y-21180000D01*
X-380000Y-21180000D01*
X-380000Y-26180000D01*
X14310000Y-11470000D02*
G75*
G02*
X12410000Y-11470000I-950000J0D01*
G01*
X12410000Y-11470000D02*
G75*
G02*
X14310000Y-11470000I950000J0D01*
G01*
X-4950000Y-12750000D02*
G75*
G02*
X-6850000Y-12750000I-950000J0D01*
G01*
X-6850000Y-12750000D02*
G75*
G02*
X-4950000Y-12750000I950000J0D01*
G01*
X-11610000Y-35170000D02*
X-11610000Y-32870000D01*
X-11440000Y-33030000D02*
X-14140000Y-33030000D01*
X-3600000Y-51250000D02*
X-3600000Y-50560000D01*
X-19910000Y-32260000D02*
X-19510000Y-32260000D01*
X-19910000Y-32660000D02*
X-19910000Y-32260000D01*
X-19910000Y-38560000D02*
X-19910000Y-38160000D01*
X-19510000Y-38560000D02*
X-19910000Y-38560000D01*
X-19110000Y-34560000D02*
X-19110000Y-34950000D01*
X-19090000Y-37950000D02*
X-19090000Y-37560000D01*
X-19070000Y-34560000D02*
X-19110000Y-34560000D01*
X-19050000Y-37950000D02*
X-19090000Y-37950000D01*
D20*
X-17410000Y-32260000D02*
X-17410000Y-32260000D01*
D17*
X-17360000Y-34550000D02*
X-17320000Y-34550000D01*
X-17350000Y-37950000D02*
X-17310000Y-37950000D01*
X-17320000Y-34550000D02*
X-17320000Y-34940000D01*
X-17310000Y-37950000D02*
X-17310000Y-37560000D01*
X-16110000Y-32260000D02*
X-15710000Y-32260000D01*
X-15710000Y-32260000D02*
X-15710000Y-32660000D01*
X-15710000Y-38160000D02*
X-15710000Y-38560000D01*
X-15710000Y-38560000D02*
X-16110000Y-38560000D01*
X-18110000Y-38260000D02*
X-18310000Y-38260000D01*
X-18310000Y-38560000D01*
X-18110000Y-38560000D01*
X-18110000Y-38260000D01*
G36*
X-18110000Y-38260000D02*
G01*
X-18310000Y-38260000D01*
X-18310000Y-38560000D01*
X-18110000Y-38560000D01*
X-18110000Y-38260000D01*
G37*
X-5375000Y-10075000D02*
G75*
G02*
X-7275000Y-10075000I-950000J0D01*
G01*
X-7275000Y-10075000D02*
G75*
G02*
X-5375000Y-10075000I950000J0D01*
G01*
X18380000Y-15680000D02*
G75*
G02*
X16480000Y-15680000I-950000J0D01*
G01*
X16480000Y-15680000D02*
G75*
G02*
X18380000Y-15680000I950000J0D01*
G01*
D19*
X-8640000Y-38745000D02*
X-8190000Y-38745000D01*
X-8435000Y-38300000D02*
X-8435000Y-38750000D01*
D17*
X-18670000Y-43430000D02*
X-18470000Y-43430000D01*
X-18670000Y-44230000D02*
X-18670000Y-43430000D01*
X-18670000Y-46430000D02*
X-18670000Y-45630000D01*
X-18470000Y-46430000D02*
X-18670000Y-46430000D01*
X-15870000Y-43430000D02*
X-15670000Y-43430000D01*
X-15670000Y-43430000D02*
X-15670000Y-44230000D01*
X-15670000Y-44230000D02*
X-15170000Y-44230000D01*
X-15670000Y-45630000D02*
X-15670000Y-46230000D01*
X-15670000Y-45630000D02*
X-15170000Y-45630000D01*
X-15670000Y-46230000D02*
X-15870000Y-46430000D01*
X7310000Y-6150000D02*
G75*
G02*
X5410000Y-6150000I-950000J0D01*
G01*
X5410000Y-6150000D02*
G75*
G02*
X7310000Y-6150000I950000J0D01*
G01*
X-4490000Y-55840000D02*
X-3690000Y-55840000D01*
X-4490000Y-56040000D02*
X-4490000Y-55840000D01*
X-4490000Y-58840000D02*
X-4490000Y-58640000D01*
X-3690000Y-55840000D02*
X-3690000Y-55340000D01*
X-3690000Y-58840000D02*
X-4490000Y-58840000D01*
X-2290000Y-55840000D02*
X-2290000Y-55340000D01*
X-2290000Y-55840000D02*
X-1690000Y-55840000D01*
X-1690000Y-55840000D02*
X-1490000Y-56040000D01*
X-1490000Y-58640000D02*
X-1490000Y-58840000D01*
X-1490000Y-58840000D02*
X-2290000Y-58840000D01*
X-17799500Y-12290000D02*
X-17799500Y-9090000D01*
X-17799500Y-20990000D02*
X-17799500Y-24090000D01*
X-17199500Y-9790000D02*
X-17199500Y-12290000D01*
X-17199500Y-20990000D02*
X-17199500Y-23390000D01*
X-13599500Y-9790000D02*
X-17199500Y-9790000D01*
X-13599500Y-9790000D02*
X-13599500Y-12290000D01*
X-13499500Y-20990000D02*
X-13499500Y-23390000D01*
X-13499500Y-23390000D02*
X-17199500Y-23390000D01*
X-12999500Y-9090000D02*
X-17799500Y-9090000D01*
X-12999500Y-12290000D02*
X-12999500Y-9090000D01*
X-12999500Y-20990000D02*
X-12999500Y-24090000D01*
X-12999500Y-24090000D02*
X-17799500Y-24090000D01*
D21*
X-12049500Y-15415000D02*
X-12049500Y-17765000D01*
M02*
