G04 #@! TF.GenerationSoftware,KiCad,Pcbnew,8.0.4*
G04 #@! TF.CreationDate,2025-02-25T17:16:13+05:30*
G04 #@! TF.ProjectId,P-1000101_Cicada WiSun,502d3130-3030-4313-9031-5f4369636164,0.1*
G04 #@! TF.SameCoordinates,PX7cee6c0PY3dfd240*
G04 #@! TF.FileFunction,Other,User*
%FSLAX46Y46*%
G04 Gerber Fmt 4.6, Leading zero omitted, Abs format (unit mm)*
G04 Created by KiCad (PCBNEW 8.0.4) date 2025-02-25 17:16:13*
%MOMM*%
%LPD*%
G01*
G04 APERTURE LIST*
%ADD10C,0.050000*%
%ADD11C,0.120000*%
G04 APERTURE END LIST*
D10*
X18722860Y-33962340D02*
G75*
G02*
X10222860Y-33962340I-4250000J0D01*
G01*
X10222860Y-33962340D02*
G75*
G02*
X18722860Y-33962340I4250000J0D01*
G01*
X12720000Y-49877500D02*
X13660000Y-49877500D01*
X12720000Y-51737500D02*
X12720000Y-49877500D01*
X13660000Y-49877500D02*
X13660000Y-51737500D01*
X13660000Y-51737500D02*
X12720000Y-51737500D01*
X10780400Y-30457140D02*
G75*
G02*
X2280400Y-30457140I-4250000J0D01*
G01*
X2280400Y-30457140D02*
G75*
G02*
X10780400Y-30457140I4250000J0D01*
G01*
X10739760Y-21798280D02*
G75*
G02*
X2239760Y-21798280I-4250000J0D01*
G01*
X2239760Y-21798280D02*
G75*
G02*
X10739760Y-21798280I4250000J0D01*
G01*
X14690000Y-45200000D02*
X14690000Y-51700000D01*
X14690000Y-51700000D02*
X19190000Y-51700000D01*
X19190000Y-45200000D02*
X14690000Y-45200000D01*
X19190000Y-51700000D02*
X19190000Y-45200000D01*
X11660000Y-49880000D02*
X12600000Y-49880000D01*
X11660000Y-51740000D02*
X11660000Y-49880000D01*
X12600000Y-49880000D02*
X12600000Y-51740000D01*
X12600000Y-51740000D02*
X11660000Y-51740000D01*
X10815840Y-39116000D02*
G75*
G02*
X2315840Y-39116000I-4250000J0D01*
G01*
X2315840Y-39116000D02*
G75*
G02*
X10815840Y-39116000I4250000J0D01*
G01*
X10237500Y-47780000D02*
X13197500Y-47780000D01*
X10237500Y-49240000D02*
X10237500Y-47780000D01*
X13197500Y-47780000D02*
X13197500Y-49240000D01*
X13197500Y-49240000D02*
X10237500Y-49240000D01*
X11230000Y-38945000D02*
X12690000Y-38945000D01*
X11230000Y-41905000D02*
X11230000Y-38945000D01*
X12690000Y-38945000D02*
X12690000Y-41905000D01*
X12690000Y-41905000D02*
X11230000Y-41905000D01*
X7522500Y-43530000D02*
X10482500Y-43530000D01*
X7522500Y-44990000D02*
X7522500Y-43530000D01*
X10482500Y-43530000D02*
X10482500Y-44990000D01*
X10482500Y-44990000D02*
X7522500Y-44990000D01*
X10780000Y-47210000D02*
X10780000Y-42870000D01*
X10780000Y-47210000D02*
X14180000Y-47210000D01*
X14180000Y-42870000D02*
X10780000Y-42870000D01*
X14180000Y-42870000D02*
X14180000Y-47210000D01*
X7520000Y-45070000D02*
X10480000Y-45070000D01*
X7520000Y-46530000D02*
X7520000Y-45070000D01*
X10480000Y-45070000D02*
X10480000Y-46530000D01*
X10480000Y-46530000D02*
X7520000Y-46530000D01*
X15420000Y-41340000D02*
X16360000Y-41340000D01*
X15420000Y-43200000D02*
X15420000Y-41340000D01*
X16360000Y-41340000D02*
X16360000Y-43200000D01*
X16360000Y-43200000D02*
X15420000Y-43200000D01*
X17090640Y-40358880D02*
X18550640Y-40358880D01*
X17090640Y-43318880D02*
X17090640Y-40358880D01*
X18550640Y-40358880D02*
X18550640Y-43318880D01*
X18550640Y-43318880D02*
X17090640Y-43318880D01*
X18702540Y-25318720D02*
G75*
G02*
X10202540Y-25318720I-4250000J0D01*
G01*
X10202540Y-25318720D02*
G75*
G02*
X18702540Y-25318720I4250000J0D01*
G01*
X-5420000Y-45150000D02*
X-4480000Y-45150000D01*
X-5420000Y-47010000D02*
X-5420000Y-45150000D01*
X-4480000Y-45150000D02*
X-4480000Y-47010000D01*
X-4480000Y-47010000D02*
X-5420000Y-47010000D01*
X-2950000Y-37205000D02*
X-2010000Y-37205000D01*
X-2950000Y-39065000D02*
X-2950000Y-37205000D01*
X-2010000Y-37205000D02*
X-2010000Y-39065000D01*
X-2010000Y-39065000D02*
X-2950000Y-39065000D01*
X-2760000Y-49647500D02*
X-4700000Y-49647500D01*
X-4700000Y-48027500D01*
X-2760000Y-48027500D01*
X-2760000Y-49647500D01*
X-9050000Y-35900000D02*
X-1050000Y-35900000D01*
X-1050000Y-27900000D01*
X-9050000Y-27900000D01*
X-9050000Y-35900000D01*
X-10360000Y-38815000D02*
X-9420000Y-38815000D01*
X-10360000Y-40675000D02*
X-10360000Y-38815000D01*
X-9420000Y-38815000D02*
X-9420000Y-40675000D01*
X-9420000Y-40675000D02*
X-10360000Y-40675000D01*
X700000Y-36875000D02*
X1640000Y-36875000D01*
X700000Y-38735000D02*
X700000Y-36875000D01*
X1640000Y-36875000D02*
X1640000Y-38735000D01*
X1640000Y-38735000D02*
X700000Y-38735000D01*
X-10620000Y-12505000D02*
X-8760000Y-12505000D01*
X-10620000Y-13445000D02*
X-10620000Y-12505000D01*
X-8760000Y-12505000D02*
X-8760000Y-13445000D01*
X-8760000Y-13445000D02*
X-10620000Y-13445000D01*
X-9160000Y-23400000D02*
X-7300000Y-23400000D01*
X-9160000Y-24340000D02*
X-9160000Y-23400000D01*
X-7300000Y-23400000D02*
X-7300000Y-24340000D01*
X-7300000Y-24340000D02*
X-9160000Y-24340000D01*
X20030000Y-57000000D02*
G75*
G02*
X14030000Y-57000000I-3000000J0D01*
G01*
X14030000Y-57000000D02*
G75*
G02*
X20030000Y-57000000I3000000J0D01*
G01*
X-3460000Y-44120000D02*
X-2520000Y-44120000D01*
X-3460000Y-45980000D02*
X-3460000Y-44120000D01*
X-2520000Y-44120000D02*
X-2520000Y-45980000D01*
X-2520000Y-45980000D02*
X-3460000Y-45980000D01*
X-14140000Y-44470000D02*
X-13200000Y-44470000D01*
X-14140000Y-46330000D02*
X-14140000Y-44470000D01*
X-13200000Y-44470000D02*
X-13200000Y-46330000D01*
X-13200000Y-46330000D02*
X-14140000Y-46330000D01*
X-394200Y-35801200D02*
X1465800Y-35801200D01*
X-394200Y-36741200D02*
X-394200Y-35801200D01*
X1465800Y-35801200D02*
X1465800Y-36741200D01*
X1465800Y-36741200D02*
X-394200Y-36741200D01*
X9250000Y-14750000D02*
G75*
G02*
X7250000Y-14750000I-1000000J0D01*
G01*
X7250000Y-14750000D02*
G75*
G02*
X9250000Y-14750000I1000000J0D01*
G01*
X-2440000Y-52580000D02*
X-580000Y-52580000D01*
X-2440000Y-53520000D02*
X-2440000Y-52580000D01*
X-580000Y-52580000D02*
X-580000Y-53520000D01*
X-580000Y-53520000D02*
X-2440000Y-53520000D01*
X-3470000Y-46060000D02*
X-2530000Y-46060000D01*
X-3470000Y-47920000D02*
X-3470000Y-46060000D01*
X-2530000Y-46060000D02*
X-2530000Y-47920000D01*
X-2530000Y-47920000D02*
X-3470000Y-47920000D01*
X940000Y-33810000D02*
X1880000Y-33810000D01*
X940000Y-35670000D02*
X940000Y-33810000D01*
X1880000Y-33810000D02*
X1880000Y-35670000D01*
X1880000Y-35670000D02*
X940000Y-35670000D01*
X-3980000Y-40240000D02*
X-3040000Y-40240000D01*
X-3980000Y-42100000D02*
X-3980000Y-40240000D01*
X-3040000Y-40240000D02*
X-3040000Y-42100000D01*
X-3040000Y-42100000D02*
X-3980000Y-42100000D01*
X5500000Y-16750000D02*
G75*
G02*
X3500000Y-16750000I-1000000J0D01*
G01*
X3500000Y-16750000D02*
G75*
G02*
X5500000Y-16750000I1000000J0D01*
G01*
X-5410000Y-44120000D02*
X-3550000Y-44120000D01*
X-5410000Y-45060000D02*
X-5410000Y-44120000D01*
X-3550000Y-44120000D02*
X-3550000Y-45060000D01*
X-3550000Y-45060000D02*
X-5410000Y-45060000D01*
X850000Y-26280000D02*
X-5410000Y-26280000D01*
X-5410000Y-21090000D01*
X850000Y-21090000D01*
X850000Y-26280000D01*
X-1234800Y-36868000D02*
X625200Y-36868000D01*
X-1234800Y-37808000D02*
X-1234800Y-36868000D01*
X625200Y-36868000D02*
X625200Y-37808000D01*
X625200Y-37808000D02*
X-1234800Y-37808000D01*
X14360000Y-11470000D02*
G75*
G02*
X12360000Y-11470000I-1000000J0D01*
G01*
X12360000Y-11470000D02*
G75*
G02*
X14360000Y-11470000I1000000J0D01*
G01*
X-4900000Y-12750000D02*
G75*
G02*
X-6900000Y-12750000I-1000000J0D01*
G01*
X-6900000Y-12750000D02*
G75*
G02*
X-4900000Y-12750000I1000000J0D01*
G01*
X1130000Y-21565000D02*
X2070000Y-21565000D01*
X1130000Y-23425000D02*
X1130000Y-21565000D01*
X2070000Y-21565000D02*
X2070000Y-23425000D01*
X2070000Y-23425000D02*
X1130000Y-23425000D01*
X-9345000Y-38900000D02*
X-7485000Y-38900000D01*
X-9345000Y-39840000D02*
X-9345000Y-38900000D01*
X-7485000Y-38900000D02*
X-7485000Y-39840000D01*
X-7485000Y-39840000D02*
X-9345000Y-39840000D01*
X-5260000Y-37290000D02*
X-4320000Y-37290000D01*
X-5260000Y-39150000D02*
X-5260000Y-37290000D01*
X-4320000Y-37290000D02*
X-4320000Y-39150000D01*
X-4320000Y-39150000D02*
X-5260000Y-39150000D01*
X-1950000Y-41660000D02*
X-90000Y-41660000D01*
X-1950000Y-42600000D02*
X-1950000Y-41660000D01*
X-90000Y-41660000D02*
X-90000Y-42600000D01*
X-90000Y-42600000D02*
X-1950000Y-42600000D01*
X-7110000Y-40210000D02*
X-6170000Y-40210000D01*
X-7110000Y-42070000D02*
X-7110000Y-40210000D01*
X-6170000Y-40210000D02*
X-6170000Y-42070000D01*
X-6170000Y-42070000D02*
X-7110000Y-42070000D01*
X-6000000Y-40830000D02*
X-5060000Y-40830000D01*
X-6000000Y-42690000D02*
X-6000000Y-40830000D01*
X-5060000Y-40830000D02*
X-5060000Y-42690000D01*
X-5060000Y-42690000D02*
X-6000000Y-42690000D01*
X-13960000Y-33020000D02*
X-13960000Y-35000000D01*
X-13960000Y-35000000D02*
X-11610000Y-35000000D01*
X-11610000Y-33020000D02*
X-13960000Y-33020000D01*
X-11610000Y-35000000D02*
X-11610000Y-33020000D01*
X-8380000Y-40050000D02*
X-7440000Y-40050000D01*
X-8380000Y-41910000D02*
X-8380000Y-40050000D01*
X-7440000Y-40050000D02*
X-7440000Y-41910000D01*
X-7440000Y-41910000D02*
X-8380000Y-41910000D01*
X-9020000Y-16990000D02*
X-7160000Y-16990000D01*
X-9020000Y-17930000D02*
X-9020000Y-16990000D01*
X-7160000Y-16990000D02*
X-7160000Y-17930000D01*
X-7160000Y-17930000D02*
X-9020000Y-17930000D01*
X-5000000Y-50550000D02*
X-3600000Y-50550000D01*
X-5000000Y-51250000D02*
X-5000000Y-50550000D01*
X-3600000Y-50550000D02*
X-3600000Y-51250000D01*
X-3600000Y-51250000D02*
X-5000000Y-51250000D01*
X-19910000Y-32260000D02*
X-19910000Y-38560000D01*
X-19910000Y-32260000D02*
X-19010000Y-32260000D01*
X-19010000Y-32260000D02*
X-19010000Y-32560000D01*
X-19010000Y-34610000D02*
X-19010000Y-37910000D01*
X-19010000Y-37910000D02*
X-17410000Y-37920000D01*
X-19010000Y-38560000D02*
X-19910000Y-38560000D01*
X-17410000Y-32260000D02*
X-17410000Y-32560000D01*
X-17410000Y-34610000D02*
X-19010000Y-34610000D01*
X-17410000Y-37920000D02*
X-17410000Y-34610000D01*
X-17400000Y-38560000D02*
X-15710000Y-38560000D01*
X-15710000Y-32260000D02*
X-17410000Y-32260000D01*
X-15710000Y-32260000D02*
X-15710000Y-38560000D01*
X-12170000Y-42515000D02*
X-11230000Y-42515000D01*
X-12170000Y-44375000D02*
X-12170000Y-42515000D01*
X-11230000Y-42515000D02*
X-11230000Y-44375000D01*
X-11230000Y-44375000D02*
X-12170000Y-44375000D01*
X-11380000Y-37815000D02*
X-10440000Y-37815000D01*
X-11380000Y-39675000D02*
X-11380000Y-37815000D01*
X-10440000Y-37815000D02*
X-10440000Y-39675000D01*
X-10440000Y-39675000D02*
X-11380000Y-39675000D01*
X-10615000Y-13530000D02*
X-8755000Y-13530000D01*
X-10615000Y-14470000D02*
X-10615000Y-13530000D01*
X-8755000Y-13530000D02*
X-8755000Y-14470000D01*
X-8755000Y-14470000D02*
X-10615000Y-14470000D01*
X-14013750Y-57000000D02*
G75*
G02*
X-20013750Y-57000000I-3000000J0D01*
G01*
X-20013750Y-57000000D02*
G75*
G02*
X-14013750Y-57000000I3000000J0D01*
G01*
X-1920000Y-39255000D02*
X-980000Y-39255000D01*
X-1920000Y-41115000D02*
X-1920000Y-39255000D01*
X-980000Y-39255000D02*
X-980000Y-41115000D01*
X-980000Y-41115000D02*
X-1920000Y-41115000D01*
X13760000Y-57090000D02*
G75*
G02*
X12260000Y-57090000I-750000J0D01*
G01*
X12260000Y-57090000D02*
G75*
G02*
X13760000Y-57090000I750000J0D01*
G01*
X-3935000Y-39230000D02*
X-2075000Y-39230000D01*
X-3935000Y-40170000D02*
X-3935000Y-39230000D01*
X-2075000Y-39230000D02*
X-2075000Y-40170000D01*
X-2075000Y-40170000D02*
X-3935000Y-40170000D01*
X1090000Y-24190000D02*
X2030000Y-24190000D01*
X1090000Y-26050000D02*
X1090000Y-24190000D01*
X2030000Y-24190000D02*
X2030000Y-26050000D01*
X2030000Y-26050000D02*
X1090000Y-26050000D01*
X-5325000Y-10075000D02*
G75*
G02*
X-7325000Y-10075000I-1000000J0D01*
G01*
X-7325000Y-10075000D02*
G75*
G02*
X-5325000Y-10075000I1000000J0D01*
G01*
X-2980000Y-40240000D02*
X-2040000Y-40240000D01*
X-2980000Y-42100000D02*
X-2980000Y-40240000D01*
X-2040000Y-40240000D02*
X-2040000Y-42100000D01*
X-2040000Y-42100000D02*
X-2980000Y-42100000D01*
X13390000Y-5300000D02*
G75*
G02*
X11890000Y-5300000I-750000J0D01*
G01*
X11890000Y-5300000D02*
G75*
G02*
X13390000Y-5300000I750000J0D01*
G01*
X18430000Y-15680000D02*
G75*
G02*
X16430000Y-15680000I-1000000J0D01*
G01*
X16430000Y-15680000D02*
G75*
G02*
X18430000Y-15680000I1000000J0D01*
G01*
X-2455000Y-45540000D02*
X-595000Y-45540000D01*
X-2455000Y-46480000D02*
X-2455000Y-45540000D01*
X-595000Y-45540000D02*
X-595000Y-46480000D01*
X-595000Y-46480000D02*
X-2455000Y-46480000D01*
X-18680000Y-31965000D02*
X-17740000Y-31965000D01*
X-18680000Y-33825000D02*
X-18680000Y-31965000D01*
X-17740000Y-31965000D02*
X-17740000Y-33825000D01*
X-17740000Y-33825000D02*
X-18680000Y-33825000D01*
X-14330000Y-38750000D02*
X-13390000Y-38750000D01*
X-14330000Y-40610000D02*
X-14330000Y-38750000D01*
X-13390000Y-38750000D02*
X-13390000Y-40610000D01*
X-13390000Y-40610000D02*
X-14330000Y-40610000D01*
X-16000000Y1750000D02*
G75*
G02*
X-17500000Y1750000I-750000J0D01*
G01*
X-17500000Y1750000D02*
G75*
G02*
X-16000000Y1750000I750000J0D01*
G01*
X-13105000Y-44460000D02*
X-11245000Y-44460000D01*
X-13105000Y-45400000D02*
X-13105000Y-44460000D01*
X-11245000Y-44460000D02*
X-11245000Y-45400000D01*
X-11245000Y-45400000D02*
X-13105000Y-45400000D01*
X-2970000Y-42170000D02*
X-2030000Y-42170000D01*
X-2970000Y-44030000D02*
X-2970000Y-42170000D01*
X-2030000Y-42170000D02*
X-2030000Y-44030000D01*
X-2030000Y-44030000D02*
X-2970000Y-44030000D01*
X-5415000Y-51600000D02*
X-3555000Y-51600000D01*
X-5415000Y-52540000D02*
X-5415000Y-51600000D01*
X-3555000Y-51600000D02*
X-3555000Y-52540000D01*
X-3555000Y-52540000D02*
X-5415000Y-52540000D01*
X-5000000Y-40810000D02*
X-4060000Y-40810000D01*
X-5000000Y-42670000D02*
X-5000000Y-40810000D01*
X-4060000Y-40810000D02*
X-4060000Y-42670000D01*
X-4060000Y-42670000D02*
X-5000000Y-42670000D01*
X-3490000Y-51660000D02*
X-2550000Y-51660000D01*
X-3490000Y-53520000D02*
X-3490000Y-51660000D01*
X-2550000Y-51660000D02*
X-2550000Y-53520000D01*
X-2550000Y-53520000D02*
X-3490000Y-53520000D01*
X-13310000Y-38750000D02*
X-11450000Y-38750000D01*
X-13310000Y-39690000D02*
X-13310000Y-38750000D01*
X-11450000Y-38750000D02*
X-11450000Y-39690000D01*
X-11450000Y-39690000D02*
X-13310000Y-39690000D01*
X-9025000Y-15950000D02*
X-7165000Y-15950000D01*
X-9025000Y-16890000D02*
X-9025000Y-15950000D01*
X-7165000Y-15950000D02*
X-7165000Y-16890000D01*
X-7165000Y-16890000D02*
X-9025000Y-16890000D01*
X-8445000Y-36795000D02*
X-5645000Y-36795000D01*
X-5645000Y-38795000D01*
X-8445000Y-38795000D01*
X-8445000Y-36795000D01*
X-3490000Y-49720000D02*
X-2550000Y-49720000D01*
X-3490000Y-51580000D02*
X-3490000Y-49720000D01*
X-2550000Y-49720000D02*
X-2550000Y-51580000D01*
X-2550000Y-51580000D02*
X-3490000Y-51580000D01*
X-11450000Y-55900000D02*
G75*
G02*
X-12950000Y-55900000I-750000J0D01*
G01*
X-12950000Y-55900000D02*
G75*
G02*
X-11450000Y-55900000I750000J0D01*
G01*
X-19670000Y-42430000D02*
X-19670000Y-47430000D01*
X-19670000Y-47430000D02*
X-14670000Y-47430000D01*
X-14670000Y-42430000D02*
X-19670000Y-42430000D01*
X-14670000Y-47430000D02*
X-14670000Y-42430000D01*
X7360000Y-6150000D02*
G75*
G02*
X5360000Y-6150000I-1000000J0D01*
G01*
X5360000Y-6150000D02*
G75*
G02*
X7360000Y-6150000I1000000J0D01*
G01*
X-4900000Y-18900000D02*
X-3960000Y-18900000D01*
X-4900000Y-20760000D02*
X-4900000Y-18900000D01*
X-3960000Y-18900000D02*
X-3960000Y-20760000D01*
X-3960000Y-20760000D02*
X-4900000Y-20760000D01*
X-3970000Y-42170000D02*
X-3030000Y-42170000D01*
X-3970000Y-44030000D02*
X-3970000Y-42170000D01*
X-3030000Y-42170000D02*
X-3030000Y-44030000D01*
X-3030000Y-44030000D02*
X-3970000Y-44030000D01*
X-4070000Y-37205000D02*
X-3130000Y-37205000D01*
X-4070000Y-39065000D02*
X-4070000Y-37205000D01*
X-3130000Y-37205000D02*
X-3130000Y-39065000D01*
X-3130000Y-39065000D02*
X-4070000Y-39065000D01*
X-5490000Y-54840000D02*
X-5490000Y-59840000D01*
X-5490000Y-59840000D02*
X-490000Y-59840000D01*
X-490000Y-54840000D02*
X-5490000Y-54840000D01*
X-490000Y-59840000D02*
X-490000Y-54840000D01*
X-9880000Y-14805000D02*
X-8020000Y-14805000D01*
X-9880000Y-15745000D02*
X-9880000Y-14805000D01*
X-8020000Y-14805000D02*
X-8020000Y-15745000D01*
X-8020000Y-15745000D02*
X-9880000Y-15745000D01*
X-5860000Y-39230000D02*
X-4000000Y-39230000D01*
X-5860000Y-40170000D02*
X-5860000Y-39230000D01*
X-4000000Y-39230000D02*
X-4000000Y-40170000D01*
X-4000000Y-40170000D02*
X-5860000Y-40170000D01*
D11*
X-11799500Y-8890000D02*
X-18999500Y-8890000D01*
X-18999500Y-24390000D01*
X-11799500Y-24390000D01*
X-11799500Y-8890000D01*
M02*
