G04 #@! TF.GenerationSoftware,KiCad,Pcbnew,8.0.4*
G04 #@! TF.CreationDate,2025-02-25T17:16:13+05:30*
G04 #@! TF.ProjectId,P-1000101_Cicada WiSun,502d3130-3030-4313-9031-5f4369636164,0.1*
G04 #@! TF.SameCoordinates,PX7cee6c0PY3dfd240*
G04 #@! TF.FileFunction,Paste,Top*
G04 #@! TF.FilePolarity,Positive*
%FSLAX46Y46*%
G04 Gerber Fmt 4.6, Leading zero omitted, Abs format (unit mm)*
G04 Created by KiCad (PCBNEW 8.0.4) date 2025-02-25 17:16:13*
%MOMM*%
%LPD*%
G01*
G04 APERTURE LIST*
G04 Aperture macros list*
%AMRoundRect*
0 Rectangle with rounded corners*
0 $1 Rounding radius*
0 $2 $3 $4 $5 $6 $7 $8 $9 X,Y pos of 4 corners*
0 Add a 4 corners polygon primitive as box body*
4,1,4,$2,$3,$4,$5,$6,$7,$8,$9,$2,$3,0*
0 Add four circle primitives for the rounded corners*
1,1,$1+$1,$2,$3*
1,1,$1+$1,$4,$5*
1,1,$1+$1,$6,$7*
1,1,$1+$1,$8,$9*
0 Add four rect primitives between the rounded corners*
20,1,$1+$1,$2,$3,$4,$5,0*
20,1,$1+$1,$4,$5,$6,$7,0*
20,1,$1+$1,$6,$7,$8,$9,0*
20,1,$1+$1,$8,$9,$2,$3,0*%
G04 Aperture macros list end*
%ADD10C,0.120000*%
%ADD11RoundRect,0.147500X0.172500X-0.147500X0.172500X0.147500X-0.172500X0.147500X-0.172500X-0.147500X0*%
%ADD12R,3.900000X2.200000*%
%ADD13RoundRect,0.218750X-0.218750X-0.256250X0.218750X-0.256250X0.218750X0.256250X-0.218750X0.256250X0*%
%ADD14RoundRect,0.218750X0.256250X-0.218750X0.256250X0.218750X-0.256250X0.218750X-0.256250X-0.218750X0*%
%ADD15R,0.650000X1.220000*%
%ADD16RoundRect,0.147500X-0.172500X0.147500X-0.172500X-0.147500X0.172500X-0.147500X0.172500X0.147500X0*%
%ADD17RoundRect,0.218750X-0.256250X0.218750X-0.256250X-0.218750X0.256250X-0.218750X0.256250X0.218750X0*%
%ADD18RoundRect,0.050000X-0.175000X0.050000X-0.175000X-0.050000X0.175000X-0.050000X0.175000X0.050000X0*%
%ADD19RoundRect,0.025000X-0.075000X0.025000X-0.075000X-0.025000X0.075000X-0.025000X0.075000X0.025000X0*%
%ADD20RoundRect,0.105000X-0.245000X-0.495000X0.245000X-0.495000X0.245000X0.495000X-0.245000X0.495000X0*%
%ADD21RoundRect,0.060000X0.060000X-0.240000X0.060000X0.240000X-0.060000X0.240000X-0.060000X-0.240000X0*%
%ADD22RoundRect,0.060000X-0.240000X-0.060000X0.240000X-0.060000X0.240000X0.060000X-0.240000X0.060000X0*%
%ADD23RoundRect,0.147500X-0.147500X-0.172500X0.147500X-0.172500X0.147500X0.172500X-0.147500X0.172500X0*%
%ADD24RoundRect,0.147500X0.147500X0.172500X-0.147500X0.172500X-0.147500X-0.172500X0.147500X-0.172500X0*%
%ADD25RoundRect,0.127500X0.392500X0.127500X-0.392500X0.127500X-0.392500X-0.127500X0.392500X-0.127500X0*%
%ADD26R,0.650000X0.550000*%
%ADD27RoundRect,0.087500X0.237500X-0.087500X0.237500X0.087500X-0.237500X0.087500X-0.237500X-0.087500X0*%
%ADD28R,1.600000X0.350000*%
%ADD29RoundRect,0.062500X0.062500X0.237500X-0.062500X0.237500X-0.062500X-0.237500X0.062500X-0.237500X0*%
%ADD30RoundRect,0.075000X0.225000X0.075000X-0.225000X0.075000X-0.225000X-0.075000X0.225000X-0.075000X0*%
%ADD31R,1.000000X1.000000*%
%ADD32R,2.200000X1.050000*%
%ADD33R,1.050000X2.200000*%
%ADD34RoundRect,0.150000X1.050000X0.150000X-1.050000X0.150000X-1.050000X-0.150000X1.050000X-0.150000X0*%
G04 APERTURE END LIST*
D10*
X-7150000Y-32200000D02*
X-6500000Y-32200000D01*
X-6500000Y-32850000D01*
X-7150000Y-32850000D01*
X-7150000Y-32200000D01*
G36*
X-7150000Y-32200000D02*
G01*
X-6500000Y-32200000D01*
X-6500000Y-32850000D01*
X-7150000Y-32850000D01*
X-7150000Y-32200000D01*
G37*
X-7140000Y-30950000D02*
X-6490000Y-30950000D01*
X-6490000Y-31600000D01*
X-7140000Y-31600000D01*
X-7140000Y-30950000D01*
G36*
X-7140000Y-30950000D02*
G01*
X-6490000Y-30950000D01*
X-6490000Y-31600000D01*
X-7140000Y-31600000D01*
X-7140000Y-30950000D01*
G37*
X-7125000Y-29787500D02*
X-6575000Y-29787500D01*
X-6575000Y-30412500D01*
X-7125000Y-30412500D01*
X-7125000Y-29787500D01*
G36*
X-7125000Y-29787500D02*
G01*
X-6575000Y-29787500D01*
X-6575000Y-30412500D01*
X-7125000Y-30412500D01*
X-7125000Y-29787500D01*
G37*
X-7125000Y-33400000D02*
X-6575000Y-33400000D01*
X-6575000Y-34025000D01*
X-7125000Y-34025000D01*
X-7125000Y-33400000D01*
G36*
X-7125000Y-33400000D02*
G01*
X-6575000Y-33400000D01*
X-6575000Y-34025000D01*
X-7125000Y-34025000D01*
X-7125000Y-33400000D01*
G37*
X-6050000Y-30900000D02*
X-5300000Y-30900000D01*
X-5300000Y-31650000D01*
X-6050000Y-31650000D01*
X-6050000Y-30900000D01*
G36*
X-6050000Y-30900000D02*
G01*
X-5300000Y-30900000D01*
X-5300000Y-31650000D01*
X-6050000Y-31650000D01*
X-6050000Y-30900000D01*
G37*
X-6050000Y-32150000D02*
X-5300000Y-32150000D01*
X-5300000Y-32900000D01*
X-6050000Y-32900000D01*
X-6050000Y-32150000D01*
G36*
X-6050000Y-32150000D02*
G01*
X-5300000Y-32150000D01*
X-5300000Y-32900000D01*
X-6050000Y-32900000D01*
X-6050000Y-32150000D01*
G37*
X-6000000Y-29800000D02*
X-5350000Y-29800000D01*
X-5350000Y-30450000D01*
X-6000000Y-30450000D01*
X-6000000Y-29800000D01*
G36*
X-6000000Y-29800000D02*
G01*
X-5350000Y-29800000D01*
X-5350000Y-30450000D01*
X-6000000Y-30450000D01*
X-6000000Y-29800000D01*
G37*
X-6000000Y-33375000D02*
X-5350000Y-33375000D01*
X-5350000Y-34025000D01*
X-6000000Y-34025000D01*
X-6000000Y-33375000D01*
G36*
X-6000000Y-33375000D02*
G01*
X-5350000Y-33375000D01*
X-5350000Y-34025000D01*
X-6000000Y-34025000D01*
X-6000000Y-33375000D01*
G37*
X-4800000Y-30900000D02*
X-4050000Y-30900000D01*
X-4050000Y-31650000D01*
X-4800000Y-31650000D01*
X-4800000Y-30900000D01*
G36*
X-4800000Y-30900000D02*
G01*
X-4050000Y-30900000D01*
X-4050000Y-31650000D01*
X-4800000Y-31650000D01*
X-4800000Y-30900000D01*
G37*
X-4800000Y-32150000D02*
X-4050000Y-32150000D01*
X-4050000Y-32900000D01*
X-4800000Y-32900000D01*
X-4800000Y-32150000D01*
G36*
X-4800000Y-32150000D02*
G01*
X-4050000Y-32150000D01*
X-4050000Y-32900000D01*
X-4800000Y-32900000D01*
X-4800000Y-32150000D01*
G37*
X-4750000Y-29775000D02*
X-4100000Y-29775000D01*
X-4100000Y-30425000D01*
X-4750000Y-30425000D01*
X-4750000Y-29775000D01*
G36*
X-4750000Y-29775000D02*
G01*
X-4100000Y-29775000D01*
X-4100000Y-30425000D01*
X-4750000Y-30425000D01*
X-4750000Y-29775000D01*
G37*
X-4750000Y-33375000D02*
X-4100000Y-33375000D01*
X-4100000Y-34025000D01*
X-4750000Y-34025000D01*
X-4750000Y-33375000D01*
G36*
X-4750000Y-33375000D02*
G01*
X-4100000Y-33375000D01*
X-4100000Y-34025000D01*
X-4750000Y-34025000D01*
X-4750000Y-33375000D01*
G37*
X-3575000Y-30950000D02*
X-2925000Y-30950000D01*
X-2925000Y-31600000D01*
X-3575000Y-31600000D01*
X-3575000Y-30950000D01*
G36*
X-3575000Y-30950000D02*
G01*
X-2925000Y-30950000D01*
X-2925000Y-31600000D01*
X-3575000Y-31600000D01*
X-3575000Y-30950000D01*
G37*
X-3575000Y-32200000D02*
X-2925000Y-32200000D01*
X-2925000Y-32850000D01*
X-3575000Y-32850000D01*
X-3575000Y-32200000D01*
G36*
X-3575000Y-32200000D02*
G01*
X-2925000Y-32200000D01*
X-2925000Y-32850000D01*
X-3575000Y-32850000D01*
X-3575000Y-32200000D01*
G37*
X-3525000Y-29787500D02*
X-2975000Y-29787500D01*
X-2975000Y-30412500D01*
X-3525000Y-30412500D01*
X-3525000Y-29787500D01*
G36*
X-3525000Y-29787500D02*
G01*
X-2975000Y-29787500D01*
X-2975000Y-30412500D01*
X-3525000Y-30412500D01*
X-3525000Y-29787500D01*
G37*
X-3525000Y-33387500D02*
X-2975000Y-33387500D01*
X-2975000Y-34012500D01*
X-3525000Y-34012500D01*
X-3525000Y-33387500D01*
G36*
X-3525000Y-33387500D02*
G01*
X-2975000Y-33387500D01*
X-2975000Y-34012500D01*
X-3525000Y-34012500D01*
X-3525000Y-33387500D01*
G37*
D11*
X13190000Y-51292500D03*
X13190000Y-50322500D03*
D12*
X16940000Y-46550000D03*
X16940000Y-50350000D03*
D11*
X12130000Y-51295000D03*
X12130000Y-50325000D03*
D13*
X10930000Y-48510000D03*
X12505000Y-48510000D03*
D14*
X11960000Y-41212500D03*
X11960000Y-39637500D03*
D13*
X8215000Y-44260000D03*
X9790000Y-44260000D03*
D15*
X11530000Y-46350000D03*
X12480000Y-46350000D03*
X13430000Y-46350000D03*
X13430000Y-43730000D03*
X11530000Y-43730000D03*
D13*
X8212500Y-45800000D03*
X9787500Y-45800000D03*
D16*
X15890000Y-41785000D03*
X15890000Y-42755000D03*
D17*
X17820640Y-41051380D03*
X17820640Y-42626380D03*
D11*
X-4950000Y-46565000D03*
X-4950000Y-45595000D03*
D16*
X-2480000Y-37650000D03*
X-2480000Y-38620000D03*
D18*
X-2955000Y-49437500D03*
X-2955000Y-49037500D03*
X-2955000Y-48637500D03*
X-2955000Y-48237500D03*
X-4505000Y-48237500D03*
X-4505000Y-48637500D03*
X-4505000Y-49037500D03*
X-4505000Y-49437500D03*
D19*
X-3730000Y-49437500D03*
D20*
X-3730000Y-48837500D03*
D19*
X-3730000Y-48237500D03*
D21*
X-7800000Y-35300000D03*
X-7300000Y-35300000D03*
X-6800000Y-35300000D03*
X-6300000Y-35300000D03*
X-5800000Y-35300000D03*
X-5300000Y-35300000D03*
X-4800000Y-35300000D03*
X-4300000Y-35300000D03*
X-3800000Y-35300000D03*
X-3300000Y-35300000D03*
X-2800000Y-35300000D03*
X-2300000Y-35300000D03*
D22*
X-1650000Y-34650000D03*
X-1650000Y-34150000D03*
X-1650000Y-33650000D03*
X-1650000Y-33150000D03*
X-1650000Y-32650000D03*
X-1650000Y-32150000D03*
X-1650000Y-31650000D03*
X-1650000Y-31150000D03*
X-1650000Y-30650000D03*
X-1650000Y-30150000D03*
X-1650000Y-29650000D03*
X-1650000Y-29150000D03*
D21*
X-2300000Y-28500000D03*
X-2800000Y-28500000D03*
X-3300000Y-28500000D03*
X-3800000Y-28500000D03*
X-4300000Y-28500000D03*
X-4800000Y-28500000D03*
X-5300000Y-28500000D03*
X-5800000Y-28500000D03*
X-6300000Y-28500000D03*
X-6800000Y-28500000D03*
X-7300000Y-28500000D03*
X-7800000Y-28500000D03*
D22*
X-8450000Y-29150000D03*
X-8450000Y-29650000D03*
X-8450000Y-30150000D03*
X-8450000Y-30650000D03*
X-8450000Y-31150000D03*
X-8450000Y-31650000D03*
X-8450000Y-32150000D03*
X-8450000Y-32650000D03*
X-8450000Y-33150000D03*
X-8450000Y-33650000D03*
X-8450000Y-34150000D03*
X-8450000Y-34650000D03*
D11*
X-9890000Y-40230000D03*
X-9890000Y-39260000D03*
X1170000Y-38290000D03*
X1170000Y-37320000D03*
D23*
X-10175000Y-12975000D03*
X-9205000Y-12975000D03*
X-8715000Y-23870000D03*
X-7745000Y-23870000D03*
D16*
X-2990000Y-44565000D03*
X-2990000Y-45535000D03*
X-13670000Y-44915000D03*
X-13670000Y-45885000D03*
D23*
X50800Y-36271200D03*
X1020800Y-36271200D03*
X-1995000Y-53050000D03*
X-1025000Y-53050000D03*
D11*
X-3000000Y-47475000D03*
X-3000000Y-46505000D03*
D16*
X1410000Y-34255000D03*
X1410000Y-35225000D03*
D11*
X-3510000Y-41655000D03*
X-3510000Y-40685000D03*
D24*
X-3995000Y-44590000D03*
X-4965000Y-44590000D03*
D25*
X300000Y-25585000D03*
X300000Y-24315000D03*
X300000Y-23045000D03*
X300000Y-21775000D03*
X-4860000Y-21775000D03*
X-4860000Y-23045000D03*
X-4860000Y-24315000D03*
X-4860000Y-25585000D03*
D23*
X-789800Y-37338000D03*
X180200Y-37338000D03*
D11*
X1600000Y-22980000D03*
X1600000Y-22010000D03*
D23*
X-8900000Y-39370000D03*
X-7930000Y-39370000D03*
D16*
X-4790000Y-37735000D03*
X-4790000Y-38705000D03*
D23*
X-1505000Y-42130000D03*
X-535000Y-42130000D03*
D16*
X-6640000Y-40655000D03*
X-6640000Y-41625000D03*
X-5530000Y-41275000D03*
X-5530000Y-42245000D03*
D26*
X-12110000Y-33470000D03*
X-13510000Y-33470000D03*
X-13510000Y-34570000D03*
X-12110000Y-34570000D03*
D16*
X-7910000Y-40495000D03*
X-7910000Y-41465000D03*
D23*
X-8575000Y-17460000D03*
X-7605000Y-17460000D03*
D27*
X-17735000Y-37735000D03*
X-18685000Y-37735000D03*
D28*
X-18210000Y-34785000D03*
D11*
X-11700000Y-43930000D03*
X-11700000Y-42960000D03*
X-10910000Y-39230000D03*
X-10910000Y-38260000D03*
D23*
X-10170000Y-14000000D03*
X-9200000Y-14000000D03*
D16*
X-1450000Y-39700000D03*
X-1450000Y-40670000D03*
D24*
X-2520000Y-39700000D03*
X-3490000Y-39700000D03*
D11*
X1560000Y-25605000D03*
X1560000Y-24635000D03*
D16*
X-2510000Y-40685000D03*
X-2510000Y-41655000D03*
D23*
X-2010000Y-46010000D03*
X-1040000Y-46010000D03*
D11*
X-18210000Y-33380000D03*
X-18210000Y-32410000D03*
D16*
X-13860000Y-39195000D03*
X-13860000Y-40165000D03*
D24*
X-11690000Y-44930000D03*
X-12660000Y-44930000D03*
D16*
X-2500000Y-42615000D03*
X-2500000Y-43585000D03*
D24*
X-4000000Y-52070000D03*
X-4970000Y-52070000D03*
D16*
X-4530000Y-41255000D03*
X-4530000Y-42225000D03*
X-3020000Y-52105000D03*
X-3020000Y-53075000D03*
D24*
X-11895000Y-39220000D03*
X-12865000Y-39220000D03*
D23*
X-8580000Y-16420000D03*
X-7610000Y-16420000D03*
D29*
X-7795000Y-38520000D03*
X-7295000Y-38520000D03*
X-6795000Y-38520000D03*
X-6295000Y-38520000D03*
D30*
X-5945000Y-37795000D03*
D29*
X-6295000Y-37070000D03*
X-6795000Y-37070000D03*
X-7295000Y-37070000D03*
X-7795000Y-37070000D03*
D30*
X-8145000Y-37795000D03*
D16*
X-3020000Y-50165000D03*
X-3020000Y-51135000D03*
D31*
X-15670000Y-44930000D03*
D32*
X-17170000Y-46405000D03*
D31*
X-18670000Y-44930000D03*
D32*
X-17170000Y-43455000D03*
D16*
X-4430000Y-19345000D03*
X-4430000Y-20315000D03*
D11*
X-3500000Y-43585000D03*
X-3500000Y-42615000D03*
D16*
X-3600000Y-37650000D03*
X-3600000Y-38620000D03*
D31*
X-2990000Y-55840000D03*
D33*
X-1515000Y-57340000D03*
D31*
X-2990000Y-58840000D03*
D33*
X-4465000Y-57340000D03*
D23*
X-9435000Y-15275000D03*
X-8465000Y-15275000D03*
D24*
X-4445000Y-39700000D03*
X-5415000Y-39700000D03*
D34*
X-13499500Y-20400000D03*
X-17399500Y-20400000D03*
X-13499500Y-19130000D03*
X-17399500Y-19130000D03*
X-13499500Y-17860000D03*
X-17399500Y-17860000D03*
X-13499500Y-16590000D03*
X-17399500Y-16590000D03*
X-13499500Y-15320000D03*
X-17399500Y-15320000D03*
X-13499500Y-14050000D03*
X-17399500Y-14050000D03*
X-13499500Y-12780000D03*
X-17399500Y-12780000D03*
M02*
