M48
; DRILL file {KiCad 8.0.4} date 2025-02-25T17:16:45+0530
; FORMAT={-:-/ absolute / metric / decimal}
; #@! TF.CreationDate,2025-02-25T17:16:45+05:30
; #@! TF.GenerationSoftware,Kicad,Pcbnew,8.0.4
; #@! TF.FileFunction,Plated,1,4,PTH
FMAT,2
METRIC
; #@! TA.AperFunction,Plated,PTH,ViaDrill
T1C0.200
; #@! TA.AperFunction,Plated,PTH,ComponentDrill
T2C0.300
; #@! TA.AperFunction,Plated,PTH,ComponentDrill
T3C0.800
; #@! TA.AperFunction,Plated,PTH,ComponentDrill
T4C1.000
; #@! TA.AperFunction,Plated,PTH,ComponentDrill
T5C3.200
%
G90
G05
T1
X-19.54Y-13.99
X-19.54Y-15.29
X-19.52Y-16.53
X-19.5Y-19.07
X-19.49Y-17.8
X-19.38Y-43.5
X-19.36Y-46.52
X-19.0Y2.0
X-19.0Y0.0
X-19.0Y-2.0
X-19.0Y-4.0
X-19.0Y-6.0
X-19.0Y-8.0
X-19.0Y-10.0
X-19.0Y-22.0
X-19.0Y-24.0
X-19.0Y-26.0
X-19.0Y-28.0
X-19.0Y-30.0
X-18.0Y-53.0
X-17.61Y-44.99
X-17.36Y-11.4
X-17.0Y4.0
X-17.0Y-1.0
X-17.0Y-3.0
X-17.0Y-5.0
X-17.0Y-7.0
X-17.0Y-9.0
X-17.0Y-23.0
X-17.0Y-25.0
X-17.0Y-27.0
X-17.0Y-29.0
X-17.0Y-31.0
X-16.0Y-53.0
X-15.61Y-43.39
X-15.61Y-46.39
X-15.0Y4.0
X-15.0Y1.0
X-15.0Y-2.0
X-15.0Y-4.0
X-15.0Y-6.0
X-15.0Y-8.0
X-15.0Y-22.0
X-15.0Y-24.0
X-15.0Y-26.0
X-15.0Y-28.0
X-15.0Y-30.0
X-14.0Y-53.0
X-13.89Y-40.97
X-13.66Y-46.67
X-13.51Y-31.29
X-13.0Y4.0
X-13.0Y-9.0
X-13.0Y-23.0
X-13.0Y-25.0
X-13.0Y-27.0
X-13.0Y-29.0
X-13.0Y-55.0
X-13.0Y-59.0
X-12.983Y-31.77
X-12.74Y-42.95
X-12.599Y-32.35
X-12.24Y-36.01
X-12.0Y-53.0
X-11.57Y-35.4
X-11.3Y-26.56
X-11.17Y-32.7
X-11.03Y-19.07
X-11.0Y4.0
X-11.0Y-8.0
X-11.0Y-22.0
X-11.0Y-24.0
X-11.0Y-28.0
X-11.0Y-30.0
X-11.0Y-55.0
X-11.0Y-59.0
X-10.9Y-37.21
X-10.774Y-35.396
X-10.62Y-17.15
X-10.272Y-32.75
X-10.0Y-53.0
X-10.0Y-57.0
X-9.977Y-33.505
X-9.5Y-20.0
X-9.395Y-34.675
X-9.38Y-33.18
X-9.33Y-16.42
X-9.32Y-17.46
X-9.3Y-18.7
X-9.14Y-37.79
X-9.0Y4.0
X-9.0Y-9.0
X-9.0Y-55.0
X-9.0Y-59.0
X-8.84Y-41.48
X-8.73Y-20.84
X-8.44Y-27.5
X-8.275Y-13.225
X-8.181Y-25.47
X-8.0Y-53.0
X-8.0Y-57.0
X-7.98Y-10.62
X-7.5Y-15.3
X-7.36Y-25.58
X-7.101Y-39.494
X-7.02Y-27.42
X-7.0Y4.0
X-7.0Y-4.0
X-7.0Y-6.0
X-7.0Y-8.0
X-6.47Y-14.65
X-6.3Y-26.14
X-5.98Y-48.69
X-5.72Y-57.34
X-5.59Y-38.57
X-5.58Y-37.76
X-5.55Y-43.01
X-5.45Y-14.075
X-5.38Y-40.54
X-5.24Y-48.5
X-5.0Y4.0
X-5.0Y-5.0
X-5.0Y-7.0
X-5.0Y-9.0
X-5.0Y-53.09
X-4.773Y-36.09
X-4.59Y-50.11
X-4.53Y-42.99
X-4.47Y-26.67
X-4.465Y-58.84
X-4.45Y-17.99
X-4.065Y-36.123
X-4.0Y-11.0
X-3.96Y-46.56
X-3.94Y-50.08
X-3.93Y-47.63
X-3.629Y-20.529
X-3.386Y-36.124
X-3.27Y-17.72
X-3.1Y-27.239
X-3.0Y4.0
X-3.0Y-12.0
X-2.433Y-48.637
X-2.38Y-27.26
X-2.0Y-7.0
X-1.75Y-28.0
X-1.7Y-18.8
X-1.515Y-58.84
X-1.5Y-16.5
X-1.245Y-4.245
X-1.02Y-46.87
X-1.02Y-53.98
X-0.71Y-28.76
X-0.71Y-34.99
X-0.63Y-29.63
X-0.63Y-30.6
X-0.6Y-31.37
X-0.59Y-32.13
X-0.55Y-43.13
X-0.4Y-20.0
X-0.39Y-57.34
X-0.31Y-40.79
X-0.125Y-6.125
X0.0Y3.0
X0.5Y-14.0
X1.0Y-4.0
X1.0Y-59.0
X1.25Y-39.25
X1.25Y-40.75
X1.25Y-42.25
X1.25Y-43.75
X1.25Y-45.25
X1.25Y-46.75
X1.25Y-48.25
X1.25Y-49.75
X1.25Y-51.5
X1.25Y-53.25
X1.569Y-26.6
X1.75Y-14.5
X1.75Y-16.0
X1.75Y-17.75
X1.75Y-19.25
X1.85Y-33.49
X1.85Y-36.52
X1.87Y-23.74
X1.9Y-21.19
X2.0Y3.0
X2.155Y-12.945
X2.24Y-6.76
X3.0Y-5.0
X3.0Y-54.0
X3.0Y-59.0
X3.302Y-24.638
X3.302Y-26.162
X3.302Y-27.94
X3.302Y-33.528
X3.302Y-35.052
X3.302Y-36.83
X3.31Y-17.89
X3.36Y-15.17
X3.556Y-41.656
X3.556Y-43.688
X3.556Y-45.72
X3.556Y-47.752
X3.556Y-49.784
X3.556Y-51.816
X4.24Y-6.76
X4.572Y-19.812
X4.572Y-23.876
X4.572Y-25.4
X4.572Y-26.924
X4.572Y-32.766
X4.572Y-34.29
X4.572Y-35.814
X5.0Y-4.0
X5.0Y-54.0
X5.0Y-59.0
X5.08Y-42.672
X5.08Y-44.704
X5.08Y-46.736
X5.08Y-48.768
X5.08Y-50.8
X5.82Y-15.08
X5.82Y-17.78
X5.842Y-24.638
X5.842Y-26.162
X5.842Y-27.686
X5.842Y-33.528
X5.842Y-35.052
X5.842Y-36.576
X6.27Y-10.43
X6.604Y-47.752
X6.604Y-49.784
X6.604Y-51.816
X7.0Y-54.0
X7.0Y-59.0
X7.97Y-34.23
X8.0Y-4.0
X8.0Y-20.0
X8.0Y-35.5
X8.0Y-41.25
X8.128Y-48.768
X8.128Y-50.8
X8.24Y-6.76
X8.25Y-26.5
X9.0Y-54.0
X9.0Y-59.0
X9.58Y-48.26
X9.652Y-51.816
X10.0Y-5.0
X10.0Y-15.0
X10.0Y-18.0
X10.0Y-22.0
X10.0Y-25.0
X10.0Y-28.0
X10.0Y-31.0
X10.0Y-34.0
X10.0Y-37.0
X10.0Y-40.0
X10.0Y-42.5
X10.24Y-6.76
X10.414Y-49.53
X10.7Y-11.47
X11.0Y-54.0
X11.0Y-59.0
X11.938Y-49.53
X12.0Y-4.0
X12.0Y-29.5
X12.24Y-6.76
X13.0Y-54.0
X13.0Y-59.0
X13.716Y-48.26
X13.716Y-49.53
X14.0Y2.0
X14.0Y-2.0
X14.0Y-6.0
X14.0Y-9.0
X14.0Y-19.5
X14.0Y-22.5
X14.0Y-28.0
X14.0Y-31.0
X14.0Y-36.0
X14.0Y-38.5
X14.986Y-52.324
X15.0Y0.0
X15.0Y-4.0
X15.0Y-54.0
X15.04Y-14.96
X15.215Y-7.785
X15.32Y-9.68
X16.71Y-12.96
X17.0Y1.0
X17.0Y-1.0
X17.0Y-3.0
X17.0Y-5.0
X17.0Y-7.0
X17.0Y-44.0
X17.018Y-52.324
X17.43Y-14.2
X18.035Y-10.405
X19.0Y-12.0
X19.0Y-15.0
X19.0Y-18.0
X19.0Y-21.0
X19.0Y-24.0
X19.0Y-27.0
X19.0Y-30.0
X19.0Y-33.0
X19.0Y-36.0
X19.0Y-39.0
X19.0Y-42.0
X19.0Y-54.0
X19.05Y-52.324
T2
X-7.375Y-30.64
X-7.35Y-31.9
X-7.35Y-33.16
X-6.31Y-29.575
X-6.31Y-30.64
X-6.31Y-31.9
X-6.31Y-33.16
X-6.31Y-34.225
X-5.05Y-29.575
X-5.05Y-30.64
X-5.05Y-31.9
X-5.05Y-33.16
X-5.05Y-34.225
X-3.79Y-29.575
X-3.79Y-30.64
X-3.79Y-31.9
X-3.79Y-33.16
X-3.79Y-34.225
X-2.725Y-30.64
X-2.725Y-31.9
X-2.725Y-33.16
T3
X4.74Y-21.798
X4.78Y-30.457
X4.816Y-39.116
X8.24Y-21.798
X8.28Y-30.457
X8.316Y-39.116
X12.703Y-25.319
X12.723Y-33.962
X16.203Y-25.319
X16.223Y-33.962
T4
X-11.405Y1.245
X-11.405Y-1.295
X-8.865Y1.245
X-8.865Y-1.295
X-6.325Y1.245
X-6.325Y-1.295
X-3.785Y1.245
X-3.785Y-1.295
X-1.245Y1.245
X-1.245Y-1.295
X1.295Y1.245
X1.295Y-1.295
X3.835Y1.245
X3.835Y-1.295
X6.375Y1.245
X6.375Y-1.295
X8.915Y1.245
X8.915Y-1.295
X11.455Y1.245
X11.455Y-1.295
T5
X-17.014Y-57.0
X17.03Y-57.0
M30
